<?xml version="1.0" encoding="utf-8"?>
<!-- Generator: Adobe Illustrator 22.0.0, SVG Export Plug-In . SVG Version: 6.00 Build 0)  -->
<svg version="1.1" id="Layer_1" xmlns="http://www.w3.org/2000/svg" xmlns:xlink="http://www.w3.org/1999/xlink" x="0px" y="0px"
	 viewBox="0 0 65.7 57.1" style="enable-background:new 0 0 65.7 57.1;" xml:space="preserve">
<title></title>
<style type="text/css">
	.st0{fill:#F96332;}
</style>
<g>
	<path class="st0" d="M61.3,27.7l-8.8-9.3c-0.2-0.2-0.4-0.3-0.7-0.3H14c-0.3,0-0.5,0.1-0.7,0.3l-8.8,9.3c-0.4,0.4-0.4,1,0,1.4l27.7,27.7
		c0.4,0.4,1,0.4,1.4,0c0,0,0,0,0,0l27.7-27.7C61.6,28.7,61.6,28.1,61.3,27.7z M36.3,20.2l6.9,7.3H22.4l6.9-7.3H36.3z M14.3,20.2
		h12.3l-6.9,7.3H7.5L14.3,20.2z M7.5,29.4h11.8L30,51.9L7.5,29.4z M32.8,53.2L21.6,29.4h22.6L32.8,53.2z M35.7,51.9l10.7-22.5h11.8
		L35.7,51.9z M46,27.4l-6.9-7.3h12.2l6.9,7.3H46z"/>
	<path class="st0" d="M32.8,8.3C32.8,8.3,32.8,8.3,32.8,8.3c0.6,0,1-0.4,1-1V1c0-0.6-0.4-1-1-1s-1,0.4-1,1v6.3C31.8,7.8,32.3,8.3,32.8,8.3z"/>
	<path class="st0" d="M65.6,11.3C65.6,11.3,65.6,11.3,65.6,11.3c-0.3-0.5-0.9-0.6-1.4-0.4c0,0,0,0,0,0l-5.4,3.1c-0.5,0.3-0.6,0.9-0.4,1.4
		c0.2,0.3,0.5,0.5,0.9,0.5c0.2,0,0.3-0.1,0.5-0.1l5.4-3.1C65.7,12.4,65.8,11.8,65.6,11.3z"/>
	<path class="st0" d="M7.3,15.4C7.3,15.4,7.3,15.4,7.3,15.4c0.3-0.5,0.1-1.1-0.4-1.4c0,0,0,0,0,0l-5.4-3.1c-0.5-0.3-1.1-0.1-1.4,0.4c0,0,0,0,0,0
		c-0.3,0.5-0.1,1.1,0.4,1.4c0,0,0,0,0,0l5.4,3.1C6.4,16.1,7,15.9,7.3,15.4z"/>
	<path class="st0" d="M13.5,11.3c0.2,0.3,0.5,0.5,0.9,0.5c0.6,0,1-0.5,1-1c0-0.2,0-0.3-0.1-0.5l-3.1-5.4c-0.3-0.5-0.9-0.6-1.4-0.4
		c-0.5,0.3-0.6,0.9-0.4,1.4L13.5,11.3z"/>
	<path class="st0" d="M50.8,11.6C50.8,11.6,50.8,11.6,50.8,11.6c0.2,0.1,0.3,0.1,0.5,0.1c0.4,0,0.7-0.2,0.9-0.5l3.1-5.4c0.3-0.5,0.1-1.1-0.4-1.4
		c-0.5-0.3-1.1-0.1-1.4,0.4c0,0,0,0,0,0l-3.1,5.4C50.2,10.7,50.4,11.4,50.8,11.6z"/>
	<path class="st0" d="M23.1,8.2c0.1,0.4,0.5,0.8,1,0.7h0.3c0.5-0.1,0.8-0.7,0.7-1.2c0,0,0,0,0,0l-1.6-6.1c-0.1-0.5-0.6-0.9-1.2-0.8
		c-0.5,0.1-0.9,0.6-0.8,1.2c0,0,0,0.1,0,0.1L23.1,8.2z"/>
	<path class="st0" d="M41.3,9C41.3,9,41.3,9,41.3,9l0.3,0c0.5,0,0.9-0.3,1-0.7l1.6-6.1c0.2-0.5-0.1-1.1-0.6-1.3c-0.5-0.2-1.1,0.1-1.3,0.6
		c0,0,0,0.1,0,0.1l-1.6,6C40.5,8.3,40.8,8.8,41.3,9z"/>
</g>
</svg>
