<?xml version="1.0" encoding="utf-8"?>
<!-- Generator: Adobe Illustrator 22.0.0, SVG Export Plug-In . SVG Version: 6.00 Build 0)  -->
<svg version="1.1" id="Layer_1" xmlns="http://www.w3.org/2000/svg" xmlns:xlink="http://www.w3.org/1999/xlink" x="0px" y="0px"
	 viewBox="0 0 23.7 46.4" style="enable-background:new 0 0 23.7 46.4;" xml:space="preserve">
<style type="text/css">
	.st0{fill:#F96332;}
</style>
<g>
	<g>
		<path class="st0" d="M16.2,34.4c0,0-0.1,0-0.1,0l-1.9-0.1l0.1-0.5c0.6-2.3,1-4.6,1-5.6c0.1-2.1-1.3-3.5-3.4-3.6
			c-2-0.1-3.5,1.3-3.6,3.4c0,1,0.2,3.4,0.7,5.7l0.1,0.5l-1.9-0.1c-1.8-0.1-3.4-1.4-3.8-3.2C3,28.4,2.2,23.9,1.7,17.1
			c-0.3-3.6,0.6-6.9,2.5-10c1.7-2.7,4-4.7,5.6-5.9c1.7-1.3,4.1-1.2,5.8,0.2c1.1,0.9,2.1,2,3,3.1l0.6,0.7l-0.1,0
			c0.5,0.7,1.3,1.9,1.6,2.4c1.7,3.2,2.4,6.6,1.9,10.1c-0.9,6.7-1.9,11.2-2.6,13.7C19.5,33.2,18,34.4,16.2,34.4z M15.3,33.5l0.8,0
			c1.4,0.1,2.7-0.9,3.1-2.3c0.7-2.5,1.7-7,2.6-13.6c0.4-3.3-0.2-6.6-1.8-9.6c-0.3-0.5-1.1-1.7-1.6-2.4l-0.1-0.1l-11-0.1
			c-0.4,0-1.1,0-1.1-0.7c0-0.2,0.1-0.4,0.2-0.5C6.6,4.1,7,4.1,7.2,4.1l10,0.2c-0.7-0.8-1.5-1.5-2.3-2.2c-1.3-1.1-3.3-1.2-4.7-0.1
			C8.7,3.1,6.5,5,4.9,7.6c-1.8,2.9-2.6,6.1-2.3,9.5c0.5,6.7,1.3,11.2,1.8,13.7c0.3,1.4,1.5,2.4,2.9,2.5l0.8,0
			c-0.4-2.2-0.6-4.4-0.6-5.3c0.1-2.6,1.9-4.3,4.4-4.2c2.5,0.1,4.3,1.9,4.2,4.5C16.1,29.2,15.8,31.4,15.3,33.5z"/>
	</g>
</g>
<g>
	<g>
		<path class="st0" d="M11.4,40.3l-0.2-0.1c-0.6-0.3-1.6-2.1-2.5-6.4c-0.2-0.9-0.4-1.6-0.5-2.3C7.9,30,7.7,29.1,7.7,28
			c0-1.4,0.5-2.5,1.5-3.2c0.7-0.6,1.7-0.9,2.8-0.9c1.1,0,2,0.4,2.7,1c0.9,0.8,1.3,1.9,1.3,3.3c0,0.9-0.3,1.7-0.7,3
			c-0.2,0.7-0.5,1.6-0.8,2.8c-1.1,4.2-2.2,5.9-2.9,6.2L11.4,40.3z M11.8,24.9c-0.8,0-1.6,0.2-2.1,0.7c-0.7,0.6-1.1,1.4-1.1,2.5
			c0,0.9,0.2,1.7,0.5,3.3c0.1,0.6,0.3,1.4,0.5,2.3c0.8,3.7,1.5,5.1,1.9,5.6c0.4-0.4,1.2-1.8,2.2-5.4c0.3-1.2,0.6-2.1,0.8-2.8
			c0.4-1.2,0.6-1.9,0.6-2.7c0-1.1-0.3-2-1-2.6c-0.6-0.5-1.3-0.8-2.2-0.8C11.9,24.9,11.8,24.9,11.8,24.9z"/>
	</g>
</g>
<g>
	<g>
		<path class="st0" d="M3.7,39.4l-0.2-0.1C2.9,39,2,37.2,1.1,33.1c-0.7-3.2-1-6.6-1-8c0-1.6,0.8-2.9,2.1-3.5l0.5-0.3l0.1,0.6
			c0.4,2.9,0.8,5.5,1.3,7.9c0.3,1.5,1.1,2.8,2.3,3.7l0.2,0.2l-0.1,0.3C5.6,37,4.6,39,3.9,39.3L3.7,39.4z M2,22.7
			c-0.7,0.5-1,1.4-1.1,2.4c0,1.3,0.3,4.7,1,7.8c0.8,3.6,1.5,4.9,1.8,5.4c0.3-0.4,1-1.5,1.8-4.4c-1.2-1-2-2.4-2.3-4
			C2.8,27.8,2.4,25.4,2,22.7z"/>
	</g>
</g>
<g>
	<g>
		<path class="st0" d="M20.1,39.4l-0.2-0.1c-0.8-0.3-1.7-2.3-2.6-5.4l-0.1-0.3l0.2-0.2c1.2-0.9,2-2.2,2.3-3.7
			c0.5-2.3,0.9-4.9,1.3-7.9l0.1-0.6l0.5,0.3c1.3,0.6,2,1.9,2.1,3.5c0,1.4-0.3,4.8-1,8c-0.9,4.1-1.8,5.9-2.4,6.2L20.1,39.4z
			 M18.2,33.9c0.8,2.8,1.5,4,1.8,4.4c0.3-0.5,1-1.8,1.8-5.4c0.7-3.1,1-6.5,1-7.8c0-1-0.4-1.9-1.1-2.4c-0.4,2.7-0.8,5.1-1.2,7.2
			C20.2,31.5,19.4,32.9,18.2,33.9z"/>
	</g>
</g>
<g>
	<g>
		<path class="st0" d="M6.7,46.4c-0.2,0-0.4-0.2-0.4-0.4V33.9c0-0.2,0.2-0.4,0.4-0.4c0.2,0,0.4,0.2,0.4,0.4V46
			C7.2,46.2,7,46.4,6.7,46.4z"/>
	</g>
</g>
<g>
	<g>
		<path class="st0" d="M16.9,46.3c-0.2,0-0.4-0.2-0.4-0.4V34c0-0.2,0.2-0.4,0.4-0.4c0.2,0,0.4,0.2,0.4,0.4v11.9
			C17.3,46.1,17.1,46.3,16.9,46.3z"/>
	</g>
</g>
<g>
	<g>
		<path class="st0" d="M14.4,40.1c-0.2,0-0.4-0.2-0.4-0.4v-3c0-0.2,0.2-0.4,0.4-0.4c0.2,0,0.4,0.2,0.4,0.4v3
			C14.8,39.9,14.6,40.1,14.4,40.1z"/>
	</g>
</g>
<g>
	<g>
		<path class="st0" d="M8.9,43.3c-0.2,0-0.4-0.2-0.4-0.4v-4.4c0-0.2,0.2-0.4,0.4-0.4s0.4,0.2,0.4,0.4v4.4
			C9.4,43.1,9.2,43.3,8.9,43.3z"/>
	</g>
</g>
<g>
	<g>
		<path class="st0" d="M12,21.1c-3.4,0-6.2-2.8-6.2-6.2S8.6,8.7,12,8.7s6.2,2.8,6.2,6.2S15.4,21.1,12,21.1z M12,9.5
			c-2.9,0-5.3,2.4-5.3,5.3s2.4,5.3,5.3,5.3s5.3-2.4,5.3-5.3S14.9,9.5,12,9.5z"/>
	</g>
</g>
<g>
	<g>
		<g>
			<path class="st0" d="M10.1,15.2c-0.2,0.1-0.3-0.2-0.2-0.3c1.8-1.1,3.8-2.2,4.1-1.8c0.5,0.5-1.1,2.7-4.1,5.6
				c-0.2,0.2-0.4-0.1-0.3-0.2c1.4-1.5,2.8-3.3,2.8-3.8C12.5,14.2,11.3,14.6,10.1,15.2z"/>
		</g>
	</g>
	<g>
		<g>
			<path class="st0" d="M13.2,12.7c0.4-0.1,0.7-0.5,0.6-0.9c-0.1-0.4-0.5-0.7-0.9-0.6c-0.4,0.1-0.7,0.5-0.6,0.9
				C12.4,12.6,12.8,12.8,13.2,12.7z"/>
		</g>
	</g>
</g>
</svg>
