<?xml version="1.0" encoding="utf-8"?>
<!-- Generator: Adobe Illustrator 19.0.0, SVG Export Plug-In . SVG Version: 6.00 Build 0)  -->
<svg version="1.1" id="Layer_1" xmlns="http://www.w3.org/2000/svg" xmlns:xlink="http://www.w3.org/1999/xlink" x="0px" y="0px"
	 viewBox="0 0 2728.3 221.7" style="enable-background:new 0 0 2728.3 221.7;" xml:space="preserve">
<style type="text/css">
	.st0{opacity:0.73;fill:#FFFFFF;}
	.st1{fill:#FDE8E1;}
	.st2{fill:#FEFAF8;}
	.st3{fill:#FEFBFA;}
	.st4{fill:#FEF8F7;}
</style>
<path class="st0" d="M5724.9-5244.7c0,2.4,0,4.8,0,8.5c-1.8-1.5-4.4-2.9-4.2-3.6c0.6-2,2.2-3.7,3.4-5.6
	C5724.3-5245.2,5724.6-5244.9,5724.9-5244.7z"/>
<path class="st1" d="M1559.4,119.2c0,0,132-14.5,166.5-30.6s63-19.3,88.5-4.8c25.5,14.5,69-3.2,81-9.7s102-46.7,132-45.1
	c30,1.6,66,32.2,85.5,25.8s37.5-41.9,94.5-38.7c57,3.2,55.5,8.1,93,33.8c37.5,25.8,79.5,54.8,157.5,58s235.5,93.1,271.5,112.5
	l-1393.4,0.3C1335.9,220.7,1397.4,162.7,1559.4,119.2z"/>
<g id="JXmrfP.tif_2_">
	<g>
		<path class="st1" d="M0,219.9c0-4.4,0-8.8,0-13.3c6.8-2.8,13.6-5.7,20.3-8.5c36.4-14.9,72.7-29.7,109.1-44.7
			c35.3-14.5,70.6-29.1,106-43.6c24.6-10.1,49.3-20.2,73.9-30.3c32.4-13.4,64.8-26.8,97.2-40.3c2.3-1,4.6-0.7,7-0.1
			c32.9,8,65.9,15.8,98.8,23.9c14.4,3.5,29,6.6,43,11.2c13.4,4.4,26.2,10.5,39.3,15.8c44.8,18,89.6,36,134.4,54.1
			c3,1.2,5.1,1.5,8-0.4c34.5-23.4,69.4-46.2,104.9-68.2c26.2-16.3,52.7-32.1,80-46.4C944,17.7,966.1,6.5,990.2,0c4.8,0,9.6,0,14.4,0
			c12.5,3.7,24.6,8.5,36.2,14.4c18.8,9.6,37,20.4,54.7,31.9c43.6,28.2,85.5,58.9,126.8,90.3c10.8,8.2,21.3,16.8,32,25.1
			c2.6,2,5,3.8,8.9,2c16.7-7.7,33.4-15.2,50.3-22.5c30.5-13.2,45.4-54.3,77.3-63.7c12.4-3.6,58.9-7.2,71.6,18.5
			c37.4,38.4,26.1,32.9,47.2,46.6c0,25.8,0,51.6,0,77.4c-103.1,0-206.3,0-309.4,0c-246.4,0-492.9,0-739.3,0
			C307.2,219.9,153.6,219.9,0,219.9z"/>
		<path class="st2" d="M460.8,219.9c246.4,0,492.9,0,739.3,0c0,0.4,0,0.7,0,1.1c-246.4,0-492.9,0-739.3,0
			C460.8,220.7,460.8,220.3,460.8,219.9z"/>
		<path class="st3" d="M460.8,219.9c0,0.4,0,0.7,0,1.1c-152,0-303.9,0-455.9-0.1c-1.6,0-3.7,1.3-5-1
			C153.6,219.9,307.2,219.9,460.8,219.9z"/>
		<path class="st4" d="M1200.2,221c0-0.4,0-0.7,0-1.1c103.1,0,206.3,0,309.4,0c-1.2,2.3-3.4,1-5,1C1403.2,221,1301.7,221,1200.2,221
			z"/>
	</g>
</g>
</svg>
