<?xml version="1.0" encoding="utf-8"?>
<!-- Generator: Adobe Illustrator 22.0.0, SVG Export Plug-In . SVG Version: 6.00 Build 0)  -->
<svg version="1.1" id="Layer_1" xmlns="http://www.w3.org/2000/svg" xmlns:xlink="http://www.w3.org/1999/xlink" x="0px" y="0px"
	 viewBox="0 0 84.8 84.2" style="enable-background:new 0 0 84.8 84.2;" xml:space="preserve">
<style type="text/css">
	.st0{fill:#F26336;}
	.st1{fill:#FFFFFF;}
</style>
<ellipse transform="matrix(0.9842 -0.1771 0.1771 0.9842 -6.7362 8.3198)" class="st0" cx="43.2" cy="41.9" rx="41.9" ry="41.9"/>
<g>
	<g>
		<path class="st1" d="M31.2,43.7c-1.2,0.6-2.2-1.2-1-1.9c12-7.3,25.2-14.4,27.5-12.3c3.3,3.1-7.3,17.9-27.5,37.3
			c-1.1,1.1-2.7-0.5-1.7-1.6c9.3-10.4,18.7-21.8,18.7-25.5C47.1,37,39.6,39.7,31.2,43.7z"/>
	</g>
	<g>
		<path class="st1" d="M52.1,27.3c2.8-0.6,4.5-3.2,4-6s-3.2-4.5-6-4c-2.8,0.6-4.5,3.2-4,6C46.7,26.1,49.4,27.9,52.1,27.3z"/>
	</g>
</g>
</svg>
