<?xml version="1.0" encoding="utf-8"?>
<!-- Generator: Adobe Illustrator 19.0.0, SVG Export Plug-In . SVG Version: 6.00 Build 0)  -->
<svg version="1.1" id="Layer_1" xmlns="http://www.w3.org/2000/svg" xmlns:xlink="http://www.w3.org/1999/xlink" x="0px" y="0px"
	 viewBox="-246.4 634.1 89.8 89.8" style="enable-background:new -246.4 634.1 89.8 89.8;" xml:space="preserve">
<g>
	<path d="M-201.6,634.1c-24.8,0-44.9,20.1-44.9,44.9c0,24.8,20.1,44.9,44.9,44.9s44.9-20.1,44.9-44.9
		C-156.7,654.2-176.8,634.1-201.6,634.1z M-213.5,701.1h-10.7v-32.3h10.7V701.1z M-218.8,664.4L-218.8,664.4c-3.7,0-6-2.5-6-5.6
		c0-3.2,2.4-5.6,6.1-5.6c3.7,0,5.9,2.4,6,5.6C-212.8,661.9-215.1,664.4-218.8,664.4z M-174.8,701.1h-10.7v-17.3
		c0-4.3-1.5-7.3-5.4-7.3c-3,0-4.7,2-5.5,3.9c-0.3,0.7-0.4,1.6-0.4,2.6v18h-10.7c0,0,0.1-29.2,0-32.3h10.7v4.6c1.4-2.2,4-5.3,9.7-5.3
		c7.1,0,12.3,4.6,12.3,14.5L-174.8,701.1L-174.8,701.1z"/>
	<path d="M-196.8,673.5v-0.1C-196.8,673.4-196.9,673.5-196.8,673.5L-196.8,673.5z"/>
</g>
</svg>
