<?xml version="1.0" encoding="utf-8"?>
<!-- Generator: Adobe Illustrator 19.0.0, SVG Export Plug-In . SVG Version: 6.00 Build 0)  -->
<svg version="1.1" id="Layer_1" xmlns="http://www.w3.org/2000/svg" xmlns:xlink="http://www.w3.org/1999/xlink" x="0px" y="0px"
	 viewBox="-246.4 634.1 89.8 89.8" style="enable-background:new -246.4 634.1 89.8 89.8;" xml:space="preserve">
<g fill="#fff">
	<path d="M-201.5,634.1c-24.8,0-44.9,20.1-44.9,44.9c0,24.8,20.1,44.9,44.9,44.9s44.9-20.1,44.9-44.9
		C-156.6,654.2-176.7,634.1-201.5,634.1z M-188,659.7h-6.5c-1.1,0-2.6,0.6-2.6,2.8v6.1h9.1l-1.1,10.3h-8v29.3h-12.1v-29.3h-5.8
		v-10.3h5.8v-6.7c0-4.7,2.2-12.2,12.2-12.2h9V659.7z"/>
	<path d="M-196.7,673.4c0,0-0.1,0.1,0,0.1V673.4z"/>
</g>
</svg>
