<?xml version="1.0" encoding="utf-8"?>
<!-- Generator: Adobe Illustrator 19.0.0, SVG Export Plug-In . SVG Version: 6.00 Build 0)  -->
<svg version="1.1" id="Layer_1" xmlns="http://www.w3.org/2000/svg" xmlns:xlink="http://www.w3.org/1999/xlink" x="0px" y="0px"
	 viewBox="-246.4 634.1 89.8 89.8" style="enable-background:new -246.4 634.1 89.8 89.8;" xml:space="preserve">
<g fill="#f26336">
	<path d="M-188.1,658h-26.8c-4.3,0-7.7,3.5-7.7,7.7v26.7c0,4.3,3.5,7.7,7.7,7.7h26.8c4.3,0,7.7-3.5,7.7-7.7v-26.7
		C-180.4,661.5-183.9,658-188.1,658L-188.1,658z M-201.5,693c-7.7,0-13.9-6.2-13.9-13.9s6.2-13.9,13.9-13.9
		c7.7,0,13.9,6.2,13.9,13.9S-193.9,693-201.5,693L-201.5,693z M-187.2,668.1c-1.8,0-3.3-1.5-3.3-3.3c0-1.8,1.5-3.3,3.3-3.3
		s3.3,1.5,3.3,3.3C-183.9,666.6-185.4,668.1-187.2,668.1L-187.2,668.1z"/>
	<path d="M-201.5,671.1c-4.4,0-8,3.6-8,8s3.6,8,8,8s8-3.6,8-8S-197.1,671.1-201.5,671.1L-201.5,671.1z"/>
	<path d="M-201.5,634.1c-24.8,0-44.9,20.1-44.9,44.9c0,24.8,20.1,44.9,44.9,44.9s44.9-20.1,44.9-44.9
		C-156.7,654.2-176.7,634.1-201.5,634.1L-201.5,634.1z M-174.5,692.5c0,7.5-6.1,13.6-13.6,13.6h-26.8c-7.5,0-13.6-6.1-13.6-13.6
		v-26.8c0-7.5,6.1-13.6,13.6-13.6h26.8c7.5,0,13.6,6.1,13.6,13.6V692.5z"/>
</g>
</svg>
