<?xml version="1.0" encoding="utf-8"?>
<!-- Generator: Adobe Illustrator 22.0.0, SVG Export Plug-In . SVG Version: 6.00 Build 0)  -->
<svg version="1.1" id="Layer_1" xmlns="http://www.w3.org/2000/svg" xmlns:xlink="http://www.w3.org/1999/xlink" x="0px" y="0px"
	 viewBox="0 0 1365 584.7" style="enable-background:new 0 0 1365 584.7;" xml:space="preserve">
<style type="text/css">
	.st0{fill:#F96332;}
</style>
<path class="st0" d="M1366,26.7c0,186,0,371.9,0,557.9c-455.3,0-910.7,0-1366,0c0-194,0-388,0-581.9c1.2,0,2.3,0.1,3.5,0.1
	C23.3,3.9,43.2,4,62.8,6.4c30.7,3.8,60.8,11.3,90.5,20.2c44.3,13.3,88.4,27.3,132.6,40.7c60.1,18.3,121.4,30,184.5,30.5
	c36.6,0.3,73.3,1,109.8-2.8c36.4-3.8,72.9-6.9,109.1-12.3c45.7-6.8,91.2-15,136.6-23.5c42-7.8,83.7-17.3,125.7-25.2
	c49-9.3,98-18.5,147.3-26c29.4-4.5,59.2-6.6,88.9-7.7c31.1-1.1,62.2,1.6,93.1,5.6C1310,9.7,1338.7,15.6,1366,26.7z"/>
</svg>
