<?xml version="1.0" encoding="utf-8"?>
<!-- Generator: Adobe Illustrator 22.0.0, SVG Export Plug-In . SVG Version: 6.00 Build 0)  -->
<svg version="1.1" id="Layer_1" xmlns="http://www.w3.org/2000/svg" xmlns:xlink="http://www.w3.org/1999/xlink" x="0px" y="0px"
	 viewBox="0 0 230.4 89.2" style="enable-background:new 0 0 230.4 89.2;" xml:space="preserve">
<style type="text/css">
	.st0{fill:#FFFFFF;}
	.st1{fill:#BABABA;}
</style>
<path class="st0" d="M158,45.3c2.9,4.4,8.1,6.7,13.2,8.2c5.1,1.5,10.4,2.5,14.8,5.5c4.4,2.9,7.6,8.5,5.8,13.5
	c-1.2,3.4-4.5,5.7-7.7,7.3c-8.5,4.1-18.2,4.9-27.7,5.4c-43.1,2.6-86.3,2.7-129.4,0.4c-5.5-0.3-11.1-0.7-16-3.1
	c-4.9-2.4-9-7.3-8.8-12.7c0.3-7.9,8.8-12.6,16.4-14.6c7.6-2,16.2-3.2,21.2-9.4c2-2.6,3.2-5.7,4.6-8.6c6.5-13.5,19.4-23.3,33.5-28.2
	c14.1-5,29.5-5.5,44.4-4c6.4,0.6,12.8,1.6,18.6,4.4c5.8,2.7,10.9,7.4,12.8,13.5C156.1,30,153.8,38.8,158,45.3"/>
<path class="st1" d="M88.6,89.5c-20.5,0-41.3-0.6-61.8-1.7c-5.1-0.3-11.3-0.6-16.8-3.3C4.8,82-0.3,76.4,0,69.6
	C0.4,58.4,13.9,54,18,52.9c1.2-0.3,2.3-0.6,3.5-0.9c6.3-1.5,12.7-3.1,16.4-7.7c1.4-1.7,2.3-3.8,3.3-6c0.3-0.7,0.7-1.5,1-2.2
	c6.3-13.1,19-23.9,34.8-29.4c9.2-3.2,19.7-4.9,31.3-4.9c4.5,0,9.2,0.2,14.1,0.7c6,0.6,13,1.6,19.3,4.6c6.9,3.3,12,8.7,14,14.8
	c1.1,3.4,1.3,6.9,1.5,10.2c0.2,4.4,0.5,8.5,2.6,11.8c2.7,4.1,8.1,6.1,11.9,7.2c1,0.3,2,0.6,3,0.8c4.2,1.2,8.6,2.3,12.5,4.9
	c5,3.3,8.9,10,6.7,16.2c-1.2,3.4-4.2,6.3-8.9,8.6c-8.6,4.2-18,5-28.5,5.7C134,88.8,111.2,89.5,88.6,89.5 M108.4,6.3
	c-11,0-21.1,1.6-29.8,4.6c-14.7,5.1-26.4,15-32.2,27.1c-0.3,0.7-0.6,1.4-1,2.1c-1.1,2.4-2.2,4.8-3.9,7c-4.7,5.8-11.9,7.6-18.9,9.3
	c-1.2,0.3-2.3,0.6-3.5,0.9c-6.9,1.8-14.4,6.1-14.7,12.6c-0.2,4.7,3.6,8.7,7.5,10.6c4.3,2.1,9.2,2.5,15.1,2.8
	C47.5,84.4,68.2,85,88.6,85c22.5,0,45.2-0.7,67.7-2c10-0.6,18.9-1.4,26.8-5.2c3.6-1.7,5.8-3.8,6.6-6c1.4-4-1.5-8.6-4.9-10.9
	c-3.2-2.2-7.1-3.2-11.1-4.3c-1-0.3-2.1-0.6-3.1-0.9c-4.5-1.3-11-3.7-14.4-9.1c-2.8-4.3-3-9.2-3.3-14c-0.2-3.2-0.4-6.3-1.3-9.1
	c-1.6-5-5.9-9.4-11.7-12.2c-5.7-2.7-12.2-3.6-17.8-4.2C117.3,6.6,112.7,6.3,108.4,6.3"/>
<path class="st1" d="M7.4,72c-1.5,0-3.1,0-4.6-0.1l0.1-2.3c13.4,0.7,26.9-1.7,39.3-6.8c2.8-1.2,6-2.6,8.5-4.9c4.1-3.7,6-8.8,8-14.3
	c1.4-3.8,2.9-7.7,5.1-11.1c5.6-8.6,16-14.1,30.8-16.5c14.6-2.3,29.9-1.6,44.3,2.1c5.6,1.5,15.2,5.2,15.9,13.5l-2.2,0.2
	c-0.6-6.9-9.2-10.2-14.2-11.5c-14-3.7-29-4.4-43.3-2.1c-14.1,2.3-24,7.5-29.3,15.5c-2.1,3.2-3.5,7-4.9,10.6
	c-2.1,5.5-4.2,11.1-8.6,15.1c-2.7,2.5-6.1,4.1-9.1,5.3C31.8,69.5,19.6,72,7.4,72"/>
<path class="st0" d="M209.3,11c10.1,5.7,20.2,15.1,19.2,26.6c-0.6,7.5-6.1,13.9-12.7,17.6c-6.6,3.7-14.2,5-21.6,6
	c-26.5,3.5-53.3,3-79.9,1.5c-1.7-0.1-3.7-0.4-4.3-2c-0.4-1.2,0.2-2.4,0.9-3.5c4.2-6.3,10.9-11,18.3-12.7c3.6-0.9,7.5-1.1,10.8-2.8
	c8.8-4.7,9.2-17,14.2-25.6c5.2-8.8,15.7-13.6,26-13.8C190.5,2.1,200.4,5.9,209.3,11"/>
<path class="st1" d="M150,65.6c-10.6,0-22-0.4-35.8-1.1c-1.2-0.1-4.8-0.3-5.8-3.2c-0.7-2,0.3-3.8,1.1-5c4.5-6.7,11.5-11.6,19.3-13.5
	c1.1-0.3,2.2-0.5,3.4-0.7c2.5-0.5,5-0.9,7-2c5.1-2.7,7.1-8.6,9.2-14.7c1.2-3.5,2.4-7.1,4.3-10.2c5.2-8.8,15.7-14.4,27.5-14.6l0.7,0
	c9.1,0,18.7,2.9,29.3,8.9c6.4,3.7,21.3,13.7,20.1,28.3c-0.6,7.5-5.7,14.6-13.5,19c-7.1,4-15.2,5.3-22.3,6.2
	C180.9,64.7,166.3,65.6,150,65.6 M180.9,4l-0.6,0c-10.4,0.2-20,5.2-24.5,12.9c-1.7,2.9-2.8,6.3-4,9.6c-2.2,6.6-4.6,13.3-10.9,16.7
	c-2.6,1.4-5.4,1.9-8.1,2.4c-1.1,0.2-2.1,0.4-3.2,0.6c-7,1.7-13.3,6-17.2,12c-0.8,1.1-0.8,1.7-0.7,1.9c0.1,0.2,0.4,0.7,2.7,0.9
	c13.8,0.8,25.1,1.1,35.6,1.1c16.2,0,30.5-0.9,44-2.6c6.7-0.9,14.5-2.1,21-5.8c6.7-3.8,11.2-10,11.8-16.2
	c1.1-12.6-12.4-21.6-18.3-24.9C198.4,6.8,189.4,4,180.9,4"/>
<path class="st1" d="M110,61.6l-0.1-1.8c18.5-0.7,32-4.9,41.4-12.9c3.6-3.1,6.8-6.9,9.9-10.6c5.6-6.6,11.3-13.5,19.7-16.3
	c5.2-1.8,11.4-1.8,19.3-0.3c8.2,1.6,14.1,4.1,18.6,7.9c5.9,4.8,8.9,11.8,8.1,18.3l-1.7-0.2c0.8-5.9-2.1-12.3-7.4-16.7
	c-4.3-3.6-10-6-17.8-7.5c-7.6-1.5-13.4-1.4-18.4,0.2c-7.9,2.6-13.2,9-18.9,15.8c-3.2,3.8-6.4,7.6-10.1,10.8
	C142.7,56.5,128.8,60.9,110,61.6"/>
</svg>
