<?xml version="1.0" encoding="utf-8"?>
<!-- Generator: Adobe Illustrator 22.0.0, SVG Export Plug-In . SVG Version: 6.00 Build 0)  -->
<svg version="1.1" id="Layer_1" xmlns="http://www.w3.org/2000/svg" xmlns:xlink="http://www.w3.org/1999/xlink" x="0px" y="0px"
	 viewBox="0 0 150.2 206.5" style="enable-background:new 0 0 150.2 206.5;" xml:space="preserve">
<style type="text/css">
	.st0{fill:#E9E9E9;}
</style>
<g>
	<g>
		<path class="st0" d="M68.6,154.8c-0.2-0.1-0.3-0.2-0.5-0.3l-7.8-4.7l1.8-1.9c7.8-8,14.9-16.9,17.3-21c5.1-8.4,2.8-17.8-5.6-22.8
			c-8.3-5-17.7-2.6-22.8,5.8c-2.4,4-7,14.6-10.4,25.2l-0.8,2.5l-7.8-4.7c-7.6-4.5-11-13.6-8.3-22c3.8-12,11.3-32.6,24.9-61.9
			C56,33.6,67.3,21.6,82.4,13.3c13.5-7.4,27.5-10.4,37-11.7c10.2-1.3,20,4.5,23.6,14.2c2.4,6.5,4.3,13.2,5.5,19.9l0.8,4.5l-0.3-0.2
			c0.4,4.2,1.1,11,1.1,14c-0.2,17.3-5.5,32.9-15.7,46.5c-19.4,25.8-34,42.1-42.9,51.1C85.4,157.7,76.1,159,68.6,154.8z M66.9,148.9
			l3.4,2c5.9,3.6,13.4,2.6,18.2-2.4c8.7-9,23.2-25.1,42.5-50.7c9.7-12.9,14.7-27.7,14.9-44.1c0-2.7-0.7-9.8-1.1-13.6l-0.1-0.8
			L99.3,13.6c-1.5-0.9-4.4-2.7-2.9-5.4c0.5-1,1.3-1.3,1.9-1.5c1.4-0.4,2.8,0.4,4,1.1l41.1,24.1c-1.1-4.9-2.6-9.8-4.4-14.6
			c-3-7.9-10.9-12.6-19.2-11.5c-9.1,1.2-22.6,4.1-35.5,11.2C70,24.8,59.3,36.2,52.5,50.8C39,79.9,31.6,100.2,27.8,112.2
			c-2.1,6.6,0.6,13.6,6.5,17.2l3.4,2c3.4-10,7.6-19.6,9.9-23.6c6.3-10.5,18-13.5,28.4-7.2c10.4,6.3,13.3,18,7,28.5
			C80.7,133,74.2,141.2,66.9,148.9z"/>
	</g>
</g>
<g>
	<g>
		<path class="st0" d="M35,168.4l-0.5-0.8c-1.9-2.8-1.7-12.7,4.5-32.3c1.3-4.2,2.4-7.7,3.2-10.6c2.2-7.6,3.5-11.8,6.1-16
			c3.4-5.6,8.1-9.1,13.5-9.9c4.5-0.7,9.3,0.4,13.6,3c4.3,2.6,7.5,6.4,9,10.6c1.8,5.2,1,11-2.4,16.6c-2.3,3.8-5.1,6.5-9.7,10.8
			c-2.6,2.5-5.9,5.5-9.9,9.6c-14.4,14.7-23.1,19.5-26.4,19.2L35,168.4z M72.8,104.8c-3.4-1.9-7-2.6-10.3-2.1
			c-4.3,0.7-7.9,3.3-10.6,7.9c-2.3,3.8-3.4,7.6-5.6,15.1c-0.9,3-1.9,6.5-3.3,10.7c-5.4,17.3-5.6,24.8-5.3,27.5
			c2.5-1,9.1-4.7,21.8-17.6c4.1-4.2,7.4-7.3,10-9.8c4.4-4.1,7-6.6,9-9.9c2.8-4.6,3.4-9,2-13.1c-1.2-3.3-3.7-6.3-7.2-8.4
			C73.1,105,72.9,104.9,72.8,104.8z"/>
	</g>
</g>
<g>
	<g>
		<path class="st0" d="M5.1,146.4l-0.5-0.8c-1.8-2.7-1.7-12.4,4.4-31.5c4.7-14.8,11.2-30,14.5-35.6c4-6.6,10.1-10.2,16.9-9.8
			l2.9,0.1l-1.1,2.7c-5.1,13-9.5,25.1-12.9,35.8c-2.2,6.8-1.9,14.1,0.7,20.6l0.5,1.3l-1,1C18.7,140.8,9.9,146.9,6,146.5L5.1,146.4z
			 M37.1,73c-4,0.7-7.5,3.4-10.1,7.7c-3.2,5.4-9.6,20.2-14.1,34.7c-5.2,16.7-5.4,24-5.1,26.6c2.3-0.9,7.7-4,17.9-13.9
			c-2.5-7.1-2.7-14.9-0.4-22.1C28.5,96,32.4,84.9,37.1,73z"/>
	</g>
</g>
<g>
	<g>
		<path class="st0" d="M73.3,184.7l-0.6-0.8c-2.4-3.1-1.7-13.8,1.8-28.6l0.3-1.3l1.4-0.2c7-1.1,13.3-4.7,18-10.1
			c7.4-8.5,15.4-18.5,23.8-29.6l1.7-2.3l1.6,2.4c3.8,5.6,3.9,12.7,0.4,19.5c-3,5.8-12.6,19.3-22.9,30.9
			c-13.2,15.1-21.4,20.3-24.6,20.1L73.3,184.7z M78.3,157.7c-3.2,13.8-2.9,20.1-2.5,22.5c2.4-1.2,8.6-5.1,20.1-18.2
			c10-11.4,19.4-24.6,22.3-30.1c2.3-4.4,2.7-8.8,1.3-12.6c-7.8,10.2-15.2,19.4-22.1,27.3C92.4,152.2,85.6,156.2,78.3,157.7z"/>
	</g>
</g>
<g>
	<g>
		<path class="st0" d="M1.1,182.8c-1-0.6-1.3-1.8-0.8-2.8l28.3-50.5c0.6-1,1.8-1.3,2.8-0.8c1,0.6,1.3,1.8,0.8,2.8L3.9,182
			C3.4,183,2.1,183.4,1.1,182.8z"/>
	</g>
</g>
<g>
	<g>
		<path class="st0" d="M43.8,206.3c-1-0.6-1.3-1.8-0.8-2.8l27.9-49.7c0.6-1,1.8-1.3,2.8-0.8c1,0.6,1.3,1.8,0.8,2.8l-27.9,49.7
			C46,206.5,44.8,206.8,43.8,206.3z"/>
	</g>
</g>
<g>
	<g>
		<path class="st0" d="M48,174.4c-1-0.6-1.3-1.8-0.8-2.8l7-12.4c0.6-1,1.8-1.3,2.8-0.8c1,0.6,1.3,1.8,0.8,2.8l-7,12.4
			C50.3,174.6,49,174.9,48,174.4z"/>
	</g>
</g>
<g>
	<g>
		<path class="st0" d="M17.8,174.8c-1-0.6-1.3-1.8-0.8-2.8l10.3-18.4c0.6-1,1.8-1.3,2.8-0.8c1,0.6,1.3,1.8,0.8,2.8L20.6,174
			C20,175,18.8,175.3,17.8,174.8z"/>
	</g>
</g>
<g>
	<g>
		<path class="st0" d="M82.5,89.5c-14.2-8-19.3-26.1-11.3-40.3s26.1-19.3,40.3-11.3s19.3,26.1,11.3,40.3S96.7,97.5,82.5,89.5z
			 M109.5,41.5c-12.2-6.9-27.8-2.5-34.7,9.7S72.3,79,84.5,85.9s27.8,2.5,34.7-9.7S121.7,48.4,109.5,41.5z"/>
	</g>
</g>
<g>
	<g>
		<g>
			<path class="st0" d="M88.3,60.5c-1-0.1-0.9-1.5,0-1.5c10-0.3,20.7-0.2,21.3,2c1,3.1-10.8,8.5-30.1,13.6c-1,0.3-1.5-1.3-0.5-1.6
				c9.4-3.2,19.2-7,20.5-9.3C100.5,61.9,94.8,61,88.3,60.5z"/>
		</g>
	</g>
	<g>
		<g>
			<path class="st0" d="M107,57.6c1.9,0.6,4-0.4,4.6-2.3c0.6-1.9-0.4-4-2.3-4.6c-1.9-0.6-4,0.4-4.6,2.3C104,55,105.1,57,107,57.6z"
				/>
		</g>
	</g>
</g>
</svg>
