<?xml version="1.0" encoding="utf-8"?>
<!-- Generator: Adobe Illustrator 19.0.0, SVG Export Plug-In . SVG Version: 6.00 Build 0)  -->
<svg version="1.1" id="Objects" xmlns="http://www.w3.org/2000/svg" xmlns:xlink="http://www.w3.org/1999/xlink" x="0px" y="0px"
	 viewBox="-165 167.6 567.4 567.4" style="enable-background:new -165 167.6 567.4 567.4;" xml:space="preserve">
<style type="text/css">
	.st0{fill:none;stroke:#F26336;stroke-miterlimit:10;}
</style>
<g>
	<path class="st0" d="M82.7,661l-11.9,69.3c41.5,7.1,82.6,4.8,121-5.5l-18.2-68C144.8,664.7,113.9,666.4,82.7,661z"/>
	<path class="st0" d="M-89.4,406.9c12.2-57,46.1-103.8,91.3-133.5l-38.6-58.8C-96.9,254.1-142,316.4-158.2,392.2
		c-1,4.8-1.9,9.5-2.7,14.3l69.5,11.1C-90.9,414.1-90.2,410.5-89.4,406.9z"/>
	<path class="st0" d="M-8.6,621.9l-42.1,56.4c8.2,6.1,16.7,11.8,25.6,17l35.9-60.5C4,630.8-2.5,626.5-8.6,621.9z"/>
	<path class="st0" d="M-81,525l-66,24.4c14.2,38.3,36.5,73.1,65.3,102l49.8-49.7C-53.5,580-70.3,553.8-81,525z"/>
	<path class="st0" d="M18.4,639.1l-33.3,62c10.9,5.8,22.2,10.9,34,15.3l24.8-65.8C35.1,647.3,26.6,643.4,18.4,639.1z"/>
	<path class="st0" d="M30.3,720.3c4.9,1.6,9.9,3.1,15,4.5l18.2-67.9c-3.8-1-7.5-2.1-11.2-3.3L30.3,720.3z"/>
	<path class="st0" d="M192.4,650.9l24.4,66c83.6-31,150.9-100.7,175.3-192.2l-67.9-18.2C305.8,575.2,255.3,627.7,192.4,650.9z"/>
	<path class="st0" d="M106.4,238.8l-4-70.2c-12.6,0.7-25,2.3-37.2,4.6l13.3,69.1C87.6,240.5,97,239.3,106.4,238.8z"/>
	<path class="st0" d="M-92.7,426.5l-69.9-8.2c-3.5,29.5-2.3,58.6,3.1,86.6l69.1-13.3C-94.4,470.5-95.3,448.6-92.7,426.5z"/>
	<path class="st0" d="M163.1,243.2c62.5,13.3,112.6,52.8,141.5,104.5l61.7-33.8C327.8,244.8,261,192.1,177.7,174.4
		c-21.3-4.5-42.6-6.6-63.5-6.2l1.1,70.3C131.1,238.2,147,239.7,163.1,243.2z"/>
	<path class="st0" d="M34.5,255.8L6.7,191.2c-11.5,5-22.7,10.7-33.4,17.1l36.1,60.3C17.5,263.9,25.8,259.6,34.5,255.8z"/>
	<path class="st0" d="M-88.4,500.3l-68.5,16.2c0.6,2.7,1.3,5.3,2,8l68-18.2C-87.5,504.3-88,502.3-88.4,500.3z"/>
	<path class="st0" d="M17.7,186.8l25.1,65.7c8.8-3.4,17.8-6.1,26.9-8.3l-16.2-68.5C41.3,178.6,29.3,182.3,17.7,186.8z"/>
	<path class="st0" d="M401.8,446.1l-70.3,1.5c0.2,13.1-0.8,26.3-3.1,39.6l69.3,11.9C400.8,481.3,402.1,463.6,401.8,446.1z"/>
	<path class="st0" d="M330.3,428.3l69.9-8c-3.2-28.9-10.8-56.9-22.3-82.9l-64.5,28C322.1,385.1,327.9,406.3,330.3,428.3z"/>
</g>
</svg>
