<?xml version="1.0" encoding="utf-8"?>
<!-- Generator: Adobe Illustrator 19.0.0, SVG Export Plug-In . SVG Version: 6.00 Build 0)  -->
<svg version="1.1" id="Layer_1" xmlns="http://www.w3.org/2000/svg" xmlns:xlink="http://www.w3.org/1999/xlink" x="0px" y="0px"
	 viewBox="0 0 257.7 67.5" style="enable-background:new 0 0 257.7 67.5;" xml:space="preserve">
<style type="text/css">
	.st0{clip-path:url(#SVGID_2_);fill:#F26336;}
	.st1{clip-path:url(#SVGID_2_);fill:#FFFFFF;}
	
		.st2{clip-path:url(#SVGID_2_);fill:none;stroke:#FFFFFF;stroke-width:4;stroke-linecap:round;stroke-linejoin:round;stroke-miterlimit:10;}
</style>
<g>
	<defs>
		<rect id="SVGID_1_" y="0" width="257.7" height="67.5"/>
	</defs>
	<clipPath id="SVGID_2_">
		<use xlink:href="#SVGID_1_"  style="overflow:visible;"/>
	</clipPath>
	<path class="st0" d="M111.5,52.5l13.7,13.7c1.7,1.7,4.5,1.7,6.2,0l14.9-14.9C146.2,51.3,111.5,52.7,111.5,52.5"/>
	<path class="st0" d="M245.2,57.1H12.6C5.7,57.1,0,51.4,0,44.5V12.6C0,5.7,5.7,0,12.6,0h232.6c6.9,0,12.6,5.7,12.6,12.6v31.9
		C257.7,51.4,252.1,57.1,245.2,57.1"/>
	<path class="st1" d="M121.8,20.3c2.3,4.5-1.7,21.5-1.7,21.5s-12.4-8.6-14.7-13.1c-2.3-4.5-0.5-10.1,4-12.4
		C114,14,119.5,15.8,121.8,20.3"/>
	<path class="st1" d="M134.8,28.9c-2.3,4.6-14.6,12.9-14.6,12.9s-4.1-16.6-1.8-21.2c2.3-4.6,7.8-6.4,12.4-4.1
		C135.2,18.8,137.1,24.4,134.8,28.9"/>
	<polyline class="st2" points="148,24.7 153.5,19.2 153.5,38.5 	"/>
	<path class="st1" d="M52.4,28.4c0,7.6-6.2,13.7-13.7,13.7S24.9,36,24.9,28.4s6.2-13.7,13.7-13.7S52.4,20.8,52.4,28.4"/>
	<path class="st1" d="M42.2,39.5h14l-8.8-8.8C47.4,30.8,41.7,39.5,42.2,39.5"/>
	<polyline class="st2" points="65,23.8 70.5,18.5 70.5,37.5 	"/>
	<path class="st1" d="M213,22.6c0,4-3.2,7.3-7.3,7.3s-7.3-3.2-7.3-7.3s3.2-7.3,7.3-7.3S213,18.6,213,22.6"/>
	<path class="st1" d="M196,41.9c0-5.4,4.4-5.7,9.7-5.7s9.7,0.4,9.7,5.7"/>
	<polyline class="st2" points="227,23.8 232.5,18.5 232.5,37.5 	"/>
</g>
</svg>
