<?xml version="1.0" encoding="utf-8"?>
<!-- Generator: Adobe Illustrator 19.0.0, SVG Export Plug-In . SVG Version: 6.00 Build 0)  -->
<svg version="1.1" id="Layer_1" xmlns="http://www.w3.org/2000/svg" xmlns:xlink="http://www.w3.org/1999/xlink" x="0px" y="0px"
	 viewBox="0 0 104.9 87.2" style="enable-background:new 0 0 104.9 87.2;" xml:space="preserve">
<style type="text/css">
	.st0{fill:#281F52;}
</style>
<g>
	<path class="st0" d="M0,15.1l1.6-0.6c9-3.6,18.6-4.1,27.9-4.5l67.1-3.4l-1.9,2.4C86.3,18.9,81.6,31.7,77,44
		C72,57.5,66.9,71.5,57,82.2l-1,1.1l-1-1C35.4,61.8,17.3,39.6,1,16.5L0,15.1z M90.7,9.5l-61.1,3.1c-8.5,0.4-17.3,0.9-25.4,3.7
		c15.7,22.1,33.1,43.3,51.7,63c8.9-10.2,13.8-23.4,18.6-36.2C78.8,31.5,83.2,19.5,90.7,9.5"/>
	<path class="st0" d="M76.8,70.7c8.1-1.7,16.2-3.4,24.3-5.2c1.2-0.3,2.6-0.6,3.3-1.6c0.6-0.9,0.5-2.2,0.4-3.3
		c-0.9-8.6-2.2-17.1-3.9-25.6c-9,1-18,2-27,3c-2.7,0.3-6,1.1-6.7,3.7c-0.3,1.1,0,2.3,0.3,3.4c2.1,8,4.2,15.9,6.3,23.9
		c0.2,0.6,0.3,1.2,0.8,1.6C75.3,71,76.1,70.8,76.8,70.7"/>
	<path class="st0" d="M88,2.9c0,0-0.2,0-0.5,0.1c-0.3,0-0.8,0.1-1.4,0.2c-0.6,0.1-1.3,0.2-2.1,0.3c-0.8,0.1-1.8,0.2-2.8,0.3
		C80.2,3.9,79.1,4,78,4c-1.2,0.1-2.4,0.1-3.7,0.2c-1.3,0-2.6,0.1-3.9,0.1c-1.3,0-2.7,0-4.1-0.1c-1.4-0.1-2.7-0.1-4-0.2
		c-1.3-0.1-2.6-0.2-3.9-0.3c-1.3-0.1-2.5-0.2-3.7-0.4c-1.2-0.1-2.3-0.3-3.3-0.4c-1-0.1-1.9-0.3-2.7-0.5c-0.8-0.1-1.5-0.3-2.1-0.4
		c-1.2-0.2-1.8-0.4-1.8-0.4s0.7,0,1.9,0c1.2,0,2.9,0.1,4.9,0.2c2,0.1,4.4,0.2,6.9,0.3c1.3,0,2.6,0.1,3.9,0.1c1.3,0.1,2.7,0.1,4,0.1
		c1.3,0,2.7,0.1,4,0.1c1.3,0,2.6,0.1,3.9,0.1c2.5,0,4.9,0.1,6.9,0.1c2,0,3.7,0.1,4.9,0.1c0.6,0,1.1,0,1.4,0C87.8,2.9,88,2.9,88,2.9"
		/>
	<path class="st0" d="M39.9,0C39.9,0,39.9,0,39.9,0c0.1,0,0.1,0.1,0.2,0.1c0.1,0.1,0.2,0.1,0.4,0.2c0.3,0.2,0.5,0.5,0.5,0.8
		c0,0.3-0.1,0.6-0.2,0.9c-0.1,0.1-0.2,0.2-0.3,0.3c0,0-0.1,0.1-0.1,0.1c0,0,0,0,0,0s0,0-0.1,0c0,0-0.1,0-0.1-0.1
		c-0.1-0.1-0.2-0.1-0.4-0.2c-0.3-0.2-0.5-0.5-0.5-0.8c0-0.3,0.1-0.6,0.3-0.9c0.1-0.1,0.2-0.2,0.3-0.3C39.7,0.1,39.8,0.1,39.9,0
		C39.8,0,39.9,0,39.9,0"/>
	<path class="st0" d="M14,42.2c0,0,0.2,0.2,0.4,0.5c0.3,0.3,0.7,0.8,1.2,1.3c1,1.2,2.5,2.8,4.2,4.9c0.9,1,1.8,2.1,2.8,3.3
		c1,1.2,2,2.4,3.1,3.7c1,1.3,2.2,2.6,3.2,4c1.1,1.4,2.2,2.8,3.3,4.2c1.1,1.4,2.2,2.8,3.3,4.2c1.1,1.4,2.1,2.8,3.1,4.1
		c1,1.3,2,2.6,2.9,3.9c0.9,1.2,1.8,2.4,2.5,3.5c1.6,2.2,2.8,4,3.7,5.3c0.9,1.3,1.4,2,1.4,2s-0.6-0.7-1.7-1.8c-1-1.2-2.5-2.8-4.2-4.9
		c-0.9-1-1.8-2.1-2.8-3.3c-1-1.2-2-2.4-3.1-3.7c-1-1.3-2.2-2.6-3.2-4c-1.1-1.4-2.2-2.8-3.3-4.2c-1.1-1.4-2.2-2.8-3.3-4.2
		c-1.1-1.4-2.1-2.8-3.1-4.1c-1-1.3-2-2.6-2.9-3.9c-0.9-1.2-1.8-2.4-2.5-3.5c-1.6-2.2-2.8-4-3.7-5.3c-0.4-0.6-0.8-1.2-1-1.5
		C14.1,42.4,14,42.2,14,42.2"/>
	<path class="st0" d="M98.9,69.7C98.9,69.7,98.9,69.7,98.9,69.7c0.1,0,0.1,0.1,0.2,0.1c0.1,0.1,0.2,0.1,0.3,0.2
		c0.2,0.2,0.4,0.4,0.4,0.7c0,0.3-0.2,0.5-0.4,0.7c-0.1,0.1-0.2,0.2-0.3,0.2c0,0-0.1,0-0.1,0.1c0,0-0.1,0-0.1,0s0,0,0,0
		c0,0-0.1,0-0.1-0.1c-0.1-0.1-0.2-0.1-0.3-0.2c-0.2-0.2-0.4-0.4-0.4-0.7c0-0.3,0.2-0.5,0.4-0.7c0.1-0.1,0.2-0.2,0.3-0.2
		C98.7,69.8,98.8,69.8,98.9,69.7C98.8,69.7,98.9,69.7,98.9,69.7"/>
</g>
</svg>
