<?xml version="1.0" encoding="utf-8"?>
<!-- Generator: Adobe Illustrator 22.0.0, SVG Export Plug-In . SVG Version: 6.00 Build 0)  -->
<svg version="1.1" id="Layer_1" xmlns="http://www.w3.org/2000/svg" xmlns:xlink="http://www.w3.org/1999/xlink" x="0px" y="0px"
	 viewBox="0 0 200.7 187.7" style="enable-background:new 0 0 200.7 187.7;" xml:space="preserve">
<style type="text/css">
	.st0{fill:none;stroke:#ffffff;stroke-width:2;stroke-miterlimit:10;}
</style>
<g>
	<path class="st0" d="M200.1,18.4c0-12.3-5-17.5-17.1-17.6c-43-0.1-86-0.1-129.1,0c-12.2,0-16.8,5-17,17.5c-0.1,14.5,0,27,0,41.7
		C24,59.9,6.1,56.4,0.3,74.7c0,0,0,99,0,103.3c0,6,10.6,9.8,19.7,9.7c41.5-0.5,82.9-0.2,124.4-0.2c15.1,0,18.7-3.7,18.8-18.9
		c0.1-14,1-29.1,1-43.8c7.2,0,11.7,0.1,17.2,0c13.9-0.2,18.6-9,18.6-17.4C200.2,77.7,200.2,48,200.1,18.4z M59.7,0.7
		c39.5,0,73.9,0,113.4,0c22.2,0,29,0.9,27.3,28.3H37.2C37.4,2.8,39.1,0.7,59.7,0.7z M199.6,111.6c-0.1,3.5-6.4,11-10,11.7
		c-7.4,1.5-16.3,1.5-25.2,1.5c0-15.1,0.1-30.9,0-44.6c-0.1-16.7-2.9-19.9-18.5-19.9c-30.8-0.1-62.4,0-93.2,0c-4.4,0-9.9,0-15.2,0V29
		H200C200,60.9,200.2,86.6,199.6,111.6z M27,59.9c40.2,0,73.4,0,113.6,0c22.6,0,25.4,2.9,23.6,29.3H0.1C-1.1,65.1,6.1,59.9,27,59.9z
		"/>
</g>
<path class="st0" d="M114.7,76"/>
<path class="st0" d="M128.3,76.1"/>
<line class="st0" x1="113" y1="76" x2="123" y2="76"/>
<line class="st0" x1="127.4" y1="76" x2="137.4" y2="76"/>
<line class="st0" x1="141.7" y1="76" x2="151.7" y2="76"/>
<path class="st0" d="M152.4,16.6"/>
<path class="st0" d="M165.9,16.6"/>
<line class="st0" x1="150.7" y1="16.6" x2="160.7" y2="16.6"/>
<line class="st0" x1="165" y1="16.6" x2="175" y2="16.6"/>
<line class="st0" x1="179.3" y1="16.6" x2="189.3" y2="16.6"/>
</svg>
