<?xml version="1.0" encoding="utf-8"?>
<!-- Generator: Adobe Illustrator 19.0.0, SVG Export Plug-In . SVG Version: 6.00 Build 0)  -->
<svg version="1.1" id="Layer_1" xmlns="http://www.w3.org/2000/svg" xmlns:xlink="http://www.w3.org/1999/xlink" x="0px" y="0px"
	 viewBox="0 0 227 220" style="enable-background:new 0 0 227 220;" xml:space="preserve">
<g fill="#ffffff">
	<path d="M93.5,181.5c7,0,14,0,21,0c7.3,0,14.7,0,22,0c1.3,0,3.1,0.3,3-1.5c-0.1-1.5-1.8-1.2-2.9-1.2c-14.5,0-29,0-43.5,0
		c-1.1,0-3.2-0.7-3,1.4C90.3,182,92.2,181.4,93.5,181.5z"/>
	<path d="M136.7,191.6c-14.6,0-29.2,0-43.9,0c-1,0-2.7-0.6-2.8,1.1c-0.1,2,1.8,1.5,3,1.6c7.1,0.1,14.3,0,21.4,0c7.3,0,14.6,0,21.9,0
		c1.2,0,3.1,0.4,3.1-1.5C139.5,191.2,137.8,191.6,136.7,191.6z"/>
	<path d="M137,197.9c-14.8,0-29.6,0-44.5,0c-1.1,0-2.6-0.1-2.4,1.6c0.1,1.3,1.5,1.1,2.4,1.1c7.3,0,14.7,0,22,0c7.5,0,15,0,22.5,0
		c1.1,0,2.6,0.1,2.5-1.5C139.3,198,138.1,197.9,137,197.9z"/>
	<path d="M202,191.6c-7.3-0.1-14.7,0-22,0c-7.3,0-14.7,0-22,0c-1,0-2.7-0.5-2.8,1.2c-0.1,1.7,1.5,1.5,2.6,1.5c14.8,0,29.6,0,44.5,0
		c1.1,0,2.7,0.2,2.5-1.5C204.6,191.1,203,191.6,202,191.6z"/>
	<path d="M201.4,198c-7,0-13.9,0-20.9,0c-7.3,0-14.6,0-21.9,0c-1.3,0-3.2-0.4-3.3,1.3c-0.1,1.9,1.9,1.4,3.1,1.4
		c14.4,0,28.9,0,43.3,0c1.2,0,3.2,0.5,3-1.4C204.6,197.5,202.7,198,201.4,198z"/>
	<path d="M202,185.1c-14.7,0-29.3,0-44,0c-1.1,0-2.8-0.1-2.8,1.3c0,2,1.9,1.3,3.1,1.3c7.2,0.1,14.3,0,21.5,0c7.3,0,14.7,0,22,0
		c1.1,0,3.1,0.7,3-1.4C204.8,184.9,203.1,185.1,202,185.1z"/>
	<path d="M70,191.6c-14.5,0-28.9,0-43.4,0c-1.2,0-3.2-0.7-3.2,1.2c-0.1,1.8,1.9,1.4,3.1,1.5c7.2,0,14.3,0,21.5,0c7.3,0,14.6,0,22,0
		c1.2,0,3.1,0.4,2.9-1.6C72.8,191,71.1,191.6,70,191.6z"/>
	<path d="M70.1,197.9c-14.7,0-29.3,0-44,0c-1.2,0-2.7,0-2.7,1.4c0.1,1.4,1.7,1.3,2.8,1.3c7.3,0,14.7,0,22,0c7.2,0,14.3,0,21.5,0
		c1.2,0,3.1,0.6,3.1-1.4C72.9,197.8,71.2,197.9,70.1,197.9z"/>
	<path d="M92.7,187.8c7.3,0,14.6,0,21.9,0c7.5,0,15,0,22.4,0c0.9,0,2.3,0.3,2.4-1c0.2-1.7-1.3-1.6-2.4-1.6c-14.8,0-29.6,0-44.4,0
		c-1.1,0-2.7-0.2-2.7,1.4C90,188.3,91.7,187.8,92.7,187.8z"/>
	<path d="M26.1,187.8c7.3,0,14.6,0,22,0s14.6,0,22,0c1,0,2.7,0.6,2.8-1.1c0.1-2-1.8-1.6-2.9-1.6c-14.6,0-29.3,0-43.9,0
		c-1.1,0-2.7-0.1-2.7,1.5C23.4,188.2,25.1,187.8,26.1,187.8z"/>
	<path d="M25.9,181.5c14.8,0,29.6,0,44.5,0c1.1,0,2.7,0.2,2.5-1.5c-0.2-1.6-1.8-1.1-2.9-1.1c-7.2,0-14.3,0-21.5,0
		c-7.5,0-15,0-22.5,0c-1.1,0-2.6-0.2-2.5,1.5C23.5,181.3,24.8,181.5,25.9,181.5z"/>
	<path d="M202.4,181.5c1,0,2.3,0,2.4-1.2c0.1-1.7-1.4-1.5-2.5-1.5c-7.5,0-14.9,0-22.4,0c-7.3,0-14.6,0-21.9,0
		c-1.1,0-2.7-0.2-2.7,1.4c0,1.1,1.3,1.3,2.3,1.3C172.5,181.5,187.4,181.5,202.4,181.5z"/>
	<path d="M69.7,117.4c-14.8,0.1-29.7,0.1-44.5,0c-2.6,0-3.4,0.6-3.4,3.3c0.2,7.3,0.1,14.7,0.1,22c0,7.5,0.1,15,0,22.5
		c0,2.4,0.3,3.6,3.2,3.5c15-0.1,30-0.1,45,0c2.4,0,3.1-0.7,3.1-3.1c-0.1-15-0.1-30,0-45C73.1,117.9,72.2,117.4,69.7,117.4z M67,166
		c-13-0.2-25.9-0.1-38.9,0c-2.6,0-3.9-0.3-3.9-3.4c0.2-13.1,0.1-26.3,0-39.4c0-2.7,1-3.3,3.5-3.3c13.1,0.1,26.3,0.1,39.4,0
		c2.8,0,3.3,1.1,3.3,3.5c-0.1,6.6,0,13.3,0,19.9c0,6.3-0.1,12.6,0.1,18.9C70.5,164.9,70,166,67,166z"/>
	<path d="M139.7,121.2c0-2.7-0.5-3.8-3.5-3.8c-14.8,0.1-29.7,0.1-44.5,0c-3.1,0-3.5,1.2-3.5,3.8c0.1,7.3,0,14.7,0,22
		c0,7.2,0.1,14.3-0.1,21.5c-0.1,2.9,0.5,4.1,3.8,4c14.7-0.2,29.3-0.1,44,0c2.7,0,3.8-0.6,3.7-3.6
		C139.6,150.5,139.6,135.8,139.7,121.2z M133.7,166c-13.1-0.1-26.3-0.1-39.4,0c-2.6,0-3.4-0.6-3.4-3.3c0.2-6.7,0.1-13.3,0.1-20
		c0-6.5,0.1-13-0.1-19.5c-0.1-2.5,0.6-3.4,3.3-3.4c13.1,0.1,26.3,0.1,39.4,0c2.6,0,3.4,0.7,3.4,3.4c-0.1,13.1-0.1,26.3,0,39.4
		C137.1,165.2,136.4,166,133.7,166z"/>
	<path d="M223,9.9c0-4-0.8-5.3-5.1-5.2C148.6,4.8,79.3,4.8,10,4.6C5.6,4.6,5,6,5,9.9c0.1,66.5,0.1,132.9,0,199.4
		c0,4.2,0.7,5.6,5.3,5.5c34.5-0.2,69-0.1,103.4-0.1c34.5,0,69-0.1,103.4,0.1c4.3,0,5.8-0.7,5.8-5.5C222.8,142.8,222.8,76.3,223,9.9z
		 M215.9,212.1C182,212,148,212,114,212c-33.8,0-67.6-0.1-101.4,0.1c-4.1,0-4.8-1.2-4.8-5c0.1-39.8,0.1-79.6,0-119.4
		c0-3.6,0.5-5.1,4.7-5.1c24.2,0.2,48.3,0.2,72.5,0.1c2.6,0,3.8,0.4,4.6,3.4c2.9,12.2,12.8,20,24.7,20.1c12.1,0,21.9-7.9,24.8-20.4
		c0.6-2.6,1.7-3.1,4-3.1c24.5,0.1,49,0.1,73.5,0c3.3,0,3.7,1.2,3.7,4c-0.1,40.5-0.1,81,0,121.4C220.2,211.7,218.9,212.1,215.9,212.1
		z M115.8,84.8c6.1,0.6,10.4,4,13.1,9.5c1.1,2.3,0.9,3.9-1.5,5.4c-4.2,2.6-8.7,4.2-13.4,4.1c-4.1-0.1-7.7-1.3-11.2-3
		c-4-2-4.8-4.5-2.2-8.3C104.2,87,109.2,84.2,115.8,84.8z M108.1,75.2c0.3-3.7,2.5-5.8,6.1-6c3.3-0.2,6,2.6,6.1,5.9
		c-0.1,3.8-2.2,5.8-5.8,6.3C111.3,81.8,107.9,78.5,108.1,75.2z M119.6,82.5c4.3-5.8,4.3-10.2,0.2-13.8c-3.3-2.8-8.2-2.8-11.4,0
		c-3.9,3.4-3.8,8.4,0.4,13.9c-5.8,2.3-10.1,6.2-12.3,12.2c-7.6-9-6.8-22.1,1.6-30.4c8.6-8.4,22.2-8.8,31.2-0.8
		c9.1,8.1,10.3,21.3,2.9,30.8C126.6,86.2,126.6,86.2,119.6,82.5z M220.2,34.2c-0.3,14-0.2,28,0,42c0,3.2-0.7,4.3-4.1,4.2
		c-24.2-0.2-48.3-0.1-72.5,0c-3,0-3.9-0.9-4.5-3.7c-2.6-13.2-12.9-21.8-25.5-21.4c-12.5,0.3-22.6,9.1-24.6,21.9
		c-0.4,2.7-1.3,3.2-3.7,3.2c-24.7-0.1-49.3-0.1-74,0c-2.8,0-3.7-0.7-3.7-3.6c0.1-14.5,0.2-29,0-43.5c-0.1-3.6,1.1-4.3,4.5-4.3
		c34,0.1,68,0.1,101.9,0.1c33.6,0,67.3,0.1,100.9-0.1C219.4,28.9,220.3,30.1,220.2,34.2z M219.3,25.6c-2.6,2.9-8.8,0.9-13.4,0.9
		c-30.8,0.1-61.6,0-92.4,0c-33.6,0-67.3-0.1-100.9,0.1c-3.9,0-5.3-1-4.9-4.9c0.4-4.6-1.4-10.7,0.9-13.5c2.4-2.9,8.7-0.9,13.3-0.9
		c64.3-0.1,128.6,0,192.8-0.1c4.3,0,5.9,0.9,5.4,5.4C219.7,17.1,221.6,23.1,219.3,25.6z"/>
	<path d="M18.4,10.8c-3.7,0.1-5.8,2.4-5.7,6.2c0.1,3.8,2.4,5.6,6,5.9c3.8-0.5,5.9-2.6,5.8-6.2C24.5,13,22.2,10.7,18.4,10.8z
		 M18.5,20.1c-2.2-0.3-3.5-1.5-3.3-3.7c0.2-2.1,1.7-3.2,3.8-2.9c1.9,0.2,3,1.4,2.9,3.3C21.9,19.1,20.5,20,18.5,20.1z"/>
	<path d="M47.5,10.8c-3.7,0.1-5.9,2.3-5.8,6c0,3.7,2.3,5.6,6.2,6c3.4-0.5,5.7-2.5,5.7-6.1C53.4,13.1,51.2,10.7,47.5,10.8z
		 M47.6,20.1c-2.1,0-3.5-1.2-3.5-3.4c0-1.9,1.2-3.1,3.1-3.2c2.2-0.2,3.4,1,3.8,2.7C51,18.8,49.7,20.1,47.6,20.1z"/>
	<path d="M33.1,10.8c-3.7,0-6,2.2-6,5.9c0,3.7,2.2,5.7,5.9,6.1c3.6-0.4,5.9-2.2,6-6C39,13.1,36.8,10.8,33.1,10.8z M33.5,20
		c-2.1,0.2-3.6-0.7-3.7-3c-0.1-1.9,0.8-3.2,2.8-3.4c2.2-0.2,3.4,0.8,3.8,3.1C36.3,18.5,35.4,19.8,33.5,20z"/>
	<path d="M205,121c0-2.8-0.8-3.7-3.6-3.6c-7.3,0.2-14.7,0.1-22,0.1c-7.2,0-14.3,0.1-21.5-0.1c-3-0.1-4.3,0.5-4.3,4
		c0.2,14.5,0.2,29,0,43.5c0,3.1,0.8,3.9,3.9,3.9c14.5-0.2,29-0.1,43.5,0c2.9,0,4.1-0.4,4-3.7C204.8,150.3,204.9,135.7,205,121z
		 M198.9,166c-6.6-0.2-13.3-0.1-20-0.1c-6.5,0-13-0.1-19.5,0c-2.5,0.1-3.5-0.6-3.4-3.3c0.1-13.1,0.1-26.3,0-39.4
		c0-2.6,0.7-3.4,3.4-3.4c13.1,0.1,26.3,0.1,39.4,0c2.6,0,3.4,0.8,3.4,3.4c-0.1,13.1-0.1,26.3,0,39.4
		C202.3,165.2,201.6,166.1,198.9,166z"/>
</g>
</svg>
