<?xml version="1.0" encoding="utf-8"?>
<!-- Generator: Adobe Illustrator 19.0.0, SVG Export Plug-In . SVG Version: 6.00 Build 0)  -->
<svg version="1.1" id="Layer_1" xmlns="http://www.w3.org/2000/svg" xmlns:xlink="http://www.w3.org/1999/xlink" x="0px" y="0px"
	 viewBox="0 0 187.6 184.8" style="enable-background:new 0 0 187.6 184.8;" xml:space="preserve">
<style type="text/css">
	.st0{fill:#FEFEFE;}
	.st1{fill:#050505;}
	.st2{fill:#0A0A0A;}
</style>
<g>
	<path class="st0" d="M179.3,3.1c-0.2,0.3-0.4,0.5-0.5,0.8c-22.3,38.8-44.7,77.6-67.1,116.4c-0.3,0.5-0.4,1.1-1.2,1.5
		C97.4,99.1,84.2,76.4,71,53.5C48.9,91.9,26.7,130.3,4.5,168.8h5.1c0.1-0.2,0.2-0.4,0.3-0.5c18.6-32.3,37.2-64.6,55.9-96.9
		c1.7-2.9,3.3-5.8,5.1-8.9c13.3,22.9,26.4,45.6,39.7,68.4c24.7-42.7,49.1-85.1,73.7-127.8H179.3z"/>
	<path class="st1" d="M0.4,181.6c61.9,0,123.7,0,185.6,0c0.7,0,1.8-0.4,1.9,0.4c0.3,1.2,0,2.5,0,3.8c0,0.1-0.4,0.2-0.6,0.2
		c-0.5,0-1,0-1.5,0c-61.8,0-123.6,0-185.4,0C0.4,184.5,0.4,183.1,0.4,181.6z"/>
	<path class="st2" d="M179.3,3.1c-0.2,0.3-0.4,0.5-0.5,0.8c-22.3,38.8-44.7,77.6-67.1,116.4c-0.3,0.5-0.4,1.1-1.2,1.5
		C97.4,99.1,84.2,76.4,71,53.5C48.9,91.9,26.7,130.3,4.5,168.8h5.1c0.1-0.2,0.2-0.4,0.3-0.5c18.6-32.3,37.2-64.6,55.9-96.9
		c1.7-2.9,3.3-5.8,5.1-8.9c13.3,22.9,26.4,45.6,39.7,68.4c24.7-42.7,49.1-85.1,73.7-127.8H179.3z"/>
</g>
</svg>
