<?xml version="1.0" encoding="utf-8"?>
<!-- Generator: Adobe Illustrator 19.0.0, SVG Export Plug-In . SVG Version: 6.00 Build 0)  -->
<svg version="1.1" id="Layer_1" xmlns="http://www.w3.org/2000/svg" xmlns:xlink="http://www.w3.org/1999/xlink" x="0px" y="0px"
	 viewBox="0 0 204.8 204.5" style="enable-background:new 0 0 204.8 204.5;" xml:space="preserve">
<g>
	<path d="M164.8,0c0.3,0,0.5,0,0.8,0c5.7,1.4,8.9,5.9,12.8,9.7c7.1,7,7.1,11.2,0.1,18.1c-4.4,4.4-8.9,8.6-13.5,13.2
		c1,0.5,1.2,0.7,1.5,0.7c6.1,0,12.3,0,18.4,0.1c5.2,0,5.8,0.6,5.8,5.7c0,17.7,0,35.5,0,53.2c0,1.4,0,2.8,0,4.2
		c0.4,0.3,0.9,0.6,1.3,0.9c2-2.3,3.7-4.7,5.9-6.8c1.3-1.2,3.3-1.7,5-2.5c0.7,1.7,1.9,3.5,1.9,5.2c0.1,32.4,0.1,64.8,0.1,97.2
		c0,5.1-0.6,5.7-5.8,5.7c-32.3,0-64.5,0-96.8-0.1c-1.8,0-3.6-1.1-5.3-1.8c0.8-1.8,1.3-4,2.6-5.3c4.6-4.9,9.6-9.4,14.4-14.1
		c-0.2-0.4-0.4-0.7-0.5-1.1c-1.5,0-3,0-4.6,0c-27.6,0-55.2,0.1-82.8-0.1c-4.5,0-9.3-1-13.5-2.7c-7.1-2.8-10.3-9.2-12.5-16.1
		c0-44.8,0-89.6,0-134.4c0.5-1.4,1-2.7,1.5-4.1C4.8,16.2,10.9,11,20,9.5c6.1-1,6.6-0.4,6.6,5.9c0,8.6,0,17.2,0,26
		c1.2,0.1,2,0.3,2.7,0.3c29.4,0,58.9,0,88.3-0.1c1.6,0,3.5-1.1,4.7-2.3c11-10.8,21.8-21.9,32.9-32.7C158,4,161.6,2.2,164.8,0z
		 M198.6,106.8c-1.7,1.6-2.7,2.5-3.7,3.5c-15.6,15.5-31.1,31.1-46.7,46.6c-0.8,0.8-1.6,2-2.7,2.3c-1.2,0.3-2.9,0.2-3.8-0.5
		c-0.6-0.5-0.5-2.4-0.1-3.5c0.4-1,1.5-1.8,2.4-2.7c12.7-12.7,25.5-25.4,38.1-38.3c1.5-1.5,2.5-4.1,2.5-6.2c0.2-18.7,0.1-37.3,0.1-56
		c0-1.3,0-2.6,0-4.4c-7.8,0-15.2-0.2-22.6,0.1c-2.1,0.1-4.7,1.1-6.2,2.6c-18.8,18.5-37.4,37.3-56.1,55.8c-2.4,2.3-5.5,4-8.6,5.4
		c-3.8,1.7-7.9,2.9-11.8,4.3c0,0.2,0.1,0.5,0.1,0.7c1.4,0,2.8,0,4.2,0c17.2,0,34.4-0.1,51.6,0.1c1.5,0,4.2,1.6,4.4,2.7
		c0.5,2.8-2.1,3.2-4.4,3.2c-0.5,0-1.1,0-1.6,0c-25.6,0-51.2,0-76.8,0c-1.1,0-2.4,0.3-3.1-0.2c-1.2-0.7-2.5-1.9-2.8-3.2
		c-0.1-0.7,1.7-2.3,2.8-2.6c2.2-0.4,4.5-0.3,6.8-0.1c2.5,0.3,3.5-0.9,4.2-3c2.6-7.7,5.3-15.3,8.1-23c0.6-1.6,1.4-3.2,2.5-4.4
		c3.8-4.1,7.9-8,11.8-11.9c1.6-1.6,3.4-3.1,5.4-1c2,2,0.4,3.6-1.1,5.1c-3.6,3.5-7.1,7-10.3,10.1c4.9,4.8,9.4,9.3,13.7,13.6
		c20.2-20.2,40.8-40.8,61.1-61.1c-4.4-4.4-8.9-8.9-13.5-13.6c-0.7,0.7-1.7,1.6-2.6,2.5c-12.1,12.1-24.1,24.1-36.2,36.2
		c-0.8,0.8-1.6,2-2.7,2.3c-1.1,0.4-2.8,0.4-3.5-0.2c-0.7-0.7-0.8-2.4-0.5-3.5c0.3-1,1.5-1.8,2.3-2.7c4.6-4.5,9.3-9,14.7-14.2
		c-30,0-58.6,0-87.6,0c0,1.6,0,3.1,0,4.5c0,16.7,0,33.3,0,50c0,1.2,0.3,2.6-0.2,3.5c-0.6,1.1-1.8,2.3-2.9,2.5
		c-0.8,0.1-2.2-1.3-2.6-2.4c-0.5-1.2-0.2-2.6-0.2-4c0-27.5,0-54.9,0-82.4c0-1.4,0-2.8,0-4.2C11.3,17.3,6,24.2,6,34.7
		c0,35.2,0,70.4,0,105.6c0,1.1,0.2,2.1,0.3,2.8c4.9-2.4,9.5-4.7,14.4-7.2c0-5.3-0.2-11,0.1-16.7c0.1-1.4,1.5-3.7,2.7-3.9
		c2.7-0.6,3.1,1.8,3.1,3.9c0,5.7-0.2,11.5,0.1,17.2c0.2,4.3-1.1,6.1-5.6,6.7c-9,1.2-15.4,9-14.9,17.4c0.5,9.1,7.7,15.5,17.5,15.5
		c26.9,0.1,53.9-0.5,80.8,0.3c11.1,0.3,20.3-1.3,26.9-10.9c1.2-1.8,3.3-3.4,5.4-1.4c2.3,2.2,0.4,4.1-1.3,5.7
		c-8.6,8.6-17.2,17.1-25.7,25.7c-0.8,0.8-1.5,1.7-2.6,2.8c30.8,0,61,0,91.2,0c0-4.8,0-9.3,0-14.2c-1.8,0-3.4,0.4-4.7-0.1
		c-1.3-0.5-2.2-1.7-3.4-2.6c1.1-1,2.1-2.5,3.4-3c1.4-0.5,3.1-0.1,4.8-0.1c0-3.3,0-6,0-9.3c-1.8,0-3.5,0.4-4.9-0.1
		c-1.2-0.4-2.2-1.8-3.2-2.8c1-1,1.9-2.4,3.2-2.8c1.5-0.5,3.3-0.1,4.9-0.1c0-3.4,0-6.1,0-8.6c-2.8-1.7-8,1.4-7.9-3.7
		c0.1-4.8,5.2-1.8,8-3.4c0-2.6,0-5.3,0-8.3c-1.9-0.1-3.8,0.2-5.3-0.4c-1.2-0.5-2.5-1.9-2.7-3.1c-0.1-0.7,1.6-2.3,2.8-2.6
		c1.6-0.5,3.3-0.1,5.2-0.1C198.6,124.2,198.6,116,198.6,106.8z M171.7,27.1c1.5-1.7,3-3.7,4.7-5.6c1.6-1.8,1.7-3.6,0-5.3
		c-2.9-2.9-5.7-6-8.9-8.6c-1-0.8-3.4-0.8-4.5-0.1c-2.3,1.4-4.1,3.5-5.9,5.1C162.2,17.7,166.6,22.1,171.7,27.1z M152.6,17.9
		c-1.7,1.7-3.4,3.3-5,4.7c4.7,4.7,9.2,9.1,13.5,13.5c1.5-1.5,3.2-3.3,4.8-5C161.6,26.8,157.2,22.5,152.6,17.9z M88.2,106.6
		c-3.7-3.7-7.1-7.3-10.8-11c-0.1,3.6-4.4,6.6,0,11C81.7,110.9,84.7,107,88.2,106.6z"/>
	<path d="M183.1,164c0,4.8-0.1,9.6,0,14.4c0.1,3.3-1.3,4.9-4.7,4.8c-9.8-0.1-19.7,0-29.5-0.1c-1.5,0-3.5-1-4.1-2.1
		c-0.5-0.8,0.5-3,1.5-4c10.2-10.3,20.4-20.6,30.8-30.8c1-0.9,3.1-1.7,4.1-1.2c1,0.5,1.8,2.5,1.9,3.9
		C183.3,153.9,183.1,158.9,183.1,164z M176.6,176.9c0-7,0-14.1,0-20.4c-6.7,6.6-13.6,13.5-20.5,20.4
		C162.6,176.9,169.4,176.9,176.6,176.9z"/>
</g>
</svg>
