<?xml version="1.0" encoding="utf-8"?>
<!-- Generator: Adobe Illustrator 19.0.0, SVG Export Plug-In . SVG Version: 6.00 Build 0)  -->
<svg version="1.1" id="Layer_1" xmlns="http://www.w3.org/2000/svg" xmlns:xlink="http://www.w3.org/1999/xlink" x="0px" y="0px"
	 viewBox="0 0 219 190.1" style="enable-background:new 0 0 219 190.1;" xml:space="preserve">
<style type="text/css">
	.st0{fill:#FFFFFF;}
</style>
<g>
	<path d="M-459.5,91.6c7,0,14,0,21,0c7.3,0,14.7,0,22,0c1.3,0,3.1,0.3,3-1.5c-0.1-1.5-1.8-1.2-2.9-1.2c-14.5,0-29,0-43.5,0
		c-1.1,0-3.2-0.7-3,1.4C-462.7,92.2-460.8,91.6-459.5,91.6z"/>
	<path d="M-416.3,101.8c-14.6,0-29.2,0-43.9,0c-1,0-2.7-0.6-2.8,1.1c-0.1,2,1.8,1.5,3,1.6c7.1,0.1,14.3,0,21.4,0
		c7.3,0,14.6,0,21.9,0c1.2,0,3.1,0.4,3.1-1.5C-413.5,101.4-415.2,101.8-416.3,101.8z"/>
	<path d="M-416,108.1c-14.8,0-29.6,0-44.5,0c-1.1,0-2.6-0.1-2.4,1.6c0.1,1.3,1.5,1.1,2.4,1.1c7.3,0,14.7,0,22,0c7.5,0,15,0,22.5,0
		c1.1,0,2.6,0.1,2.5-1.5C-413.7,108.2-414.9,108.1-416,108.1z"/>
	<path d="M-351,101.8c-7.3-0.1-14.7,0-22,0c-7.3,0-14.7,0-22,0c-1,0-2.7-0.5-2.8,1.2c-0.1,1.7,1.5,1.5,2.6,1.5c14.8,0,29.6,0,44.5,0
		c1.1,0,2.7,0.2,2.5-1.5C-348.4,101.3-350,101.8-351,101.8z"/>
	<path d="M-351.6,108.1c-7,0-13.9,0-20.9,0c-7.3,0-14.6,0-21.9,0c-1.3,0-3.2-0.4-3.3,1.3c-0.1,1.9,1.9,1.4,3.1,1.4
		c14.4,0,28.9,0,43.3,0c1.2,0,3.2,0.5,3-1.4C-348.4,107.7-350.3,108.2-351.6,108.1z"/>
	<path d="M-351,95.3c-14.7,0-29.3,0-44,0c-1.1,0-2.8-0.1-2.8,1.3c0,2,1.9,1.3,3.1,1.3c7.2,0.1,14.3,0,21.5,0c7.3,0,14.7,0,22,0
		c1.1,0,3.1,0.7,3-1.4C-348.2,95.1-349.9,95.3-351,95.3z"/>
	<path d="M-483,101.8c-14.5,0-28.9,0-43.4,0c-1.2,0-3.2-0.7-3.2,1.2c-0.1,1.8,1.9,1.4,3.1,1.5c7.2,0,14.3,0,21.5,0
		c7.3,0,14.6,0,22,0c1.2,0,3.1,0.4,2.9-1.6C-480.2,101.2-481.9,101.8-483,101.8z"/>
	<path d="M-482.9,108.1c-14.7,0-29.3,0-44,0c-1.2,0-2.7,0-2.7,1.4c0.1,1.4,1.7,1.3,2.8,1.3c7.3,0,14.7,0,22,0c7.2,0,14.3,0,21.5,0
		c1.2,0,3.1,0.6,3.1-1.4C-480.1,107.9-481.8,108.1-482.9,108.1z"/>
	<path d="M-460.3,98c7.3,0,14.6,0,21.9,0c7.5,0,15,0,22.4,0c0.9,0,2.3,0.3,2.4-1c0.2-1.7-1.3-1.6-2.4-1.6c-14.8,0-29.6,0-44.4,0
		c-1.1,0-2.7-0.2-2.7,1.4C-463,98.5-461.3,98-460.3,98z"/>
	<path d="M-526.9,98c7.3,0,14.6,0,22,0s14.6,0,22,0c1,0,2.7,0.6,2.8-1.1c0.1-2-1.8-1.6-2.9-1.6c-14.6,0-29.3,0-43.9,0
		c-1.1,0-2.7-0.1-2.7,1.5C-529.6,98.4-527.9,98-526.9,98z"/>
	<path d="M-527.1,91.7c14.8,0,29.6,0,44.5,0c1.1,0,2.7,0.2,2.5-1.5c-0.2-1.6-1.8-1.1-2.9-1.1c-7.2,0-14.3,0-21.5,0
		c-7.5,0-15,0-22.5,0c-1.1,0-2.6-0.2-2.5,1.5C-529.5,91.5-528.2,91.7-527.1,91.7z"/>
	<path d="M-350.6,91.7c1,0,2.3,0,2.4-1.2c0.1-1.7-1.4-1.5-2.5-1.5c-7.5,0-14.9,0-22.4,0c-7.3,0-14.6,0-21.9,0
		c-1.1,0-2.7-0.2-2.7,1.4c0,1.1,1.3,1.3,2.3,1.3C-380.5,91.7-365.6,91.7-350.6,91.7z"/>
	<path d="M-483.3,27.6c-14.8,0.1-29.7,0.1-44.5,0c-2.6,0-3.4,0.6-3.4,3.3c0.2,7.3,0.1,14.7,0.1,22c0,7.5,0.1,15,0,22.5
		c0,2.4,0.3,3.6,3.2,3.5c15-0.1,30-0.1,45,0c2.4,0,3.1-0.7,3.1-3.1c-0.1-15-0.1-30,0-45C-479.9,28.1-480.8,27.6-483.3,27.6z
		 M-486,76.2c-13-0.2-25.9-0.1-38.9,0c-2.6,0-3.9-0.3-3.9-3.4c0.2-13.1,0.1-26.3,0-39.4c0-2.7,1-3.3,3.5-3.3
		c13.1,0.1,26.3,0.1,39.4,0c2.8,0,3.3,1.1,3.3,3.5c-0.1,6.6,0,13.3,0,19.9c0,6.3-0.1,12.6,0.1,18.9C-482.5,75.1-483,76.2-486,76.2z"
		/>
	<path d="M-413.3,31.4c0-2.7-0.5-3.8-3.5-3.8c-14.8,0.1-29.7,0.1-44.5,0c-3.1,0-3.5,1.2-3.5,3.8c0.1,7.3,0,14.7,0,22
		c0,7.2,0.1,14.3-0.1,21.5c-0.1,2.9,0.5,4.1,3.8,4c14.7-0.2,29.3-0.1,44,0c2.7,0,3.8-0.6,3.7-3.6C-413.4,60.7-413.4,46-413.3,31.4z
		 M-419.3,76.2c-13.1-0.1-26.3-0.1-39.4,0c-2.6,0-3.4-0.6-3.4-3.3c0.2-6.7,0.1-13.3,0.1-20c0-6.5,0.1-13-0.1-19.5
		c-0.1-2.5,0.6-3.4,3.3-3.4c13.1,0.1,26.3,0.1,39.4,0c2.6,0,3.4,0.7,3.4,3.4c-0.1,13.1-0.1,26.3,0,39.4
		C-415.9,75.4-416.6,76.2-419.3,76.2z"/>
	<path d="M-330-79.9c0-4-0.8-5.3-5.1-5.2c-69.3,0.2-138.6,0.2-207.9,0c-4.4,0-5,1.4-5,5.3c0.1,66.5,0.1,132.9,0,199.4
		c0,4.2,0.7,5.6,5.3,5.5c34.5-0.2,69-0.1,103.4-0.1c34.5,0,69-0.1,103.4,0.1c4.3,0,5.8-0.7,5.8-5.5C-330.2,53-330.2-13.5-330-79.9z
		 M-337.1,122.3c-34-0.1-68-0.1-101.9-0.1c-33.8,0-67.6-0.1-101.4,0.1c-4.1,0-4.8-1.2-4.8-5c0.1-39.8,0.1-79.6,0-119.4
		c0-3.6,0.5-5.1,4.7-5.1c24.2,0.2,48.3,0.2,72.5,0.1c2.6,0,3.8,0.4,4.6,3.4c2.9,12.2,12.8,20,24.7,20.1c12.1,0,21.9-7.9,24.8-20.4
		c0.6-2.6,1.7-3.1,4-3.1c24.5,0.1,49,0.1,73.5,0c3.3,0,3.7,1.2,3.7,4c-0.1,40.5-0.1,81,0,121.4
		C-332.8,121.9-334.1,122.3-337.1,122.3z M-437.2-5c6.1,0.6,10.4,4,13.1,9.5c1.1,2.3,0.9,3.9-1.5,5.4c-4.2,2.6-8.7,4.2-13.4,4.1
		c-4.1-0.1-7.7-1.3-11.2-3c-4-2-4.8-4.5-2.2-8.3C-448.8-2.8-443.8-5.6-437.2-5z M-444.9-14.6c0.3-3.7,2.5-5.8,6.1-6
		c3.3-0.2,6,2.6,6.1,5.9c-0.1,3.8-2.2,5.8-5.8,6.3C-441.7-8-445.1-11.3-444.9-14.6z M-433.4-7.3c4.3-5.8,4.3-10.2,0.2-13.8
		c-3.3-2.8-8.2-2.8-11.4,0c-3.9,3.4-3.8,8.4,0.4,13.9c-5.8,2.3-10.1,6.2-12.3,12.2c-7.6-9-6.8-22.1,1.6-30.4
		c8.6-8.4,22.2-8.8,31.2-0.8c9.1,8.1,10.3,21.3,2.9,30.8C-426.4-3.6-426.4-3.6-433.4-7.3z M-332.8-55.6c-0.3,14-0.2,28,0,42
		c0,3.2-0.7,4.3-4.1,4.2c-24.2-0.2-48.3-0.1-72.5,0c-3,0-3.9-0.9-4.5-3.7c-2.6-13.2-12.9-21.8-25.5-21.4
		c-12.5,0.3-22.6,9.1-24.6,21.9c-0.4,2.7-1.3,3.2-3.7,3.2c-24.7-0.1-49.3-0.1-74,0c-2.8,0-3.7-0.7-3.7-3.6c0.1-14.5,0.2-29,0-43.5
		c-0.1-3.6,1.1-4.3,4.5-4.3c34,0.1,68,0.1,101.9,0.1c33.6,0,67.3,0.1,100.9-0.1C-333.6-60.9-332.7-59.7-332.8-55.6z M-333.7-64.2
		c-2.6,2.9-8.8,0.9-13.4,0.9c-30.8,0.1-61.6,0-92.4,0c-33.6,0-67.3-0.1-100.9,0.1c-3.9,0-5.3-1-4.9-4.9c0.4-4.6-1.4-10.7,0.9-13.5
		c2.4-2.9,8.7-0.9,13.3-0.9c64.3-0.1,128.6,0,192.8-0.1c4.3,0,5.9,0.9,5.4,5.4C-333.3-72.7-331.4-66.7-333.7-64.2z"/>
	<path d="M-534.6-79c-3.7,0.1-5.8,2.4-5.7,6.2c0.1,3.8,2.4,5.6,6,5.9c3.8-0.5,5.9-2.6,5.8-6.2C-528.5-76.8-530.8-79.2-534.6-79z
		 M-534.5-69.7c-2.2-0.3-3.5-1.5-3.3-3.7c0.2-2.1,1.7-3.2,3.8-2.9c1.9,0.2,3,1.4,2.9,3.3C-531.1-70.7-532.5-69.8-534.5-69.7z"/>
	<path d="M-505.5-79c-3.7,0.1-5.9,2.3-5.8,6c0,3.7,2.3,5.6,6.2,6c3.4-0.5,5.7-2.5,5.7-6.1C-499.6-76.7-501.8-79.1-505.5-79z
		 M-505.4-69.7c-2.1,0-3.5-1.2-3.5-3.4c0-1.9,1.2-3.1,3.1-3.2c2.2-0.2,3.4,1,3.8,2.7C-502-71-503.3-69.7-505.4-69.7z"/>
	<path d="M-519.9-79c-3.7,0-6,2.2-6,5.9c0,3.7,2.2,5.7,5.9,6.1c3.6-0.4,5.9-2.2,6-6C-514-76.8-516.2-79-519.9-79z M-519.5-69.8
		c-2.1,0.2-3.6-0.7-3.7-3c-0.1-1.9,0.8-3.2,2.8-3.4c2.2-0.2,3.4,0.8,3.8,3.1C-516.7-71.3-517.6-70-519.5-69.8z"/>
	<path d="M-348,31.2c0-2.8-0.8-3.7-3.6-3.6c-7.3,0.2-14.7,0.1-22,0.1c-7.2,0-14.3,0.1-21.5-0.1c-3-0.1-4.3,0.5-4.3,4
		c0.2,14.5,0.2,29,0,43.5c0,3.1,0.8,3.9,3.9,3.9c14.5-0.2,29-0.1,43.5,0c2.9,0,4.1-0.4,4-3.7C-348.2,60.5-348.1,45.9-348,31.2z
		 M-354.1,76.2c-6.6-0.2-13.3-0.1-20-0.1c-6.5,0-13-0.1-19.5,0c-2.5,0.1-3.5-0.6-3.4-3.3c0.1-13.1,0.1-26.3,0-39.4
		c0-2.6,0.7-3.4,3.4-3.4c13.1,0.1,26.3,0.1,39.4,0c2.6,0,3.4,0.8,3.4,3.4c-0.1,13.1-0.1,26.3,0,39.4
		C-350.7,75.4-351.4,76.2-354.1,76.2z"/>
</g>
<g>
	<path d="M14.1,0c63.7,0,126.8,0,190.7,0c4,63.2,7.9,126.4,11.9,190.1c-71.4,0-142.4,0-214.5,0C6.2,127,10.1,63.7,14.1,0z M19.5,5.8
		c-3.7,60-7.5,119.3-11.2,178.7c67.8,0,134.8,0,202.2,0c-3.7-59.8-7.5-119.1-11.2-178.7C139.3,5.8,79.8,5.8,19.5,5.8z"/>
	<path class="st0" d="M169.7,43.2c-4.8,0.9-4.8,0.9-4.6,6.2c0.5,19.2-8.9,32.7-27.2,38.7c-13.8,4.5-27.9,5.3-42.1,3.2
		c-31.3-4.8-40.9-14.1-47.3-45c-0.3-1.5-2.8-2.5-5.1-4.6c-1.4,22.5,9,40.4,27.7,48.7c23.3,10.2,47.3,10.8,71.1,2.1
		C164,84.6,174.6,64.6,169.7,43.2z"/>
	<path d="M169.7,43.2c4.9,21.3-5.7,41.3-27.5,49.2c-23.8,8.6-47.8,8.1-71.1-2.1C52.3,82.1,42,64.2,43.3,41.7c2.4,2,4.8,3.1,5.1,4.6
		c6.4,30.9,16,40.2,47.3,45c14.2,2.2,28.3,1.3,42.1-3.2c18.3-5.9,27.7-19.5,27.2-38.7C164.9,44.1,164.9,44.1,169.7,43.2z"/>
</g>
</svg>
