<?xml version="1.0" encoding="utf-8"?>
<!-- Generator: Adobe Illustrator 19.0.0, SVG Export Plug-In . SVG Version: 6.00 Build 0)  -->
<svg version="1.1" id="Layer_1" xmlns="http://www.w3.org/2000/svg" xmlns:xlink="http://www.w3.org/1999/xlink" x="0px" y="0px"
	 viewBox="0 0 849.1 848.9" style="enable-background:new 0 0 849.1 848.9;" xml:space="preserve">
<g fill="#fff">
	<path d="M0,418.6c1.8,0,3.2,0,5.1,0c0,7.3,0,14.5,0,22.2c-1.4,0.1-3,0.3-5.1,0.5C0,433.6,0,426.3,0,418.6z"/>
	<path d="M849,431.4c-1.8-0.1-3.3-0.1-5.1-0.2c0-7.4,0-14.6,0-22.3c1.5-0.1,3-0.3,5.1-0.4C849,416.1,849,423.5,849,431.4z"/>
	<path d="M424.4,843.7c0,2.1,0,3.6,0,5.2c-7.4,0-14.8,0-22.4,0c0-2,0-3.4,0-5.2C409.4,843.7,416.6,843.7,424.4,843.7z"/>
	<path d="M726.6,716c0.9,1.2,1.9,2.5,2.9,3.7c-5.1,5.3-10.1,10.6-15.5,16.2c-1.5-1.5-2.6-2.8-3.3-3.4
		C716.1,727,721.1,721.7,726.6,716z"/>
	<path d="M134.8,113.8c1.4,1.3,2.6,2.4,3.2,2.9c-5.4,5.8-10.4,11.1-15.6,16.6c-1.2-1.1-2.4-2.1-3.2-2.8
		C124.4,124.9,129.4,119.5,134.8,113.8z"/>
	<path d="M760.1,685.3c-1.6-1.2-2.9-2.2-4.5-3.4c4.4-6,8.6-11.8,13.2-18c1.6,1,3,1.9,4.8,3.1C769,673.3,764.7,679.2,760.1,685.3z"/>
	<path d="M88.5,164.1c1.8,1.5,2.9,2.4,4.4,3.6c-4.4,6-8.6,11.8-13.1,17.9c-1.5-0.9-2.9-1.8-4.8-3C79.5,176.4,83.8,170.5,88.5,164.1z
		"/>
	<path d="M8.1,373.5c-1.9-0.3-3.4-0.5-5.5-0.8c1.1-7.5,2.1-14.6,3.2-22.3c2,0.3,3.7,0.6,5.7,0.9C10.3,358.9,9.3,366,8.1,373.5z"/>
	<path d="M31.1,585.7c2-0.9,3.4-1.5,5.2-2.3c3,6.7,5.9,13.3,9.1,20.4c-1.6,0.8-3.1,1.6-5.1,2.5C37.1,599.4,34.2,592.8,31.1,585.7z"
		/>
	<path d="M448,0c-0.2,2.3-0.3,3.8-0.4,5.2c-7.4,0-14.5,0-21.9,0c-0.1-1.9-0.2-3.5-0.3-5.2C432.9,0,440.1,0,448,0z"/>
	<path d="M10.2,520.3c2.3-0.4,3.8-0.7,5.6-1c1.9,7.2,3.7,14.1,5.6,21.4c-1.7,0.5-3.4,1-5.4,1.6C14.1,535,12.3,528,10.2,520.3z"/>
	<path d="M268.4,820c0.8-2,1.3-3.3,2.1-5.2c6.9,2.5,13.7,4.9,21.1,7.6c-0.5,1.7-1.1,3.3-1.7,5.4C282.5,825.1,275.7,822.6,268.4,820z
		"/>
	<path d="M833.3,330.6c-2-7.7-3.7-14.4-5.5-21.5c1.6-0.6,3.1-1.1,5.2-2c2,7.4,3.8,14.5,5.8,22C836.8,329.7,835.2,330.1,833.3,330.6z
		"/>
	<path d="M848.7,397c-2.2,0.2-3.8,0.3-5.7,0.4c-0.6-7.4-1.3-14.5-1.9-22.1c1.7-0.3,3.3-0.6,5.5-1.1C847.3,382,848,389.3,848.7,397z"
		/>
	<path d="M827.1,542.4c2.1,0.6,3.5,1.1,5.4,1.7c-2.3,7.3-4.6,14.3-6.9,21.6c-2-0.7-3.5-1.2-5.3-1.9
		C822.5,556.5,824.8,549.6,827.1,542.4z"/>
	<path d="M816.3,574.4c1.9,0.8,3.3,1.3,5.3,2.1c-2.9,7-5.7,13.8-8.6,20.9c-1.9-0.8-3.4-1.4-5.2-2.2
		C810.6,588.2,813.3,581.5,816.3,574.4z"/>
	<path d="M581.4,29.3c-0.9,2.1-1.5,3.6-2.3,5.3c-7.1-2.6-13.8-5.1-20.9-7.7c0.7-1.9,1.2-3.4,1.8-5.3C567.2,24.1,574,26.6,581.4,29.3
		z"/>
	<path d="M292.3,26.3c-0.6-2-1.1-3.5-1.6-5.4c7.2-2.2,14.2-4.3,21.5-6.5c0.6,1.9,1,3.6,1.6,5.5C306.5,22,299.8,24.1,292.3,26.3z"/>
	<path d="M456.6,842.6c0.2,2,0.3,3.5,0.5,5.6c-7.4,0.4-14.6,0.9-22.4,1.3c-0.1-2.1-0.2-3.8-0.3-5.7C441.9,843.4,449,843,456.6,842.6
		z"/>
	<path d="M830.1,531.6c1.8-7.6,3.4-14.5,5.1-21.8c1.8,0.3,3.4,0.6,5.6,0.9c-1.7,7.3-3.3,14.4-5.1,21.9
		C833.9,532.3,832.3,532,830.1,531.6z"/>
	<path d="M6,452.4c0.7,7.7,1.3,14.7,2,22c-1.8,0.4-3.4,0.7-5.5,1.1c-0.7-7.7-1.5-15-2.2-22.7C2.4,452.6,4,452.5,6,452.4z"/>
	<path d="M226.8,800.8c-6.7-3.8-13-7.3-19.7-11c0.9-1.7,1.7-3.1,2.7-4.9c6.6,3.7,12.9,7.2,19.5,10.9
		C228.5,797.4,227.7,798.9,226.8,800.8z"/>
	<path d="M568.6,824.5c-0.7-2.2-1.2-3.5-1.8-5.4c6.9-2.7,13.6-5.3,20.6-8.1c0.8,1.7,1.5,3.1,2.5,5.1
		C582.7,819,575.9,821.7,568.6,824.5z"/>
	<path d="M675.3,760.6c1.2,1.7,2.2,3,3.3,4.6c-6.2,4.3-12.1,8.5-18.3,13c-1.2-1.6-2.1-2.8-3.4-4.5
		C663.1,769.3,669,765.1,675.3,760.6z"/>
	<path d="M13.2,316.9c2.2,0.5,3.7,0.9,5.5,1.3c-1.7,7.3-3.3,14.2-5,21.5c-1.7-0.2-3.3-0.4-5.6-0.7C9.7,331.7,11.4,324.6,13.2,316.9z
		"/>
	<path d="M172.4,759.7c-1.2,1.5-2.2,2.8-3.5,4.4c-5.9-4.7-11.6-9.2-17.7-14c1.3-1.6,2.5-2.9,3.7-4.4
		C160.8,750.4,166.5,755,172.4,759.7z"/>
	<path d="M23.1,284.1c2.2,0.8,3.6,1.2,5.4,1.8c-2.2,7.1-4.4,13.9-6.7,21.1c-1.7-0.4-3.3-0.7-5.5-1.2
		C18.6,298.5,20.8,291.5,23.1,284.1z"/>
	<path d="M32.5,275.2c-1.9-0.7-3.3-1.2-5.3-1.9c2.8-7,5.6-13.8,8.5-20.9c1.8,0.7,3.3,1.3,5.3,2.1C38.1,261.3,35.4,268,32.5,275.2z"
		/>
	<path d="M818.2,263.9c-2,0.9-3.3,1.4-5.2,2.2c-3-6.8-5.9-13.3-9-20.3c1.6-0.9,3.1-1.7,5-2.7C812.2,250.2,815.1,256.8,818.2,263.9z"
		/>
	<path d="M300.8,831.3c0.6-2.1,1-3.5,1.6-5.4c7.2,2,14.1,3.9,21.5,5.9c-0.4,1.8-0.7,3.4-1.2,5.5
		C315.2,835.2,308.2,833.3,300.8,831.3z"/>
	<path d="M100,158.7c-1.5-1.2-2.7-2.2-4.3-3.6c4.9-5.7,9.6-11.2,14.7-17.1c1.6,1.3,2.9,2.5,4.4,3.7
		C109.7,147.6,104.9,153.1,100,158.7z"/>
	<path d="M279.7,24.7c0.8,2.3,1.3,3.5,1.9,5.2c-6.8,2.7-13.5,5.4-20.7,8.3c-0.7-1.6-1.5-3.2-2.4-5.2
		C265.7,30.2,272.5,27.5,279.7,24.7z"/>
	<path d="M707.1,106.9c5.8,5.5,11.1,10.5,16.8,15.8c-1.5,1.4-2.7,2.6-4.1,3.9c-5.4-5.1-10.6-10-16.3-15.3
		C704.5,110,705.6,108.7,707.1,106.9z"/>
	<path d="M677.3,89.8c1-1.4,1.9-2.7,3.3-4.6c6,4.8,11.7,9.3,17.7,14.1c-1.3,1.6-2.3,2.9-3.5,4.4C688.9,99.1,683.2,94.5,677.3,89.8z"
		/>
	<path d="M738,711.5c-1.5-1.4-2.7-2.5-4.1-3.9c4.9-5.6,9.6-11.1,14.5-16.8c1.5,1.2,2.8,2.2,4.5,3.5C747.9,700.2,743,705.8,738,711.5
		z"/>
	<path d="M358,10.3c-0.3-1.9-0.5-3.5-0.8-5.6c7.5-1,14.7-1.9,22.1-2.9c0.4,2,0.6,3.6,1,5.5C372.8,8.3,365.6,9.3,358,10.3z"/>
	<path d="M345.6,6.7c0.5,2.1,0.8,3.5,1.2,5.5c-7.3,1.6-14.3,3.1-21.7,4.7c-0.6-1.8-1.1-3.3-1.7-5.4C330.8,9.9,337.9,8.4,345.6,6.7z"
		/>
	<path d="M62,646.6c2-1.1,3.4-1.9,5-2.8c4.1,6.2,8,12.2,12.1,18.5c-1.3,1.1-2.6,2.1-4.4,3.5C70.4,659.5,66.4,653.3,62,646.6z"/>
	<path d="M549,17.9c-0.7,2.2-1.1,3.6-1.7,5.4c-7.1-1.9-14-3.8-21.3-5.8c0.3-1.7,0.6-3.2,1-5.6C534.4,13.9,541.5,15.8,549,17.9z"/>
	<path d="M200.2,778.9c-1.1,1.7-2,3-3.1,4.8c-6.3-4.3-12.4-8.4-18.8-12.6c1.2-1.7,2.1-3,3.2-4.6
		C187.7,770.5,193.7,774.5,200.2,778.9z"/>
	<path d="M620.3,53.5c0.9-1.8,1.6-3.2,2.6-5c6.6,3.7,13.1,7.3,19.7,11c-1,1.7-1.8,3.1-2.8,4.9C633.3,60.8,626.9,57.2,620.3,53.5z"/>
	<path d="M217.4,53.2c1.1,1.9,1.8,3.2,2.8,4.9c-6.3,3.8-12.5,7.5-19.1,11.5c-1-1.5-1.9-2.9-3.1-4.7
		C204.5,60.9,210.7,57.2,217.4,53.2z"/>
	<path d="M357,838.5c-0.3,2-0.5,3.4-0.8,5.5c-7.3-1.3-14.4-2.6-21.9-4c0.2-1.9,0.4-3.5,0.6-5.6C342.3,835.7,349.4,837,357,838.5z"/>
	<path d="M843,499.4c-2-0.4-3.6-0.7-5.6-1c1.1-7.3,2.2-14.5,3.3-21.9c1.8,0.1,3.3,0.2,5.6,0.4C845.2,484.5,844.1,491.8,843,499.4z"
		/>
	<path d="M191.3,75.8c-6.2,4.4-12.1,8.6-18.3,13c-1.1-1.5-2-2.8-3.3-4.6c6.2-4.4,12-8.6,18.3-13.1C189.3,72.8,190.2,74.2,191.3,75.8
		z"/>
	<path d="M523.2,832.1c0.6,1.9,1,3.3,1.6,5.5c-7.4,1.6-14.6,3.2-22,4.8c-0.5-1.9-1-3.4-1.5-5.5C508.6,835.3,515.7,833.8,523.2,832.1
		z"/>
	<path d="M747,147.5c-1.5,1.4-2.6,2.4-4.1,3.8c-5.1-5.5-10-10.9-15.3-16.6c1.3-1.4,2.3-2.6,3.9-4.2
		C736.9,136.4,741.7,141.7,747,147.5z"/>
	<path d="M839.5,363.6c-1.3-7.4-2.5-14.4-3.8-21.7c1.7-0.5,3.2-0.9,5.5-1.5c1.3,7.5,2.6,14.8,3.9,22.5
		C843,363.2,841.4,363.4,839.5,363.6z"/>
	<path d="M763.8,177.9c-4.7-6.1-9.1-11.8-13.7-17.7c1.4-1.2,2.7-2.3,4.3-3.7c4.6,5.9,9,11.7,13.8,17.9
		C766.7,175.5,765.4,176.6,763.8,177.9z"/>
	<path d="M61.5,214.2c-1.7-0.9-3-1.7-4.9-2.8c4-6.6,7.9-12.8,11.9-19.3c1.8,1.2,3.1,2.1,4.7,3.2C69.3,201.6,65.5,207.8,61.5,214.2z"
		/>
	<path d="M829.9,296.1c-2,0.7-3.4,1.2-5.3,1.8c-2.5-7-4.8-13.7-7.4-21c1.7-0.7,3.3-1.3,5.3-2.1C825,282,827.3,288.8,829.9,296.1z"/>
	<path d="M555.7,822.9c0.7,1.8,1.2,3.1,2,5.2c-7.2,2.2-14.2,4.4-21.6,6.6c-0.7-1.8-1.2-3.3-2-5.3
		C541.5,827.2,548.5,825.1,555.7,822.9z"/>
	<path d="M647.4,779.8c1.1,1.7,1.9,2.9,3,4.7c-6.5,3.9-12.8,7.6-19.4,11.6c-1-1.7-1.8-3.1-2.9-4.9
		C634.6,787.4,640.8,783.7,647.4,779.8z"/>
	<path d="M237,806.1c1.1-2,1.8-3.4,2.7-5c6.7,3.1,13.2,6,20.1,9.2c-0.6,1.7-1.2,3.3-2,5.3C250.8,812.4,244.2,809.4,237,806.1z"/>
	<path d="M490.2,838.7c0.3,2.1,0.5,3.6,0.8,5.7c-7.4,1-14.6,1.9-22.2,2.9c-0.3-1.8-0.5-3.4-0.8-5.5
		C475.4,840.7,482.5,839.7,490.2,838.7z"/>
	<path d="M390.6,842.5c-0.1,1.9-0.2,3.4-0.3,5.6c-7.5-0.8-14.8-1.5-22.6-2.3c0.3-2.1,0.6-3.7,0.9-5.6
		C375.9,841,382.9,841.7,390.6,842.5z"/>
	<path d="M142.5,742.6c-5.7-5.4-11-10.3-16.6-15.5c1.3-1.4,2.4-2.6,3.8-4.1c5.5,5.1,10.7,10,16.3,15.2
		C145,739.4,144,740.7,142.5,742.6z"/>
	<path d="M492.7,10.5c0.3-1.9,0.6-3.3,1-5.5c6.9,1.3,13.7,2.6,20.4,4.1c0.6,0.1,1.4,2.1,1.2,3c-0.2,0.9-1.7,2.3-2.4,2.2
		C506.1,13.3,499.6,11.9,492.7,10.5z"/>
	<path d="M612.6,43.1c-1,2-1.7,3.4-2.5,5.1c-6.8-3.1-13.3-6.1-20.2-9.3c0.7-1.7,1.3-3.2,2.2-5.2C598.9,36.9,605.5,39.9,612.6,43.1z"
		/>
	<path d="M160.5,91.2c1.3,1.8,2.3,3,3.4,4.5c-5.8,4.8-11.3,9.5-17.1,14.3c-1.3-1.4-2.3-2.7-3.7-4.2C148.9,101,154.5,96.4,160.5,91.2
		z"/>
	<path d="M787.4,203c-2.1,1.2-3.3,1.9-5,2.8c-4.1-6.2-8-12.3-12.1-18.6c1.5-1,2.8-2,4.6-3.3C779.1,190.3,783.2,196.5,787.4,203z"/>
	<path d="M5.4,407.2c-1.9-0.1-3.5-0.2-5.6-0.4c0.5-7.6,1-14.8,1.4-22.3c2.1,0.1,3.6,0.2,5.6,0.3C6.4,392.4,5.9,399.6,5.4,407.2z"/>
	<path d="M413.6,5.2c-7.1,0.4-14.2,0.8-21.9,1.3c-0.1-1.8-0.3-3.5-0.4-5.7c7.6-0.4,14.8-0.8,22.3-1.2C413.6,1.7,413.6,3.3,413.6,5.2
		z"/>
	<path d="M843.5,442.8c1.8,0,3.2,0,5.5,0c-0.5,7.6-0.9,14.9-1.4,22.7c-2.1-0.2-3.6-0.3-5.6-0.5C842.5,457.3,843,450.1,843.5,442.8z"
		/>
	<path d="M13.5,508.1c-2.1,0.3-3.6,0.5-5.7,0.8c-1.3-7.5-2.5-14.6-3.8-22c2-0.3,3.4-0.5,5.5-0.9C10.8,493.2,12.1,500.3,13.5,508.1z"
		/>
	<path d="M26.9,575c-2.6-7.5-5-14.3-7.5-21.5c1.9-0.6,3.4-1.1,5.4-1.7c2.5,7,4.8,13.8,7.3,20.9C30.3,573.5,28.9,574.1,26.9,575z"/>
	<path d="M797.7,628.2c-2-1.1-3.3-1.8-4.9-2.8c3.4-6.6,6.6-13,10.1-19.8c1.7,0.8,3.2,1.5,5.2,2.4
		C804.5,614.8,801.2,621.2,797.7,628.2z"/>
	<path d="M61,633.9c-1.7,1-3.1,1.8-4.9,2.8c-3.6-6.6-7.1-13-10.8-19.8c1.7-0.9,3.2-1.8,5-2.7C54,620.9,57.4,627.2,61,633.9z"/>
	<path d="M775.3,654.4c4.1-6.5,7.8-12.6,11.7-18.9c1.5,0.8,2.9,1.5,5,2.6c-4,6.5-7.9,12.8-11.9,19.4
		C778.5,656.4,777.1,655.6,775.3,654.4z"/>
	<path d="M81.2,675.2c1.6-1.2,2.9-2.2,4.5-3.4c4.6,5.9,9.1,11.6,13.7,17.5c-1.3,1.2-2.5,2.3-4.2,3.8
		C90.4,687.1,85.9,681.3,81.2,675.2z"/>
	<path d="M122,714.9c-1.4,1.4-2.5,2.5-4,3.9c-5.3-5.8-10.3-11.2-15.4-16.9c1.4-1.3,2.6-2.4,4.2-3.8
		C111.8,703.8,116.7,709.2,122,714.9z"/>
	<path d="M687.9,758.1c-1.4-1.7-2.4-2.8-3.6-4.3c5.6-4.7,11.2-9.4,17.2-14.5c1.2,1.3,2.3,2.6,3.8,4.2
		C699.4,748.5,693.8,753.2,687.9,758.1z"/>
	<path d="M247.9,37.7c0.9,2.1,1.5,3.4,2.3,5.2c-6.6,3.3-13.1,6.5-19.9,9.8c-0.9-1.6-1.7-2.9-2.9-4.9
		C234.3,44.4,240.9,41.2,247.9,37.7z"/>
	<path d="M788.3,215.8c1.5-0.9,2.9-1.7,4.8-2.9c3.7,6.7,7.2,13.2,10.8,19.9c-1.9,1-3.4,1.8-5,2.6C795.4,228.8,792,222.4,788.3,215.8
		z"/>
	<path d="M671.4,78.4c-1.3,1.7-2.2,3-3.4,4.6c-6.2-4.2-12.2-8.2-18.5-12.5c1-1.6,1.9-2.9,3.1-4.7C658.9,70,665,74.1,671.4,78.4z"/>
	<path d="M482.2,3.2c-0.4,2.4-0.7,3.8-1.1,5.6c-7.4-0.8-14.5-1.6-21.9-2.4c0.1-1.9,0.2-3.4,0.3-5.6C467.1,1.7,474.4,2.4,482.2,3.2z"
		/>
	<path d="M51,221.5c1.9,1.1,3.2,1.9,4.9,2.8c-3.4,6.7-6.7,13.1-9.9,19.4c-4.3-0.4-5.6-2-3.4-5.8C45.4,232.7,48,227.3,51,221.5z"/>
	<path d="M618,796.6c0.9,1.7,1.7,3,2.7,5c-6.7,3.3-13.3,6.6-20.3,10c-0.9-1.7-1.6-3.1-2.6-5C604.7,803.2,611.1,800,618,796.6z"/>
</g>
</svg>
