<?xml version="1.0" encoding="utf-8"?>
<!-- Generator: Adobe Illustrator 19.0.0, SVG Export Plug-In . SVG Version: 6.00 Build 0)  -->
<svg version="1.1" id="Layer_1" xmlns="http://www.w3.org/2000/svg" xmlns:xlink="http://www.w3.org/1999/xlink" x="0px" y="0px"
	 viewBox="0 0 196.8 167" style="enable-background:new 0 0 196.8 167;" xml:space="preserve">
<g>
	<path fill="#ffffff" d="M41.6,133.7c-6.4,0-12.4-0.1-18.4,0c-6.9,0.2-12.3-2.8-16.7-7.9c-3-3.5-4.5-7.6-4.5-12.2c0-18.3,0-36.5,0-54.8
		c0-10.2,5.7-17,15.9-18.6c1.8-0.3,3.6-0.4,5.4-0.4c30.9,0,61.8,0,92.8-0.1c1.5,0,3.1-0.5,4.4-1.3c9.1-5.9,18.1-11.9,27.2-17.8
		c0.6-0.4,1.2-0.8,1.9-1.3c-1.6-2.3-3.2-4.5-4.9-6.9c-10.7,7.1-21.2,14.2-31.8,21.3c-0.4-0.6-0.8-1.1-1.3-1.7
		c15.9-10.7,31.8-21.3,47.7-31.9c2.1,3.1,4,6,6.1,9c3-2,5.8-3.8,8.7-5.8c1.1,1.6,2.1,3,3.2,4.6c3.1-2.1,6.2-4.1,9.5-6.2
		c3.3,5,6.6,9.9,10,15c-3.2,2.1-6.3,4.2-9.5,6.3c1,1.6,1.9,3,3,4.7c-0.7,0.5-1.3,1-2,1.4c-14.9,9.9-29.7,19.8-44.6,29.6
		c-1.3,0.9-1.8,1.8-1.8,3.4c0.1,17.2,0.1,34.5,0,51.7c0,3.5-0.6,7.2-1.8,10.6c-2.3,6.4-7.2,9.5-13.9,9.5c-14.7,0-29.3,0-44,0
		c-1.9,0-3.2,0.5-4.6,1.7c-11.3,10-22.6,20-33.9,29.9c-0.6,0.5-1.1,0.9-2,1.6C41.6,155.8,41.6,144.9,41.6,133.7z M43.7,162.4
		c0.9-0.7,1.4-1.2,1.9-1.6c10.4-9.2,20.9-18.4,31.3-27.6c1.3-1.1,2.5-1.7,4.3-1.6c15.1,0.1,30.2,0,45.2,0.1c5.3,0,8.8-2.4,11.1-6.9
		c1.8-3.4,2.3-7.1,2.3-10.9c0-16.7,0-33.4,0-50c0-0.7,0-1.3,0-2.5c-22.9,15.3-45.4,30.4-68,45.5c-0.9-1.3-1.6-2.4-2.4-3.5
		c-3.7,2.5-7.3,4.8-11,7.3c-1.7-2.5-3.3-4.8-4.9-7.2c-3.8,2.5-7.5,4.9-11.1,7.3c-0.6,0.4-1.2,0.8-1.8,0.8c-2.6,0-5.1,0-7.7-0.1
		c-0.6,0-1.7-0.5-1.8-1c-0.3-1.5,1-1.1,1.8-1.1c2.3-0.1,5,0.6,6.8-0.3c4.4-2.3,8.4-5.3,12.7-8.1c-1.8-2.7-3.5-5.1-5.2-7.5
		c0.8-0.7,1.4-1.3,2.5-2.3C43,91,37,91,31,91c0-0.8,0-1.3,0-2c0.9,0,1.6,0,2.4,0c5.6,0,11.1-0.2,16.7,0.1c3.4,0.2,5.5-1.8,8-3.4
		c-0.9-1.2-1.6-2.3-2.4-3.5c5.4-3.7,10.6-7.4,15.8-11c-0.1-0.2-0.1-0.3-0.2-0.5c-13.4,0-26.8,0-40.4,0c0.1-0.9,0.2-1.4,0.2-2.1
		c1,0,1.7,0,2.5,0c13.3,0,26.7,0,40,0c1,0,2.2-0.3,3.1-0.9c12.2-8.1,24.4-16.3,36.6-24.4c0.5-0.3,0.9-0.7,1.7-1.4c-1,0-1.4,0-1.9,0
		c-30.2,0-60.5,0-90.7,0c-1.5,0-2.9,0.2-4.3,0.4C9,43.9,4.2,49.7,4.2,58.8c0,18.2,0.2,36.4-0.1,54.6c-0.1,10.4,10.5,18.6,18.3,18.3
		c6.3-0.3,12.6-0.1,19-0.1c0.7,0,1.5,0,2.3,0C43.7,141.9,43.7,151.9,43.7,162.4z M173.4,6.2c-38.4,25.6-76.6,51-115,76.6
		c4.7,7,9.4,14,14.2,21.1c38.4-25.7,76.6-51.2,115-76.9C182.7,20.1,178.1,13.2,173.4,6.2z M68.3,101.5c-3.2-4.6-6.2-9.1-9.3-13.6
		c-3.1,2-6,3.8-9,5.7c3.1,4.8,6.1,9.4,9.1,14.1C62.2,105.6,65.2,103.6,68.3,101.5z M163.5,10.2c-1.7-2.6-3.3-4.9-4.9-7.2
		c-4.2,2.8-8.2,5.5-12.2,8.2c1.7,2.5,3.3,4.8,4.9,7.3C155.4,15.7,159.4,13,163.5,10.2z M186.2,21.2c2.6-1.8,5.1-3.4,7.7-5.1
		c-2.7-4-5.1-7.7-7.7-11.5c-2.6,1.8-5.1,3.4-7.7,5.1C181.1,13.6,183.6,17.3,186.2,21.2z"/>
</g>
</svg>
