<?xml version="1.0" encoding="utf-8"?>
<!-- Generator: Adobe Illustrator 22.0.0, SVG Export Plug-In . SVG Version: 6.00 Build 0)  -->
<svg version="1.1" id="Capa_1" xmlns="http://www.w3.org/2000/svg" xmlns:xlink="http://www.w3.org/1999/xlink" x="0px" y="0px"
	 viewBox="0 0 509.1 491.5" style="enable-background:new 0 0 509.1 491.5;" xml:space="preserve">
<style type="text/css">
	.st0{fill:none;stroke:#ffffff;stroke-width:7;stroke-miterlimit:10;}
</style>
<g>
	<g>
		<g>
			<rect x="52" y="177.9" class="st0" width="46.2" height="46.2"/>
		</g>
	</g>
	<g>
		<g>
			<rect x="144.4" y="177.9" class="st0" width="46.2" height="46.2"/>
		</g>
	</g>
	<g>
		<g>
			<rect x="236.9" y="177.9" class="st0" width="46.2" height="46.2"/>
		</g>
	</g>
	<g>
		<g>
			<rect x="329.3" y="177.9" class="st0" width="46.2" height="46.2"/>
		</g>
	</g>
	<g>
		<g>
			<rect x="421.8" y="177.9" class="st0" width="46.2" height="46.2"/>
		</g>
	</g>
	<g>
		<g>
			<rect x="52" y="270.3" class="st0" width="46.2" height="46.2"/>
		</g>
	</g>
	<g>
		<g>
			<rect x="144.4" y="270.3" class="st0" width="46.2" height="46.2"/>
		</g>
	</g>
	<g>
		<g>
			<rect x="236.9" y="270.3" class="st0" width="46.2" height="46.2"/>
		</g>
	</g>
	<g>
		<g>
			<rect x="329.3" y="270.3" class="st0" width="46.2" height="46.2"/>
		</g>
	</g>
	<g>
		<g>
			<rect x="52" y="362.8" class="st0" width="46.2" height="46.2"/>
		</g>
	</g>
	<g>
		<g>
			<rect x="144.4" y="362.8" class="st0" width="46.2" height="46.2"/>
		</g>
	</g>
	<g>
		<g>
			<rect x="236.9" y="362.8" class="st0" width="46.2" height="46.2"/>
		</g>
	</g>
	<g>
		<g>
			<rect x="329.3" y="362.8" class="st0" width="46.2" height="46.2"/>
		</g>
	</g>
	<g>
		<g>
			<rect x="421.8" y="270.3" class="st0" width="46.2" height="46.2"/>
		</g>
	</g>
	<path class="st0" d="M471.2,489.5H38c-19.8,0-35.9-16.2-35.9-35.9V58.4c0-19.8,16.2-35.9,35.9-35.9h433.2
		c19.8,0,35.9,16.2,35.9,35.9v395.2C507.1,473.3,490.9,489.5,471.2,489.5z"/>
	<line class="st0" x1="2" y1="116" x2="507.1" y2="116"/>
	<line class="st0" x1="113.1" y1="0" x2="113.1" y2="72"/>
	<line class="st0" x1="375.5" y1="0" x2="375.5" y2="72"/>
</g>
</svg>
