<?xml version="1.0" encoding="utf-8"?>
<!-- Generator: Adobe Illustrator 19.0.0, SVG Export Plug-In . SVG Version: 6.00 Build 0)  -->
<svg version="1.1" id="Layer_1" xmlns="http://www.w3.org/2000/svg" xmlns:xlink="http://www.w3.org/1999/xlink" x="0px" y="0px"
	 viewBox="0 0 200.7 187.7" style="enable-background:new 0 0 200.7 187.7;" xml:space="preserve">
<style type="text/css">
	.st0{fill:#FFFFFF;}
	.st1{fill:none;stroke:#000000;stroke-miterlimit:10;}
	.st2{fill:none;stroke:#000000;stroke-width:2;stroke-miterlimit:10;}
</style>
<g>
	<path d="M-472.6,81.8c7,0,14,0,21,0c7.3,0,14.7,0,22,0c1.3,0,3.1,0.3,3-1.5c-0.1-1.5-1.8-1.2-2.9-1.2c-14.5,0-29,0-43.5,0
		c-1.1,0-3.2-0.7-3,1.4C-475.8,82.3-473.9,81.8-472.6,81.8z"/>
	<path d="M-429.3,91.9c-14.6,0-29.2,0-43.9,0c-1,0-2.7-0.6-2.8,1.1c-0.1,2,1.8,1.5,3,1.6c7.1,0.1,14.3,0,21.4,0c7.3,0,14.6,0,21.9,0
		c1.2,0,3.1,0.4,3.1-1.5C-426.6,91.5-428.3,91.9-429.3,91.9z"/>
	<path d="M-429.1,98.2c-14.8,0-29.6,0-44.5,0c-1.1,0-2.6-0.1-2.4,1.6c0.1,1.3,1.5,1.1,2.4,1.1c7.3,0,14.7,0,22,0c7.5,0,15,0,22.5,0
		c1.1,0,2.6,0.1,2.5-1.5C-426.8,98.3-428,98.2-429.1,98.2z"/>
	<path d="M-364.1,91.9c-7.3-0.1-14.7,0-22,0c-7.3,0-14.7,0-22,0c-1,0-2.7-0.5-2.8,1.2c-0.1,1.7,1.5,1.5,2.6,1.5
		c14.8,0,29.6,0,44.5,0c1.1,0,2.7,0.2,2.5-1.5C-361.5,91.4-363.1,91.9-364.1,91.9z"/>
	<path d="M-364.7,98.3c-7,0-13.9,0-20.9,0c-7.3,0-14.6,0-21.9,0c-1.3,0-3.2-0.4-3.3,1.3c-0.1,1.9,1.9,1.4,3.1,1.4
		c14.4,0,28.9,0,43.3,0c1.2,0,3.2,0.5,3-1.4C-361.5,97.8-363.4,98.3-364.7,98.3z"/>
	<path d="M-364.1,85.4c-14.7,0-29.3,0-44,0c-1.1,0-2.8-0.1-2.8,1.3c0,2,1.9,1.3,3.1,1.3c7.2,0.1,14.3,0,21.5,0c7.3,0,14.7,0,22,0
		c1.1,0,3.1,0.7,3-1.4C-361.3,85.3-363,85.4-364.1,85.4z"/>
	<path d="M-496,91.9c-14.5,0-28.9,0-43.4,0c-1.2,0-3.2-0.7-3.2,1.2c-0.1,1.8,1.9,1.4,3.1,1.5c7.2,0,14.3,0,21.5,0c7.3,0,14.6,0,22,0
		c1.2,0,3.1,0.4,2.9-1.6C-493.3,91.3-495,91.9-496,91.9z"/>
	<path d="M-496,98.3c-14.7,0-29.3,0-44,0c-1.2,0-2.7,0-2.7,1.4c0.1,1.4,1.7,1.3,2.8,1.3c7.3,0,14.7,0,22,0c7.2,0,14.3,0,21.5,0
		c1.2,0,3.1,0.6,3.1-1.4C-493.2,98.1-494.9,98.3-496,98.3z"/>
	<path d="M-473.4,88.1c7.3,0,14.6,0,21.9,0c7.5,0,15,0,22.4,0c0.9,0,2.3,0.3,2.4-1c0.2-1.7-1.3-1.6-2.4-1.6c-14.8,0-29.6,0-44.4,0
		c-1.1,0-2.7-0.2-2.7,1.4C-476.1,88.6-474.4,88.1-473.4,88.1z"/>
	<path d="M-539.9,88.1c7.3,0,14.6,0,22,0s14.6,0,22,0c1,0,2.7,0.6,2.8-1.1c0.1-2-1.8-1.6-2.9-1.6c-14.6,0-29.3,0-43.9,0
		c-1.1,0-2.7-0.1-2.7,1.5C-542.7,88.5-541,88.1-539.9,88.1z"/>
	<path d="M-540.2,81.8c14.8,0,29.6,0,44.5,0c1.1,0,2.7,0.2,2.5-1.5c-0.2-1.6-1.8-1.1-2.9-1.1c-7.2,0-14.3,0-21.5,0
		c-7.5,0-15,0-22.5,0c-1.1,0-2.6-0.2-2.5,1.5C-542.6,81.6-541.3,81.8-540.2,81.8z"/>
	<path d="M-363.7,81.8c1,0,2.3,0,2.4-1.2c0.1-1.7-1.4-1.5-2.5-1.5c-7.5,0-14.9,0-22.4,0c-7.3,0-14.6,0-21.9,0
		c-1.1,0-2.7-0.2-2.7,1.4c0,1.1,1.3,1.3,2.3,1.3C-393.6,81.8-378.7,81.8-363.7,81.8z"/>
	<path d="M-496.4,17.7c-14.8,0.1-29.7,0.1-44.5,0c-2.6,0-3.4,0.6-3.4,3.3c0.2,7.3,0.1,14.7,0.1,22c0,7.5,0.1,15,0,22.5
		c0,2.4,0.3,3.6,3.2,3.5c15-0.1,30-0.1,45,0c2.4,0,3.1-0.7,3.1-3.1c-0.1-15-0.1-30,0-45C-493,18.2-493.9,17.7-496.4,17.7z
		 M-499.1,66.3c-13-0.2-25.9-0.1-38.9,0c-2.6,0-3.9-0.3-3.9-3.4c0.2-13.1,0.1-26.3,0-39.4c0-2.7,1-3.3,3.5-3.3
		c13.1,0.1,26.3,0.1,39.4,0c2.8,0,3.3,1.1,3.3,3.5c-0.1,6.6,0,13.3,0,19.9c0,6.3-0.1,12.6,0.1,18.9C-495.6,65.2-496,66.4-499.1,66.3
		z"/>
	<path d="M-426.4,21.5c0-2.7-0.5-3.8-3.5-3.8c-14.8,0.1-29.7,0.1-44.5,0c-3.1,0-3.5,1.2-3.5,3.8c0.1,7.3,0,14.7,0,22
		c0,7.2,0.1,14.3-0.1,21.5c-0.1,2.9,0.5,4.1,3.8,4c14.7-0.2,29.3-0.1,44,0c2.7,0,3.8-0.6,3.7-3.6C-426.5,50.8-426.5,36.2-426.4,21.5
		z M-432.3,66.3c-13.1-0.1-26.3-0.1-39.4,0c-2.6,0-3.4-0.6-3.4-3.3c0.2-6.7,0.1-13.3,0.1-20c0-6.5,0.1-13-0.1-19.5
		c-0.1-2.5,0.6-3.4,3.3-3.4c13.1,0.1,26.3,0.1,39.4,0c2.6,0,3.4,0.7,3.4,3.4c-0.1,13.1-0.1,26.3,0,39.4
		C-429,65.5-429.7,66.3-432.3,66.3z"/>
	<path d="M-343.1-89.8c0-4-0.8-5.3-5.1-5.2c-69.3,0.2-138.6,0.2-207.9,0c-4.4,0-5,1.4-5,5.3c0.1,66.5,0.1,132.9,0,199.4
		c0,4.2,0.7,5.6,5.3,5.5c34.5-0.2,69-0.1,103.4-0.1c34.5,0,69-0.1,103.4,0.1c4.3,0,5.8-0.7,5.8-5.5
		C-343.3,43.1-343.3-23.4-343.1-89.8z M-350.1,112.4c-34-0.1-68-0.1-101.9-0.1c-33.8,0-67.6-0.1-101.4,0.1c-4.1,0-4.8-1.2-4.8-5
		c0.1-39.8,0.1-79.6,0-119.4c0-3.6,0.5-5.1,4.7-5.1c24.2,0.2,48.3,0.2,72.5,0.1c2.6,0,3.8,0.4,4.6,3.4c2.9,12.2,12.8,20,24.7,20.1
		c12.1,0,21.9-7.9,24.8-20.4c0.6-2.6,1.7-3.1,4-3.1c24.5,0.1,49,0.1,73.5,0c3.3,0,3.7,1.2,3.7,4c-0.1,40.5-0.1,81,0,121.4
		C-345.8,112-347.1,112.4-350.1,112.4z M-450.3-14.9c6.1,0.6,10.4,4,13.1,9.5c1.1,2.3,0.9,3.9-1.5,5.4c-4.2,2.6-8.7,4.2-13.4,4.1
		c-4.1-0.1-7.7-1.3-11.2-3c-4-2-4.8-4.5-2.2-8.3C-461.8-12.7-456.9-15.5-450.3-14.9z M-458-24.5c0.3-3.7,2.5-5.8,6.1-6
		c3.3-0.2,6,2.6,6.1,5.9c-0.1,3.8-2.2,5.8-5.8,6.3C-454.8-17.9-458.2-21.2-458-24.5z M-446.4-17.2c4.3-5.8,4.3-10.2,0.2-13.8
		c-3.3-2.8-8.2-2.8-11.4,0c-3.9,3.4-3.8,8.4,0.4,13.9c-5.8,2.3-10.1,6.2-12.3,12.2c-7.6-9-6.8-22.1,1.6-30.4
		c8.6-8.4,22.2-8.8,31.2-0.8c9.1,8.1,10.3,21.3,2.9,30.8C-439.5-13.5-439.5-13.5-446.4-17.2z M-345.9-65.5c-0.3,14-0.2,28,0,42
		c0,3.2-0.7,4.3-4.1,4.2c-24.2-0.2-48.3-0.1-72.5,0c-3,0-3.9-0.9-4.5-3.7c-2.6-13.2-12.9-21.8-25.5-21.4
		c-12.5,0.3-22.6,9.1-24.6,21.9c-0.4,2.7-1.3,3.2-3.7,3.2c-24.7-0.1-49.3-0.1-74,0c-2.8,0-3.7-0.7-3.7-3.6c0.1-14.5,0.2-29,0-43.5
		c-0.1-3.6,1.1-4.3,4.5-4.3c34,0.1,68,0.1,101.9,0.1c33.6,0,67.3,0.1,100.9-0.1C-346.7-70.8-345.8-69.6-345.9-65.5z M-346.7-74
		c-2.6,2.9-8.8,0.9-13.4,0.9c-30.8,0.1-61.6,0-92.4,0c-33.6,0-67.3-0.1-100.9,0.1c-3.9,0-5.3-1-4.9-4.9c0.4-4.6-1.4-10.7,0.9-13.5
		c2.4-2.9,8.7-0.9,13.3-0.9c64.3-0.1,128.6,0,192.8-0.1c4.3,0,5.9,0.9,5.4,5.4C-346.4-82.6-344.5-76.6-346.7-74z"/>
	<path d="M-547.7-88.9c-3.7,0.1-5.8,2.4-5.7,6.2c0.1,3.8,2.4,5.6,6,5.9c3.8-0.5,5.9-2.6,5.8-6.2C-541.6-86.7-543.9-89-547.7-88.9z
		 M-547.6-79.6c-2.2-0.3-3.5-1.5-3.3-3.7c0.2-2.1,1.7-3.2,3.8-2.9c1.9,0.2,3,1.4,2.9,3.3C-544.2-80.6-545.6-79.7-547.6-79.6z"/>
	<path d="M-518.6-88.9c-3.7,0.1-5.9,2.3-5.8,6c0,3.7,2.3,5.6,6.2,6c3.4-0.5,5.7-2.5,5.7-6.1C-512.7-86.6-514.9-88.9-518.6-88.9z
		 M-518.5-79.6c-2.1,0-3.5-1.2-3.5-3.4c0-1.9,1.2-3.1,3.1-3.2c2.2-0.2,3.4,1,3.8,2.7C-515.1-80.9-516.4-79.6-518.5-79.6z"/>
	<path d="M-533-88.9c-3.7,0-6,2.2-6,5.9c0,3.7,2.2,5.7,5.9,6.1c3.6-0.4,5.9-2.2,6-6C-527-86.6-529.3-88.8-533-88.9z M-532.6-79.7
		c-2.1,0.2-3.6-0.7-3.7-3c-0.1-1.9,0.8-3.2,2.8-3.4c2.2-0.2,3.4,0.8,3.8,3.1C-529.7-81.2-530.6-79.9-532.6-79.7z"/>
	<path d="M-361.1,21.3c0-2.8-0.8-3.7-3.6-3.6c-7.3,0.2-14.7,0.1-22,0.1c-7.2,0-14.3,0.1-21.5-0.1c-3-0.1-4.3,0.5-4.3,4
		c0.2,14.5,0.2,29,0,43.5c0,3.1,0.8,3.9,3.9,3.9c14.5-0.2,29-0.1,43.5,0c2.9,0,4.1-0.4,4-3.7C-361.3,50.6-361.2,36-361.1,21.3z
		 M-367.2,66.3c-6.6-0.2-13.3-0.1-20-0.1c-6.5,0-13-0.1-19.5,0c-2.5,0.1-3.5-0.6-3.4-3.3c0.1-13.1,0.1-26.3,0-39.4
		c0-2.6,0.7-3.4,3.4-3.4c13.1,0.1,26.3,0.1,39.4,0c2.6,0,3.4,0.8,3.4,3.4c-0.1,13.1-0.1,26.3,0,39.4
		C-363.8,65.5-364.5,66.4-367.2,66.3z"/>
</g>
<g>
	<path d="M-417.2,166.9c63.7,0,126.8,0,190.7,0c4,63.2,7.9,126.4,11.9,190.1c-71.4,0-142.4,0-214.5,0
		C-425.1,293.9-421.1,230.6-417.2,166.9z M-411.7,172.7c-3.7,60-7.5,119.3-11.2,178.7c67.8,0,134.8,0,202.2,0
		c-3.7-59.8-7.5-119.1-11.2-178.7C-292,172.7-351.4,172.7-411.7,172.7z"/>
	<path class="st0" d="M-261.6,210.2c-4.8,0.9-4.8,0.9-4.6,6.2c0.5,19.2-8.9,32.7-27.2,38.7c-13.8,4.5-27.9,5.3-42.1,3.2
		c-31.3-4.8-40.9-14.1-47.3-45c-0.3-1.5-2.8-2.5-5.1-4.6c-1.4,22.5,9,40.4,27.7,48.7c23.3,10.2,47.3,10.8,71.1,2.1
		C-267.3,251.5-256.7,231.5-261.6,210.2z"/>
	<path d="M-261.6,210.2c4.9,21.3-5.7,41.3-27.5,49.2c-23.8,8.6-47.8,8.1-71.1-2.1c-18.8-8.2-29.1-26.2-27.7-48.7
		c2.4,2,4.8,3.1,5.1,4.6c6.4,30.9,16,40.2,47.3,45c14.2,2.2,28.3,1.3,42.1-3.2c18.3-5.9,27.7-19.5,27.2-38.7
		C-266.4,211.1-266.4,211.1-261.6,210.2z"/>
</g>
<g>
	<path class="st1" d="M200.1,18.4c0-12.3-5-17.5-17.1-17.6C140,0.7,97,0.7,53.9,0.8c-12.2,0-16.8,5-17,17.5c-0.1,14.5,0,27,0,41.7
		C24,59.9,6.1,56.4,0.3,74.7c0,0,0,99,0,103.3c0,6,10.6,9.8,19.7,9.7c41.5-0.5,82.9-0.2,124.4-0.2c15.1,0,18.7-3.7,18.8-18.9
		c0.1-14,1-29.1,1-43.8c7.2,0,11.7,0.1,17.2,0c13.9-0.2,18.6-9,18.6-17.4C200.2,77.7,200.2,48,200.1,18.4z M59.7,0.7
		c39.5,0,73.9,0,113.4,0c22.2,0,29,0.9,27.3,28.3H37.2C37.4,2.8,39.1,0.7,59.7,0.7z M199.6,111.6c-0.1,3.5-6.4,11-10,11.7
		c-7.4,1.5-16.3,1.5-25.2,1.5c0-15.1,0.1-30.9,0-44.6c-0.1-16.7-2.9-19.9-18.5-19.9c-30.8-0.1-62.4,0-93.2,0c-4.4,0-9.9,0-15.2,0V29
		H200C200,60.9,200.2,86.6,199.6,111.6z M27,59.9c40.2,0,73.4,0,113.6,0c22.6,0,25.4,2.9,23.6,29.3H0.1C-1.1,65.1,6.1,59.9,27,59.9z
		"/>
</g>
<path class="st1" d="M114.4,85.3 M114.1,73.3 M114.7,76"/>
<path class="st1" d="M128.7,85.3 M128.8,73.3 M128.3,76.1"/>
<g>
	<path d="M289.2,156.6c-6.4,0-12.4-0.1-18.4,0c-6.9,0.2-12.3-2.8-16.7-7.9c-3-3.5-4.5-7.6-4.5-12.2c0-18.3,0-36.5,0-54.8
		c0-10.2,5.7-17,15.9-18.6c1.8-0.3,3.6-0.4,5.4-0.4c30.9,0,61.8,0,92.8-0.1c1.5,0,3.1-0.5,4.4-1.3c9.1-5.9,18.1-11.9,27.2-17.8
		c0.6-0.4,1.2-0.8,1.9-1.3c-1.6-2.3-3.2-4.5-4.9-6.9c-10.7,7.1-21.2,14.2-31.8,21.3c-0.4-0.6-0.8-1.1-1.3-1.7
		c15.9-10.7,31.8-21.3,47.7-31.9c2.1,3.1,4,6,6.1,9c3-2,5.8-3.8,8.7-5.8c1.1,1.6,2.1,3,3.2,4.6c3.1-2.1,6.2-4.1,9.5-6.2
		c3.3,5,6.6,9.9,10,15c-3.2,2.1-6.3,4.2-9.5,6.3c1,1.6,1.9,3,3,4.7c-0.7,0.5-1.3,1-2,1.4c-14.9,9.9-29.7,19.8-44.6,29.6
		c-1.3,0.9-1.8,1.8-1.8,3.4c0.1,17.2,0.1,34.5,0,51.7c0,3.5-0.6,7.2-1.8,10.6c-2.3,6.4-7.2,9.5-13.9,9.5c-14.7,0-29.3,0-44,0
		c-1.9,0-3.2,0.5-4.6,1.7c-11.3,10-22.6,20-33.9,29.9c-0.6,0.5-1.1,0.9-2,1.6C289.2,178.7,289.2,167.8,289.2,156.6z M291.2,185.3
		c0.9-0.7,1.4-1.2,1.9-1.6c10.4-9.2,20.9-18.4,31.3-27.6c1.3-1.1,2.5-1.7,4.3-1.6c15.1,0.1,30.2,0,45.2,0.1c5.3,0,8.8-2.4,11.1-6.9
		c1.8-3.4,2.3-7.1,2.3-10.9c0-16.7,0-33.4,0-50c0-0.7,0-1.3,0-2.5c-22.9,15.3-45.4,30.4-68,45.5c-0.9-1.3-1.6-2.4-2.4-3.5
		c-3.7,2.5-7.3,4.8-11,7.3c-1.7-2.5-3.3-4.8-4.9-7.2c-3.8,2.5-7.5,4.9-11.1,7.3c-0.6,0.4-1.2,0.8-1.8,0.8c-2.6,0-5.1,0-7.7-0.1
		c-0.6,0-1.7-0.5-1.8-1c-0.3-1.5,1-1.1,1.8-1.1c2.3-0.1,5,0.6,6.8-0.3c4.4-2.3,8.4-5.3,12.7-8.1c-1.8-2.7-3.5-5.1-5.2-7.5
		c0.8-0.7,1.4-1.3,2.5-2.3c-6.5,0-12.5,0-18.5,0c0-0.8,0-1.3,0-2c0.9,0,1.6,0,2.4,0c5.6,0,11.1-0.2,16.7,0.1c3.4,0.2,5.5-1.8,8-3.4
		c-0.9-1.2-1.6-2.3-2.4-3.5c5.4-3.7,10.6-7.4,15.8-11c-0.1-0.2-0.1-0.3-0.2-0.5c-13.4,0-26.8,0-40.4,0c0.1-0.9,0.2-1.4,0.2-2.1
		c1,0,1.7,0,2.5,0c13.3,0,26.7,0,40,0c1,0,2.2-0.3,3.1-0.9c12.2-8.1,24.4-16.3,36.6-24.4c0.5-0.3,0.9-0.7,1.7-1.4c-1,0-1.4,0-1.9,0
		c-30.2,0-60.5,0-90.7,0c-1.5,0-2.9,0.2-4.3,0.4c-9,1.6-13.8,7.3-13.8,16.4c0,18.2,0.2,36.4-0.1,54.6c-0.1,10.4,10.5,18.6,18.3,18.3
		c6.3-0.3,12.6-0.1,19-0.1c0.7,0,1.5,0,2.3,0C291.2,164.8,291.2,174.8,291.2,185.3z M420.9,29.1c-38.4,25.6-76.6,51-115,76.6
		c4.7,7,9.4,14,14.2,21.1c38.4-25.7,76.6-51.2,115-76.9C430.3,43,425.7,36.1,420.9,29.1z M315.8,124.4c-3.2-4.6-6.2-9.1-9.3-13.6
		c-3.1,2-6,3.8-9,5.7c3.1,4.8,6.1,9.4,9.1,14.1C309.8,128.4,312.8,126.5,315.8,124.4z M411.1,33.1c-1.7-2.6-3.3-4.9-4.9-7.2
		c-4.2,2.8-8.2,5.5-12.2,8.2c1.7,2.5,3.3,4.8,4.9,7.3C403,38.6,406.9,35.9,411.1,33.1z M433.7,44.1c2.6-1.8,5.1-3.4,7.7-5.1
		c-2.7-4-5.1-7.7-7.7-11.5c-2.6,1.8-5.1,3.4-7.7,5.1C428.7,36.5,431.2,40.2,433.7,44.1z"/>
</g>
<line class="st2" x1="113" y1="76" x2="123" y2="76"/>
<line class="st2" x1="127.4" y1="76" x2="137.4" y2="76"/>
<line class="st2" x1="141.7" y1="76" x2="151.7" y2="76"/>
<path class="st1" d="M152.1,25.9 M151.7,13.9 M152.4,16.6"/>
<path class="st1" d="M166.3,25.9 M166.4,13.9 M165.9,16.6"/>
<line class="st2" x1="150.7" y1="16.6" x2="160.7" y2="16.6"/>
<line class="st2" x1="165" y1="16.6" x2="175" y2="16.6"/>
<line class="st2" x1="179.3" y1="16.6" x2="189.3" y2="16.6"/>
</svg>
