<?xml version="1.0" encoding="utf-8"?>
<!-- Generator: Adobe Illustrator 19.0.0, SVG Export Plug-In . SVG Version: 6.00 Build 0)  -->
<svg version="1.1" id="Layer_1" xmlns="http://www.w3.org/2000/svg" xmlns:xlink="http://www.w3.org/1999/xlink" x="0px" y="0px"
	 viewBox="0 0 206.3 136.7" style="enable-background:new 0 0 206.3 136.7;" xml:space="preserve">
<style type="text/css">
	.st0{fill:#281F52;}
	.st1{fill:#161233;}
</style>
<g>
	<path class="st0" d="M25.2,44.3c0.4-2.4-0.7-5.1-2.8-6.4c-2.1-1.3-4.9-1.3-7,0.1c-3.2,2.2-3.4,7.6-0.4,10c3,2.4,8.2,1.2,9.7-2.4
		C25,45.2,25.1,44.8,25.2,44.3"/>
	<path class="st0" d="M175.2,8.5c0.9-1,1.6-2.3,1.4-3.7c-0.3-1.9-2.3-3.1-4.1-3.8c-2-0.8-4.3-1.4-6.3-0.5c-3.3,1.5-3.7,6.8-0.9,9.1
		C168.2,11.9,172.7,11.1,175.2,8.5"/>
	<path class="st0" d="M191.5,86.4c2.9,1.2,6.6,0.1,8.3-2.5c1.8-2.6,1.4-6.4-0.7-8.7c-2.8-3-8.5-2.5-10.8,0.9
		C186,79.5,187.6,84.9,191.5,86.4"/>
	<path class="st0" d="M43.1,122.7c-2.9-0.3-5.8,1.6-6.7,4.3c-0.9,2.7,0.5,6,3,7.3c2.5,1.4,6,0.7,7.8-1.5
		C50,129.4,47.5,123.2,43.1,122.7"/>
	<path class="st0" d="M117.5,65.2c-7.4,0-15.6-1.8-24-5.3c-4.9-2.1-9.8-4.5-14.4-6.9c-9.2-4.7-18.7-9.5-28.8-11.3
		c-8.4-1.5-17.1-0.8-25.2,1.9L24,40.5c8.6-2.9,17.9-3.6,26.9-2.1c10.6,1.9,20.4,6.8,29.8,11.6c4.6,2.4,9.4,4.8,14.2,6.8
		c6.5,2.7,28.8,10.7,43.2-1.8c5.3-4.6,8.6-11.5,11.5-17.5l15.2-31.4l3,1.5L152.6,39c-3.1,6.3-6.6,13.5-12.4,18.6
		C134.4,62.6,126.5,65.2,117.5,65.2"/>
	<path class="st0" d="M40.7,123.8C34.8,98.4,27,73.4,17.4,49.3l3.1-1.2c9.7,24.3,17.6,49.5,23.5,75L40.7,123.8z"/>
	<path class="st0" d="M191.8,76.5c-6.2-22.4-13.4-44.8-21.4-66.6l3.1-1.2c8.1,21.9,15.3,44.4,21.5,66.9L191.8,76.5z"/>
	<path class="st0" d="M46.3,130.5l-1.1-3.2c48-16.5,97-32,145.6-46.1l0.9,3.2C143.1,98.5,94.2,114,46.3,130.5"/>
	<path class="st0" d="M1,43.7L0.5,42L0,40.2l1,1.7c2.2,3.6,4.3,7.4,6.1,11.3c1.8,3.9,3.4,7.8,4.8,11.8c2.8,8,5.1,16.3,6.1,24.8
		c-1.7-3.9-3.3-7.8-4.8-11.8c-1.5-3.9-3-7.9-4.4-11.8c-2.9-7.9-5.7-15.8-8.2-24l0.5-0.1L1,43.7z"/>
	<path class="st0" d="M16.8,99.4c0,0,0.2-0.7,0.7-1.2c0.5-0.6,1.3-1,2.2-1.1c0.9,0,1.7,0.3,2.3,0.7c0.6,0.5,0.8,1.1,0.8,1.1
		s-0.5,0.5-1,0.8c-0.6,0.4-1.2,0.6-1.9,0.7c-0.7,0-1.3-0.1-1.9-0.4C17.4,99.9,16.8,99.4,16.8,99.4"/>
	<path class="st0" d="M18.6,108.2c0,0,0.5-0.6,1.2-1c0.7-0.4,1.6-0.7,2.6-0.7c0.9,0,1.9,0.3,2.6,0.7c0.7,0.4,1.2,1,1.2,1
		s-0.5,0.6-1.2,1c-0.7,0.4-1.6,0.7-2.6,0.7c-0.9,0-1.9-0.3-2.6-0.7C19.1,108.8,18.6,108.2,18.6,108.2"/>
	<path class="st0" d="M67.2,136.7c0,0,1-0.5,2.8-1.3c1.8-0.8,4.4-2,7.5-3.3c6.3-2.6,14.7-5.9,23.3-8.9c8.6-3,17.2-5.7,23.8-7.6
		c3.3-0.9,6-1.6,8-2.1c1.9-0.5,3-0.7,3-0.7s-1,0.5-2.8,1.3c-1.8,0.8-4.4,2-7.5,3.3c-6.3,2.6-14.7,5.9-23.3,8.9
		c-8.6,3-17.2,5.7-23.8,7.6c-3.3,0.9-6,1.6-8,2.1C68.3,136.4,67.2,136.7,67.2,136.7"/>
	<path class="st0" d="M142.1,109.8c0,0,0.6,0.2,1,0.7c0.5,0.4,0.8,1,0.9,1.6c0.1,0.6-0.1,1.3-0.5,1.8c-0.3,0.5-0.9,0.9-0.9,0.9
		s-0.6-0.2-1.1-0.7c-0.5-0.4-0.8-1-0.9-1.6c-0.1-0.6,0.1-1.3,0.5-1.8C141.6,110.2,142.1,109.8,142.1,109.8"/>
	<path class="st0" d="M149.3,107.4c0,0,0.6,0.2,1,0.5c0.5,0.3,0.8,0.8,0.9,1.3c0.1,0.5-0.1,1.1-0.5,1.5c-0.3,0.4-0.9,0.8-0.9,0.8
		s-0.6-0.2-1-0.5c-0.5-0.3-0.8-0.8-0.9-1.3c-0.1-0.5,0.2-1.1,0.5-1.5C148.7,107.7,149.3,107.4,149.3,107.4"/>
	<path class="st0" d="M159,104.8c0,0,0.6,0.2,1,0.6c0.5,0.4,0.8,0.9,0.8,1.4c0,0.5-0.2,1.1-0.6,1.5c-0.4,0.4-0.9,0.7-0.9,0.7
		s-0.6-0.2-1-0.6c-0.5-0.4-0.8-0.9-0.8-1.4c0-0.5,0.2-1.1,0.6-1.5C158.5,105.1,159,104.8,159,104.8"/>
	<path class="st0" d="M184.7,8.4c0,0,1.4,2.3,3,6c1.6,3.6,3.5,8.6,5.2,13.6c1.6,5,3,10.2,3.8,14.1c0.8,3.9,1.1,6.6,1.1,6.6
		s-1.4-2.3-3-6c-1.6-3.6-3.5-8.6-5.2-13.6c-1.6-5-3-10.2-3.8-14.1C185,11.1,184.7,8.4,184.7,8.4"/>
	<path class="st0" d="M197.9,54.9c0,0,0.1-0.6,0.4-1.2c0.3-0.6,0.8-1,1.4-1.3c0.6-0.2,1.3-0.2,1.9,0.1c0.6,0.2,1.1,0.6,1.1,0.6
		s-0.1,0.6-0.4,1.2c-0.3,0.6-0.8,1-1.4,1.3c-0.6,0.2-1.3,0.2-1.9-0.1C198.4,55.3,197.9,54.9,197.9,54.9"/>
	<path class="st0" d="M201.2,63c0,0-0.1-0.1-0.2-0.4c-0.1-0.2-0.2-0.6-0.1-1.1c0.1-0.9,0.8-1.9,1.9-2.3c1.1-0.4,2.3-0.1,2.9,0.5
		c0.7,0.6,0.6,1.3,0.6,1.3s-0.7,0.2-1.1,0.5c-0.5,0.3-0.9,0.6-1.3,0.8c-0.4,0.1-0.9,0.1-1.5,0.2C201.9,62.7,201.2,63,201.2,63"/>
	<path class="st1" d="M137.5,30.4c-0.9-3-5.7-3.6-7.4-1c-1,1.6-0.7,3.8,0.6,5.2c-1.8,7.7-4.1,15.3-6.5,22.9c-0.1,0-0.2,0-0.3,0
		c-3.5,0.2-5.9,4.6-4.3,7.6c0.4,0.7,0.9,1.3,1.5,1.7c-1.8,5.2-3.6,10.5-5.4,15.6l-4.1,11.7c-2.3,0.2-4.4,2.4-4.2,4.8
		c0.3,3.3,5.2,5.1,7.5,2.7c1.7-1.7,1.3-4.5-0.2-6.2l4.2-11.9c1.8-5.2,3.6-10.4,5.4-15.6c0.7,0,1.5-0.1,2.1-0.4
		c2.4-1.1,3.6-4.3,2.6-6.8c-0.4-0.8-0.9-1.6-1.7-2.1c2.4-7.5,4.6-15.1,6.5-22.8C136.2,35.3,138.3,32.7,137.5,30.4"/>
</g>
</svg>
