<?xml version="1.0" encoding="utf-8"?>
<!-- Generator: Adobe Illustrator 22.0.0, SVG Export Plug-In . SVG Version: 6.00 Build 0)  -->
<svg version="1.1" id="Layer_1" xmlns="http://www.w3.org/2000/svg" xmlns:xlink="http://www.w3.org/1999/xlink" x="0px" y="0px"
	 viewBox="0 0 65.1 65.5" style="enable-background:new 0 0 65.1 65.5;" xml:space="preserve">
<style type="text/css">
	.st0{fill:#FFFFFF;}
	.st1{fill:#969696;}
</style>
<g>
	<path class="st0" d="M21.9,27.3c-1,1-2.3,1.6-3.4,2.4c-3.4,2.6-4.2,7.4-3.8,11.7c-1.9,0.2-3.7,0.5-5.6,0.7
		c-1.9,0.2-4.1,0.6-5.2,2.2c-0.2,0.3-0.4,0.7-0.4,1.1c0,1.3,1.8,1.8,3.1,1.8c10.9,0.1,21.8,0.2,32.7,0.3c5.4,0,10.9,0.1,16.2-0.7
		c1.4-0.2,3-0.5,3.9-1.7c1-1.2,0.8-3.1-0.1-4.3c-0.9-1.3-2.4-2-4-2.2c1.2-2.9,1.9-6.3,0.8-9.3c-1-3-4.2-5.4-7.3-4.8
		c0.9-5,0.5-10.8-3-14.5c-2-2.2-4.9-3.4-7.7-4.1c-3-0.7-6.3-0.9-9.1,0.5c-3.2,1.5-5.4,4.7-6.3,8.1c-0.9,3.4-0.7,7-0.2,10.5
		c0.1,0.4,0.1,0.8,0,1.1C22.5,26.7,22.2,27,21.9,27.3"/>
	<path class="st1" d="M43.1,47.9L43.1,47.9c-1.2,0-2.5,0-3.7,0L6.6,47.6C5,47.6,3.1,47,3,45.4c0-0.4,0.2-0.9,0.5-1.3
		C4.7,42.4,7,41.9,9,41.7l5.2-0.7c-0.4-5.2,1.1-9.4,4-11.7c0.5-0.4,1-0.7,1.4-1c0.7-0.4,1.4-0.9,2-1.4c0.3-0.3,0.5-0.6,0.5-0.8
		c0.1-0.3,0-0.6,0-1c-0.7-4.4-0.6-7.8,0.2-10.7c1-3.8,3.5-7,6.5-8.4c2.6-1.2,5.8-1.4,9.4-0.5c3.4,0.8,6.1,2.2,8,4.2
		c4,4.3,3.8,10.5,3.3,14.3c3-0.3,6.1,2,7.2,5.2c0.9,2.6,0.7,5.6-0.6,9.1c1.6,0.3,2.9,1.1,3.7,2.3c1.1,1.5,1.1,3.6,0.1,4.9
		c-1,1.2-2.6,1.6-4.2,1.8C51.3,47.8,46.8,47.9,43.1,47.9 M33.9,5.9c-1.7,0-3.3,0.3-4.7,1c-2.8,1.3-5.1,4.3-6,7.8
		c-0.8,2.9-0.8,6.1-0.2,10.4c0.1,0.4,0.1,0.9,0,1.3c-0.1,0.4-0.3,0.8-0.8,1.3c-0.6,0.6-1.4,1.1-2.1,1.6c-0.5,0.3-0.9,0.6-1.3,0.9
		c-3.9,3-3.8,8.9-3.6,11.3l0,0.4l-6,0.8c-1.9,0.2-3.9,0.6-4.9,2C4.1,44.9,4,45.2,4,45.4c0,1,1.7,1.3,2.7,1.3L39.3,47
		c1.2,0,2.5,0,3.7,0h0c3.7,0,8.1-0.1,12.4-0.7c1.4-0.2,2.8-0.5,3.6-1.5c0.8-1,0.7-2.6-0.1-3.8c-0.8-1-2.1-1.8-3.7-2L54.7,39l0.2-0.5
		c1.4-3.4,1.7-6.4,0.8-9c-0.9-2.6-3.4-4.6-5.8-4.6c-0.3,0-0.6,0-0.9,0.1l-0.7,0.1l0.1-0.7c0.6-3.5,1-9.9-2.9-14.1
		c-1.7-1.9-4.3-3.2-7.5-4C36.6,6.1,35.2,5.9,33.9,5.9"/>
	<path class="st1" d="M3.8,45.6l-0.2-0.4c3.1-1.5,6.7-1.2,9.2-0.9c2.3,0.3,4.6,0.5,5.7-1.1c0.7-0.9,0.6-2.1,0.6-3.3
		c0-0.3,0-0.6,0-0.9c0-2.4,0.9-4.7,2.5-6.2c1.8-1.8,4.5-2.7,8.1-2.9l0.4,0c0.8,0,1.6,0,2.4-0.3c0.8-0.2,1.6-0.8,1.9-1.7
		c0.1-0.7-0.1-1.2-0.3-1.5c-0.5-0.7-1.4-1.3-2.4-1.4c-1-0.1-1.9,0-3,0.2c-0.6,0.1-1.2,0.2-1.9,0.2c-0.3,0-0.6,0-0.8-0.2
		c-0.2-0.2-0.2-0.4-0.2-0.6c-0.5-4.2,1.4-8.6,4.8-11c3.4-2.4,8.2-2.8,12-1c3.8,1.8,6.4,5.9,6.6,10.1l-0.5,0c-0.2-4-2.7-7.9-6.3-9.7
		c-3.6-1.8-8.3-1.4-11.5,1c-3.3,2.3-5.2,6.6-4.6,10.6c0,0.1,0,0.3,0.1,0.3c0.1,0.1,0.3,0.1,0.5,0.1c0.6,0,1.2-0.1,1.8-0.2
		c1-0.2,2.1-0.3,3.1-0.2c1.1,0.1,2.1,0.8,2.7,1.6c0.4,0.6,0.6,1.3,0.4,1.9c-0.3,1.1-1.3,1.8-2.2,2.1c-0.8,0.3-1.7,0.3-2.5,0.3
		l-0.4,0c-3.5,0.1-6.1,1-7.8,2.7c-1.4,1.4-2.3,3.6-2.3,5.9c0,0.3,0,0.6,0,0.9c0,1.3,0.1,2.5-0.7,3.6c-1.4,1.9-4.4,1.5-6.1,1.3
		C10.3,44.4,6.8,44.1,3.8,45.6"/>
	<path class="st1" d="M35.2,37c-0.1,0-0.2,0-0.4-0.1c-0.5-0.2-0.8-0.7-0.8-1.3c0-0.5,0.2-0.9,0.4-1.4c0.1-0.3,0.3-0.5,0.4-0.8
		c0.7-1.2,1.4-2,2.3-2.6c1-0.7,2.3-1,3.4-0.8c0.6,0.1,1,0.4,1.2,0.7c0.2,0.3,0.3,0.6,0.3,1c0,1.1-0.7,2.2-1.7,2.5
		c-0.3,0.1-0.6,0.2-0.9,0.2c-0.3,0-0.6,0.1-0.9,0.2c-0.6,0.2-1,0.6-1.4,1.1c-0.3,0.3-0.5,0.5-0.8,0.8C36.1,36.8,35.7,37,35.2,37
		 M39.8,30.5c-0.8,0-1.6,0.3-2.4,0.8c-0.8,0.5-1.5,1.4-2.1,2.5c-0.1,0.3-0.3,0.5-0.4,0.8c-0.2,0.4-0.4,0.8-0.4,1.2
		c0,0.3,0.2,0.7,0.5,0.9c0.3,0.1,0.8-0.1,1-0.3c0.3-0.2,0.5-0.5,0.8-0.7c0.5-0.5,0.9-0.9,1.6-1.2c0.3-0.1,0.6-0.2,1-0.2
		c0.3,0,0.6-0.1,0.8-0.2c0.8-0.3,1.5-1.2,1.4-2.1c0-0.3-0.1-0.6-0.2-0.7c-0.2-0.3-0.6-0.5-1-0.5C40.3,30.5,40,30.5,39.8,30.5"/>
	<path class="st0" d="M52.1,44.2c2.6,1.5,5.2,3.9,4.9,6.9c-0.2,1.9-1.6,3.6-3.3,4.5c-1.7,0.9-3.7,1.3-5.6,1.5
		c-6.8,0.9-13.7,0.8-20.6,0.4c-0.4,0-1-0.1-1.1-0.5c-0.1-0.3,0.1-0.6,0.2-0.9c1.1-1.6,2.8-2.8,4.7-3.3c0.9-0.2,1.9-0.3,2.8-0.7
		c2.3-1.2,2.4-4.4,3.7-6.6c1.3-2.3,4.1-3.5,6.7-3.6C47.2,41.9,49.8,42.9,52.1,44.2"/>
	<path class="st1" d="M36.8,58.3c-2.7,0-5.7-0.1-9.2-0.3c-0.3,0-1.2-0.1-1.5-0.8c-0.2-0.5,0.1-1,0.3-1.3c1.2-1.7,3-3,5-3.5
		c0.3-0.1,0.6-0.1,0.9-0.2c0.7-0.1,1.3-0.2,1.8-0.5c1.3-0.7,1.8-2.2,2.4-3.8c0.3-0.9,0.6-1.8,1.1-2.6c1.3-2.3,4-3.7,7.1-3.8l0.2,0
		c2.3,0,4.8,0.8,7.6,2.3c1.7,0.9,5.5,3.5,5.2,7.3C57.3,53.1,56,54.9,54,56c-1.8,1-3.9,1.4-5.7,1.6C44.8,58.1,41,58.3,36.8,58.3
		 M44.8,42.4l-0.2,0c-2.7,0-5.2,1.4-6.3,3.3c-0.4,0.7-0.7,1.6-1,2.5c-0.6,1.7-1.2,3.4-2.8,4.3c-0.7,0.4-1.4,0.5-2.1,0.6
		c-0.3,0-0.6,0.1-0.8,0.2c-1.8,0.4-3.4,1.6-4.4,3.1c-0.2,0.3-0.2,0.4-0.2,0.5c0,0,0.1,0.2,0.7,0.2c3.5,0.2,6.5,0.3,9.2,0.3
		c4.2,0,7.9-0.2,11.3-0.7c1.7-0.2,3.7-0.5,5.4-1.5c1.7-1,2.9-2.6,3-4.2c0.3-3.2-3.2-5.6-4.7-6.4C49.3,43.1,47,42.4,44.8,42.4"/>
	<path class="st1" d="M26.5,57.3l0-0.5c4.8-0.2,8.3-1.3,10.7-3.3c0.9-0.8,1.8-1.8,2.6-2.7c1.4-1.7,2.9-3.5,5.1-4.2
		c1.4-0.5,2.9-0.5,5-0.1c2.1,0.4,3.6,1.1,4.8,2c1.5,1.2,2.3,3.1,2.1,4.7l-0.4-0.1c0.2-1.5-0.5-3.2-1.9-4.3c-1.1-0.9-2.6-1.5-4.6-1.9
		c-2-0.4-3.5-0.4-4.7,0.1c-2,0.7-3.4,2.3-4.9,4.1c-0.8,1-1.7,2-2.6,2.8C34.9,56,31.4,57.1,26.5,57.3"/>
</g>
</svg>
