<?xml version="1.0" ?><!DOCTYPE svg  PUBLIC '-//W3C//DTD SVG 1.1//EN'  'http://www.w3.org/Graphics/SVG/1.1/DTD/svg11.dtd'><svg enable-background="new 0 0 512 512" height="512px" id="Layer_1" version="1.1" viewBox="0 0 512 512" width="512px" xml:space="preserve" xmlns="http://www.w3.org/2000/svg" xmlns:xlink="http://www.w3.org/1999/xlink"><g><circle cx="256" cy="255.997" fill="none" r="57.416" stroke="#000000" stroke-linecap="round" stroke-linejoin="round" stroke-miterlimit="10" stroke-width="10.0576"/><path d="    M154.097,106.44c20.084-13.708,43.065-23.484,67.848-28.202" fill="none" stroke="#000000" stroke-linecap="round" stroke-linejoin="round" stroke-miterlimit="10" stroke-width="10.0576"/><path d="    M405.958,154.697c13.59,20.076,23.253,43.027,27.89,67.748" fill="none" stroke="#000000" stroke-linecap="round" stroke-linejoin="round" stroke-miterlimit="10" stroke-width="10.0576"/><path d="    M290.055,433.755c24.53-4.677,47.3-14.303,67.244-27.8" fill="none" stroke="#000000" stroke-linecap="round" stroke-linejoin="round" stroke-miterlimit="10" stroke-width="10.0576"/><path d="    M78.342,290.555c4.758,24.58,14.482,47.402,28.101,67.347" fill="none" stroke="#000000" stroke-linecap="round" stroke-linejoin="round" stroke-miterlimit="10" stroke-width="10.0576"/><path d="    M78.151,222.445c4.636-24.721,14.302-47.672,27.889-67.748" fill="none" stroke="#000000" stroke-linecap="round" stroke-linejoin="round" stroke-miterlimit="10" stroke-width="10.0576"/><path d="    M154.699,405.955c19.944,13.497,42.715,23.123,67.246,27.8" fill="none" stroke="#000000" stroke-linecap="round" stroke-linejoin="round" stroke-miterlimit="10" stroke-width="10.0576"/><path d="    M405.556,357.901c13.619-19.944,23.345-42.767,28.102-67.347" fill="none" stroke="#000000" stroke-linecap="round" stroke-linejoin="round" stroke-miterlimit="10" stroke-width="10.0576"/><path d="    M290.055,78.238c24.782,4.718,47.763,14.494,67.85,28.202" fill="none" stroke="#000000" stroke-linecap="round" stroke-linejoin="round" stroke-miterlimit="10" stroke-width="10.0576"/><path d="    M221.945,78.238V24.029c0-2.775,2.253-5.029,5.029-5.029h58.053c2.775,0,5.027,2.253,5.027,5.029v54.209" fill="none" stroke="#000000" stroke-linecap="round" stroke-linejoin="round" stroke-miterlimit="10" stroke-width="10.0576"/><path d="    M290.055,433.755v55.216c0,2.776-2.252,5.029-5.027,5.029h-58.053c-2.776,0-5.029-2.253-5.029-5.029v-55.216" fill="none" stroke="#000000" stroke-linecap="round" stroke-linejoin="round" stroke-miterlimit="10" stroke-width="10.0576"/><path d="    M357.904,106.44l38.398-38.4c1.963-1.961,5.151-1.961,7.112,0l41.044,41.045c1.961,1.961,1.961,5.15,0,7.111l-38.501,38.5" fill="none" stroke="#000000" stroke-linecap="round" stroke-linejoin="round" stroke-miterlimit="10" stroke-width="10.0576"/><path d="    M154.699,405.955l-39.003,39.004c-1.961,1.961-5.149,1.961-7.111,0l-41.045-41.044c-1.961-1.961-1.961-5.149,0-7.112    l38.903-38.901" fill="none" stroke="#000000" stroke-linecap="round" stroke-linejoin="round" stroke-miterlimit="10" stroke-width="10.0576"/><path d="    M405.556,357.901l38.903,38.901c1.961,1.963,1.961,5.151,0,7.112l-41.044,41.044c-1.961,1.961-5.149,1.961-7.112,0l-39.004-39.004    " fill="none" stroke="#000000" stroke-linecap="round" stroke-linejoin="round" stroke-miterlimit="10" stroke-width="10.0576"/><path d="    M154.097,106.44l-38.401-38.4c-1.961-1.961-5.149-1.961-7.111,0l-41.045,41.045c-1.961,1.961-1.961,5.15,0,7.111l38.5,38.5" fill="none" stroke="#000000" stroke-linecap="round" stroke-linejoin="round" stroke-miterlimit="10" stroke-width="10.0576"/><path d="    M433.848,222.445h54.623c2.776,0,5.029,2.253,5.029,5.029v58.053c0,2.775-2.253,5.027-5.029,5.027h-54.813" fill="none" stroke="#000000" stroke-linecap="round" stroke-linejoin="round" stroke-miterlimit="10" stroke-width="10.0576"/><path d="    M78.342,290.555H23.529c-2.775,0-5.029-2.252-5.029-5.027v-58.053c0-2.776,2.253-5.029,5.029-5.029h54.623" fill="none" stroke="#000000" stroke-linecap="round" stroke-linejoin="round" stroke-miterlimit="10" stroke-width="10.0576"/></g></svg>