<?xml version="1.0" encoding="utf-8"?>
<!-- Generator: Adobe Illustrator 19.0.0, SVG Export Plug-In . SVG Version: 6.00 Build 0)  -->
<svg version="1.1" id="Layer_1" xmlns="http://www.w3.org/2000/svg" xmlns:xlink="http://www.w3.org/1999/xlink" x="0px" y="0px"
	 viewBox="-520.6 401.5 84.8 84.8" style="enable-background:new -520.6 401.5 84.8 84.8;" xml:space="preserve">
<style type="text/css">
	.st0{fill:none;stroke:#000000;stroke-miterlimit:10;}
</style>
<ellipse class="st0" cx="-478.2" cy="443.9" rx="41.9" ry="41.9"/>
<g>
	<g>
		<path class="st0" d="M-490.2,445.7c-1.2,0.6-2.2-1.2-1-1.9c12-7.3,25.2-14.4,27.5-12.3c3.3,3.1-7.3,17.9-27.5,37.3
			c-1.1,1.1-2.7-0.5-1.7-1.6c9.3-10.4,18.7-21.8,18.7-25.5C-474.3,439-481.8,441.7-490.2,445.7z"/>
	</g>
	<g>
		<path class="st0" d="M-469.3,429.3c2.8-0.6,4.5-3.2,4-6c-0.5-2.8-3.2-4.5-6-4c-2.8,0.6-4.5,3.2-4,6
			C-474.7,428.1-472,429.9-469.3,429.3z"/>
	</g>
</g>
</svg>
