<?xml version="1.0" encoding="utf-8"?>
<!-- Generator: Adobe Illustrator 22.0.0, SVG Export Plug-In . SVG Version: 6.00 Build 0)  -->
<svg version="1.1" id="Layer_2" xmlns="http://www.w3.org/2000/svg" xmlns:xlink="http://www.w3.org/1999/xlink" x="0px" y="0px"
	 viewBox="0 0 792 249" style="enable-background:new 0 0 792 249;" xml:space="preserve">
<style type="text/css">
	.st0{fill:#F26722;}
</style>
<g>
	<g>
		<g>
			<path class="st0" d="M71.7,222.3c-11,0.3-15.2-8.3-2.7-25.6c25.2-35.1,52.7-68.5,82.6-99.8c3.3-3.4,6.7-6.8,10.3-9.8
				c4.1-3.4,9.4-2.6,13,1.6c4,4.7,4,9,0,13c-46.9,48-30.3,36.3-78.4,94.1C94.7,198.6,85.4,211.7,71.7,222.3z"/>
			<path class="st0" d="M190.8,52c7-0.2,12.4,5,12.6,12c0.1,6.4-5.2,12.1-11.7,12.4c-6.9,0.3-12.5-4.9-12.7-11.8
				C178.6,57.6,183.8,52.1,190.8,52z"/>
			<path class="st0" d="M435.4,103.4c-6.3-0.4-12,1.4-17.2,4.6c-2.7,1.6-4.7,1.9-7.5-0.1c-4.1-2.9-7.2-2.1-10.4,1.7
				c-7.8,9.5-15.5,19-23.4,28.4c-11.1,13.2-23.3,25.4-37.4,35.3c-2.7,1.9-5.9,3-8.9,4.5c-0.3-0.4-0.7-0.9-1-1.3
				c1.5-5.4,5.3-9.4,8.9-13.4c8.7-9.7,17.7-19.2,26.3-29c2.6-2.9,4.7-6.4,6.5-10c2.7-5.4,3.4-11.1-0.5-16.2
				c-4.2-5.4-10.4-6.9-16.4-5.2c-7.9,2.2-15.4,5.9-23.2,9.1c-4.5-8.5-7.8-10.8-18.2-8.7c-7.3,1.5-14.2,4.9-21.5,7.5
				c-6-8.1-9.9-8.4-17.3-0.5c-4,4.3-8.3,8.5-11.9,13.1c-12,15.1-24.7,29.6-39,42.5c-4,3.6-8.4,6.8-12.8,9.9c-1,0.7-2.6,0.5-3.9,0.7
				c-0.2-1.5-0.7-3-0.4-4.4c0.4-1.8,1.2-3.7,2.2-5.2c5.3-7.7,10.3-15.7,16.2-22.9c6.7-8.1,14.2-15.5,21.3-23.2
				c4.2-4.5,4-9.3-0.5-13.9c-3.8-3.9-7.9-3.6-12.4,0.9c-2.1,2.1-4.1,4.5-6.2,6.7c-13.6,14.5-26.9,29.4-41,43.4
				c-6.7,6.7-15,11.8-22.7,17.4c-1.6,1.1-3.8,1.3-6.6,2.2c1.3-8.3,5.4-13.7,9.6-18.6c11.1-12.9,22.7-25.5,33.9-38.2
				c1.4-1.6,2.7-3.6,3-5.7c0.7-4.4-1.4-7.7-5.3-9.8c-3.8-2.1-7.2-1.1-9.9,1.9c-11,11.9-22.5,23.5-32.6,36.2
				c-5.9,7.4-10.2,16.4-14,25.2c-2.8,6.6-2.4,14,3.6,19.4c5.8,5.2,12.8,6,19.7,2.9c6.6-3.1,12.6-7.2,18.9-10.9
				c1.4-0.8,2.7-1.8,4.4-3c1.2,13.5,15.7,21.3,32.7,11c1.2-0.7,38.1-38,62-56.7c6.1-4.8,12.7-7.8,15.7-9.6c3.1-1.9,9-1.6,12.4-3.1
				c0.2,0.4,0.5,0.8,0.7,1.2c-1.5,2-3,4-4.6,5.9c-11.9,14.3-24,28.5-35.6,43c-5.1,6.5-4.7,10.9-0.2,14.1c5.3,3.7,10.4,2.5,15.1-3.5
				c5.3-6.8,10.5-13.6,16.1-20.2c11.9-14,24.9-26.9,40.8-36.4c3.2-2,7-3,10.6-4.4c0.3,0.5,0.6,1,0.9,1.4c-1.3,1.5-2.5,3.1-3.8,4.6
				c-7.3,7.6-14.8,14.9-21.9,22.7c-7.1,7.8-13.7,16-16.2,26.6c-2.6,11.2,3.9,19.7,15.4,19.9c0.8,0,1.7,0,3.3,0
				c-2,2.5-3.6,4.3-4.9,6.2c-12.4,17.1-11.1,18.1-23.4,35.3c-3.4,4.8-2.1,9.3,2.7,12.2c5.2,3.2,9.5,2.3,12.8-2.5
				c6.9-9.8,31.1-43.4,43.3-58.5c7.5,6.7,13.4,9,21.3,7.3c5.2-1.1,10.5-2.7,15.3-5c16.7-8.1,29.7-20.6,40.8-35.3
				c6.6-8.7,12.3-17.7,13.5-29C453.6,112.3,446.7,104.1,435.4,103.4z M430.9,131.5c-10.9,16.9-24.6,31.2-41.6,42.1
				c-3.1,2-6.8,3.3-10.4,4.3c-1.3,0.4-4-0.4-4.5-1.4c-0.7-1.3-0.4-3.9,0.5-5.1c13.9-17.7,28.6-34.7,46.7-48.3c2.6-2,5.7-3.4,8.8-4.5
				c2.8-1,4.7,0.4,4.9,3.9C433.8,125.6,432.7,128.8,430.9,131.5z"/>
			<path class="st0" d="M699,139.4c-10,9.2-40.7,39.7-48.9,38.6c-8.2-1.1-1.9-8.9-0.6-11.4c1.5-3,3.2-6,5.2-8.6
				c9-11.8,18.6-23.2,28.1-34.7c2.1-2.6,2.8-6.1,1.4-9.1c-1.8-3.8-6.1-5-9.9-6.2c-3.8-1.2-7.8-2.2-11.7-3.2c0.9-3.1,1.8-5.3,2.2-7.6
				c1.2-6.9-5.4-12.8-11.8-10.8c-4.8,1.6-7.9,5.4-7.6,9.9c0.4,6.9-3.7,10.7-7.5,15.1c-3,3.5-6,7-9.1,10.5
				c-15.2,17.5-30.1,35.1-48.1,49.8c-3.6,2.9-7.6,5.4-11.5,8.1c-0.4-0.4-0.9-0.8-1.3-1.1c0.2-1.5,0.1-3.2,0.7-4.5
				c2.4-5.1,4.5-10.7,7.9-15.1c7.6-10.2,15.9-19.9,24.1-29.6c4.4-5.3,3.9-10.3-2-13.9c-1.9-1.1-4.1-1.6-6.2-2.2
				c-3.8-1.1-7.7-2.1-11.4-3.1c0.9-3.2,1.8-5.4,2.2-7.8c0.7-4.7-1.7-8.7-5.8-10.3c-4.2-1.7-8.6-0.4-11.2,3.7c-1.3,2.1-2.6,4.7-2.4,7
				c0.4,5.4-2.3,9-5.6,12.5c-10.2,10.8-19.9,22-30.5,32.3c-10.8,10.6-22.7,20-36.4,26.8c-6.1,3-12.3,5.2-19.3,4.2
				c-4-0.6-8.1-2.2-8.7-6.2c-0.6-3.8,0.9-7.9,1.7-11.9c0.1-0.4,1.9-0.9,2.7-0.7c13.8,3.9,26.2-0.2,37.8-7
				c11.3-6.6,20.8-15.4,25.7-27.9c3.9-9.8-0.1-17.8-10.4-19.7c-5.3-1-11.1-0.5-16.4,0.7c-16.7,3.9-29.8,14-41.5,25.9
				c-8.1,8.3-14.6,17.6-17.5,29.1c-4.5,17.4,5.2,31.5,23.1,33.2c11.2,1.1,21.4-2.4,31.2-7c18.2-8.6,32.4-22.5,46.5-36.3
				c9.2-9,17.6-18.9,26.5-28.5l6.6,3.6c-3.5,4.5-6.8,8.6-10,12.7c-7.4,9.2-14.6,18.5-17.8,30.1c-2.1,7.6-2.2,15,3.8,20.9
				c5.4,5.3,12.2,5.9,19.1,3.7c3.6-1.1,7.4-2.7,10-5.2c13.9-13.1,27.7-26.4,41-40c9.9-10.1,19-21,28.4-31.4l7,3.8
				c-5.5,7-10.7,13.8-16,20.5c-7.5,9.5-14.6,19.3-17.1,31.5c-3.1,14.8,8.4,25.9,22.9,21.4c5.5-1.7,11-4.7,15.2-8.5
				c0,0,28.6-31.8,37.5-41.4C706.2,140.9,702,136.6,699,139.4z M515.5,119c0.5,11.6-24,28.3-40.1,26.7
				C487.4,133.7,499.4,123.6,515.5,119z"/>
			<g>
				<path class="st0" d="M8.9,238.7c38,6.1,71.3-12.5,86-48c4.8-11.5-11.8-11.6-19.7-2.1c-10.8,12.9-14.3,18.3-25.6,24.3
					C37.9,219,27.5,222.1,14,220C1.8,218-3.4,236.7,8.9,238.7L8.9,238.7z"/>
			</g>
		</g>
	</g>
	<g>
		<path class="st0" d="M715.3,70.8c-3.3,1.6-5.8-3.2-2.7-5.1c32.2-19.5,67.5-38.7,73.7-32.8c8.8,8.4-19.6,47.8-73.6,99.9
			c-2.9,2.8-7.3-1.3-4.6-4.4c24.8-27.8,49.9-58.4,49.9-68.3C758,52.8,737.7,60.3,715.3,70.8z"/>
		<path class="st0" d="M771.3,27c7.4-1.5,12.2-8.7,10.7-16.1c-1.5-7.4-8.7-12.2-16.1-10.7c-7.4,1.5-12.2,8.7-10.7,16.1
			C756.8,23.7,764,28.5,771.3,27z"/>
	</g>
</g>
</svg>
