<?xml version="1.0" encoding="utf-8"?>
<!-- Generator: Adobe Illustrator 22.0.0, SVG Export Plug-In . SVG Version: 6.00 Build 0)  -->
<svg version="1.1" id="Layer_1" xmlns="http://www.w3.org/2000/svg" xmlns:xlink="http://www.w3.org/1999/xlink" x="0px" y="0px"
	 viewBox="0 0 1366 111.4" style="enable-background:new 0 0 1366 111.4;" xml:space="preserve">
<style type="text/css">
	.st0{fill:#EC501D;}
</style>
<path class="st0" d="M1366,3.4c0,36,0,72,0,108c-455.3,0-910.7,0-1366,0C0,77,0,42.7,0,8.4c1.5,0,3,0.1,4.5,0
	C32.2,6.2,59.8,3.2,87.6,2C137.7-0.3,187.9-0.8,238,2.4c47.9,3,95.7,6.3,143.5,10c50.6,4,101.2,8.8,151.8,12.9
	c52.4,4.2,104.9,8.7,157.4,11.9c51.4,3.1,102.8,5.7,154.2,6.9c87.3,2,174.5,0.9,261.4-10.4c45.2-5.9,90.4-12.1,135.7-17.4
	C1283.2,11.5,1324.6,7.7,1366,3.4z"/>
</svg>
