<?xml version="1.0" encoding="utf-8"?>
<!-- Generator: Adobe Illustrator 22.0.0, SVG Export Plug-In . SVG Version: 6.00 Build 0)  -->
<svg version="1.1" id="Layer_1" xmlns="http://www.w3.org/2000/svg" xmlns:xlink="http://www.w3.org/1999/xlink" x="0px" y="0px"
	 viewBox="0 0 1283.8 584.5" style="enable-background:new 0 0 1283.8 584.5;" xml:space="preserve">
<style type="text/css">
	.st0{fill:#EC501D;}
</style>
<path class="st0" d="M1284,3c0,194,0,388,0,582c-428,0-856,0-1284,0c0.1-2.3,0.3-4.6,0.3-7c0-180.8,0-361.6,0-542.5
	c0-1.3,0.2-2.7,0-4c-0.5-3.3,1-4.8,4-5.8c5.2-1.8,10.2-4,15.4-5.7C56.2,8,94,3.9,132.1,1.3c40.8-2.7,81.2,0.3,121.5,6.1
	c57.8,8.4,114.9,20.9,172,33.2C515.4,60,605.1,80.2,696.5,90.2c35.5,3.9,71.3,6,107.1,7.8c18.8,1,37.6-0.6,56.4-0.7
	c35-0.1,69.4-4.9,103.4-12.7c45.2-10.3,88.9-25.3,132.8-40c38.7-12.9,77.4-25.7,117.4-33.9C1236.8,6,1260.2,2.5,1284,3z"/>
</svg>
