<svg height="448pt" viewBox="-3 0 447 448" width="448pt" xmlns="http://www.w3.org/2000/svg"><path d="m397.394531 392h-25.789062l12.894531 38.703125zm0 0"/><path d="m368.5 72h32v304h-32zm0 0"/><path d="m368.5 0h32v56h-32zm0 0"/><path d="m224.5 80h68.6875l-68.6875-68.6875zm0 0"/><path d="m.5 0v448h304v-352h-88c-4.417969 0-8-3.582031-8-8v-88zm264 304h-224.214844c-4.417968 0-8-3.582031-8-8s3.582032-8 8-8h224.214844c4.417969 0 8 3.582031 8 8s-3.582031 8-8 8zm0-48h-224.214844c-4.417968 0-8-3.582031-8-8s3.582032-8 8-8h224.214844c4.417969 0 8 3.582031 8 8s-3.582031 8-8 8zm0-48h-224.214844c-4.417968 0-8-3.582031-8-8s3.582032-8 8-8h224.214844c4.417969 0 8 3.582031 8 8s-3.582031 8-8 8zm0-64c4.417969 0 8 3.582031 8 8s-3.582031 8-8 8h-224.214844c-4.417968 0-8-3.582031-8-8s3.582032-8 8-8zm0 0"/><path d="m432.5 56h-32v16h24v120c0 4.417969 3.582031 8 8 8s8-3.582031 8-8v-128c0-4.417969-3.582031-8-8-8zm0 0"/></svg>