<svg height="448pt" viewBox="0 -64 448 448" width="448pt" xmlns="http://www.w3.org/2000/svg"><path d="m88 320h352c4.417969 0 8-3.582031 8-8v-224c0-4.417969-3.582031-8-8-8h-16v192c0 13.253906-10.746094 24-24 24h-320v16c0 4.417969 3.582031 8 8 8zm0 0"/><path d="m0 232c0 4.417969 3.582031 8 8 8h352c4.417969 0 8-3.582031 8-8v-224c0-4.417969-3.582031-8-8-8h-296v32c0 13.253906-10.746094 24-24 24h-40zm128 0h-16v-16h16zm32 0h-16v-16h16zm32 0h-16v-16h16zm32 0h-16v-16h16zm32 0h-16v-16h16zm32 0h-16v-16h16zm0-128h-48v-16h48zm48 112h16v16h-16zm-32 0h16v16h-16zm-80-160h64v16h-64zm-144 0h128v16h-128zm0 32h144v16h-144zm0 32h208v16h-208zm0 32h208v16h-208zm0 64h16v16h-16zm-32 0h16v16h-16zm-32 0h16v16h-16zm0 0"/><path d="m48 32v-22.398438l-34.703125 30.398438h26.703125c4.417969 0 8-3.582031 8-8zm0 0"/><path d="m48 280h352c4.417969 0 8-3.582031 8-8v-224c0-4.417969-3.582031-8-8-8h-16v192c0 13.253906-10.746094 24-24 24h-320v16c0 4.417969 3.582031 8 8 8zm0 0"/></svg>