<?xml version="1.0" encoding="utf-8"?>
<!-- Generator: Adobe Illustrator 22.0.0, SVG Export Plug-In . SVG Version: 6.00 Build 0)  -->
<svg version="1.1" id="Layer_1" xmlns="http://www.w3.org/2000/svg" xmlns:xlink="http://www.w3.org/1999/xlink" x="0px" y="0px"
	 viewBox="0 0 50 50" style="enable-background:new 0 0 50 50;" xml:space="preserve">
<style type="text/css">
	.st0{fill:#FFFFFF;}
</style>
<g id="Layer_1_1_">
	<path class="st0" d="M26,3V1h-2v2H3H1v2h2v26H1v2h2h17.5L14,47.8V49h2v-0.8L22.7,33H24v16h2V33h1.3L34,48.2V49h2v-1.2L29.5,33H47h2
		v-2h-2V5h2V3h-2H26z M45,31H5V5h40V31z"/>
	<rect x="28" y="15" class="st0" width="2" height="13"/>
	<rect x="23" y="20" class="st0" width="2" height="8"/>
	<rect x="18" y="24" class="st0" width="2" height="4"/>
	<rect x="13" y="20" class="st0" width="2" height="8"/>
	<rect x="8" y="25" class="st0" width="2" height="3"/>
	<polygon class="st0" points="14,15.4 19,20.4 29.7,9.7 28.3,8.3 19,17.6 14,12.6 7.3,19.3 8.7,20.7 	"/>
	<rect x="33" y="8" class="st0" width="9" height="2"/>
	<rect x="33" y="13" class="st0" width="9" height="2"/>
</g>
</svg>
