<?xml version="1.0" encoding="utf-8"?>
<!-- Generator: Adobe Illustrator 22.0.0, SVG Export Plug-In . SVG Version: 6.00 Build 0)  -->
<svg version="1.1" id="Layer_1" xmlns="http://www.w3.org/2000/svg" xmlns:xlink="http://www.w3.org/1999/xlink" x="0px" y="0px"
	 viewBox="0 0 50 50" style="enable-background:new 0 0 50 50;" xml:space="preserve">
<style type="text/css">
	.st0{fill:#FFFFFF;}
</style>
<g id="Layer_1_1_">
	<polygon class="st0" points="27.9,36.9 22.3,42.5 27.9,48 29.3,46.7 26.1,43.4 42.3,43.4 42.3,30.7 40.4,30.7 40.4,41.5 26.1,41.5 
		29.3,38.3 	"/>
	<polygon class="st0" points="1.9,30.4 5.1,27.2 5.1,43.4 17.9,43.4 17.9,41.5 7.1,41.5 7.1,27.2 10.3,30.4 11.7,29 6.1,23.5 
		0.5,29 	"/>
	<polygon class="st0" points="5.1,19 7.1,19 7.1,8.2 21.4,8.2 18.1,11.4 19.5,12.8 25.1,7.2 19.5,1.6 18.1,3 21.4,6.3 5.1,6.3 	"/>
	<polygon class="st0" points="29.6,6.3 29.6,8.2 40.4,8.2 40.4,22.5 37.1,19.3 35.8,20.6 41.3,26.2 46.9,20.6 45.5,19.3 42.3,22.5 
		42.3,6.3 	"/>
</g>
</svg>
