<?xml version="1.0" encoding="utf-8"?>
<!-- Generator: Adobe Illustrator 22.0.0, SVG Export Plug-In . SVG Version: 6.00 Build 0)  -->
<svg version="1.1" id="Layer_1" xmlns="http://www.w3.org/2000/svg" xmlns:xlink="http://www.w3.org/1999/xlink" x="0px" y="0px"
	 viewBox="0 0 107.4 77" style="enable-background:new 0 0 107.4 77;" xml:space="preserve">
<style type="text/css">
	.st0{fill:#fff;}
	.st1{fill:none;stroke:#fff;stroke-miterlimit:10;}
	.st2{fill:#fff;stroke:#fff;stroke-width:0.25;stroke-miterlimit:10;}
	.st3{fill:none;}
	.st4{font-family:'MyriadPro-Bold';}
	.st5{font-size:18px;}
</style>
<g>
	<path class="st0" d="M47.1,25.2c0-0.4,0.1-0.8,0.2-1.1c0.1-0.4,0.3-0.7,0.6-0.9c0.3-0.3,0.6-0.5,0.9-0.7c0.4-0.2,0.8-0.3,1.3-0.3
		c0.6,0,1,0.1,1.4,0.4c0.4,0.3,0.7,0.6,0.9,0.9l-0.8,0.5c-0.1-0.2-0.2-0.3-0.3-0.4c-0.1-0.1-0.3-0.3-0.4-0.3
		c-0.1-0.1-0.3-0.1-0.4-0.2c-0.1,0-0.3-0.1-0.4-0.1c-0.3,0-0.6,0.1-0.8,0.2c-0.3,0.1-0.4,0.3-0.6,0.5c-0.2,0.2-0.3,0.4-0.4,0.7
		c-0.1,0.3-0.1,0.5-0.1,0.8c0,0.3,0.1,0.6,0.1,0.8c0.1,0.3,0.3,0.5,0.4,0.7c0.2,0.2,0.4,0.4,0.6,0.5c0.3,0.1,0.5,0.2,0.8,0.2
		c0.1,0,0.3,0,0.4-0.1c0.1-0.1,0.3-0.1,0.4-0.2s0.3-0.2,0.4-0.3c0.1-0.1,0.3-0.3,0.3-0.4l0.8,0.4c-0.1,0.3-0.3,0.4-0.4,0.6
		c-0.1,0.2-0.4,0.3-0.6,0.4c-0.2,0.1-0.4,0.2-0.7,0.3c-0.3,0.1-0.5,0.1-0.8,0.1c-0.4,0-0.8-0.1-1.2-0.3c-0.4-0.2-0.6-0.4-0.9-0.7
		c-0.3-0.3-0.4-0.6-0.6-1C47.2,26,47.1,25.6,47.1,25.2z"/>
	<path class="st0" d="M55,28.3v-6.1h2.7c0.3,0,0.5,0.1,0.8,0.2c0.3,0.1,0.4,0.3,0.6,0.4c0.2,0.2,0.3,0.4,0.4,0.6
		c0.1,0.3,0.1,0.5,0.1,0.7c0,0.2,0,0.4-0.1,0.6c-0.1,0.2-0.1,0.4-0.3,0.5c-0.1,0.2-0.3,0.3-0.4,0.4c-0.1,0.1-0.3,0.2-0.5,0.3
		l1.5,2.3h-1.1l-1.3-2.1H56v2.1H55z M56,25.4h1.7c0.1,0,0.3,0,0.4-0.1s0.2-0.1,0.3-0.3c0.1-0.1,0.1-0.3,0.2-0.4
		c0.1-0.1,0.1-0.3,0.1-0.4c0-0.1,0-0.3-0.1-0.4c-0.1-0.1-0.1-0.3-0.2-0.4c-0.1-0.1-0.2-0.2-0.3-0.3c-0.1-0.1-0.3-0.1-0.4-0.1H56
		L56,25.4L56,25.4z"/>
	<path class="st0" d="M67.6,28.3V24l-1.8,3.3h-0.5L63.4,24v4.4h-0.9v-6.1h1l2,3.7l2-3.7h1v6.1H67.6z"/>
</g>
<path class="st0" d="M0.1,70.3c0-0.8,0.1-1.5,0.4-2.3s0.7-1.4,1.2-2s1.2-1.1,1.9-1.5c0.8-0.4,1.6-0.6,2.6-0.6c1.2,0,2.1,0.3,3,0.8
	c0.8,0.5,1.4,1.2,1.9,2l-1.6,1.1c-0.2-0.4-0.4-0.7-0.6-1s-0.5-0.5-0.8-0.6c-0.3-0.2-0.6-0.3-0.9-0.3s-0.7-0.1-1-0.1
	c-0.7,0-1.3,0.1-1.8,0.4s-0.9,0.6-1.3,1.1c-0.3,0.4-0.6,0.9-0.8,1.5s-0.1,1-0.1,1.6s0.1,1.2,0.3,1.8c0.2,0.6,0.5,1.1,0.9,1.5
	s0.8,0.8,1.3,1c0.5,0.3,1,0.4,1.6,0.4c0.3,0,0.6,0,1-0.1c0.3-0.1,0.6-0.2,0.9-0.4c0.3-0.2,0.6-0.4,0.8-0.7c0.3-0.3,0.5-0.6,0.6-0.9
	l1.7,0.9c-0.2,0.5-0.5,0.9-0.9,1.3s-0.8,0.7-1.3,0.9c-0.5,0.3-1,0.4-1.5,0.6c-0.5,0.1-1,0.2-1.5,0.2c-0.9,0-1.7-0.2-2.5-0.6
	c-0.7-0.4-1.4-0.9-1.9-1.5s-1-1.3-1.3-2.1C0.3,71.9,0.1,71.1,0.1,70.3z"/>
<path class="st0" d="M27.4,76.7v-9.1l-3.8,6.9h-1.1l-3.8-6.9v9.1h-2V64h2.1l4.2,7.8l4.2-7.8h2.1v12.7C29.3,76.7,27.4,76.7,27.4,76.7
	z"/>
<path class="st0" d="M43.4,67c-0.1-0.1-0.3-0.3-0.5-0.4s-0.5-0.3-0.8-0.4s-0.6-0.2-1-0.3c-0.4-0.1-0.7-0.1-1.1-0.1
	c-0.8,0-1.5,0.2-1.9,0.5s-0.6,0.7-0.6,1.3c0,0.3,0.1,0.6,0.2,0.8c0.1,0.2,0.3,0.4,0.6,0.5s0.6,0.3,1,0.4s0.9,0.2,1.4,0.4
	c0.6,0.2,1.2,0.3,1.7,0.5s1,0.4,1.3,0.7c0.4,0.3,0.6,0.6,0.8,1c0.2,0.4,0.3,0.9,0.3,1.5s-0.1,1.2-0.4,1.7c-0.2,0.5-0.6,0.8-1,1.1
	c-0.4,0.3-0.9,0.5-1.5,0.6S40.7,77,40.1,77c-1,0-1.9-0.1-2.8-0.4c-0.9-0.3-1.7-0.7-2.4-1.3l0.9-1.7c0.2,0.2,0.4,0.3,0.7,0.5
	s0.6,0.4,1,0.5s0.8,0.3,1.3,0.4s0.9,0.2,1.4,0.2c0.8,0,1.4-0.1,1.8-0.4s0.6-0.7,0.6-1.2c0-0.3-0.1-0.6-0.2-0.8s-0.4-0.4-0.7-0.6
	s-0.7-0.3-1.1-0.4c-0.4-0.1-0.9-0.3-1.5-0.4c-0.6-0.2-1.2-0.3-1.7-0.5s-0.9-0.4-1.2-0.7c-0.3-0.3-0.5-0.6-0.7-0.9s-0.2-0.8-0.2-1.3
	c0-0.6,0.1-1.2,0.4-1.7c0.2-0.5,0.6-0.9,1-1.2c0.4-0.3,0.9-0.6,1.5-0.7c0.6-0.2,1.2-0.2,1.8-0.2c0.9,0,1.7,0.1,2.4,0.4
	s1.4,0.6,1.9,1L43.4,67z"/>
<path class="st0" d="M62.7,70.3c0-0.8,0.1-1.5,0.4-2.3s0.7-1.4,1.2-2c0.5-0.6,1.2-1.1,1.9-1.5c0.8-0.4,1.6-0.6,2.6-0.6
	c1.2,0,2.1,0.3,3,0.8c0.8,0.5,1.4,1.2,1.9,2l-1.6,1.1c-0.2-0.4-0.4-0.7-0.6-1s-0.5-0.5-0.8-0.6c-0.3-0.2-0.6-0.3-0.9-0.3
	s-0.6-0.1-0.9-0.1c-0.7,0-1.3,0.1-1.8,0.4s-0.9,0.6-1.3,1.1c-0.3,0.4-0.6,0.9-0.8,1.5s-0.3,1.1-0.3,1.6c0,0.6,0.1,1.2,0.3,1.8
	c0.2,0.6,0.5,1.1,0.9,1.5s0.8,0.8,1.3,1c0.5,0.3,1,0.4,1.6,0.4c0.3,0,0.6,0,1-0.1c0.3-0.1,0.6-0.2,0.9-0.4c0.3-0.2,0.6-0.4,0.8-0.7
	c0.3-0.3,0.5-0.6,0.6-0.9l1.7,0.9c-0.2,0.5-0.5,0.9-0.9,1.3s-0.8,0.7-1.3,0.9c-0.5,0.3-1,0.4-1.5,0.6c-0.5,0.1-1,0.2-1.5,0.2
	c-0.9,0-1.7-0.2-2.5-0.6c-0.7-0.4-1.4-0.9-1.9-1.5c-0.5-0.6-1-1.3-1.3-2.1C62.9,71.9,62.7,71.1,62.7,70.3z"/>
<path class="st0" d="M79.4,76.7V64h5.5c0.6,0,1.1,0.1,1.6,0.4c0.5,0.2,0.9,0.6,1.2,0.9c0.3,0.4,0.6,0.8,0.8,1.3
	c0.2,0.5,0.3,1,0.3,1.5c0,0.4-0.1,0.8-0.2,1.2c-0.1,0.4-0.3,0.8-0.5,1.1c-0.2,0.3-0.5,0.6-0.8,0.9c-0.3,0.2-0.7,0.4-1,0.5l3,4.8H87
	l-2.8-4.4h-2.9v4.4L79.4,76.7L79.4,76.7z M81.4,70.5h3.5c0.3,0,0.5-0.1,0.8-0.2s0.4-0.3,0.6-0.5s0.3-0.5,0.4-0.8s0.1-0.6,0.1-0.9
	s-0.1-0.6-0.2-0.9s-0.3-0.5-0.4-0.8c-0.2-0.2-0.4-0.4-0.6-0.5s-0.5-0.2-0.8-0.2h-3.4V70.5z"/>
<path class="st0" d="M105.4,76.7v-9.1l-3.8,6.9h-1.1l-3.8-6.9v9.1h-2V64h2.1l4.2,7.8l4.2-7.8h2.1v12.7
	C107.3,76.7,105.4,76.7,105.4,76.7z"/>
<rect x="36.1" y="14.8" class="st1" width="37" height="21.7"/>
<line class="st1" x1="44.2" y1="14.9" x2="44.2" y2="36.5"/>
<g>
	<path class="st0" d="M42.2,18.1h-4.1c-0.2,0-0.3-0.1-0.3-0.3v-0.3c0-0.2,0.1-0.3,0.3-0.3h4.1c0.2,0,0.3,0.1,0.3,0.3v0.3
		C42.5,18,42.4,18.1,42.2,18.1z"/>
</g>
<g>
	<path class="st0" d="M42.2,23.5h-4.1c-0.2,0-0.3-0.1-0.3-0.3v-0.3c0-0.2,0.1-0.3,0.3-0.3h4.1c0.2,0,0.3,0.1,0.3,0.3v0.3
		C42.5,23.3,42.4,23.5,42.2,23.5z"/>
</g>
<g>
	<path class="st0" d="M42.3,28.8h-4.1c-0.2,0-0.3-0.1-0.3-0.3v-0.3c0-0.2,0.1-0.3,0.3-0.3h4.1c0.2,0,0.3,0.1,0.3,0.3v0.3
		C42.6,28.6,42.4,28.8,42.3,28.8z"/>
</g>
<g>
	<path class="st0" d="M42.2,34.3h-4.1c-0.2,0-0.3-0.1-0.3-0.3v-0.4c0-0.2,0.1-0.3,0.3-0.3h4.1c0.2,0,0.3,0.1,0.3,0.3V34
		C42.5,34.1,42.4,34.3,42.2,34.3z"/>
</g>
<g>
	<path class="st0" d="M54.6,51c-14,0-25.5-11.4-25.5-25.5S40.5,0,54.6,0s25.5,11.4,25.5,25.5S68.6,51,54.6,51z M54.6,1.1
		c-13.5,0-24.4,11-24.4,24.4s11,24.4,24.4,24.4S79,38.9,79,25.5S68,1.1,54.6,1.1z"/>
</g>
<g>
	<path class="st0" d="M535.5,52.1c-14,0-25.5-11.4-25.5-25.5s11.4-25.5,25.5-25.5c14.1,0,25.5,11.4,25.5,25.5S549.5,52.1,535.5,52.1
		z M535.5,2.2c-13.5,0-24.4,11-24.4,24.4s11,24.4,24.4,24.4c13.4,0,24.4-11,24.4-24.4S548.9,2.2,535.5,2.2z"/>
</g>
<g>
	<path class="st0" d="M680.8,52.1c-14,0-25.5-11.4-25.5-25.5s11.4-25.5,25.5-25.5c14.1,0,25.5,11.4,25.5,25.5S694.8,52.1,680.8,52.1
		z M680.8,2.2c-13.5,0-24.4,11-24.4,24.4s11,24.4,24.4,24.4c13.4,0,24.4-11,24.4-24.4S694.2,2.2,680.8,2.2z"/>
</g>
<g>
	<path class="st0" d="M838.8,52.1c-14,0-25.5-11.4-25.5-25.5s11.4-25.5,25.5-25.5c14.1,0,25.5,11.4,25.5,25.5S852.8,52.1,838.8,52.1
		z M838.8,2.2c-13.5,0-24.4,11-24.4,24.4s11,24.4,24.4,24.4c13.4,0,24.4-11,24.4-24.4S852.2,2.2,838.8,2.2z"/>
</g>
<g>
	<path class="st0" d="M501.6,78V65.3h5.5c0.6,0,1.1,0.1,1.6,0.4c0.5,0.2,0.9,0.6,1.2,0.9c0.3,0.4,0.6,0.8,0.8,1.3
		c0.2,0.5,0.3,1,0.3,1.5c0,0.4-0.1,0.8-0.2,1.2c-0.1,0.4-0.3,0.8-0.5,1.1c-0.2,0.3-0.5,0.6-0.8,0.9c-0.3,0.2-0.7,0.4-1,0.5l3,4.8
		h-2.3l-2.8-4.4h-2.9v4.4L501.6,78L501.6,78z M503.6,71.8h3.5c0.3,0,0.5-0.1,0.8-0.2s0.4-0.3,0.6-0.5c0.2-0.2,0.3-0.5,0.4-0.8
		s0.1-0.6,0.1-0.9s-0.1-0.6-0.2-0.9s-0.3-0.5-0.4-0.8c-0.2-0.2-0.4-0.4-0.6-0.5c-0.2-0.1-0.5-0.2-0.8-0.2h-3.4
		C503.6,67,503.6,71.8,503.6,71.8z"/>
	<path class="st0" d="M525.8,76.2V78h-8.7V65.3h8.6v1.8h-6.5v3.5h5.7v1.7h-5.7v3.9H525.8z"/>
	<path class="st0" d="M531.4,78V65.3h4.5c1,0,1.9,0.2,2.7,0.5s1.4,0.8,1.9,1.4s0.9,1.2,1.2,2s0.4,1.6,0.4,2.5c0,1-0.1,1.8-0.4,2.6
		s-0.7,1.4-1.2,2s-1.2,1-2,1.3c-0.8,0.3-1.6,0.5-2.6,0.5L531.4,78L531.4,78z M540.1,71.6c0-0.7-0.1-1.3-0.3-1.8
		c-0.2-0.6-0.5-1-0.8-1.4c-0.4-0.4-0.8-0.7-1.3-0.9s-1.1-0.3-1.8-0.3h-2.5v9.2h2.5c0.7,0,1.3-0.1,1.8-0.3c0.5-0.2,1-0.6,1.3-1
		c0.4-0.4,0.6-0.9,0.8-1.5C540,72.9,540.1,72.2,540.1,71.6z"/>
	<path class="st0" d="M556.5,76.2V78h-8.7V65.3h8.6v1.8h-6.5v3.5h5.7v1.7h-5.7v3.9H556.5z"/>
	<path class="st0" d="M569.4,68.2c-0.1-0.1-0.3-0.3-0.5-0.4s-0.5-0.3-0.8-0.4s-0.6-0.2-1-0.3c-0.4-0.1-0.7-0.1-1.1-0.1
		c-0.8,0-1.5,0.2-1.9,0.5c-0.4,0.3-0.6,0.7-0.6,1.3c0,0.3,0.1,0.6,0.2,0.8c0.1,0.2,0.3,0.4,0.6,0.5c0.3,0.1,0.6,0.3,1,0.4
		c0.4,0.1,0.9,0.2,1.4,0.4c0.6,0.2,1.2,0.3,1.7,0.5s1,0.4,1.3,0.7c0.4,0.3,0.6,0.6,0.8,1c0.2,0.4,0.3,0.9,0.3,1.5s-0.1,1.2-0.4,1.7
		c-0.2,0.5-0.6,0.8-1,1.1c-0.4,0.3-0.9,0.5-1.5,0.6s-1.2,0.2-1.8,0.2c-1,0-1.9-0.1-2.8-0.4c-0.9-0.3-1.7-0.7-2.4-1.3l0.9-1.7
		c0.2,0.2,0.4,0.3,0.7,0.5c0.3,0.2,0.6,0.4,1,0.5c0.4,0.1,0.8,0.3,1.3,0.4s0.9,0.2,1.4,0.2c0.8,0,1.4-0.1,1.8-0.4
		c0.4-0.3,0.6-0.7,0.6-1.2c0-0.3-0.1-0.6-0.2-0.8s-0.4-0.4-0.7-0.6s-0.7-0.3-1.1-0.4s-0.9-0.3-1.5-0.4c-0.6-0.2-1.2-0.3-1.7-0.5
		s-0.9-0.4-1.2-0.7c-0.3-0.3-0.5-0.6-0.7-0.9c-0.2-0.3-0.2-0.8-0.2-1.3c0-0.6,0.1-1.2,0.4-1.7c0.2-0.5,0.6-0.9,1-1.2
		c0.4-0.3,0.9-0.6,1.5-0.7c0.6-0.2,1.2-0.2,1.8-0.2c0.9,0,1.7,0.1,2.4,0.4c0.7,0.3,1.4,0.6,1.9,1L569.4,68.2z"/>
</g>
<g>
	<path class="st0" d="M490,89.7c-0.1-0.1-0.3-0.3-0.5-0.4c-0.2-0.1-0.5-0.3-0.8-0.4c-0.3-0.1-0.6-0.2-1-0.3
		c-0.4-0.1-0.7-0.1-1.1-0.1c-0.8,0-1.5,0.2-1.9,0.5s-0.6,0.7-0.6,1.3c0,0.3,0.1,0.6,0.2,0.8c0.1,0.2,0.3,0.4,0.6,0.5
		c0.3,0.1,0.6,0.3,1,0.4s0.9,0.2,1.4,0.4c0.6,0.2,1.2,0.3,1.7,0.5s1,0.4,1.3,0.7c0.4,0.3,0.6,0.6,0.8,1c0.2,0.4,0.3,0.9,0.3,1.5
		s-0.1,1.2-0.4,1.7c-0.2,0.5-0.6,0.8-1,1.1c-0.4,0.3-0.9,0.5-1.5,0.6c-0.6,0.1-1.2,0.2-1.8,0.2c-1,0-1.9-0.1-2.8-0.4
		s-1.7-0.7-2.4-1.3l0.9-1.7c0.2,0.2,0.4,0.3,0.7,0.5c0.3,0.2,0.6,0.4,1,0.5c0.4,0.2,0.8,0.3,1.3,0.4s0.9,0.2,1.4,0.2
		c0.8,0,1.4-0.1,1.8-0.4c0.4-0.3,0.6-0.7,0.6-1.2c0-0.3-0.1-0.6-0.2-0.8c-0.1-0.2-0.4-0.4-0.7-0.6s-0.7-0.3-1.1-0.4
		s-0.9-0.3-1.5-0.4c-0.6-0.2-1.2-0.3-1.7-0.5s-0.9-0.4-1.2-0.7c-0.3-0.3-0.5-0.6-0.7-0.9c-0.2-0.4-0.2-0.8-0.2-1.3
		c0-0.6,0.1-1.2,0.4-1.7c0.2-0.5,0.6-0.9,1-1.2c0.4-0.3,0.9-0.6,1.5-0.7s1.2-0.3,1.8-0.3c0.9,0,1.7,0.1,2.4,0.4
		c0.7,0.3,1.4,0.6,1.9,1L490,89.7z"/>
	<path class="st0" d="M502.3,99.5c-0.9,0-1.7-0.2-2.5-0.5c-0.7-0.4-1.4-0.8-1.9-1.4s-1-1.3-1.2-2.1c-0.3-0.8-0.4-1.6-0.4-2.4
		s0.2-1.7,0.5-2.4c0.3-0.8,0.7-1.5,1.3-2.1c0.6-0.6,1.2-1.1,1.9-1.4c0.7-0.4,1.6-0.5,2.4-0.5c0.9,0,1.7,0.2,2.5,0.6
		c0.7,0.4,1.4,0.9,1.9,1.5s0.9,1.3,1.2,2.1c0.3,0.8,0.4,1.6,0.4,2.4s-0.2,1.7-0.5,2.4c-0.3,0.8-0.7,1.5-1.3,2
		c-0.6,0.5-1.2,1.1-1.9,1.4C503.9,99.4,503.1,99.5,502.3,99.5z M498.2,93.1c0,0.6,0.1,1.2,0.3,1.7c0.2,0.6,0.5,1.1,0.8,1.5
		c0.4,0.4,0.8,0.8,1.3,1c0.5,0.3,1.1,0.4,1.7,0.4s1.2-0.1,1.7-0.4s0.9-0.6,1.3-1.1c0.3-0.4,0.6-0.9,0.8-1.5c0.2-0.6,0.3-1.1,0.3-1.7
		s-0.1-1.2-0.3-1.7c-0.2-0.6-0.5-1-0.8-1.5c-0.4-0.4-0.8-0.8-1.3-1s-1-0.4-1.7-0.4c-0.6,0-1.2,0.1-1.7,0.4s-0.9,0.6-1.3,1
		s-0.6,0.9-0.8,1.5C498.3,91.9,498.2,92.5,498.2,93.1z"/>
	<path class="st0" d="M513.2,93c0-0.8,0.1-1.5,0.4-2.3c0.3-0.8,0.7-1.4,1.2-2s1.2-1.1,1.9-1.5s1.6-0.6,2.6-0.6c1.2,0,2.1,0.3,3,0.8
		c0.9,0.5,1.4,1.2,1.9,2l-1.6,1.1c-0.2-0.4-0.4-0.7-0.6-1c-0.2-0.3-0.5-0.5-0.8-0.6c-0.3-0.2-0.6-0.3-0.9-0.3
		c-0.3-0.1-0.6-0.1-0.9-0.1c-0.7,0-1.3,0.1-1.8,0.4s-0.9,0.6-1.3,1.1c-0.3,0.4-0.6,0.9-0.8,1.5s-0.3,1.1-0.3,1.6
		c0,0.6,0.1,1.2,0.3,1.8s0.5,1.1,0.9,1.5c0.4,0.4,0.8,0.8,1.3,1s1,0.4,1.6,0.4c0.3,0,0.6,0,1-0.1c0.3-0.1,0.6-0.2,0.9-0.4
		c0.3-0.2,0.6-0.4,0.8-0.7c0.3-0.3,0.5-0.6,0.6-0.9l1.7,0.9c-0.2,0.5-0.5,0.9-0.9,1.3c-0.4,0.4-0.8,0.7-1.3,0.9
		c-0.5,0.2-1,0.4-1.5,0.6c-0.5,0.1-1,0.2-1.5,0.2c-0.9,0-1.7-0.2-2.5-0.6c-0.7-0.4-1.4-0.9-1.9-1.5s-1-1.3-1.3-2.1
		C513.4,94.6,513.2,93.8,513.2,93z"/>
	<path class="st0" d="M529.8,99.4V86.7h2v12.7H529.8z"/>
	<path class="st0" d="M542,86.7h1.8l5,12.7h-2.1l-1.3-3.5h-4.9l-1.3,3.5h-2.1L542,86.7z M545,94.5l-2-5.5l-2.1,5.5H545z"/>
	<path class="st0" d="M554,99.4V86.7h2v10.9h6.8v1.8C562.8,99.4,554,99.4,554,99.4z"/>
	<path class="st0" d="M576.7,97.7v1.8H568V86.8h8.6v1.8h-6.5v3.6h5.7v1.7h-5.7v3.9h6.6V97.7z"/>
	<path class="st0" d="M589.6,89.7c-0.1-0.1-0.3-0.3-0.5-0.4c-0.2-0.1-0.5-0.3-0.8-0.4c-0.3-0.1-0.6-0.2-1-0.3
		c-0.4-0.1-0.7-0.1-1.1-0.1c-0.8,0-1.5,0.2-1.9,0.5c-0.4,0.3-0.6,0.7-0.6,1.3c0,0.3,0.1,0.6,0.2,0.8c0.1,0.2,0.3,0.4,0.6,0.5
		s0.6,0.3,1,0.4c0.4,0.1,0.9,0.2,1.4,0.4c0.6,0.2,1.2,0.3,1.7,0.5s1,0.4,1.3,0.7c0.4,0.3,0.6,0.6,0.8,1s0.3,0.9,0.3,1.5
		s-0.1,1.2-0.4,1.7c-0.2,0.5-0.6,0.8-1,1.1c-0.4,0.3-0.9,0.5-1.5,0.6c-0.6,0.1-1.2,0.2-1.8,0.2c-1,0-1.9-0.1-2.8-0.4
		c-0.9-0.3-1.7-0.7-2.4-1.3l0.9-1.7c0.2,0.2,0.4,0.3,0.7,0.5s0.6,0.4,1,0.5c0.4,0.2,0.8,0.3,1.3,0.4s0.9,0.2,1.4,0.2
		c0.8,0,1.4-0.1,1.8-0.4s0.6-0.7,0.6-1.2c0-0.3-0.1-0.6-0.2-0.8c-0.1-0.2-0.4-0.4-0.7-0.6s-0.7-0.3-1.1-0.4
		c-0.4-0.1-0.9-0.3-1.5-0.4c-0.6-0.2-1.2-0.3-1.7-0.5s-0.9-0.4-1.2-0.7c-0.3-0.3-0.5-0.6-0.7-0.9c-0.2-0.4-0.2-0.8-0.2-1.3
		c0-0.6,0.1-1.2,0.4-1.7c0.2-0.5,0.6-0.9,1-1.2c0.4-0.3,0.9-0.6,1.5-0.7c0.6-0.1,1.2-0.3,1.8-0.3c0.9,0,1.7,0.1,2.4,0.4
		c0.7,0.3,1.4,0.6,1.9,1L589.6,89.7z"/>
</g>
<path class="st1" d="M542.3,18.6c-0.1,0-0.9-0.1-1-0.1c-2.3,0-2.6-0.5-2.6-4c-0.1-1.1-0.3-3.1,0.6-4h-13.4v33.2h17.3V18.6
	C543,18.6,542.8,18.6,542.3,18.6z"/>
<circle class="st1" cx="534.8" cy="40.9" r="1.6"/>
<line class="st1" x1="525.7" y1="37.9" x2="543.2" y2="37.9"/>
<circle class="st1" cx="543" cy="14.1" r="2.1"/>
<circle class="st1" cx="545.5" cy="11.4" r="0.3"/>
<g>
	<path class="st1" d="M545.1,18.5H541c-1.3,0-2.2-0.8-2.2-2.1l-0.1-4.4c0-1.3,1.1-2.3,2.3-2.3h4.1c1.3,0,2.3,1.1,2.3,2.3v4.1
		C547.4,17.4,546.4,18.5,545.1,18.5z"/>
</g>
<g id="Icons_1_">
	<path class="st0" d="M537.1,20.6l-0.1,1.6c0,0-0.2,0-0.9,0s-0.7,0.6-0.7,0.6v1.4h1.7l-0.3,1.8h-1.4l-0.1,3.7h-1.7l-0.1-3.6H532
		l0.1-1.8h1.5v-1.3c0-0.5,0.1-1.1,0.4-1.5c0.3-0.4,0.6-0.6,1.1-0.7C535,20.7,536,20.4,537.1,20.6z"/>
</g>
<g>
	<path class="st0" d="M644.1,77.4V65.1h4.4c1,0,1.9,0.2,2.6,0.5c0.7,0.3,1.4,0.8,1.9,1.3c0.5,0.5,0.9,1.2,1.2,2
		c0.3,0.8,0.4,1.6,0.4,2.4c0,0.9-0.2,1.8-0.4,2.5c-0.3,0.8-0.7,1.4-1.2,2c-0.5,0.5-1.2,0.9-1.9,1.2s-1.6,0.5-2.5,0.5L644.1,77.4
		L644.1,77.4z M652.5,71.2c0-0.6-0.1-1.2-0.2-1.8c-0.2-0.5-0.5-1-0.8-1.4c-0.3-0.4-0.8-0.7-1.2-0.9c-0.5-0.2-1.1-0.3-1.7-0.3h-2.4
		v8.9h2.4c0.6,0,1.2-0.1,1.7-0.3c0.5-0.2,0.9-0.5,1.2-0.9c0.3-0.4,0.6-0.9,0.8-1.4C652.4,72.5,652.5,71.8,652.5,71.2z"/>
	<path class="st0" d="M659.9,77.4V65.1h2v12.3H659.9z"/>
	<path class="st0" d="M675.4,68c-0.1-0.2-0.3-0.2-0.5-0.4c-0.2-0.2-0.5-0.3-0.8-0.4c-0.3-0.2-0.6-0.2-0.9-0.3
		c-0.4-0.1-0.7-0.2-1.1-0.2c-0.9,0-1.4,0.2-1.8,0.5c-0.4,0.3-0.5,0.7-0.5,1.2c0,0.3,0.1,0.5,0.2,0.7c0.2,0.2,0.3,0.4,0.5,0.5
		c0.2,0.1,0.5,0.2,0.9,0.4c0.4,0.2,0.9,0.2,1.3,0.4c0.6,0.2,1.2,0.3,1.7,0.5c0.5,0.2,0.9,0.4,1.2,0.7c0.3,0.2,0.6,0.6,0.8,1
		c0.2,0.4,0.3,0.9,0.3,1.4c0,0.6-0.2,1.2-0.4,1.6c-0.2,0.5-0.5,0.8-0.9,1.1c-0.4,0.3-0.9,0.5-1.4,0.6c-0.5,0.2-1.1,0.2-1.7,0.2
		c-0.9,0-1.9-0.2-2.7-0.4c-0.9-0.3-1.6-0.7-2.3-1.2l0.9-1.6c0.2,0.2,0.4,0.3,0.6,0.5c0.3,0.2,0.6,0.4,1,0.5c0.4,0.2,0.8,0.3,1.2,0.4
		c0.5,0.1,0.9,0.2,1.4,0.2c0.8,0,1.3-0.2,1.8-0.4c0.4-0.2,0.6-0.6,0.6-1.2c0-0.3-0.1-0.5-0.2-0.8s-0.4-0.4-0.7-0.5
		c-0.3-0.2-0.6-0.3-1.1-0.4c-0.4-0.2-0.9-0.2-1.4-0.4c-0.6-0.2-1.2-0.3-1.6-0.5c-0.5-0.2-0.9-0.4-1.2-0.6c-0.3-0.2-0.5-0.5-0.7-0.9
		s-0.2-0.8-0.2-1.2c0-0.6,0.1-1.2,0.3-1.6s0.5-0.9,0.9-1.2c0.4-0.3,0.9-0.5,1.4-0.7c0.5-0.2,1.2-0.2,1.8-0.2c0.9,0,1.6,0.2,2.3,0.4
		c0.7,0.2,1.3,0.6,1.9,1L675.4,68z"/>
	<path class="st0" d="M690.6,75.7v1.7h-8.5V65.1h8.3v1.7H684v3.5h5.5v1.6H684v3.7H690.6z"/>
	<path class="st0" d="M698,68.7v8.7h-2V65.1h1.6l7,8.9v-8.8h2v12.2H705L698,68.7z M702.4,63.5c-0.2,0-0.5,0-0.7-0.1
		s-0.4-0.2-0.5-0.2c-0.2-0.1-0.3-0.2-0.5-0.2c-0.2-0.1-0.3-0.1-0.5-0.1c-0.2,0-0.3,0.1-0.5,0.2c-0.1,0.1-0.2,0.2-0.2,0.2
		c-0.1,0.1-0.1,0.2-0.1,0.3s0,0.2,0,0.2h-1.1c0-0.1,0-0.2,0.1-0.5c0.1-0.2,0.2-0.5,0.3-0.7s0.3-0.4,0.5-0.6c0.2-0.2,0.5-0.2,0.9-0.2
		c0.2,0,0.5,0.1,0.7,0.2s0.4,0.2,0.5,0.2c0.2,0.1,0.3,0.2,0.5,0.2c0.2,0.1,0.4,0.2,0.5,0.2c0.2,0,0.4-0.1,0.5-0.2s0.2-0.2,0.3-0.3
		s0.1-0.2,0.2-0.3c0-0.1,0-0.2,0-0.2h1.1c0,0.1,0,0.2-0.1,0.5c-0.1,0.2-0.2,0.5-0.3,0.7s-0.4,0.5-0.6,0.6
		C703.1,63.4,702.8,63.5,702.4,63.5z"/>
	<path class="st0" d="M717.9,77.5c-0.9,0-1.6-0.2-2.4-0.5c-0.8-0.4-1.3-0.9-1.9-1.4c-0.5-0.5-0.9-1.2-1.2-2
		c-0.3-0.8-0.4-1.5-0.4-2.3c0-0.8,0.2-1.6,0.5-2.3c0.3-0.7,0.7-1.4,1.2-2c0.5-0.5,1.2-1,1.9-1.4c0.7-0.3,1.5-0.5,2.3-0.5
		c0.9,0,1.6,0.2,2.4,0.5c0.7,0.4,1.3,0.9,1.9,1.4c0.5,0.6,0.9,1.2,1.2,2c0.2,0.8,0.4,1.5,0.4,2.3c0,0.9-0.2,1.6-0.5,2.3
		c-0.3,0.8-0.7,1.4-1.2,2c-0.5,0.5-1.2,1-1.9,1.4C719.5,77.3,718.8,77.5,717.9,77.5z M714,71.2c0,0.5,0.1,1.2,0.3,1.7
		c0.2,0.5,0.5,1,0.8,1.4s0.8,0.8,1.2,1c0.5,0.2,1,0.4,1.6,0.4c0.6,0,1.2-0.2,1.6-0.4c0.5-0.2,0.9-0.6,1.2-1c0.3-0.4,0.6-0.9,0.8-1.4
		c0.2-0.5,0.2-1.1,0.2-1.6c0-0.6-0.1-1.2-0.3-1.7c-0.2-0.5-0.5-1-0.8-1.4s-0.8-0.7-1.2-1c-0.5-0.2-1-0.4-1.6-0.4
		c-0.6,0-1.2,0.2-1.6,0.4s-0.9,0.6-1.2,1c-0.3,0.4-0.6,0.9-0.8,1.4C714.1,70.1,714,70.7,714,71.2z"/>
	<path class="st0" d="M645.7,96.6c-1,1.1-2.3,1.6-3.6,1.6c-0.9,0-1.6-0.2-2.3-0.5c-0.7-0.3-1.3-0.8-1.9-1.4c-0.5-0.5-0.9-1.2-1.2-2
		c-0.3-0.8-0.5-1.6-0.5-2.4s0.2-1.6,0.5-2.3c0.3-0.7,0.7-1.4,1.2-2c0.5-0.5,1.2-1,1.9-1.3c0.7-0.3,1.5-0.5,2.3-0.5
		c1.2,0,2.2,0.2,3,0.7c0.8,0.5,1.4,1.2,1.8,2l-1.5,1.1c-0.3-0.7-0.8-1.2-1.4-1.5c-0.6-0.3-1.2-0.5-2-0.5c-0.5,0-1.1,0.2-1.6,0.4
		c-0.5,0.2-0.9,0.5-1.2,1c-0.3,0.4-0.6,0.9-0.8,1.4s-0.2,1.1-0.2,1.7c0,0.6,0.1,1.2,0.3,1.7c0.2,0.5,0.5,1,0.9,1.4
		c0.4,0.4,0.8,0.7,1.2,0.9s1,0.4,1.6,0.4c0.6,0,1.2-0.2,1.8-0.5c0.5-0.3,1.1-0.8,1.6-1.4v-1.3h-2.6V92h4.2v6.2h-1.6V96.6z"/>
	<path class="st0" d="M653,98.1V85.8h5.4c0.5,0,1.1,0.1,1.6,0.3s0.9,0.5,1.2,0.9c0.3,0.4,0.6,0.8,0.8,1.2c0.2,0.5,0.3,0.9,0.3,1.5
		c0,0.4-0.1,0.8-0.2,1.2c-0.1,0.4-0.3,0.7-0.5,1.1c-0.2,0.3-0.5,0.6-0.8,0.9c-0.3,0.2-0.6,0.4-1,0.5l2.9,4.7h-2.2l-2.7-4.3H655v4.3
		H653z M655,92.2h3.4c0.3,0,0.5-0.1,0.8-0.2c0.2-0.2,0.4-0.3,0.5-0.5c0.2-0.2,0.3-0.5,0.4-0.7c0.1-0.3,0.2-0.5,0.2-0.9
		c0-0.3-0.1-0.6-0.2-0.9c-0.1-0.3-0.2-0.5-0.5-0.7c-0.2-0.2-0.4-0.4-0.6-0.5c-0.2-0.2-0.5-0.2-0.7-0.2H655V92.2z"/>
	<path class="st0" d="M671.3,85.9h1.7l4.8,12.3h-2l-1.3-3.4h-4.8l-1.2,3.4h-2L671.3,85.9z M674.2,93.4l-2-5.3l-2,5.3H674.2z
		 M672.7,84.6l-1.2-0.4l1-1.9h1.8L672.7,84.6z"/>
	<path class="st0" d="M682.9,98.1V85.8h8.2v1.7h-6.2v3.7h5.2v1.6h-5.2v5.3L682.9,98.1L682.9,98.1z"/>
	<path class="st0" d="M696.4,98.1V85.8h2v12.3H696.4z"/>
	<path class="st0" d="M703.8,91.9c0-0.7,0.2-1.5,0.4-2.2c0.2-0.7,0.6-1.4,1.2-2c0.5-0.5,1.2-1,1.9-1.4c0.7-0.4,1.6-0.5,2.5-0.5
		c1.1,0,2.1,0.2,2.9,0.8c0.8,0.5,1.4,1.2,1.8,2l-1.6,1c-0.2-0.4-0.4-0.7-0.6-0.9c-0.2-0.2-0.5-0.5-0.8-0.6c-0.3-0.2-0.6-0.2-0.9-0.3
		c-0.3-0.1-0.6-0.1-0.9-0.1c-0.6,0-1.2,0.2-1.7,0.4c-0.5,0.2-0.9,0.6-1.2,1c-0.3,0.4-0.5,0.9-0.8,1.4c-0.2,0.5-0.2,1.1-0.2,1.6
		c0,0.6,0.1,1.2,0.3,1.7c0.2,0.5,0.5,1,0.9,1.4c0.4,0.4,0.8,0.8,1.2,1c0.5,0.2,1,0.4,1.6,0.4c0.3,0,0.6,0,0.9-0.1s0.6-0.2,0.9-0.4
		c0.3-0.2,0.5-0.4,0.8-0.6s0.5-0.5,0.6-0.9l1.6,0.9c-0.2,0.5-0.5,0.9-0.9,1.2c-0.4,0.4-0.8,0.6-1.2,0.9c-0.5,0.2-0.9,0.4-1.4,0.5
		c-0.5,0.2-1,0.2-1.5,0.2c-0.9,0-1.6-0.2-2.3-0.5c-0.7-0.4-1.3-0.9-1.9-1.5c-0.5-0.6-0.9-1.2-1.2-2
		C703.9,93.4,703.8,92.7,703.8,91.9z"/>
	<path class="st0" d="M724.8,98.2c-0.9,0-1.6-0.2-2.4-0.5c-0.8-0.4-1.3-0.9-1.9-1.4c-0.5-0.5-0.9-1.2-1.2-2
		c-0.3-0.8-0.4-1.5-0.4-2.3c0-0.8,0.2-1.6,0.5-2.3c0.3-0.7,0.7-1.4,1.2-2c0.5-0.5,1.2-1,1.9-1.4c0.7-0.3,1.5-0.5,2.3-0.5
		c0.9,0,1.6,0.2,2.4,0.5c0.7,0.4,1.3,0.9,1.9,1.4c0.5,0.6,0.9,1.2,1.2,2c0.2,0.8,0.4,1.5,0.4,2.3c0,0.9-0.2,1.6-0.5,2.3
		c-0.3,0.8-0.7,1.4-1.2,2c-0.5,0.5-1.2,1-1.9,1.4C726.5,98.1,725.7,98.2,724.8,98.2z M720.9,92c0,0.5,0.1,1.2,0.3,1.7
		c0.2,0.5,0.5,1,0.8,1.4c0.3,0.4,0.8,0.8,1.2,1c0.5,0.2,1,0.4,1.6,0.4c0.6,0,1.2-0.2,1.6-0.4c0.5-0.2,0.9-0.6,1.2-1
		c0.3-0.4,0.6-0.9,0.8-1.4c0.2-0.5,0.2-1.1,0.2-1.6c0-0.6-0.1-1.2-0.3-1.7c-0.2-0.5-0.5-1-0.8-1.4c-0.3-0.4-0.8-0.7-1.2-1
		c-0.5-0.2-1-0.4-1.6-0.4c-0.6,0-1.2,0.2-1.6,0.4c-0.5,0.2-0.9,0.6-1.2,1c-0.3,0.4-0.6,0.9-0.8,1.4C721,91,720.9,91.4,720.9,92z"/>
</g>
<g>
	<path class="st0" d="M697.4,32.3h-7.5h-7.5l0,0h-7.2v-7.2v-7.5v-7.5c0-0.2-0.2-0.3-0.3-0.3h-7.5c-0.2,0-0.3,0.2-0.3,0.3v7.5v7.5
		v7.5l0,0v3.7v0.1c0,2.3,1.8,4.1,4.1,4.1h0.1h3.7h7.5l0,0h7.5h7.5c0.2,0,0.3-0.2,0.3-0.3v-7.5C697.8,32.5,697.6,32.3,697.4,32.3z
		 M667.6,10.3h6.9v6.9h-6.9V10.3z M667.6,17.9h6.9v6.9h-6.9V17.9z M674.5,25.5v6.9H671h-3.4v-6.9H674.5z M667.6,33h1.3
		c-0.5,0.3-0.9,0.8-1.3,1.3V33z M671,39.9c-1.9,0-3.4-1.5-3.4-3.4v-0.1c0-1.9,1.5-3.4,3.4-3.4h3.5v5.7v1.3h-1.3L671,39.9L671,39.9z
		 M675.2,36.5V33h6.9v6.9h-6.9V36.5z M682.7,33h6.9v6.9h-6.9V33z M697.2,39.9h-6.9V33h6.9V39.9L697.2,39.9z"/>
	<path class="st0" d="M671,37.5c-0.6,0-1.1-0.5-1.1-1.1s0.5-1.1,1.1-1.1c0.6,0,1.1,0.5,1.1,1.1S671.6,37.5,671,37.5z M671,35.9
		c-0.3,0-0.4,0.2-0.4,0.4c0,0.3,0.2,0.4,0.4,0.4c0.3,0,0.4-0.2,0.4-0.4C671.5,36.1,671.3,35.9,671,35.9z"/>
	<path class="st0" d="M693.5,28.7c-0.2,0-0.3-0.2-0.3-0.3c0-8.2-6.7-14.9-14.9-14.9c-0.2,0-0.3-0.2-0.3-0.3c0-0.2,0.2-0.3,0.3-0.3
		c4.1,0,8,1.6,10.9,4.5c2.9,2.9,4.5,6.8,4.5,10.9C693.8,28.6,693.7,28.7,693.5,28.7z"/>
</g>
<g>
	<path class="st0" d="M841.5,36.1h-3.9c-0.2,0-0.3-0.1-0.3-0.3v-0.3c0-0.2,0.1-0.3,0.3-0.3h3.9c0.2,0,0.3,0.1,0.3,0.3v0.3
		C841.8,36,841.7,36.1,841.5,36.1z"/>
</g>
<g>
	<path class="st0" d="M768,77.7V65h4.5c1,0,1.9,0.2,2.7,0.5c0.8,0.3,1.4,0.8,1.9,1.4s0.9,1.2,1.2,2s0.4,1.6,0.4,2.5
		c0,1-0.1,1.8-0.4,2.6s-0.7,1.4-1.2,2s-1.2,1-2,1.3s-1.6,0.5-2.6,0.5H768V77.7z M776.7,71.3c0-0.7-0.1-1.3-0.3-1.8
		c-0.2-0.6-0.5-1-0.8-1.4c-0.4-0.4-0.8-0.7-1.3-0.9s-1.1-0.5-1.8-0.5H770v9.2h2.5c0.7,0,1.3-0.1,1.8-0.3c0.5-0.2,1-0.6,1.3-1
		c0.4-0.4,0.6-0.9,0.8-1.5C776.6,72.5,776.7,71.9,776.7,71.3z"/>
	<path class="st0" d="M793.1,75.9v1.8h-8.7V65h8.6v1.7h-6.5v3.6h5.6V72h-5.7v3.9H793.1z"/>
	<path class="st0" d="M806,67.9c-0.1-0.1-0.3-0.3-0.5-0.4s-0.5-0.3-0.8-0.4c-0.3-0.1-0.6-0.2-1-0.3c-0.4-0.1-0.7-0.1-1.1-0.1
		c-0.8,0-1.5,0.2-1.9,0.5c-0.4,0.3-0.6,0.7-0.6,1.3c0,0.3,0.1,0.6,0.2,0.8s0.3,0.4,0.6,0.5c0.3,0.2,0.6,0.3,1,0.4
		c0.4,0.1,0.9,0.2,1.4,0.4c0.6,0.2,1.2,0.3,1.7,0.5s1,0.4,1.3,0.7c0.4,0.3,0.6,0.6,0.8,1s0.3,0.9,0.3,1.5s-0.1,1.2-0.4,1.7
		c-0.2,0.5-0.6,0.8-1,1.1c-0.4,0.3-0.9,0.5-1.5,0.6c-0.6,0.1-1.2,0.2-1.8,0.2c-1,0-1.9-0.1-2.8-0.4c-0.9-0.3-1.7-0.7-2.4-1.3
		l0.9-1.7c0.2,0.2,0.4,0.3,0.7,0.5s0.6,0.4,1,0.5c0.4,0.2,0.8,0.3,1.3,0.4s0.9,0.2,1.4,0.2c0.8,0,1.4-0.1,1.8-0.4
		c0.4-0.3,0.6-0.7,0.6-1.2c0-0.3-0.1-0.6-0.2-0.8c-0.1-0.2-0.4-0.4-0.7-0.6s-0.7-0.3-1.1-0.4c-0.4-0.1-0.9-0.3-1.5-0.4
		c-0.6-0.2-1.2-0.3-1.7-0.5s-0.9-0.4-1.2-0.7c-0.3-0.3-0.5-0.6-0.7-0.9c0-0.5-0.1-1-0.1-1.5c0-0.6,0.1-1.2,0.4-1.7
		c0.2-0.5,0.6-0.9,1-1.2c0.4-0.3,0.9-0.6,1.5-0.7c0.6-0.2,1.2-0.2,1.8-0.2c0.9,0,1.7,0.1,2.4,0.4s1.4,0.6,1.9,1L806,67.9z"/>
	<path class="st0" d="M816.6,65h1.8l5,12.7h-2.1l-1.3-3.5h-4.9l-1.3,3.5h-2.1L816.6,65z M819.5,72.7l-2-5.5l-2.2,5.5H819.5z"/>
	<path class="st0" d="M828.5,77.7V65h5.5c0.6,0,1.1,0.1,1.6,0.4s0.9,0.6,1.2,0.9c0.3,0.4,0.6,0.8,0.8,1.3s0.3,1,0.3,1.5
		c0,0.4-0.1,0.8-0.2,1.2c-0.1,0.4-0.3,0.8-0.5,1.1c-0.2,0.3-0.5,0.6-0.8,0.9c-0.3,0.3-0.7,0.4-1,0.5l3,4.8h-2.3l-2.8-4.4h-2.9v4.4
		L828.5,77.7L828.5,77.7z M830.5,71.5h3.5c0.3,0,0.5-0.1,0.8-0.2s0.4-0.3,0.6-0.5c0.2-0.2,0.3-0.5,0.4-0.8s0.1-0.6,0.1-0.9
		s-0.1-0.6-0.2-0.9c-0.1-0.3-0.3-0.5-0.4-0.8c-0.2-0.2-0.4-0.4-0.6-0.5c-0.3-0.1-0.6-0.2-0.8-0.2h-3.4V71.5z"/>
	<path class="st0" d="M843.9,77.7V65h5.5c0.6,0,1.1,0.1,1.6,0.4s0.9,0.6,1.2,0.9c0.3,0.4,0.6,0.8,0.8,1.3s0.3,1,0.3,1.5
		c0,0.4-0.1,0.8-0.2,1.2c-0.1,0.4-0.3,0.8-0.5,1.1c-0.2,0.3-0.5,0.6-0.8,0.9s-0.7,0.4-1,0.5l3,4.8h-2.3l-2.8-4.4h-2.9v4.4
		L843.9,77.7L843.9,77.7z M845.9,71.5h3.5c0.3,0,0.5-0.1,0.8-0.2c0.3-0.1,0.4-0.3,0.6-0.5s0.3-0.5,0.4-0.8c0.1-0.3,0.1-0.6,0.1-0.9
		s-0.1-0.6-0.2-0.9c-0.1-0.3-0.3-0.5-0.4-0.8c-0.2-0.2-0.4-0.4-0.6-0.5c-0.2-0.1-0.5-0.2-0.8-0.2h-3.4V71.5z"/>
	<path class="st0" d="M864.6,77.7c-0.9,0-1.7-0.2-2.5-0.5c-0.7-0.4-1.4-0.8-1.9-1.5s-1-1.3-1.2-2.1c-0.3-0.8-0.4-1.6-0.4-2.4
		s0.2-1.7,0.5-2.4c0.3-0.8,0.7-1.5,1.3-2.1c0.6-0.6,1.2-1.1,1.9-1.4c0.7-0.4,1.6-0.5,2.4-0.5c0.9,0,1.7,0.2,2.5,0.6
		c0.7,0.4,1.4,0.9,1.9,1.5s0.9,1.3,1.2,2.1c0.3,0.8,0.4,1.6,0.4,2.4s-0.2,1.7-0.5,2.4c-0.3,0.8-0.7,1.5-1.3,2
		c-0.5,0.6-1.2,1.1-1.9,1.4C866.2,77.6,865.4,77.7,864.6,77.7z M860.5,71.3c0,0.6,0.1,1.2,0.3,1.7c0.2,0.6,0.5,1.1,0.8,1.5
		c0.4,0.4,0.8,0.8,1.3,1c0.5,0.3,1.1,0.4,1.7,0.4c0.6,0,1.2-0.1,1.7-0.4s0.9-0.6,1.3-1.1c0.3-0.4,0.6-0.9,0.8-1.5
		c0.2-0.6,0.3-1.1,0.3-1.7s-0.1-1.2-0.3-1.7c-0.2-0.6-0.5-1-0.8-1.5c-0.3-0.5-0.8-0.8-1.3-1s-1-0.4-1.7-0.4c-0.6,0-1.2,0.1-1.7,0.4
		s-0.9,0.6-1.3,1c-0.3,0.4-0.6,0.9-0.8,1.5C860.6,70.2,860.5,70.7,860.5,71.3z"/>
	<path class="st0" d="M876.3,77.7V65h2v10.9h6.8v1.8C885.1,77.7,876.3,77.7,876.3,77.7z"/>
	<path class="st0" d="M890.4,77.7V65h2v10.9h6.8v1.8C899.2,77.7,890.4,77.7,890.4,77.7z"/>
	<path class="st0" d="M908.9,77.7c-0.9,0-1.7-0.2-2.5-0.5c-0.7-0.4-1.4-0.8-1.9-1.5s-1-1.3-1.2-2.1c-0.3-0.8-0.4-1.6-0.4-2.4
		s0.2-1.7,0.5-2.4c0.3-0.8,0.7-1.5,1.3-2.1c0.6-0.6,1.2-1.1,1.9-1.4c0.7-0.4,1.6-0.5,2.4-0.5c0.9,0,1.7,0.2,2.5,0.6
		c0.7,0.4,1.4,0.9,1.9,1.5s0.9,1.3,1.2,2.1c0.3,0.8,0.4,1.6,0.4,2.4s-0.2,1.7-0.5,2.4c-0.3,0.8-0.7,1.5-1.3,2
		c-0.5,0.6-1.2,1.1-1.9,1.4C910.5,77.6,909.7,77.7,908.9,77.7z M904.8,71.3c0,0.6,0.1,1.2,0.3,1.7c0.2,0.6,0.5,1.1,0.8,1.5
		c0.4,0.4,0.8,0.8,1.3,1c0.5,0.3,1.1,0.4,1.7,0.4c0.6,0,1.2-0.1,1.7-0.4s0.9-0.6,1.3-1.1c0.3-0.4,0.6-0.9,0.8-1.5
		c0.2-0.6,0.3-1.1,0.3-1.7s-0.1-1.2-0.3-1.7c-0.2-0.6-0.5-1-0.8-1.5c-0.3-0.5-0.8-0.8-1.3-1s-1-0.4-1.7-0.4c-0.6,0-1.2,0.1-1.7,0.4
		s-0.9,0.6-1.3,1c-0.3,0.4-0.6,0.9-0.8,1.5C904.9,70.2,904.8,70.7,904.8,71.3z"/>
	<path class="st0" d="M782,86.5h1.9l1.6,4.3l1.6-4.3h1.9l-2.2,5.7l1.9,4.7l4-10.4h2.2l-5.2,12.7H788l-2.4-5.7l-2.4,5.7h-1.7
		l-5.2-12.7h2.2l4,10.4l1.9-4.7L782,86.5z"/>
	<path class="st0" d="M808.6,97.4v1.8h-8.7V86.5h8.6v1.8H802v3.6h5.7v1.7H802v3.9h6.6V97.4z"/>
	<path class="st0" d="M824.3,95.9c0,0.5-0.1,1-0.3,1.4s-0.5,0.7-0.8,1c-0.3,0.3-0.8,0.5-1.2,0.6c-0.5,0.1-1,0.2-1.5,0.2h-6.1V86.4
		h6.6c0.4,0,0.8,0.1,1.2,0.3c0.4,0.2,0.7,0.4,0.9,0.7c0.3,0.3,0.4,0.7,0.6,1c0.1,0.4,0.2,0.8,0.2,1.2c0,0.6-0.2,1.2-0.5,1.7
		c-0.3,0.5-0.8,0.9-1.4,1.2c0.7,0.2,1.3,0.6,1.7,1.2C824,94.4,824.3,95,824.3,95.9z M816.3,88.2v3.7h3.7c0.2,0,0.5,0,0.7-0.1
		c0.2-0.1,0.4-0.2,0.6-0.4c0.2-0.2,0.3-0.4,0.4-0.6c0.1-0.2,0.1-0.5,0.1-0.8c0-0.5-0.2-1-0.5-1.4s-0.7-0.5-1.2-0.5h-3.8V88.2z
		 M822.2,95.5c0-0.3,0-0.5-0.1-0.8c-0.1-0.2-0.2-0.4-0.4-0.6c-0.1-0.2-0.3-0.3-0.5-0.4c-0.2-0.1-0.4-0.2-0.7-0.2h-4.2v3.9h4.1
		c0.3,0,0.5-0.1,0.7-0.2s0.4-0.2,0.6-0.4c0.2-0.2,0.3-0.4,0.4-0.6C822.2,96,822.2,95.7,822.2,95.5z"/>
	<path class="st0" d="M838.3,86.4l3.5,6.4l3.5-6.4h2.2l-4.7,8.2v4.5h-2v-4.6l-4.7-8.1H838.3z"/>
	<path class="st0" d="M863.2,86.4h1.8l5,12.7h-2.1l-1.3-3.5h-4.9l-1.3,3.5h-2.1L863.2,86.4z M866.2,94.2l-2-5.5l-2.1,5.5H866.2z"/>
	<path class="st0" d="M875.2,99.1V86.4h5.3c0.6,0,1.1,0.1,1.6,0.4c0.5,0.2,0.9,0.6,1.2,0.9c0.3,0.4,0.6,0.8,0.8,1.3s0.3,1,0.3,1.5
		s-0.1,1.1-0.3,1.5c-0.2,0.5-0.4,0.9-0.8,1.3c-0.3,0.4-0.7,0.7-1.2,0.9c-0.5,0.2-1,0.3-1.6,0.3h-3.4v4.4h-1.9V99.1z M877.2,92.9h3.3
		c0.3,0,0.5-0.1,0.8-0.2s0.4-0.3,0.6-0.5c0.2-0.2,0.3-0.5,0.4-0.8s0.1-0.6,0.1-0.9c0-0.4-0.1-0.7-0.2-1c-0.1-0.3-0.3-0.5-0.4-0.7
		c-0.2-0.2-0.4-0.4-0.7-0.5c-0.2-0.1-0.5-0.2-0.8-0.2h-3.2v4.8H877.2z"/>
	<path class="st0" d="M889.9,99.1V86.4h5.3c0.6,0,1.1,0.1,1.6,0.4c0.5,0.2,0.9,0.6,1.2,0.9c0.3,0.4,0.6,0.8,0.8,1.3s0.3,1,0.3,1.5
		s-0.1,1.1-0.3,1.5c-0.2,0.5-0.4,0.9-0.8,1.3c-0.3,0.4-0.7,0.7-1.2,0.9c-0.5,0.2-1,0.3-1.6,0.3h-3.4v4.4h-1.9V99.1z M891.9,92.9h3.3
		c0.3,0,0.5-0.1,0.8-0.2s0.4-0.3,0.6-0.5s0.3-0.5,0.4-0.8s0.1-0.6,0.1-0.9c0-0.4-0.1-0.7-0.2-1c-0.1-0.3-0.3-0.5-0.4-0.7
		c-0.2-0.2-0.4-0.4-0.7-0.5c-0.2-0.1-0.5-0.2-0.8-0.2h-3.2L891.9,92.9L891.9,92.9z"/>
	<path class="st0" d="M912.1,89.4c-0.1-0.1-0.3-0.3-0.5-0.4s-0.5-0.3-0.8-0.4s-0.6-0.2-1-0.3c-0.4-0.1-0.7-0.1-1.1-0.1
		c-0.8,0-1.5,0.2-1.9,0.5c-0.4,0.3-0.6,0.7-0.6,1.3c0,0.3,0.1,0.6,0.2,0.8c0.1,0.2,0.3,0.4,0.6,0.5c0.3,0.1,0.6,0.3,1,0.4
		c0.4,0.1,0.9,0.2,1.4,0.4c0.6,0.2,1.2,0.3,1.7,0.5s1,0.4,1.3,0.7c0.4,0.3,0.6,0.6,0.8,1c0.2,0.4,0.3,0.9,0.3,1.5s-0.1,1.2-0.4,1.7
		c-0.2,0.5-0.6,0.8-1,1.1c-0.4,0.3-0.9,0.5-1.5,0.6c-0.6,0.1-1.2,0.2-1.8,0.2c-1,0-1.9-0.1-2.8-0.4c-0.9-0.3-1.7-0.7-2.4-1.3
		l0.9-1.7c0.2,0.2,0.4,0.3,0.7,0.5c0.3,0.2,0.6,0.4,1,0.5c0.4,0.2,0.8,0.3,1.3,0.4s0.9,0.2,1.4,0.2c0.8,0,1.4-0.1,1.8-0.4
		c0.4-0.3,0.6-0.7,0.6-1.2c0-0.3-0.1-0.6-0.2-0.8s-0.4-0.4-0.7-0.6c-0.3-0.2-0.7-0.3-1.1-0.4s-0.9-0.3-1.5-0.4
		c-0.6-0.2-1.2-0.3-1.7-0.5s-0.9-0.4-1.2-0.7c-0.3-0.3-0.5-0.6-0.7-0.9c-0.2-0.3-0.2-0.8-0.2-1.3c0-0.6,0.1-1.2,0.4-1.7
		c0.2-0.5,0.6-0.9,1-1.2c0.4-0.3,0.9-0.6,1.5-0.7c0.6-0.1,1.2-0.3,1.8-0.3c0.9,0,1.7,0.1,2.4,0.4s1.4,0.6,1.9,1L912.1,89.4z"/>
</g>
<g>
	<path class="st0" d="M854.5,38.1h-30.3c-1.1,0-2-0.9-2-2V14.3c0-1.1,0.9-2,2-2h30.3c1.1,0,2,0.9,2,2v21.9
		C856.4,37.2,855.5,38.1,854.5,38.1z M824.1,12.9c-0.7,0-1.4,0.6-1.4,1.4v21.9c0,0.7,0.6,1.4,1.4,1.4h30.3c0.7,0,1.4-0.6,1.4-1.4
		V14.3c0-0.7-0.6-1.4-1.4-1.4H824.1z"/>
</g>
<g>
	<path class="st0" d="M853.8,33.9h-28.5V17.2c0-1.1,0.9-2,2-2h24.5c1.1,0,2,0.9,2,2C853.8,17.2,853.8,33.9,853.8,33.9z M825.9,33.2
		h27.2V17.2c0-0.7-0.6-1.4-1.4-1.4h-24.5c-0.7,0-1.4,0.6-1.4,1.4C825.9,17.2,825.9,33.2,825.9,33.2z"/>
</g>
<g>
	<path class="st0" d="M844.3,29.7h-13.2c-0.7,0-1.1-0.5-1.1-1.1v-9.7c0-0.7,0.5-1.1,1.1-1.1h14.6c0.7,0,1.1,0.5,1.1,1.1v8.3
		l-3.5-0.8L844.3,29.7z M831.2,18.3c-0.3,0-0.5,0.2-0.5,0.5v9.7c0,0.3,0.2,0.5,0.5,0.5h12.3l-1-3.6l3.7,0.8v-7.5
		c0-0.3-0.2-0.5-0.5-0.5C845.7,18.3,831.2,18.3,831.2,18.3z"/>
</g>
<g>
	<path class="st0" d="M847.2,32.5l-1.7-1.9l-1.3,1.4l-1.8-6.5l7,1.6l-1.4,1.7l1.3,1.4L847.2,32.5z M845.6,29.6l1.7,1.9l1.3-1.3
		l-1.3-1.4l1.1-1.3l-5-1.1l1.2,4.4L845.6,29.6z"/>
</g>
<g>
	<path class="st0" d="M830.8,43.1l2.3-1c3.2-0.4,3.3-4.1,3.3-4.3v-0.3h6v0.3c-0.1,3.4,3.4,4.2,3.5,4.3l1.8,0.9L830.8,43.1z
		 M837,38.2c-0.1,0.8-0.5,2.9-2.1,4l9.4-0.1c-1.1-0.6-2.5-1.8-2.5-4H837z"/>
</g>
<g>
	<path class="st2" d="M847.3,43.7h-15.8c-0.4,0-0.7-0.3-0.7-0.7c0-0.4,0.3-0.7,0.7-0.7h15.8c0.4,0,0.7,0.3,0.7,0.7
		C847.9,43.4,847.6,43.7,847.3,43.7z M831.4,42.8c-0.1,0-0.1,0.1-0.1,0.1c0,0.1,0.1,0.1,0.1,0.1h15.8c0.1,0,0.1-0.1,0.1-0.1
		c0-0.1-0.1-0.1-0.1-0.1H831.4z"/>
</g>
<g>
	<rect x="830.2" y="20.9" class="st0" width="16.4" height="0.6"/>
</g>
<g>
	<path class="st0" d="M837.5,27.2h-5.2v-2.7h5.2V27.2z M833,26.5h4v-1.4h-4V26.5z"/>
</g>
<g>
	<rect x="822.4" y="33.3" class="st0" width="33.8" height="0.6"/>
</g>
<g>
	<path class="st0" d="M841.5,36.1h-3.9c-0.2,0-0.3-0.1-0.3-0.3v-0.3c0-0.2,0.1-0.3,0.3-0.3h3.9c0.2,0,0.3,0.1,0.3,0.3v0.3
		C841.8,36,841.7,36.1,841.5,36.1z"/>
</g>
<rect x="49.6" y="63.5" class="st3" width="52" height="32"/>
<text transform="matrix(1 0 0 1 49.5747 76.2643)" class="st0 st4 st5">/</text>
</svg>
