<?xml version="1.0" encoding="utf-8"?>
<!-- Generator: Adobe Illustrator 22.0.0, SVG Export Plug-In . SVG Version: 6.00 Build 0)  -->
<svg version="1.1" id="Layer_1" xmlns="http://www.w3.org/2000/svg" xmlns:xlink="http://www.w3.org/1999/xlink" x="0px" y="0px"
	 viewBox="0 0 67.9 45.3" style="enable-background:new 0 0 67.9 45.3;" xml:space="preserve">
<style type="text/css">
	.st0{fill:#E9E9E9;}
	.st1{font-family:'Raleway-SemiBold';}
	.st2{font-size:13.5346px;}
	.st3{letter-spacing:2;}
	.st4{fill:none;stroke:#E9E9E9;stroke-miterlimit:10;}
</style>
<text transform="matrix(1 0 0 1 21.5906 27.0952)" class="st0 st1 st2 st3">CRM</text>
<rect x="4.6" y="5.8" class="st4" width="58.5" height="34.3"/>
<line class="st4" x1="17.4" y1="5.9" x2="17.4" y2="40"/>
<g>
	<path class="st0" d="M14.3,11H7.8c-0.3,0-0.5-0.2-0.5-0.5V9.9c0-0.3,0.2-0.5,0.5-0.5h6.5c0.3,0,0.5,0.2,0.5,0.5v0.5
		C14.8,10.8,14.6,11,14.3,11z"/>
</g>
<g>
	<path class="st0" d="M14.3,19.5H7.8c-0.3,0-0.5-0.2-0.5-0.5v-0.5c0-0.3,0.2-0.5,0.5-0.5h6.5c0.3,0,0.5,0.2,0.5,0.5v0.5
		C14.8,19.2,14.6,19.5,14.3,19.5z"/>
</g>
<g>
	<path class="st0" d="M14.4,27.9H7.9c-0.3,0-0.5-0.2-0.5-0.5v-0.5c0-0.3,0.2-0.5,0.5-0.5h6.5c0.3,0,0.5,0.2,0.5,0.5v0.5
		C15,27.7,14.7,27.9,14.4,27.9z"/>
</g>
<g>
	<path class="st0" d="M14.3,36.6H7.8c-0.3,0-0.5-0.2-0.5-0.5v-0.5c0-0.3,0.2-0.5,0.5-0.5h6.5c0.3,0,0.5,0.2,0.5,0.5V36
		C14.8,36.3,14.6,36.6,14.3,36.6z"/>
</g>
</svg>
