<?xml version="1.0" encoding="utf-8"?>
<!-- Generator: Adobe Illustrator 22.0.0, SVG Export Plug-In . SVG Version: 6.00 Build 0)  -->
<svg version="1.1" id="Layer_1" xmlns="http://www.w3.org/2000/svg" xmlns:xlink="http://www.w3.org/1999/xlink" x="0px" y="0px"
	 viewBox="0 0 94.7 97.2" style="enable-background:new 0 0 94.7 97.2;" xml:space="preserve">
<style type="text/css">
	.st0{fill:#fff;}
	.st1{fill:none;stroke:#fff;stroke-miterlimit:10;}
	.st2{fill:#fff;stroke:#fff;stroke-width:0.25;stroke-miterlimit:10;}
</style>
<g>
	<path class="st0" d="M208.4-139.2c0-0.4,0.1-0.8,0.2-1.1c0.1-0.4,0.3-0.7,0.6-0.9c0.3-0.3,0.6-0.5,0.9-0.7c0.4-0.2,0.8-0.3,1.3-0.3
		c0.6,0,1,0.1,1.4,0.4c0.4,0.3,0.7,0.6,0.9,0.9l-0.8,0.5c-0.1-0.2-0.2-0.3-0.3-0.4s-0.3-0.3-0.4-0.3s-0.3-0.1-0.4-0.2
		c-0.1,0-0.3-0.1-0.4-0.1c-0.3,0-0.6,0.1-0.8,0.2s-0.4,0.3-0.6,0.5c-0.2,0.2-0.3,0.4-0.4,0.7c-0.1,0.3-0.1,0.5-0.1,0.8
		c0,0.3,0.1,0.6,0.1,0.8c0.1,0.3,0.3,0.5,0.4,0.7c0.2,0.2,0.4,0.4,0.6,0.5c0.3,0.1,0.5,0.2,0.8,0.2c0.1,0,0.3,0,0.4-0.1
		s0.3-0.1,0.4-0.2s0.3-0.2,0.4-0.3s0.3-0.3,0.3-0.4l0.8,0.4c-0.1,0.3-0.3,0.4-0.4,0.6c-0.1,0.2-0.4,0.3-0.6,0.4
		c-0.2,0.1-0.4,0.2-0.7,0.3c-0.3,0.1-0.5,0.1-0.8,0.1c-0.4,0-0.8-0.1-1.2-0.3c-0.4-0.2-0.6-0.4-0.9-0.7c-0.3-0.3-0.4-0.6-0.6-1
		C208.5-138.5,208.4-138.8,208.4-139.2z"/>
	<path class="st0" d="M216.3-136.1v-6.1h2.7c0.3,0,0.5,0.1,0.8,0.2c0.3,0.1,0.4,0.3,0.6,0.4c0.2,0.2,0.3,0.4,0.4,0.6
		c0.1,0.3,0.1,0.5,0.1,0.7c0,0.2,0,0.4-0.1,0.6c-0.1,0.2-0.1,0.4-0.3,0.5c-0.1,0.2-0.3,0.3-0.4,0.4s-0.3,0.2-0.5,0.3l1.5,2.3H220
		l-1.3-2.1h-1.4v2.1H216.3z M217.3-139.1h1.7c0.1,0,0.3,0,0.4-0.1s0.2-0.1,0.3-0.3c0.1-0.1,0.1-0.3,0.2-0.4c0.1-0.1,0.1-0.3,0.1-0.4
		c0-0.1,0-0.3-0.1-0.4c-0.1-0.1-0.1-0.3-0.2-0.4c-0.1-0.1-0.2-0.2-0.3-0.3s-0.3-0.1-0.4-0.1h-1.6L217.3-139.1L217.3-139.1z"/>
	<path class="st0" d="M228.8-136.1v-4.4l-1.8,3.3h-0.5l-1.8-3.3v4.4h-0.9v-6.1h1l2,3.7l2-3.7h1v6.1H228.8z"/>
</g>
<path class="st0" d="M161.3-94.2c0-0.8,0.1-1.5,0.4-2.3c0.3-0.8,0.7-1.4,1.2-2s1.2-1.1,1.9-1.5c0.8-0.4,1.6-0.6,2.6-0.6
	c1.2,0,2.1,0.3,3,0.8c0.8,0.5,1.4,1.2,1.9,2l-1.6,1.1c-0.2-0.4-0.4-0.7-0.6-1s-0.5-0.5-0.8-0.6c-0.3-0.2-0.6-0.3-0.9-0.3
	s-0.7-0.1-1-0.1c-0.7,0-1.3,0.1-1.8,0.4s-0.9,0.6-1.3,1.1c-0.3,0.4-0.6,0.9-0.8,1.5s-0.1,1-0.1,1.6s0.1,1.2,0.3,1.8
	c0.2,0.6,0.5,1.1,0.9,1.5s0.8,0.8,1.3,1c0.5,0.3,1,0.4,1.6,0.4c0.3,0,0.6,0,1-0.1c0.3-0.1,0.6-0.2,0.9-0.4c0.3-0.2,0.6-0.4,0.8-0.7
	c0.3-0.3,0.5-0.6,0.6-0.9l1.7,0.9c-0.2,0.5-0.5,0.9-0.9,1.3s-0.8,0.7-1.3,0.9c-0.5,0.3-1,0.4-1.5,0.6c-0.5,0.1-1,0.2-1.5,0.2
	c-0.9,0-1.7-0.2-2.5-0.6c-0.7-0.4-1.4-0.9-1.9-1.5s-1-1.3-1.3-2.1C161.5-92.6,161.3-93.4,161.3-94.2z"/>
<path class="st0" d="M188.6-87.8v-9.1l-3.8,6.9h-1.1l-3.8-6.9v9.1h-2v-12.7h2.1l4.2,7.8l4.2-7.8h2.1v12.7
	C190.5-87.8,188.6-87.8,188.6-87.8z"/>
<path class="st0" d="M204.6-97.5c-0.1-0.1-0.3-0.3-0.5-0.4s-0.5-0.3-0.8-0.4s-0.6-0.2-1-0.3c-0.4-0.1-0.7-0.1-1.1-0.1
	c-0.8,0-1.5,0.2-1.9,0.5c-0.4,0.3-0.6,0.7-0.6,1.3c0,0.3,0.1,0.6,0.2,0.8c0.1,0.2,0.3,0.4,0.6,0.5c0.3,0.1,0.6,0.3,1,0.4
	c0.4,0.1,0.9,0.2,1.4,0.4c0.6,0.2,1.2,0.3,1.7,0.5s1,0.4,1.3,0.7c0.4,0.3,0.6,0.6,0.8,1c0.2,0.4,0.3,0.9,0.3,1.5s-0.1,1.2-0.4,1.7
	c-0.2,0.5-0.6,0.8-1,1.1c-0.4,0.3-0.9,0.5-1.5,0.6c-0.6,0.1-1.2,0.2-1.8,0.2c-1,0-1.9-0.1-2.8-0.4c-0.9-0.3-1.7-0.7-2.4-1.3l0.9-1.7
	c0.2,0.2,0.4,0.3,0.7,0.5s0.6,0.4,1,0.5c0.4,0.1,0.8,0.3,1.3,0.4s0.9,0.2,1.4,0.2c0.8,0,1.4-0.1,1.8-0.4s0.6-0.7,0.6-1.2
	c0-0.3-0.1-0.6-0.2-0.8c-0.1-0.2-0.4-0.4-0.7-0.6s-0.7-0.3-1.1-0.4c-0.4-0.1-0.9-0.3-1.5-0.4c-0.6-0.2-1.2-0.3-1.7-0.5
	s-0.9-0.4-1.2-0.7c-0.3-0.3-0.5-0.6-0.7-0.9s-0.2-0.8-0.2-1.3c0-0.6,0.1-1.2,0.4-1.7c0.2-0.5,0.6-0.9,1-1.2c0.4-0.3,0.9-0.6,1.5-0.7
	c0.6-0.2,1.2-0.2,1.8-0.2c0.9,0,1.7,0.1,2.4,0.4c0.7,0.3,1.4,0.6,1.9,1L204.6-97.5z"/>
<path class="st0" d="M223.9-94.2c0-0.8,0.1-1.5,0.4-2.3s0.7-1.4,1.2-2s1.2-1.1,1.9-1.5c0.8-0.4,1.6-0.6,2.6-0.6c1.2,0,2.1,0.3,3,0.8
	c0.8,0.5,1.4,1.2,1.9,2l-1.6,1.1c-0.2-0.4-0.4-0.7-0.6-1s-0.5-0.5-0.8-0.6c-0.3-0.2-0.6-0.3-0.9-0.3s-0.6-0.1-0.9-0.1
	c-0.7,0-1.3,0.1-1.8,0.4s-0.9,0.6-1.3,1.1c-0.3,0.4-0.6,0.9-0.8,1.5c-0.2,0.6-0.3,1.1-0.3,1.6c0,0.6,0.1,1.2,0.3,1.8
	c0.2,0.6,0.5,1.1,0.9,1.5c0.4,0.4,0.8,0.8,1.3,1c0.5,0.3,1,0.4,1.6,0.4c0.3,0,0.6,0,1-0.1c0.3-0.1,0.6-0.2,0.9-0.4
	c0.3-0.2,0.6-0.4,0.8-0.7c0.3-0.3,0.5-0.6,0.6-0.9l1.7,0.9c-0.2,0.5-0.5,0.9-0.9,1.3c-0.4,0.4-0.8,0.7-1.3,0.9
	c-0.5,0.3-1,0.4-1.5,0.6c-0.5,0.1-1,0.2-1.5,0.2c-0.9,0-1.7-0.2-2.5-0.6c-0.7-0.4-1.4-0.9-1.9-1.5s-1-1.3-1.3-2.1
	C224.1-92.6,223.9-93.4,223.9-94.2z"/>
<path class="st0" d="M240.6-87.8v-12.7h5.5c0.6,0,1.1,0.1,1.6,0.4c0.5,0.2,0.9,0.6,1.2,0.9c0.3,0.4,0.6,0.8,0.8,1.3s0.3,1,0.3,1.5
	c0,0.4-0.1,0.8-0.2,1.2c-0.1,0.4-0.3,0.8-0.5,1.1c-0.2,0.3-0.5,0.6-0.8,0.9c-0.3,0.2-0.7,0.4-1,0.5l3,4.8h-2.3l-2.8-4.4h-2.9v4.4
	L240.6-87.8L240.6-87.8z M242.6-94h3.5c0.3,0,0.5-0.1,0.8-0.2s0.4-0.3,0.6-0.5s0.3-0.5,0.4-0.8c0.1-0.3,0.1-0.6,0.1-0.9
	s-0.1-0.6-0.2-0.9c-0.1-0.3-0.3-0.5-0.4-0.8c-0.2-0.2-0.4-0.4-0.6-0.5s-0.5-0.2-0.8-0.2h-3.4V-94z"/>
<path class="st0" d="M266.6-87.8v-9.1l-3.8,6.9h-1.1l-3.8-6.9v9.1h-2v-12.7h2.1l4.2,7.8l4.2-7.8h2.1v12.7
	C268.5-87.8,266.6-87.8,266.6-87.8z"/>
<rect x="197.3" y="-149.6" class="st1" width="37" height="21.7"/>
<line class="st1" x1="205.4" y1="-149.5" x2="205.4" y2="-128"/>
<g>
	<path class="st0" d="M203.5-146.3h-4.1c-0.2,0-0.3-0.1-0.3-0.3v-0.3c0-0.2,0.1-0.3,0.3-0.3h4.1c0.2,0,0.3,0.1,0.3,0.3v0.3
		C203.8-146.4,203.7-146.3,203.5-146.3z"/>
</g>
<g>
	<path class="st0" d="M203.5-140.9h-4.1c-0.2,0-0.3-0.1-0.3-0.3v-0.3c0-0.2,0.1-0.3,0.3-0.3h4.1c0.2,0,0.3,0.1,0.3,0.3v0.3
		C203.8-141.1,203.7-140.9,203.5-140.9z"/>
</g>
<g>
	<path class="st0" d="M203.5-135.6h-4.1c-0.2,0-0.3-0.1-0.3-0.3v-0.3c0-0.2,0.1-0.3,0.3-0.3h4.1c0.2,0,0.3,0.1,0.3,0.3v0.3
		C203.9-135.8,203.7-135.6,203.5-135.6z"/>
</g>
<g>
	<path class="st0" d="M203.5-130.1h-4.1c-0.2,0-0.3-0.1-0.3-0.3v-0.4c0-0.2,0.1-0.3,0.3-0.3h4.1c0.2,0,0.3,0.1,0.3,0.3v0.3
		C203.8-130.3,203.7-130.1,203.5-130.1z"/>
</g>
<g>
	<g>
		<g>
			<path class="st0" d="M-136.4,87.6c-1.9,0.1-2.6-1.4-0.5-4.4c4.3-6,9-11.7,14.2-17.1c0.6-0.6,1.1-1.2,1.8-1.7
				c0.7-0.6,1.6-0.5,2.2,0.3c0.7,0.8,0.7,1.5,0,2.2c-8.1,8.2-5.2,6.2-13.5,16.2C-132.4,83.6-134,85.8-136.4,87.6z"/>
			<path class="st0" d="M-116,58.4c1.2,0,2.1,0.9,2.2,2.1c0,1.1-0.9,2.1-2,2.1c-1.2,0.1-2.1-0.8-2.2-2
				C-118,59.4-117.2,58.4-116,58.4z"/>
			<path class="st0" d="M-74,67.2c-1.1-0.1-2.1,0.2-3,0.8c-0.5,0.3-0.8,0.3-1.3,0c-0.7-0.5-1.2-0.4-1.8,0.3c-1.3,1.6-2.7,3.3-4,4.9
				c-1.9,2.3-4,4.3-6.4,6.1c-0.5,0.3-1,0.5-1.5,0.8c-0.1-0.1-0.1-0.1-0.2-0.2c0.3-0.9,0.9-1.6,1.5-2.3c1.5-1.7,3-3.3,4.5-5
				c0.4-0.5,0.8-1.1,1.1-1.7c0.5-0.9,0.6-1.9-0.1-2.8s-1.8-1.2-2.8-0.9c-1.4,0.4-2.6,1-4,1.6c-0.8-1.5-1.3-1.9-3.1-1.5
				c-1.3,0.3-2.4,0.8-3.7,1.3c-1-1.4-1.7-1.4-3-0.1c-0.7,0.7-1.4,1.5-2,2.2c-2.1,2.6-4.2,5.1-6.7,7.3c-0.7,0.6-1.4,1.2-2.2,1.7
				c-0.2,0.1-0.4,0.1-0.7,0.1c0-0.3-0.1-0.5-0.1-0.8c0.1-0.3,0.2-0.6,0.4-0.9c0.9-1.3,1.8-2.7,2.8-3.9c1.1-1.4,2.4-2.7,3.7-4
				c0.7-0.8,0.7-1.6-0.1-2.4c-0.7-0.7-1.4-0.6-2.1,0.1c-0.4,0.4-0.7,0.8-1.1,1.1c-2.3,2.5-4.6,5-7,7.4c-1.2,1.1-2.6,2-3.9,3
				c-0.3,0.2-0.7,0.2-1.1,0.4c0.2-1.4,0.9-2.3,1.7-3.2c1.9-2.2,3.9-4.4,5.8-6.6c0.2-0.3,0.5-0.6,0.5-1c0.1-0.8-0.2-1.3-0.9-1.7
				c-0.6-0.4-1.2-0.2-1.7,0.3c-1.9,2-3.9,4-5.6,6.2c-1,1.3-1.8,2.8-2.4,4.3c-0.5,1.1-0.4,2.4,0.6,3.3s2.2,1,3.4,0.5
				c1.1-0.5,2.2-1.2,3.2-1.9c0.2-0.1,0.5-0.3,0.7-0.5c0.2,2.3,2.7,3.7,5.6,1.9c0.2-0.1,6.5-6.5,10.6-9.7c1.1-0.8,2.2-1.3,2.7-1.6
				c0.5-0.3,1.5-0.3,2.1-0.5c0,0.1,0.1,0.1,0.1,0.2c-0.3,0.3-0.5,0.7-0.8,1c-2,2.5-4.1,4.9-6.1,7.4c-0.9,1.1-0.8,1.9,0,2.4
				c0.9,0.6,1.8,0.4,2.6-0.6c0.9-1.2,1.8-2.3,2.8-3.5c2-2.4,4.3-4.6,7-6.3c0.6-0.3,1.2-0.5,1.8-0.8c0,0.1,0.1,0.2,0.1,0.2
				c-0.2,0.3-0.4,0.5-0.7,0.8c-1.3,1.3-2.5,2.6-3.8,3.9c-1.2,1.3-2.3,2.7-2.8,4.6s0.7,3.4,2.6,3.4c0.1,0,0.3,0,0.6,0
				c-0.3,0.4-0.6,0.7-0.8,1.1c-2.1,2.9-1.9,3.1-4,6.1c-0.6,0.8-0.4,1.6,0.5,2.1s1.6,0.4,2.2-0.4c1.2-1.7,5.3-7.4,7.4-10
				c1.3,1.2,2.3,1.5,3.7,1.3c0.9-0.2,1.8-0.5,2.6-0.9c2.9-1.4,5.1-3.5,7-6c1.1-1.5,2.1-3,2.3-5C-70.9,68.8-72.1,67.4-74,67.2z
				 M-74.8,72.1c-1.9,2.9-4.2,5.4-7.1,7.2c-0.5,0.3-1.2,0.6-1.8,0.7c-0.2,0.1-0.7-0.1-0.8-0.2c-0.1-0.2-0.1-0.7,0.1-0.9
				c2.4-3,4.9-5.9,8-8.3c0.4-0.3,1-0.6,1.5-0.8c0.5-0.2,0.8,0.1,0.8,0.7C-74.3,71.1-74.5,71.6-74.8,72.1z"/>
			<path class="st0" d="M-28.8,73.4c-1.7,1.6-7,6.8-8.4,6.6c-1.4-0.2-0.3-1.5-0.1-2c0.3-0.5,0.6-1,0.9-1.5c1.5-2,3.2-4,4.8-6
				c0.4-0.4,0.5-1.1,0.2-1.6c-0.3-0.6-1-0.9-1.7-1.1s-1.3-0.4-2-0.6c0.2-0.5,0.3-0.9,0.4-1.3c0.2-1.2-0.9-2.2-2-1.8
				c-0.8,0.3-1.4,0.9-1.3,1.7c0.1,1.2-0.6,1.8-1.3,2.6c-0.5,0.6-1,1.2-1.6,1.8c-2.6,3-5.2,6-8.3,8.5c-0.6,0.5-1.3,0.9-2,1.4
				c-0.1-0.1-0.2-0.1-0.2-0.2c0-0.3,0-0.5,0.1-0.8c0.4-0.9,0.8-1.8,1.3-2.6c1.3-1.7,2.7-3.4,4.1-5.1c0.8-0.9,0.7-1.8-0.3-2.4
				c-0.3-0.2-0.7-0.3-1.1-0.4c-0.7-0.2-1.3-0.4-2-0.5c0.2-0.5,0.3-0.9,0.4-1.3c0.1-0.8-0.3-1.5-1-1.8s-1.5-0.1-1.9,0.6
				c-0.2,0.4-0.4,0.8-0.4,1.2c0.1,0.9-0.4,1.5-1,2.1c-1.7,1.8-3.4,3.8-5.2,5.5c-1.9,1.8-3.9,3.4-6.3,4.6c-1,0.5-2.1,0.9-3.3,0.7
				c-0.7-0.1-1.4-0.4-1.5-1.1s0.2-1.4,0.3-2c0-0.1,0.3-0.2,0.5-0.1c2.4,0.7,4.5,0,6.5-1.2c1.9-1.1,3.6-2.6,4.4-4.8
				c0.7-1.7,0-3-1.8-3.4c-0.9-0.2-1.9-0.1-2.8,0.1c-2.9,0.7-5.1,2.4-7.1,4.5c-1.4,1.4-2.5,3-3,5c-0.8,3,0.9,5.4,4,5.7
				c1.9,0.2,3.7-0.4,5.4-1.2c3.1-1.5,5.6-3.9,8-6.2c1.6-1.5,3-3.2,4.5-4.9l1.1,0.6c-0.6,0.8-1.2,1.5-1.7,2.2
				c-1.3,1.6-2.5,3.2-3.1,5.2c-0.4,1.3-0.4,2.6,0.7,3.6c0.9,0.9,2.1,1,3.3,0.6c0.6-0.2,1.3-0.5,1.7-0.9c2.4-2.3,4.7-4.5,7-6.9
				c1.7-1.7,3.3-3.6,4.9-5.4l1.2,0.7c-0.9,1.2-1.8,2.4-2.7,3.5c-1.3,1.6-2.5,3.3-2.9,5.4c-0.5,2.5,1.4,4.4,3.9,3.7
				c0.9-0.3,1.9-0.8,2.6-1.5c0,0,4.9-5.5,6.4-7.1C-27.5,73.7-28.3,72.9-28.8,73.4z M-60.3,69.9c0.1,2-4.1,4.9-6.9,4.6
				C-65.1,72.4-63,70.7-60.3,69.9z"/>
			<g>
				<path class="st0" d="M-147.2,90.5c6.5,1,12.2-2.2,14.8-8.2c0.8-2-2-2-3.4-0.4c-1.9,2.2-2.4,3.1-4.4,4.2c-2,1-3.8,1.6-6.1,1.2
					C-148.4,86.9-149.3,90.1-147.2,90.5L-147.2,90.5z"/>
			</g>
		</g>
	</g>
</g>
<g>
	<g>
		<path class="st0" d="M-142.6,98.7c-0.1-0.2-0.3-0.3-0.6-0.5c-0.2-0.2-0.5-0.3-0.8-0.4c-0.3-0.1-0.6-0.2-1-0.3
			c-0.4-0.1-0.7-0.1-1.1-0.1c-1,0-1.8,0.2-2.2,0.6c-0.5,0.4-0.7,0.9-0.7,1.6c0,0.4,0.1,0.7,0.2,0.9c0.1,0.2,0.3,0.4,0.6,0.6
			s0.7,0.3,1.1,0.4c0.4,0.1,0.9,0.3,1.5,0.4c0.7,0.1,1.3,0.3,1.8,0.5s1,0.4,1.4,0.7c0.4,0.3,0.7,0.6,0.9,1c0.2,0.4,0.3,0.9,0.3,1.5
			s-0.1,1.2-0.4,1.6c-0.2,0.5-0.6,0.8-1,1.1c-0.4,0.3-0.9,0.5-1.5,0.7c-0.6,0.2-1.2,0.2-1.9,0.2c-1,0-2-0.2-2.9-0.5
			s-1.7-0.8-2.5-1.4l0.8-1.4c0.2,0.2,0.5,0.4,0.8,0.6c0.3,0.2,0.7,0.4,1.1,0.6s0.8,0.3,1.3,0.4s0.9,0.2,1.5,0.2
			c0.9,0,1.7-0.2,2.2-0.5s0.8-0.8,0.8-1.5c0-0.4-0.1-0.7-0.2-0.9c-0.2-0.3-0.4-0.5-0.7-0.7s-0.7-0.3-1.2-0.5c-0.5-0.1-1-0.3-1.6-0.4
			c-0.7-0.2-1.3-0.3-1.8-0.5s-0.9-0.4-1.3-0.7c-0.3-0.3-0.6-0.6-0.8-0.9s-0.3-0.8-0.3-1.3c0-0.6,0.1-1.2,0.4-1.7
			c0.2-0.5,0.6-0.9,1-1.2c0.4-0.3,0.9-0.6,1.5-0.7c0.6-0.2,1.2-0.2,1.9-0.2c0.9,0,1.7,0.1,2.4,0.4c0.7,0.3,1.4,0.6,1.9,1.1
			L-142.6,98.7z"/>
		<path class="st0" d="M-118.5,97.5h-4.5v11.7h-1.7V97.5h-4.5V96h10.7V97.5z"/>
		<path class="st0" d="M-100.1,107.7c0.8,0,1.4-0.1,1.9-0.4s0.9-0.7,1.2-1.2c0.3-0.5,0.5-1,0.6-1.6s0.2-1.2,0.2-1.9V96h1.7v6.6
			c0,0.9-0.1,1.7-0.3,2.5c-0.2,0.8-0.5,1.5-1,2.1c-0.4,0.6-1,1.1-1.7,1.4s-1.6,0.5-2.6,0.5s-1.9-0.2-2.6-0.6s-1.3-0.9-1.7-1.5
			s-0.8-1.3-0.9-2.1c-0.2-0.8-0.3-1.6-0.3-2.5v-6.6h1.7v6.6c0,0.7,0.1,1.3,0.2,1.9s0.3,1.2,0.6,1.6c0.3,0.5,0.7,0.8,1.2,1.1
			C-101.5,107.6-100.9,107.7-100.1,107.7z"/>
		<path class="st0" d="M-80.5,109.1V96h4.6c1,0,2,0.2,2.8,0.5s1.5,0.8,2,1.4s0.9,1.3,1.2,2.1c0.3,0.8,0.4,1.6,0.4,2.5
			c0,1-0.1,1.9-0.4,2.7c-0.3,0.8-0.7,1.5-1.3,2.1c-0.6,0.6-1.2,1-2,1.3s-1.7,0.5-2.6,0.5H-80.5z M-71.2,102.5c0-0.7-0.1-1.4-0.3-2
			c-0.2-0.6-0.5-1.2-0.9-1.6s-0.9-0.8-1.5-1c-0.6-0.3-1.2-0.4-2-0.4h-2.9v10.2h2.9c0.8,0,1.4-0.1,2-0.4s1.1-0.6,1.5-1.1
			s0.7-1,0.9-1.6C-71.3,103.9-71.2,103.3-71.2,102.5z"/>
		<path class="st0" d="M-56.1,109.1V96h1.7v13.1H-56.1z"/>
		<path class="st0" d="M-34.9,109.2c-0.9,0-1.8-0.2-2.5-0.6c-0.8-0.4-1.4-0.9-2-1.5c-0.5-0.6-1-1.3-1.3-2.1
			c-0.3-0.8-0.4-1.6-0.4-2.5s0.2-1.7,0.5-2.5s0.7-1.5,1.3-2.1s1.2-1.1,2-1.5s1.6-0.5,2.5-0.5s1.8,0.2,2.5,0.6
			c0.8,0.4,1.4,0.9,1.9,1.5s1,1.3,1.3,2.1c0.3,0.8,0.4,1.6,0.4,2.4c0,0.9-0.2,1.7-0.5,2.5s-0.7,1.5-1.3,2.1c-0.5,0.6-1.2,1.1-2,1.5
			C-33.2,109-34,109.2-34.9,109.2z M-39.4,102.5c0,0.7,0.1,1.3,0.3,1.9s0.5,1.2,0.9,1.7s0.9,0.9,1.4,1.1c0.6,0.3,1.2,0.4,1.8,0.4
			c0.7,0,1.3-0.2,1.9-0.5c0.6-0.3,1-0.7,1.4-1.2s0.7-1,0.9-1.7c0.2-0.6,0.3-1.2,0.3-1.9c0-0.7-0.1-1.3-0.3-1.9s-0.5-1.2-0.9-1.6
			s-0.9-0.9-1.4-1.1c-0.5-0.3-1.2-0.4-1.8-0.4c-0.7,0-1.3,0.1-1.9,0.4s-1,0.7-1.4,1.2s-0.7,1-0.9,1.6
			C-39.3,101.3-39.4,101.9-39.4,102.5z"/>
	</g>
</g>
<g>
	<path class="st0" d="M-80.7,51.1c-14,0-25.5-11.4-25.5-25.5S-94.8,0.1-80.7,0.1s25.5,11.4,25.5,25.5S-66.7,51.1-80.7,51.1z
		 M-80.7,1.2c-13.5,0-24.4,11-24.4,24.4S-94.1,50-80.7,50s24.4-11,24.4-24.4S-67.3,1.2-80.7,1.2z"/>
</g>
<g>
	<path class="st0" d="M215.8-113.4c-14,0-25.5-11.4-25.5-25.5s11.4-25.5,25.5-25.5c14.1,0,25.5,11.4,25.5,25.5
		S229.8-113.4,215.8-113.4z M215.8-163.3c-13.5,0-24.4,11-24.4,24.4s11,24.4,24.4,24.4c13.4,0,24.4-11,24.4-24.4
		S229.2-163.3,215.8-163.3z"/>
</g>
<g>
	<path class="st0" d="M-176.4-29.7c-14,0-25.5-11.4-25.5-25.5s11.4-25.5,25.5-25.5c14.1,0,25.5,11.4,25.5,25.5
		S-162.4-29.7-176.4-29.7z M-176.4-79.6c-13.5,0-24.4,11-24.4,24.4s11,24.4,24.4,24.4c13.4,0,24.4-11,24.4-24.4
		S-163-79.6-176.4-79.6z"/>
</g>
<g>
	<path class="st0" d="M45.8,51c-14,0-25.5-11.4-25.5-25.5S31.7,0,45.8,0s25.5,11.4,25.5,25.5S59.8,51,45.8,51z M45.8,1.1
		c-13.5,0-24.4,11-24.4,24.4s11,24.4,24.4,24.4s24.4-11,24.4-24.4S59.2,1.1,45.8,1.1z"/>
</g>
<g>
	<path class="st0" d="M380.5,52.1c-14,0-25.5-11.4-25.5-25.5s11.4-25.5,25.5-25.5c14.1,0,25.5,11.4,25.5,25.5S394.5,52.1,380.5,52.1
		z M380.5,2.2c-13.5,0-24.4,11-24.4,24.4s11,24.4,24.4,24.4c13.4,0,24.4-11,24.4-24.4S393.9,2.2,380.5,2.2z"/>
</g>
<g>
	<g>
		<path class="st0" d="M-98.1,43.3L-98.1,43.3c-0.4-0.1-0.6-0.3-0.5-0.6c0.6-3.7,5.2-5.8,5.3-5.8h0.1l4.4-1.2
			c0.3-0.1,0.6,0.1,0.7,0.4c0.1,0.3-0.1,0.6-0.4,0.7l-4.3,1.2c-0.4,0.2-4.2,2-4.7,5C-97.6,43.1-97.8,43.3-98.1,43.3z"/>
	</g>
	<g>
		<path class="st0" d="M-62.7,43L-62.7,43c-0.4-0.1-0.6-0.3-0.5-0.6c0-0.1,0.5-2.8-3.2-4.2l-5.4-1.7c-0.3-0.1-0.4-0.4-0.3-0.7
			s0.4-0.4,0.7-0.3l5.4,1.7c4.6,1.7,3.9,5.4,3.9,5.4C-62.2,42.8-62.5,43-62.7,43z"/>
	</g>
	<g>
		<path class="st0" d="M-70.2,44.7h-2.4c-0.3,0-0.5-0.2-0.5-0.5s0.2-0.5,0.5-0.5h2.4c0.3,0,0.5,0.2,0.5,0.5
			C-69.7,44.4-70,44.7-70.2,44.7z"/>
	</g>
	<g>
		<circle class="st0" cx="-91" cy="44.7" r="0.6"/>
	</g>
	<g>
		<circle class="st0" cx="-66.9" cy="44.1" r="0.6"/>
	</g>
	<g>
		<path class="st0" d="M-85.1,11.6c-0.1,0-0.3-0.1-0.4-0.2l-2.8-2.8c-0.2-0.2-0.2-0.5,0-0.8c0.2-0.2,0.5-0.2,0.8,0l2.8,2.8
			c0.2,0.2,0.2,0.5,0,0.8C-84.8,11.6-85,11.6-85.1,11.6z"/>
	</g>
	<g>
		<path class="st0" d="M-80.1,10.7c-0.3,0-0.5-0.2-0.5-0.5V6.8c0-0.3,0.2-0.5,0.5-0.5s0.5,0.2,0.5,0.5v3.4
			C-79.6,10.5-79.8,10.7-80.1,10.7z"/>
	</g>
	<g>
		<path class="st0" d="M-75.2,11.6c-0.1,0-0.3-0.1-0.4-0.2c-0.2-0.2-0.2-0.5,0-0.8l2.8-2.8c0.2-0.2,0.5-0.2,0.8,0
			c0.2,0.2,0.2,0.5,0,0.8l-2.8,2.8C-74.9,11.6-75,11.6-75.2,11.6z"/>
	</g>
	<g>
		<path class="st0" d="M-80.3,25.2c-1.2,0-2.3-1-2.3-2.3s1-2.3,2.3-2.3c1.2,0,2.3,1,2.3,2.3S-79.1,25.2-80.3,25.2z M-80.3,21.7
			c-0.7,0-1.2,0.5-1.2,1.2s0.5,1.2,1.2,1.2s1.2-0.5,1.2-1.2S-79.7,21.7-80.3,21.7z"/>
	</g>
	<g>
		<path class="st0" d="M-75.8,35.9h-3.7v-7.2c0-0.2-0.2-0.4-0.4-0.4c-0.2,0-0.4,0.2-0.4,0.4v7.2H-84c-0.4,0-0.7-0.3-0.7-0.7
			c0-2.3-0.9-4.5-2.5-6.2c-2.5-2.6-4.3-7.2-1.6-12.4c0.8-1.5,2-2.7,3.5-3.5c1.8-0.9,3.6-1.4,5.4-1.4c1.9,0,3.7,0.5,5.3,1.5
			c3.1,1.9,4.9,5.1,4.9,8.7c0,2.7-1,5.2-2.9,7.2l0,0c-1.6,1.6-2.5,3.8-2.5,6.2C-75.1,35.6-75.4,35.9-75.8,35.9z M-78.5,34.8h2.3
			c0.1-2.5,1.1-4.8,2.8-6.5l0,0c1.7-1.7,2.6-4,2.6-6.4c0-3.2-1.7-6.2-4.4-7.8c-2.9-1.7-6.4-1.7-9.6,0c-1.3,0.7-2.3,1.7-3,3.1
			c-2.4,4.7-0.9,8.9,1.4,11.2c1.7,1.7,2.7,4.1,2.8,6.5h2.3v-6.1c0-0.8,0.6-1.4,1.4-1.4s1.4,0.6,1.4,1.4L-78.5,34.8L-78.5,34.8z
			 M-73,28.6L-73,28.6L-73,28.6z"/>
	</g>
	<g>
		<path class="st0" d="M-77.5,40.9h-4.7c-1.1,0-2-0.9-2-2v-3.7h8.7v3.7C-75.5,40-76.4,40.9-77.5,40.9z M-83.2,36.2v2.7
			c0,0.5,0.4,1,1,1h4.7c0.5,0,1-0.4,1-1v-2.7H-83.2z"/>
	</g>
</g>
<g>
	<path class="st0" d="M22.8-68.7c-0.6-0.7-1.5-0.9-2.2-0.3c-0.6,0.5-1.2,1.1-1.8,1.7C14-62.2,9.5-56.8,5.4-51.2
		c-1.6,1.9-2.2,2.8-4.1,3.8c-2,1-3.8,1.6-6.1,1.2c-2.1-0.3-3,2.9-0.9,3.2c4.5,0.7,8.6-0.6,11.6-3.5c1.9-1.7,3.2-3.5,3.4-3.9
		c8.3-9.9,5.4-7.9,13.5-16.2C23.4-67.2,23.4-67.9,22.8-68.7z"/>
	<path class="st0" d="M25.6-70.9c1.1,0,2-1,2-2.1c0-1.2-1-2.1-2.2-2.1s-2.1,1-2,2.2C23.5-71.7,24.5-70.8,25.6-70.9z"/>
	<path class="st0" d="M67.5-66.2c-1.1-0.1-2.1,0.2-3,0.8c-0.5,0.3-0.8,0.3-1.3,0c-0.7-0.5-1.2-0.4-1.8,0.3c-1.3,1.6-2.7,3.3-4,4.9
		c-1.9,2.3-4,4.3-6.4,6.1c-0.5,0.3-1,0.5-1.5,0.8c-0.1-0.1-0.1-0.1-0.2-0.2c0.3-0.9,0.9-1.6,1.5-2.3c1.5-1.7,3-3.3,4.5-5
		c0.4-0.5,0.8-1.1,1.1-1.7c0.5-0.9,0.6-1.9-0.1-2.8s-1.8-1.2-2.8-0.9c-1.4,0.4-2.6,1-4,1.6c-0.8-1.5-1.3-1.9-3.1-1.5
		c-1.3,0.3-2.4,0.8-3.7,1.3c-1-1.4-1.7-1.4-3-0.1c-0.7,0.7-1.4,1.5-2,2.2c-2.1,2.6-4.2,5.1-6.7,7.3c-0.7,0.6-1.4,1.2-2.2,1.7
		c-0.2,0.1-0.4,0.1-0.7,0.1c0-0.3-0.1-0.5-0.1-0.8c0.1-0.3,0.2-0.6,0.4-0.9c0.9-1.3,1.8-2.7,2.8-3.9c1.1-1.4,2.4-2.7,3.7-4
		c0.7-0.8,0.7-1.6-0.1-2.4c-0.7-0.7-1.4-0.6-2.1,0.1c-0.4,0.4-0.7,0.8-1.1,1.1c-2.3,2.5-4.6,5-7,7.4c-1.2,1.1-2.6,2-3.9,3
		c-0.3,0.2-0.7,0.2-1.1,0.4c0.2-1.4,0.9-2.3,1.7-3.2c1.9-2.2,3.9-4.4,5.8-6.6c0.2-0.3,0.5-0.6,0.5-1c0.1-0.8-0.2-1.3-0.9-1.7
		c-0.6-0.4-1.2-0.2-1.7,0.3c-1.9,2-3.9,4-5.6,6.2c-1,1.3-1.8,2.8-2.4,4.3c-0.5,1.1-0.4,2.4,0.6,3.3s2.2,1,3.4,0.5
		c1.1-0.5,2.2-1.2,3.2-1.9c0.2-0.1,0.5-0.3,0.7-0.5c0.2,2.3,2.7,3.7,5.6,1.9c0.2-0.1,6.5-6.5,10.6-9.7c1.1-0.8,2.2-1.3,2.7-1.6
		c0.5-0.3,1.5-0.3,2.1-0.5c0,0.1,0.1,0.1,0.1,0.2c-0.3,0.3-0.5,0.7-0.8,1c-2,2.5-4.1,4.9-6.1,7.4c-0.9,1.1-0.8,1.9,0,2.4
		c0.9,0.6,1.8,0.4,2.6-0.6c0.9-1.2,1.8-2.3,2.8-3.5c2-2.4,4.3-4.6,7-6.3c0.6-0.3,1.2-0.5,1.8-0.8c0,0.1,0.1,0.2,0.1,0.2
		c-0.2,0.3-0.4,0.5-0.7,0.8c-1.3,1.3-2.5,2.6-3.8,3.9c-1.2,1.3-2.3,2.7-2.8,4.6s0.7,3.4,2.6,3.4c0.1,0,0.3,0,0.6,0
		c-0.3,0.4-0.6,0.7-0.8,1.1c-2.1,2.9-1.9,3.1-4,6.1c-0.6,0.8-0.4,1.6,0.5,2.1s1.6,0.4,2.2-0.4c1.2-1.7,5.3-7.4,7.4-10
		c1.3,1.2,2.3,1.5,3.7,1.3c0.9-0.2,1.8-0.5,2.6-0.9c2.9-1.4,5.1-3.5,7-6c1.1-1.5,2.1-3,2.3-5C70.6-64.7,69.4-66.1,67.5-66.2z
		 M66.7-61.4c-1.9,2.9-4.2,5.4-7.1,7.2c-0.5,0.3-1.2,0.6-1.8,0.7c-0.2,0.1-0.7-0.1-0.8-0.2c-0.1-0.2-0.1-0.7,0.1-0.9
		c2.4-3,4.9-5.9,8-8.3c0.4-0.3,1-0.6,1.5-0.8c0.5-0.2,0.8,0.1,0.8,0.7C67.2-62.4,67-61.9,66.7-61.4z"/>
	<path class="st0" d="M112.7-60c-1.7,1.6-7,6.8-8.4,6.6c-1.4-0.2-0.3-1.5-0.1-2c0.3-0.5,0.6-1,0.9-1.5c1.5-2,3.2-4,4.8-6
		c0.4-0.4,0.5-1.1,0.2-1.6c-0.3-0.6-1-0.9-1.7-1.1s-1.3-0.4-2-0.6c0.2-0.5,0.3-0.9,0.4-1.3c0.2-1.2-0.9-2.2-2-1.8
		c-0.8,0.3-1.4,0.9-1.3,1.7c0.1,1.2-0.6,1.8-1.3,2.6c-0.5,0.6-1,1.2-1.6,1.8c-2.6,3-5.2,6-8.3,8.5c-0.6,0.5-1.3,0.9-2,1.4
		c-0.1-0.1-0.2-0.1-0.2-0.2c0-0.3,0-0.5,0.1-0.8c0.4-0.9,0.8-1.8,1.3-2.6c1.3-1.7,2.7-3.4,4.1-5.1c0.8-0.9,0.7-1.8-0.3-2.4
		c-0.3-0.2-0.7-0.3-1.1-0.4c-0.7-0.2-1.3-0.4-2-0.5c0.2-0.5,0.3-0.9,0.4-1.3c0.1-0.8-0.3-1.5-1-1.8s-1.5-0.1-1.9,0.6
		c-0.2,0.4-0.4,0.8-0.4,1.2c0.1,0.9-0.4,1.5-1,2.1c-1.7,1.8-3.4,3.8-5.2,5.5c-1.9,1.8-3.9,3.4-6.3,4.6c-1,0.5-2.1,0.9-3.3,0.7
		c-0.7-0.1-1.4-0.4-1.5-1.1s0.2-1.4,0.3-2c0-0.1,0.3-0.2,0.5-0.1c2.4,0.7,4.5,0,6.5-1.2c1.9-1.1,3.6-2.6,4.4-4.8
		c0.7-1.7,0-3-1.8-3.4c-0.9-0.2-1.9-0.1-2.8,0.1c-2.9,0.7-5.1,2.4-7.1,4.5c-1.4,1.4-2.5,3-3,5c-0.8,3,0.9,5.4,4,5.7
		c1.9,0.2,3.7-0.4,5.4-1.2c3.1-1.5,5.6-3.9,8-6.2c1.6-1.5,3-3.2,4.5-4.9l1.1,0.6c-0.6,0.8-1.2,1.5-1.7,2.2c-1.3,1.6-2.5,3.2-3.1,5.2
		c-0.4,1.3-0.4,2.6,0.7,3.6c0.9,0.9,2.1,1,3.3,0.6c0.6-0.2,1.3-0.5,1.7-0.9c2.4-2.3,4.7-4.5,7-6.9c1.7-1.7,3.3-3.6,4.9-5.4l1.2,0.7
		c-0.9,1.2-1.8,2.4-2.7,3.5c-1.3,1.6-2.5,3.3-2.9,5.4c-0.5,2.5,1.4,4.4,3.9,3.7c0.9-0.3,1.9-0.8,2.6-1.5c0,0,4.9-5.5,6.4-7.1
		C113.9-59.8,113.2-60.5,112.7-60z M81.2-63.6c0.1,2-4.1,4.9-6.9,4.6C76.4-61,78.4-62.8,81.2-63.6z"/>
</g>
<g>
	<path class="st0" d="M13.8-34.7c-0.1-0.2-0.3-0.3-0.6-0.5c-0.2-0.2-0.5-0.3-0.8-0.4s-0.6-0.2-1-0.3C11-36,10.7-36,10.3-36
		c-1,0-1.8,0.2-2.2,0.6c-0.5,0.4-0.7,0.9-0.7,1.6c0,0.4,0.1,0.7,0.2,0.9c0.1,0.2,0.3,0.4,0.6,0.6c0.3,0.2,0.7,0.3,1.1,0.4
		s0.9,0.3,1.5,0.4c0.7,0.1,1.3,0.3,1.8,0.5s1,0.4,1.4,0.7c0.4,0.3,0.7,0.6,0.9,1s0.3,0.9,0.3,1.5s-0.1,1.2-0.4,1.6
		c-0.2,0.5-0.6,0.8-1,1.1c-0.4,0.3-0.9,0.5-1.5,0.7s-1.2,0.2-1.9,0.2c-1,0-2-0.2-2.9-0.5S5.8-25.5,5-26.1l0.8-1.4
		c0.2,0.2,0.5,0.4,0.8,0.6s0.7,0.4,1.1,0.6C8.1-26.1,8.5-26,9-25.9s0.9,0.2,1.5,0.2c0.9,0,1.7-0.2,2.2-0.5s0.8-0.8,0.8-1.5
		c0-0.4-0.1-0.7-0.2-0.9c-0.2-0.3-0.4-0.5-0.7-0.7s-0.7-0.3-1.2-0.5c-0.5-0.1-1-0.3-1.6-0.4c-0.7-0.2-1.3-0.3-1.8-0.5
		s-0.9-0.4-1.3-0.7c-0.3-0.3-0.6-0.6-0.8-0.9s-0.3-0.8-0.3-1.3c0-0.6,0.1-1.2,0.4-1.7c0.2-0.5,0.6-0.9,1-1.2
		c0.4-0.3,0.9-0.6,1.5-0.7c0.6-0.2,1.2-0.2,1.9-0.2c0.9,0,1.7,0.1,2.4,0.4s1.4,0.6,1.9,1.1L13.8-34.7z"/>
	<path class="st0" d="M37.9-36h-4.5v11.7h-1.7V-36h-4.5v-1.5h10.7V-36z"/>
	<path class="st0" d="M53.6-37.5H55l5.4,13.1h-1.8L57-28.2h-5.4l-1.5,3.8h-1.8L53.6-37.5z M56.7-29.5l-2.4-6.1l-2.4,6.1H56.7z"/>
	<path class="st0" d="M73.3-24.3v-13.2h5.6c0.6,0,1.1,0.1,1.6,0.4c0.5,0.2,0.9,0.6,1.3,1s0.6,0.9,0.8,1.4c0.2,0.5,0.3,1,0.3,1.5
		s-0.1,0.9-0.2,1.3s-0.3,0.8-0.6,1.2c-0.2,0.3-0.5,0.6-0.9,0.9c-0.3,0.2-0.7,0.4-1.1,0.5l3.2,5h-1.9l-3-4.7h-3.5v4.7L73.3-24.3
		L73.3-24.3z M74.9-30.5h4c0.3,0,0.7-0.1,0.9-0.2c0.3-0.1,0.5-0.3,0.7-0.6s0.4-0.5,0.5-0.9c0.1-0.3,0.2-0.7,0.2-1
		c0-0.4-0.1-0.7-0.2-1s-0.3-0.6-0.5-0.9s-0.5-0.5-0.8-0.6s-0.6-0.2-0.9-0.2h-3.9C74.9-35.9,74.9-30.5,74.9-30.5z"/>
	<path class="st0" d="M105.9-36h-4.5v11.7h-1.7V-36h-4.5v-1.5h10.7V-36z"/>
</g>
<g>
	<g>
		<path class="st0" d="M65.2-94.9L65.2-94.9l-2-0.1l0.1-0.5c0.6-2.3,1-4.6,1-5.6c0.1-2.1-1.3-3.5-3.4-3.6c-2-0.1-3.5,1.3-3.6,3.4
			c0,1,0.2,3.4,0.7,5.7l0.1,0.5l-1.9-0.1c-1.8-0.1-3.4-1.4-3.8-3.2c-0.5-2.6-1.3-7.1-1.8-13.8c-0.3-3.6,0.6-6.9,2.5-10
			c1.7-2.7,4-4.7,5.6-5.9c1.7-1.3,4.1-1.2,5.8,0.2c1.1,0.9,2.1,2,3,3.1l0.6,0.7H68c0.5,0.7,1.3,1.9,1.6,2.4
			c1.7,3.2,2.4,6.6,1.9,10.1c-0.9,6.7-1.9,11.2-2.6,13.7C68.5-96.1,67-94.9,65.2-94.9z M64.3-95.8h0.8c1.4,0.1,2.7-0.9,3.1-2.3
			c0.7-2.5,1.7-7,2.6-13.6c0.4-3.3-0.2-6.6-1.8-9.6c-0.3-0.5-1.1-1.7-1.6-2.4l-0.1-0.1l-11-0.1c-0.4,0-1.1,0-1.1-0.7
			c0-0.2,0.1-0.4,0.2-0.5c0.2-0.1,0.6-0.1,0.9-0.1l10,0.2c-0.7-0.8-1.5-1.5-2.3-2.2c-1.3-1.1-3.3-1.2-4.7-0.1
			c-1.5,1.1-3.7,3.1-5.3,5.7c-1.8,2.9-2.6,6.1-2.3,9.5c0.5,6.7,1.3,11.2,1.8,13.7c0.3,1.4,1.5,2.4,2.9,2.5h0.8
			c-0.4-2.2-0.6-4.4-0.6-5.3c0.1-2.6,1.9-4.3,4.4-4.2s4.3,1.9,4.2,4.5C65.1-100.1,64.8-97.9,64.3-95.8z"/>
	</g>
</g>
<g>
	<g>
		<path class="st0" d="M60.4-89l-0.2-0.1c-0.6-0.3-1.6-2.1-2.4-6.3c-0.2-0.9-0.4-1.6-0.5-2.3c-0.4-1.6-0.6-2.5-0.5-3.5
			c0-1.4,0.5-2.5,1.5-3.2c0.7-0.6,1.7-0.9,2.8-0.9c1.1,0,2,0.4,2.7,1c0.9,0.8,1.3,1.9,1.3,3.3c0,0.9-0.3,1.7-0.7,3
			c-0.2,0.7-0.5,1.6-0.8,2.8c-1.1,4.2-2.2,5.9-2.9,6.2H60.4z M60.8-104.4c-0.8,0-1.6,0.2-2.1,0.7c-0.7,0.5-1.1,1.4-1.1,2.5
			c0,0.9,0.2,1.7,0.5,3.3c0.1,0.6,0.3,1.4,0.5,2.3c0.8,3.7,1.5,5.1,1.9,5.6c0.4-0.4,1.2-1.8,2.2-5.4c0.3-1.2,0.6-2.1,0.8-2.8
			c0.4-1.2,0.6-1.9,0.6-2.7c0-1.1-0.3-2-1-2.6c-0.6-0.5-1.3-0.8-2.2-0.8C60.9-104.4,60.9-104.4,60.8-104.4z"/>
	</g>
</g>
<g>
	<g>
		<path class="st0" d="M52.7-89.9L52.5-90c-0.6-0.3-1.6-2.1-2.4-6.2c-0.7-3.2-1-6.6-1-8c0-1.6,0.8-2.9,2.1-3.5l0.5-0.3l0.1,0.6
			c0.4,2.9,0.8,5.5,1.3,7.9c0.3,1.5,1.1,2.8,2.3,3.7l0.2,0.2l-0.1,0.3c-0.9,3.1-1.9,5.1-2.6,5.4L52.7-89.9z M51-106.6
			c-0.7,0.5-1,1.4-1.1,2.4c0,1.3,0.3,4.7,1,7.8c0.8,3.6,1.5,4.9,1.8,5.4c0.3-0.4,1-1.5,1.8-4.4c-1.2-1-2-2.4-2.3-4
			C51.8-101.5,51.4-103.9,51-106.6z"/>
	</g>
</g>
<g>
	<g>
		<path class="st0" d="M69.1-89.9L68.9-90c-0.8-0.3-1.7-2.3-2.6-5.4l-0.1-0.3l0.2-0.2c1.2-0.9,2-2.2,2.3-3.7
			c0.5-2.3,0.9-4.9,1.3-7.9l0.1-0.6l0.5,0.3c1.3,0.6,2,1.9,2.1,3.5c0,1.4-0.3,4.8-1,8c-0.9,4.1-1.8,5.9-2.4,6.2L69.1-89.9z
			 M67.2-95.3c0.8,2.8,1.5,4,1.8,4.4c0.3-0.5,1-1.8,1.8-5.4c0.7-3.1,1-6.5,1-7.8c0-1-0.4-1.9-1.1-2.4c-0.4,2.7-0.8,5.1-1.2,7.2
			C69.2-97.8,68.4-96.4,67.2-95.3z"/>
	</g>
</g>
<g>
	<g>
		<path class="st0" d="M55.7-82.9c-0.2,0-0.4-0.2-0.4-0.4v-12.1c0-0.2,0.2-0.4,0.4-0.4s0.4,0.2,0.4,0.4v12.1
			C56.2-83,56-82.9,55.7-82.9z"/>
	</g>
</g>
<g>
	<g>
		<path class="st0" d="M65.9-82.9c-0.2,0-0.4-0.2-0.4-0.4v-12c0-0.2,0.2-0.4,0.4-0.4s0.4,0.2,0.4,0.4v11.9
			C66.4-83.1,66.2-82.9,65.9-82.9z"/>
	</g>
</g>
<g>
	<g>
		<path class="st0" d="M63.4-89.2c-0.2,0-0.4-0.2-0.4-0.4v-3c0-0.2,0.2-0.4,0.4-0.4c0.2,0,0.4,0.2,0.4,0.4v3
			C63.9-89.4,63.7-89.2,63.4-89.2z"/>
	</g>
</g>
<g>
	<g>
		<path class="st0" d="M57.9-86c-0.2,0-0.4-0.2-0.4-0.4v-4.4c0-0.2,0.2-0.4,0.4-0.4c0.2,0,0.4,0.2,0.4,0.4v4.4
			C58.4-86.2,58.2-86,57.9-86z"/>
	</g>
</g>
<g>
	<g>
		<path class="st0" d="M61-108.2c-3.4,0-6.2-2.8-6.2-6.2c0-3.4,2.8-6.2,6.2-6.2c3.4,0,6.2,2.8,6.2,6.2C67.2-111,64.4-108.2,61-108.2
			z M61-119.8c-2.9,0-5.3,2.4-5.3,5.3c0,2.9,2.4,5.3,5.3,5.3s5.3-2.4,5.3-5.3C66.3-117.4,64-119.8,61-119.8z"/>
	</g>
</g>
<g>
	<g>
		<g>
			<path class="st0" d="M59.1-114.1c-0.2,0.1-0.3-0.2-0.2-0.3c1.8-1.1,3.8-2.2,4.1-1.8c0.5,0.5-1.1,2.7-4.1,5.6
				c-0.2,0.2-0.4-0.1-0.3-0.2c1.4-1.5,2.8-3.3,2.8-3.8C61.5-115.1,60.3-114.7,59.1-114.1z"/>
		</g>
	</g>
	<g>
		<g>
			<path class="st0" d="M62.2-116.5c0.4-0.1,0.7-0.5,0.6-0.9c-0.1-0.4-0.5-0.7-0.9-0.6c-0.4,0.1-0.7,0.5-0.6,0.9
				C61.4-116.7,61.8-116.5,62.2-116.5z"/>
		</g>
	</g>
</g>
<g>
	<path class="st0" d="M60.3-82.2c-14.3,0-26-11.7-26-26s11.7-26,26-26s26,11.7,26,26S74.6-82.2,60.3-82.2z M60.3-133.1
		c-13.7,0-24.9,11.2-24.9,24.9s11.2,24.9,24.9,24.9s24.9-11.2,24.9-24.9S74-133.1,60.3-133.1z"/>
</g>
<g>
	<path class="st0" d="M-210.2-3.8v-12.7h5.5c0.6,0,1.1,0.1,1.6,0.4c0.5,0.2,0.9,0.6,1.2,0.9c0.3,0.4,0.6,0.8,0.8,1.3
		c0.2,0.5,0.3,1,0.3,1.5c0,0.4-0.1,0.8-0.2,1.2c-0.1,0.4-0.3,0.8-0.5,1.1c-0.2,0.3-0.5,0.6-0.8,0.9c-0.3,0.2-0.7,0.4-1,0.5l3,4.8
		h-2.3l-2.8-4.4h-2.9v4.4L-210.2-3.8L-210.2-3.8z M-208.2-10h3.5c0.3,0,0.5-0.1,0.8-0.2s0.4-0.3,0.6-0.5c0.2-0.2,0.3-0.5,0.4-0.8
		c0.1-0.3,0.1-0.6,0.1-0.9s-0.1-0.6-0.2-0.9c-0.1-0.3-0.3-0.5-0.4-0.8c-0.2-0.2-0.4-0.4-0.6-0.5s-0.5-0.2-0.8-0.2h-3.4
		C-208.2-14.8-208.2-10-208.2-10z"/>
	<path class="st0" d="M-186-5.6v1.8h-8.7v-12.7h8.6v1.8h-6.5v3.5h5.7v1.7h-5.7v3.9H-186z"/>
	<path class="st0" d="M-180.4-3.8v-12.7h4.5c1,0,1.9,0.2,2.7,0.5c0.8,0.3,1.4,0.8,1.9,1.4s0.9,1.2,1.2,2c0.3,0.8,0.4,1.6,0.4,2.5
		c0,1-0.1,1.8-0.4,2.6s-0.7,1.4-1.2,2s-1.2,1-2,1.3s-1.6,0.5-2.6,0.5L-180.4-3.8L-180.4-3.8z M-171.7-10.2c0-0.7-0.1-1.3-0.3-1.8
		c-0.2-0.6-0.5-1-0.8-1.4c-0.4-0.4-0.8-0.7-1.3-0.9s-1.1-0.3-1.8-0.3h-2.5v9.2h2.5c0.7,0,1.3-0.1,1.8-0.3c0.5-0.2,1-0.6,1.3-1
		c0.4-0.4,0.6-0.9,0.8-1.5C-171.8-8.9-171.7-9.6-171.7-10.2z"/>
	<path class="st0" d="M-155.3-5.6v1.8h-8.7v-12.7h8.6v1.8h-6.5v3.5h5.7v1.7h-5.7v3.9H-155.3z"/>
	<path class="st0" d="M-142.4-13.6c-0.1-0.1-0.3-0.3-0.5-0.4s-0.5-0.3-0.8-0.4s-0.6-0.2-1-0.3c-0.4-0.1-0.7-0.1-1.1-0.1
		c-0.8,0-1.5,0.2-1.9,0.5c-0.4,0.3-0.6,0.7-0.6,1.3c0,0.3,0.1,0.6,0.2,0.8c0.1,0.2,0.3,0.4,0.6,0.5s0.6,0.3,1,0.4
		c0.4,0.1,0.9,0.2,1.4,0.4c0.6,0.2,1.2,0.3,1.7,0.5s1,0.4,1.3,0.7c0.4,0.3,0.6,0.6,0.8,1s0.3,0.9,0.3,1.5s-0.1,1.2-0.4,1.7
		c-0.2,0.5-0.6,0.8-1,1.1c-0.4,0.3-0.9,0.5-1.5,0.6c-0.6,0.1-1.2,0.2-1.8,0.2c-1,0-1.9-0.1-2.8-0.4c-0.9-0.3-1.7-0.7-2.4-1.3L-150-7
		c0.2,0.2,0.4,0.3,0.7,0.5s0.6,0.4,1,0.5c0.4,0.1,0.8,0.3,1.3,0.4s0.9,0.2,1.4,0.2c0.8,0,1.4-0.1,1.8-0.4c0.4-0.3,0.6-0.7,0.6-1.2
		c0-0.3-0.1-0.6-0.2-0.8c-0.1-0.2-0.4-0.4-0.7-0.6c-0.3-0.2-0.7-0.3-1.1-0.4c-0.4-0.1-0.9-0.3-1.5-0.4c-0.6-0.2-1.2-0.3-1.7-0.5
		s-0.9-0.4-1.2-0.7c-0.3-0.3-0.5-0.6-0.7-0.9s-0.2-0.8-0.2-1.3c0-0.6,0.1-1.2,0.4-1.7c0.2-0.5,0.6-0.9,1-1.2
		c0.4-0.3,0.9-0.6,1.5-0.7c0.6-0.2,1.2-0.2,1.8-0.2c0.9,0,1.7,0.1,2.4,0.4s1.4,0.6,1.9,1L-142.4-13.6z"/>
</g>
<g>
	<path class="st0" d="M-221.9,7.9c-0.1-0.1-0.3-0.3-0.5-0.4s-0.5-0.3-0.8-0.4s-0.6-0.2-1-0.3c-0.4-0.1-0.7-0.1-1.1-0.1
		c-0.8,0-1.5,0.2-1.9,0.5c-0.4,0.3-0.6,0.7-0.6,1.3c0,0.3,0.1,0.6,0.2,0.8c0.1,0.2,0.3,0.4,0.6,0.5c0.3,0.1,0.6,0.3,1,0.4
		c0.4,0.1,0.9,0.2,1.4,0.4c0.6,0.2,1.2,0.3,1.7,0.5s1,0.4,1.3,0.7c0.4,0.3,0.6,0.6,0.8,1c0.2,0.4,0.3,0.9,0.3,1.5s-0.1,1.2-0.4,1.7
		c-0.2,0.5-0.6,0.8-1,1.1c-0.4,0.3-0.9,0.5-1.5,0.6c-0.6,0.1-1.2,0.2-1.8,0.2c-1,0-1.9-0.1-2.8-0.4c-0.9-0.3-1.7-0.7-2.4-1.3
		l0.9-1.7c0.2,0.2,0.4,0.3,0.7,0.5c0.3,0.2,0.6,0.4,1,0.5c0.4,0.2,0.8,0.3,1.3,0.4s0.9,0.2,1.4,0.2c0.8,0,1.4-0.1,1.8-0.4
		c0.4-0.3,0.6-0.7,0.6-1.2c0-0.3-0.1-0.6-0.2-0.8s-0.4-0.4-0.7-0.6c-0.3-0.2-0.7-0.3-1.1-0.4s-0.9-0.3-1.5-0.4
		c-0.6-0.2-1.2-0.3-1.7-0.5s-0.9-0.4-1.2-0.7c-0.3-0.3-0.5-0.6-0.7-0.9c-0.2-0.4-0.2-0.8-0.2-1.3c0-0.6,0.1-1.2,0.4-1.7
		c0.2-0.5,0.6-0.9,1-1.2c0.4-0.3,0.9-0.6,1.5-0.7c0.6-0.1,1.2-0.3,1.8-0.3c0.9,0,1.7,0.1,2.4,0.4s1.4,0.6,1.9,1L-221.9,7.9z"/>
	<path class="st0" d="M-209.6,17.7c-0.9,0-1.7-0.2-2.5-0.5c-0.7-0.4-1.4-0.8-1.9-1.4s-1-1.3-1.2-2.1c-0.3-0.8-0.4-1.6-0.4-2.4
		s0.2-1.7,0.5-2.4c0.3-0.8,0.7-1.5,1.3-2.1c0.6-0.6,1.2-1.1,1.9-1.4c0.7-0.4,1.6-0.5,2.4-0.5c0.9,0,1.7,0.2,2.5,0.6
		c0.7,0.4,1.4,0.9,1.9,1.5s0.9,1.3,1.2,2.1c0.3,0.8,0.4,1.6,0.4,2.4s-0.2,1.7-0.5,2.4c-0.3,0.8-0.7,1.5-1.3,2
		c-0.6,0.5-1.2,1.1-1.9,1.4C-208,17.6-208.8,17.7-209.6,17.7z M-213.7,11.3c0,0.6,0.1,1.2,0.3,1.7c0.2,0.6,0.5,1.1,0.8,1.5
		c0.4,0.4,0.8,0.8,1.3,1c0.5,0.3,1.1,0.4,1.7,0.4c0.6,0,1.2-0.1,1.7-0.4s0.9-0.6,1.3-1.1c0.3-0.4,0.6-0.9,0.8-1.5
		c0.2-0.6,0.3-1.1,0.3-1.7s-0.1-1.2-0.3-1.7c-0.2-0.6-0.5-1-0.8-1.5c-0.4-0.4-0.8-0.8-1.3-1s-1-0.4-1.7-0.4c-0.6,0-1.2,0.1-1.7,0.4
		s-0.9,0.6-1.3,1c-0.4,0.4-0.6,0.9-0.8,1.5S-213.7,10.7-213.7,11.3z"/>
	<path class="st0" d="M-198.7,11.2c0-0.8,0.1-1.5,0.4-2.3c0.3-0.8,0.7-1.4,1.2-2s1.2-1.1,1.9-1.5c0.7-0.4,1.6-0.6,2.6-0.6
		c1.2,0,2.1,0.3,3,0.8c0.9,0.5,1.4,1.2,1.9,2l-1.6,1.1c-0.2-0.4-0.4-0.7-0.6-1c-0.2-0.3-0.5-0.5-0.8-0.6c-0.3-0.2-0.6-0.3-0.9-0.3
		c-0.3-0.1-0.6-0.1-0.9-0.1c-0.7,0-1.3,0.1-1.8,0.4s-0.9,0.6-1.3,1.1c-0.3,0.4-0.6,0.9-0.8,1.5c-0.2,0.6-0.3,1.1-0.3,1.6
		c0,0.6,0.1,1.2,0.3,1.8c0.2,0.6,0.5,1.1,0.9,1.5c0.4,0.4,0.8,0.8,1.3,1s1,0.4,1.6,0.4c0.3,0,0.6,0,1-0.1c0.3-0.1,0.6-0.2,0.9-0.4
		c0.3-0.2,0.6-0.4,0.8-0.7c0.3-0.3,0.5-0.6,0.6-0.9l1.7,0.9c-0.2,0.5-0.5,0.9-0.9,1.3c-0.4,0.4-0.8,0.7-1.3,0.9
		c-0.5,0.2-1,0.4-1.5,0.6c-0.5,0.1-1,0.2-1.5,0.2c-0.9,0-1.7-0.2-2.5-0.6c-0.7-0.4-1.4-0.9-1.9-1.5s-1-1.3-1.3-2.1
		C-198.5,12.8-198.7,12-198.7,11.2z"/>
	<path class="st0" d="M-182.1,17.6V4.9h2v12.7H-182.1z"/>
	<path class="st0" d="M-169.9,4.9h1.8l5,12.7h-2.1l-1.3-3.5h-4.9l-1.3,3.5h-2.1L-169.9,4.9z M-166.9,12.7l-2-5.5l-2.1,5.5H-166.9z"
		/>
	<path class="st0" d="M-157.9,17.6V4.9h2v10.9h6.8v1.8C-149.1,17.6-157.9,17.6-157.9,17.6z"/>
	<path class="st0" d="M-135.2,15.9v1.8h-8.7V5h8.6v1.8h-6.5v3.6h5.7v1.7h-5.7V16h6.6V15.9z"/>
	<path class="st0" d="M-122.3,7.9c-0.1-0.1-0.3-0.3-0.5-0.4s-0.5-0.3-0.8-0.4s-0.6-0.2-1-0.3c-0.4-0.1-0.7-0.1-1.1-0.1
		c-0.8,0-1.5,0.2-1.9,0.5s-0.6,0.7-0.6,1.3c0,0.3,0.1,0.6,0.2,0.8c0.1,0.2,0.3,0.4,0.6,0.5s0.6,0.3,1,0.4s0.9,0.2,1.4,0.4
		c0.6,0.2,1.2,0.3,1.7,0.5s1,0.4,1.3,0.7c0.4,0.3,0.6,0.6,0.8,1s0.3,0.9,0.3,1.5s-0.1,1.2-0.4,1.7c-0.2,0.5-0.6,0.8-1,1.1
		c-0.4,0.3-0.9,0.5-1.5,0.6s-1.2,0.2-1.8,0.2c-1,0-1.9-0.1-2.8-0.4c-0.9-0.3-1.7-0.7-2.4-1.3l0.9-1.7c0.2,0.2,0.4,0.3,0.7,0.5
		s0.6,0.4,1,0.5c0.4,0.2,0.8,0.3,1.3,0.4s0.9,0.2,1.4,0.2c0.8,0,1.4-0.1,1.8-0.4s0.6-0.7,0.6-1.2c0-0.3-0.1-0.6-0.2-0.8
		s-0.4-0.4-0.7-0.6s-0.7-0.3-1.1-0.4c-0.4-0.1-0.9-0.3-1.5-0.4c-0.6-0.2-1.2-0.3-1.7-0.5c-0.5-0.2-0.9-0.4-1.2-0.7
		c-0.3-0.3-0.5-0.6-0.7-0.9c-0.2-0.4-0.2-0.8-0.2-1.3c0-0.6,0.1-1.2,0.4-1.7c0.2-0.5,0.6-0.9,1-1.2c0.4-0.3,0.9-0.6,1.5-0.7
		c0.6-0.1,1.2-0.3,1.8-0.3c0.9,0,1.7,0.1,2.4,0.4s1.4,0.6,1.9,1L-122.3,7.9z"/>
</g>
<path class="st1" d="M-169.5-63.2c-0.1,0-0.9-0.1-1-0.1c-2.3,0-2.6-0.5-2.6-4c-0.1-1.1-0.3-3.1,0.6-4H-186v33.2h17.3v-25.1
	C-168.9-63.2-169.1-63.2-169.5-63.2z"/>
<circle class="st1" cx="-177" cy="-40.9" r="1.6"/>
<line class="st1" x1="-186.2" y1="-43.9" x2="-168.7" y2="-43.9"/>
<circle class="st1" cx="-168.9" cy="-67.7" r="2.1"/>
<circle class="st1" cx="-166.4" cy="-70.3" r="0.3"/>
<g>
	<path class="st1" d="M-166.7-63.3h-4.1c-1.3,0-2.2-0.8-2.2-2.1l-0.1-4.4c0-1.3,1.1-2.3,2.3-2.3h4.1c1.3,0,2.3,1.1,2.3,2.3v4.1
		C-164.4-64.3-165.5-63.3-166.7-63.3z"/>
</g>
<g id="Icons_1_">
	<path class="st0" d="M-174.7-61.2l-0.1,1.6c0,0-0.2,0-0.9,0c-0.7,0-0.7,0.6-0.7,0.6v1.4h1.7l-0.3,1.8h-1.4l-0.1,3.7h-1.7l-0.1-3.6
		h-1.5l0.1-1.8h1.5v-1.3c0-0.5,0.1-1.1,0.4-1.5c0.3-0.4,0.6-0.6,1.1-0.7C-176.8-61.1-175.9-61.4-174.7-61.2z"/>
</g>
<g>
	<path class="st0" d="M8.1,76.3V63.9h4.4c1,0,1.9,0.2,2.6,0.5c0.7,0.3,1.4,0.8,1.9,1.3c0.5,0.5,0.9,1.2,1.2,2
		c0.3,0.8,0.4,1.6,0.4,2.4c0,0.9-0.2,1.8-0.4,2.5c-0.3,0.8-0.7,1.4-1.2,2c-0.5,0.5-1.2,0.9-1.9,1.2c-0.7,0.3-1.6,0.5-2.5,0.5
		L8.1,76.3L8.1,76.3z M16.4,70.1c0-0.6-0.1-1.2-0.2-1.8c-0.2-0.5-0.5-1-0.8-1.4s-0.8-0.7-1.2-0.9c-0.5-0.2-1.1-0.3-1.7-0.3H10v8.9
		h2.4c0.6,0,1.2-0.1,1.7-0.3c0.5-0.2,0.9-0.5,1.2-0.9c0.3-0.4,0.6-0.9,0.8-1.4C16.3,71.3,16.4,70.7,16.4,70.1z"/>
	<path class="st0" d="M23.9,76.3V63.9h2v12.3H23.9z"/>
	<path class="st0" d="M39.3,66.9c-0.1-0.2-0.3-0.2-0.5-0.4c-0.2-0.2-0.5-0.3-0.8-0.4c-0.3-0.2-0.6-0.2-0.9-0.3
		c-0.4-0.1-0.7-0.2-1.1-0.2c-0.9,0-1.4,0.2-1.8,0.5c-0.4,0.3-0.5,0.7-0.5,1.2c0,0.3,0.1,0.5,0.2,0.7c0.2,0.2,0.3,0.4,0.5,0.5
		c0.2,0.1,0.5,0.2,0.9,0.4c0.4,0.2,0.9,0.2,1.3,0.4c0.6,0.2,1.2,0.3,1.7,0.5c0.5,0.2,0.9,0.4,1.2,0.7c0.3,0.2,0.6,0.6,0.8,1
		c0.2,0.4,0.3,0.9,0.3,1.4c0,0.6-0.2,1.2-0.4,1.6s-0.5,0.8-0.9,1.1C39,76,38.6,76.1,38,76.3c-0.5,0.2-1.1,0.2-1.7,0.2
		c-0.9,0-1.9-0.2-2.7-0.4c-0.9-0.3-1.6-0.7-2.3-1.2l0.9-1.6c0.2,0.2,0.4,0.3,0.6,0.5c0.3,0.2,0.6,0.4,1,0.5c0.4,0.2,0.8,0.3,1.2,0.4
		c0.5,0.1,0.9,0.2,1.4,0.2c0.8,0,1.3-0.2,1.8-0.4c0.4-0.2,0.6-0.6,0.6-1.2c0-0.3-0.1-0.5-0.2-0.8c-0.2-0.2-0.4-0.4-0.7-0.5
		s-0.6-0.3-1.1-0.4c-0.4-0.2-0.9-0.2-1.4-0.4c-0.6-0.2-1.2-0.3-1.6-0.5c-0.5-0.2-0.9-0.4-1.2-0.6s-0.5-0.5-0.7-0.9
		c-0.2-0.3-0.2-0.8-0.2-1.2c0-0.6,0.1-1.2,0.3-1.6s0.5-0.9,0.9-1.2c0.4-0.3,0.9-0.5,1.4-0.7c0.5-0.2,1.2-0.2,1.8-0.2
		c0.9,0,1.6,0.2,2.3,0.4c0.7,0.2,1.3,0.6,1.9,1L39.3,66.9z"/>
	<path class="st0" d="M54.5,74.5v1.7H46V63.9h8.3v1.7H48v3.5h5.5v1.6H48v3.7H54.5z"/>
	<path class="st0" d="M62,67.6v8.7h-2V63.9h1.6l7,8.9V64h2v12.2h-1.6L62,67.6z M66.3,62.4c-0.2,0-0.5,0-0.7-0.1s-0.4-0.2-0.5-0.2
		c-0.2-0.1-0.3-0.2-0.5-0.2c-0.2-0.1-0.3-0.1-0.5-0.1c-0.2,0-0.3,0.1-0.5,0.2c-0.1,0.1-0.2,0.2-0.2,0.2c-0.1,0.1-0.1,0.2-0.1,0.3
		c0,0.2,0,0.2,0,0.2h-1.1c0-0.1,0-0.2,0.1-0.5c0.1-0.2,0.2-0.5,0.3-0.7c0.2-0.2,0.3-0.4,0.5-0.6c0.2-0.2,0.5-0.2,0.9-0.2
		c0.2,0,0.5,0.1,0.7,0.2c0.2,0.1,0.4,0.2,0.5,0.2c0.2,0.1,0.3,0.2,0.5,0.2c0.2,0.1,0.4,0.2,0.5,0.2s0.4-0.1,0.5-0.2
		c0.1-0.1,0.2-0.2,0.3-0.3c0.1-0.2,0.1-0.2,0.2-0.3c0-0.1,0-0.2,0-0.2h1.1c0,0.1,0,0.2-0.1,0.5c-0.1,0.2-0.2,0.5-0.3,0.7
		c-0.2,0.2-0.4,0.5-0.6,0.6C67,62.3,66.7,62.4,66.3,62.4z"/>
	<path class="st0" d="M81.8,76.3c-0.9,0-1.6-0.2-2.4-0.5c-0.8-0.4-1.3-0.9-1.9-1.4c-0.5-0.5-0.9-1.2-1.2-2C76.1,71.6,76,70.9,76,70
		c0-0.8,0.2-1.6,0.5-2.3c0.3-0.7,0.7-1.4,1.2-2c0.5-0.5,1.2-1,1.9-1.4c0.7-0.3,1.5-0.5,2.3-0.5s1.6,0.2,2.4,0.5
		c0.7,0.4,1.3,0.9,1.9,1.4c0.5,0.6,0.9,1.2,1.2,2c0.2,0.8,0.4,1.5,0.4,2.3c0,0.9-0.2,1.6-0.5,2.3c-0.3,0.8-0.7,1.4-1.2,2
		c-0.5,0.5-1.2,1-1.9,1.4C83.5,76.2,82.7,76.3,81.8,76.3z M77.9,70.1c0,0.5,0.1,1.2,0.3,1.7c0.2,0.5,0.5,1,0.8,1.4
		c0.3,0.4,0.8,0.8,1.2,1c0.5,0.2,1,0.4,1.6,0.4s1.2-0.2,1.6-0.4s0.9-0.6,1.2-1c0.3-0.4,0.6-0.9,0.8-1.4c0.2-0.5,0.2-1.1,0.2-1.6
		c0-0.6-0.1-1.2-0.3-1.7c-0.2-0.5-0.5-1-0.8-1.4c-0.3-0.4-0.8-0.7-1.2-1c-0.5-0.2-1-0.4-1.6-0.4c-0.6,0-1.2,0.2-1.6,0.4
		s-0.9,0.6-1.2,1c-0.3,0.4-0.6,0.9-0.8,1.4C78,69,77.9,69.6,77.9,70.1z"/>
	<path class="st0" d="M9.7,95.5c-1,1.1-2.3,1.6-3.6,1.6c-0.9,0-1.6-0.2-2.3-0.5c-0.7-0.3-1.3-0.8-1.9-1.4c-0.5-0.5-0.9-1.2-1.2-2
		c-0.3-0.8-0.5-1.6-0.5-2.4c0-0.9,0.2-1.6,0.5-2.3s0.7-1.4,1.2-2c0.5-0.5,1.2-1,1.9-1.3s1.5-0.5,2.3-0.5c1.2,0,2.2,0.2,3,0.7
		s1.4,1.2,1.8,2l-1.5,1.1c-0.3-0.7-0.8-1.2-1.4-1.5c-0.6-0.3-1.2-0.5-2-0.5c-0.5,0-1.1,0.2-1.6,0.4s-0.9,0.5-1.2,1
		c-0.3,0.4-0.6,0.9-0.8,1.4S2.3,90.4,2.3,91c0,0.6,0.1,1.2,0.3,1.7c0.2,0.5,0.5,1,0.9,1.4c0.4,0.4,0.8,0.7,1.2,0.9s1,0.4,1.6,0.4
		c0.6,0,1.2-0.2,1.8-0.5c0.5-0.3,1.1-0.8,1.6-1.4v-1.3H7.1v-1.4h4.2v6.2H9.7V95.5z"/>
	<path class="st0" d="M16.9,97V84.7h5.4c0.5,0,1.1,0.1,1.6,0.3s0.9,0.5,1.2,0.9c0.3,0.4,0.6,0.8,0.8,1.2c0.2,0.5,0.3,0.9,0.3,1.5
		c0,0.4-0.1,0.8-0.2,1.2c-0.1,0.4-0.3,0.7-0.5,1.1c-0.2,0.3-0.5,0.6-0.8,0.9c-0.3,0.2-0.6,0.4-1,0.5l2.9,4.7h-2.2l-2.7-4.3H19V97
		H16.9z M18.9,91.1h3.4c0.3,0,0.5-0.1,0.8-0.2c0.2-0.2,0.4-0.3,0.5-0.5c0.2-0.2,0.3-0.5,0.4-0.7c0.1-0.3,0.2-0.5,0.2-0.9
		S24,88.3,24,88c-0.1-0.3-0.2-0.5-0.5-0.7c-0.2-0.2-0.4-0.4-0.6-0.5c-0.2-0.2-0.5-0.2-0.7-0.2h-3.3V91.1z"/>
	<path class="st0" d="M35.3,84.8H37l4.8,12.3h-2l-1.3-3.4h-4.8l-1.2,3.4h-2L35.3,84.8z M38.2,92.3l-2-5.3l-2,5.3H38.2z M36.6,83.4
		l-1.2-0.4l1-1.9h1.8L36.6,83.4z"/>
	<path class="st0" d="M46.8,97V84.7H55v1.7h-6.2v3.7H54v1.6h-5.2V97L46.8,97L46.8,97z"/>
	<path class="st0" d="M60.3,97V84.7h2V97H60.3z"/>
	<path class="st0" d="M67.7,90.8c0-0.7,0.2-1.5,0.4-2.2s0.6-1.4,1.2-2c0.5-0.5,1.2-1,1.9-1.4s1.6-0.5,2.5-0.5c1.1,0,2.1,0.2,2.9,0.8
		c0.8,0.5,1.4,1.2,1.8,2l-1.6,1c-0.2-0.4-0.4-0.7-0.6-0.9c-0.2-0.2-0.5-0.5-0.8-0.6c-0.3-0.2-0.6-0.2-0.9-0.3
		c-0.3-0.1-0.6-0.1-0.9-0.1c-0.6,0-1.2,0.2-1.7,0.4s-0.9,0.6-1.2,1c-0.3,0.4-0.5,0.9-0.8,1.4s-0.2,1.1-0.2,1.6
		c0,0.6,0.1,1.2,0.3,1.7c0.2,0.5,0.5,1,0.9,1.4s0.8,0.8,1.2,1s1,0.4,1.6,0.4c0.3,0,0.6,0,0.9-0.1s0.6-0.2,0.9-0.4
		c0.3-0.2,0.5-0.4,0.8-0.6s0.5-0.5,0.6-0.9l1.6,0.9c-0.2,0.5-0.5,0.9-0.9,1.2s-0.8,0.6-1.2,0.9c-0.5,0.2-0.9,0.4-1.4,0.5
		c-0.5,0.2-1,0.2-1.5,0.2c-0.9,0-1.6-0.2-2.3-0.5c-0.7-0.4-1.3-0.9-1.9-1.5c-0.5-0.6-0.9-1.2-1.2-2C67.9,92.3,67.7,91.6,67.7,90.8z"
		/>
	<path class="st0" d="M88.8,97.1c-0.9,0-1.6-0.2-2.4-0.5c-0.8-0.4-1.3-0.9-1.9-1.4c-0.5-0.5-0.9-1.2-1.2-2c-0.3-0.8-0.4-1.5-0.4-2.3
		c0-0.8,0.2-1.6,0.5-2.3c0.3-0.7,0.7-1.4,1.2-2c0.5-0.5,1.2-1,1.9-1.4c0.7-0.3,1.5-0.5,2.3-0.5s1.6,0.2,2.4,0.5
		c0.7,0.4,1.3,0.9,1.9,1.4c0.5,0.6,0.9,1.2,1.2,2c0.2,0.8,0.4,1.5,0.4,2.3c0,0.9-0.2,1.6-0.5,2.3c-0.3,0.8-0.7,1.4-1.2,2
		c-0.5,0.5-1.2,1-1.9,1.4C90.4,96.9,89.6,97.1,88.8,97.1z M84.9,90.9c0,0.5,0.1,1.2,0.3,1.7c0.2,0.5,0.5,1,0.8,1.4
		c0.3,0.4,0.8,0.8,1.2,1s1,0.4,1.6,0.4s1.2-0.2,1.6-0.4s0.9-0.6,1.2-1c0.3-0.4,0.6-0.9,0.8-1.4c0.2-0.5,0.2-1.1,0.2-1.6
		c0-0.6-0.1-1.2-0.3-1.7c-0.2-0.5-0.5-1-0.8-1.4c-0.3-0.4-0.8-0.7-1.2-1c-0.5-0.2-1-0.4-1.6-0.4c-0.6,0-1.2,0.2-1.6,0.4
		s-0.9,0.6-1.2,1c-0.3,0.4-0.6,0.9-0.8,1.4S84.9,90.3,84.9,90.9z"/>
</g>
<g>
	<path class="st0" d="M62.4,31.2h-7.5h-7.5l0,0h-7.2V24v-7.5V9c0-0.2-0.2-0.3-0.3-0.3h-7.5c-0.2,0-0.3,0.2-0.3,0.3v7.5V24v7.5l0,0
		v3.7v0.1c0,2.3,1.8,4.1,4.1,4.1H36h3.7h7.5l0,0h7.5h7.5c0.2,0,0.3-0.2,0.3-0.3v-7.5C62.7,31.4,62.6,31.2,62.4,31.2z M32.6,9.2h6.9
		v6.9h-6.9V9.2z M32.6,16.8h6.9v6.9h-6.9V16.8z M39.5,24.4v6.9h-3.5h-3.4v-6.9H39.5z M32.6,31.9h1.3c-0.5,0.3-0.9,0.8-1.3,1.3V31.9z
		 M36,38.8c-1.9,0-3.4-1.5-3.4-3.4v-0.1c0-1.9,1.5-3.4,3.4-3.4h3.5v5.7v1.3h-1.3L36,38.8L36,38.8z M40.1,35.4v-3.5H47v6.9h-6.9V35.4
		z M47.6,31.9h6.9v6.9h-6.9V31.9z M62.1,38.8h-6.9v-6.9h6.9V38.8L62.1,38.8z"/>
	<path class="st0" d="M36,36.3c-0.6,0-1.1-0.5-1.1-1.1s0.5-1.1,1.1-1.1s1.1,0.5,1.1,1.1S36.6,36.3,36,36.3z M36,34.8
		c-0.3,0-0.4,0.2-0.4,0.4c0,0.3,0.2,0.4,0.4,0.4c0.3,0,0.4-0.2,0.4-0.4C36.5,35,36.3,34.8,36,34.8z"/>
	<path class="st0" d="M58.5,27.6c-0.2,0-0.3-0.2-0.3-0.3c0-8.2-6.7-14.9-14.9-14.9c-0.2,0-0.3-0.2-0.3-0.3c0-0.2,0.2-0.3,0.3-0.3
		c4.1,0,8,1.6,10.9,4.5c2.9,2.9,4.5,6.8,4.5,10.9C58.8,27.4,58.6,27.6,58.5,27.6z"/>
</g>
<g>
	<path class="st0" d="M383.2,36.1h-3.9c-0.2,0-0.3-0.1-0.3-0.3v-0.3c0-0.2,0.1-0.3,0.3-0.3h3.9c0.2,0,0.3,0.1,0.3,0.3v0.3
		C383.5,36,383.4,36.1,383.2,36.1z"/>
</g>
<g>
	<path class="st0" d="M309.7,77.7V65h4.5c1,0,1.9,0.2,2.7,0.5c0.8,0.3,1.4,0.8,1.9,1.4s0.9,1.2,1.2,2c0.3,0.8,0.4,1.6,0.4,2.5
		c0,1-0.1,1.8-0.4,2.6c-0.3,0.8-0.7,1.4-1.2,2s-1.2,1-2,1.3s-1.6,0.5-2.6,0.5h-4.5V77.7z M318.4,71.3c0-0.7-0.1-1.3-0.3-1.8
		c-0.2-0.6-0.5-1-0.8-1.4c-0.4-0.4-0.8-0.7-1.3-0.9s-1.1-0.5-1.8-0.5h-2.5v9.2h2.5c0.7,0,1.3-0.1,1.8-0.3c0.5-0.2,1-0.6,1.3-1
		c0.4-0.4,0.6-0.9,0.8-1.5C318.3,72.5,318.4,71.9,318.4,71.3z"/>
	<path class="st0" d="M334.8,75.9v1.8h-8.7V65h8.6v1.7h-6.5v3.6h5.6V72h-5.7v3.9H334.8z"/>
	<path class="st0" d="M347.7,67.9c-0.1-0.1-0.3-0.3-0.5-0.4c-0.2-0.1-0.5-0.3-0.8-0.4s-0.6-0.2-1-0.3c-0.4-0.1-0.7-0.1-1.1-0.1
		c-0.8,0-1.5,0.2-1.9,0.5s-0.6,0.7-0.6,1.3c0,0.3,0.1,0.6,0.2,0.8s0.3,0.4,0.6,0.5c0.3,0.2,0.6,0.3,1,0.4c0.4,0.1,0.9,0.2,1.4,0.4
		c0.6,0.2,1.2,0.3,1.7,0.5s1,0.4,1.3,0.7c0.4,0.3,0.6,0.6,0.8,1s0.3,0.9,0.3,1.5s-0.1,1.2-0.4,1.7c-0.2,0.5-0.6,0.8-1,1.1
		s-0.9,0.5-1.5,0.6s-1.2,0.2-1.8,0.2c-1,0-1.9-0.1-2.8-0.4c-0.9-0.3-1.7-0.7-2.4-1.3l0.9-1.7c0.2,0.2,0.4,0.3,0.7,0.5s0.6,0.4,1,0.5
		c0.4,0.2,0.8,0.3,1.3,0.4s0.9,0.2,1.4,0.2c0.8,0,1.4-0.1,1.8-0.4s0.6-0.7,0.6-1.2c0-0.3-0.1-0.6-0.2-0.8s-0.4-0.4-0.7-0.6
		c-0.3-0.2-0.7-0.3-1.1-0.4s-0.9-0.3-1.5-0.4c-0.6-0.2-1.2-0.3-1.7-0.5s-0.9-0.4-1.2-0.7c-0.3-0.3-0.5-0.6-0.7-0.9
		c0-0.5-0.1-1-0.1-1.5c0-0.6,0.1-1.2,0.4-1.7c0.2-0.5,0.6-0.9,1-1.2c0.4-0.3,0.9-0.6,1.5-0.7c0.6-0.2,1.2-0.2,1.8-0.2
		c0.9,0,1.7,0.1,2.4,0.4c0.7,0.3,1.4,0.6,1.9,1L347.7,67.9z"/>
	<path class="st0" d="M358.3,65h1.8l5,12.7H363l-1.3-3.5h-4.9l-1.3,3.5h-2.1L358.3,65z M361.2,72.7l-2-5.5l-2.2,5.5H361.2z"/>
	<path class="st0" d="M370.2,77.7V65h5.5c0.6,0,1.1,0.1,1.6,0.4s0.9,0.6,1.2,0.9c0.3,0.4,0.6,0.8,0.8,1.3s0.3,1,0.3,1.5
		c0,0.4-0.1,0.8-0.2,1.2s-0.3,0.8-0.5,1.1c-0.2,0.3-0.5,0.6-0.8,0.9c-0.3,0.3-0.7,0.4-1,0.5l3,4.8h-2.3l-2.8-4.4h-2.9v4.4
		L370.2,77.7L370.2,77.7z M372.2,71.5h3.5c0.3,0,0.5-0.1,0.8-0.2c0.3-0.1,0.4-0.3,0.6-0.5c0.2-0.2,0.3-0.5,0.4-0.8s0.1-0.6,0.1-0.9
		s-0.1-0.6-0.2-0.9s-0.3-0.5-0.4-0.8c-0.2-0.2-0.4-0.4-0.6-0.5c-0.3-0.1-0.6-0.2-0.8-0.2h-3.4V71.5z"/>
	<path class="st0" d="M385.6,77.7V65h5.5c0.6,0,1.1,0.1,1.6,0.4s0.9,0.6,1.2,0.9c0.3,0.4,0.6,0.8,0.8,1.3c0.2,0.5,0.3,1,0.3,1.5
		c0,0.4-0.1,0.8-0.2,1.2c-0.1,0.4-0.3,0.8-0.5,1.1c-0.2,0.3-0.5,0.6-0.8,0.9c-0.3,0.3-0.7,0.4-1,0.5l3,4.8h-2.3l-2.8-4.4h-2.9v4.4
		L385.6,77.7L385.6,77.7z M387.6,71.5h3.5c0.3,0,0.5-0.1,0.8-0.2c0.3-0.1,0.4-0.3,0.6-0.5c0.2-0.2,0.3-0.5,0.4-0.8s0.1-0.6,0.1-0.9
		s-0.1-0.6-0.2-0.9c-0.1-0.3-0.3-0.5-0.4-0.8c-0.2-0.2-0.4-0.4-0.6-0.5c-0.2-0.1-0.5-0.2-0.8-0.2h-3.4V71.5z"/>
	<path class="st0" d="M406.3,77.7c-0.9,0-1.7-0.2-2.5-0.5c-0.7-0.4-1.4-0.8-1.9-1.5s-1-1.3-1.2-2.1c-0.3-0.8-0.4-1.6-0.4-2.4
		s0.2-1.7,0.5-2.4c0.3-0.8,0.7-1.5,1.3-2.1s1.2-1.1,1.9-1.4c0.7-0.4,1.6-0.5,2.4-0.5c0.9,0,1.7,0.2,2.5,0.6c0.7,0.4,1.4,0.9,1.9,1.5
		s0.9,1.3,1.2,2.1c0.3,0.8,0.4,1.6,0.4,2.4s-0.2,1.7-0.5,2.4c-0.3,0.8-0.7,1.5-1.3,2c-0.5,0.6-1.2,1.1-1.9,1.4
		C407.9,77.6,407.1,77.7,406.3,77.7z M402.2,71.3c0,0.6,0.1,1.2,0.3,1.7c0.2,0.6,0.5,1.1,0.8,1.5c0.4,0.4,0.8,0.8,1.3,1
		c0.5,0.3,1.1,0.4,1.7,0.4c0.6,0,1.2-0.1,1.7-0.4s0.9-0.6,1.3-1.1c0.3-0.4,0.6-0.9,0.8-1.5s0.3-1.1,0.3-1.7s-0.1-1.2-0.3-1.7
		c-0.2-0.6-0.5-1-0.8-1.5c-0.3-0.5-0.8-0.8-1.3-1s-1-0.4-1.7-0.4c-0.6,0-1.2,0.1-1.7,0.4s-0.9,0.6-1.3,1c-0.3,0.4-0.6,0.9-0.8,1.5
		C402.3,70.2,402.2,70.7,402.2,71.3z"/>
	<path class="st0" d="M418,77.7V65h2v10.9h6.8v1.8C426.8,77.7,418,77.7,418,77.7z"/>
	<path class="st0" d="M432.1,77.7V65h2v10.9h6.8v1.8C440.9,77.7,432.1,77.7,432.1,77.7z"/>
	<path class="st0" d="M450.6,77.7c-0.9,0-1.7-0.2-2.5-0.5c-0.7-0.4-1.4-0.8-1.9-1.5s-1-1.3-1.2-2.1c-0.3-0.8-0.4-1.6-0.4-2.4
		s0.2-1.7,0.5-2.4c0.3-0.8,0.7-1.5,1.3-2.1s1.2-1.1,1.9-1.4c0.7-0.4,1.6-0.5,2.4-0.5c0.9,0,1.7,0.2,2.5,0.6c0.7,0.4,1.4,0.9,1.9,1.5
		s0.9,1.3,1.2,2.1c0.3,0.8,0.4,1.6,0.4,2.4s-0.2,1.7-0.5,2.4c-0.3,0.8-0.7,1.5-1.3,2c-0.5,0.6-1.2,1.1-1.9,1.4
		C452.2,77.6,451.4,77.7,450.6,77.7z M446.5,71.3c0,0.6,0.1,1.2,0.3,1.7c0.2,0.6,0.5,1.1,0.8,1.5c0.4,0.4,0.8,0.8,1.3,1
		c0.5,0.3,1.1,0.4,1.7,0.4s1.2-0.1,1.7-0.4s0.9-0.6,1.3-1.1c0.3-0.4,0.6-0.9,0.8-1.5c0.2-0.6,0.3-1.1,0.3-1.7s-0.1-1.2-0.3-1.7
		c-0.2-0.6-0.5-1-0.8-1.5c-0.3-0.5-0.8-0.8-1.3-1s-1-0.4-1.7-0.4c-0.6,0-1.2,0.1-1.7,0.4s-0.9,0.6-1.3,1c-0.3,0.4-0.6,0.9-0.8,1.5
		C446.6,70.2,446.5,70.7,446.5,71.3z"/>
	<path class="st0" d="M323.7,86.5h1.9l1.6,4.3l1.6-4.3h1.9l-2.2,5.7l1.9,4.7l4-10.4h2.2l-5.2,12.7h-1.7l-2.4-5.7l-2.4,5.7h-1.7
		L318,86.5h2.2l4,10.4l1.9-4.7L323.7,86.5z"/>
	<path class="st0" d="M350.3,97.4v1.8h-8.7V86.5h8.6v1.8h-6.5v3.6h5.7v1.7h-5.7v3.9h6.6V97.4z"/>
	<path class="st0" d="M366,95.9c0,0.5-0.1,1-0.3,1.4c-0.2,0.4-0.5,0.7-0.8,1s-0.8,0.5-1.2,0.6c-0.5,0.1-1,0.2-1.5,0.2h-6.1V86.4h6.6
		c0.4,0,0.8,0.1,1.2,0.3c0.4,0.2,0.7,0.4,0.9,0.7c0.3,0.3,0.4,0.7,0.6,1c0.1,0.4,0.2,0.8,0.2,1.2c0,0.6-0.2,1.2-0.5,1.7
		c-0.3,0.5-0.8,0.9-1.4,1.2c0.7,0.2,1.3,0.6,1.7,1.2C365.7,94.4,366,95,366,95.9z M358,88.2v3.7h3.7c0.2,0,0.5,0,0.7-0.1
		s0.4-0.2,0.6-0.4c0.2-0.2,0.3-0.4,0.4-0.6s0.1-0.5,0.1-0.8c0-0.5-0.2-1-0.5-1.4c-0.3-0.4-0.7-0.5-1.2-0.5H358V88.2z M363.9,95.5
		c0-0.3,0-0.5-0.1-0.8c-0.1-0.2-0.2-0.4-0.4-0.6c-0.1-0.2-0.3-0.3-0.5-0.4c-0.2-0.1-0.4-0.2-0.7-0.2H358v3.9h4.1
		c0.3,0,0.5-0.1,0.7-0.2s0.4-0.2,0.6-0.4c0.2-0.2,0.3-0.4,0.4-0.6S363.9,95.7,363.9,95.5z"/>
	<path class="st0" d="M380,86.4l3.5,6.4l3.5-6.4h2.2l-4.7,8.2v4.5h-2v-4.6l-4.7-8.1H380z"/>
	<path class="st0" d="M404.9,86.4h1.8l5,12.7h-2.1l-1.3-3.5h-4.9l-1.3,3.5H400L404.9,86.4z M407.9,94.2l-2-5.5l-2.1,5.5H407.9z"/>
	<path class="st0" d="M416.9,99.1V86.4h5.3c0.6,0,1.1,0.1,1.6,0.4c0.5,0.2,0.9,0.6,1.2,0.9c0.3,0.4,0.6,0.8,0.8,1.3s0.3,1,0.3,1.5
		s-0.1,1.1-0.3,1.5c-0.2,0.5-0.4,0.9-0.8,1.3c-0.3,0.4-0.7,0.7-1.2,0.9c-0.5,0.2-1,0.3-1.6,0.3h-3.4v4.4h-1.9V99.1z M418.9,92.9h3.3
		c0.3,0,0.5-0.1,0.8-0.2c0.3-0.1,0.4-0.3,0.6-0.5c0.2-0.2,0.3-0.5,0.4-0.8s0.1-0.6,0.1-0.9c0-0.4-0.1-0.7-0.2-1s-0.3-0.5-0.4-0.7
		c-0.2-0.2-0.4-0.4-0.7-0.5c-0.2-0.1-0.5-0.2-0.8-0.2h-3.2v4.8H418.9z"/>
	<path class="st0" d="M431.6,99.1V86.4h5.3c0.6,0,1.1,0.1,1.6,0.4c0.5,0.2,0.9,0.6,1.2,0.9c0.3,0.4,0.6,0.8,0.8,1.3
		c0.2,0.5,0.3,1,0.3,1.5s-0.1,1.1-0.3,1.5c-0.2,0.5-0.4,0.9-0.8,1.3c-0.3,0.4-0.7,0.7-1.2,0.9c-0.5,0.2-1,0.3-1.6,0.3h-3.4v4.4h-1.9
		V99.1z M433.6,92.9h3.3c0.3,0,0.5-0.1,0.8-0.2c0.3-0.1,0.4-0.3,0.6-0.5c0.2-0.2,0.3-0.5,0.4-0.8s0.1-0.6,0.1-0.9
		c0-0.4-0.1-0.7-0.2-1s-0.3-0.5-0.4-0.7c-0.2-0.2-0.4-0.4-0.7-0.5c-0.2-0.1-0.5-0.2-0.8-0.2h-3.2L433.6,92.9L433.6,92.9z"/>
	<path class="st0" d="M453.8,89.4c-0.1-0.1-0.3-0.3-0.5-0.4c-0.2-0.1-0.5-0.3-0.8-0.4c-0.3-0.1-0.6-0.2-1-0.3
		c-0.4-0.1-0.7-0.1-1.1-0.1c-0.8,0-1.5,0.2-1.9,0.5s-0.6,0.7-0.6,1.3c0,0.3,0.1,0.6,0.2,0.8c0.1,0.2,0.3,0.4,0.6,0.5
		c0.3,0.1,0.6,0.3,1,0.4s0.9,0.2,1.4,0.4c0.6,0.2,1.2,0.3,1.7,0.5s1,0.4,1.3,0.7c0.4,0.3,0.6,0.6,0.8,1c0.2,0.4,0.3,0.9,0.3,1.5
		s-0.1,1.2-0.4,1.7c-0.2,0.5-0.6,0.8-1,1.1c-0.4,0.3-0.9,0.5-1.5,0.6s-1.2,0.2-1.8,0.2c-1,0-1.9-0.1-2.8-0.4
		c-0.9-0.3-1.7-0.7-2.4-1.3l0.9-1.7c0.2,0.2,0.4,0.3,0.7,0.5c0.3,0.2,0.6,0.4,1,0.5c0.4,0.2,0.8,0.3,1.3,0.4s0.9,0.2,1.4,0.2
		c0.8,0,1.4-0.1,1.8-0.4c0.4-0.3,0.6-0.7,0.6-1.2c0-0.3-0.1-0.6-0.2-0.8c-0.1-0.2-0.4-0.4-0.7-0.6c-0.3-0.2-0.7-0.3-1.1-0.4
		s-0.9-0.3-1.5-0.4c-0.6-0.2-1.2-0.3-1.7-0.5s-0.9-0.4-1.2-0.7c-0.3-0.3-0.5-0.6-0.7-0.9c-0.2-0.3-0.2-0.8-0.2-1.3
		c0-0.6,0.1-1.2,0.4-1.7c0.2-0.5,0.6-0.9,1-1.2c0.4-0.3,0.9-0.6,1.5-0.7s1.2-0.3,1.8-0.3c0.9,0,1.7,0.1,2.4,0.4
		c0.7,0.3,1.4,0.6,1.9,1L453.8,89.4z"/>
</g>
<g>
	<path class="st0" d="M396.2,38.1h-30.3c-1.1,0-2-0.9-2-2V14.3c0-1.1,0.9-2,2-2h30.3c1.1,0,2,0.9,2,2v21.9
		C398.1,37.2,397.2,38.1,396.2,38.1z M365.8,12.9c-0.7,0-1.4,0.6-1.4,1.4v21.9c0,0.7,0.6,1.4,1.4,1.4h30.3c0.7,0,1.4-0.6,1.4-1.4
		V14.3c0-0.7-0.6-1.4-1.4-1.4H365.8z"/>
</g>
<g>
	<path class="st0" d="M395.5,33.9H367V17.2c0-1.1,0.9-2,2-2h24.5c1.1,0,2,0.9,2,2C395.5,17.2,395.5,33.9,395.5,33.9z M367.6,33.2
		h27.2V17.2c0-0.7-0.6-1.4-1.4-1.4H369c-0.7,0-1.4,0.6-1.4,1.4C367.6,17.2,367.6,33.2,367.6,33.2z"/>
</g>
<g>
	<path class="st0" d="M386,29.7h-13.2c-0.7,0-1.1-0.5-1.1-1.1v-9.7c0-0.7,0.5-1.1,1.1-1.1h14.6c0.7,0,1.1,0.5,1.1,1.1v8.3l-3.5-0.8
		L386,29.7z M372.9,18.3c-0.3,0-0.5,0.2-0.5,0.5v9.7c0,0.3,0.2,0.5,0.5,0.5h12.3l-1-3.6l3.7,0.8v-7.5c0-0.3-0.2-0.5-0.5-0.5
		C387.4,18.3,372.9,18.3,372.9,18.3z"/>
</g>
<g>
	<path class="st0" d="M388.9,32.5l-1.7-1.9l-1.3,1.4l-1.8-6.5l7,1.6l-1.4,1.7l1.3,1.4L388.9,32.5z M387.3,29.6l1.7,1.9l1.3-1.3
		l-1.3-1.4l1.1-1.3l-5-1.1l1.2,4.4L387.3,29.6z"/>
</g>
<g>
	<path class="st0" d="M372.5,43.1l2.3-1c3.2-0.4,3.3-4.1,3.3-4.3v-0.3h6v0.3c-0.1,3.4,3.4,4.2,3.5,4.3l1.8,0.9L372.5,43.1z
		 M378.7,38.2c-0.1,0.8-0.5,2.9-2.1,4l9.4-0.1c-1.1-0.6-2.5-1.8-2.5-4H378.7z"/>
</g>
<g>
	<path class="st2" d="M389,43.7h-15.8c-0.4,0-0.7-0.3-0.7-0.7c0-0.4,0.3-0.7,0.7-0.7h15.8c0.4,0,0.7,0.3,0.7,0.7
		C389.6,43.4,389.3,43.7,389,43.7z M373.1,42.8c-0.1,0-0.1,0.1-0.1,0.1c0,0.1,0.1,0.1,0.1,0.1h15.8c0.1,0,0.1-0.1,0.1-0.1
		c0-0.1-0.1-0.1-0.1-0.1H373.1z"/>
</g>
<g>
	<rect x="371.9" y="20.9" class="st0" width="16.4" height="0.6"/>
</g>
<g>
	<path class="st0" d="M379.2,27.2H374v-2.7h5.2V27.2z M374.7,26.5h4v-1.4h-4V26.5z"/>
</g>
<g>
	<rect x="364.1" y="33.3" class="st0" width="33.8" height="0.6"/>
</g>
<g>
	<path class="st0" d="M383.2,36.1h-3.9c-0.2,0-0.3-0.1-0.3-0.3v-0.3c0-0.2,0.1-0.3,0.3-0.3h3.9c0.2,0,0.3,0.1,0.3,0.3v0.3
		C383.5,36,383.4,36.1,383.2,36.1z"/>
</g>
<rect x="210.9" y="-101" style="fill:none;" width="52" height="32"/>
<text transform="matrix(1 0 0 1 210.8517 -88.1774)" class="st0" style="font-family:'MyriadPro-Bold'; font-size:18px;">/</text>
</svg>
