<?xml version="1.0" encoding="utf-8"?>
<!-- Generator: Adobe Illustrator 22.0.0, SVG Export Plug-In . SVG Version: 6.00 Build 0)  -->
<svg version="1.1" id="Layer_1" xmlns="http://www.w3.org/2000/svg" xmlns:xlink="http://www.w3.org/1999/xlink" x="0px" y="0px"
	 viewBox="0 0 72.1 76.6" style="enable-background:new 0 0 72.1 76.6;" xml:space="preserve">
<style type="text/css">
	.st0{fill:#fff;}
</style>
<g>
	<g>
		<path class="st0" d="M1.9,72.6c-0.1,0-0.1,0-0.2,0c-0.6-0.1-1-0.6-0.9-1.2C2,64.2,11,60.2,11.3,60l0.1-0.1l8.5-2.3
			c0.6-0.2,1.1,0.2,1.3,0.7c0.2,0.6-0.2,1.1-0.7,1.3l-8.4,2.3c-0.8,0.4-8.3,4-9.2,9.8C2.9,72.2,2.4,72.6,1.9,72.6z"/>
	</g>
	<g>
		<path class="st0" d="M70.9,71.9c-0.1,0-0.1,0-0.2,0c-0.6-0.1-0.9-0.7-0.8-1.2c0-0.2,1-5.5-6.3-8.2L53,59.1
			c-0.5-0.2-0.8-0.8-0.7-1.3c0.2-0.5,0.8-0.8,1.3-0.7l10.6,3.4c9,3.4,7.7,10.5,7.7,10.6C71.8,71.6,71.4,71.9,70.9,71.9z"/>
	</g>
	<g>
		<path class="st0" d="M56.2,75.2h-4.7c-0.6,0-1-0.5-1-1s0.5-1,1-1h4.7c0.6,0,1,0.5,1,1S56.8,75.2,56.2,75.2z"/>
	</g>
	<g>
		<circle class="st0" cx="15.7" cy="75.3" r="1.1"/>
	</g>
	<g>
		<circle class="st0" cx="62.7" cy="74.1" r="1.1"/>
	</g>
	<g>
		<path class="st0" d="M27.2,10.8c-0.3,0-0.5-0.1-0.7-0.3L21,5c-0.4-0.4-0.4-1.1,0-1.5c0.4-0.4,1.1-0.4,1.5,0L27.9,9
			c0.4,0.4,0.4,1.1,0,1.5C27.7,10.7,27.5,10.8,27.2,10.8z"/>
	</g>
	<g>
		<path class="st0" d="M36.9,9c-0.6,0-1-0.5-1-1V1.4c0-0.6,0.5-1,1-1c0.6,0,1,0.5,1,1V8C38,8.6,37.5,9,36.9,9z"/>
	</g>
	<g>
		<path class="st0" d="M46.6,10.7c-0.3,0-0.5-0.1-0.7-0.3c-0.4-0.4-0.4-1.1,0-1.5l5.5-5.5c0.4-0.4,1.1-0.4,1.5,0s0.4,1.1,0,1.5
			l-5.5,5.5C47.2,10.6,46.9,10.7,46.6,10.7z"/>
	</g>
	<g>
		<path class="st0" d="M36.6,37.2c-2.4,0-4.4-2-4.4-4.4s2-4.4,4.4-4.4c2.4,0,4.4,2,4.4,4.4S39,37.2,36.6,37.2z M36.6,30.5
			c-1.3,0-2.3,1-2.3,2.3s1,2.3,2.3,2.3c1.3,0,2.3-1,2.3-2.3S37.8,30.5,36.6,30.5z"/>
	</g>
	<g>
		<path class="st0" d="M45.4,58h-7.3v-14c0-0.4-0.3-0.7-0.7-0.7c-0.4,0-0.7,0.3-0.7,0.7v14h-7.2c-0.7,0-1.3-0.6-1.3-1.3
			c0-4.6-1.7-8.9-4.9-12c-4.9-5-8.4-14-3.1-24.3c1.5-3,3.9-5.4,6.8-6.9c3.4-1.8,7-2.7,10.6-2.7c3.6,0,7.2,1,10.3,2.9
			c6,3.6,9.6,10,9.6,17c0,5.2-2,10.2-5.7,13.9l0,0c-3.1,3.2-4.9,7.5-4.9,12C46.7,57.4,46.1,58,45.4,58z M40.2,56h4.5
			c0.2-4.8,2.1-9.3,5.4-12.7l0,0c3.3-3.4,5.1-7.8,5.1-12.5c0-6.3-3.2-12-8.6-15.3c-5.6-3.4-12.5-3.4-18.8-0.1
			c-2.5,1.3-4.6,3.4-5.9,6c-4.7,9.2-1.7,17.4,2.7,21.9C28,46.6,30,51.1,30.1,56h4.4V44.1c0-1.5,1.3-2.8,2.8-2.8
			c1.5,0,2.8,1.3,2.8,2.8V56z M50.9,44L50.9,44L50.9,44z"/>
	</g>
	<g>
		<path class="st0" d="M42,67.8h-9.1c-2.2,0-3.9-1.8-3.9-3.9v-7.3h17v7.3C45.9,66,44.1,67.8,42,67.8z M31,58.7v5.2
			c0,1,0.8,1.9,1.9,1.9H42c1,0,1.9-0.8,1.9-1.9v-5.2H31z"/>
	</g>
</g>
</svg>
