<?xml version="1.0" encoding="utf-8"?>
<!-- Generator: Adobe Illustrator 22.0.0, SVG Export Plug-In . SVG Version: 6.00 Build 0)  -->
<svg version="1.1" id="Layer_1" xmlns="http://www.w3.org/2000/svg" xmlns:xlink="http://www.w3.org/1999/xlink" x="0px" y="0px"
	 viewBox="0 0 57.5 49.5" style="enable-background:new 0 0 57.5 49.5;" xml:space="preserve">
<style type="text/css">
	.st0{fill:none;stroke:#E9E9E9;stroke-miterlimit:10;}
	.st1{fill:#E9E9E9;}
</style>
<path class="st0" d="M51.4,10.3v35.6H13.9V20.6H33c0.6,0,1.1-0.5,1.1-1.1V10c0-0.6-0.5-1.1-1.1-1.1H13.9v-8h26.2v7.5
	c0,1,0.8,1.9,1.9,1.9H51.4z"/>
<line class="st0" x1="40.1" y1="0.9" x2="51.4" y2="10.3"/>
<path class="st0" d="M2.5,8.9H33c0.6,0,1.1,0.5,1.1,1.1v9.4c0,0.6-0.5,1.1-1.1,1.1H2.5c-0.6,0-1.1-0.5-1.1-1.1V10
	C1.3,9.4,1.9,8.9,2.5,8.9z"/>
<path class="st1" d="M12.4,13c-0.2,0-0.4,0-0.6,0.1c-0.2,0.1-0.2,0.3-0.2,0.4c0,0.2,0.1,0.4,0.2,0.5c0.2,0.1,0.5,0.2,1,0.3
	c0.5,0.1,0.9,0.3,1.1,0.5c0.3,0.2,0.4,0.5,0.4,1c0,0.4-0.2,0.8-0.5,1c-0.3,0.3-0.7,0.4-1.3,0.4c-0.8,0-1.5-0.3-2-0.8l0.5-0.6
	c0.5,0.4,1,0.6,1.5,0.6c0.2,0,0.4,0,0.6-0.2c0.2-0.1,0.2-0.3,0.2-0.5c0-0.2-0.1-0.3-0.2-0.4c-0.2-0.1-0.5-0.2-0.8-0.3
	c-0.3-0.1-0.6-0.1-0.8-0.2c-0.2-0.1-0.3-0.2-0.5-0.3c-0.3-0.2-0.4-0.6-0.4-1c0-0.4,0.2-0.8,0.5-1.1c0.4-0.3,0.8-0.4,1.2-0.4
	c0.3,0,0.6,0.1,0.9,0.2c0.3,0.1,0.6,0.2,0.8,0.4l-0.4,0.6c-0.2-0.1-0.4-0.3-0.6-0.3C12.9,13.1,12.6,13,12.4,13z"/>
<path class="st1" d="M17.5,17.3h-0.9l-2-4.9h0.9L17,16l1.5-3.7h0.9L17.5,17.3z"/>
<path class="st1" d="M23.3,14.9h0.8v1.7c-0.5,0.5-1.1,0.8-2,0.8c-0.7,0-1.3-0.2-1.8-0.7c-1-1-1-2.6,0-3.6c0.5-0.5,1.1-0.7,1.8-0.7
	c0.7,0,1.3,0.2,1.8,0.6l-0.4,0.6c-0.2-0.2-0.4-0.3-0.6-0.3c-0.2-0.1-0.4-0.1-0.7-0.1c-0.5,0-0.9,0.2-1.3,0.5
	c-0.7,0.6-0.7,1.7-0.1,2.4c0.3,0.4,0.8,0.6,1.3,0.6c0.4,0,0.8-0.1,1.2-0.3L23.3,14.9z"/>
<rect x="21.4" y="24.4" class="st0" width="22.5" height="15"/>
<rect x="23.7" y="26.7" class="st0" width="17.8" height="10.3"/>
<polyline class="st0" points="26.9,32.6 29.8,31.1 32.1,33.3 35.4,30.2 37.4,32.4 "/>
</svg>
