<?xml version="1.0" encoding="utf-8"?>
<!-- Generator: Adobe Illustrator 22.0.0, SVG Export Plug-In . SVG Version: 6.00 Build 0)  -->
<svg version="1.1" id="Layer_1" xmlns="http://www.w3.org/2000/svg" xmlns:xlink="http://www.w3.org/1999/xlink" x="0px" y="0px"
	 viewBox="0 0 123.4 109.5" style="enable-background:new 0 0 123.4 109.5;" xml:space="preserve">
<style type="text/css">
	.st0{fill:#fff;}
</style>
<g>
	<g>
		<g>
			<path class="st0" d="M15.1,87.6c-1.9,0.1-2.6-1.4-0.5-4.4c4.3-6,9-11.7,14.2-17.1c0.6-0.6,1.1-1.2,1.8-1.7
				c0.7-0.6,1.6-0.5,2.2,0.3c0.7,0.8,0.7,1.5,0,2.2c-8.1,8.2-5.2,6.2-13.5,16.2C19.1,83.6,17.5,85.8,15.1,87.6z"/>
			<path class="st0" d="M35.5,58.4c1.2,0,2.1,0.9,2.2,2.1c0,1.1-0.9,2.1-2,2.1c-1.2,0.1-2.1-0.8-2.2-2
				C33.5,59.4,34.3,58.4,35.5,58.4z"/>
			<path class="st0" d="M77.5,67.2c-1.1-0.1-2.1,0.2-3,0.8c-0.5,0.3-0.8,0.3-1.3,0c-0.7-0.5-1.2-0.4-1.8,0.3c-1.3,1.6-2.7,3.3-4,4.9
				c-1.9,2.3-4,4.3-6.4,6.1c-0.5,0.3-1,0.5-1.5,0.8c-0.1-0.1-0.1-0.1-0.2-0.2c0.3-0.9,0.9-1.6,1.5-2.3c1.5-1.7,3-3.3,4.5-5
				c0.4-0.5,0.8-1.1,1.1-1.7c0.5-0.9,0.6-1.9-0.1-2.8s-1.8-1.2-2.8-0.9c-1.4,0.4-2.6,1-4,1.6c-0.8-1.5-1.3-1.9-3.1-1.5
				c-1.3,0.3-2.4,0.8-3.7,1.3c-1-1.4-1.7-1.4-3-0.1c-0.7,0.7-1.4,1.5-2,2.2c-2.1,2.6-4.2,5.1-6.7,7.3c-0.7,0.6-1.4,1.2-2.2,1.7
				c-0.2,0.1-0.4,0.1-0.7,0.1c0-0.3-0.1-0.5-0.1-0.8c0.1-0.3,0.2-0.6,0.4-0.9c0.9-1.3,1.8-2.7,2.8-3.9c1.1-1.4,2.4-2.7,3.7-4
				c0.7-0.8,0.7-1.6-0.1-2.4c-0.7-0.7-1.4-0.6-2.1,0.1c-0.4,0.4-0.7,0.8-1.1,1.1c-2.3,2.5-4.6,5-7,7.4c-1.2,1.1-2.6,2-3.9,3
				c-0.3,0.2-0.7,0.2-1.1,0.4c0.2-1.4,0.9-2.3,1.7-3.2c1.9-2.2,3.9-4.4,5.8-6.6c0.2-0.3,0.5-0.6,0.5-1c0.1-0.8-0.2-1.3-0.9-1.7
				c-0.6-0.4-1.2-0.2-1.7,0.3c-1.9,2-3.9,4-5.6,6.2c-1,1.3-1.8,2.8-2.4,4.3c-0.5,1.1-0.4,2.4,0.6,3.3s2.2,1,3.4,0.5
				c1.1-0.5,2.2-1.2,3.2-1.9c0.2-0.1,0.5-0.3,0.7-0.5c0.2,2.3,2.7,3.7,5.6,1.9c0.2-0.1,6.5-6.5,10.6-9.7c1.1-0.8,2.2-1.3,2.7-1.6
				c0.5-0.3,1.5-0.3,2.1-0.5c0,0.1,0.1,0.1,0.1,0.2c-0.3,0.3-0.5,0.7-0.8,1c-2,2.5-4.1,4.9-6.1,7.4c-0.9,1.1-0.8,1.9,0,2.4
				c0.9,0.6,1.8,0.4,2.6-0.6c0.9-1.2,1.8-2.3,2.8-3.5c2-2.4,4.3-4.6,7-6.3c0.6-0.3,1.2-0.5,1.8-0.8c0,0.1,0.1,0.2,0.1,0.2
				c-0.2,0.3-0.4,0.5-0.7,0.8c-1.3,1.3-2.5,2.6-3.8,3.9c-1.2,1.3-2.3,2.7-2.8,4.6s0.7,3.4,2.6,3.4c0.1,0,0.3,0,0.6,0
				c-0.3,0.4-0.6,0.7-0.8,1.1c-2.1,2.9-1.9,3.1-4,6.1c-0.6,0.8-0.4,1.6,0.5,2.1s1.6,0.4,2.2-0.4c1.2-1.7,5.3-7.4,7.4-10
				c1.3,1.2,2.3,1.5,3.7,1.3c0.9-0.2,1.8-0.5,2.6-0.9c2.9-1.4,5.1-3.5,7-6c1.1-1.5,2.1-3,2.3-5C80.6,68.8,79.4,67.4,77.5,67.2z
				 M76.7,72.1c-1.9,2.9-4.2,5.4-7.1,7.2c-0.5,0.3-1.2,0.6-1.8,0.7c-0.2,0.1-0.7-0.1-0.8-0.2c-0.1-0.2-0.1-0.7,0.1-0.9
				c2.4-3,4.9-5.9,8-8.3c0.4-0.3,1-0.6,1.5-0.8c0.5-0.2,0.8,0.1,0.8,0.7C77.2,71.1,77,71.6,76.7,72.1z"/>
			<path class="st0" d="M122.7,73.4c-1.7,1.6-7,6.8-8.4,6.6c-1.4-0.2-0.3-1.5-0.1-2c0.3-0.5,0.6-1,0.9-1.5c1.5-2,3.2-4,4.8-6
				c0.4-0.4,0.5-1.1,0.2-1.6c-0.3-0.6-1-0.9-1.7-1.1s-1.3-0.4-2-0.6c0.2-0.5,0.3-0.9,0.4-1.3c0.2-1.2-0.9-2.2-2-1.8
				c-0.8,0.3-1.4,0.9-1.3,1.7c0.1,1.2-0.6,1.8-1.3,2.6c-0.5,0.6-1,1.2-1.6,1.8c-2.6,3-5.2,6-8.3,8.5c-0.6,0.5-1.3,0.9-2,1.4
				c-0.1-0.1-0.2-0.1-0.2-0.2c0-0.3,0-0.5,0.1-0.8c0.4-0.9,0.8-1.8,1.3-2.6c1.3-1.7,2.7-3.4,4.1-5.1c0.8-0.9,0.7-1.8-0.3-2.4
				c-0.3-0.2-0.7-0.3-1.1-0.4c-0.7-0.2-1.3-0.4-2-0.5c0.2-0.5,0.3-0.9,0.4-1.3c0.1-0.8-0.3-1.5-1-1.8s-1.5-0.1-1.9,0.6
				c-0.2,0.4-0.4,0.8-0.4,1.2c0.1,0.9-0.4,1.5-1,2.1c-1.7,1.8-3.4,3.8-5.2,5.5c-1.9,1.8-3.9,3.4-6.3,4.6c-1,0.5-2.1,0.9-3.3,0.7
				c-0.7-0.1-1.4-0.4-1.5-1.1s0.2-1.4,0.3-2c0-0.1,0.3-0.2,0.5-0.1c2.4,0.7,4.5,0,6.5-1.2c1.9-1.1,3.6-2.6,4.4-4.8
				c0.7-1.7,0-3-1.8-3.4C91,66.9,90,67,89.1,67.2c-2.9,0.7-5.1,2.4-7.1,4.5c-1.4,1.4-2.5,3-3,5c-0.8,3,0.9,5.4,4,5.7
				c1.9,0.2,3.7-0.4,5.4-1.2c3.1-1.5,5.6-3.9,8-6.2c1.6-1.5,3-3.2,4.5-4.9l1.1,0.6c-0.6,0.8-1.2,1.5-1.7,2.2
				c-1.3,1.6-2.5,3.2-3.1,5.2c-0.4,1.3-0.4,2.6,0.7,3.6c0.9,0.9,2.1,1,3.3,0.6c0.6-0.2,1.3-0.5,1.7-0.9c2.4-2.3,4.7-4.5,7-6.9
				c1.7-1.7,3.3-3.6,4.9-5.4l1.2,0.7c-0.9,1.2-1.8,2.4-2.7,3.5c-1.3,1.6-2.5,3.3-2.9,5.4c-0.5,2.5,1.4,4.4,3.9,3.7
				c0.9-0.3,1.9-0.8,2.6-1.5c0,0,4.9-5.5,6.4-7.1C124,73.7,123.2,72.9,122.7,73.4z M91.2,69.9c0.1,2-4.1,4.9-6.9,4.6
				C86.4,72.4,88.5,70.7,91.2,69.9z"/>
			<g>
				<path class="st0" d="M4.3,90.5c6.5,1,12.2-2.2,14.8-8.2c0.8-2-2-2-3.4-0.4c-1.9,2.2-2.4,3.1-4.4,4.2c-2,1-3.8,1.6-6.1,1.2
					C3.1,86.9,2.2,90.1,4.3,90.5L4.3,90.5z"/>
			</g>
		</g>
	</g>
</g>
<g>
	<g>
		<path class="st0" d="M8.9,98.7c-0.1-0.2-0.3-0.3-0.6-0.5c-0.2-0.2-0.5-0.3-0.8-0.4s-0.6-0.2-1-0.3c-0.4-0.1-0.7-0.1-1.1-0.1
			c-1,0-1.8,0.2-2.2,0.6c-0.5,0.4-0.7,0.9-0.7,1.6c0,0.4,0.1,0.7,0.2,0.9c0.1,0.2,0.3,0.4,0.6,0.6s0.7,0.3,1.1,0.4s0.9,0.3,1.5,0.4
			c0.7,0.1,1.3,0.3,1.8,0.5s1,0.4,1.4,0.7c0.4,0.3,0.7,0.6,0.9,1s0.3,0.9,0.3,1.5s-0.1,1.2-0.4,1.6c-0.2,0.5-0.6,0.8-1,1.1
			c-0.4,0.3-0.9,0.5-1.5,0.7s-1.2,0.2-1.9,0.2c-1,0-2-0.2-2.9-0.5s-1.7-0.8-2.5-1.4l0.8-1.4c0.2,0.2,0.5,0.4,0.8,0.6
			s0.7,0.4,1.1,0.6s0.8,0.3,1.3,0.4s0.9,0.2,1.5,0.2c0.9,0,1.7-0.2,2.2-0.5s0.8-0.8,0.8-1.5c0-0.4-0.1-0.7-0.2-0.9
			c-0.2-0.3-0.4-0.5-0.7-0.7s-0.7-0.3-1.2-0.5c-0.5-0.1-1-0.3-1.6-0.4c-0.7-0.2-1.3-0.3-1.8-0.5s-0.9-0.4-1.3-0.7
			c-0.3-0.3-0.6-0.6-0.8-0.9s-0.3-0.8-0.3-1.3c0-0.6,0.1-1.2,0.4-1.7c0.2-0.5,0.6-0.9,1-1.2c0.4-0.3,0.9-0.6,1.5-0.7
			C4.2,96,4.8,96,5.5,96c0.9,0,1.7,0.1,2.4,0.4s1.4,0.6,1.9,1.1L8.9,98.7z"/>
		<path class="st0" d="M33,97.5h-4.5v11.7h-1.7V97.5h-4.5V96H33V97.5z"/>
		<path class="st0" d="M51.4,107.7c0.8,0,1.4-0.1,1.9-0.4s0.9-0.7,1.2-1.2s0.5-1,0.6-1.6s0.2-1.2,0.2-1.9V96H57v6.6
			c0,0.9-0.1,1.7-0.3,2.5s-0.5,1.5-1,2.1c-0.4,0.6-1,1.1-1.7,1.4s-1.6,0.5-2.6,0.5s-1.9-0.2-2.6-0.6s-1.3-0.9-1.7-1.5
			s-0.8-1.3-0.9-2.1c-0.2-0.8-0.3-1.6-0.3-2.5v-6.6h1.7v6.6c0,0.7,0.1,1.3,0.2,1.9s0.3,1.2,0.6,1.6c0.3,0.5,0.7,0.8,1.2,1.1
			C50,107.6,50.6,107.7,51.4,107.7z"/>
		<path class="st0" d="M71,109.1V96h4.6c1,0,2,0.2,2.8,0.5s1.5,0.8,2,1.4s0.9,1.3,1.2,2.1c0.3,0.8,0.4,1.6,0.4,2.5
			c0,1-0.1,1.9-0.4,2.7c-0.3,0.8-0.7,1.5-1.3,2.1c-0.6,0.6-1.2,1-2,1.3s-1.7,0.5-2.6,0.5H71z M80.3,102.5c0-0.7-0.1-1.4-0.3-2
			c-0.2-0.6-0.5-1.2-0.9-1.6s-0.9-0.8-1.5-1c-0.6-0.3-1.2-0.4-2-0.4h-2.9v10.2h2.9c0.8,0,1.4-0.1,2-0.4s1.1-0.6,1.5-1.1
			s0.7-1,0.9-1.6C80.2,103.9,80.3,103.3,80.3,102.5z"/>
		<path class="st0" d="M95.4,109.1V96h1.7v13.1H95.4z"/>
		<path class="st0" d="M116.6,109.2c-0.9,0-1.8-0.2-2.5-0.6c-0.8-0.4-1.4-0.9-2-1.5c-0.5-0.6-1-1.3-1.3-2.1
			c-0.3-0.8-0.4-1.6-0.4-2.5s0.2-1.7,0.5-2.5s0.7-1.5,1.3-2.1s1.2-1.1,2-1.5s1.6-0.5,2.5-0.5s1.8,0.2,2.5,0.6
			c0.8,0.4,1.4,0.9,1.9,1.5s1,1.3,1.3,2.1c0.3,0.8,0.4,1.6,0.4,2.4c0,0.9-0.2,1.7-0.5,2.5s-0.7,1.5-1.3,2.1c-0.5,0.6-1.2,1.1-2,1.5
			C118.3,109,117.5,109.2,116.6,109.2z M112.1,102.5c0,0.7,0.1,1.3,0.3,1.9s0.5,1.2,0.9,1.7s0.9,0.9,1.4,1.1
			c0.6,0.3,1.2,0.4,1.8,0.4c0.7,0,1.3-0.2,1.9-0.5s1-0.7,1.4-1.2s0.7-1,0.9-1.7c0.2-0.6,0.3-1.2,0.3-1.9c0-0.7-0.1-1.3-0.3-1.9
			s-0.5-1.2-0.9-1.6s-0.9-0.9-1.4-1.1c-0.5-0.3-1.2-0.4-1.8-0.4c-0.7,0-1.3,0.1-1.9,0.4s-1,0.7-1.4,1.2s-0.7,1-0.9,1.6
			C112.2,101.3,112.1,101.9,112.1,102.5z"/>
	</g>
</g>
<g>
	<path class="st0" d="M70.8,51.1c-14,0-25.5-11.4-25.5-25.5S56.7,0.1,70.8,0.1s25.5,11.4,25.5,25.5S84.8,51.1,70.8,51.1z M70.8,1.2
		c-13.5,0-24.4,11-24.4,24.4S57.4,50,70.8,50s24.4-11,24.4-24.4S84.2,1.2,70.8,1.2z"/>
</g>
<g>
	<g>
		<path class="st0" d="M53.4,43.3L53.4,43.3c-0.4-0.1-0.6-0.3-0.5-0.6c0.6-3.7,5.2-5.8,5.3-5.8h0.1l4.4-1.2c0.3-0.1,0.6,0.1,0.7,0.4
			c0.1,0.3-0.1,0.6-0.4,0.7L58.7,38c-0.4,0.2-4.2,2-4.7,5C53.9,43.1,53.7,43.3,53.4,43.3z"/>
	</g>
	<g>
		<path class="st0" d="M88.8,43L88.8,43c-0.4-0.1-0.6-0.3-0.5-0.6c0-0.1,0.5-2.8-3.2-4.2l-5.4-1.7c-0.3-0.1-0.4-0.4-0.3-0.7
			s0.4-0.4,0.7-0.3l5.4,1.7c4.6,1.7,3.9,5.4,3.9,5.4C89.3,42.8,89,43,88.8,43z"/>
	</g>
	<g>
		<path class="st0" d="M81.3,44.7h-2.4c-0.3,0-0.5-0.2-0.5-0.5s0.2-0.5,0.5-0.5h2.4c0.3,0,0.5,0.2,0.5,0.5
			C81.8,44.4,81.5,44.7,81.3,44.7z"/>
	</g>
	<g>
		<circle class="st0" cx="60.5" cy="44.7" r="0.6"/>
	</g>
	<g>
		<circle class="st0" cx="84.6" cy="44.1" r="0.6"/>
	</g>
	<g>
		<path class="st0" d="M66.4,11.6c-0.1,0-0.3-0.1-0.4-0.2l-2.8-2.8c-0.2-0.2-0.2-0.5,0-0.8c0.2-0.2,0.5-0.2,0.8,0l2.8,2.8
			c0.2,0.2,0.2,0.5,0,0.8C66.7,11.6,66.5,11.6,66.4,11.6z"/>
	</g>
	<g>
		<path class="st0" d="M71.4,10.7c-0.3,0-0.5-0.2-0.5-0.5V6.8c0-0.3,0.2-0.5,0.5-0.5s0.5,0.2,0.5,0.5v3.4
			C71.9,10.5,71.7,10.7,71.4,10.7z"/>
	</g>
	<g>
		<path class="st0" d="M76.3,11.6c-0.1,0-0.3-0.1-0.4-0.2c-0.2-0.2-0.2-0.5,0-0.8l2.8-2.8c0.2-0.2,0.5-0.2,0.8,0
			c0.2,0.2,0.2,0.5,0,0.8l-2.8,2.8C76.6,11.6,76.5,11.6,76.3,11.6z"/>
	</g>
	<g>
		<path class="st0" d="M71.2,25.2c-1.2,0-2.3-1-2.3-2.3s1-2.3,2.3-2.3c1.2,0,2.3,1,2.3,2.3S72.4,25.2,71.2,25.2z M71.2,21.7
			c-0.7,0-1.2,0.5-1.2,1.2s0.5,1.2,1.2,1.2s1.2-0.5,1.2-1.2S71.8,21.7,71.2,21.7z"/>
	</g>
	<g>
		<path class="st0" d="M75.7,35.9H72v-7.2c0-0.2-0.2-0.4-0.4-0.4c-0.2,0-0.4,0.2-0.4,0.4v7.2h-3.7c-0.4,0-0.7-0.3-0.7-0.7
			c0-2.3-0.9-4.5-2.5-6.2c-2.5-2.6-4.3-7.2-1.6-12.4c0.8-1.5,2-2.7,3.5-3.5c1.8-0.9,3.6-1.4,5.4-1.4c1.9,0,3.7,0.5,5.3,1.5
			c3.1,1.9,4.9,5.1,4.9,8.7c0,2.7-1,5.2-2.9,7.2l0,0c-1.6,1.6-2.5,3.8-2.5,6.2C76.4,35.6,76.1,35.9,75.7,35.9z M73,34.8h2.3
			c0.1-2.5,1.1-4.8,2.8-6.5l0,0c1.7-1.7,2.6-4,2.6-6.4c0-3.2-1.7-6.2-4.4-7.8c-2.9-1.7-6.4-1.7-9.6,0c-1.3,0.7-2.3,1.7-3,3.1
			c-2.4,4.7-0.9,8.9,1.4,11.2c1.7,1.7,2.7,4.1,2.8,6.5h2.3v-6.1c0-0.8,0.6-1.4,1.4-1.4S73,28,73,28.8V34.8L73,34.8z M78.5,28.6
			L78.5,28.6L78.5,28.6z"/>
	</g>
	<g>
		<path class="st0" d="M74,40.9h-4.7c-1.1,0-2-0.9-2-2v-3.7H76v3.7C76,40,75.1,40.9,74,40.9z M68.3,36.2v2.7c0,0.5,0.4,1,1,1H74
			c0.5,0,1-0.4,1-1v-2.7H68.3z"/>
	</g>
</g>
</svg>
