<?xml version="1.0" encoding="utf-8"?>
<!-- Generator: Adobe Illustrator 22.0.0, SVG Export Plug-In . SVG Version: 6.00 Build 0)  -->
<svg version="1.1" id="Layer_1" xmlns="http://www.w3.org/2000/svg" xmlns:xlink="http://www.w3.org/1999/xlink" x="0px" y="0px"
	 viewBox="0 0 120.5 110" style="enable-background:new 0 0 120.5 110;" xml:space="preserve">
<style type="text/css">
	.st0{fill:#fff;}
	.st1{fill:none;stroke:#fff;stroke-miterlimit:10;}
	.st2{fill:#fff;stroke:#fff;stroke-width:0.25;stroke-miterlimit:10;}
</style>
<g>
	<path class="st0" d="M375.9,26.3c0-0.4,0.1-0.8,0.2-1.1c0.1-0.4,0.3-0.7,0.6-0.9c0.3-0.3,0.6-0.5,0.9-0.7c0.4-0.2,0.8-0.3,1.3-0.3
		c0.6,0,1,0.1,1.4,0.4c0.4,0.3,0.7,0.6,0.9,0.9l-0.8,0.5c-0.1-0.2-0.2-0.3-0.3-0.4s-0.3-0.3-0.4-0.3s-0.3-0.1-0.4-0.2
		c-0.1,0-0.3-0.1-0.4-0.1c-0.3,0-0.6,0.1-0.8,0.2c-0.3,0.1-0.4,0.3-0.6,0.5c-0.2,0.2-0.3,0.4-0.4,0.7s-0.1,0.5-0.1,0.8
		c0,0.3,0.1,0.6,0.1,0.8c0.1,0.3,0.3,0.5,0.4,0.7c0.2,0.2,0.4,0.4,0.6,0.5c0.3,0.1,0.5,0.2,0.8,0.2c0.1,0,0.3,0,0.4-0.1
		s0.3-0.1,0.4-0.2c0.1-0.1,0.3-0.2,0.4-0.3c0.1-0.1,0.3-0.3,0.3-0.4l0.8,0.4c-0.1,0.3-0.3,0.4-0.4,0.6s-0.4,0.3-0.6,0.4
		c-0.2,0.1-0.4,0.2-0.7,0.3c-0.3,0.1-0.5,0.1-0.8,0.1c-0.4,0-0.8-0.1-1.2-0.3c-0.4-0.2-0.6-0.4-0.9-0.7c-0.3-0.3-0.4-0.6-0.6-1
		C376,27.1,375.9,26.7,375.9,26.3z"/>
	<path class="st0" d="M383.8,29.4v-6.1h2.7c0.3,0,0.5,0.1,0.8,0.2c0.3,0.1,0.4,0.3,0.6,0.4c0.2,0.2,0.3,0.4,0.4,0.6
		c0.1,0.3,0.1,0.5,0.1,0.7c0,0.2,0,0.4-0.1,0.6c-0.1,0.2-0.1,0.4-0.3,0.5c-0.1,0.2-0.3,0.3-0.4,0.4s-0.3,0.2-0.5,0.3l1.5,2.3h-1.1
		l-1.3-2.1h-1.4v2.1H383.8z M384.8,26.4h1.7c0.1,0,0.3,0,0.4-0.1c0.1-0.1,0.2-0.1,0.3-0.3c0.1-0.1,0.1-0.3,0.2-0.4
		c0.1-0.1,0.1-0.3,0.1-0.4c0-0.1,0-0.3-0.1-0.4s-0.1-0.3-0.2-0.4c-0.1-0.1-0.2-0.2-0.3-0.3c-0.1-0.1-0.3-0.1-0.4-0.1h-1.6
		L384.8,26.4L384.8,26.4z"/>
	<path class="st0" d="M396.3,29.4V25l-1.8,3.3H394l-1.8-3.3v4.4h-0.9v-6.1h1l2,3.7l2-3.7h1v6.1H396.3z"/>
</g>
<path class="st0" d="M328.8,71.4c0-0.8,0.1-1.5,0.4-2.3c0.3-0.8,0.7-1.4,1.2-2s1.2-1.1,1.9-1.5c0.8-0.4,1.6-0.6,2.6-0.6
	c1.2,0,2.1,0.3,3,0.8c0.8,0.5,1.4,1.2,1.9,2l-1.6,1.1c-0.2-0.4-0.4-0.7-0.6-1c-0.2-0.3-0.5-0.5-0.8-0.6c-0.3-0.2-0.6-0.3-0.9-0.3
	s-0.7-0.1-1-0.1c-0.7,0-1.3,0.1-1.8,0.4s-0.9,0.6-1.3,1.1c-0.3,0.4-0.6,0.9-0.8,1.5c-0.2,0.6-0.1,1-0.1,1.6s0.1,1.2,0.3,1.8
	c0.2,0.6,0.5,1.1,0.9,1.5c0.4,0.4,0.8,0.8,1.3,1c0.5,0.3,1,0.4,1.6,0.4c0.3,0,0.6,0,1-0.1c0.3-0.1,0.6-0.2,0.9-0.4
	c0.3-0.2,0.6-0.4,0.8-0.7c0.3-0.3,0.5-0.6,0.6-0.9L340,75c-0.2,0.5-0.5,0.9-0.9,1.3c-0.4,0.4-0.8,0.7-1.3,0.9
	c-0.5,0.3-1,0.4-1.5,0.6c-0.5,0.1-1,0.2-1.5,0.2c-0.9,0-1.7-0.2-2.5-0.6c-0.7-0.4-1.4-0.9-1.9-1.5s-1-1.3-1.3-2.1
	C329,73,328.8,72.2,328.8,71.4z"/>
<path class="st0" d="M356.1,77.8v-9.1l-3.8,6.9h-1.1l-3.8-6.9v9.1h-2V65.1h2.1l4.2,7.8l4.2-7.8h2.1v12.7
	C358,77.8,356.1,77.8,356.1,77.8z"/>
<path class="st0" d="M372.1,68.1c-0.1-0.1-0.3-0.3-0.5-0.4c-0.2-0.1-0.5-0.3-0.8-0.4s-0.6-0.2-1-0.3c-0.4-0.1-0.7-0.1-1.1-0.1
	c-0.8,0-1.5,0.2-1.9,0.5s-0.6,0.7-0.6,1.3c0,0.3,0.1,0.6,0.2,0.8c0.1,0.2,0.3,0.4,0.6,0.5c0.3,0.1,0.6,0.3,1,0.4
	c0.4,0.1,0.9,0.2,1.4,0.4c0.6,0.2,1.2,0.3,1.7,0.5s1,0.4,1.3,0.7c0.4,0.3,0.6,0.6,0.8,1c0.2,0.4,0.3,0.9,0.3,1.5s-0.1,1.2-0.4,1.7
	c-0.2,0.5-0.6,0.8-1,1.1c-0.4,0.3-0.9,0.5-1.5,0.6c-0.6,0.1-1.2,0.2-1.8,0.2c-1,0-1.9-0.1-2.8-0.4s-1.7-0.7-2.4-1.3l0.9-1.7
	c0.2,0.2,0.4,0.3,0.7,0.5c0.3,0.2,0.6,0.4,1,0.5c0.4,0.1,0.8,0.3,1.3,0.4s0.9,0.2,1.4,0.2c0.8,0,1.4-0.1,1.8-0.4
	c0.4-0.3,0.6-0.7,0.6-1.2c0-0.3-0.1-0.6-0.2-0.8s-0.4-0.4-0.7-0.6s-0.7-0.3-1.1-0.4s-0.9-0.3-1.5-0.4c-0.6-0.2-1.2-0.3-1.7-0.5
	s-0.9-0.4-1.2-0.7c-0.3-0.3-0.5-0.6-0.7-0.9c-0.2-0.3-0.2-0.8-0.2-1.3c0-0.6,0.1-1.2,0.4-1.7c0.2-0.5,0.6-0.9,1-1.2
	c0.4-0.3,0.9-0.6,1.5-0.7c0.6-0.2,1.2-0.2,1.8-0.2c0.9,0,1.7,0.1,2.4,0.4c0.7,0.3,1.4,0.6,1.9,1L372.1,68.1z"/>
<path class="st0" d="M391.4,71.4c0-0.8,0.1-1.5,0.4-2.3c0.3-0.8,0.7-1.4,1.2-2s1.2-1.1,1.9-1.5c0.8-0.4,1.6-0.6,2.6-0.6
	c1.2,0,2.1,0.3,3,0.8c0.8,0.5,1.4,1.2,1.9,2l-1.6,1.1c-0.2-0.4-0.4-0.7-0.6-1c-0.2-0.3-0.5-0.5-0.8-0.6c-0.3-0.2-0.6-0.3-0.9-0.3
	c-0.3,0-0.6-0.1-0.9-0.1c-0.7,0-1.3,0.1-1.8,0.4s-0.9,0.6-1.3,1.1c-0.3,0.4-0.6,0.9-0.8,1.5s-0.3,1.1-0.3,1.6c0,0.6,0.1,1.2,0.3,1.8
	c0.2,0.6,0.5,1.1,0.9,1.5s0.8,0.8,1.3,1c0.5,0.3,1,0.4,1.6,0.4c0.3,0,0.6,0,1-0.1c0.3-0.1,0.6-0.2,0.9-0.4c0.3-0.2,0.6-0.4,0.8-0.7
	c0.3-0.3,0.5-0.6,0.6-0.9l1.7,0.9c-0.2,0.5-0.5,0.9-0.9,1.3s-0.8,0.7-1.3,0.9c-0.5,0.3-1,0.4-1.5,0.6c-0.5,0.1-1,0.2-1.5,0.2
	c-0.9,0-1.7-0.2-2.5-0.6c-0.7-0.4-1.4-0.9-1.9-1.5s-1-1.3-1.3-2.1C391.6,73,391.4,72.2,391.4,71.4z"/>
<path class="st0" d="M408.1,77.8V65.1h5.5c0.6,0,1.1,0.1,1.6,0.4c0.5,0.2,0.9,0.6,1.2,0.9c0.3,0.4,0.6,0.8,0.8,1.3s0.3,1,0.3,1.5
	c0,0.4-0.1,0.8-0.2,1.2c-0.1,0.4-0.3,0.8-0.5,1.1c-0.2,0.3-0.5,0.6-0.8,0.9c-0.3,0.2-0.7,0.4-1,0.5l3,4.8h-2.3l-2.8-4.4H410v4.4
	L408.1,77.8L408.1,77.8z M410.1,71.6h3.5c0.3,0,0.5-0.1,0.8-0.2c0.3-0.1,0.4-0.3,0.6-0.5c0.2-0.2,0.3-0.5,0.4-0.8s0.1-0.6,0.1-0.9
	s-0.1-0.6-0.2-0.9s-0.3-0.5-0.4-0.8c-0.2-0.2-0.4-0.4-0.6-0.5c-0.2-0.1-0.5-0.2-0.8-0.2h-3.4V71.6z"/>
<path class="st0" d="M434.1,77.8v-9.1l-3.8,6.9h-1.1l-3.8-6.9v9.1h-2V65.1h2.1l4.2,7.8l4.2-7.8h2.1v12.7
	C436,77.8,434.1,77.8,434.1,77.8z"/>
<rect x="364.8" y="15.9" class="st1" width="37" height="21.7"/>
<line class="st1" x1="372.9" y1="16" x2="372.9" y2="37.6"/>
<g>
	<path class="st0" d="M371,19.2h-4.1c-0.2,0-0.3-0.1-0.3-0.3v-0.3c0-0.2,0.1-0.3,0.3-0.3h4.1c0.2,0,0.3,0.1,0.3,0.3v0.3
		C371.3,19.1,371.2,19.2,371,19.2z"/>
</g>
<g>
	<path class="st0" d="M371,24.6h-4.1c-0.2,0-0.3-0.1-0.3-0.3V24c0-0.2,0.1-0.3,0.3-0.3h4.1c0.2,0,0.3,0.1,0.3,0.3v0.3
		C371.3,24.4,371.2,24.6,371,24.6z"/>
</g>
<g>
	<path class="st0" d="M371,29.9h-4.1c-0.2,0-0.3-0.1-0.3-0.3v-0.3c0-0.2,0.1-0.3,0.3-0.3h4.1c0.2,0,0.3,0.1,0.3,0.3v0.3
		C371.4,29.7,371.2,29.9,371,29.9z"/>
</g>
<g>
	<path class="st0" d="M371,35.4h-4.1c-0.2,0-0.3-0.1-0.3-0.3v-0.4c0-0.2,0.1-0.3,0.3-0.3h4.1c0.2,0,0.3,0.1,0.3,0.3V35
		C371.3,35.2,371.2,35.4,371,35.4z"/>
</g>
<g>
	<g>
		<g>
			<path class="st0" d="M175.1,88.6c-1.9,0.1-2.6-1.4-0.5-4.4c4.3-6,9-11.7,14.2-17.1c0.6-0.6,1.1-1.2,1.8-1.7
				c0.7-0.6,1.6-0.5,2.2,0.3c0.7,0.8,0.7,1.5,0,2.2c-8.1,8.2-5.2,6.2-13.5,16.2C179.1,84.6,177.5,86.8,175.1,88.6z"/>
			<path class="st0" d="M195.5,59.4c1.2,0,2.1,0.9,2.2,2.1c0,1.1-0.9,2.1-2,2.1c-1.2,0.1-2.1-0.8-2.2-2
				C193.5,60.4,194.3,59.4,195.5,59.4z"/>
			<path class="st0" d="M237.5,68.2c-1.1-0.1-2.1,0.2-3,0.8c-0.5,0.3-0.8,0.3-1.3,0c-0.7-0.5-1.2-0.4-1.8,0.3
				c-1.3,1.6-2.7,3.3-4,4.9c-1.9,2.3-4,4.3-6.4,6.1c-0.5,0.3-1,0.5-1.5,0.8c-0.1-0.1-0.1-0.1-0.2-0.2c0.3-0.9,0.9-1.6,1.5-2.3
				c1.5-1.7,3-3.3,4.5-5c0.4-0.5,0.8-1.1,1.1-1.7c0.5-0.9,0.6-1.9-0.1-2.8s-1.8-1.2-2.8-0.9c-1.4,0.4-2.6,1-4,1.6
				c-0.8-1.5-1.3-1.9-3.1-1.5c-1.3,0.3-2.4,0.8-3.7,1.3c-1-1.4-1.7-1.4-3-0.1c-0.7,0.7-1.4,1.5-2,2.2c-2.1,2.6-4.2,5.1-6.7,7.3
				c-0.7,0.6-1.4,1.2-2.2,1.7c-0.2,0.1-0.4,0.1-0.7,0.1c0-0.3-0.1-0.5-0.1-0.8c0.1-0.3,0.2-0.6,0.4-0.9c0.9-1.3,1.8-2.7,2.8-3.9
				c1.1-1.4,2.4-2.7,3.7-4c0.7-0.8,0.7-1.6-0.1-2.4c-0.7-0.7-1.4-0.6-2.1,0.1c-0.4,0.4-0.7,0.8-1.1,1.1c-2.3,2.5-4.6,5-7,7.4
				c-1.2,1.1-2.6,2-3.9,3c-0.3,0.2-0.7,0.2-1.1,0.4c0.2-1.4,0.9-2.3,1.7-3.2c1.9-2.2,3.9-4.4,5.8-6.6c0.2-0.3,0.5-0.6,0.5-1
				c0.1-0.8-0.2-1.3-0.9-1.7c-0.6-0.4-1.2-0.2-1.7,0.3c-1.9,2-3.9,4-5.6,6.2c-1,1.3-1.8,2.8-2.4,4.3c-0.5,1.1-0.4,2.4,0.6,3.3
				s2.2,1,3.4,0.5c1.1-0.5,2.2-1.2,3.2-1.9c0.2-0.1,0.5-0.3,0.7-0.5c0.2,2.3,2.7,3.7,5.6,1.9c0.2-0.1,6.5-6.5,10.6-9.7
				c1.1-0.8,2.2-1.3,2.7-1.6c0.5-0.3,1.5-0.3,2.1-0.5c0,0.1,0.1,0.1,0.1,0.2c-0.3,0.3-0.5,0.7-0.8,1c-2,2.5-4.1,4.9-6.1,7.4
				c-0.9,1.1-0.8,1.9,0,2.4c0.9,0.6,1.8,0.4,2.6-0.6c0.9-1.2,1.8-2.3,2.8-3.5c2-2.4,4.3-4.6,7-6.3c0.6-0.3,1.2-0.5,1.8-0.8
				c0,0.1,0.1,0.2,0.1,0.2c-0.2,0.3-0.4,0.5-0.7,0.8c-1.3,1.3-2.5,2.6-3.8,3.9c-1.2,1.3-2.3,2.7-2.8,4.6s0.7,3.4,2.6,3.4
				c0.1,0,0.3,0,0.6,0c-0.3,0.4-0.6,0.7-0.8,1.1c-2.1,2.9-1.9,3.1-4,6.1c-0.6,0.8-0.4,1.6,0.5,2.1c0.9,0.5,1.6,0.4,2.2-0.4
				c1.2-1.7,5.3-7.4,7.4-10c1.3,1.2,2.3,1.5,3.7,1.3c0.9-0.2,1.8-0.5,2.6-0.9c2.9-1.4,5.1-3.5,7-6c1.1-1.5,2.1-3,2.3-5
				C240.6,69.8,239.4,68.4,237.5,68.2z M236.7,73.1c-1.9,2.9-4.2,5.4-7.1,7.2c-0.5,0.3-1.2,0.6-1.8,0.7c-0.2,0.1-0.7-0.1-0.8-0.2
				c-0.1-0.2-0.1-0.7,0.1-0.9c2.4-3,4.9-5.9,8-8.3c0.4-0.3,1-0.6,1.5-0.8c0.5-0.2,0.8,0.1,0.8,0.7C237.2,72.1,237,72.6,236.7,73.1z"
				/>
			<path class="st0" d="M282.7,74.4c-1.7,1.6-7,6.8-8.4,6.6c-1.4-0.2-0.3-1.5-0.1-2c0.3-0.5,0.6-1,0.9-1.5c1.5-2,3.2-4,4.8-6
				c0.4-0.4,0.5-1.1,0.2-1.6c-0.3-0.6-1-0.9-1.7-1.1c-0.7-0.2-1.3-0.4-2-0.6c0.2-0.5,0.3-0.9,0.4-1.3c0.2-1.2-0.9-2.2-2-1.8
				c-0.8,0.3-1.4,0.9-1.3,1.7c0.1,1.2-0.6,1.8-1.3,2.6c-0.5,0.6-1,1.2-1.6,1.8c-2.6,3-5.2,6-8.3,8.5c-0.6,0.5-1.3,0.9-2,1.4
				c-0.1-0.1-0.2-0.1-0.2-0.2c0-0.3,0-0.5,0.1-0.8c0.4-0.9,0.8-1.8,1.3-2.6c1.3-1.7,2.7-3.4,4.1-5.1c0.8-0.9,0.7-1.8-0.3-2.4
				c-0.3-0.2-0.7-0.3-1.1-0.4c-0.7-0.2-1.3-0.4-2-0.5c0.2-0.5,0.3-0.9,0.4-1.3c0.1-0.8-0.3-1.5-1-1.8c-0.7-0.3-1.5-0.1-1.9,0.6
				c-0.2,0.4-0.4,0.8-0.4,1.2c0.1,0.9-0.4,1.5-1,2.1c-1.7,1.8-3.4,3.8-5.2,5.5c-1.9,1.8-3.9,3.4-6.3,4.6c-1,0.5-2.1,0.9-3.3,0.7
				c-0.7-0.1-1.4-0.4-1.5-1.1c-0.1-0.7,0.2-1.4,0.3-2c0-0.1,0.3-0.2,0.5-0.1c2.4,0.7,4.5,0,6.5-1.2c1.9-1.1,3.6-2.6,4.4-4.8
				c0.7-1.7,0-3-1.8-3.4c-0.9-0.2-1.9-0.1-2.8,0.1c-2.9,0.7-5.1,2.4-7.1,4.5c-1.4,1.4-2.5,3-3,5c-0.8,3,0.9,5.4,4,5.7
				c1.9,0.2,3.7-0.4,5.4-1.2c3.1-1.5,5.6-3.9,8-6.2c1.6-1.5,3-3.2,4.5-4.9l1.1,0.6c-0.6,0.8-1.2,1.5-1.7,2.2
				c-1.3,1.6-2.5,3.2-3.1,5.2c-0.4,1.3-0.4,2.6,0.7,3.6c0.9,0.9,2.1,1,3.3,0.6c0.6-0.2,1.3-0.5,1.7-0.9c2.4-2.3,4.7-4.5,7-6.9
				c1.7-1.7,3.3-3.6,4.9-5.4l1.2,0.7c-0.9,1.2-1.8,2.4-2.7,3.5c-1.3,1.6-2.5,3.3-2.9,5.4c-0.5,2.5,1.4,4.4,3.9,3.7
				c0.9-0.3,1.9-0.8,2.6-1.5c0,0,4.9-5.5,6.4-7.1C284,74.7,283.2,73.9,282.7,74.4z M251.2,70.9c0.1,2-4.1,4.9-6.9,4.6
				C246.4,73.4,248.5,71.7,251.2,70.9z"/>
			<g>
				<path class="st0" d="M164.3,91.5c6.5,1,12.2-2.2,14.8-8.2c0.8-2-2-2-3.4-0.4c-1.9,2.2-2.4,3.1-4.4,4.2c-2,1-3.8,1.6-6.1,1.2
					C163.1,87.9,162.2,91.1,164.3,91.5L164.3,91.5z"/>
			</g>
		</g>
	</g>
</g>
<g>
	<g>
		<path class="st0" d="M168.9,99.7c-0.1-0.2-0.3-0.3-0.6-0.5c-0.2-0.2-0.5-0.3-0.8-0.4s-0.6-0.2-1-0.3c-0.4-0.1-0.7-0.1-1.1-0.1
			c-1,0-1.8,0.2-2.2,0.6c-0.5,0.4-0.7,0.9-0.7,1.6c0,0.4,0.1,0.7,0.2,0.9c0.1,0.2,0.3,0.4,0.6,0.6s0.7,0.3,1.1,0.4
			c0.4,0.1,0.9,0.3,1.5,0.4c0.7,0.1,1.3,0.3,1.8,0.5s1,0.4,1.4,0.7c0.4,0.3,0.7,0.6,0.9,1s0.3,0.9,0.3,1.5s-0.1,1.2-0.4,1.6
			c-0.2,0.5-0.6,0.8-1,1.1c-0.4,0.3-0.9,0.5-1.5,0.7c-0.6,0.2-1.2,0.2-1.9,0.2c-1,0-2-0.2-2.9-0.5c-0.9-0.3-1.7-0.8-2.5-1.4l0.8-1.4
			c0.2,0.2,0.5,0.4,0.8,0.6s0.7,0.4,1.1,0.6c0.4,0.2,0.8,0.3,1.3,0.4s0.9,0.2,1.5,0.2c0.9,0,1.7-0.2,2.2-0.5s0.8-0.8,0.8-1.5
			c0-0.4-0.1-0.7-0.2-0.9c-0.2-0.3-0.4-0.5-0.7-0.7s-0.7-0.3-1.2-0.5c-0.5-0.1-1-0.3-1.6-0.4c-0.7-0.2-1.3-0.3-1.8-0.5
			s-0.9-0.4-1.3-0.7c-0.3-0.3-0.6-0.6-0.8-0.9s-0.3-0.8-0.3-1.3c0-0.6,0.1-1.2,0.4-1.7c0.2-0.5,0.6-0.9,1-1.2
			c0.4-0.3,0.9-0.6,1.5-0.7c0.6-0.2,1.2-0.2,1.9-0.2c0.9,0,1.7,0.1,2.4,0.4s1.4,0.6,1.9,1.1L168.9,99.7z"/>
		<path class="st0" d="M193,98.5h-4.5v11.7h-1.7V98.5h-4.5V97H193V98.5z"/>
		<path class="st0" d="M211.4,108.7c0.8,0,1.4-0.1,1.9-0.4s0.9-0.7,1.2-1.2s0.5-1,0.6-1.6c0.1-0.6,0.2-1.2,0.2-1.9V97h1.7v6.6
			c0,0.9-0.1,1.7-0.3,2.5c-0.2,0.8-0.5,1.5-1,2.1c-0.4,0.6-1,1.1-1.7,1.4s-1.6,0.5-2.6,0.5s-1.9-0.2-2.6-0.6s-1.3-0.9-1.7-1.5
			s-0.8-1.3-0.9-2.1c-0.2-0.8-0.3-1.6-0.3-2.5v-6.6h1.7v6.6c0,0.7,0.1,1.3,0.2,1.9c0.1,0.6,0.3,1.2,0.6,1.6c0.3,0.5,0.7,0.8,1.2,1.1
			C210,108.6,210.6,108.7,211.4,108.7z"/>
		<path class="st0" d="M231,110.1V97h4.6c1,0,2,0.2,2.8,0.5s1.5,0.8,2,1.4s0.9,1.3,1.2,2.1c0.3,0.8,0.4,1.6,0.4,2.5
			c0,1-0.1,1.9-0.4,2.7c-0.3,0.8-0.7,1.5-1.3,2.1c-0.6,0.6-1.2,1-2,1.3s-1.7,0.5-2.6,0.5H231z M240.3,103.5c0-0.7-0.1-1.4-0.3-2
			s-0.5-1.2-0.9-1.6c-0.4-0.4-0.9-0.8-1.5-1c-0.6-0.3-1.2-0.4-2-0.4h-2.9v10.2h2.9c0.8,0,1.4-0.1,2-0.4c0.6-0.3,1.1-0.6,1.5-1.1
			c0.4-0.5,0.7-1,0.9-1.6C240.2,104.9,240.3,104.3,240.3,103.5z"/>
		<path class="st0" d="M255.4,110.1V97h1.7v13.1H255.4z"/>
		<path class="st0" d="M276.6,110.2c-0.9,0-1.8-0.2-2.5-0.6c-0.8-0.4-1.4-0.9-2-1.5c-0.5-0.6-1-1.3-1.3-2.1
			c-0.3-0.8-0.4-1.6-0.4-2.5s0.2-1.7,0.5-2.5c0.3-0.8,0.7-1.5,1.3-2.1s1.2-1.1,2-1.5c0.8-0.4,1.6-0.5,2.5-0.5s1.8,0.2,2.5,0.6
			c0.8,0.4,1.4,0.9,1.9,1.5s1,1.3,1.3,2.1c0.3,0.8,0.4,1.6,0.4,2.4c0,0.9-0.2,1.7-0.5,2.5c-0.3,0.8-0.7,1.5-1.3,2.1
			c-0.5,0.6-1.2,1.1-2,1.5C278.3,110,277.5,110.2,276.6,110.2z M272.1,103.5c0,0.7,0.1,1.3,0.3,1.9c0.2,0.6,0.5,1.2,0.9,1.7
			s0.9,0.9,1.4,1.1c0.6,0.3,1.2,0.4,1.8,0.4c0.7,0,1.3-0.2,1.9-0.5c0.6-0.3,1-0.7,1.4-1.2s0.7-1,0.9-1.7c0.2-0.6,0.3-1.2,0.3-1.9
			c0-0.7-0.1-1.3-0.3-1.9c-0.2-0.6-0.5-1.2-0.9-1.6s-0.9-0.9-1.4-1.1c-0.5-0.3-1.2-0.4-1.8-0.4c-0.7,0-1.3,0.1-1.9,0.4
			c-0.6,0.3-1,0.7-1.4,1.2s-0.7,1-0.9,1.6C272.2,102.3,272.1,102.9,272.1,103.5z"/>
	</g>
</g>
<g>
	<path class="st0" d="M230.8,52.1c-14,0-25.5-11.4-25.5-25.5s11.4-25.5,25.5-25.5c14.1,0,25.5,11.4,25.5,25.5S244.8,52.1,230.8,52.1
		z M230.8,2.2c-13.5,0-24.4,11-24.4,24.4s11,24.4,24.4,24.4c13.4,0,24.4-11,24.4-24.4S244.2,2.2,230.8,2.2z"/>
</g>
<g>
	<path class="st0" d="M383.3,52.1c-14,0-25.5-11.4-25.5-25.5s11.4-25.5,25.5-25.5s25.5,11.4,25.5,25.5S397.3,52.1,383.3,52.1z
		 M383.3,2.2c-13.5,0-24.4,11-24.4,24.4s11,24.4,24.4,24.4s24.4-11,24.4-24.4S396.7,2.2,383.3,2.2z"/>
</g>
<g>
	<path class="st0" d="M532.6,52.1c-14,0-25.5-11.4-25.5-25.5s11.4-25.5,25.5-25.5c14.1,0,25.5,11.4,25.5,25.5S546.6,52.1,532.6,52.1
		z M532.6,2.2c-13.5,0-24.4,11-24.4,24.4s11,24.4,24.4,24.4C546,51,557,40,557,26.6S546,2.2,532.6,2.2z"/>
</g>
<g>
	<path class="st0" d="M677.9,52.1c-14,0-25.5-11.4-25.5-25.5s11.4-25.5,25.5-25.5c14.1,0,25.5,11.4,25.5,25.5S691.9,52.1,677.9,52.1
		z M677.9,2.2c-13.5,0-24.4,11-24.4,24.4s11,24.4,24.4,24.4c13.4,0,24.4-11,24.4-24.4S691.3,2.2,677.9,2.2z"/>
</g>
<g>
	<path class="st0" d="M835.9,52.1c-14,0-25.5-11.4-25.5-25.5s11.4-25.5,25.5-25.5c14.1,0,25.5,11.4,25.5,25.5S849.9,52.1,835.9,52.1
		z M835.9,2.2c-13.5,0-24.4,11-24.4,24.4s11,24.4,24.4,24.4c13.4,0,24.4-11,24.4-24.4S849.3,2.2,835.9,2.2z"/>
</g>
<g>
	<g>
		<path class="st0" d="M213.4,44.3L213.4,44.3c-0.4-0.1-0.6-0.3-0.5-0.6c0.6-3.7,5.2-5.8,5.3-5.8h0.1l4.4-1.2
			c0.3-0.1,0.6,0.1,0.7,0.4c0.1,0.3-0.1,0.6-0.4,0.7l-4.3,1.2c-0.4,0.2-4.2,2-4.7,5C213.9,44.1,213.7,44.3,213.4,44.3z"/>
	</g>
	<g>
		<path class="st0" d="M248.8,44h-0.1c-0.3-0.1-0.5-0.3-0.4-0.6c0-0.1,0.5-2.8-3.2-4.2l-5.4-1.7c-0.3-0.1-0.4-0.4-0.3-0.7
			c0.1-0.3,0.4-0.4,0.7-0.3l5.4,1.7c4.6,1.7,3.9,5.4,3.9,5.4C249.3,43.8,249,44,248.8,44z"/>
	</g>
	<g>
		<path class="st0" d="M241.3,45.7h-2.4c-0.3,0-0.5-0.2-0.5-0.5s0.2-0.5,0.5-0.5h2.4c0.3,0,0.5,0.2,0.5,0.5
			C241.8,45.4,241.5,45.7,241.3,45.7z"/>
	</g>
	<g>
		<circle class="st0" cx="220.5" cy="45.7" r="0.6"/>
	</g>
	<g>
		<circle class="st0" cx="244.6" cy="45.1" r="0.6"/>
	</g>
	<g>
		<path class="st0" d="M226.4,12.6c-0.1,0-0.3-0.1-0.4-0.2l-2.8-2.8c-0.2-0.2-0.2-0.5,0-0.8c0.2-0.2,0.5-0.2,0.8,0l2.8,2.8
			c0.2,0.2,0.2,0.5,0,0.8C226.7,12.6,226.5,12.6,226.4,12.6z"/>
	</g>
	<g>
		<path class="st0" d="M231.4,11.7c-0.3,0-0.5-0.2-0.5-0.5V7.8c0-0.3,0.2-0.5,0.5-0.5s0.5,0.2,0.5,0.5v3.4
			C231.9,11.5,231.7,11.7,231.4,11.7z"/>
	</g>
	<g>
		<path class="st0" d="M236.3,12.6c-0.1,0-0.3-0.1-0.4-0.2c-0.2-0.2-0.2-0.5,0-0.8l2.8-2.8c0.2-0.2,0.5-0.2,0.8,0
			c0.2,0.2,0.2,0.5,0,0.8l-2.8,2.8C236.6,12.6,236.5,12.6,236.3,12.6z"/>
	</g>
	<g>
		<path class="st0" d="M231.2,26.2c-1.2,0-2.3-1-2.3-2.3s1-2.3,2.3-2.3c1.2,0,2.3,1,2.3,2.3S232.4,26.2,231.2,26.2z M231.2,22.7
			c-0.7,0-1.2,0.5-1.2,1.2s0.5,1.2,1.2,1.2s1.2-0.5,1.2-1.2S231.8,22.7,231.2,22.7z"/>
	</g>
	<g>
		<path class="st0" d="M235.7,36.9H232v-7.2c0-0.2-0.2-0.4-0.4-0.4s-0.4,0.2-0.4,0.4v7.2h-3.7c-0.4,0-0.7-0.3-0.7-0.7
			c0-2.3-0.9-4.5-2.5-6.2c-2.5-2.6-4.3-7.2-1.6-12.4c0.8-1.5,2-2.7,3.5-3.5c1.8-0.9,3.6-1.4,5.4-1.4c1.9,0,3.7,0.5,5.3,1.5
			c3.1,1.9,4.9,5.1,4.9,8.7c0,2.7-1,5.2-2.9,7.2l0,0c-1.6,1.6-2.5,3.8-2.5,6.2C236.4,36.6,236.1,36.9,235.7,36.9z M233,35.8h2.3
			c0.1-2.5,1.1-4.8,2.8-6.5l0,0c1.7-1.7,2.6-4,2.6-6.4c0-3.2-1.7-6.2-4.4-7.8c-2.9-1.7-6.4-1.7-9.6,0c-1.3,0.7-2.3,1.7-3,3.1
			c-2.4,4.7-0.9,8.9,1.4,11.2c1.7,1.7,2.7,4.1,2.8,6.5h2.3v-6.1c0-0.8,0.6-1.4,1.4-1.4s1.4,0.6,1.4,1.4L233,35.8L233,35.8z
			 M238.5,29.6L238.5,29.6L238.5,29.6z"/>
	</g>
	<g>
		<path class="st0" d="M234,41.9h-4.7c-1.1,0-2-0.9-2-2v-3.7h8.7v3.7C236,41,235.1,41.9,234,41.9z M228.3,37.2v2.7c0,0.5,0.4,1,1,1
			h4.7c0.5,0,1-0.4,1-1v-2.7H228.3z"/>
	</g>
</g>
<g>
	<path class="st0" d="M29.7,65.6c-0.6-0.7-1.5-0.9-2.2-0.3c-0.6,0.5-1.2,1.1-1.8,1.7c-4.8,5.1-9.3,10.5-13.4,16.1
		c-1.6,1.9-2.2,2.8-4.1,3.8c-2,1-3.8,1.6-6.1,1.2c-2.1-0.3-3,2.9-0.9,3.2c4.5,0.7,8.6-0.6,11.6-3.5c1.9-1.7,3.2-3.5,3.4-3.9
		c8.3-9.9,5.4-7.9,13.5-16.2C30.3,67.1,30.3,66.4,29.7,65.6z"/>
	<path class="st0" d="M32.5,63.4c1.1,0,2-1,2-2.1c0-1.2-1-2.1-2.2-2.1s-2.1,1-2,2.2C30.4,62.6,31.4,63.5,32.5,63.4z"/>
	<path class="st0" d="M74.4,68.1c-1.1-0.1-2.1,0.2-3,0.8c-0.5,0.3-0.8,0.3-1.3,0c-0.7-0.5-1.2-0.4-1.8,0.3c-1.3,1.6-2.7,3.3-4,4.9
		c-1.9,2.3-4,4.3-6.4,6.1c-0.5,0.3-1,0.5-1.5,0.8c-0.1-0.1-0.1-0.1-0.2-0.2c0.3-0.9,0.9-1.6,1.5-2.3c1.5-1.7,3-3.3,4.5-5
		c0.4-0.5,0.8-1.1,1.1-1.7c0.5-0.9,0.6-1.9-0.1-2.8s-1.8-1.2-2.8-0.9c-1.4,0.4-2.6,1-4,1.6c-0.8-1.5-1.3-1.9-3.1-1.5
		c-1.3,0.3-2.4,0.8-3.7,1.3c-1-1.4-1.7-1.4-3-0.1c-0.7,0.7-1.4,1.5-2,2.2c-2.1,2.6-4.2,5.1-6.7,7.3c-0.7,0.6-1.4,1.2-2.2,1.7
		c-0.2,0.1-0.4,0.1-0.7,0.1c0-0.3-0.1-0.5-0.1-0.8c0.1-0.3,0.2-0.6,0.4-0.9c0.9-1.3,1.8-2.7,2.8-3.9c1.1-1.4,2.4-2.7,3.7-4
		c0.7-0.8,0.7-1.6-0.1-2.4c-0.7-0.7-1.4-0.6-2.1,0.1c-0.4,0.4-0.7,0.8-1.1,1.1c-2.3,2.5-4.6,5-7,7.4c-1.2,1.1-2.6,2-3.9,3
		c-0.3,0.2-0.7,0.2-1.1,0.4c0.2-1.4,0.9-2.3,1.7-3.2c1.9-2.2,3.9-4.4,5.8-6.6c0.2-0.3,0.5-0.6,0.5-1c0.1-0.8-0.2-1.3-0.9-1.7
		c-0.6-0.4-1.2-0.2-1.7,0.3c-1.9,2-3.9,4-5.6,6.2c-1,1.3-1.8,2.8-2.4,4.3c-0.5,1.1-0.4,2.4,0.6,3.3s2.2,1,3.4,0.5
		c1.1-0.5,2.2-1.2,3.2-1.9c0.2-0.1,0.5-0.3,0.7-0.5c0.2,2.3,2.7,3.7,5.6,1.9c0.2-0.1,6.5-6.5,10.6-9.7c1.1-0.8,2.2-1.3,2.7-1.6
		c0.5-0.3,1.5-0.3,2.1-0.5c0,0.1,0.1,0.1,0.1,0.2c-0.3,0.3-0.5,0.7-0.8,1c-2,2.5-4.1,4.9-6.1,7.4c-0.9,1.1-0.8,1.9,0,2.4
		c0.9,0.6,1.8,0.4,2.6-0.6c0.9-1.2,1.8-2.3,2.8-3.5c2-2.4,4.3-4.6,7-6.3c0.6-0.3,1.2-0.5,1.8-0.8c0,0.1,0.1,0.2,0.1,0.2
		c-0.2,0.3-0.4,0.5-0.7,0.8c-1.3,1.3-2.5,2.6-3.8,3.9c-1.2,1.3-2.3,2.7-2.8,4.6s0.7,3.4,2.6,3.4c0.1,0,0.3,0,0.6,0
		c-0.3,0.4-0.6,0.7-0.8,1.1c-2.1,2.9-1.9,3.1-4,6.1c-0.6,0.8-0.4,1.6,0.5,2.1s1.6,0.4,2.2-0.4c1.2-1.7,5.3-7.4,7.4-10
		c1.3,1.2,2.3,1.5,3.7,1.3c0.9-0.2,1.8-0.5,2.6-0.9c2.9-1.4,5.1-3.5,7-6c1.1-1.5,2.1-3,2.3-5C77.5,69.6,76.3,68.2,74.4,68.1z
		 M73.6,72.9c-1.9,2.9-4.2,5.4-7.1,7.2c-0.5,0.3-1.2,0.6-1.8,0.7c-0.2,0.1-0.7-0.1-0.8-0.2c-0.1-0.2-0.1-0.7,0.1-0.9
		c2.4-3,4.9-5.9,8-8.3c0.4-0.3,1-0.6,1.5-0.8c0.5-0.2,0.8,0.1,0.8,0.7C74.1,71.9,73.9,72.4,73.6,72.9z"/>
	<path class="st0" d="M119.6,74.3c-1.7,1.6-7,6.8-8.4,6.6c-1.4-0.2-0.3-1.5-0.1-2c0.3-0.5,0.6-1,0.9-1.5c1.5-2,3.2-4,4.8-6
		c0.4-0.4,0.5-1.1,0.2-1.6c-0.3-0.6-1-0.9-1.7-1.1s-1.3-0.4-2-0.6c0.2-0.5,0.3-0.9,0.4-1.3c0.2-1.2-0.9-2.2-2-1.8
		c-0.8,0.3-1.4,0.9-1.3,1.7c0.1,1.2-0.6,1.8-1.3,2.6c-0.5,0.6-1,1.2-1.6,1.8c-2.6,3-5.2,6-8.3,8.5c-0.6,0.5-1.3,0.9-2,1.4
		c-0.1-0.1-0.2-0.1-0.2-0.2c0-0.3,0-0.5,0.1-0.8c0.4-0.9,0.8-1.8,1.3-2.6c1.3-1.7,2.7-3.4,4.1-5.1c0.8-0.9,0.7-1.8-0.3-2.4
		c-0.3-0.2-0.7-0.3-1.1-0.4c-0.7-0.2-1.3-0.4-2-0.5c0.2-0.5,0.3-0.9,0.4-1.3c0.1-0.8-0.3-1.5-1-1.8s-1.5-0.1-1.9,0.6
		c-0.2,0.4-0.4,0.8-0.4,1.2c0.1,0.9-0.4,1.5-1,2.1c-1.7,1.8-3.4,3.8-5.2,5.5c-1.9,1.8-3.9,3.4-6.3,4.6c-1,0.5-2.1,0.9-3.3,0.7
		c-0.7-0.1-1.4-0.4-1.5-1.1s0.2-1.4,0.3-2c0-0.1,0.3-0.2,0.5-0.1c2.4,0.7,4.5,0,6.5-1.2c1.9-1.1,3.6-2.6,4.4-4.8
		c0.7-1.7,0-3-1.8-3.4c-0.9-0.2-1.9-0.1-2.8,0.1c-2.9,0.7-5.1,2.4-7.1,4.5c-1.4,1.4-2.5,3-3,5c-0.8,3,0.9,5.4,4,5.7
		c1.9,0.2,3.7-0.4,5.4-1.2c3.1-1.5,5.6-3.9,8-6.2c1.6-1.5,3-3.2,4.5-4.9l1.1,0.6c-0.6,0.8-1.2,1.5-1.7,2.2c-1.3,1.6-2.5,3.2-3.1,5.2
		c-0.4,1.3-0.4,2.6,0.7,3.6c0.9,0.9,2.1,1,3.3,0.6c0.6-0.2,1.3-0.5,1.7-0.9c2.4-2.3,4.7-4.5,7-6.9c1.7-1.7,3.3-3.6,4.9-5.4l1.2,0.7
		c-0.9,1.2-1.8,2.4-2.7,3.5c-1.3,1.6-2.5,3.3-2.9,5.4c-0.5,2.5,1.4,4.4,3.9,3.7c0.9-0.3,1.9-0.8,2.6-1.5c0,0,4.9-5.5,6.4-7.1
		C120.8,74.5,120.1,73.8,119.6,74.3z M88.1,70.7c0.1,2-4.1,4.9-6.9,4.6C83.3,73.3,85.3,71.5,88.1,70.7z"/>
</g>
<g>
	<path class="st0" d="M20.7,99.6c-0.1-0.2-0.3-0.3-0.6-0.5c-0.2-0.2-0.5-0.3-0.8-0.4s-0.6-0.2-1-0.3c-0.4-0.1-0.7-0.1-1.1-0.1
		c-1,0-1.8,0.2-2.2,0.6c-0.5,0.4-0.7,0.9-0.7,1.6c0,0.4,0.1,0.7,0.2,0.9c0.1,0.2,0.3,0.4,0.6,0.6c0.3,0.2,0.7,0.3,1.1,0.4
		s0.9,0.3,1.5,0.4c0.7,0.1,1.3,0.3,1.8,0.5s1,0.4,1.4,0.7c0.4,0.3,0.7,0.6,0.9,1s0.3,0.9,0.3,1.5s-0.1,1.2-0.4,1.6
		c-0.2,0.5-0.6,0.8-1,1.1c-0.4,0.3-0.9,0.5-1.5,0.7s-1.2,0.2-1.9,0.2c-1,0-2-0.2-2.9-0.5s-1.7-0.8-2.5-1.4l0.8-1.4
		c0.2,0.2,0.5,0.4,0.8,0.6s0.7,0.4,1.1,0.6s0.8,0.3,1.3,0.4s0.9,0.2,1.5,0.2c0.9,0,1.7-0.2,2.2-0.5s0.8-0.8,0.8-1.5
		c0-0.4-0.1-0.7-0.2-0.9c-0.2-0.3-0.4-0.5-0.7-0.7s-0.7-0.3-1.2-0.5c-0.5-0.1-1-0.3-1.6-0.4c-0.7-0.2-1.3-0.3-1.8-0.5
		s-0.9-0.4-1.3-0.7c-0.3-0.3-0.6-0.6-0.8-0.9s-0.3-0.8-0.3-1.3c0-0.6,0.1-1.2,0.4-1.7c0.2-0.5,0.6-0.9,1-1.2
		c0.4-0.3,0.9-0.6,1.5-0.7c0.6-0.2,1.2-0.2,1.9-0.2c0.9,0,1.7,0.1,2.4,0.4s1.4,0.6,1.9,1.1L20.7,99.6z"/>
	<path class="st0" d="M44.8,98.3h-4.5V110h-1.7V98.3h-4.5v-1.5h10.7V98.3z"/>
	<path class="st0" d="M60.5,96.8h1.4l5.4,13.1h-1.8l-1.6-3.8h-5.4l-1.5,3.8h-1.8L60.5,96.8z M63.6,104.8l-2.4-6.1l-2.4,6.1H63.6z"/>
	<path class="st0" d="M80.2,110V96.8h5.6c0.6,0,1.1,0.1,1.6,0.4c0.5,0.2,0.9,0.6,1.3,1s0.6,0.9,0.8,1.4c0.2,0.5,0.3,1,0.3,1.5
		s-0.1,0.9-0.2,1.3s-0.3,0.8-0.6,1.2c-0.2,0.3-0.5,0.6-0.9,0.9c-0.3,0.2-0.7,0.4-1.1,0.5l3.2,5h-1.9l-3-4.7h-3.5v4.7L80.2,110
		L80.2,110z M81.8,103.8h4c0.3,0,0.7-0.1,0.9-0.2c0.3-0.1,0.5-0.3,0.7-0.6s0.4-0.5,0.5-0.9c0.1-0.3,0.2-0.7,0.2-1
		c0-0.4-0.1-0.7-0.2-1s-0.3-0.6-0.5-0.9s-0.5-0.5-0.8-0.6s-0.6-0.2-0.9-0.2h-3.9C81.8,98.4,81.8,103.8,81.8,103.8z"/>
	<path class="st0" d="M112.8,98.3h-4.5V110h-1.7V98.3h-4.5v-1.5h10.7V98.3z"/>
</g>
<g>
	<g>
		<path class="st0" d="M72.1,39.3L72.1,39.3l-2-0.1l0.1-0.5c0.6-2.3,1-4.6,1-5.6c0.1-2.1-1.3-3.5-3.4-3.6c-2-0.1-3.5,1.3-3.6,3.4
			c0,1,0.2,3.4,0.7,5.7l0.1,0.5L63.1,39c-1.8-0.1-3.4-1.4-3.8-3.2c-0.5-2.6-1.3-7.1-1.8-13.8c-0.3-3.6,0.6-6.9,2.5-10
			c1.7-2.7,4-4.7,5.6-5.9c1.7-1.3,4.1-1.2,5.8,0.2c1.1,0.9,2.1,2,3,3.1l0.6,0.7h-0.1c0.5,0.7,1.3,1.9,1.6,2.4
			c1.7,3.2,2.4,6.6,1.9,10.1c-0.9,6.7-1.9,11.2-2.6,13.7C75.4,38.1,73.9,39.3,72.1,39.3z M71.2,38.4H72c1.4,0.1,2.7-0.9,3.1-2.3
			c0.7-2.5,1.7-7,2.6-13.6c0.4-3.3-0.2-6.6-1.8-9.6c-0.3-0.5-1.1-1.7-1.6-2.4l-0.1-0.1l-11-0.1c-0.4,0-1.1,0-1.1-0.7
			c0-0.2,0.1-0.4,0.2-0.5C62.5,9,62.9,9,63.2,9l10,0.2c-0.7-0.8-1.5-1.5-2.3-2.2c-1.3-1.1-3.3-1.2-4.7-0.1c-1.5,1.1-3.7,3.1-5.3,5.7
			c-1.8,2.9-2.6,6.1-2.3,9.5c0.5,6.7,1.3,11.2,1.8,13.7c0.3,1.4,1.5,2.4,2.9,2.5h0.8c-0.4-2.2-0.6-4.4-0.6-5.3
			c0.1-2.6,1.9-4.3,4.4-4.2s4.3,1.9,4.2,4.5C72,34.1,71.7,36.3,71.2,38.4z"/>
	</g>
</g>
<g>
	<g>
		<path class="st0" d="M67.3,45.2l-0.2-0.1c-0.6-0.3-1.6-2.1-2.4-6.3c-0.2-0.9-0.4-1.6-0.5-2.3c-0.4-1.6-0.6-2.5-0.5-3.5
			c0-1.4,0.5-2.5,1.5-3.2c0.7-0.6,1.7-0.9,2.8-0.9c1.1,0,2,0.4,2.7,1c0.9,0.8,1.3,1.9,1.3,3.3c0,0.9-0.3,1.7-0.7,3
			c-0.2,0.7-0.5,1.6-0.8,2.8c-1.1,4.2-2.2,5.9-2.9,6.2H67.3z M67.7,29.8c-0.8,0-1.6,0.2-2.1,0.7c-0.7,0.5-1.1,1.4-1.1,2.5
			c0,0.9,0.2,1.7,0.5,3.3c0.1,0.6,0.3,1.4,0.5,2.3c0.8,3.7,1.5,5.1,1.9,5.6c0.4-0.4,1.2-1.8,2.2-5.4c0.3-1.2,0.6-2.1,0.8-2.8
			c0.4-1.2,0.6-1.9,0.6-2.7c0-1.1-0.3-2-1-2.6c-0.6-0.5-1.3-0.8-2.2-0.8C67.8,29.8,67.8,29.8,67.7,29.8z"/>
	</g>
</g>
<g>
	<g>
		<path class="st0" d="M59.6,44.3l-0.2-0.1c-0.6-0.3-1.6-2.1-2.4-6.2c-0.7-3.2-1-6.6-1-8c0-1.6,0.8-2.9,2.1-3.5l0.5-0.3l0.1,0.6
			c0.4,2.9,0.8,5.5,1.3,7.9c0.3,1.5,1.1,2.8,2.3,3.7l0.2,0.2l-0.1,0.3c-0.9,3.1-1.9,5.1-2.6,5.4L59.6,44.3z M57.9,27.6
			c-0.7,0.5-1,1.4-1.1,2.4c0,1.3,0.3,4.7,1,7.8c0.8,3.6,1.5,4.9,1.8,5.4c0.3-0.4,1-1.5,1.8-4.4c-1.2-1-2-2.4-2.3-4
			C58.7,32.7,58.3,30.3,57.9,27.6z"/>
	</g>
</g>
<g>
	<g>
		<path class="st0" d="M76,44.3l-0.2-0.1c-0.8-0.3-1.7-2.3-2.6-5.4l-0.1-0.3l0.2-0.2c1.2-0.9,2-2.2,2.3-3.7c0.5-2.3,0.9-4.9,1.3-7.9
			l0.1-0.6l0.5,0.3c1.3,0.6,2,1.9,2.1,3.5c0,1.4-0.3,4.8-1,8c-0.9,4.1-1.8,5.9-2.4,6.2L76,44.3z M74.1,38.9c0.8,2.8,1.5,4,1.8,4.4
			c0.3-0.5,1-1.8,1.8-5.4c0.7-3.1,1-6.5,1-7.8c0-1-0.4-1.9-1.1-2.4c-0.4,2.7-0.8,5.1-1.2,7.2C76.1,36.4,75.3,37.8,74.1,38.9z"/>
	</g>
</g>
<g>
	<g>
		<path class="st0" d="M62.6,51.3c-0.2,0-0.4-0.2-0.4-0.4V38.8c0-0.2,0.2-0.4,0.4-0.4s0.4,0.2,0.4,0.4v12.1
			C63.1,51.2,62.9,51.3,62.6,51.3z"/>
	</g>
</g>
<g>
	<g>
		<path class="st0" d="M72.8,51.3c-0.2,0-0.4-0.2-0.4-0.4v-12c0-0.2,0.2-0.4,0.4-0.4s0.4,0.2,0.4,0.4v11.9
			C73.3,51.1,73.1,51.3,72.8,51.3z"/>
	</g>
</g>
<g>
	<g>
		<path class="st0" d="M70.3,45c-0.2,0-0.4-0.2-0.4-0.4v-3c0-0.2,0.2-0.4,0.4-0.4c0.2,0,0.4,0.2,0.4,0.4v3
			C70.8,44.8,70.6,45,70.3,45z"/>
	</g>
</g>
<g>
	<g>
		<path class="st0" d="M64.8,48.2c-0.2,0-0.4-0.2-0.4-0.4v-4.4c0-0.2,0.2-0.4,0.4-0.4c0.2,0,0.4,0.2,0.4,0.4v4.4
			C65.3,48,65.1,48.2,64.8,48.2z"/>
	</g>
</g>
<g>
	<g>
		<path class="st0" d="M67.9,26c-3.4,0-6.2-2.8-6.2-6.2s2.8-6.2,6.2-6.2c3.4,0,6.2,2.8,6.2,6.2S71.3,26,67.9,26z M67.9,14.4
			c-2.9,0-5.3,2.4-5.3,5.3S65,25,67.9,25s5.3-2.4,5.3-5.3S70.9,14.4,67.9,14.4z"/>
	</g>
</g>
<g>
	<g>
		<g>
			<path class="st0" d="M66,20.1c-0.2,0.1-0.3-0.2-0.2-0.3c1.8-1.1,3.8-2.2,4.1-1.8c0.5,0.5-1.1,2.7-4.1,5.6
				c-0.2,0.2-0.4-0.1-0.3-0.2c1.4-1.5,2.8-3.3,2.8-3.8C68.4,19.1,67.2,19.5,66,20.1z"/>
		</g>
	</g>
	<g>
		<g>
			<path class="st0" d="M69.1,17.7c0.4-0.1,0.7-0.5,0.6-0.9s-0.5-0.7-0.9-0.6c-0.4,0.1-0.7,0.5-0.6,0.9
				C68.3,17.5,68.7,17.7,69.1,17.7z"/>
		</g>
	</g>
</g>
<g>
	<path class="st0" d="M67.2,52c-14.3,0-26-11.7-26-26s11.7-26,26-26s26,11.7,26,26S81.5,52,67.2,52z M67.2,1.1
		C53.5,1.1,42.3,12.3,42.3,26s11.2,24.9,24.9,24.9S92.1,39.7,92.1,26S80.9,1.1,67.2,1.1z"/>
</g>
<g>
	<path class="st0" d="M498.7,78V65.3h5.5c0.6,0,1.1,0.1,1.6,0.4c0.5,0.2,0.9,0.6,1.2,0.9c0.3,0.4,0.6,0.8,0.8,1.3s0.3,1,0.3,1.5
		c0,0.4-0.1,0.8-0.2,1.2c-0.1,0.4-0.3,0.8-0.5,1.1c-0.2,0.3-0.5,0.6-0.8,0.9c-0.3,0.2-0.7,0.4-1,0.5l3,4.8h-2.3l-2.8-4.4h-2.9v4.4
		L498.7,78L498.7,78z M500.7,71.8h3.5c0.3,0,0.5-0.1,0.8-0.2c0.3-0.1,0.4-0.3,0.6-0.5c0.2-0.2,0.3-0.5,0.4-0.8
		c0.1-0.3,0.1-0.6,0.1-0.9s-0.1-0.6-0.2-0.9s-0.3-0.5-0.4-0.8c-0.2-0.2-0.4-0.4-0.6-0.5c-0.2-0.1-0.5-0.2-0.8-0.2h-3.4
		C500.7,67,500.7,71.8,500.7,71.8z"/>
	<path class="st0" d="M522.9,76.2V78h-8.7V65.3h8.6v1.8h-6.5v3.5h5.7v1.7h-5.7v3.9H522.9z"/>
	<path class="st0" d="M528.5,78V65.3h4.5c1,0,1.9,0.2,2.7,0.5s1.4,0.8,1.9,1.4s0.9,1.2,1.2,2c0.3,0.8,0.4,1.6,0.4,2.5
		c0,1-0.1,1.8-0.4,2.6c-0.3,0.8-0.7,1.4-1.2,2s-1.2,1-2,1.3c-0.8,0.3-1.6,0.5-2.6,0.5L528.5,78L528.5,78z M537.2,71.6
		c0-0.7-0.1-1.3-0.3-1.8c-0.2-0.6-0.5-1-0.8-1.4c-0.4-0.4-0.8-0.7-1.3-0.9s-1.1-0.3-1.8-0.3h-2.5v9.2h2.5c0.7,0,1.3-0.1,1.8-0.3
		c0.5-0.2,1-0.6,1.3-1c0.4-0.4,0.6-0.9,0.8-1.5C537.1,72.9,537.2,72.2,537.2,71.6z"/>
	<path class="st0" d="M553.6,76.2V78h-8.7V65.3h8.6v1.8H547v3.5h5.7v1.7H547v3.9H553.6z"/>
	<path class="st0" d="M566.5,68.2c-0.1-0.1-0.3-0.3-0.5-0.4c-0.2-0.1-0.5-0.3-0.8-0.4s-0.6-0.2-1-0.3c-0.4-0.1-0.7-0.1-1.1-0.1
		c-0.8,0-1.5,0.2-1.9,0.5s-0.6,0.7-0.6,1.3c0,0.3,0.1,0.6,0.2,0.8c0.1,0.2,0.3,0.4,0.6,0.5s0.6,0.3,1,0.4c0.4,0.1,0.9,0.2,1.4,0.4
		c0.6,0.2,1.2,0.3,1.7,0.5s1,0.4,1.3,0.7c0.4,0.3,0.6,0.6,0.8,1c0.2,0.4,0.3,0.9,0.3,1.5s-0.1,1.2-0.4,1.7c-0.2,0.5-0.6,0.8-1,1.1
		c-0.4,0.3-0.9,0.5-1.5,0.6c-0.6,0.1-1.2,0.2-1.8,0.2c-1,0-1.9-0.1-2.8-0.4c-0.9-0.3-1.7-0.7-2.4-1.3l0.9-1.7
		c0.2,0.2,0.4,0.3,0.7,0.5c0.3,0.2,0.6,0.4,1,0.5c0.4,0.1,0.8,0.3,1.3,0.4s0.9,0.2,1.4,0.2c0.8,0,1.4-0.1,1.8-0.4
		c0.4-0.3,0.6-0.7,0.6-1.2c0-0.3-0.1-0.6-0.2-0.8c-0.1-0.2-0.4-0.4-0.7-0.6c-0.3-0.2-0.7-0.3-1.1-0.4c-0.4-0.1-0.9-0.3-1.5-0.4
		c-0.6-0.2-1.2-0.3-1.7-0.5s-0.9-0.4-1.2-0.7c-0.3-0.3-0.5-0.6-0.7-0.9s-0.2-0.8-0.2-1.3c0-0.6,0.1-1.2,0.4-1.7
		c0.2-0.5,0.6-0.9,1-1.2c0.4-0.3,0.9-0.6,1.5-0.7c0.6-0.2,1.2-0.2,1.8-0.2c0.9,0,1.7,0.1,2.4,0.4c0.7,0.3,1.4,0.6,1.9,1L566.5,68.2z
		"/>
</g>
<g>
	<path class="st0" d="M487.1,89.7c-0.1-0.1-0.3-0.3-0.5-0.4c-0.2-0.1-0.5-0.3-0.8-0.4c-0.3-0.1-0.6-0.2-1-0.3
		c-0.4-0.1-0.7-0.1-1.1-0.1c-0.8,0-1.5,0.2-1.9,0.5s-0.6,0.7-0.6,1.3c0,0.3,0.1,0.6,0.2,0.8c0.1,0.2,0.3,0.4,0.6,0.5
		c0.3,0.1,0.6,0.3,1,0.4c0.4,0.1,0.9,0.2,1.4,0.4c0.6,0.2,1.2,0.3,1.7,0.5s1,0.4,1.3,0.7c0.4,0.3,0.6,0.6,0.8,1s0.3,0.9,0.3,1.5
		s-0.1,1.2-0.4,1.7c-0.2,0.5-0.6,0.8-1,1.1c-0.4,0.3-0.9,0.5-1.5,0.6s-1.2,0.2-1.8,0.2c-1,0-1.9-0.1-2.8-0.4
		c-0.9-0.3-1.7-0.7-2.4-1.3l0.9-1.7c0.2,0.2,0.4,0.3,0.7,0.5s0.6,0.4,1,0.5c0.4,0.2,0.8,0.3,1.3,0.4s0.9,0.2,1.4,0.2
		c0.8,0,1.4-0.1,1.8-0.4s0.6-0.7,0.6-1.2c0-0.3-0.1-0.6-0.2-0.8s-0.4-0.4-0.7-0.6c-0.3-0.2-0.7-0.3-1.1-0.4s-0.9-0.3-1.5-0.4
		c-0.6-0.2-1.2-0.3-1.7-0.5s-0.9-0.4-1.2-0.7c-0.3-0.3-0.5-0.6-0.7-0.9c-0.2-0.4-0.2-0.8-0.2-1.3c0-0.6,0.1-1.2,0.4-1.7
		c0.2-0.5,0.6-0.9,1-1.2c0.4-0.3,0.9-0.6,1.5-0.7c0.6-0.1,1.2-0.3,1.8-0.3c0.9,0,1.7,0.1,2.4,0.4c0.7,0.3,1.4,0.6,1.9,1L487.1,89.7z
		"/>
	<path class="st0" d="M499.4,99.5c-0.9,0-1.7-0.2-2.5-0.5c-0.7-0.4-1.4-0.8-1.9-1.4s-1-1.3-1.2-2.1c-0.3-0.8-0.4-1.6-0.4-2.4
		s0.2-1.7,0.5-2.4c0.3-0.8,0.7-1.5,1.3-2.1s1.2-1.1,1.9-1.4c0.7-0.4,1.6-0.5,2.4-0.5c0.9,0,1.7,0.2,2.5,0.6c0.7,0.4,1.4,0.9,1.9,1.5
		s0.9,1.3,1.2,2.1c0.3,0.8,0.4,1.6,0.4,2.4s-0.2,1.7-0.5,2.4c-0.3,0.8-0.7,1.5-1.3,2s-1.2,1.1-1.9,1.4
		C501,99.4,500.2,99.5,499.4,99.5z M495.3,93.1c0,0.6,0.1,1.2,0.3,1.7c0.2,0.6,0.5,1.1,0.8,1.5c0.4,0.4,0.8,0.8,1.3,1
		c0.5,0.3,1.1,0.4,1.7,0.4c0.6,0,1.2-0.1,1.7-0.4s0.9-0.6,1.3-1.1c0.3-0.4,0.6-0.9,0.8-1.5s0.3-1.1,0.3-1.7s-0.1-1.2-0.3-1.7
		c-0.2-0.6-0.5-1-0.8-1.5c-0.4-0.4-0.8-0.8-1.3-1s-1-0.4-1.7-0.4c-0.6,0-1.2,0.1-1.7,0.4s-0.9,0.6-1.3,1c-0.4,0.4-0.6,0.9-0.8,1.5
		C495.4,91.9,495.3,92.5,495.3,93.1z"/>
	<path class="st0" d="M510.3,93c0-0.8,0.1-1.5,0.4-2.3s0.7-1.4,1.2-2s1.2-1.1,1.9-1.5c0.7-0.4,1.6-0.6,2.6-0.6c1.2,0,2.1,0.3,3,0.8
		c0.9,0.5,1.4,1.2,1.9,2l-1.6,1.1c-0.2-0.4-0.4-0.7-0.6-1c-0.2-0.3-0.5-0.5-0.8-0.6c-0.3-0.2-0.6-0.3-0.9-0.3
		c-0.3-0.1-0.6-0.1-0.9-0.1c-0.7,0-1.3,0.1-1.8,0.4s-0.9,0.6-1.3,1.1c-0.3,0.4-0.6,0.9-0.8,1.5c-0.2,0.6-0.3,1.1-0.3,1.6
		c0,0.6,0.1,1.2,0.3,1.8c0.2,0.6,0.5,1.1,0.9,1.5s0.8,0.8,1.3,1s1,0.4,1.6,0.4c0.3,0,0.6,0,1-0.1c0.3-0.1,0.6-0.2,0.9-0.4
		c0.3-0.2,0.6-0.4,0.8-0.7c0.3-0.3,0.5-0.6,0.6-0.9l1.7,0.9c-0.2,0.5-0.5,0.9-0.9,1.3s-0.8,0.7-1.3,0.9c-0.5,0.2-1,0.4-1.5,0.6
		c-0.5,0.1-1,0.2-1.5,0.2c-0.9,0-1.7-0.2-2.5-0.6c-0.7-0.4-1.4-0.9-1.9-1.5s-1-1.3-1.3-2.1C510.5,94.6,510.3,93.8,510.3,93z"/>
	<path class="st0" d="M526.9,99.4V86.7h2v12.7H526.9z"/>
	<path class="st0" d="M539.1,86.7h1.8l5,12.7h-2.1l-1.3-3.5h-4.9l-1.3,3.5h-2.1L539.1,86.7z M542.1,94.5l-2-5.5l-2.1,5.5H542.1z"/>
	<path class="st0" d="M551.1,99.4V86.7h2v10.9h6.8v1.8C559.9,99.4,551.1,99.4,551.1,99.4z"/>
	<path class="st0" d="M573.8,97.7v1.8h-8.7V86.8h8.6v1.8h-6.5v3.6h5.7v1.7h-5.7v3.9h6.6V97.7z"/>
	<path class="st0" d="M586.7,89.7c-0.1-0.1-0.3-0.3-0.5-0.4s-0.5-0.3-0.8-0.4c-0.3-0.1-0.6-0.2-1-0.3c-0.4-0.1-0.7-0.1-1.1-0.1
		c-0.8,0-1.5,0.2-1.9,0.5c-0.4,0.3-0.6,0.7-0.6,1.3c0,0.3,0.1,0.6,0.2,0.8c0.1,0.2,0.3,0.4,0.6,0.5c0.3,0.1,0.6,0.3,1,0.4
		c0.4,0.1,0.9,0.2,1.4,0.4c0.6,0.2,1.2,0.3,1.7,0.5s1,0.4,1.3,0.7c0.4,0.3,0.6,0.6,0.8,1s0.3,0.9,0.3,1.5s-0.1,1.2-0.4,1.7
		c-0.2,0.5-0.6,0.8-1,1.1c-0.4,0.3-0.9,0.5-1.5,0.6c-0.6,0.1-1.2,0.2-1.8,0.2c-1,0-1.9-0.1-2.8-0.4c-0.9-0.3-1.7-0.7-2.4-1.3
		l0.9-1.7c0.2,0.2,0.4,0.3,0.7,0.5s0.6,0.4,1,0.5c0.4,0.2,0.8,0.3,1.3,0.4s0.9,0.2,1.4,0.2c0.8,0,1.4-0.1,1.8-0.4s0.6-0.7,0.6-1.2
		c0-0.3-0.1-0.6-0.2-0.8s-0.4-0.4-0.7-0.6s-0.7-0.3-1.1-0.4c-0.4-0.1-0.9-0.3-1.5-0.4c-0.6-0.2-1.2-0.3-1.7-0.5s-0.9-0.4-1.2-0.7
		c-0.3-0.3-0.5-0.6-0.7-0.9c-0.2-0.4-0.2-0.8-0.2-1.3c0-0.6,0.1-1.2,0.4-1.7c0.2-0.5,0.6-0.9,1-1.2c0.4-0.3,0.9-0.6,1.5-0.7
		c0.6-0.1,1.2-0.3,1.8-0.3c0.9,0,1.7,0.1,2.4,0.4s1.4,0.6,1.9,1L586.7,89.7z"/>
</g>
<path class="st1" d="M539.4,18.6c-0.1,0-0.9-0.1-1-0.1c-2.3,0-2.6-0.5-2.6-4c-0.1-1.1-0.3-3.1,0.6-4H523v33.2h17.3V18.6
	C540.1,18.6,539.9,18.6,539.4,18.6z"/>
<circle class="st1" cx="531.9" cy="40.9" r="1.6"/>
<line class="st1" x1="522.8" y1="37.9" x2="540.3" y2="37.9"/>
<circle class="st1" cx="540.1" cy="14.1" r="2.1"/>
<circle class="st1" cx="542.6" cy="11.4" r="0.3"/>
<g>
	<path class="st1" d="M542.2,18.5h-4.1c-1.3,0-2.2-0.8-2.2-2.1l-0.1-4.4c0-1.3,1.1-2.3,2.3-2.3h4.1c1.3,0,2.3,1.1,2.3,2.3v4.1
		C544.5,17.4,543.4,18.5,542.2,18.5z"/>
</g>
<g id="Icons_1_">
	<path class="st0" d="M534.2,20.6l-0.1,1.6c0,0-0.2,0-0.9,0s-0.7,0.6-0.7,0.6v1.4h1.7l-0.3,1.8h-1.4l-0.1,3.7h-1.7l-0.1-3.6h-1.5
		l0.1-1.8h1.5v-1.3c0-0.5,0.1-1.1,0.4-1.5c0.3-0.4,0.6-0.6,1.1-0.7C532.1,20.7,533.1,20.4,534.2,20.6z"/>
</g>
<g>
	<path class="st0" d="M641.2,77.4V65.1h4.4c1,0,1.9,0.2,2.6,0.5c0.7,0.3,1.4,0.8,1.9,1.3c0.5,0.5,0.9,1.2,1.2,2
		c0.3,0.8,0.4,1.6,0.4,2.4c0,0.9-0.2,1.8-0.4,2.5c-0.3,0.8-0.7,1.4-1.2,2c-0.5,0.5-1.2,0.9-1.9,1.2c-0.7,0.3-1.6,0.5-2.5,0.5
		L641.2,77.4L641.2,77.4z M649.5,71.2c0-0.6-0.1-1.2-0.2-1.8c-0.2-0.5-0.5-1-0.8-1.4c-0.3-0.4-0.8-0.7-1.2-0.9
		c-0.5-0.2-1.1-0.3-1.7-0.3h-2.4v8.9h2.4c0.6,0,1.2-0.1,1.7-0.3c0.5-0.2,0.9-0.5,1.2-0.9c0.3-0.4,0.6-0.9,0.8-1.4
		C649.5,72.5,649.5,71.8,649.5,71.2z"/>
	<path class="st0" d="M657,77.4V65.1h2v12.3H657z"/>
	<path class="st0" d="M672.5,68c-0.1-0.2-0.3-0.2-0.5-0.4c-0.2-0.2-0.5-0.3-0.8-0.4c-0.3-0.2-0.6-0.2-0.9-0.3
		c-0.4-0.1-0.7-0.2-1.1-0.2c-0.9,0-1.4,0.2-1.8,0.5c-0.4,0.3-0.5,0.7-0.5,1.2c0,0.3,0.1,0.5,0.2,0.7c0.2,0.2,0.3,0.4,0.5,0.5
		c0.2,0.1,0.5,0.2,0.9,0.4c0.4,0.2,0.9,0.2,1.3,0.4c0.6,0.2,1.2,0.3,1.7,0.5c0.5,0.2,0.9,0.4,1.2,0.7c0.3,0.2,0.6,0.6,0.8,1
		s0.3,0.9,0.3,1.4c0,0.6-0.2,1.2-0.4,1.6c-0.2,0.5-0.5,0.8-0.9,1.1c-0.4,0.3-0.9,0.5-1.4,0.6c-0.5,0.2-1.1,0.2-1.7,0.2
		c-0.9,0-1.9-0.2-2.7-0.4c-0.9-0.3-1.6-0.7-2.3-1.2l0.9-1.6c0.2,0.2,0.4,0.3,0.6,0.5c0.3,0.2,0.6,0.4,1,0.5s0.8,0.3,1.2,0.4
		s0.9,0.2,1.4,0.2c0.8,0,1.3-0.2,1.8-0.4c0.4-0.2,0.6-0.6,0.6-1.2c0-0.3-0.1-0.5-0.2-0.8s-0.4-0.4-0.7-0.5c-0.3-0.2-0.6-0.3-1.1-0.4
		c-0.4-0.2-0.9-0.2-1.4-0.4c-0.6-0.2-1.2-0.3-1.6-0.5c-0.5-0.2-0.9-0.4-1.2-0.6s-0.5-0.5-0.7-0.9s-0.2-0.8-0.2-1.2
		c0-0.6,0.1-1.2,0.3-1.6c0.2-0.5,0.5-0.9,0.9-1.2c0.4-0.3,0.9-0.5,1.4-0.7c0.5-0.2,1.2-0.2,1.8-0.2c0.9,0,1.6,0.2,2.3,0.4
		c0.7,0.2,1.3,0.6,1.9,1L672.5,68z"/>
	<path class="st0" d="M687.7,75.7v1.7h-8.5V65.1h8.3v1.7h-6.3v3.5h5.5v1.6h-5.5v3.7H687.7z"/>
	<path class="st0" d="M695.1,68.7v8.7h-2V65.1h1.6l7,8.9v-8.8h2v12.2H702L695.1,68.7z M699.5,63.5c-0.2,0-0.5,0-0.7-0.1
		s-0.4-0.2-0.5-0.2c-0.2-0.1-0.3-0.2-0.5-0.2c-0.2-0.1-0.3-0.1-0.5-0.1s-0.3,0.1-0.5,0.2c-0.1,0.1-0.2,0.2-0.2,0.2
		c-0.1,0.1-0.1,0.2-0.1,0.3s0,0.2,0,0.2h-1.1c0-0.1,0-0.2,0.1-0.5c0.1-0.2,0.2-0.5,0.3-0.7c0.2-0.2,0.3-0.4,0.5-0.6
		c0.2-0.2,0.5-0.2,0.9-0.2c0.2,0,0.5,0.1,0.7,0.2c0.2,0.1,0.4,0.2,0.5,0.2c0.2,0.1,0.3,0.2,0.5,0.2c0.2,0.1,0.4,0.2,0.5,0.2
		s0.4-0.1,0.5-0.2s0.2-0.2,0.3-0.3s0.1-0.2,0.2-0.3c0-0.1,0-0.2,0-0.2h1.1c0,0.1,0,0.2-0.1,0.5c-0.1,0.2-0.2,0.5-0.3,0.7
		s-0.4,0.5-0.6,0.6C700.2,63.4,699.9,63.5,699.5,63.5z"/>
	<path class="st0" d="M715,77.5c-0.9,0-1.6-0.2-2.4-0.5c-0.8-0.4-1.3-0.9-1.9-1.4c-0.5-0.5-0.9-1.2-1.2-2c-0.3-0.8-0.4-1.5-0.4-2.3
		c0-0.8,0.2-1.6,0.5-2.3c0.3-0.7,0.7-1.4,1.2-2c0.5-0.5,1.2-1,1.9-1.4c0.7-0.3,1.5-0.5,2.3-0.5s1.6,0.2,2.4,0.5
		c0.7,0.4,1.3,0.9,1.9,1.4c0.5,0.6,0.9,1.2,1.2,2c0.2,0.8,0.4,1.5,0.4,2.3c0,0.9-0.2,1.6-0.5,2.3c-0.3,0.8-0.7,1.4-1.2,2
		c-0.5,0.5-1.2,1-1.9,1.4C716.6,77.3,715.8,77.5,715,77.5z M711.1,71.2c0,0.5,0.1,1.2,0.3,1.7c0.2,0.5,0.5,1,0.8,1.4s0.8,0.8,1.2,1
		c0.5,0.2,1,0.4,1.6,0.4c0.6,0,1.2-0.2,1.6-0.4c0.5-0.2,0.9-0.6,1.2-1c0.3-0.4,0.6-0.9,0.8-1.4c0.2-0.5,0.2-1.1,0.2-1.6
		c0-0.6-0.1-1.2-0.3-1.7c-0.2-0.5-0.5-1-0.8-1.4c-0.3-0.4-0.8-0.7-1.2-1c-0.5-0.2-1-0.4-1.6-0.4c-0.6,0-1.2,0.2-1.6,0.4
		c-0.5,0.2-0.9,0.6-1.2,1c-0.3,0.4-0.6,0.9-0.8,1.4C711.2,70.1,711.1,70.7,711.1,71.2z"/>
	<path class="st0" d="M642.8,96.6c-1,1.1-2.3,1.6-3.6,1.6c-0.9,0-1.6-0.2-2.3-0.5c-0.7-0.3-1.3-0.8-1.9-1.4c-0.5-0.5-0.9-1.2-1.2-2
		c-0.3-0.8-0.5-1.6-0.5-2.4s0.2-1.6,0.5-2.3c0.3-0.7,0.7-1.4,1.2-2c0.5-0.5,1.2-1,1.9-1.3c0.7-0.3,1.5-0.5,2.3-0.5
		c1.2,0,2.2,0.2,3,0.7c0.8,0.5,1.4,1.2,1.8,2l-1.5,1.1c-0.3-0.7-0.8-1.2-1.4-1.5c-0.6-0.3-1.2-0.5-2-0.5c-0.5,0-1.1,0.2-1.6,0.4
		c-0.5,0.2-0.9,0.5-1.2,1c-0.3,0.4-0.6,0.9-0.8,1.4s-0.2,1.1-0.2,1.7c0,0.6,0.1,1.2,0.3,1.7c0.2,0.5,0.5,1,0.9,1.4
		c0.4,0.4,0.8,0.7,1.2,0.9c0.5,0.2,1,0.4,1.6,0.4c0.6,0,1.2-0.2,1.8-0.5c0.5-0.3,1.1-0.8,1.6-1.4v-1.3h-2.6V92h4.2v6.2h-1.6V96.6z"
		/>
	<path class="st0" d="M650.1,98.1V85.8h5.4c0.5,0,1.1,0.1,1.6,0.3c0.5,0.2,0.9,0.5,1.2,0.9c0.3,0.4,0.6,0.8,0.8,1.2
		c0.2,0.5,0.3,0.9,0.3,1.5c0,0.4-0.1,0.8-0.2,1.2c-0.1,0.4-0.3,0.7-0.5,1.1c-0.2,0.3-0.5,0.6-0.8,0.9s-0.6,0.4-1,0.5l2.9,4.7h-2.2
		l-2.7-4.3h-2.8v4.3H650.1z M652,92.2h3.4c0.3,0,0.5-0.1,0.8-0.2c0.2-0.2,0.4-0.3,0.5-0.5c0.2-0.2,0.3-0.5,0.4-0.7
		c0.1-0.3,0.2-0.5,0.2-0.9c0-0.3-0.1-0.6-0.2-0.9c-0.1-0.3-0.2-0.5-0.5-0.7c-0.2-0.2-0.4-0.4-0.6-0.5c-0.2-0.2-0.5-0.2-0.7-0.2H652
		V92.2z"/>
	<path class="st0" d="M668.4,85.9h1.7l4.8,12.3h-2l-1.3-3.4h-4.8l-1.2,3.4h-2L668.4,85.9z M671.3,93.4l-2-5.3l-2,5.3H671.3z
		 M669.7,84.6l-1.2-0.4l1-1.9h1.8L669.7,84.6z"/>
	<path class="st0" d="M680,98.1V85.8h8.2v1.7h-6.2v3.7h5.2v1.6h-5.2v5.3L680,98.1L680,98.1z"/>
	<path class="st0" d="M693.5,98.1V85.8h2v12.3H693.5z"/>
	<path class="st0" d="M700.9,91.9c0-0.7,0.2-1.5,0.4-2.2c0.2-0.7,0.6-1.4,1.2-2c0.5-0.5,1.2-1,1.9-1.4c0.7-0.4,1.6-0.5,2.5-0.5
		c1.1,0,2.1,0.2,2.9,0.8c0.8,0.5,1.4,1.2,1.8,2l-1.6,1c-0.2-0.4-0.4-0.7-0.6-0.9c-0.2-0.2-0.5-0.5-0.8-0.6c-0.3-0.2-0.6-0.2-0.9-0.3
		c-0.3-0.1-0.6-0.1-0.9-0.1c-0.6,0-1.2,0.2-1.7,0.4c-0.5,0.2-0.9,0.6-1.2,1c-0.3,0.4-0.5,0.9-0.8,1.4c-0.2,0.5-0.2,1.1-0.2,1.6
		c0,0.6,0.1,1.2,0.3,1.7c0.2,0.5,0.5,1,0.9,1.4c0.4,0.4,0.8,0.8,1.2,1s1,0.4,1.6,0.4c0.3,0,0.6,0,0.9-0.1s0.6-0.2,0.9-0.4
		s0.5-0.4,0.8-0.6c0.2-0.2,0.5-0.5,0.6-0.9l1.6,0.9c-0.2,0.5-0.5,0.9-0.9,1.2s-0.8,0.6-1.2,0.9c-0.5,0.2-0.9,0.4-1.4,0.5
		c-0.5,0.2-1,0.2-1.5,0.2c-0.9,0-1.6-0.2-2.3-0.5s-1.3-0.9-1.9-1.5c-0.5-0.6-0.9-1.2-1.2-2C701,93.4,700.9,92.7,700.9,91.9z"/>
	<path class="st0" d="M721.9,98.2c-0.9,0-1.6-0.2-2.4-0.5c-0.8-0.4-1.3-0.9-1.9-1.4s-0.9-1.2-1.2-2c-0.3-0.8-0.4-1.5-0.4-2.3
		c0-0.8,0.2-1.6,0.5-2.3c0.3-0.7,0.7-1.4,1.2-2c0.5-0.5,1.2-1,1.9-1.4c0.7-0.3,1.5-0.5,2.3-0.5s1.6,0.2,2.4,0.5
		c0.7,0.4,1.3,0.9,1.9,1.4c0.5,0.6,0.9,1.2,1.2,2c0.2,0.8,0.4,1.5,0.4,2.3c0,0.9-0.2,1.6-0.5,2.3c-0.3,0.8-0.7,1.4-1.2,2
		c-0.5,0.5-1.2,1-1.9,1.4C723.6,98.1,722.8,98.2,721.9,98.2z M718,92c0,0.5,0.1,1.2,0.3,1.7c0.2,0.5,0.5,1,0.8,1.4
		c0.3,0.4,0.8,0.8,1.2,1c0.5,0.2,1,0.4,1.6,0.4s1.2-0.2,1.6-0.4c0.5-0.2,0.9-0.6,1.2-1c0.3-0.4,0.6-0.9,0.8-1.4
		c0.2-0.5,0.2-1.1,0.2-1.6c0-0.6-0.1-1.2-0.3-1.7c-0.2-0.5-0.5-1-0.8-1.4c-0.3-0.4-0.8-0.7-1.2-1c-0.5-0.2-1-0.4-1.6-0.4
		s-1.2,0.2-1.6,0.4c-0.5,0.2-0.9,0.6-1.2,1c-0.3,0.4-0.6,0.9-0.8,1.4C718.1,91,718,91.4,718,92z"/>
</g>
<g>
	<path class="st0" d="M694.5,32.3H687h-7.5l0,0h-7.2v-7.2v-7.5v-7.5c0-0.2-0.2-0.3-0.3-0.3h-7.5c-0.2,0-0.3,0.2-0.3,0.3v7.5v7.5v7.5
		l0,0v3.7v0.1c0,2.3,1.8,4.1,4.1,4.1h0.1h3.7h7.5l0,0h7.5h7.5c0.2,0,0.3-0.2,0.3-0.3v-7.5C694.9,32.5,694.7,32.3,694.5,32.3z
		 M664.7,10.3h6.9v6.9h-6.9V10.3z M664.7,17.9h6.9v6.9h-6.9V17.9z M671.6,25.5v6.9h-3.5h-3.4v-6.9H671.6z M664.7,33h1.3
		c-0.5,0.3-0.9,0.8-1.3,1.3V33z M668.1,39.9c-1.9,0-3.4-1.5-3.4-3.4v-0.1c0-1.9,1.5-3.4,3.4-3.4h3.5v5.7v1.3h-1.3L668.1,39.9
		L668.1,39.9z M672.3,36.5V33h6.9v6.9h-6.9V36.5z M679.8,33h6.9v6.9h-6.9V33z M694.3,39.9h-6.9V33h6.9V39.9L694.3,39.9z"/>
	<path class="st0" d="M668.1,37.5c-0.6,0-1.1-0.5-1.1-1.1s0.5-1.1,1.1-1.1c0.6,0,1.1,0.5,1.1,1.1S668.7,37.5,668.1,37.5z
		 M668.1,35.9c-0.3,0-0.4,0.2-0.4,0.4c0,0.3,0.2,0.4,0.4,0.4c0.3,0,0.4-0.2,0.4-0.4C668.6,36.1,668.4,35.9,668.1,35.9z"/>
	<path class="st0" d="M690.6,28.7c-0.2,0-0.3-0.2-0.3-0.3c0-8.2-6.7-14.9-14.8-14.9c-0.2,0-0.3-0.2-0.3-0.3c0-0.2,0.2-0.3,0.3-0.3
		c4.1,0,8,1.6,10.9,4.5c2.9,2.9,4.5,6.8,4.5,10.9C690.9,28.6,690.8,28.7,690.6,28.7z"/>
</g>
<g>
	<path class="st0" d="M838.6,36.1h-3.9c-0.2,0-0.3-0.1-0.3-0.3v-0.3c0-0.2,0.1-0.3,0.3-0.3h3.9c0.2,0,0.3,0.1,0.3,0.3v0.3
		C838.9,36,838.8,36.1,838.6,36.1z"/>
</g>
<g>
	<path class="st0" d="M765.1,77.7V65h4.5c1,0,1.9,0.2,2.7,0.5s1.4,0.8,1.9,1.4s0.9,1.2,1.2,2s0.4,1.6,0.4,2.5c0,1-0.1,1.8-0.4,2.6
		s-0.7,1.4-1.2,2s-1.2,1-2,1.3c-0.8,0.3-1.6,0.5-2.6,0.5h-4.5V77.7z M773.8,71.3c0-0.7-0.1-1.3-0.3-1.8c-0.2-0.6-0.5-1-0.8-1.4
		c-0.4-0.4-0.8-0.7-1.3-0.9s-1.1-0.5-1.8-0.5h-2.5v9.2h2.5c0.7,0,1.3-0.1,1.8-0.3c0.5-0.2,1-0.6,1.3-1c0.4-0.4,0.6-0.9,0.8-1.5
		C773.7,72.5,773.8,71.9,773.8,71.3z"/>
	<path class="st0" d="M790.2,75.9v1.8h-8.7V65h8.6v1.7h-6.5v3.6h5.6V72h-5.7v3.9H790.2z"/>
	<path class="st0" d="M803.1,67.9c-0.1-0.1-0.3-0.3-0.5-0.4s-0.5-0.3-0.8-0.4s-0.6-0.2-1-0.3c-0.4-0.1-0.7-0.1-1.1-0.1
		c-0.8,0-1.5,0.2-1.9,0.5c-0.4,0.3-0.6,0.7-0.6,1.3c0,0.3,0.1,0.6,0.2,0.8c0.1,0.2,0.3,0.4,0.6,0.5c0.3,0.2,0.6,0.3,1,0.4
		c0.4,0.1,0.9,0.2,1.4,0.4c0.6,0.2,1.2,0.3,1.7,0.5s1,0.4,1.3,0.7c0.4,0.3,0.6,0.6,0.8,1c0.2,0.4,0.3,0.9,0.3,1.5s-0.1,1.2-0.4,1.7
		c-0.2,0.5-0.6,0.8-1,1.1s-0.9,0.5-1.5,0.6s-1.2,0.2-1.8,0.2c-1,0-1.9-0.1-2.8-0.4c-0.9-0.3-1.7-0.7-2.4-1.3l0.9-1.7
		c0.2,0.2,0.4,0.3,0.7,0.5c0.3,0.2,0.6,0.4,1,0.5c0.4,0.2,0.8,0.3,1.3,0.4s0.9,0.2,1.4,0.2c0.8,0,1.4-0.1,1.8-0.4
		c0.4-0.3,0.6-0.7,0.6-1.2c0-0.3-0.1-0.6-0.2-0.8s-0.4-0.4-0.7-0.6s-0.7-0.3-1.1-0.4c-0.4-0.1-0.9-0.3-1.5-0.4
		c-0.6-0.2-1.2-0.3-1.7-0.5s-0.9-0.4-1.2-0.7c-0.3-0.3-0.5-0.6-0.7-0.9c0-0.5-0.1-1-0.1-1.5c0-0.6,0.1-1.2,0.4-1.7
		c0.2-0.5,0.6-0.9,1-1.2c0.4-0.3,0.9-0.6,1.5-0.7c0.6-0.2,1.2-0.2,1.8-0.2c0.9,0,1.7,0.1,2.4,0.4c0.7,0.3,1.4,0.6,1.9,1L803.1,67.9z
		"/>
	<path class="st0" d="M813.7,65h1.8l5,12.7h-2.1l-1.3-3.5h-4.9l-1.3,3.5h-2.1L813.7,65z M816.6,72.7l-2-5.5l-2.2,5.5H816.6z"/>
	<path class="st0" d="M825.6,77.7V65h5.5c0.6,0,1.1,0.1,1.6,0.4s0.9,0.6,1.2,0.9c0.3,0.4,0.6,0.8,0.8,1.3c0.2,0.5,0.3,1,0.3,1.5
		c0,0.4-0.1,0.8-0.2,1.2s-0.3,0.8-0.5,1.1c-0.2,0.3-0.5,0.6-0.8,0.9c-0.3,0.3-0.7,0.4-1,0.5l3,4.8h-2.3l-2.8-4.4h-2.9v4.4
		L825.6,77.7L825.6,77.7z M827.6,71.5h3.5c0.3,0,0.5-0.1,0.8-0.2c0.3-0.1,0.4-0.3,0.6-0.5c0.2-0.2,0.3-0.5,0.4-0.8
		c0.1-0.3,0.1-0.6,0.1-0.9s-0.1-0.6-0.2-0.9s-0.3-0.5-0.4-0.8c-0.2-0.2-0.4-0.4-0.6-0.5c-0.3-0.1-0.6-0.2-0.8-0.2h-3.4V71.5z"/>
	<path class="st0" d="M841,77.7V65h5.5c0.6,0,1.1,0.1,1.6,0.4s0.9,0.6,1.2,0.9c0.3,0.4,0.6,0.8,0.8,1.3s0.3,1,0.3,1.5
		c0,0.4-0.1,0.8-0.2,1.2c-0.1,0.4-0.3,0.8-0.5,1.1c-0.2,0.3-0.5,0.6-0.8,0.9c-0.3,0.3-0.7,0.4-1,0.5l3,4.8h-2.3l-2.8-4.4h-2.9v4.4
		L841,77.7L841,77.7z M843,71.5h3.5c0.3,0,0.5-0.1,0.8-0.2s0.4-0.3,0.6-0.5c0.2-0.2,0.3-0.5,0.4-0.8s0.1-0.6,0.1-0.9
		s-0.1-0.6-0.2-0.9c-0.1-0.3-0.3-0.5-0.4-0.8c-0.2-0.2-0.4-0.4-0.6-0.5c-0.2-0.1-0.5-0.2-0.8-0.2H843V71.5z"/>
	<path class="st0" d="M861.7,77.7c-0.9,0-1.7-0.2-2.5-0.5c-0.7-0.4-1.4-0.8-1.9-1.5s-1-1.3-1.2-2.1c-0.3-0.8-0.4-1.6-0.4-2.4
		s0.2-1.7,0.5-2.4c0.3-0.8,0.7-1.5,1.3-2.1c0.6-0.6,1.2-1.1,1.9-1.4c0.7-0.4,1.6-0.5,2.4-0.5c0.9,0,1.7,0.2,2.5,0.6
		c0.7,0.4,1.4,0.9,1.9,1.5s0.9,1.3,1.2,2.1c0.3,0.8,0.4,1.6,0.4,2.4s-0.2,1.7-0.5,2.4c-0.3,0.8-0.7,1.5-1.3,2
		c-0.5,0.6-1.2,1.1-1.9,1.4C863.3,77.6,862.5,77.7,861.7,77.7z M857.6,71.3c0,0.6,0.1,1.2,0.3,1.7c0.2,0.6,0.5,1.1,0.8,1.5
		c0.4,0.4,0.8,0.8,1.3,1c0.5,0.3,1.1,0.4,1.7,0.4c0.6,0,1.2-0.1,1.7-0.4s0.9-0.6,1.3-1.1c0.3-0.4,0.6-0.9,0.8-1.5s0.3-1.1,0.3-1.7
		s-0.1-1.2-0.3-1.7c-0.2-0.6-0.5-1-0.8-1.5c-0.3-0.5-0.8-0.8-1.3-1s-1-0.4-1.7-0.4c-0.6,0-1.2,0.1-1.7,0.4s-0.9,0.6-1.3,1
		c-0.3,0.4-0.6,0.9-0.8,1.5C857.7,70.2,857.6,70.7,857.6,71.3z"/>
	<path class="st0" d="M873.4,77.7V65h2v10.9h6.8v1.8C882.2,77.7,873.4,77.7,873.4,77.7z"/>
	<path class="st0" d="M887.5,77.7V65h2v10.9h6.8v1.8C896.3,77.7,887.5,77.7,887.5,77.7z"/>
	<path class="st0" d="M906,77.7c-0.9,0-1.7-0.2-2.5-0.5c-0.7-0.4-1.4-0.8-1.9-1.5s-1-1.3-1.2-2.1c-0.3-0.8-0.4-1.6-0.4-2.4
		s0.2-1.7,0.5-2.4c0.3-0.8,0.7-1.5,1.3-2.1c0.6-0.6,1.2-1.1,1.9-1.4c0.7-0.4,1.6-0.5,2.4-0.5c0.9,0,1.7,0.2,2.5,0.6
		c0.7,0.4,1.4,0.9,1.9,1.5s0.9,1.3,1.2,2.1c0.3,0.8,0.4,1.6,0.4,2.4s-0.2,1.7-0.5,2.4c-0.3,0.8-0.7,1.5-1.3,2
		c-0.5,0.6-1.2,1.1-1.9,1.4C907.6,77.6,906.8,77.7,906,77.7z M901.9,71.3c0,0.6,0.1,1.2,0.3,1.7c0.2,0.6,0.5,1.1,0.8,1.5
		c0.4,0.4,0.8,0.8,1.3,1c0.5,0.3,1.1,0.4,1.7,0.4c0.6,0,1.2-0.1,1.7-0.4s0.9-0.6,1.3-1.1c0.3-0.4,0.6-0.9,0.8-1.5s0.3-1.1,0.3-1.7
		s-0.1-1.2-0.3-1.7c-0.2-0.6-0.5-1-0.8-1.5c-0.3-0.5-0.8-0.8-1.3-1s-1-0.4-1.7-0.4c-0.6,0-1.2,0.1-1.7,0.4s-0.9,0.6-1.3,1
		c-0.3,0.4-0.6,0.9-0.8,1.5C902,70.2,901.9,70.7,901.9,71.3z"/>
	<path class="st0" d="M779.1,86.5h1.9l1.6,4.3l1.6-4.3h1.9l-2.2,5.7l1.9,4.7l4-10.4h2.2l-5.2,12.7h-1.7l-2.4-5.7l-2.4,5.7h-1.7
		l-5.2-12.7h2.2l4,10.4l1.9-4.7L779.1,86.5z"/>
	<path class="st0" d="M805.7,97.4v1.8H797V86.5h8.6v1.8h-6.5v3.6h5.7v1.7h-5.7v3.9h6.6V97.4z"/>
	<path class="st0" d="M821.4,95.9c0,0.5-0.1,1-0.3,1.4s-0.5,0.7-0.8,1s-0.8,0.5-1.2,0.6c-0.5,0.1-1,0.2-1.5,0.2h-6.1V86.4h6.6
		c0.4,0,0.8,0.1,1.2,0.3c0.4,0.2,0.7,0.4,0.9,0.7c0.3,0.3,0.4,0.7,0.6,1c0.1,0.4,0.2,0.8,0.2,1.2c0,0.6-0.2,1.2-0.5,1.7
		s-0.8,0.9-1.4,1.2c0.7,0.2,1.3,0.6,1.7,1.2C821.1,94.4,821.4,95,821.4,95.9z M813.4,88.2v3.7h3.7c0.2,0,0.5,0,0.7-0.1
		s0.4-0.2,0.6-0.4c0.2-0.2,0.3-0.4,0.4-0.6c0.1-0.2,0.1-0.5,0.1-0.8c0-0.5-0.2-1-0.5-1.4s-0.7-0.5-1.2-0.5h-3.8V88.2z M819.3,95.5
		c0-0.3,0-0.5-0.1-0.8c-0.1-0.2-0.2-0.4-0.4-0.6c-0.1-0.2-0.3-0.3-0.5-0.4s-0.4-0.2-0.7-0.2h-4.2v3.9h4.1c0.3,0,0.5-0.1,0.7-0.2
		c0.2-0.1,0.4-0.2,0.6-0.4c0.2-0.2,0.3-0.4,0.4-0.6C819.3,96,819.3,95.7,819.3,95.5z"/>
	<path class="st0" d="M835.4,86.4l3.5,6.4l3.5-6.4h2.2l-4.7,8.2v4.5h-2v-4.6l-4.7-8.1H835.4z"/>
	<path class="st0" d="M860.3,86.4h1.8l5,12.7H865l-1.3-3.5h-4.9l-1.3,3.5h-2.1L860.3,86.4z M863.3,94.2l-2-5.5l-2.1,5.5H863.3z"/>
	<path class="st0" d="M872.3,99.1V86.4h5.3c0.6,0,1.1,0.1,1.6,0.4c0.5,0.2,0.9,0.6,1.2,0.9c0.3,0.4,0.6,0.8,0.8,1.3
		c0.2,0.5,0.3,1,0.3,1.5s-0.1,1.1-0.3,1.5c-0.2,0.5-0.4,0.9-0.8,1.3c-0.3,0.4-0.7,0.7-1.2,0.9c-0.5,0.2-1,0.3-1.6,0.3h-3.4v4.4h-1.9
		V99.1z M874.3,92.9h3.3c0.3,0,0.5-0.1,0.8-0.2c0.3-0.1,0.4-0.3,0.6-0.5c0.2-0.2,0.3-0.5,0.4-0.8c0.1-0.3,0.1-0.6,0.1-0.9
		c0-0.4-0.1-0.7-0.2-1s-0.3-0.5-0.4-0.7c-0.2-0.2-0.4-0.4-0.7-0.5c-0.2-0.1-0.5-0.2-0.8-0.2h-3.2L874.3,92.9L874.3,92.9z"/>
	<path class="st0" d="M887,99.1V86.4h5.3c0.6,0,1.1,0.1,1.6,0.4c0.5,0.2,0.9,0.6,1.2,0.9c0.3,0.4,0.6,0.8,0.8,1.3
		c0.2,0.5,0.3,1,0.3,1.5s-0.1,1.1-0.3,1.5c-0.2,0.5-0.4,0.9-0.8,1.3c-0.3,0.4-0.7,0.7-1.2,0.9c-0.5,0.2-1,0.3-1.6,0.3h-3.4v4.4H887
		V99.1z M889,92.9h3.3c0.3,0,0.5-0.1,0.8-0.2s0.4-0.3,0.6-0.5c0.2-0.2,0.3-0.5,0.4-0.8c0.1-0.3,0.1-0.6,0.1-0.9c0-0.4-0.1-0.7-0.2-1
		c-0.1-0.3-0.3-0.5-0.4-0.7c-0.2-0.2-0.4-0.4-0.7-0.5c-0.2-0.1-0.5-0.2-0.8-0.2h-3.2L889,92.9L889,92.9z"/>
	<path class="st0" d="M909.2,89.4c-0.1-0.1-0.3-0.3-0.5-0.4c-0.2-0.1-0.5-0.3-0.8-0.4s-0.6-0.2-1-0.3c-0.4-0.1-0.7-0.1-1.1-0.1
		c-0.8,0-1.5,0.2-1.9,0.5c-0.4,0.3-0.6,0.7-0.6,1.3c0,0.3,0.1,0.6,0.2,0.8c0.1,0.2,0.3,0.4,0.6,0.5s0.6,0.3,1,0.4
		c0.4,0.1,0.9,0.2,1.4,0.4c0.6,0.2,1.2,0.3,1.7,0.5s1,0.4,1.3,0.7c0.4,0.3,0.6,0.6,0.8,1c0.2,0.4,0.3,0.9,0.3,1.5s-0.1,1.2-0.4,1.7
		c-0.2,0.5-0.6,0.8-1,1.1c-0.4,0.3-0.9,0.5-1.5,0.6c-0.6,0.1-1.2,0.2-1.8,0.2c-1,0-1.9-0.1-2.8-0.4s-1.7-0.7-2.4-1.3l0.9-1.7
		c0.2,0.2,0.4,0.3,0.7,0.5c0.3,0.2,0.6,0.4,1,0.5c0.4,0.2,0.8,0.3,1.3,0.4s0.9,0.2,1.4,0.2c0.8,0,1.4-0.1,1.8-0.4
		c0.4-0.3,0.6-0.7,0.6-1.2c0-0.3-0.1-0.6-0.2-0.8c-0.1-0.2-0.4-0.4-0.7-0.6c-0.3-0.2-0.7-0.3-1.1-0.4c-0.4-0.1-0.9-0.3-1.5-0.4
		c-0.6-0.2-1.2-0.3-1.7-0.5s-0.9-0.4-1.2-0.7c-0.3-0.3-0.5-0.6-0.7-0.9s-0.2-0.8-0.2-1.3c0-0.6,0.1-1.2,0.4-1.7
		c0.2-0.5,0.6-0.9,1-1.2c0.4-0.3,0.9-0.6,1.5-0.7c0.6-0.1,1.2-0.3,1.8-0.3c0.9,0,1.7,0.1,2.4,0.4c0.7,0.3,1.4,0.6,1.9,1L909.2,89.4z
		"/>
</g>
<g>
	<path class="st0" d="M851.5,38.1h-30.3c-1.1,0-2-0.9-2-2V14.3c0-1.1,0.9-2,2-2h30.3c1.1,0,2,0.9,2,2v21.9
		C853.5,37.2,852.6,38.1,851.5,38.1z M821.2,12.9c-0.7,0-1.4,0.6-1.4,1.4v21.9c0,0.7,0.6,1.4,1.4,1.4h30.3c0.7,0,1.4-0.6,1.4-1.4
		V14.3c0-0.7-0.6-1.4-1.4-1.4H821.2z"/>
</g>
<g>
	<path class="st0" d="M850.9,33.9h-28.5V17.2c0-1.1,0.9-2,2-2h24.5c1.1,0,2,0.9,2,2C850.9,17.2,850.9,33.9,850.9,33.9z M823,33.2
		h27.2V17.2c0-0.7-0.6-1.4-1.4-1.4h-24.5c-0.7,0-1.4,0.6-1.4,1.4C823,17.2,823,33.2,823,33.2z"/>
</g>
<g>
	<path class="st0" d="M841.4,29.7h-13.2c-0.7,0-1.1-0.5-1.1-1.1v-9.7c0-0.7,0.5-1.1,1.1-1.1h14.6c0.7,0,1.1,0.5,1.1,1.1v8.3
		l-3.5-0.8L841.4,29.7z M828.3,18.3c-0.3,0-0.5,0.2-0.5,0.5v9.7c0,0.3,0.2,0.5,0.5,0.5h12.3l-1-3.6l3.7,0.8v-7.5
		c0-0.3-0.2-0.5-0.5-0.5C842.8,18.3,828.3,18.3,828.3,18.3z"/>
</g>
<g>
	<path class="st0" d="M844.3,32.5l-1.7-1.9l-1.3,1.4l-1.8-6.5l7,1.6l-1.4,1.7l1.3,1.4L844.3,32.5z M842.7,29.6l1.7,1.9l1.3-1.3
		l-1.3-1.4l1.1-1.3l-5-1.1l1.2,4.4L842.7,29.6z"/>
</g>
<g>
	<path class="st0" d="M827.9,43.1l2.3-1c3.2-0.4,3.3-4.1,3.3-4.3v-0.3h6v0.3c-0.1,3.4,3.4,4.2,3.5,4.3l1.8,0.9L827.9,43.1z
		 M834.1,38.2c-0.1,0.8-0.5,2.9-2.1,4l9.4-0.1c-1.1-0.6-2.5-1.8-2.5-4H834.1z"/>
</g>
<g>
	<path class="st2" d="M844.3,43.7h-15.8c-0.4,0-0.7-0.3-0.7-0.7c0-0.4,0.3-0.7,0.7-0.7h15.8c0.4,0,0.7,0.3,0.7,0.7
		C845,43.4,844.7,43.7,844.3,43.7z M828.5,42.8c-0.1,0-0.1,0.1-0.1,0.1c0,0.1,0.1,0.1,0.1,0.1h15.8c0.1,0,0.1-0.1,0.1-0.1
		c0-0.1-0.1-0.1-0.1-0.1H828.5z"/>
</g>
<g>
	<rect x="827.3" y="20.9" class="st0" width="16.4" height="0.6"/>
</g>
<g>
	<path class="st0" d="M834.6,27.2h-5.2v-2.7h5.2V27.2z M830.1,26.5h4v-1.4h-4V26.5z"/>
</g>
<g>
	<rect x="819.5" y="33.3" class="st0" width="33.8" height="0.6"/>
</g>
<g>
	<path class="st0" d="M838.6,36.1h-3.9c-0.2,0-0.3-0.1-0.3-0.3v-0.3c0-0.2,0.1-0.3,0.3-0.3h3.9c0.2,0,0.3,0.1,0.3,0.3v0.3
		C838.9,36,838.8,36.1,838.6,36.1z"/>
</g>
<rect x="378.4" y="64.6" style="fill:none;" width="52" height="32"/>
<text transform="matrix(1 0 0 1 378.358 77.3477)" class="st0" style="font-family:'MyriadPro-Bold'; font-size:18px;">/</text>
</svg>
