<?xml version="1.0" encoding="utf-8"?>
<!-- Generator: Adobe Illustrator 22.0.0, SVG Export Plug-In . SVG Version: 6.00 Build 0)  -->
<svg version="1.1" id="Layer_1" xmlns="http://www.w3.org/2000/svg" xmlns:xlink="http://www.w3.org/1999/xlink" x="0px" y="0px"
	 viewBox="0 0 147.2 98.6" style="enable-background:new 0 0 147.2 98.6;" xml:space="preserve">
<style type="text/css">
	.st0{fill:#fff;}
	.st1{fill:#fff;stroke:#fff;stroke-width:0.25;stroke-miterlimit:10;}
</style>
<g>
	<path class="st0" d="M71,51.3c-14,0-25.5-11.4-25.5-25.5S56.9,0.3,71,0.3s25.5,11.4,25.5,25.5S85,51.3,71,51.3z M71,1.4
		c-13.5,0-24.4,11-24.4,24.4s11,24.4,24.4,24.4s24.4-11,24.4-24.4S84.4,1.4,71,1.4z"/>
</g>
<g>
	<path class="st0" d="M73.7,35.3h-3.9c-0.2,0-0.3-0.1-0.3-0.3v-0.3c0-0.2,0.1-0.3,0.3-0.3h3.9c0.2,0,0.3,0.1,0.3,0.3V35
		C74,35.2,73.9,35.3,73.7,35.3z"/>
</g>
<g>
	<path class="st0" d="M0.2,76.9V64.2h4.5c1,0,1.9,0.2,2.7,0.5s1.4,0.8,1.9,1.4c0.5,0.6,0.9,1.2,1.2,2s0.4,1.6,0.4,2.5
		c0,1-0.1,1.8-0.4,2.6s-0.7,1.4-1.2,2c-0.5,0.6-1.2,1-2,1.3S5.7,77,4.7,77H0.2V76.9z M8.9,70.5c0-0.7-0.1-1.3-0.3-1.8
		c-0.2-0.6-0.5-1-0.8-1.4c-0.4-0.4-0.8-0.7-1.3-0.9s-1.1-0.5-1.8-0.5H2.2v9.2h2.5c0.7,0,1.3-0.1,1.8-0.3c0.5-0.2,1-0.6,1.3-1
		c0.4-0.4,0.6-0.9,0.8-1.5S8.9,71.1,8.9,70.5z"/>
	<path class="st0" d="M25.3,75.1v1.8h-8.7V64.2h8.6v1.7h-6.5v3.6h5.6v1.7h-5.7v3.9H25.3z"/>
	<path class="st0" d="M38.2,67.1c-0.1-0.1-0.3-0.3-0.5-0.4s-0.5-0.3-0.8-0.4s-0.6-0.2-1-0.3c-0.4-0.1-0.7-0.1-1.1-0.1
		c-0.8,0-1.5,0.2-1.9,0.5s-0.6,0.7-0.6,1.3c0,0.3,0.1,0.6,0.2,0.8s0.3,0.4,0.6,0.5c0.3,0.2,0.6,0.3,1,0.4s0.9,0.2,1.4,0.4
		c0.6,0.2,1.2,0.3,1.7,0.5s1,0.4,1.3,0.7c0.4,0.3,0.6,0.6,0.8,1s0.3,0.9,0.3,1.5s-0.1,1.2-0.4,1.7c-0.2,0.5-0.6,0.8-1,1.1
		s-0.9,0.5-1.5,0.6s-1.2,0.2-1.8,0.2c-1,0-1.9-0.1-2.8-0.4c-0.9-0.3-1.7-0.7-2.4-1.3l0.9-1.7c0.2,0.2,0.4,0.3,0.7,0.5s0.6,0.4,1,0.5
		c0.4,0.2,0.8,0.3,1.3,0.4s0.9,0.2,1.4,0.2c0.8,0,1.4-0.1,1.8-0.4s0.6-0.7,0.6-1.2c0-0.3-0.1-0.6-0.2-0.8s-0.4-0.4-0.7-0.6
		s-0.7-0.3-1.1-0.4s-0.9-0.3-1.5-0.4c-0.6-0.2-1.2-0.3-1.7-0.5c-0.5-0.2-0.9-0.4-1.2-0.7c-0.3-0.3-0.5-0.6-0.7-0.9
		c0-0.5-0.1-1-0.1-1.5c0-0.6,0.1-1.2,0.4-1.7c0.2-0.5,0.6-0.9,1-1.2c0.4-0.3,0.9-0.6,1.5-0.7c0.6-0.2,1.2-0.2,1.8-0.2
		c0.9,0,1.7,0.1,2.4,0.4s1.4,0.6,1.9,1L38.2,67.1z"/>
	<path class="st0" d="M48.8,64.2h1.8l5,12.7h-2.1l-1.3-3.5h-4.9L46,76.9h-2.1L48.8,64.2z M51.7,71.9l-2-5.5l-2.2,5.5H51.7z"/>
	<path class="st0" d="M60.7,76.9V64.2h5.5c0.6,0,1.1,0.1,1.6,0.4s0.9,0.6,1.2,0.9c0.3,0.4,0.6,0.8,0.8,1.3c0.2,0.5,0.3,1,0.3,1.5
		c0,0.4-0.1,0.8-0.2,1.2s-0.3,0.8-0.5,1.1c-0.2,0.3-0.5,0.6-0.8,0.9s-0.7,0.4-1,0.5l3,4.8h-2.3l-2.8-4.4h-2.9v4.4L60.7,76.9
		L60.7,76.9z M62.7,70.7h3.5c0.3,0,0.5-0.1,0.8-0.2s0.4-0.3,0.6-0.5s0.3-0.5,0.4-0.8s0.1-0.6,0.1-0.9s-0.1-0.6-0.2-0.9
		s-0.3-0.5-0.4-0.8c-0.2-0.2-0.4-0.4-0.6-0.5c-0.3-0.1-0.6-0.2-0.8-0.2h-3.4V70.7z"/>
	<path class="st0" d="M76.1,76.9V64.2h5.5c0.6,0,1.1,0.1,1.6,0.4s0.9,0.6,1.2,0.9c0.3,0.4,0.6,0.8,0.8,1.3c0.2,0.5,0.3,1,0.3,1.5
		c0,0.4-0.1,0.8-0.2,1.2s-0.3,0.8-0.5,1.1c-0.2,0.3-0.5,0.6-0.8,0.9s-0.7,0.4-1,0.5l3,4.8h-2.3l-2.8-4.4H78v4.4L76.1,76.9L76.1,76.9
		z M78.1,70.7h3.5c0.3,0,0.5-0.1,0.8-0.2s0.4-0.3,0.6-0.5s0.3-0.5,0.4-0.8s0.1-0.6,0.1-0.9s-0.1-0.6-0.2-0.9s-0.3-0.5-0.4-0.8
		c-0.2-0.2-0.4-0.4-0.6-0.5s-0.5-0.2-0.8-0.2h-3.4V70.7z"/>
	<path class="st0" d="M96.8,76.9c-0.9,0-1.7-0.2-2.5-0.5c-0.7-0.4-1.4-0.8-1.9-1.5s-1-1.3-1.2-2.1c-0.3-0.8-0.4-1.6-0.4-2.4
		s0.2-1.7,0.5-2.4c0.3-0.8,0.7-1.5,1.3-2.1s1.2-1.1,1.9-1.4c0.7-0.4,1.6-0.5,2.4-0.5c0.9,0,1.7,0.2,2.5,0.6c0.7,0.4,1.4,0.9,1.9,1.5
		s0.9,1.3,1.2,2.1c0.3,0.8,0.4,1.6,0.4,2.4s-0.2,1.7-0.5,2.4c-0.3,0.8-0.7,1.5-1.3,2c-0.5,0.6-1.2,1.1-1.9,1.4
		C98.4,76.8,97.6,76.9,96.8,76.9z M92.7,70.5c0,0.6,0.1,1.2,0.3,1.7c0.2,0.6,0.5,1.1,0.8,1.5c0.4,0.4,0.8,0.8,1.3,1
		c0.5,0.3,1.1,0.4,1.7,0.4s1.2-0.1,1.7-0.4s0.9-0.6,1.3-1.1c0.3-0.4,0.6-0.9,0.8-1.5s0.3-1.1,0.3-1.7s-0.1-1.2-0.3-1.7
		c-0.2-0.6-0.5-1-0.8-1.5s-0.8-0.8-1.3-1s-1-0.4-1.7-0.4c-0.6,0-1.2,0.1-1.7,0.4s-0.9,0.6-1.3,1c-0.3,0.4-0.6,0.9-0.8,1.5
		C92.8,69.4,92.7,69.9,92.7,70.5z"/>
	<path class="st0" d="M108.5,76.9V64.2h2v10.9h6.8v1.8C117.3,76.9,108.5,76.9,108.5,76.9z"/>
	<path class="st0" d="M122.6,76.9V64.2h2v10.9h6.8v1.8C131.4,76.9,122.6,76.9,122.6,76.9z"/>
	<path class="st0" d="M141.1,76.9c-0.9,0-1.7-0.2-2.5-0.5c-0.7-0.4-1.4-0.8-1.9-1.5s-1-1.3-1.2-2.1c-0.3-0.8-0.4-1.6-0.4-2.4
		s0.2-1.7,0.5-2.4c0.3-0.8,0.7-1.5,1.3-2.1s1.2-1.1,1.9-1.4c0.7-0.4,1.6-0.5,2.4-0.5c0.9,0,1.7,0.2,2.5,0.6c0.7,0.4,1.4,0.9,1.9,1.5
		s0.9,1.3,1.2,2.1c0.3,0.8,0.4,1.6,0.4,2.4s-0.2,1.7-0.5,2.4c-0.3,0.8-0.7,1.5-1.3,2c-0.5,0.6-1.2,1.1-1.9,1.4
		C142.7,76.8,141.9,76.9,141.1,76.9z M137,70.5c0,0.6,0.1,1.2,0.3,1.7c0.2,0.6,0.5,1.1,0.8,1.5c0.4,0.4,0.8,0.8,1.3,1
		c0.5,0.3,1.1,0.4,1.7,0.4c0.6,0,1.2-0.1,1.7-0.4s0.9-0.6,1.3-1.1c0.3-0.4,0.6-0.9,0.8-1.5s0.3-1.1,0.3-1.7s-0.1-1.2-0.3-1.7
		c-0.2-0.6-0.5-1-0.8-1.5s-0.8-0.8-1.3-1s-1-0.4-1.7-0.4c-0.6,0-1.2,0.1-1.7,0.4s-0.9,0.6-1.3,1c-0.3,0.4-0.6,0.9-0.8,1.5
		C137.1,69.4,137,69.9,137,70.5z"/>
	<path class="st0" d="M14.2,85.7h1.9l1.6,4.3l1.6-4.3h1.9L19,91.4l1.9,4.7l4-10.4h2.2l-5.2,12.7h-1.7l-2.4-5.7l-2.4,5.7h-1.7
		L8.5,85.7h2.2l4,10.4l1.9-4.7L14.2,85.7z"/>
	<path class="st0" d="M40.8,96.6v1.8h-8.7V85.7h8.6v1.8h-6.5v3.6h5.7v1.7h-5.7v3.9h6.6V96.6z"/>
	<path class="st0" d="M56.5,95.1c0,0.5-0.1,1-0.3,1.4s-0.5,0.7-0.8,1s-0.8,0.5-1.2,0.6c-0.5,0.1-1,0.2-1.5,0.2h-6.1V85.6h6.6
		c0.4,0,0.8,0.1,1.2,0.3c0.4,0.2,0.7,0.4,0.9,0.7c0.3,0.3,0.4,0.7,0.6,1c0.1,0.4,0.2,0.8,0.2,1.2c0,0.6-0.2,1.2-0.5,1.7
		s-0.8,0.9-1.4,1.2c0.7,0.2,1.3,0.6,1.7,1.2C56.2,93.6,56.5,94.2,56.5,95.1z M48.5,87.4v3.7h3.7c0.2,0,0.5,0,0.7-0.1
		s0.4-0.2,0.6-0.4c0.2-0.2,0.3-0.4,0.4-0.6c0.1-0.2,0.1-0.5,0.1-0.8c0-0.5-0.2-1-0.5-1.4s-0.7-0.5-1.2-0.5h-3.8V87.4z M54.4,94.7
		c0-0.3,0-0.5-0.1-0.8c-0.1-0.2-0.2-0.4-0.4-0.6c-0.1-0.2-0.3-0.3-0.5-0.4s-0.4-0.2-0.7-0.2h-4.2v3.9h4.1c0.3,0,0.5-0.1,0.7-0.2
		s0.4-0.2,0.6-0.4c0.2-0.2,0.3-0.4,0.4-0.6S54.4,94.9,54.4,94.7z"/>
	<path class="st0" d="M70.5,85.6L74,92l3.5-6.4h2.2L75,93.8v4.5h-2v-4.6l-4.7-8.1H70.5z"/>
	<path class="st0" d="M95.4,85.6h1.8l5,12.7h-2.1l-1.3-3.5h-4.9l-1.3,3.5h-2.1L95.4,85.6z M98.4,93.4l-2-5.5l-2.1,5.5H98.4z"/>
	<path class="st0" d="M107.4,98.3V85.6h5.3c0.6,0,1.1,0.1,1.6,0.4c0.5,0.2,0.9,0.6,1.2,0.9c0.3,0.4,0.6,0.8,0.8,1.3
		c0.2,0.5,0.3,1,0.3,1.5s-0.1,1.1-0.3,1.5c-0.2,0.5-0.4,0.9-0.8,1.3c-0.3,0.4-0.7,0.7-1.2,0.9c-0.5,0.2-1,0.3-1.6,0.3h-3.4v4.4h-1.9
		V98.3z M109.4,92.1h3.3c0.3,0,0.5-0.1,0.8-0.2s0.4-0.3,0.6-0.5s0.3-0.5,0.4-0.8s0.1-0.6,0.1-0.9c0-0.4-0.1-0.7-0.2-1
		s-0.3-0.5-0.4-0.7c-0.2-0.2-0.4-0.4-0.7-0.5c-0.2-0.1-0.5-0.2-0.8-0.2h-3.2L109.4,92.1L109.4,92.1z"/>
	<path class="st0" d="M122.1,98.3V85.6h5.3c0.6,0,1.1,0.1,1.6,0.4c0.5,0.2,0.9,0.6,1.2,0.9c0.3,0.4,0.6,0.8,0.8,1.3s0.3,1,0.3,1.5
		s-0.1,1.1-0.3,1.5c-0.2,0.5-0.4,0.9-0.8,1.3c-0.3,0.4-0.7,0.7-1.2,0.9c-0.5,0.2-1,0.3-1.6,0.3H124v4.4h-1.9V98.3z M124.1,92.1h3.3
		c0.3,0,0.5-0.1,0.8-0.2c0.3-0.1,0.4-0.3,0.6-0.5c0.2-0.2,0.3-0.5,0.4-0.8c0.1-0.3,0.1-0.6,0.1-0.9c0-0.4-0.1-0.7-0.2-1
		c-0.1-0.3-0.3-0.5-0.4-0.7c-0.2-0.2-0.4-0.4-0.7-0.5c-0.2-0.1-0.5-0.2-0.8-0.2H124L124.1,92.1L124.1,92.1z"/>
	<path class="st0" d="M144.3,88.6c-0.1-0.1-0.3-0.3-0.5-0.4s-0.5-0.3-0.8-0.4s-0.6-0.2-1-0.3c-0.4-0.1-0.7-0.1-1.1-0.1
		c-0.8,0-1.5,0.2-1.9,0.5s-0.6,0.7-0.6,1.3c0,0.3,0.1,0.6,0.2,0.8c0.1,0.2,0.3,0.4,0.6,0.5s0.6,0.3,1,0.4s0.9,0.2,1.4,0.4
		c0.6,0.2,1.2,0.3,1.7,0.5s1,0.4,1.3,0.7c0.4,0.3,0.6,0.6,0.8,1s0.3,0.9,0.3,1.5s-0.1,1.2-0.4,1.7c-0.2,0.5-0.6,0.8-1,1.1
		c-0.4,0.3-0.9,0.5-1.5,0.6s-1.2,0.2-1.8,0.2c-1,0-1.9-0.1-2.8-0.4c-0.9-0.3-1.7-0.7-2.4-1.3l0.9-1.7c0.2,0.2,0.4,0.3,0.7,0.5
		s0.6,0.4,1,0.5c0.4,0.2,0.8,0.3,1.3,0.4s0.9,0.2,1.4,0.2c0.8,0,1.4-0.1,1.8-0.4c0.4-0.3,0.6-0.7,0.6-1.2c0-0.3-0.1-0.6-0.2-0.8
		s-0.4-0.4-0.7-0.6s-0.7-0.3-1.1-0.4c-0.4-0.1-0.9-0.3-1.5-0.4c-0.6-0.2-1.2-0.3-1.7-0.5s-0.9-0.4-1.2-0.7c-0.3-0.3-0.5-0.6-0.7-0.9
		s-0.2-0.8-0.2-1.3c0-0.6,0.1-1.2,0.4-1.7c0.2-0.5,0.6-0.9,1-1.2c0.4-0.3,0.9-0.6,1.5-0.7s1.2-0.3,1.8-0.3c0.9,0,1.7,0.1,2.4,0.4
		s1.4,0.6,1.9,1L144.3,88.6z"/>
</g>
<g>
	<path class="st0" d="M86.7,37.3H56.3c-1.1,0-2-0.9-2-2V13.4c0-1.1,0.9-2,2-2h30.3c1.1,0,2,0.9,2,2v21.9
		C88.7,36.4,87.8,37.3,86.7,37.3z M56.3,12.1c-0.7,0-1.4,0.6-1.4,1.4v21.9c0,0.7,0.6,1.4,1.4,1.4h30.3c0.7,0,1.4-0.6,1.4-1.4V13.4
		c0-0.7-0.6-1.4-1.4-1.4H56.3z"/>
</g>
<g>
	<path class="st0" d="M86,33H57.5V16.4c0-1.1,0.9-2,2-2H84c1.1,0,2,0.9,2,2C86,16.4,86,33,86,33z M58.1,32.4h27.2V16.4
		c0-0.7-0.6-1.4-1.4-1.4H59.5c-0.7,0-1.4,0.6-1.4,1.4C58.1,16.4,58.1,32.4,58.1,32.4z"/>
</g>
<g>
	<path class="st0" d="M76.5,28.8H63.3c-0.7,0-1.1-0.5-1.1-1.1V18c0-0.7,0.5-1.1,1.1-1.1h14.6c0.7,0,1.1,0.5,1.1,1.1v8.3l-3.5-0.8
		L76.5,28.8z M63.4,17.5c-0.3,0-0.5,0.2-0.5,0.5v9.7c0,0.3,0.2,0.5,0.5,0.5h12.3l-1-3.6l3.7,0.8V18c0-0.3-0.2-0.5-0.5-0.5
		C77.9,17.5,63.4,17.5,63.4,17.5z"/>
</g>
<g>
	<path class="st0" d="M79.4,31.7l-1.7-1.9l-1.3,1.4l-1.8-6.5l7,1.6l-1.4,1.7l1.3,1.4L79.4,31.7z M77.8,28.8l1.7,1.9l1.3-1.3L79.5,28
		l1.1-1.3l-5-1.1l1.2,4.4L77.8,28.8z"/>
</g>
<g>
	<path class="st0" d="M63,42.3l2.3-1c3.2-0.4,3.3-4.1,3.3-4.3v-0.3h6v0.3c-0.1,3.4,3.4,4.2,3.5,4.3l1.8,0.9L63,42.3z M69.2,37.4
		c-0.1,0.8-0.5,2.9-2.1,4l9.4-0.1c-1.1-0.6-2.5-1.8-2.5-4H69.2z"/>
</g>
<g>
	<path class="st1" d="M79.5,42.9H63.6c-0.4,0-0.7-0.3-0.7-0.7c0-0.4,0.3-0.7,0.7-0.7h15.8c0.4,0,0.7,0.3,0.7,0.7
		C80.1,42.6,79.8,42.9,79.5,42.9z M63.6,42c-0.1,0-0.1,0.1-0.1,0.1s0.1,0.1,0.1,0.1h15.8c0.1,0,0.1-0.1,0.1-0.1S79.5,42,79.4,42
		H63.6z"/>
</g>
<g>
	<rect x="62.4" y="20.1" class="st0" width="16.4" height="0.6"/>
</g>
<g>
	<path class="st0" d="M69.8,26.4h-5.2v-2.7h5.2V26.4z M65.2,25.7h4v-1.4h-4V25.7z"/>
</g>
<g>
	<rect x="54.6" y="32.4" class="st0" width="33.8" height="0.6"/>
</g>
<g>
	<path class="st0" d="M73.7,35.3h-3.9c-0.2,0-0.3-0.1-0.3-0.3v-0.3c0-0.2,0.1-0.3,0.3-0.3h3.9c0.2,0,0.3,0.1,0.3,0.3V35
		C74,35.2,73.9,35.3,73.7,35.3z"/>
</g>
</svg>
