<?xml version="1.0" encoding="utf-8"?>
<!-- Generator: Adobe Illustrator 19.0.0, SVG Export Plug-In . SVG Version: 6.00 Build 0)  -->
<svg version="1.1" id="Layer_1" xmlns="http://www.w3.org/2000/svg" xmlns:xlink="http://www.w3.org/1999/xlink" x="0px" y="0px"
	 viewBox="0 0 430.5 429.7" style="enable-background:new 0 0 430.5 429.7;" xml:space="preserve">
<style type="text/css">
	.st0{fill:#F96332;}
</style>
<path class="st0" d="M260.4,307.3C185.2,355.7,90.7,337.2,38.7,272c-51-63.9-47.9-156,7.2-215.9c56-60.9,147.6-71.5,215.8-25.9
	c69.2,46.3,100,147.9,45.7,230.8c1.3,0.9,3,1.8,4.3,3c35.4,35.3,70.8,70.6,106.1,106c17.5,17.6,12.3,45.6-10,55.1
	c-12.7,5.4-26.9,2.4-37.2-7.9c-35.4-35.3-70.7-70.7-106-106C263.2,309.9,261.8,308.7,260.4,307.3z M168.8,322.4
	c86-0.3,155.6-70.1,155.3-155.6c-0.3-86.5-70.2-155.7-158-154.7c-85.2,1-153,71.1-152.5,156.7C14,253,84.4,322.8,168.8,322.4z
	 M299.2,325.8c28.4,28.4,57.2,57.2,86.1,86c9,9,21.1,9.5,29.3,1.4c8.3-8.3,7.7-20.1-1.3-29.2c-27.8-27.8-55.6-55.6-83.4-83.4
	c-1.1-1.1-2.3-2.2-2.8-2.7C317.7,307.3,308.7,316.4,299.2,325.8z M298.6,320.3c7.5-7.4,15.1-14.9,22.2-21.8
	c-8.6-8.6-16.2-16.2-22.9-23c-7.3,7.2-14.9,14.8-22.1,21.9C282.7,304.4,290.2,311.9,298.6,320.3z"/>
<path class="st0" d="M181.2,48.6c-1-0.1-2-0.2-3-0.3c-8-0.6-13.3,3.2-13.5,9.8c-0.2,6.3,4.3,10,12.4,10.5
	c42.9,2.7,73,23.7,90.5,62.9c2.9,6.5,8.1,9.2,13.9,7c5.5-2.1,7.8-8.3,5-14.7C266.3,77.8,230.8,53.2,181.2,48.6z M294.8,168.7
	c0.1-5.8-4-10.3-9.7-10.4c-5.5-0.1-10.3,4.3-10.4,9.9c-0.2,5.5,4.3,10.2,9.9,10.4C290.3,178.7,294.7,174.5,294.8,168.7z"/>
<path class="st0" d="M181.2,48.6c49.6,4.6,85.2,29.1,105.2,75.1c2.8,6.4,0.5,12.6-5,14.7c-5.8,2.3-10.9-0.5-13.9-7
	c-17.5-39.2-47.7-60.2-90.5-62.9c-8.1-0.5-12.6-4.2-12.4-10.5c0.2-6.5,5.5-10.4,13.5-9.8C179.2,48.4,180.2,48.5,181.2,48.6z"/>
<path class="st0" d="M294.8,168.7c-0.1,5.8-4.5,10-10.2,9.8c-5.6-0.2-10-4.8-9.9-10.4c0.2-5.6,4.9-10,10.4-9.9
	C290.7,158.4,294.8,162.9,294.8,168.7z"/>
</svg>
