<?xml version="1.0" encoding="utf-8"?>
<!-- Generator: Adobe Illustrator 22.0.0, SVG Export Plug-In . SVG Version: 6.00 Build 0)  -->
<svg version="1.1" id="Layer_1" xmlns="http://www.w3.org/2000/svg" xmlns:xlink="http://www.w3.org/1999/xlink" x="0px" y="0px"
	 viewBox="0 0 109.4 98.8" style="enable-background:new 0 0 109.4 98.8;" xml:space="preserve">
<style type="text/css">
	.st0{fill:#fff;}
	.st1{fill:none;stroke:#fff;stroke-miterlimit:10;}
	.st2{fill:#fff;stroke:#fff;stroke-width:0.25;stroke-miterlimit:10;}
</style>
<g>
	<path class="st0" d="M217.8-139.2c0-0.4,0.1-0.8,0.2-1.1c0.1-0.4,0.3-0.7,0.6-0.9c0.3-0.3,0.6-0.5,0.9-0.7c0.4-0.2,0.8-0.3,1.3-0.3
		c0.6,0,1,0.1,1.4,0.4c0.4,0.3,0.7,0.6,0.9,0.9l-0.8,0.5c-0.1-0.2-0.2-0.3-0.3-0.4s-0.3-0.3-0.4-0.3s-0.3-0.1-0.4-0.2
		c-0.1,0-0.3-0.1-0.4-0.1c-0.3,0-0.6,0.1-0.8,0.2s-0.4,0.3-0.6,0.5c-0.2,0.2-0.3,0.4-0.4,0.7c-0.1,0.3-0.1,0.5-0.1,0.8
		c0,0.3,0.1,0.6,0.1,0.8c0.1,0.3,0.3,0.5,0.4,0.7c0.2,0.2,0.4,0.4,0.6,0.5c0.3,0.1,0.5,0.2,0.8,0.2c0.1,0,0.3,0,0.4-0.1
		s0.3-0.1,0.4-0.2s0.3-0.2,0.4-0.3s0.3-0.3,0.3-0.4l0.8,0.4c-0.1,0.3-0.3,0.4-0.4,0.6c-0.1,0.2-0.4,0.3-0.6,0.4
		c-0.2,0.1-0.4,0.2-0.7,0.3c-0.3,0.1-0.5,0.1-0.8,0.1c-0.4,0-0.8-0.1-1.2-0.3c-0.4-0.2-0.6-0.4-0.9-0.7c-0.3-0.3-0.4-0.6-0.6-1
		C217.8-138.5,217.8-138.8,217.8-139.2z"/>
	<path class="st0" d="M225.7-136.1v-6.1h2.7c0.3,0,0.5,0.1,0.8,0.2c0.3,0.1,0.4,0.3,0.6,0.4c0.2,0.2,0.3,0.4,0.4,0.6
		c0.1,0.3,0.1,0.5,0.1,0.7c0,0.2,0,0.4-0.1,0.6c-0.1,0.2-0.1,0.4-0.3,0.5c-0.1,0.2-0.3,0.3-0.4,0.4s-0.3,0.2-0.5,0.3l1.5,2.3h-1.1
		l-1.3-2.1h-1.4v2.1H225.7z M226.6-139.1h1.7c0.1,0,0.3,0,0.4-0.1s0.2-0.1,0.3-0.3c0.1-0.1,0.1-0.3,0.2-0.4c0.1-0.1,0.1-0.3,0.1-0.4
		c0-0.1,0-0.3-0.1-0.4c-0.1-0.1-0.1-0.3-0.2-0.4c-0.1-0.1-0.2-0.2-0.3-0.3s-0.3-0.1-0.4-0.1h-1.6L226.6-139.1L226.6-139.1z"/>
	<path class="st0" d="M238.2-136.1v-4.4l-1.8,3.3h-0.5l-1.8-3.3v4.4h-0.9v-6.1h1l2,3.7l2-3.7h1v6.1H238.2z"/>
</g>
<path class="st0" d="M170.7-94.2c0-0.8,0.1-1.5,0.4-2.3c0.3-0.8,0.7-1.4,1.2-2s1.2-1.1,1.9-1.5c0.8-0.4,1.6-0.6,2.6-0.6
	c1.2,0,2.1,0.3,3,0.8c0.8,0.5,1.4,1.2,1.9,2l-1.6,1.1c-0.2-0.4-0.4-0.7-0.6-1s-0.5-0.5-0.8-0.6c-0.3-0.2-0.6-0.3-0.9-0.3
	s-0.7-0.1-1-0.1c-0.7,0-1.3,0.1-1.8,0.4s-0.9,0.6-1.3,1.1c-0.3,0.4-0.6,0.9-0.8,1.5s-0.1,1-0.1,1.6s0.1,1.2,0.3,1.8
	c0.2,0.6,0.5,1.1,0.9,1.5s0.8,0.8,1.3,1c0.5,0.3,1,0.4,1.6,0.4c0.3,0,0.6,0,1-0.1c0.3-0.1,0.6-0.2,0.9-0.4c0.3-0.2,0.6-0.4,0.8-0.7
	c0.3-0.3,0.5-0.6,0.6-0.9l1.7,0.9c-0.2,0.5-0.5,0.9-0.9,1.3s-0.8,0.7-1.3,0.9c-0.5,0.3-1,0.4-1.5,0.6c-0.5,0.1-1,0.2-1.5,0.2
	c-0.9,0-1.7-0.2-2.5-0.6c-0.7-0.4-1.4-0.9-1.9-1.5s-1-1.3-1.3-2.1C170.9-92.6,170.7-93.4,170.7-94.2z"/>
<path class="st0" d="M198-87.8v-9.1l-3.8,6.9h-1.1l-3.8-6.9v9.1h-2v-12.7h2.1l4.2,7.8l4.2-7.8h2.1v12.7
	C199.9-87.8,198-87.8,198-87.8z"/>
<path class="st0" d="M214-97.5c-0.1-0.1-0.3-0.3-0.5-0.4s-0.5-0.3-0.8-0.4s-0.6-0.2-1-0.3c-0.4-0.1-0.7-0.1-1.1-0.1
	c-0.8,0-1.5,0.2-1.9,0.5c-0.4,0.3-0.6,0.7-0.6,1.3c0,0.3,0.1,0.6,0.2,0.8c0.1,0.2,0.3,0.4,0.6,0.5c0.3,0.1,0.6,0.3,1,0.4
	c0.4,0.1,0.9,0.2,1.4,0.4c0.6,0.2,1.2,0.3,1.7,0.5s1,0.4,1.3,0.7c0.4,0.3,0.6,0.6,0.8,1c0.2,0.4,0.3,0.9,0.3,1.5s-0.1,1.2-0.4,1.7
	c-0.2,0.5-0.6,0.8-1,1.1c-0.4,0.3-0.9,0.5-1.5,0.6c-0.6,0.1-1.2,0.2-1.8,0.2c-1,0-1.9-0.1-2.8-0.4c-0.9-0.3-1.7-0.7-2.4-1.3l0.9-1.7
	c0.2,0.2,0.4,0.3,0.7,0.5s0.6,0.4,1,0.5c0.4,0.1,0.8,0.3,1.3,0.4s0.9,0.2,1.4,0.2c0.8,0,1.4-0.1,1.8-0.4s0.6-0.7,0.6-1.2
	c0-0.3-0.1-0.6-0.2-0.8c-0.1-0.2-0.4-0.4-0.7-0.6s-0.7-0.3-1.1-0.4c-0.4-0.1-0.9-0.3-1.5-0.4c-0.6-0.2-1.2-0.3-1.7-0.5
	s-0.9-0.4-1.2-0.7c-0.3-0.3-0.5-0.6-0.7-0.9s-0.2-0.8-0.2-1.3c0-0.6,0.1-1.2,0.4-1.7c0.2-0.5,0.6-0.9,1-1.2c0.4-0.3,0.9-0.6,1.5-0.7
	c0.6-0.2,1.2-0.2,1.8-0.2c0.9,0,1.7,0.1,2.4,0.4c0.7,0.3,1.4,0.6,1.9,1L214-97.5z"/>
<path class="st0" d="M233.3-94.2c0-0.8,0.1-1.5,0.4-2.3s0.7-1.4,1.2-2s1.2-1.1,1.9-1.5c0.8-0.4,1.6-0.6,2.6-0.6c1.2,0,2.1,0.3,3,0.8
	c0.8,0.5,1.4,1.2,1.9,2l-1.6,1.1c-0.2-0.4-0.4-0.7-0.6-1s-0.5-0.5-0.8-0.6c-0.3-0.2-0.6-0.3-0.9-0.3s-0.6-0.1-0.9-0.1
	c-0.7,0-1.3,0.1-1.8,0.4s-0.9,0.6-1.3,1.1c-0.3,0.4-0.6,0.9-0.8,1.5c-0.2,0.6-0.3,1.1-0.3,1.6c0,0.6,0.1,1.2,0.3,1.8
	c0.2,0.6,0.5,1.1,0.9,1.5c0.4,0.4,0.8,0.8,1.3,1c0.5,0.3,1,0.4,1.6,0.4c0.3,0,0.6,0,1-0.1c0.3-0.1,0.6-0.2,0.9-0.4
	c0.3-0.2,0.6-0.4,0.8-0.7c0.3-0.3,0.5-0.6,0.6-0.9l1.7,0.9c-0.2,0.5-0.5,0.9-0.9,1.3c-0.4,0.4-0.8,0.7-1.3,0.9
	c-0.5,0.3-1,0.4-1.5,0.6c-0.5,0.1-1,0.2-1.5,0.2c-0.9,0-1.7-0.2-2.5-0.6c-0.7-0.4-1.4-0.9-1.9-1.5s-1-1.3-1.3-2.1
	C233.5-92.6,233.3-93.4,233.3-94.2z"/>
<path class="st0" d="M250-87.8v-12.7h5.5c0.6,0,1.1,0.1,1.6,0.4c0.5,0.2,0.9,0.6,1.2,0.9c0.3,0.4,0.6,0.8,0.8,1.3
	c0.2,0.5,0.3,1,0.3,1.5c0,0.4-0.1,0.8-0.2,1.2c-0.1,0.4-0.3,0.8-0.5,1.1c-0.2,0.3-0.5,0.6-0.8,0.9c-0.3,0.2-0.7,0.4-1,0.5l3,4.8
	h-2.3l-2.8-4.4h-2.9v4.4L250-87.8L250-87.8z M252-94h3.5c0.3,0,0.5-0.1,0.8-0.2c0.3-0.1,0.4-0.3,0.6-0.5c0.2-0.2,0.3-0.5,0.4-0.8
	c0.1-0.3,0.1-0.6,0.1-0.9s-0.1-0.6-0.2-0.9c-0.1-0.3-0.3-0.5-0.4-0.8c-0.2-0.2-0.4-0.4-0.6-0.5c-0.2-0.1-0.5-0.2-0.8-0.2H252V-94z"
	/>
<path class="st0" d="M276-87.8v-9.1l-3.8,6.9h-1.1l-3.8-6.9v9.1h-2v-12.7h2.1l4.2,7.8l4.2-7.8h2.1v12.7
	C277.9-87.8,276-87.8,276-87.8z"/>
<rect x="206.7" y="-149.6" class="st1" width="37" height="21.7"/>
<line class="st1" x1="214.8" y1="-149.5" x2="214.8" y2="-128"/>
<g>
	<path class="st0" d="M212.8-146.3h-4.1c-0.2,0-0.3-0.1-0.3-0.3v-0.3c0-0.2,0.1-0.3,0.3-0.3h4.1c0.2,0,0.3,0.1,0.3,0.3v0.3
		C213.2-146.4,213-146.3,212.8-146.3z"/>
</g>
<g>
	<path class="st0" d="M212.8-140.9h-4.1c-0.2,0-0.3-0.1-0.3-0.3v-0.3c0-0.2,0.1-0.3,0.3-0.3h4.1c0.2,0,0.3,0.1,0.3,0.3v0.3
		C213.2-141.1,213-140.9,212.8-140.9z"/>
</g>
<g>
	<path class="st0" d="M212.9-135.6h-4.1c-0.2,0-0.3-0.1-0.3-0.3v-0.3c0-0.2,0.1-0.3,0.3-0.3h4.1c0.2,0,0.3,0.1,0.3,0.3v0.3
		C213.3-135.8,213.1-135.6,212.9-135.6z"/>
</g>
<g>
	<path class="st0" d="M212.8-130.1h-4.1c-0.2,0-0.3-0.1-0.3-0.3v-0.4c0-0.2,0.1-0.3,0.3-0.3h4.1c0.2,0,0.3,0.1,0.3,0.3v0.3
		C213.2-130.3,213-130.1,212.8-130.1z"/>
</g>
<g>
	<g>
		<g>
			<path class="st0" d="M-127.1,87.6c-1.9,0.1-2.6-1.4-0.5-4.4c4.3-6,9-11.7,14.2-17.1c0.6-0.6,1.1-1.2,1.8-1.7
				c0.7-0.6,1.6-0.5,2.2,0.3c0.7,0.8,0.7,1.5,0,2.2c-8.1,8.2-5.2,6.2-13.5,16.2C-123.1,83.6-124.7,85.8-127.1,87.6z"/>
			<path class="st0" d="M-106.7,58.4c1.2,0,2.1,0.9,2.2,2.1c0,1.1-0.9,2.1-2,2.1c-1.2,0.1-2.1-0.8-2.2-2
				C-108.7,59.4-107.9,58.4-106.7,58.4z"/>
			<path class="st0" d="M-64.7,67.2c-1.1-0.1-2.1,0.2-3,0.8c-0.5,0.3-0.8,0.3-1.3,0c-0.7-0.5-1.2-0.4-1.8,0.3
				c-1.3,1.6-2.7,3.3-4,4.9c-1.9,2.3-4,4.3-6.4,6.1c-0.5,0.3-1,0.5-1.5,0.8c-0.1-0.1-0.1-0.1-0.2-0.2c0.3-0.9,0.9-1.6,1.5-2.3
				c1.5-1.7,3-3.3,4.5-5c0.4-0.5,0.8-1.1,1.1-1.7c0.5-0.9,0.6-1.9-0.1-2.8s-1.8-1.2-2.8-0.9c-1.4,0.4-2.6,1-4,1.6
				c-0.8-1.5-1.3-1.9-3.1-1.5c-1.3,0.3-2.4,0.8-3.7,1.3c-1-1.4-1.7-1.4-3-0.1c-0.7,0.7-1.4,1.5-2,2.2c-2.1,2.6-4.2,5.1-6.7,7.3
				c-0.7,0.6-1.4,1.2-2.2,1.7c-0.2,0.1-0.4,0.1-0.7,0.1c0-0.3-0.1-0.5-0.1-0.8c0.1-0.3,0.2-0.6,0.4-0.9c0.9-1.3,1.8-2.7,2.8-3.9
				c1.1-1.4,2.4-2.7,3.7-4c0.7-0.8,0.7-1.6-0.1-2.4c-0.7-0.7-1.4-0.6-2.1,0.1c-0.4,0.4-0.7,0.8-1.1,1.1c-2.3,2.5-4.6,5-7,7.4
				c-1.2,1.1-2.6,2-3.9,3c-0.3,0.2-0.7,0.2-1.1,0.4c0.2-1.4,0.9-2.3,1.7-3.2c1.9-2.2,3.9-4.4,5.8-6.6c0.2-0.3,0.5-0.6,0.5-1
				c0.1-0.8-0.2-1.3-0.9-1.7c-0.6-0.4-1.2-0.2-1.7,0.3c-1.9,2-3.9,4-5.6,6.2c-1,1.3-1.8,2.8-2.4,4.3c-0.5,1.1-0.4,2.4,0.6,3.3
				s2.2,1,3.4,0.5c1.1-0.5,2.2-1.2,3.2-1.9c0.2-0.1,0.5-0.3,0.7-0.5c0.2,2.3,2.7,3.7,5.6,1.9c0.2-0.1,6.5-6.5,10.6-9.7
				c1.1-0.8,2.2-1.3,2.7-1.6c0.5-0.3,1.5-0.3,2.1-0.5c0,0.1,0.1,0.1,0.1,0.2c-0.3,0.3-0.5,0.7-0.8,1c-2,2.5-4.1,4.9-6.1,7.4
				c-0.9,1.1-0.8,1.9,0,2.4c0.9,0.6,1.8,0.4,2.6-0.6c0.9-1.2,1.8-2.3,2.8-3.5c2-2.4,4.3-4.6,7-6.3c0.6-0.3,1.2-0.5,1.8-0.8
				c0,0.1,0.1,0.2,0.1,0.2c-0.2,0.3-0.4,0.5-0.7,0.8c-1.3,1.3-2.5,2.6-3.8,3.9c-1.2,1.3-2.3,2.7-2.8,4.6s0.7,3.4,2.6,3.4
				c0.1,0,0.3,0,0.6,0c-0.3,0.4-0.6,0.7-0.8,1.1c-2.1,2.9-1.9,3.1-4,6.1c-0.6,0.8-0.4,1.6,0.5,2.1s1.6,0.4,2.2-0.4
				c1.2-1.7,5.3-7.4,7.4-10c1.3,1.2,2.3,1.5,3.7,1.3c0.9-0.2,1.8-0.5,2.6-0.9c2.9-1.4,5.1-3.5,7-6c1.1-1.5,2.1-3,2.3-5
				C-61.6,68.8-62.8,67.4-64.7,67.2z M-65.5,72.1c-1.9,2.9-4.2,5.4-7.1,7.2c-0.5,0.3-1.2,0.6-1.8,0.7c-0.2,0.1-0.7-0.1-0.8-0.2
				c-0.1-0.2-0.1-0.7,0.1-0.9c2.4-3,4.9-5.9,8-8.3c0.4-0.3,1-0.6,1.5-0.8c0.5-0.2,0.8,0.1,0.8,0.7C-65,71.1-65.2,71.6-65.5,72.1z"/>
			<path class="st0" d="M-19.5,73.4c-1.7,1.6-7,6.8-8.4,6.6c-1.4-0.2-0.3-1.5-0.1-2c0.3-0.5,0.6-1,0.9-1.5c1.5-2,3.2-4,4.8-6
				c0.4-0.4,0.5-1.1,0.2-1.6c-0.3-0.6-1-0.9-1.7-1.1s-1.3-0.4-2-0.6c0.2-0.5,0.3-0.9,0.4-1.3c0.2-1.2-0.9-2.2-2-1.8
				c-0.8,0.3-1.4,0.9-1.3,1.7c0.1,1.2-0.6,1.8-1.3,2.6c-0.5,0.6-1,1.2-1.6,1.8c-2.6,3-5.2,6-8.3,8.5c-0.6,0.5-1.3,0.9-2,1.4
				c-0.1-0.1-0.2-0.1-0.2-0.2c0-0.3,0-0.5,0.1-0.8c0.4-0.9,0.8-1.8,1.3-2.6c1.3-1.7,2.7-3.4,4.1-5.1c0.8-0.9,0.7-1.8-0.3-2.4
				c-0.3-0.2-0.7-0.3-1.1-0.4c-0.7-0.2-1.3-0.4-2-0.5c0.2-0.5,0.3-0.9,0.4-1.3c0.1-0.8-0.3-1.5-1-1.8s-1.5-0.1-1.9,0.6
				c-0.2,0.4-0.4,0.8-0.4,1.2c0.1,0.9-0.4,1.5-1,2.1c-1.7,1.8-3.4,3.8-5.2,5.5c-1.9,1.8-3.9,3.4-6.3,4.6c-1,0.5-2.1,0.9-3.3,0.7
				c-0.7-0.1-1.4-0.4-1.5-1.1s0.2-1.4,0.3-2c0-0.1,0.3-0.2,0.5-0.1c2.4,0.7,4.5,0,6.5-1.2c1.9-1.1,3.6-2.6,4.4-4.8
				c0.7-1.7,0-3-1.8-3.4c-0.9-0.2-1.9-0.1-2.8,0.1c-2.9,0.7-5.1,2.4-7.1,4.5c-1.4,1.4-2.5,3-3,5c-0.8,3,0.9,5.4,4,5.7
				c1.9,0.2,3.7-0.4,5.4-1.2c3.1-1.5,5.6-3.9,8-6.2c1.6-1.5,3-3.2,4.5-4.9l1.1,0.6c-0.6,0.8-1.2,1.5-1.7,2.2
				c-1.3,1.6-2.5,3.2-3.1,5.2c-0.4,1.3-0.4,2.6,0.7,3.6c0.9,0.9,2.1,1,3.3,0.6c0.6-0.2,1.3-0.5,1.7-0.9c2.4-2.3,4.7-4.5,7-6.9
				c1.7-1.7,3.3-3.6,4.9-5.4l1.2,0.7c-0.9,1.2-1.8,2.4-2.7,3.5c-1.3,1.6-2.5,3.3-2.9,5.4c-0.5,2.5,1.4,4.4,3.9,3.7
				c0.9-0.3,1.9-0.8,2.6-1.5c0,0,4.9-5.5,6.4-7.1C-18.2,73.7-19,72.9-19.5,73.4z M-51,69.9c0.1,2-4.1,4.9-6.9,4.6
				C-55.8,72.4-53.7,70.7-51,69.9z"/>
			<g>
				<path class="st0" d="M-137.9,90.5c6.5,1,12.2-2.2,14.8-8.2c0.8-2-2-2-3.4-0.4c-1.9,2.2-2.4,3.1-4.4,4.2c-2,1-3.8,1.6-6.1,1.2
					C-139.1,86.9-140,90.1-137.9,90.5L-137.9,90.5z"/>
			</g>
		</g>
	</g>
</g>
<g>
	<g>
		<path class="st0" d="M-133.3,98.7c-0.1-0.2-0.3-0.3-0.6-0.5c-0.2-0.2-0.5-0.3-0.8-0.4c-0.3-0.1-0.6-0.2-1-0.3
			c-0.4-0.1-0.7-0.1-1.1-0.1c-1,0-1.8,0.2-2.2,0.6c-0.5,0.4-0.7,0.9-0.7,1.6c0,0.4,0.1,0.7,0.2,0.9c0.1,0.2,0.3,0.4,0.6,0.6
			s0.7,0.3,1.1,0.4c0.4,0.1,0.9,0.3,1.5,0.4c0.7,0.1,1.3,0.3,1.8,0.5s1,0.4,1.4,0.7c0.4,0.3,0.7,0.6,0.9,1c0.2,0.4,0.3,0.9,0.3,1.5
			s-0.1,1.2-0.4,1.6c-0.2,0.5-0.6,0.8-1,1.1c-0.4,0.3-0.9,0.5-1.5,0.7c-0.6,0.2-1.2,0.2-1.9,0.2c-1,0-2-0.2-2.9-0.5
			s-1.7-0.8-2.5-1.4l0.8-1.4c0.2,0.2,0.5,0.4,0.8,0.6c0.3,0.2,0.7,0.4,1.1,0.6s0.8,0.3,1.3,0.4s0.9,0.2,1.5,0.2
			c0.9,0,1.7-0.2,2.2-0.5s0.8-0.8,0.8-1.5c0-0.4-0.1-0.7-0.2-0.9c-0.2-0.3-0.4-0.5-0.7-0.7s-0.7-0.3-1.2-0.5c-0.5-0.1-1-0.3-1.6-0.4
			c-0.7-0.2-1.3-0.3-1.8-0.5s-0.9-0.4-1.3-0.7c-0.3-0.3-0.6-0.6-0.8-0.9s-0.3-0.8-0.3-1.3c0-0.6,0.1-1.2,0.4-1.7
			c0.2-0.5,0.6-0.9,1-1.2c0.4-0.3,0.9-0.6,1.5-0.7c0.6-0.2,1.2-0.2,1.9-0.2c0.9,0,1.7,0.1,2.4,0.4c0.7,0.3,1.4,0.6,1.9,1.1
			L-133.3,98.7z"/>
		<path class="st0" d="M-109.2,97.5h-4.5v11.7h-1.7V97.5h-4.5V96h10.7V97.5z"/>
		<path class="st0" d="M-90.8,107.7c0.8,0,1.4-0.1,1.9-0.4s0.9-0.7,1.2-1.2c0.3-0.5,0.5-1,0.6-1.6s0.2-1.2,0.2-1.9V96h1.7v6.6
			c0,0.9-0.1,1.7-0.3,2.5c-0.2,0.8-0.5,1.5-1,2.1c-0.4,0.6-1,1.1-1.7,1.4s-1.6,0.5-2.6,0.5s-1.9-0.2-2.6-0.6s-1.3-0.9-1.7-1.5
			s-0.8-1.3-0.9-2.1c-0.2-0.8-0.3-1.6-0.3-2.5v-6.6h1.7v6.6c0,0.7,0.1,1.3,0.2,1.9s0.3,1.2,0.6,1.6c0.3,0.5,0.7,0.8,1.2,1.1
			C-92.2,107.6-91.6,107.7-90.8,107.7z"/>
		<path class="st0" d="M-71.2,109.1V96h4.6c1,0,2,0.2,2.8,0.5c0.8,0.3,1.5,0.8,2,1.4s0.9,1.3,1.2,2.1c0.3,0.8,0.4,1.6,0.4,2.5
			c0,1-0.1,1.9-0.4,2.7c-0.3,0.8-0.7,1.5-1.3,2.1c-0.6,0.6-1.2,1-2,1.3c-0.8,0.3-1.7,0.5-2.6,0.5H-71.2z M-61.9,102.5
			c0-0.7-0.1-1.4-0.3-2c-0.2-0.6-0.5-1.2-0.9-1.6s-0.9-0.8-1.5-1c-0.6-0.3-1.2-0.4-2-0.4h-2.9v10.2h2.9c0.8,0,1.4-0.1,2-0.4
			c0.6-0.3,1.1-0.6,1.5-1.1s0.7-1,0.9-1.6C-62,103.9-61.9,103.3-61.9,102.5z"/>
		<path class="st0" d="M-46.8,109.1V96h1.7v13.1H-46.8z"/>
		<path class="st0" d="M-25.6,109.2c-0.9,0-1.8-0.2-2.5-0.6c-0.8-0.4-1.4-0.9-2-1.5c-0.5-0.6-1-1.3-1.3-2.1
			c-0.3-0.8-0.4-1.6-0.4-2.5s0.2-1.7,0.5-2.5s0.7-1.5,1.3-2.1s1.2-1.1,2-1.5s1.6-0.5,2.5-0.5s1.8,0.2,2.5,0.6
			c0.8,0.4,1.4,0.9,1.9,1.5s1,1.3,1.3,2.1c0.3,0.8,0.4,1.6,0.4,2.4c0,0.9-0.2,1.7-0.5,2.5s-0.7,1.5-1.3,2.1c-0.5,0.6-1.2,1.1-2,1.5
			C-23.9,109-24.7,109.2-25.6,109.2z M-30.1,102.5c0,0.7,0.1,1.3,0.3,1.9s0.5,1.2,0.9,1.7s0.9,0.9,1.4,1.1c0.6,0.3,1.2,0.4,1.8,0.4
			c0.7,0,1.3-0.2,1.9-0.5c0.6-0.3,1-0.7,1.4-1.2s0.7-1,0.9-1.7c0.2-0.6,0.3-1.2,0.3-1.9c0-0.7-0.1-1.3-0.3-1.9s-0.5-1.2-0.9-1.6
			s-0.9-0.9-1.4-1.1c-0.5-0.3-1.2-0.4-1.8-0.4c-0.7,0-1.3,0.1-1.9,0.4s-1,0.7-1.4,1.2s-0.7,1-0.9,1.6
			C-30,101.3-30.1,101.9-30.1,102.5z"/>
	</g>
</g>
<g>
	<path class="st0" d="M-71.4,51.1c-14,0-25.5-11.4-25.5-25.5S-85.5,0.1-71.4,0.1s25.5,11.4,25.5,25.5S-57.4,51.1-71.4,51.1z
		 M-71.4,1.2c-13.5,0-24.4,11-24.4,24.4S-84.8,50-71.4,50S-47,39-47,25.6S-58,1.2-71.4,1.2z"/>
</g>
<g>
	<path class="st0" d="M225.2-113.4c-14,0-25.5-11.4-25.5-25.5s11.4-25.5,25.5-25.5c14.1,0,25.5,11.4,25.5,25.5
		S239.2-113.4,225.2-113.4z M225.2-163.3c-13.5,0-24.4,11-24.4,24.4s11,24.4,24.4,24.4c13.4,0,24.4-11,24.4-24.4
		S238.6-163.3,225.2-163.3z"/>
</g>
<g>
	<path class="st0" d="M54,51.1c-14,0-25.5-11.4-25.5-25.5S39.9,0.1,54,0.1s25.5,11.4,25.5,25.5S68,51.1,54,51.1z M54,1.2
		c-13.5,0-24.4,11-24.4,24.4S40.6,50,54,50s24.4-11,24.4-24.4S67.4,1.2,54,1.2z"/>
</g>
<g>
	<path class="st0" d="M680.3,52.1c-14,0-25.5-11.4-25.5-25.5s11.4-25.5,25.5-25.5c14.1,0,25.5,11.4,25.5,25.5S694.3,52.1,680.3,52.1
		z M680.3,2.2c-13.5,0-24.4,11-24.4,24.4s11,24.4,24.4,24.4c13.4,0,24.4-11,24.4-24.4S693.7,2.2,680.3,2.2z"/>
</g>
<g>
	<path class="st0" d="M838.3,52.1c-14,0-25.5-11.4-25.5-25.5s11.4-25.5,25.5-25.5c14.1,0,25.5,11.4,25.5,25.5S852.3,52.1,838.3,52.1
		z M838.3,2.2c-13.5,0-24.4,11-24.4,24.4s11,24.4,24.4,24.4c13.4,0,24.4-11,24.4-24.4S851.7,2.2,838.3,2.2z"/>
</g>
<g>
	<g>
		<path class="st0" d="M-88.8,43.3L-88.8,43.3c-0.4-0.1-0.6-0.3-0.5-0.6c0.6-3.7,5.2-5.8,5.3-5.8h0.1l4.4-1.2
			c0.3-0.1,0.6,0.1,0.7,0.4c0.1,0.3-0.1,0.6-0.4,0.7l-4.3,1.2c-0.4,0.2-4.2,2-4.7,5C-88.3,43.1-88.5,43.3-88.8,43.3z"/>
	</g>
	<g>
		<path class="st0" d="M-53.4,43L-53.4,43c-0.4-0.1-0.6-0.3-0.5-0.6c0-0.1,0.5-2.8-3.2-4.2l-5.4-1.7c-0.3-0.1-0.4-0.4-0.3-0.7
			s0.4-0.4,0.7-0.3l5.4,1.7c4.6,1.7,3.9,5.4,3.9,5.4C-52.9,42.8-53.2,43-53.4,43z"/>
	</g>
	<g>
		<path class="st0" d="M-60.9,44.7h-2.4c-0.3,0-0.5-0.2-0.5-0.5s0.2-0.5,0.5-0.5h2.4c0.3,0,0.5,0.2,0.5,0.5
			C-60.4,44.4-60.7,44.7-60.9,44.7z"/>
	</g>
	<g>
		<circle class="st0" cx="-81.7" cy="44.7" r="0.6"/>
	</g>
	<g>
		<circle class="st0" cx="-57.6" cy="44.1" r="0.6"/>
	</g>
	<g>
		<path class="st0" d="M-75.8,11.6c-0.1,0-0.3-0.1-0.4-0.2L-79,8.6c-0.2-0.2-0.2-0.5,0-0.8c0.2-0.2,0.5-0.2,0.8,0l2.8,2.8
			c0.2,0.2,0.2,0.5,0,0.8C-75.5,11.6-75.7,11.6-75.8,11.6z"/>
	</g>
	<g>
		<path class="st0" d="M-70.8,10.7c-0.3,0-0.5-0.2-0.5-0.5V6.8c0-0.3,0.2-0.5,0.5-0.5s0.5,0.2,0.5,0.5v3.4
			C-70.3,10.5-70.5,10.7-70.8,10.7z"/>
	</g>
	<g>
		<path class="st0" d="M-65.9,11.6c-0.1,0-0.3-0.1-0.4-0.2c-0.2-0.2-0.2-0.5,0-0.8l2.8-2.8c0.2-0.2,0.5-0.2,0.8,0
			c0.2,0.2,0.2,0.5,0,0.8l-2.8,2.8C-65.6,11.6-65.7,11.6-65.9,11.6z"/>
	</g>
	<g>
		<path class="st0" d="M-71,25.2c-1.2,0-2.3-1-2.3-2.3s1-2.3,2.3-2.3c1.2,0,2.3,1,2.3,2.3S-69.8,25.2-71,25.2z M-71,21.7
			c-0.7,0-1.2,0.5-1.2,1.2s0.5,1.2,1.2,1.2s1.2-0.5,1.2-1.2S-70.4,21.7-71,21.7z"/>
	</g>
	<g>
		<path class="st0" d="M-66.5,35.9h-3.7v-7.2c0-0.2-0.2-0.4-0.4-0.4c-0.2,0-0.4,0.2-0.4,0.4v7.2h-3.7c-0.4,0-0.7-0.3-0.7-0.7
			c0-2.3-0.9-4.5-2.5-6.2c-2.5-2.6-4.3-7.2-1.6-12.4c0.8-1.5,2-2.7,3.5-3.5c1.8-0.9,3.6-1.4,5.4-1.4c1.9,0,3.7,0.5,5.3,1.5
			c3.1,1.9,4.9,5.1,4.9,8.7c0,2.7-1,5.2-2.9,7.2l0,0c-1.6,1.6-2.5,3.8-2.5,6.2C-65.8,35.6-66.1,35.9-66.5,35.9z M-69.2,34.8h2.3
			c0.1-2.5,1.1-4.8,2.8-6.5l0,0c1.7-1.7,2.6-4,2.6-6.4c0-3.2-1.7-6.2-4.4-7.8c-2.9-1.7-6.4-1.7-9.6,0c-1.3,0.7-2.3,1.7-3,3.1
			c-2.4,4.7-0.9,8.9,1.4,11.2c1.7,1.7,2.7,4.1,2.8,6.5h2.3v-6.1c0-0.8,0.6-1.4,1.4-1.4s1.4,0.6,1.4,1.4L-69.2,34.8L-69.2,34.8z
			 M-63.7,28.6L-63.7,28.6L-63.7,28.6z"/>
	</g>
	<g>
		<path class="st0" d="M-68.2,40.9h-4.7c-1.1,0-2-0.9-2-2v-3.7h8.7v3.7C-66.2,40-67.1,40.9-68.2,40.9z M-73.9,36.2v2.7
			c0,0.5,0.4,1,1,1h4.7c0.5,0,1-0.4,1-1v-2.7H-73.9z"/>
	</g>
</g>
<g>
	<path class="st0" d="M32.1-68.7c-0.6-0.7-1.5-0.9-2.2-0.3c-0.6,0.5-1.2,1.1-1.8,1.7c-4.8,5.1-9.3,10.5-13.4,16.1
		c-1.6,1.9-2.2,2.8-4.1,3.8c-2,1-3.8,1.6-6.1,1.2c-2.1-0.3-3,2.9-0.9,3.2c4.5,0.7,8.6-0.6,11.6-3.5c1.9-1.7,3.2-3.5,3.4-3.9
		c8.3-9.9,5.4-7.9,13.5-16.2C32.7-67.2,32.7-67.9,32.1-68.7z"/>
	<path class="st0" d="M34.9-70.9c1.1,0,2-1,2-2.1c0-1.2-1-2.1-2.2-2.1s-2.1,1-2,2.2C32.8-71.7,33.8-70.8,34.9-70.9z"/>
	<path class="st0" d="M76.8-66.2c-1.1-0.1-2.1,0.2-3,0.8c-0.5,0.3-0.8,0.3-1.3,0c-0.7-0.5-1.2-0.4-1.8,0.3c-1.3,1.6-2.7,3.3-4,4.9
		c-1.9,2.3-4,4.3-6.4,6.1c-0.5,0.3-1,0.5-1.5,0.8c-0.1-0.1-0.1-0.1-0.2-0.2c0.3-0.9,0.9-1.6,1.5-2.3c1.5-1.7,3-3.3,4.5-5
		c0.4-0.5,0.8-1.1,1.1-1.7c0.5-0.9,0.6-1.9-0.1-2.8s-1.8-1.2-2.8-0.9c-1.4,0.4-2.6,1-4,1.6c-0.8-1.5-1.3-1.9-3.1-1.5
		c-1.3,0.3-2.4,0.8-3.7,1.3c-1-1.4-1.7-1.4-3-0.1c-0.7,0.7-1.4,1.5-2,2.2c-2.1,2.6-4.2,5.1-6.7,7.3c-0.7,0.6-1.4,1.2-2.2,1.7
		c-0.2,0.1-0.4,0.1-0.7,0.1c0-0.3-0.1-0.5-0.1-0.8c0.1-0.3,0.2-0.6,0.4-0.9c0.9-1.3,1.8-2.7,2.8-3.9c1.1-1.4,2.4-2.7,3.7-4
		c0.7-0.8,0.7-1.6-0.1-2.4c-0.7-0.7-1.4-0.6-2.1,0.1c-0.4,0.4-0.7,0.8-1.1,1.1c-2.3,2.5-4.6,5-7,7.4c-1.2,1.1-2.6,2-3.9,3
		c-0.3,0.2-0.7,0.2-1.1,0.4c0.2-1.4,0.9-2.3,1.7-3.2c1.9-2.2,3.9-4.4,5.8-6.6c0.2-0.3,0.5-0.6,0.5-1c0.1-0.8-0.2-1.3-0.9-1.7
		c-0.6-0.4-1.2-0.2-1.7,0.3c-1.9,2-3.9,4-5.6,6.2c-1,1.3-1.8,2.8-2.4,4.3c-0.5,1.1-0.4,2.4,0.6,3.3s2.2,1,3.4,0.5
		c1.1-0.5,2.2-1.2,3.2-1.9c0.2-0.1,0.5-0.3,0.7-0.5c0.2,2.3,2.7,3.7,5.6,1.9c0.2-0.1,6.5-6.5,10.6-9.7c1.1-0.8,2.2-1.3,2.7-1.6
		c0.5-0.3,1.5-0.3,2.1-0.5c0,0.1,0.1,0.1,0.1,0.2c-0.3,0.3-0.5,0.7-0.8,1c-2,2.5-4.1,4.9-6.1,7.4c-0.9,1.1-0.8,1.9,0,2.4
		c0.9,0.6,1.8,0.4,2.6-0.6c0.9-1.2,1.8-2.3,2.8-3.5c2-2.4,4.3-4.6,7-6.3c0.6-0.3,1.2-0.5,1.8-0.8c0,0.1,0.1,0.2,0.1,0.2
		c-0.2,0.3-0.4,0.5-0.7,0.8c-1.3,1.3-2.5,2.6-3.8,3.9c-1.2,1.3-2.3,2.7-2.8,4.6s0.7,3.4,2.6,3.4c0.1,0,0.3,0,0.6,0
		c-0.3,0.4-0.6,0.7-0.8,1.1c-2.1,2.9-1.9,3.1-4,6.1c-0.6,0.8-0.4,1.6,0.5,2.1s1.6,0.4,2.2-0.4c1.2-1.7,5.3-7.4,7.4-10
		c1.3,1.2,2.3,1.5,3.7,1.3c0.9-0.2,1.8-0.5,2.6-0.9c2.9-1.4,5.1-3.5,7-6c1.1-1.5,2.1-3,2.3-5C79.9-64.7,78.7-66.1,76.8-66.2z
		 M76-61.4c-1.9,2.9-4.2,5.4-7.1,7.2c-0.5,0.3-1.2,0.6-1.8,0.7c-0.2,0.1-0.7-0.1-0.8-0.2c-0.1-0.2-0.1-0.7,0.1-0.9
		c2.4-3,4.9-5.9,8-8.3c0.4-0.3,1-0.6,1.5-0.8c0.5-0.2,0.8,0.1,0.8,0.7C76.5-62.4,76.3-61.9,76-61.4z"/>
	<path class="st0" d="M122-60c-1.7,1.6-7,6.8-8.4,6.6c-1.4-0.2-0.3-1.5-0.1-2c0.3-0.5,0.6-1,0.9-1.5c1.5-2,3.2-4,4.8-6
		c0.4-0.4,0.5-1.1,0.2-1.6c-0.3-0.6-1-0.9-1.7-1.1s-1.3-0.4-2-0.6c0.2-0.5,0.3-0.9,0.4-1.3c0.2-1.2-0.9-2.2-2-1.8
		c-0.8,0.3-1.4,0.9-1.3,1.7c0.1,1.2-0.6,1.8-1.3,2.6c-0.5,0.6-1,1.2-1.6,1.8c-2.6,3-5.2,6-8.3,8.5c-0.6,0.5-1.3,0.9-2,1.4
		c-0.1-0.1-0.2-0.1-0.2-0.2c0-0.3,0-0.5,0.1-0.8c0.4-0.9,0.8-1.8,1.3-2.6c1.3-1.7,2.7-3.4,4.1-5.1c0.8-0.9,0.7-1.8-0.3-2.4
		c-0.3-0.2-0.7-0.3-1.1-0.4c-0.7-0.2-1.3-0.4-2-0.5c0.2-0.5,0.3-0.9,0.4-1.3c0.1-0.8-0.3-1.5-1-1.8s-1.5-0.1-1.9,0.6
		c-0.2,0.4-0.4,0.8-0.4,1.2c0.1,0.9-0.4,1.5-1,2.1c-1.7,1.8-3.4,3.8-5.2,5.5c-1.9,1.8-3.9,3.4-6.3,4.6c-1,0.5-2.1,0.9-3.3,0.7
		c-0.7-0.1-1.4-0.4-1.5-1.1s0.2-1.4,0.3-2c0-0.1,0.3-0.2,0.5-0.1c2.4,0.7,4.5,0,6.5-1.2c1.9-1.1,3.6-2.6,4.4-4.8
		c0.7-1.7,0-3-1.8-3.4c-0.9-0.2-1.9-0.1-2.8,0.1c-2.9,0.7-5.1,2.4-7.1,4.5c-1.4,1.4-2.5,3-3,5c-0.8,3,0.9,5.4,4,5.7
		c1.9,0.2,3.7-0.4,5.4-1.2c3.1-1.5,5.6-3.9,8-6.2c1.6-1.5,3-3.2,4.5-4.9l1.1,0.6c-0.6,0.8-1.2,1.5-1.7,2.2c-1.3,1.6-2.5,3.2-3.1,5.2
		c-0.4,1.3-0.4,2.6,0.7,3.6c0.9,0.9,2.1,1,3.3,0.6c0.6-0.2,1.3-0.5,1.7-0.9c2.4-2.3,4.7-4.5,7-6.9c1.7-1.7,3.3-3.6,4.9-5.4l1.2,0.7
		c-0.9,1.2-1.8,2.4-2.7,3.5c-1.3,1.6-2.5,3.3-2.9,5.4c-0.5,2.5,1.4,4.4,3.9,3.7c0.9-0.3,1.9-0.8,2.6-1.5c0,0,4.9-5.5,6.4-7.1
		C123.2-59.8,122.5-60.5,122-60z M90.5-63.6c0.1,2-4.1,4.9-6.9,4.6C85.7-61,87.7-62.8,90.5-63.6z"/>
</g>
<g>
	<path class="st0" d="M23.1-34.7c-0.1-0.2-0.3-0.3-0.6-0.5c-0.2-0.2-0.5-0.3-0.8-0.4s-0.6-0.2-1-0.3C20.3-36,20-36,19.6-36
		c-1,0-1.8,0.2-2.2,0.6c-0.5,0.4-0.7,0.9-0.7,1.6c0,0.4,0.1,0.7,0.2,0.9c0.1,0.2,0.3,0.4,0.6,0.6c0.3,0.2,0.7,0.3,1.1,0.4
		s0.9,0.3,1.5,0.4c0.7,0.1,1.3,0.3,1.8,0.5s1,0.4,1.4,0.7c0.4,0.3,0.7,0.6,0.9,1s0.3,0.9,0.3,1.5s-0.1,1.2-0.4,1.6
		c-0.2,0.5-0.6,0.8-1,1.1c-0.4,0.3-0.9,0.5-1.5,0.7s-1.2,0.2-1.9,0.2c-1,0-2-0.2-2.9-0.5s-1.7-0.8-2.5-1.4l0.8-1.4
		c0.2,0.2,0.5,0.4,0.8,0.6s0.7,0.4,1.1,0.6s0.8,0.3,1.3,0.4s0.9,0.2,1.5,0.2c0.9,0,1.7-0.2,2.2-0.5s0.8-0.8,0.8-1.5
		c0-0.4-0.1-0.7-0.2-0.9c-0.2-0.3-0.4-0.5-0.7-0.7s-0.7-0.3-1.2-0.5c-0.5-0.1-1-0.3-1.6-0.4c-0.7-0.2-1.3-0.3-1.8-0.5
		s-0.9-0.4-1.3-0.7c-0.3-0.3-0.6-0.6-0.8-0.9s-0.3-0.8-0.3-1.3c0-0.6,0.1-1.2,0.4-1.7c0.2-0.5,0.6-0.9,1-1.2
		c0.4-0.3,0.9-0.6,1.5-0.7c0.6-0.2,1.2-0.2,1.9-0.2c0.9,0,1.7,0.1,2.4,0.4s1.4,0.6,1.9,1.1L23.1-34.7z"/>
	<path class="st0" d="M47.2-36h-4.5v11.7H41V-36h-4.5v-1.5h10.7V-36z"/>
	<path class="st0" d="M62.9-37.5h1.4l5.4,13.1h-1.8l-1.6-3.8h-5.4l-1.5,3.8h-1.8L62.9-37.5z M66-29.5l-2.4-6.1l-2.4,6.1H66z"/>
	<path class="st0" d="M82.6-24.3v-13.2h5.6c0.6,0,1.1,0.1,1.6,0.4c0.5,0.2,0.9,0.6,1.3,1s0.6,0.9,0.8,1.4c0.2,0.5,0.3,1,0.3,1.5
		s-0.1,0.9-0.2,1.3s-0.3,0.8-0.6,1.2c-0.2,0.3-0.5,0.6-0.9,0.9c-0.3,0.2-0.7,0.4-1.1,0.5l3.2,5h-1.9l-3-4.7h-3.5v4.7L82.6-24.3
		L82.6-24.3z M84.2-30.5h4c0.3,0,0.7-0.1,0.9-0.2c0.3-0.1,0.5-0.3,0.7-0.6s0.4-0.5,0.5-0.9c0.1-0.3,0.2-0.7,0.2-1
		c0-0.4-0.1-0.7-0.2-1s-0.3-0.6-0.5-0.9s-0.5-0.5-0.8-0.6s-0.6-0.2-0.9-0.2h-3.9C84.2-35.9,84.2-30.5,84.2-30.5z"/>
	<path class="st0" d="M115.2-36h-4.5v11.7H109V-36h-4.5v-1.5h10.7V-36z"/>
</g>
<g>
	<g>
		<path class="st0" d="M74.5-94.9L74.5-94.9l-2-0.1l0.1-0.5c0.6-2.3,1-4.6,1-5.6c0.1-2.1-1.3-3.5-3.4-3.6c-2-0.1-3.5,1.3-3.6,3.4
			c0,1,0.2,3.4,0.7,5.7l0.1,0.5l-1.9-0.1c-1.8-0.1-3.4-1.4-3.8-3.2c-0.5-2.6-1.3-7.1-1.8-13.8c-0.3-3.6,0.6-6.9,2.5-10
			c1.7-2.7,4-4.7,5.6-5.9c1.7-1.3,4.1-1.2,5.8,0.2c1.1,0.9,2.1,2,3,3.1l0.6,0.7h-0.1c0.5,0.7,1.3,1.9,1.6,2.4
			c1.7,3.2,2.4,6.6,1.9,10.1c-0.9,6.7-1.9,11.2-2.6,13.7C77.8-96.1,76.3-94.9,74.5-94.9z M73.6-95.8h0.8c1.4,0.1,2.7-0.9,3.1-2.3
			c0.7-2.5,1.7-7,2.6-13.6c0.4-3.3-0.2-6.6-1.8-9.6c-0.3-0.5-1.1-1.7-1.6-2.4l-0.1-0.1l-11-0.1c-0.4,0-1.1,0-1.1-0.7
			c0-0.2,0.1-0.4,0.2-0.5c0.2-0.1,0.6-0.1,0.9-0.1l10,0.2c-0.7-0.8-1.5-1.5-2.3-2.2c-1.3-1.1-3.3-1.2-4.7-0.1
			c-1.5,1.1-3.7,3.1-5.3,5.7c-1.8,2.9-2.6,6.1-2.3,9.5c0.5,6.7,1.3,11.2,1.8,13.7c0.3,1.4,1.5,2.4,2.9,2.5h0.8
			c-0.4-2.2-0.6-4.4-0.6-5.3c0.1-2.6,1.9-4.3,4.4-4.2s4.3,1.9,4.2,4.5C74.4-100.1,74.1-97.9,73.6-95.8z"/>
	</g>
</g>
<g>
	<g>
		<path class="st0" d="M69.7-89l-0.2-0.1c-0.6-0.3-1.6-2.1-2.4-6.3c-0.2-0.9-0.4-1.6-0.5-2.3c-0.4-1.6-0.6-2.5-0.5-3.5
			c0-1.4,0.5-2.5,1.5-3.2c0.7-0.6,1.7-0.9,2.8-0.9c1.1,0,2,0.4,2.7,1c0.9,0.8,1.3,1.9,1.3,3.3c0,0.9-0.3,1.7-0.7,3
			c-0.2,0.7-0.5,1.6-0.8,2.8C71.8-91,70.7-89.3,70-89H69.7z M70.1-104.4c-0.8,0-1.6,0.2-2.1,0.7c-0.7,0.5-1.1,1.4-1.1,2.5
			c0,0.9,0.2,1.7,0.5,3.3c0.1,0.6,0.3,1.4,0.5,2.3c0.8,3.7,1.5,5.1,1.9,5.6c0.4-0.4,1.2-1.8,2.2-5.4c0.3-1.2,0.6-2.1,0.8-2.8
			c0.4-1.2,0.6-1.9,0.6-2.7c0-1.1-0.3-2-1-2.6c-0.6-0.5-1.3-0.8-2.2-0.8C70.2-104.4,70.2-104.4,70.1-104.4z"/>
	</g>
</g>
<g>
	<g>
		<path class="st0" d="M62-89.9L61.8-90c-0.6-0.3-1.6-2.1-2.4-6.2c-0.7-3.2-1-6.6-1-8c0-1.6,0.8-2.9,2.1-3.5L61-108l0.1,0.6
			c0.4,2.9,0.8,5.5,1.3,7.9c0.3,1.5,1.1,2.8,2.3,3.7l0.2,0.2l-0.1,0.3c-0.9,3.1-1.9,5.1-2.6,5.4L62-89.9z M60.3-106.6
			c-0.7,0.5-1,1.4-1.1,2.4c0,1.3,0.3,4.7,1,7.8c0.8,3.6,1.5,4.9,1.8,5.4c0.3-0.4,1-1.5,1.8-4.4c-1.2-1-2-2.4-2.3-4
			C61.1-101.5,60.7-103.9,60.3-106.6z"/>
	</g>
</g>
<g>
	<g>
		<path class="st0" d="M78.4-89.9L78.2-90c-0.8-0.3-1.7-2.3-2.6-5.4l-0.1-0.3l0.2-0.2c1.2-0.9,2-2.2,2.3-3.7
			c0.5-2.3,0.9-4.9,1.3-7.9l0.1-0.6l0.5,0.3c1.3,0.6,2,1.9,2.1,3.5c0,1.4-0.3,4.8-1,8c-0.9,4.1-1.8,5.9-2.4,6.2L78.4-89.9z
			 M76.5-95.3c0.8,2.8,1.5,4,1.8,4.4c0.3-0.5,1-1.8,1.8-5.4c0.7-3.1,1-6.5,1-7.8c0-1-0.4-1.9-1.1-2.4c-0.4,2.7-0.8,5.1-1.2,7.2
			C78.5-97.8,77.7-96.4,76.5-95.3z"/>
	</g>
</g>
<g>
	<g>
		<path class="st0" d="M65-82.9c-0.2,0-0.4-0.2-0.4-0.4v-12.1c0-0.2,0.2-0.4,0.4-0.4s0.4,0.2,0.4,0.4v12.1
			C65.5-83,65.3-82.9,65-82.9z"/>
	</g>
</g>
<g>
	<g>
		<path class="st0" d="M75.2-82.9c-0.2,0-0.4-0.2-0.4-0.4v-12c0-0.2,0.2-0.4,0.4-0.4s0.4,0.2,0.4,0.4v11.9
			C75.7-83.1,75.5-82.9,75.2-82.9z"/>
	</g>
</g>
<g>
	<g>
		<path class="st0" d="M72.7-89.2c-0.2,0-0.4-0.2-0.4-0.4v-3c0-0.2,0.2-0.4,0.4-0.4c0.2,0,0.4,0.2,0.4,0.4v3
			C73.2-89.4,73-89.2,72.7-89.2z"/>
	</g>
</g>
<g>
	<g>
		<path class="st0" d="M67.2-86c-0.2,0-0.4-0.2-0.4-0.4v-4.4c0-0.2,0.2-0.4,0.4-0.4c0.2,0,0.4,0.2,0.4,0.4v4.4
			C67.7-86.2,67.5-86,67.2-86z"/>
	</g>
</g>
<g>
	<g>
		<path class="st0" d="M70.3-108.2c-3.4,0-6.2-2.8-6.2-6.2c0-3.4,2.8-6.2,6.2-6.2c3.4,0,6.2,2.8,6.2,6.2
			C76.5-111,73.7-108.2,70.3-108.2z M70.3-119.8c-2.9,0-5.3,2.4-5.3,5.3c0,2.9,2.4,5.3,5.3,5.3s5.3-2.4,5.3-5.3
			C75.6-117.4,73.3-119.8,70.3-119.8z"/>
	</g>
</g>
<g>
	<g>
		<g>
			<path class="st0" d="M68.4-114.1c-0.2,0.1-0.3-0.2-0.2-0.3c1.8-1.1,3.8-2.2,4.1-1.8c0.5,0.5-1.1,2.7-4.1,5.6
				c-0.2,0.2-0.4-0.1-0.3-0.2c1.4-1.5,2.8-3.3,2.8-3.8C70.8-115.1,69.6-114.7,68.4-114.1z"/>
		</g>
	</g>
	<g>
		<g>
			<path class="st0" d="M71.5-116.5c0.4-0.1,0.7-0.5,0.6-0.9c-0.1-0.4-0.5-0.7-0.9-0.6c-0.4,0.1-0.7,0.5-0.6,0.9
				C70.7-116.7,71.1-116.5,71.5-116.5z"/>
		</g>
	</g>
</g>
<g>
	<path class="st0" d="M69.6-82.2c-14.3,0-26-11.7-26-26s11.7-26,26-26s26,11.7,26,26S83.9-82.2,69.6-82.2z M69.6-133.1
		c-13.7,0-24.9,11.2-24.9,24.9s11.2,24.9,24.9,24.9s24.9-11.2,24.9-24.9S83.3-133.1,69.6-133.1z"/>
</g>
<g>
	<path class="st0" d="M20.2,77V64.3h5.5c0.6,0,1.1,0.1,1.6,0.4c0.5,0.2,0.9,0.6,1.2,0.9c0.3,0.4,0.6,0.8,0.8,1.3s0.3,1,0.3,1.5
		c0,0.4-0.1,0.8-0.2,1.2c-0.1,0.4-0.3,0.8-0.5,1.1c-0.2,0.3-0.5,0.6-0.8,0.9c-0.3,0.2-0.7,0.4-1,0.5l3,4.8h-2.3L25,72.5h-2.9v4.4
		L20.2,77L20.2,77z M22.2,70.8h3.5c0.3,0,0.5-0.1,0.8-0.2s0.4-0.3,0.6-0.5c0.2-0.2,0.3-0.5,0.4-0.8c0.1-0.3,0.1-0.6,0.1-0.9
		s-0.1-0.6-0.2-0.9c-0.1-0.3-0.3-0.5-0.4-0.8c-0.2-0.2-0.4-0.4-0.6-0.5c-0.2-0.1-0.5-0.2-0.8-0.2h-3.4C22.2,66,22.2,70.8,22.2,70.8z
		"/>
	<path class="st0" d="M44.4,75.2V77h-8.7V64.3h8.6v1.8h-6.5v3.5h5.7v1.7h-5.7v3.9H44.4z"/>
	<path class="st0" d="M50,77V64.3h4.5c1,0,1.9,0.2,2.7,0.5s1.4,0.8,1.9,1.4s0.9,1.2,1.2,2s0.4,1.6,0.4,2.5c0,1-0.1,1.8-0.4,2.6
		s-0.7,1.4-1.2,2s-1.2,1-2,1.3s-1.6,0.5-2.6,0.5L50,77L50,77z M58.7,70.6c0-0.7-0.1-1.3-0.3-1.8c-0.2-0.6-0.5-1-0.8-1.4
		c-0.4-0.4-0.8-0.7-1.3-0.9s-1.1-0.3-1.8-0.3H52v9.2h2.5c0.7,0,1.3-0.1,1.8-0.3c0.5-0.2,1-0.6,1.3-1c0.4-0.4,0.6-0.9,0.8-1.5
		C58.6,71.9,58.7,71.2,58.7,70.6z"/>
	<path class="st0" d="M75.1,75.2V77h-8.7V64.3H75v1.8h-6.5v3.5h5.7v1.7h-5.7v3.9H75.1z"/>
	<path class="st0" d="M88,67.2c-0.1-0.1-0.3-0.3-0.5-0.4s-0.5-0.3-0.8-0.4s-0.6-0.2-1-0.3C85.3,66,85,66,84.6,66
		c-0.8,0-1.5,0.2-1.9,0.5s-0.6,0.7-0.6,1.3c0,0.3,0.1,0.6,0.2,0.8c0.1,0.2,0.3,0.4,0.6,0.5c0.3,0.1,0.6,0.3,1,0.4s0.9,0.2,1.4,0.4
		c0.6,0.2,1.2,0.3,1.7,0.5s1,0.4,1.3,0.7c0.4,0.3,0.6,0.6,0.8,1c0.2,0.4,0.3,0.9,0.3,1.5s-0.1,1.2-0.4,1.7c-0.2,0.5-0.6,0.8-1,1.1
		c-0.4,0.3-0.9,0.5-1.5,0.6s-1.2,0.2-1.8,0.2c-1,0-1.9-0.1-2.8-0.4s-1.7-0.7-2.4-1.3l0.9-1.7c0.2,0.2,0.4,0.3,0.7,0.5
		c0.3,0.2,0.6,0.4,1,0.5s0.8,0.3,1.3,0.4s0.9,0.2,1.4,0.2c0.8,0,1.4-0.1,1.8-0.4s0.6-0.7,0.6-1.2c0-0.3-0.1-0.6-0.2-0.8
		s-0.4-0.4-0.7-0.6c-0.3-0.2-0.7-0.3-1.1-0.4s-0.9-0.3-1.5-0.4c-0.6-0.2-1.2-0.3-1.7-0.5s-0.9-0.4-1.2-0.7c-0.3-0.3-0.5-0.6-0.7-0.9
		s-0.2-0.8-0.2-1.3c0-0.6,0.1-1.2,0.4-1.7c0.2-0.5,0.6-0.9,1-1.2c0.4-0.3,0.9-0.6,1.5-0.7c0.6-0.2,1.2-0.2,1.8-0.2
		c0.9,0,1.7,0.1,2.4,0.4c0.7,0.3,1.4,0.6,1.9,1L88,67.2z"/>
</g>
<g>
	<path class="st0" d="M8.5,88.7c-0.1-0.1-0.3-0.3-0.5-0.4S7.5,88,7.2,87.9s-0.6-0.2-1-0.3c-0.4-0.1-0.7-0.1-1.1-0.1
		c-0.8,0-1.5,0.2-1.9,0.5s-0.6,0.7-0.6,1.3c0,0.3,0.1,0.6,0.2,0.8c0.1,0.2,0.3,0.4,0.6,0.5s0.6,0.3,1,0.4s0.9,0.2,1.4,0.4
		c0.6,0.2,1.2,0.3,1.7,0.5s1,0.4,1.3,0.7c0.4,0.3,0.6,0.6,0.8,1s0.3,0.9,0.3,1.5s-0.1,1.2-0.4,1.7c-0.2,0.5-0.6,0.8-1,1.1
		c-0.4,0.3-0.9,0.5-1.5,0.6s-1.2,0.2-1.8,0.2c-1,0-1.9-0.1-2.8-0.4C1.5,98,0.7,97.6,0,97l0.9-1.7c0.2,0.2,0.4,0.3,0.7,0.5
		s0.6,0.4,1,0.5c0.4,0.2,0.8,0.3,1.3,0.4s0.9,0.2,1.4,0.2c0.8,0,1.4-0.1,1.8-0.4s0.6-0.7,0.6-1.2c0-0.3-0.1-0.6-0.2-0.8
		s-0.4-0.4-0.7-0.6s-0.7-0.3-1.1-0.4c-0.4-0.1-0.9-0.3-1.5-0.4c-0.6-0.2-1.2-0.3-1.7-0.5s-0.9-0.4-1.2-0.7C1,91.6,0.8,91.3,0.6,91
		c-0.2-0.4-0.2-0.8-0.2-1.3c0-0.6,0.1-1.2,0.4-1.7c0.2-0.5,0.6-0.9,1-1.2c0.4-0.3,0.9-0.6,1.5-0.7s1.2-0.3,1.8-0.3
		c0.9,0,1.7,0.1,2.4,0.4s1.4,0.6,1.9,1L8.5,88.7z"/>
	<path class="st0" d="M20.8,98.5c-0.9,0-1.7-0.2-2.5-0.5c-0.7-0.4-1.4-0.8-1.9-1.4c-0.5-0.6-1-1.3-1.2-2.1c-0.3-0.8-0.4-1.6-0.4-2.4
		s0.2-1.7,0.5-2.4c0.3-0.8,0.7-1.5,1.3-2.1s1.2-1.1,1.9-1.4c0.7-0.4,1.6-0.5,2.4-0.5c0.9,0,1.7,0.2,2.5,0.6c0.7,0.4,1.4,0.9,1.9,1.5
		s0.9,1.3,1.2,2.1c0.3,0.8,0.4,1.6,0.4,2.4s-0.2,1.7-0.5,2.4c-0.3,0.8-0.7,1.5-1.3,2s-1.2,1.1-1.9,1.4
		C22.4,98.4,21.6,98.5,20.8,98.5z M16.7,92.1c0,0.6,0.1,1.2,0.3,1.7c0.2,0.6,0.5,1.1,0.8,1.5c0.4,0.4,0.8,0.8,1.3,1
		c0.5,0.3,1.1,0.4,1.7,0.4c0.6,0,1.2-0.1,1.7-0.4s0.9-0.6,1.3-1.1c0.3-0.4,0.6-0.9,0.8-1.5s0.3-1.1,0.3-1.7s-0.1-1.2-0.3-1.7
		c-0.2-0.6-0.5-1-0.8-1.5c-0.4-0.4-0.8-0.8-1.3-1s-1-0.4-1.7-0.4c-0.6,0-1.2,0.1-1.7,0.4s-0.9,0.6-1.3,1s-0.6,0.9-0.8,1.5
		C16.8,90.9,16.7,91.5,16.7,92.1z"/>
	<path class="st0" d="M31.7,92c0-0.8,0.1-1.5,0.4-2.3c0.3-0.8,0.7-1.4,1.2-2s1.2-1.1,1.9-1.5s1.6-0.6,2.6-0.6c1.2,0,2.1,0.3,3,0.8
		s1.4,1.2,1.9,2l-1.6,1.1c-0.2-0.4-0.4-0.7-0.6-1S40,88,39.7,87.9c-0.3-0.2-0.6-0.3-0.9-0.3c-0.3-0.1-0.6-0.1-0.9-0.1
		c-0.7,0-1.3,0.1-1.8,0.4s-0.9,0.6-1.3,1.1c-0.3,0.4-0.6,0.9-0.8,1.5s-0.3,1.1-0.3,1.6c0,0.6,0.1,1.2,0.3,1.8s0.5,1.1,0.9,1.5
		s0.8,0.8,1.3,1s1,0.4,1.6,0.4c0.3,0,0.6,0,1-0.1c0.3-0.1,0.6-0.2,0.9-0.4c0.3-0.2,0.6-0.4,0.8-0.7c0.3-0.3,0.5-0.6,0.6-0.9l1.7,0.9
		c-0.2,0.5-0.5,0.9-0.9,1.3s-0.8,0.7-1.3,0.9c-0.5,0.2-1,0.4-1.5,0.6c-0.5,0.1-1,0.2-1.5,0.2c-0.9,0-1.7-0.2-2.5-0.6
		c-0.7-0.4-1.4-0.9-1.9-1.5s-1-1.3-1.3-2.1C31.9,93.6,31.7,92.8,31.7,92z"/>
	<path class="st0" d="M48.3,98.4V85.7h2v12.7H48.3z"/>
	<path class="st0" d="M60.5,85.7h1.8l5,12.7h-2.1l-1.3-3.5H59l-1.3,3.5h-2.1L60.5,85.7z M63.5,93.5l-2-5.5l-2.1,5.5H63.5z"/>
	<path class="st0" d="M72.5,98.4V85.7h2v10.9h6.8v1.8C81.3,98.4,72.5,98.4,72.5,98.4z"/>
	<path class="st0" d="M95.2,96.7v1.8h-8.7V85.8h8.6v1.8h-6.5v3.6h5.7v1.7h-5.7v3.9h6.6V96.7z"/>
	<path class="st0" d="M108.1,88.7c-0.1-0.1-0.3-0.3-0.5-0.4s-0.5-0.3-0.8-0.4s-0.6-0.2-1-0.3c-0.4-0.1-0.7-0.1-1.1-0.1
		c-0.8,0-1.5,0.2-1.9,0.5s-0.6,0.7-0.6,1.3c0,0.3,0.1,0.6,0.2,0.8c0.1,0.2,0.3,0.4,0.6,0.5s0.6,0.3,1,0.4s0.9,0.2,1.4,0.4
		c0.6,0.2,1.2,0.3,1.7,0.5s1,0.4,1.3,0.7c0.4,0.3,0.6,0.6,0.8,1s0.3,0.9,0.3,1.5s-0.1,1.2-0.4,1.7c-0.2,0.5-0.6,0.8-1,1.1
		c-0.4,0.3-0.9,0.5-1.5,0.6s-1.2,0.2-1.8,0.2c-1,0-1.9-0.1-2.8-0.4c-0.9-0.3-1.7-0.7-2.4-1.3l0.9-1.7c0.2,0.2,0.4,0.3,0.7,0.5
		s0.6,0.4,1,0.5c0.4,0.2,0.8,0.3,1.3,0.4s0.9,0.2,1.4,0.2c0.8,0,1.4-0.1,1.8-0.4s0.6-0.7,0.6-1.2c0-0.3-0.1-0.6-0.2-0.8
		s-0.4-0.4-0.7-0.6s-0.7-0.3-1.1-0.4c-0.4-0.1-0.9-0.3-1.5-0.4c-0.6-0.2-1.2-0.3-1.7-0.5s-0.9-0.4-1.2-0.7c-0.3-0.3-0.5-0.6-0.7-0.9
		c-0.2-0.4-0.2-0.8-0.2-1.3c0-0.6,0.1-1.2,0.4-1.7c0.2-0.5,0.6-0.9,1-1.2c0.4-0.3,0.9-0.6,1.5-0.7s1.2-0.3,1.8-0.3
		c0.9,0,1.7,0.1,2.4,0.4s1.4,0.6,1.9,1L108.1,88.7z"/>
</g>
<path class="st1" d="M60.9,17.6c-0.1,0-0.9-0.1-1-0.1c-2.3,0-2.6-0.5-2.6-4c-0.1-1.1-0.3-3.1,0.6-4H44.4v33.2h17.3V17.6
	C61.5,17.6,61.3,17.6,60.9,17.6z"/>
<circle class="st1" cx="53.3" cy="39.9" r="1.6"/>
<line class="st1" x1="44.2" y1="36.9" x2="61.7" y2="36.9"/>
<circle class="st1" cx="61.5" cy="13" r="2.1"/>
<circle class="st1" cx="64" cy="10.4" r="0.3"/>
<g>
	<path class="st1" d="M63.6,17.5h-4.1c-1.3,0-2.2-0.8-2.2-2.1L57.1,11c0-1.3,1.1-2.3,2.3-2.3h4.1c1.3,0,2.3,1.1,2.3,2.3v4.1
		C65.9,16.4,64.9,17.5,63.6,17.5z"/>
</g>
<g id="Icons_1_">
	<path class="st0" d="M55.6,19.6l-0.1,1.6c0,0-0.2,0-0.9,0c-0.7,0-0.7,0.6-0.7,0.6v1.4h1.7l-0.3,1.8h-1.4l-0.1,3.7h-1.7L52,25h-1.5
		l0.1-1.8h1.5v-1.3c0-0.5,0.1-1.1,0.4-1.5c0.3-0.4,0.6-0.6,1.1-0.7C53.6,19.6,54.5,19.3,55.6,19.6z"/>
</g>
<g>
	<path class="st0" d="M643.6,77.4V65.1h4.4c1,0,1.9,0.2,2.6,0.5c0.7,0.3,1.4,0.8,1.9,1.3c0.5,0.5,0.9,1.2,1.2,2
		c0.3,0.8,0.4,1.6,0.4,2.4c0,0.9-0.2,1.8-0.4,2.5c-0.3,0.8-0.7,1.4-1.2,2c-0.5,0.5-1.2,0.9-1.9,1.2s-1.6,0.5-2.5,0.5L643.6,77.4
		L643.6,77.4z M651.9,71.2c0-0.6-0.1-1.2-0.2-1.8c-0.2-0.5-0.5-1-0.8-1.4c-0.3-0.4-0.8-0.7-1.2-0.9c-0.5-0.2-1.1-0.3-1.7-0.3h-2.4
		v8.9h2.4c0.6,0,1.2-0.1,1.7-0.3c0.5-0.2,0.9-0.5,1.2-0.9c0.3-0.4,0.6-0.9,0.8-1.4C651.8,72.5,651.9,71.8,651.9,71.2z"/>
	<path class="st0" d="M659.4,77.4V65.1h2v12.3H659.4z"/>
	<path class="st0" d="M674.9,68c-0.1-0.2-0.3-0.2-0.5-0.4c-0.2-0.2-0.5-0.3-0.8-0.4c-0.3-0.2-0.6-0.2-0.9-0.3
		c-0.4-0.1-0.7-0.2-1.1-0.2c-0.9,0-1.4,0.2-1.8,0.5c-0.4,0.3-0.5,0.7-0.5,1.2c0,0.3,0.1,0.5,0.2,0.7c0.2,0.2,0.3,0.4,0.5,0.5
		c0.2,0.1,0.5,0.2,0.9,0.4c0.4,0.2,0.9,0.2,1.3,0.4c0.6,0.2,1.2,0.3,1.7,0.5c0.5,0.2,0.9,0.4,1.2,0.7c0.3,0.2,0.6,0.6,0.8,1
		c0.2,0.4,0.3,0.9,0.3,1.4c0,0.6-0.2,1.2-0.4,1.6c-0.2,0.5-0.5,0.8-0.9,1.1c-0.4,0.3-0.9,0.5-1.4,0.6c-0.5,0.2-1.1,0.2-1.7,0.2
		c-0.9,0-1.9-0.2-2.7-0.4c-0.9-0.3-1.6-0.7-2.3-1.2l0.9-1.6c0.2,0.2,0.4,0.3,0.6,0.5c0.3,0.2,0.6,0.4,1,0.5c0.4,0.2,0.8,0.3,1.2,0.4
		c0.5,0.1,0.9,0.2,1.4,0.2c0.8,0,1.3-0.2,1.8-0.4c0.4-0.2,0.6-0.6,0.6-1.2c0-0.3-0.1-0.5-0.2-0.8s-0.4-0.4-0.7-0.5
		c-0.3-0.2-0.6-0.3-1.1-0.4c-0.4-0.2-0.9-0.2-1.4-0.4c-0.6-0.2-1.2-0.3-1.6-0.5c-0.5-0.2-0.9-0.4-1.2-0.6c-0.3-0.2-0.5-0.5-0.7-0.9
		s-0.2-0.8-0.2-1.2c0-0.6,0.1-1.2,0.3-1.6s0.5-0.9,0.9-1.2c0.4-0.3,0.9-0.5,1.4-0.7c0.5-0.2,1.2-0.2,1.8-0.2c0.9,0,1.6,0.2,2.3,0.4
		c0.7,0.2,1.3,0.6,1.9,1L674.9,68z"/>
	<path class="st0" d="M690.1,75.7v1.7h-8.5V65.1h8.3v1.7h-6.3v3.5h5.5v1.6h-5.5v3.7H690.1z"/>
	<path class="st0" d="M697.5,68.7v8.7h-2V65.1h1.6l7,8.9v-8.8h2v12.2h-1.6L697.5,68.7z M701.8,63.5c-0.2,0-0.5,0-0.7-0.1
		s-0.4-0.2-0.5-0.2c-0.2-0.1-0.3-0.2-0.5-0.2c-0.2-0.1-0.3-0.1-0.5-0.1c-0.2,0-0.3,0.1-0.5,0.2c-0.1,0.1-0.2,0.2-0.2,0.2
		c-0.1,0.1-0.1,0.2-0.1,0.3s0,0.2,0,0.2h-1.1c0-0.1,0-0.2,0.1-0.5c0.1-0.2,0.2-0.5,0.3-0.7s0.3-0.4,0.5-0.6c0.2-0.2,0.5-0.2,0.9-0.2
		c0.2,0,0.5,0.1,0.7,0.2s0.4,0.2,0.5,0.2c0.2,0.1,0.3,0.2,0.5,0.2c0.2,0.1,0.4,0.2,0.5,0.2c0.2,0,0.4-0.1,0.5-0.2s0.2-0.2,0.3-0.3
		s0.1-0.2,0.2-0.3c0-0.1,0-0.2,0-0.2h1.1c0,0.1,0,0.2-0.1,0.5c-0.1,0.2-0.2,0.5-0.3,0.7s-0.4,0.5-0.6,0.6
		C702.6,63.4,702.2,63.5,701.8,63.5z"/>
	<path class="st0" d="M717.4,77.5c-0.9,0-1.6-0.2-2.4-0.5c-0.8-0.4-1.3-0.9-1.9-1.4c-0.5-0.5-0.9-1.2-1.2-2
		c-0.3-0.8-0.4-1.5-0.4-2.3c0-0.8,0.2-1.6,0.5-2.3c0.3-0.7,0.7-1.4,1.2-2c0.5-0.5,1.2-1,1.9-1.4c0.7-0.3,1.5-0.5,2.3-0.5
		c0.9,0,1.6,0.2,2.4,0.5c0.7,0.4,1.3,0.9,1.9,1.4c0.5,0.6,0.9,1.2,1.2,2c0.2,0.8,0.4,1.5,0.4,2.3c0,0.9-0.2,1.6-0.5,2.3
		c-0.3,0.8-0.7,1.4-1.2,2c-0.5,0.5-1.2,1-1.9,1.4C719,77.3,718.2,77.5,717.4,77.5z M713.5,71.2c0,0.5,0.1,1.2,0.3,1.7
		c0.2,0.5,0.5,1,0.8,1.4s0.8,0.8,1.2,1c0.5,0.2,1,0.4,1.6,0.4c0.6,0,1.2-0.2,1.6-0.4c0.5-0.2,0.9-0.6,1.2-1c0.3-0.4,0.6-0.9,0.8-1.4
		c0.2-0.5,0.2-1.1,0.2-1.6c0-0.6-0.1-1.2-0.3-1.7c-0.2-0.5-0.5-1-0.8-1.4s-0.8-0.7-1.2-1c-0.5-0.2-1-0.4-1.6-0.4
		c-0.6,0-1.2,0.2-1.6,0.4s-0.9,0.6-1.2,1c-0.3,0.4-0.6,0.9-0.8,1.4C713.5,70.1,713.5,70.7,713.5,71.2z"/>
	<path class="st0" d="M645.2,96.6c-1,1.1-2.3,1.6-3.6,1.6c-0.9,0-1.6-0.2-2.3-0.5c-0.7-0.3-1.3-0.8-1.9-1.4c-0.5-0.5-0.9-1.2-1.2-2
		c-0.3-0.8-0.5-1.6-0.5-2.4s0.2-1.6,0.5-2.3c0.3-0.7,0.7-1.4,1.2-2c0.5-0.5,1.2-1,1.9-1.3c0.7-0.3,1.5-0.5,2.3-0.5
		c1.2,0,2.2,0.2,3,0.7c0.8,0.5,1.4,1.2,1.8,2l-1.5,1.1c-0.3-0.7-0.8-1.2-1.4-1.5c-0.6-0.3-1.2-0.5-2-0.5c-0.5,0-1.1,0.2-1.6,0.4
		c-0.5,0.2-0.9,0.5-1.2,1c-0.3,0.4-0.6,0.9-0.8,1.4s-0.2,1.1-0.2,1.7c0,0.6,0.1,1.2,0.3,1.7c0.2,0.5,0.5,1,0.9,1.4
		c0.4,0.4,0.8,0.7,1.2,0.9s1,0.4,1.6,0.4c0.6,0,1.2-0.2,1.8-0.5c0.5-0.3,1.1-0.8,1.6-1.4v-1.3h-2.6V92h4.2v6.2h-1.6V96.6z"/>
	<path class="st0" d="M652.5,98.1V85.8h5.4c0.5,0,1.1,0.1,1.6,0.3s0.9,0.5,1.2,0.9c0.3,0.4,0.6,0.8,0.8,1.2c0.2,0.5,0.3,0.9,0.3,1.5
		c0,0.4-0.1,0.8-0.2,1.2c-0.1,0.4-0.3,0.7-0.5,1.1c-0.2,0.3-0.5,0.6-0.8,0.9c-0.3,0.2-0.6,0.4-1,0.5l2.9,4.7H660l-2.7-4.3h-2.8v4.3
		H652.5z M654.4,92.2h3.4c0.3,0,0.5-0.1,0.8-0.2c0.2-0.2,0.4-0.3,0.5-0.5c0.2-0.2,0.3-0.5,0.4-0.7c0.1-0.3,0.2-0.5,0.2-0.9
		c0-0.3-0.1-0.6-0.2-0.9c-0.1-0.3-0.2-0.5-0.5-0.7c-0.2-0.2-0.4-0.4-0.6-0.5c-0.2-0.2-0.5-0.2-0.7-0.2h-3.3V92.2z"/>
	<path class="st0" d="M670.8,85.9h1.7l4.8,12.3h-2l-1.3-3.4h-4.8l-1.2,3.4h-2L670.8,85.9z M673.7,93.4l-2-5.3l-2,5.3H673.7z
		 M672.1,84.6l-1.2-0.4l1-1.9h1.8L672.1,84.6z"/>
	<path class="st0" d="M682.3,98.1V85.8h8.2v1.7h-6.2v3.7h5.2v1.6h-5.2v5.3L682.3,98.1L682.3,98.1z"/>
	<path class="st0" d="M695.8,98.1V85.8h2v12.3H695.8z"/>
	<path class="st0" d="M703.3,91.9c0-0.7,0.2-1.5,0.4-2.2c0.2-0.7,0.6-1.4,1.2-2c0.5-0.5,1.2-1,1.9-1.4c0.7-0.4,1.6-0.5,2.5-0.5
		c1.1,0,2.1,0.2,2.9,0.8c0.8,0.5,1.4,1.2,1.8,2l-1.6,1c-0.2-0.4-0.4-0.7-0.6-0.9c-0.2-0.2-0.5-0.5-0.8-0.6c-0.3-0.2-0.6-0.2-0.9-0.3
		c-0.3-0.1-0.6-0.1-0.9-0.1c-0.6,0-1.2,0.2-1.7,0.4c-0.5,0.2-0.9,0.6-1.2,1c-0.3,0.4-0.5,0.9-0.8,1.4c-0.2,0.5-0.2,1.1-0.2,1.6
		c0,0.6,0.1,1.2,0.3,1.7c0.2,0.5,0.5,1,0.9,1.4c0.4,0.4,0.8,0.8,1.2,1c0.5,0.2,1,0.4,1.6,0.4c0.3,0,0.6,0,0.9-0.1s0.6-0.2,0.9-0.4
		c0.3-0.2,0.5-0.4,0.8-0.6s0.5-0.5,0.6-0.9l1.6,0.9c-0.2,0.5-0.5,0.9-0.9,1.2c-0.4,0.4-0.8,0.6-1.2,0.9c-0.5,0.2-0.9,0.4-1.4,0.5
		c-0.5,0.2-1,0.2-1.5,0.2c-0.9,0-1.6-0.2-2.3-0.5c-0.7-0.4-1.3-0.9-1.9-1.5c-0.5-0.6-0.9-1.2-1.2-2
		C703.4,93.4,703.3,92.7,703.3,91.9z"/>
	<path class="st0" d="M724.3,98.2c-0.9,0-1.6-0.2-2.4-0.5c-0.8-0.4-1.3-0.9-1.9-1.4c-0.5-0.5-0.9-1.2-1.2-2
		c-0.3-0.8-0.4-1.5-0.4-2.3c0-0.8,0.2-1.6,0.5-2.3c0.3-0.7,0.7-1.4,1.2-2c0.5-0.5,1.2-1,1.9-1.4c0.7-0.3,1.5-0.5,2.3-0.5
		c0.9,0,1.6,0.2,2.4,0.5c0.7,0.4,1.3,0.9,1.9,1.4c0.5,0.6,0.9,1.2,1.2,2c0.2,0.8,0.4,1.5,0.4,2.3c0,0.9-0.2,1.6-0.5,2.3
		c-0.3,0.8-0.7,1.4-1.2,2c-0.5,0.5-1.2,1-1.9,1.4C726,98.1,725.2,98.2,724.3,98.2z M720.4,92c0,0.5,0.1,1.2,0.3,1.7
		c0.2,0.5,0.5,1,0.8,1.4c0.3,0.4,0.8,0.8,1.2,1c0.5,0.2,1,0.4,1.6,0.4c0.6,0,1.2-0.2,1.6-0.4c0.5-0.2,0.9-0.6,1.2-1
		c0.3-0.4,0.6-0.9,0.8-1.4c0.2-0.5,0.2-1.1,0.2-1.6c0-0.6-0.1-1.2-0.3-1.7c-0.2-0.5-0.5-1-0.8-1.4c-0.3-0.4-0.8-0.7-1.2-1
		c-0.5-0.2-1-0.4-1.6-0.4c-0.6,0-1.2,0.2-1.6,0.4c-0.5,0.2-0.9,0.6-1.2,1c-0.3,0.4-0.6,0.9-0.8,1.4C720.5,91,720.4,91.4,720.4,92z"
		/>
</g>
<g>
	<path class="st0" d="M696.9,32.3h-7.5h-7.5l0,0h-7.2v-7.2v-7.5v-7.5c0-0.2-0.2-0.3-0.3-0.3h-7.5c-0.2,0-0.3,0.2-0.3,0.3v7.5v7.5
		v7.5l0,0v3.7v0.1c0,2.3,1.8,4.1,4.1,4.1h0.1h3.7h7.5l0,0h7.5h7.5c0.2,0,0.3-0.2,0.3-0.3v-7.5C697.2,32.5,697.1,32.3,696.9,32.3z
		 M667.1,10.3h6.9v6.9h-6.9V10.3z M667.1,17.9h6.9v6.9h-6.9V17.9z M674,25.5v6.9h-3.5H667v-6.9H674z M667.1,33h1.3
		c-0.5,0.3-0.9,0.8-1.3,1.3V33z M670.5,39.9c-1.9,0-3.4-1.5-3.4-3.4v-0.1c0-1.9,1.5-3.4,3.4-3.4h3.5v5.7v1.3h-1.3L670.5,39.9
		L670.5,39.9z M674.6,36.5V33h6.9v6.9h-6.9V36.5z M682.2,33h6.9v6.9h-6.9V33z M696.6,39.9h-6.9V33h6.9V39.9L696.6,39.9z"/>
	<path class="st0" d="M670.5,37.5c-0.6,0-1.1-0.5-1.1-1.1s0.5-1.1,1.1-1.1c0.6,0,1.1,0.5,1.1,1.1S671.1,37.5,670.5,37.5z
		 M670.5,35.9c-0.3,0-0.4,0.2-0.4,0.4c0,0.3,0.2,0.4,0.4,0.4c0.3,0,0.4-0.2,0.4-0.4C671,36.1,670.8,35.9,670.5,35.9z"/>
	<path class="st0" d="M693,28.7c-0.2,0-0.3-0.2-0.3-0.3c0-8.2-6.7-14.9-14.9-14.9c-0.2,0-0.3-0.2-0.3-0.3c0-0.2,0.2-0.3,0.3-0.3
		c4.1,0,8,1.6,10.9,4.5c2.9,2.9,4.5,6.8,4.5,10.9C693.3,28.6,693.2,28.7,693,28.7z"/>
</g>
<g>
	<path class="st0" d="M841,36.1h-3.9c-0.2,0-0.3-0.1-0.3-0.3v-0.3c0-0.2,0.1-0.3,0.3-0.3h3.9c0.2,0,0.3,0.1,0.3,0.3v0.3
		C841.3,36,841.2,36.1,841,36.1z"/>
</g>
<g>
	<path class="st0" d="M767.5,77.7V65h4.5c1,0,1.9,0.2,2.7,0.5c0.8,0.3,1.4,0.8,1.9,1.4s0.9,1.2,1.2,2s0.4,1.6,0.4,2.5
		c0,1-0.1,1.8-0.4,2.6s-0.7,1.4-1.2,2s-1.2,1-2,1.3s-1.6,0.5-2.6,0.5h-4.5V77.7z M776.2,71.3c0-0.7-0.1-1.3-0.3-1.8
		c-0.2-0.6-0.5-1-0.8-1.4c-0.4-0.4-0.8-0.7-1.3-0.9s-1.1-0.5-1.8-0.5h-2.5v9.2h2.5c0.7,0,1.3-0.1,1.8-0.3c0.5-0.2,1-0.6,1.3-1
		c0.4-0.4,0.6-0.9,0.8-1.5C776.1,72.5,776.2,71.9,776.2,71.3z"/>
	<path class="st0" d="M792.6,75.9v1.8h-8.7V65h8.6v1.7H786v3.6h5.6V72h-5.7v3.9H792.6z"/>
	<path class="st0" d="M805.5,67.9c-0.1-0.1-0.3-0.3-0.5-0.4s-0.5-0.3-0.8-0.4c-0.3-0.1-0.6-0.2-1-0.3c-0.4-0.1-0.7-0.1-1.1-0.1
		c-0.8,0-1.5,0.2-1.9,0.5c-0.4,0.3-0.6,0.7-0.6,1.3c0,0.3,0.1,0.6,0.2,0.8s0.3,0.4,0.6,0.5c0.3,0.2,0.6,0.3,1,0.4
		c0.4,0.1,0.9,0.2,1.4,0.4c0.6,0.2,1.2,0.3,1.7,0.5s1,0.4,1.3,0.7c0.4,0.3,0.6,0.6,0.8,1s0.3,0.9,0.3,1.5s-0.1,1.2-0.4,1.7
		c-0.2,0.5-0.6,0.8-1,1.1c-0.4,0.3-0.9,0.5-1.5,0.6c-0.6,0.1-1.2,0.2-1.8,0.2c-1,0-1.9-0.1-2.8-0.4c-0.9-0.3-1.7-0.7-2.4-1.3
		l0.9-1.7c0.2,0.2,0.4,0.3,0.7,0.5s0.6,0.4,1,0.5c0.4,0.2,0.8,0.3,1.3,0.4s0.9,0.2,1.4,0.2c0.8,0,1.4-0.1,1.8-0.4
		c0.4-0.3,0.6-0.7,0.6-1.2c0-0.3-0.1-0.6-0.2-0.8c-0.1-0.2-0.4-0.4-0.7-0.6s-0.7-0.3-1.1-0.4c-0.4-0.1-0.9-0.3-1.5-0.4
		c-0.6-0.2-1.2-0.3-1.7-0.5s-0.9-0.4-1.2-0.7c-0.3-0.3-0.5-0.6-0.7-0.9c0-0.5-0.1-1-0.1-1.5c0-0.6,0.1-1.2,0.4-1.7
		c0.2-0.5,0.6-0.9,1-1.2c0.4-0.3,0.9-0.6,1.5-0.7c0.6-0.2,1.2-0.2,1.8-0.2c0.9,0,1.7,0.1,2.4,0.4s1.4,0.6,1.9,1L805.5,67.9z"/>
	<path class="st0" d="M816.1,65h1.8l5,12.7h-2.1l-1.3-3.5h-4.9l-1.3,3.5h-2.1L816.1,65z M819,72.7l-2-5.5l-2.2,5.5H819z"/>
	<path class="st0" d="M828,77.7V65h5.5c0.6,0,1.1,0.1,1.6,0.4s0.9,0.6,1.2,0.9c0.3,0.4,0.6,0.8,0.8,1.3s0.3,1,0.3,1.5
		c0,0.4-0.1,0.8-0.2,1.2c-0.1,0.4-0.3,0.8-0.5,1.1c-0.2,0.3-0.5,0.6-0.8,0.9c-0.3,0.3-0.7,0.4-1,0.5l3,4.8h-2.3l-2.8-4.4h-2.9v4.4
		L828,77.7L828,77.7z M830,71.5h3.5c0.3,0,0.5-0.1,0.8-0.2s0.4-0.3,0.6-0.5c0.2-0.2,0.3-0.5,0.4-0.8s0.1-0.6,0.1-0.9
		s-0.1-0.6-0.2-0.9c-0.1-0.3-0.3-0.5-0.4-0.8c-0.2-0.2-0.4-0.4-0.6-0.5c-0.3-0.1-0.6-0.2-0.8-0.2H830V71.5z"/>
	<path class="st0" d="M843.4,77.7V65h5.5c0.6,0,1.1,0.1,1.6,0.4s0.9,0.6,1.2,0.9c0.3,0.4,0.6,0.8,0.8,1.3s0.3,1,0.3,1.5
		c0,0.4-0.1,0.8-0.2,1.2c-0.1,0.4-0.3,0.8-0.5,1.1c-0.2,0.3-0.5,0.6-0.8,0.9s-0.7,0.4-1,0.5l3,4.8H851l-2.8-4.4h-2.9v4.4L843.4,77.7
		L843.4,77.7z M845.4,71.5h3.5c0.3,0,0.5-0.1,0.8-0.2c0.3-0.1,0.4-0.3,0.6-0.5s0.3-0.5,0.4-0.8c0.1-0.3,0.1-0.6,0.1-0.9
		s-0.1-0.6-0.2-0.9c-0.1-0.3-0.3-0.5-0.4-0.8c-0.2-0.2-0.4-0.4-0.6-0.5c-0.2-0.1-0.5-0.2-0.8-0.2h-3.4V71.5z"/>
	<path class="st0" d="M864.1,77.7c-0.9,0-1.7-0.2-2.5-0.5c-0.7-0.4-1.4-0.8-1.9-1.5s-1-1.3-1.2-2.1c-0.3-0.8-0.4-1.6-0.4-2.4
		s0.2-1.7,0.5-2.4c0.3-0.8,0.7-1.5,1.3-2.1c0.6-0.6,1.2-1.1,1.9-1.4c0.7-0.4,1.6-0.5,2.4-0.5c0.9,0,1.7,0.2,2.5,0.6
		c0.7,0.4,1.4,0.9,1.9,1.5s0.9,1.3,1.2,2.1c0.3,0.8,0.4,1.6,0.4,2.4s-0.2,1.7-0.5,2.4c-0.3,0.8-0.7,1.5-1.3,2
		c-0.5,0.6-1.2,1.1-1.9,1.4C865.7,77.6,864.9,77.7,864.1,77.7z M860,71.3c0,0.6,0.1,1.2,0.3,1.7c0.2,0.6,0.5,1.1,0.8,1.5
		c0.4,0.4,0.8,0.8,1.3,1c0.5,0.3,1.1,0.4,1.7,0.4c0.6,0,1.2-0.1,1.7-0.4s0.9-0.6,1.3-1.1c0.3-0.4,0.6-0.9,0.8-1.5
		c0.2-0.6,0.3-1.1,0.3-1.7s-0.1-1.2-0.3-1.7c-0.2-0.6-0.5-1-0.8-1.5c-0.3-0.5-0.8-0.8-1.3-1s-1-0.4-1.7-0.4c-0.6,0-1.2,0.1-1.7,0.4
		s-0.9,0.6-1.3,1c-0.3,0.4-0.6,0.9-0.8,1.5C860.1,70.2,860,70.7,860,71.3z"/>
	<path class="st0" d="M875.8,77.7V65h2v10.9h6.8v1.8C884.6,77.7,875.8,77.7,875.8,77.7z"/>
	<path class="st0" d="M889.9,77.7V65h2v10.9h6.8v1.8C898.7,77.7,889.9,77.7,889.9,77.7z"/>
	<path class="st0" d="M908.4,77.7c-0.9,0-1.7-0.2-2.5-0.5c-0.7-0.4-1.4-0.8-1.9-1.5s-1-1.3-1.2-2.1c-0.3-0.8-0.4-1.6-0.4-2.4
		s0.2-1.7,0.5-2.4c0.3-0.8,0.7-1.5,1.3-2.1c0.6-0.6,1.2-1.1,1.9-1.4c0.7-0.4,1.6-0.5,2.4-0.5c0.9,0,1.7,0.2,2.5,0.6
		c0.7,0.4,1.4,0.9,1.9,1.5s0.9,1.3,1.2,2.1c0.3,0.8,0.4,1.6,0.4,2.4s-0.2,1.7-0.5,2.4c-0.3,0.8-0.7,1.5-1.3,2
		c-0.5,0.6-1.2,1.1-1.9,1.4C910,77.6,909.2,77.7,908.4,77.7z M904.3,71.3c0,0.6,0.1,1.2,0.3,1.7c0.2,0.6,0.5,1.1,0.8,1.5
		c0.4,0.4,0.8,0.8,1.3,1c0.5,0.3,1.1,0.4,1.7,0.4c0.6,0,1.2-0.1,1.7-0.4s0.9-0.6,1.3-1.1c0.3-0.4,0.6-0.9,0.8-1.5
		c0.2-0.6,0.3-1.1,0.3-1.7s-0.1-1.2-0.3-1.7c-0.2-0.6-0.5-1-0.8-1.5c-0.3-0.5-0.8-0.8-1.3-1s-1-0.4-1.7-0.4c-0.6,0-1.2,0.1-1.7,0.4
		s-0.9,0.6-1.3,1c-0.3,0.4-0.6,0.9-0.8,1.5C904.4,70.2,904.3,70.7,904.3,71.3z"/>
	<path class="st0" d="M781.5,86.5h1.9l1.6,4.3l1.6-4.3h1.9l-2.2,5.7l1.9,4.7l4-10.4h2.2l-5.2,12.7h-1.7l-2.4-5.7l-2.4,5.7H781
		l-5.2-12.7h2.2l4,10.4l1.9-4.7L781.5,86.5z"/>
	<path class="st0" d="M808.1,97.4v1.8h-8.7V86.5h8.6v1.8h-6.5v3.6h5.7v1.7h-5.7v3.9h6.6V97.4z"/>
	<path class="st0" d="M823.8,95.9c0,0.5-0.1,1-0.3,1.4s-0.5,0.7-0.8,1c-0.3,0.3-0.8,0.5-1.2,0.6c-0.5,0.1-1,0.2-1.5,0.2h-6.1V86.4
		h6.6c0.4,0,0.8,0.1,1.2,0.3c0.4,0.2,0.7,0.4,0.9,0.7c0.3,0.3,0.4,0.7,0.6,1c0.1,0.4,0.2,0.8,0.2,1.2c0,0.6-0.2,1.2-0.5,1.7
		c-0.3,0.5-0.8,0.9-1.4,1.2c0.7,0.2,1.3,0.6,1.7,1.2C823.5,94.4,823.8,95,823.8,95.9z M815.8,88.2v3.7h3.7c0.2,0,0.5,0,0.7-0.1
		c0.2-0.1,0.4-0.2,0.6-0.4c0.2-0.2,0.3-0.4,0.4-0.6c0.1-0.2,0.1-0.5,0.1-0.8c0-0.5-0.2-1-0.5-1.4s-0.7-0.5-1.2-0.5h-3.8V88.2z
		 M821.7,95.5c0-0.3,0-0.5-0.1-0.8c-0.1-0.2-0.2-0.4-0.4-0.6c-0.1-0.2-0.3-0.3-0.5-0.4c-0.2-0.1-0.4-0.2-0.7-0.2h-4.2v3.9h4.1
		c0.3,0,0.5-0.1,0.7-0.2s0.4-0.2,0.6-0.4c0.2-0.2,0.3-0.4,0.4-0.6C821.7,96,821.7,95.7,821.7,95.5z"/>
	<path class="st0" d="M837.8,86.4l3.5,6.4l3.5-6.4h2.2l-4.7,8.2v4.5h-2v-4.6l-4.7-8.1H837.8z"/>
	<path class="st0" d="M862.7,86.4h1.8l5,12.7h-2.1l-1.3-3.5h-4.9l-1.3,3.5h-2.1L862.7,86.4z M865.7,94.2l-2-5.5l-2.1,5.5H865.7z"/>
	<path class="st0" d="M874.7,99.1V86.4h5.3c0.6,0,1.1,0.1,1.6,0.4c0.5,0.2,0.9,0.6,1.2,0.9c0.3,0.4,0.6,0.8,0.8,1.3s0.3,1,0.3,1.5
		s-0.1,1.1-0.3,1.5c-0.2,0.5-0.4,0.9-0.8,1.3c-0.3,0.4-0.7,0.7-1.2,0.9c-0.5,0.2-1,0.3-1.6,0.3h-3.4v4.4h-1.9V99.1z M876.7,92.9h3.3
		c0.3,0,0.5-0.1,0.8-0.2s0.4-0.3,0.6-0.5c0.2-0.2,0.3-0.5,0.4-0.8s0.1-0.6,0.1-0.9c0-0.4-0.1-0.7-0.2-1c-0.1-0.3-0.3-0.5-0.4-0.7
		c-0.2-0.2-0.4-0.4-0.7-0.5c-0.2-0.1-0.5-0.2-0.8-0.2h-3.2v4.8H876.7z"/>
	<path class="st0" d="M889.4,99.1V86.4h5.3c0.6,0,1.1,0.1,1.6,0.4c0.5,0.2,0.9,0.6,1.2,0.9c0.3,0.4,0.6,0.8,0.8,1.3s0.3,1,0.3,1.5
		s-0.1,1.1-0.3,1.5c-0.2,0.5-0.4,0.9-0.8,1.3c-0.3,0.4-0.7,0.7-1.2,0.9c-0.5,0.2-1,0.3-1.6,0.3h-3.4v4.4h-1.9V99.1z M891.4,92.9h3.3
		c0.3,0,0.5-0.1,0.8-0.2s0.4-0.3,0.6-0.5s0.3-0.5,0.4-0.8s0.1-0.6,0.1-0.9c0-0.4-0.1-0.7-0.2-1c-0.1-0.3-0.3-0.5-0.4-0.7
		c-0.2-0.2-0.4-0.4-0.7-0.5c-0.2-0.1-0.5-0.2-0.8-0.2h-3.2L891.4,92.9L891.4,92.9z"/>
	<path class="st0" d="M911.6,89.4c-0.1-0.1-0.3-0.3-0.5-0.4s-0.5-0.3-0.8-0.4s-0.6-0.2-1-0.3c-0.4-0.1-0.7-0.1-1.1-0.1
		c-0.8,0-1.5,0.2-1.9,0.5c-0.4,0.3-0.6,0.7-0.6,1.3c0,0.3,0.1,0.6,0.2,0.8c0.1,0.2,0.3,0.4,0.6,0.5c0.3,0.1,0.6,0.3,1,0.4
		c0.4,0.1,0.9,0.2,1.4,0.4c0.6,0.2,1.2,0.3,1.7,0.5s1,0.4,1.3,0.7c0.4,0.3,0.6,0.6,0.8,1c0.2,0.4,0.3,0.9,0.3,1.5s-0.1,1.2-0.4,1.7
		c-0.2,0.5-0.6,0.8-1,1.1c-0.4,0.3-0.9,0.5-1.5,0.6c-0.6,0.1-1.2,0.2-1.8,0.2c-1,0-1.9-0.1-2.8-0.4c-0.9-0.3-1.7-0.7-2.4-1.3L904,96
		c0.2,0.2,0.4,0.3,0.7,0.5c0.3,0.2,0.6,0.4,1,0.5c0.4,0.2,0.8,0.3,1.3,0.4s0.9,0.2,1.4,0.2c0.8,0,1.4-0.1,1.8-0.4
		c0.4-0.3,0.6-0.7,0.6-1.2c0-0.3-0.1-0.6-0.2-0.8s-0.4-0.4-0.7-0.6c-0.3-0.2-0.7-0.3-1.1-0.4s-0.9-0.3-1.5-0.4
		c-0.6-0.2-1.2-0.3-1.7-0.5s-0.9-0.4-1.2-0.7c-0.3-0.3-0.5-0.6-0.7-0.9c-0.2-0.3-0.2-0.8-0.2-1.3c0-0.6,0.1-1.2,0.4-1.7
		c0.2-0.5,0.6-0.9,1-1.2c0.4-0.3,0.9-0.6,1.5-0.7c0.6-0.1,1.2-0.3,1.8-0.3c0.9,0,1.7,0.1,2.4,0.4s1.4,0.6,1.9,1L911.6,89.4z"/>
</g>
<g>
	<path class="st0" d="M853.9,38.1h-30.3c-1.1,0-2-0.9-2-2V14.3c0-1.1,0.9-2,2-2h30.3c1.1,0,2,0.9,2,2v21.9
		C855.9,37.2,855,38.1,853.9,38.1z M823.6,12.9c-0.7,0-1.4,0.6-1.4,1.4v21.9c0,0.7,0.6,1.4,1.4,1.4h30.3c0.7,0,1.4-0.6,1.4-1.4V14.3
		c0-0.7-0.6-1.4-1.4-1.4H823.6z"/>
</g>
<g>
	<path class="st0" d="M853.3,33.9h-28.5V17.2c0-1.1,0.9-2,2-2h24.5c1.1,0,2,0.9,2,2C853.3,17.2,853.3,33.9,853.3,33.9z M825.4,33.2
		h27.2V17.2c0-0.7-0.6-1.4-1.4-1.4h-24.5c-0.7,0-1.4,0.6-1.4,1.4C825.4,17.2,825.4,33.2,825.4,33.2z"/>
</g>
<g>
	<path class="st0" d="M843.8,29.7h-13.2c-0.7,0-1.1-0.5-1.1-1.1v-9.7c0-0.7,0.5-1.1,1.1-1.1h14.6c0.7,0,1.1,0.5,1.1,1.1v8.3
		l-3.5-0.8L843.8,29.7z M830.7,18.3c-0.3,0-0.5,0.2-0.5,0.5v9.7c0,0.3,0.2,0.5,0.5,0.5H843l-1-3.6l3.7,0.8v-7.5
		c0-0.3-0.2-0.5-0.5-0.5C845.2,18.3,830.7,18.3,830.7,18.3z"/>
</g>
<g>
	<path class="st0" d="M846.7,32.5l-1.7-1.9l-1.3,1.4l-1.8-6.5l7,1.6l-1.4,1.7l1.3,1.4L846.7,32.5z M845,29.6l1.7,1.9l1.3-1.3
		l-1.3-1.4l1.1-1.3l-5-1.1l1.2,4.4L845,29.6z"/>
</g>
<g>
	<path class="st0" d="M830.3,43.1l2.3-1c3.2-0.4,3.3-4.1,3.3-4.3v-0.3h6v0.3c-0.1,3.4,3.4,4.2,3.5,4.3l1.8,0.9L830.3,43.1z
		 M836.5,38.2c-0.1,0.8-0.5,2.9-2.1,4l9.4-0.1c-1.1-0.6-2.5-1.8-2.5-4H836.5z"/>
</g>
<g>
	<path class="st2" d="M846.7,43.7h-15.8c-0.4,0-0.7-0.3-0.7-0.7c0-0.4,0.3-0.7,0.7-0.7h15.8c0.4,0,0.7,0.3,0.7,0.7
		C847.4,43.4,847.1,43.7,846.7,43.7z M830.9,42.8c-0.1,0-0.1,0.1-0.1,0.1c0,0.1,0.1,0.1,0.1,0.1h15.8c0.1,0,0.1-0.1,0.1-0.1
		c0-0.1-0.1-0.1-0.1-0.1H830.9z"/>
</g>
<g>
	<rect x="829.6" y="20.9" class="st0" width="16.4" height="0.6"/>
</g>
<g>
	<path class="st0" d="M837,27.2h-5.2v-2.7h5.2V27.2z M832.5,26.5h4v-1.4h-4V26.5z"/>
</g>
<g>
	<rect x="821.9" y="33.3" class="st0" width="33.8" height="0.6"/>
</g>
<g>
	<path class="st0" d="M841,36.1h-3.9c-0.2,0-0.3-0.1-0.3-0.3v-0.3c0-0.2,0.1-0.3,0.3-0.3h3.9c0.2,0,0.3,0.1,0.3,0.3v0.3
		C841.3,36,841.2,36.1,841,36.1z"/>
</g>
<rect x="220.2" y="-101" style="fill:none;" width="52" height="32"/>
<text transform="matrix(1 0 0 1 220.2267 -88.1774)" class="st0" style="font-family:'MyriadPro-Bold'; font-size:18px;">/</text>
</svg>
