<?xml version="1.0" encoding="utf-8"?>
<!-- Generator: Adobe Illustrator 22.0.0, SVG Export Plug-In . SVG Version: 6.00 Build 0)  -->
<svg version="1.1" id="Layer_1" xmlns="http://www.w3.org/2000/svg" xmlns:xlink="http://www.w3.org/1999/xlink" x="0px" y="0px"
	 viewBox="0 0 364.9 220.1" style="enable-background:new 0 0 364.9 220.1;" xml:space="preserve">
<style type="text/css">
	.st0{fill:#2D24A3;}
	.st1{fill:#B77053;}
	.st2{fill:#ECE0D3;}
	.st3{fill:#E48868;}
	.st4{fill:#464473;}
	.st5{fill:#734E4F;}
	.st6{fill:#393762;}
	.st7{fill:#BA745D;}
	.st8{fill:#563616;}
	.st9{fill:#202070;}
	.st10{fill:#CFB199;}
	.st11{fill:#4E587F;}
	.st12{opacity:0.73;fill:#FFFFFF;enable-background:new    ;}
	.st13{fill:#8388FD;}
	.st14{fill:#696CCB;}
	.st15{fill:#6B6ECC;}
	.st16{fill:#676ACC;}
	.st17{fill:#8E91EB;}
	.st18{fill:#A0A2E6;}
	.st19{fill:#8287FE;}
	.st20{fill:#686BCC;}
	.st21{fill:#686BCB;}
</style>
<g>
	<g>
		<g>
			<g>
				<path class="st0" d="M6125.4-5007.8v60.8h3.8c0,0,6.6-27.7,6.9-30.4c0.3-2.7-1-11.2-1-11.2l5.7-22L6125.4-5007.8z"/>
			</g>
		</g>
		<g>
			<g>
				<path class="st0" d="M6123.4-5007.8v60.8h-3.8c0,0-6.6-27.7-6.9-30.4c-0.3-2.7,1-11.2,1-11.2l-5.7-22L6123.4-5007.8z"/>
			</g>
		</g>
		<g>
			<g>
				<polygon class="st1" points="6124.9,-4963.9 6125.4,-4943.9 6125.4,-4939.7 6130.8,-4939.7 6128.9,-4943.4 6133.9,-4963.9 				
					"/>
			</g>
		</g>
	</g>
	<g>
		<g>
			<path class="st2" d="M6135.1-5077.8c1.9,4.5,8.4,5.3,10.6,9.6c1.4,2.9,0.3,6.6-1.9,8.9s-5.4,3.6-8.6,4.4
				c-7,1.9-14.5,2.4-21.5,0.2c-2.5-0.8-4.9-1.9-6.8-3.6s-3.4-4.1-3.5-6.7c-0.2-2.6,1.1-5.3,3.3-6.6c1.4-0.8,3.1-1,4.2-2.1
				c1.7-1.6,1.7-4.2,1.6-6.6c-0.1-4.3,0.1-8.7,0.7-13c0.4-3.3,1.2-6.8,3.4-9.3c2.5-2.7,6.5-3.7,10.1-2.9s6.5,3.6,8.1,6.9
				s1.9,7.1,1.2,10.7C6135.3-5084.4,6133.8-5080.9,6135.1-5077.8z"/>
		</g>
	</g>
	<g>
		<g>
			<path class="st3" d="M6102.9-5023.4c0,0-2.3,4.2-2.5,5.6s-0.2,2.1,0.9,1.8c1.1-0.3-0.1,1.9,1.5,1.7c1.6-0.2,4.3-4.5,4.3-4.5
				l-2.7-3.7L6102.9-5023.4z"/>
		</g>
	</g>
	<g>
		<g>
			<path class="st4" d="M6145.1-5006.5c0,0-1.9-27.7-11.7-42l2.5-13.6c0,0,4.2-3.6,3.3-9.1v-7.5c0,0-11.6-5.5-14.4-5.5
				s-15.3,6.1-15.3,6.1s0,5.2,0,7c0,1.9,0.2,6.1,3,8.7l3.1,13.7c0,0-11.2,12-12.7,43.1C6102.9-5005.4,6128.1-5002.6,6145.1-5006.5z"
				/>
		</g>
	</g>
	<g>
		<g>
			<path class="st4" d="M6109.5-5078c-2.2,1.4-3.3,3.1-3.6,4.4s-3.1,28.4-3,32c0.2,3.6-2.8,2.8-1.6,8c1.2,5.2-3,4.8-1.1,8.3l0.5,2.8
				l4,0.9l4.1-12l3.6-28.6L6109.5-5078z"/>
		</g>
	</g>
	<g>
		<g>
			<path class="st1" d="M6152-5014.1c3.5-0.6-2.3-10.1-6.2-12.6c-3.9-2.5-11.6-4.6-13.6-4.1
				C6130.1-5030.4,6138.4-5011.6,6152-5014.1z"/>
		</g>
	</g>
	<g>
		<g>
			<path class="st1" d="M6132.2-5030.8c-1.7,0-2.3,1.6-2.3,3.4c0,1.9,4.1,21.3,7.2,23s13.6,1.4,14.2-1.9s-1.1-10.8-1.1-10.8
				L6132.2-5030.8z"/>
		</g>
	</g>
	<g>
		<g>
			<polygon class="st1" points="6132.2,-5030.8 6114.6,-5080.4 6111.7,-5079.1 6129.8,-5027.4 			"/>
		</g>
	</g>
	<g>
		<g>
			<path class="st3" d="M6133.4-5048.5l-3.1,1.8c0,0-3.3-1.4-4.2-1.2l0.7,1.9c0,0-5.5,1.5-5.5,1.8s0,1.7,0,1.7l2-0.4
				c0,0-0.2,1,0,1.2s0.7,0.4,0.7,0.4s0.2,0.8,0.6,1.6s0.4,1.4,1.1,1.9c0.6,0.5,4.9-1.4,5.4-1.8s4.5-4.6,4.5-4.6L6133.4-5048.5z"/>
		</g>
	</g>
	<g>
		<g>
			<path class="st5" d="M6147.8-5013.5c0.6,0,1.2-0.1,1.8-0.2c0.2,0,0.3-0.2,0.2-0.3c0-0.2-0.2-0.3-0.3-0.2
				c-3.5,0.6-7.5-0.8-10.6-3.9c-2.8-2.8-4.6-6.4-6.3-10.1c-0.1-0.1-0.2-0.2-0.4-0.1c-0.1,0.1-0.2,0.2-0.1,0.4
				c1.7,3.8,3.5,7.4,6.4,10.3C6141.2-5015.1,6144.6-5013.5,6147.8-5013.5z"/>
		</g>
	</g>
	<g>
		<g>
			<path class="st5" d="M6146.7-5016.3c1.3,0,2.6-0.1,3.9-0.4c0.2,0,0.3-0.2,0.2-0.3c0-0.2-0.2-0.3-0.3-0.2c-1.7,0.3-3.3,0.4-5,0.3
				c-0.2,0-0.3,0.1-0.3,0.3c0,0.2,0.1,0.3,0.3,0.3C6145.9-5016.3,6146.3-5016.3,6146.7-5016.3z"/>
		</g>
	</g>
	<g>
		<g>
			<path class="st5" d="M6140.6-5005c0.1,0,0.1,0,0.2-0.1s0.1-0.3,0-0.4c-5.4-6.5-8.7-14.6-9.3-23.1c0-0.2-0.2-0.3-0.3-0.3
				c-0.2,0-0.3,0.2-0.3,0.3c0.6,8.5,3.9,16.8,9.4,23.4C6140.4-5005.1,6140.5-5005,6140.6-5005z"/>
		</g>
	</g>
	<g>
		<g>
			<path class="st5" d="M6124.2-5046.6h0.1c0.2-0.1,0.2-0.2,0.2-0.4l-4-10.9c-0.1-0.2-0.2-0.2-0.4-0.2c-0.2,0.1-0.2,0.2-0.2,0.4
				l4,10.9C6124-5046.7,6124.1-5046.6,6124.2-5046.6z"/>
		</g>
	</g>
	<g>
		<g>
			<path class="st4" d="M6139.2-5078.6c3,1.4,8,28,7.3,29.2s-8,8.9-10.5,9.7l-2.7-8.7l4.7-4.1l-2.2-9.5L6139.2-5078.6z"/>
		</g>
	</g>
	<g>
		<g>
			<path class="st6" d="M6121.6-5070.3L6121.6-5070.3c3.1-0.7,5.9-2.5,7.9-4.9c0.1-0.1,0.1-0.3-0.1-0.4c-0.1-0.1-0.3-0.1-0.4,0.1
				c-1.8,2.4-4.5,4.1-7.5,4.7c-0.2,0-0.3,0.2-0.2,0.4C6121.3-5070.3,6121.4-5070.3,6121.6-5070.3z"/>
		</g>
	</g>
	<g>
		<g>
			<path class="st6" d="M6112.6-5062.3c0.1,0,0.1,0,0.2,0c0.1-0.1,0.2-0.3,0.1-0.4c-1.9-3.1-2.2-7-0.8-10.4l0.1-0.1l-0.1-0.1
				c-0.2-0.4-0.4-0.9-0.6-1.4s-0.4-1-0.7-1.4c-0.1-0.1-0.3-0.2-0.4-0.1s-0.2,0.3-0.1,0.4c0.2,0.4,0.4,0.9,0.7,1.4
				c0.2,0.4,0.4,0.9,0.6,1.3C6110.2-5069.6,6110.5-5065.5,6112.6-5062.3C6112.4-5062.3,6112.5-5062.3,6112.6-5062.3z"/>
		</g>
	</g>
	<g>
		<g>
			<path class="st6" d="M6136.2-5062.3c0.1,0,0.2,0,0.2-0.1c2-3.2,2.3-7.3,0.9-10.8c0.2-0.4,0.4-0.8,0.6-1.3s0.4-0.9,0.6-1.4
				c0.1-0.1,0-0.3-0.1-0.4s-0.3,0-0.4,0.1c-0.2,0.4-0.4,0.9-0.7,1.4c-0.2,0.5-0.4,0.9-0.6,1.4l-0.1,0.1l0.1,0.1
				c1.4,3.3,1.1,7.3-0.8,10.4c-0.1,0.1,0,0.3,0.1,0.4C6136.1-5062.3,6136.1-5062.3,6136.2-5062.3z"/>
		</g>
	</g>
	<g>
		<g>
			<path class="st6" d="M6105.4-5022.8c0.1,0,0.3-0.1,0.3-0.2c0.8-4.4,2.1-8.7,3.6-12.9c0.1-0.2,0-0.3-0.2-0.4
				c-0.1-0.1-0.3,0-0.4,0.2c-1.6,4.2-2.8,8.6-3.6,13C6105.1-5023,6105.2-5022.9,6105.4-5022.8
				C6105.3-5022.8,6105.4-5022.8,6105.4-5022.8z"/>
		</g>
	</g>
	<g>
		<g>
			<path class="st6" d="M6136.6-5040.2h0.1c0.1-0.1,0.2-0.2,0.2-0.4l-0.9-2.2c-0.1-0.2-0.2-0.2-0.4-0.2c-0.1,0.1-0.2,0.2-0.2,0.4
				l1,2.2C6136.4-5040.3,6136.5-5040.2,6136.6-5040.2z"/>
		</g>
	</g>
	<g>
		<g>
			<polygon class="st1" points="6123.9,-4963.9 6123.4,-4943.9 6123.4,-4939.7 6117.9,-4939.7 6119.9,-4943.4 6114.9,-4963.9 			"/>
		</g>
	</g>
	<g>
		<g>
			<path class="st3" d="M6127.3-5088.2v6.9c0,0-3.5,5.9-6.7,0.1l0.3-7H6127.3z"/>
		</g>
	</g>
	<g>
		<g>
			<path class="st3" d="M6125.9-5104.5c5.9,0.8,6.9,7.6,5.5,13c-1.1,4-3.5,8.1-7.3,8s-6.1-5.3-6.8-8.5
				C6116.2-5097,6116.4-5105.7,6125.9-5104.5z"/>
		</g>
	</g>
	<g>
		<g>
			<path class="st3" d="M6130.7-5092.9c0,0,0.2-2.3,2.1-1.5c1.8,0.8-0.4,5.9-2.4,5.3C6128.3-5089.7,6130.7-5092.9,6130.7-5092.9z"/>
		</g>
	</g>
	<g>
		<g>
			<path class="st3" d="M6118.5-5093c0,0-0.1-2.3-1.9-1.7c-1.9,0.6,0,5.9,2.1,5.4S6118.5-5093,6118.5-5093z"/>
		</g>
	</g>
	<g>
		<g>
			<path class="st7" d="M6124.1-5083.1c0.9,0,1.8-0.2,2.6-0.7c0.1-0.1,0.2-0.3,0.1-0.4s-0.3-0.2-0.4-0.1c-1.4,0.9-3.4,0.8-4.8-0.2
				c-0.1-0.1-0.3-0.1-0.4,0.1c-0.1,0.1-0.1,0.3,0.1,0.4C6122-5083.4,6123.1-5083.1,6124.1-5083.1z"/>
		</g>
	</g>
	<g>
		<g>
			<path class="st8" d="M6121.1-5100.7c-0.1,3.6,0.6,7.3,2.5,10.4s5.1,5.4,8.7,5.8c1.3-3.1,2.2-6.5,1.9-9.9
				c-0.4-3.3-1.9-6.6-4.6-8.6s-6.6-2.5-9.5-0.9c-2.5,1.4-4,4-4.6,6.8s-0.6,4.3-0.5,7.1C6119-5092.4,6121.7-5096.1,6121.1-5100.7z"/>
		</g>
	</g>
</g>
<g>
	<g>
		<g>
			<g>
				<g>
					<g>
						<path class="st3" d="M6256.5-5068.3l-2.5-9.5c0,0-3.6,1-5.2-0.6c-0.7-0.6-1.3-3.4-1.5-7.8c0-0.5-1.8,0.5-1.8,0
							c0-0.9,3.1-5.2,2.9-7c-1-6.4-0.5-8.1,1.4-9.9c4.1-4,18.5-4.6,20.4,2.4s1.3,10.4-2.2,20.3l2.2,9.9L6256.5-5068.3z"/>
					</g>
				</g>
			</g>
			<g>
				<g>
					<path class="st2" d="M6253.7-5063.7l-3.2-8c0,0,9.7-6.7,19.1-7.3l2,4.1L6253.7-5063.7z"/>
				</g>
			</g>
			<g>
				<g>
					<path class="st6" d="M6221.1-4886.1l-3.7,11.1c0,0-11.3,0.7-11.6,1.5l16.3,4.5l4.3-15.6L6221.1-4886.1z"/>
				</g>
			</g>
			<g>
				<g>
					<polygon class="st6" points="6307,-4868.2 6316.4,-4868.2 6323.1,-4873.4 6314.8,-4887.2 6310.1,-4884.4 6315.7,-4874.1 
						6313.9,-4870 					"/>
				</g>
			</g>
			<g>
				<g>
					<polygon class="st0" points="6245,-4988.2 6216.8,-4878.4 6226.2,-4875.9 6248.8,-4934.3 6264.8,-4965.1 6282.6,-4919.4 
						6312.3,-4876.5 6319.3,-4881.4 6295.1,-4937.4 6287.2,-4988.2 					"/>
				</g>
			</g>
			<g>
				<g>
					<path class="st9" d="M6270.4-5078.5c0,0-8.7,2.7-13,7.7s-11.4,19.5-11.5,21.1c-0.2,1.6,2.2,19.5,2.2,19.5l-7.8,47.3
						c0,0,33.4,5.2,50.1,0l-8.7-39.1c0,0,1.2-13.8,2.7-15.4c1.4-1.6-1.1-15.3-2.2-21.6s-6.1-13.6-7.8-15.1
						C6272.5-5075.5,6270.4-5078.5,6270.4-5078.5z"/>
				</g>
			</g>
			<g>
				<g>
					<path class="st10" d="M6248.1-5047.9c0.2,0,0.3-0.1,0.4-0.3c1-2.5,3.6-5.9,6.1-7.6l0.2-0.1v-0.5c0.1-1.8,0.1-3.8-0.1-5.6
						c1.3-0.6,2.6-1.1,3.9-1.4l0.3-0.1v-0.3c0.3-1.8,1.6-3.4,2.9-5c0.7-0.8,1.4-1.7,1.9-2.6c0.1-0.2,0.1-0.5-0.1-0.6
						s-0.5-0.1-0.6,0.1c-0.5,0.8-1.2,1.6-1.9,2.5c-1.3,1.6-2.6,3.2-3,5.2c-1.4,0.4-2.7,0.9-4,1.5l-0.3,0.1v0.3
						c0.2,1.8,0.2,3.9,0.1,5.7v0.1c-2.6,1.9-5.2,5.2-6.2,7.9c-0.1,0.2,0,0.5,0.2,0.5C6248-5047.9,6248-5047.9,6248.1-5047.9z"/>
				</g>
			</g>
			<g>
				<g>
					<path class="st6" d="M6247.7-5109.8c0.6-0.2,1.3-0.4,2.2-0.5c3.5-0.6,5.9,1.5,9.1,1.7c2.3,0.2,4.5-0.9,6.9-0.9
						c1.8,0,3.7,0.5,5,1.8s1.8,3.7,0.9,5.4c4.6,1.9,1.4,9.9,0,13.5c-1.4,3.5-3.8,8.6-3.8,8.6l-4.7-4.6c0,0,3.6-4.2,2-6
						c-1.6-1.9-3.2,1-3.2,1s-0.1,1.2-0.2,2.7c-0.8-0.6-1.6-1.1-2.5-1.5h-0.1l-0.2-6.1c0,0-4.9,1.6-5.8-2.5
						C6246.5-5098.5,6239.9-5107.1,6247.7-5109.8z"/>
				</g>
			</g>
		</g>
		<g>
			<path class="st10" d="M6269.8-4980.1c5.9,0,11.5-0.3,16.6-1c0.2,0,0.4-0.2,0.4-0.5c0-0.2-0.2-0.4-0.5-0.4
				c-11.5,1.5-25.3,1.3-41-0.6c-0.2,0-0.4,0.1-0.5,0.4c0,0.2,0.1,0.4,0.4,0.5C6254-4980.6,6262.2-4980.1,6269.8-4980.1z"/>
		</g>
	</g>
	<g>
		<g>
			<g>
				<path class="st3" d="M6210.3-5044.6c-0.5-1.2-0.2-5.1,0.3-4.7c0.5,0.3,0.9,2.5,0.9,2.5l0.2,1c0,0,0.8-0.3,0.8,0s0.3,1.6,0.3,1.6
					l0.1,2.5L6210.3-5044.6z"/>
			</g>
		</g>
		<g>
			<g>
				<polygon class="st11" points="6216.3,-5039.6 6213.4,-5050.5 6211,-5059.1 6207.9,-5057.9 6213.6,-5039.4 				"/>
			</g>
		</g>
		<g>
			<g>
				<path class="st3" d="M6247.2-5033.3l-2.5,9.8c0,0-25.1-9.8-26.4-10.3c0,0-3.8-3-4.6-3.6c-0.8-0.6-3.2-6.6-3.4-7.2
					c-0.2-0.6,4.5-0.9,4.5-0.9s0.1-2.9,0.4-3.8c0.1-0.5,1.2-2.8,1.7-1.2l1,4.4l1.5,1.5c0.8,1.1,1.6,5.5,1.6,5.5L6247.2-5033.3z"/>
			</g>
		</g>
		<g>
			<g>
				<path class="st9" d="M6249.1-5033.6c0,0-2.6-7.4-7.6-4.4c-4.9,3-5.5-0.7-5.5-0.7l-13.3-3.7l-4.3,8.6l28.7,12.3L6249.1-5033.6z"
					/>
			</g>
		</g>
	</g>
	<g>
		<path class="st10" d="M6254.8-5034.7l0.1-0.4c2.9-10.4,9-20,14.5-28c2.5-3.5,4.9-5.1,7.2-4.7c0.2,0.1,0.4-0.1,0.5-0.3
			c0-0.2-0.1-0.4-0.3-0.5c-2.6-0.5-5.4,1.2-8,5c-5.5,8-11.6,17.5-14.5,27.9l-4.9-1.4c-0.2-0.1-0.5,0.1-0.5,0.3s0.1,0.5,0.3,0.5
			L6254.8-5034.7z"/>
	</g>
	<g>
		<path class="st10" d="M6259.1-5018.7c0.5,0,1,0,1.5-0.1c2.5-0.4,4.4-2,5.5-3.3c1.5-1.6,2.5-3.4,3.6-5.2c0.1-0.2,0.1-0.5-0.1-0.6
			s-0.5-0.1-0.6,0.1c-1,1.7-2.1,3.6-3.5,5.1c-1.1,1.2-2.8,2.6-5,3c-2.7,0.5-5.6-0.7-7.9-1.7c-0.2-0.1-0.5,0-0.5,0.2
			c-0.1,0.2,0,0.5,0.2,0.5C6254.2-5019.7,6256.6-5018.7,6259.1-5018.7z"/>
	</g>
</g>
<path class="st12" d="M5592-5244c0,2.4,0,4.8,0,8.5c-1.8-1.5-4.4-2.9-4.2-3.6c0.6-2,2.2-3.7,3.4-5.6
	C5591.5-5244.4,5591.7-5244.2,5592-5244z"/>
<g>
	<path class="st13" d="M0,208c2.4-5,1.8-10.6,2.4-15.9c1.3-11.6,2.3-23.3,3.5-34.9c3.1-8,10-12.2,17-16.1c14.7-8.2,30.8-12.3,47-16
		c16.5-3.8,33.2-5.9,50-8c10.3-1.3,20.8-1.8,31.2-2.7c1.4-0.1,2.4,0.2,2.7,1.5c1.3,5.6,5.2,6.8,10.3,7.4c7.5,1,8.4,0.5,6.6-6.8
		c-1.5-6.1-0.7-7.5,4.9-10c6.4-2.8,13.3-4.2,19.4-7.6c21.3,0.1,42.6-0.4,63.8,1.2c25.9,2,51.5,5.7,75.1,17.7
		c5.7,2.9,10.7,6.7,15.7,10.6c7.7,6,8.4,14.6,9.3,23.2c1.9,20.5,3.9,40.9,5.9,61.4c0.3,2.6,0.3,5-1.9,6.9c-3,0-6,0-9,0
		c0-2.1,0.1-4.3,0-6.4c-0.4-5.5,1.1-11.1-0.9-16.6c-2-2.8-4.1-2.9-6.1,0c-1.4,1.3-0.9,3.1-0.9,4.7c-0.1,6.1,0,12.2,0,18.3
		c-23,0-46,0-69,0c0-3.1,0.1-6.3,0-9.4c-0.3-5.9,1-11.8-0.8-17.6c-0.9-3.1-2-6.1-4.9-7.9c-6.3-4.1-11.6-1.1-14.3,7.9
		c-2,5.2-0.7,10.6-0.8,16c-0.1,3.3-1.2,6.8,0.9,10l0,0c0,0.3,0,0.7,0,1c-3,0-6,0-9,0c0-0.3,0-0.7,0-1c2.1-4.9,0.7-10,0.9-15.1
		c0.1-3.3,1.2-6.9-0.9-10.1c-0.1-1.1,0.1-2.4-0.3-3.4c-1.7-4.3-4-8.2-9.3-8.5c-5.6-0.2-7.6,3.8-9.2,8.2c-0.7,2-1.1,4.1-1.1,6.3
		c0.1,7.5,0,14.9,0,22.4c0,0.3,0,0.7,0,1c-3,0-6,0-9,0c0-7,0.1-14,0-21c0-1.7,0.7-3.7-1.2-5.1c-0.1-0.2,0-0.3,0.2-0.4
		c0-0.5,0.1-1,0.1-1.5c0.1-0.1,0.4-0.2,0.3-0.3c-0.1-0.2-0.2-0.5-0.3-0.7c-0.8-1.8-1.3-3.8-2.4-5.4c-5-7.9-14.4-8.9-19.4-2
		c-2.8,3.8-4.3,8.2-4.3,13c0,7.5,0,15,0,22.4c0,0.3,0,0.7,0,1c-17,0-34,0-51,0c0-2.5,0.1-5,0-7.4c-0.4-5.9,1.1-11.8-0.9-17.6
		c-0.1-0.6-0.1-1.1-0.2-1.7c0.1-5.9-2.5-10.1-7-11.1c-4.5-1.1-8.6,1.6-11,7.1c-0.5,1.2-0.7,2.5-1,3.8c-2,5.2-0.7,10.6-0.8,16
		c-0.1,3.3-1.2,6.8,0.9,10l0,0c0,0.3,0,0.7,0,1c-23,0-46,0-69,0c0-0.4,0.1-0.7,0.1-1.1c6.9,0.3,6.9,0.3,6.9-6.6
		c0-5.3-0.1-10.5-0.1-15.8c0.6-3.6-0.7-6.4-4.2-7.3c-3.8-0.9-6.2,1.3-7.7,4.7c-0.8,1.9-1,3.8-1,5.8c0,6.8,0,13.5,0,20.3
		c-2.3,0-4.7,0-7,0c0-7.4,0-14.8-0.1-22.3c0-2.5-0.6-5.1-3.7-5.6c-3.1-0.5-5.6,0.4-6.3,4c-1.5,1.3-0.9,3.1-0.9,4.7
		c-0.1,6.4,0,12.9,0,19.3c-1.7,0-3.3,0-5,0c0-3.5,0.2-7-0.1-10.4c-0.3-4.5,1.2-9.2-0.9-13.6c-2.4-1.8-4.4-1.6-6.1,1
		c-1.5,1.3-0.9,3.1-0.9,4.7c-0.1,6.1,0,12.2,0,18.3c-4.3,0-8.7-0.1-13,0.1c-1.7,0.1-2.2-0.3-2.1-2.1C0.1,214.7,0,211.4,0,208z
		 M13,173c0.3,0.5,0.6,0.6,1,0.1c2.8-0.6,5.7-1,5.1-5.1c1.5-6.3,1.6-12.7,0-19c-4.9-1.4-5.8-0.5-6.1,6C11.4,161.1,11.3,167.1,13,173
		L13,173z M350,149c-1.7,5.3-1.6,10.6-0.1,16c-0.4,4.5,0,8.3,6,7.6c-1.4-5.8-1.4-11.5-0.2-17.3C356.7,150,355,148.1,350,149z
		 M339.9,199.2c0.3-3.8-1.1-7-5.2-7s-3.9,3.7-3.9,6.7c0,5,0.3,10-0.1,14.9c-0.3,4.2,1.2,5.8,5.3,5.1c2.6,0.4,3.9-0.5,3.8-3.5
		C339.8,210.1,340,204.7,339.9,199.2z M342.1,152.1c0.7-4-1-6.9-4.4-7c-3.7-0.1-4.8,2.1-4.8,5.4c0.1,4.3,0,8.6,0.1,12.9
		c0,5.9,1.6,7.1,8,5.8c1.3-0.2,2-0.9,2-2.3C342.7,162,343.3,157,342.1,152.1z M26,171c2-0.5,3.9-1,5.9-1.5c2.5-0.1,3.2-1.5,3.2-3.9
		c0-4.8-0.6-9.6,0.7-14.3c0-2.8,0.7-6-3.5-6.3c-4.3-0.3-5.8,2.5-6.3,6.1c-0.2,1.6-0.1,3.3-0.1,4.9C24.5,161.1,24.2,166.1,26,171z
		 M57,147.9c-0.2-6-3.3-8.7-8.2-6.5c-2.7,1.2-5,3.2-4.9,6.7c-1.5,6.7-1.6,13.3,0.1,20c1.8-0.4,3.5-0.7,5.3-1.1
		c7.4-0.6,7.4-0.6,7.5-8.1C56.9,155.2,56.9,151.6,57,147.9z M324.9,150.2c0-1,0.2-2,0-3c-0.9-4.2-3.8-6.1-7.8-6.1
		c-4.2,0-5.5,2.7-5.2,6.7c0.2,4.1,0.4,8.3,0,12.4c-0.5,4.9,1.3,6.7,6,5.9c5.7,1.4,7.1,0.4,7.1-5C325,157.5,325,153.8,324.9,150.2z
		 M322.3,199c0.8-4.6-2.5-9.5-6.5-9.8c-3.6-0.3-5.9,2.8-5.9,8c0,5.3,0.8,10.7-0.3,15.8c-1.2,5.7,0.7,6.8,5.6,6
		c7.8,0,6.7,0.8,6.8-6.7C322.1,207.9,322.2,203.4,322.3,199z M294.9,163c2,1.7,4.7,1.1,7,1.9c1.2,0.4,3,0.1,2.9-1.7
		c-0.2-6.4,1.2-12.8-0.8-19.1c-0.1-1.2-0.7-2.1-1.5-3c-2.7-3-5.8-5-10.1-3.6c-4.4,1.4-4.6,5.1-4.5,8.9c0.1,4.3,0.2,8.6,0,12.9
		c-0.2,3.2,1.2,4.1,4.1,3.9c0.3,0.5,0.7,0.5,1,0c0.4,0,0.9-0.1,1.3-0.1l0.3-0.1L294.9,163z M70,164c10.8-0.7,10.8-0.7,10.9-11.4
		c0-2.5,0-5,0.1-7.4c0.2-3.1-0.3-6-3.6-7.5c-3.2-1.5-6.1-0.8-8.8,1.2c-3.1,2.4-4.5,5.6-4.5,9.4c0,3.6,0,7.3,0,10.9
		C64,165.5,64,165.5,70,164z M285.9,195.1c-1.5,8-1.7,16,0.1,24c2,0,3.9,0,5.9,0c1.6,0,3.3-0.3,4.9,0c4.1,0.6,5.5-1,5.2-5.2
		c-0.4-5.8-0.1-11.5-0.2-17.3c-0.2-5.8-3.1-9.8-7.8-10.3C290.5,185.9,286.9,189.6,285.9,195.1z M218.9,141L218.9,141
		c-0.3-7.5-6-13-13.4-12.9c-6.6,0-13.1,6.2-13.4,13c-0.2,3.3,0.3,6.7-0.1,9.9c-0.8,5.5,1.7,6.8,6.5,6c2.3,0,4.7,0,7-0.1
		c4.3-0.1,9.8,1.5,12.6-0.6c3.1-2.3,0.6-8.1,1.1-12.3c0-0.3,0.1-0.7,0.1-1C220,142.2,219.8,141.5,218.9,141z M235.2,158
		c4.5-0.6,10.6,2.3,13.1-1c2.2-3,0.6-8.8,0.7-13.4c0-0.7,0-1.3,0-2c-0.2-5.7-4.7-10.3-10.2-10.5c-5.3-0.2-9.6,4.4-9.7,10.4
		c-0.1,3.5,0.3,7-0.1,10.4C228.3,157,230.2,158.9,235.2,158z M264.3,160c3.3,0,6.7-0.3,9.9,0.6c2.8,0.8,4,0,3.9-3.1
		c-0.2-4.3-0.1-8.6-0.1-13c-0.2-6.5-4.9-11.5-10.7-11.3c-6,0.2-9.2,4.2-9.3,11.2c0,3.2,0.3,6.4-0.1,9.5
		C257.2,159.2,259.3,160.9,264.3,160z M139.3,141.9c0.2-0.8,0.7-1.6,0.6-2.3c-0.6-4.6-4.5-8.2-8.9-8.5c-4.2-0.3-9.7,3.6-11,7.8
		c-1.4,4.5-0.9,9.2-1,13.8c-0.1,6.5,0,6.5,6.4,6.3c3.3-1.3,6.8-0.8,10.2-0.8c2.5,0,3.5-0.9,3.5-3.4
		C139,150.4,139.2,146.2,139.3,141.9z M72.4,219c1.8,0,3.7-0.1,5.5,0.1c4.3,0.6,5.4-1.3,5.2-5.3c-0.3-5.8-0.1-11.6-0.1-17.4
		c-0.2-5.7-3.7-10.3-7.9-10.3c-4.4,0-8.1,4.8-8.1,10.7c0,5.6,0.3,11.3-0.1,16.9C66.6,218,67.9,219.9,72.4,219z M96.1,161
		c3.8-0.3,7.6-0.7,11.4-0.9c1.5-0.1,2.5-0.6,2.6-2.3c0.2-4.9,1.2-9.9,0.1-14.8c1.6-2,0.4-3.9-0.6-5.5c-2.2-3.4-5.4-4.9-9.4-4
		c-4.6,1-8.5,3.4-9.2,8.6c-0.6,4.7-0.9,9.6-1,14.3C89.9,162.5,90,162.5,96.1,161z M175.9,140.6c-0.2-6.1-3.7-10.4-9.5-11.4
		c-5.2-0.9-11.2,2.5-13.2,7.5c-2,4.8-1.1,9.8-1.2,14.7c-0.1,6.5,0,6.5,6,5.7c4.8-0.1,9.6-0.2,14.4-0.1c2.5,0,3.6-0.9,3.5-3.5
		C175.8,149.2,175.9,144.9,175.9,140.6z M111.9,194.6c-0.2-5.6-4-10.9-8.4-11.4c-4.5-0.5-9.2,3.6-10.7,9.3
		c-1.7,6.7-0.3,13.6-0.9,20.3c-0.5,5,1.1,7.2,6.2,6.2c3.5,0,7-0.1,10.5,0.1c2.7,0.1,3.4-1,3.4-3.5
		C111.9,208.6,112,201.6,111.9,194.6z M159,219c4.2,0,8.3-0.3,12.5,0c3.4,0.2,4.7-0.8,4.6-4.4c-0.3-7-0.1-14-0.1-21
		c-0.2-7-4.6-12.9-10.1-13.6c-5.7-0.6-9.7,2.9-12.1,10.3c-0.6,1.8-0.8,3.5-0.8,5.4c0,5.8,0.3,11.7-0.1,17.5
		C152.5,218.2,154.4,219.8,159,219z"/>
	<path class="st14" d="M46,220c0-6.8,0-13.5,0-20.3c0-2,0.1-3.9,1-5.8c1.5-3.4,3.9-5.6,7.7-4.7c3.5,0.9,4.8,3.7,4.2,7.3
		c-4.2-2.5-6.6-1.2-6.8,4c-0.2,6.1,0,12.3,0,18.4c0,0.4-0.1,0.7-0.1,1.1C50,220,48,220,46,220z"/>
	<path class="st15" d="M28.9,196.1c0.7-3.5,3.2-4.5,6.3-4s3.7,3.1,3.7,5.6C39,205.1,39,212.5,39,220c-3.3,0-6.7,0-10,0
		C28.9,212.1,28.9,204.1,28.9,196.1z M38.1,208.6L38.1,208.6c0-2.7,0.1-5.3,0-8c0-1.1,0.1-2.5-1.6-2.5c-1.5,0-1.8,1.4-1.8,2.5
		c0,5.5,0,10.9,0,16.4c0,1.1,0.4,2,1.7,2s1.6-0.9,1.6-2C38.1,214.3,38.1,211.5,38.1,208.6z"/>
	<path class="st16" d="M15.9,197.1c1.6-2.6,3.7-2.8,6.1-1c0,8,0,16,0,24c-2,0-4,0-6,0C15.9,212.4,15.9,204.7,15.9,197.1z"/>
	<path class="st17" d="M346,220c0-6.1,0-12.2,0-18.3c0-1.6-0.5-3.3,0.9-4.7c0,6.1,0,12.3,0.1,18.4c0,1.7-0.2,3.4,2.3,3.5
		c2.8,0.1,2.7-1.8,2.7-3.7c0-6.1-0.3-12.3,1-18.3c2,5.4,0.5,11,0.9,16.6c0.2,2.1,0,4.3,0,6.4C351.3,220,348.6,220,346,220z"/>
	<path class="st18" d="M257,220c0-0.3,0-0.7,0-1c1.8-0.2,3.9,0.7,5.3-1.3c3.6,0.9,7.3,0.3,10.9,0.5c1.8,0.1,2.9-0.5,2.8-2.5
		c-0.3-7.2,0.9-14.6-0.9-21.7c0.4-0.3,0.7-0.6,1.1-0.9c1.8,5.8,0.5,11.7,0.8,17.6c0.2,3.1,0,6.3,0,9.4C270.3,220,263.6,220,257,220z
		"/>
	<path class="st17" d="M192,220c0-0.3,0-0.7,0-1c2,0,4.1,0,6.1,0c5.3,0,10.7-0.2,16-0.1c3,0.1,4.1-0.9,4-4c-0.3-7-0.2-14-0.3-21
		c1.9,1.3,1.2,3.3,1.2,5.1c0.1,7,0,14,0,21C210,220,201,220,192,220z"/>
	<path class="st18" d="M140.1,195c2,5.8,0.4,11.7,0.9,17.6c0.2,2.5,0,5,0,7.4c-6.7,0-13.3,0-20,0c0-0.3,0-0.7,0-1c2,0,4,0,6,0
		c3.1,0,6.3-0.3,9.4-0.1c2.8,0.1,3.7-1,3.7-3.7C139.9,208.5,140,201.7,140.1,195z"/>
	<path class="st17" d="M28.9,196.1c0,8,0,16,0.1,24c-0.3,0-0.7,0-1,0c0-6.4,0-12.9,0-19.3C28,199.2,27.4,197.4,28.9,196.1z"/>
	<path class="st17" d="M22,220c0-8,0-16,0-24c2.1,4.4,0.6,9.1,0.9,13.6c0.2,3.5,0.1,6.9,0.1,10.4C22.6,220,22.3,220,22,220z"/>
	<path class="st17" d="M15.9,197.1c0,7.7,0,15.3,0.1,23c-0.3,0-0.7,0-1,0c0-6.1,0-12.2,0-18.3C15,200.1,14.4,198.4,15.9,197.1z"/>
	<path class="st17" d="M228,220c0-0.3,0-0.7,0-1c2.1,0,4.1,0,6.2,0c4.5-0.1,9-0.2,13.5-0.2l0.3,0.3c0,0.3,0,0.7,0,1
		C241.3,220,234.6,220,228,220z"/>
	<path class="st16" d="M195,99c-6.1,3.4-13,4.8-19.4,7.6c-5.6,2.5-6.4,3.9-4.9,10c1.8,7.2,0.9,7.7-6.6,6.8
		c-5.1-0.6-9.1-1.8-10.3-7.4c-0.3-1.3-1.3-1.6-2.7-1.5c-10.4,0.9-20.8,1.4-31.2,2.7c-16.7,2.1-33.5,4.2-50,8
		c-16.2,3.7-32.3,7.9-47,16c-7,3.9-13.9,8.1-17,16.1c-4.3-7.7-3.9-10,3-18.2c7.6-4.1,14.9-8.6,22.9-12c29.4-12.4,60-18.5,91.7-20.1
		c8.8-0.4,17.6-0.8,26.4-0.8c2,0,3.1-0.7,3.1-2.9c0-2-0.6-3.1-2.8-3.2c-3.3-0.2-6.6-0.8-9.9-0.9c-2.5,0-4.1-0.9-5-3.2
		c-3.9-10.1-8.9-19.7-11.9-30.1c-1.1-3.7-3.2-4.3-6.3-3.6C93.4,67,70.3,73.6,48.9,85.2c-15.6,8.4-29.3,18.9-36.9,35.7
		c-0.4,0.8-1.3,1.5-1.9,2.2c-2.1-3.6-1.8-7.4-0.2-11c2-4.4,4.2-8.6,6.3-12.9c0.6-0.6,1.3-1.1,1.8-1.7
		c27.7-29.6,62.2-43.8,102.3-45.3c2.5-0.1,3.7-0.9,4.2-3.2c0.5-1.9,1-3.8,1.5-5.8c4,1,6.1,3.5,5.9,7.8c0,0.2,0,0.3,0,0.5
		c-2.1,13,3.3,25.3,4.1,38c0.2,2.6,2.1,3.6,4.5,3.6c4,0,8,0.2,11.9,0.1c4.9-0.1,9.6,0,13,4.5c1.3,1.7,3.6,1.4,5.6,1.4
		C179.1,99,187,99,195,99z"/>
	<path class="st19" d="M126,43.2c-0.5,1.9-1.1,3.8-1.5,5.8c-0.5,2.3-1.7,3.1-4.2,3.2C80.2,53.7,45.7,67.9,18,97.5
		c-0.6,0.6-1.2,1.1-1.8,1.7c0.4-9,2.4-17.8,1.6-26.9c1.5-1,1.9-2.7,2.6-4.1C27.5,54,37.7,42.5,50.6,33.3
		c13.8-9.9,29.1-16.4,45.2-21.2c7.7-2.3,7.4-2.3,11.3,4.6c3,5.3,4.9,11.3,9.6,15.5c1.3,2.3,3.1,4.4,3.8,6.8
		C121.6,41.7,123.6,42.5,126,43.2z"/>
	<path class="st19" d="M10.1,123c0.6-0.7,1.5-1.4,1.9-2.2c7.6-16.8,21.4-27.3,36.9-35.7c21.4-11.6,44.5-18.2,68.2-22.9
		c3.1-0.6,5.2,0,6.3,3.6c3.1,10.4,8.1,20,11.9,30.1c0.9,2.3,2.4,3.2,5,3.2c3.3,0,6.6,0.7,9.9,0.9c2.2,0.1,2.8,1.2,2.8,3.2
		c0,2.2-1.1,2.9-3.1,2.9c-8.8,0-17.6,0.4-26.4,0.8c-31.7,1.6-62.4,7.7-91.7,20.1c-8,3.4-15.4,7.9-22.9,12
		C8.7,133.6,11.7,128.5,10.1,123z M37.8,118c2.4-0.3,2.1-2.1,2.1-3.7c0-3.4,0-6.8,0-10.3c1.7-2.9,0.3-5.1-2.2-5.7
		c-3.3-0.8-5.4,1.7-5.7,4.7c-0.4,4.7-0.1,9.5-0.1,14.3c0,2,0.6,2.8,2.6,1.8C35.6,118.7,36.7,118.4,37.8,118z M61.3,94
		c1.1-2.9,0.2-5.3-2.3-6.8c-2.7-1.6-5.5-0.9-7.8,1.1c-2.1,1.8-3.3,4.1-3.2,7c0.1,4,0,8,0,12c0,6.3,0,6.3,6,4.7c5.9-0.3,8-3.3,7.1-9
		C60.7,100,61.2,97,61.3,94z M87.3,87c1.6-3.4-0.2-5.9-2.8-7.5c-3-1.9-6.2-1.4-9.2,0.7c-4.6,3.3-4.6,8-4.4,12.9
		c-1.5,4.3-1.7,8.7,0.1,13c1.9-0.4,3.7-0.8,5.6-1.2c0.8-0.1,1.6-0.3,2.4-0.4c8-1.9,8-1.9,8.1-10C87.1,92,87.2,89.5,87.3,87z
		 M116.9,82L116.9,82c0.6-4.2-1.9-6.6-5.3-7.8c-4.9-1.7-9.8,0.5-12.6,4.7c-3.1,4.7-1.9,9.9-2,15c-0.2,6.5,0,6.5,6.2,6.1
		c1.5-0.3,2.9-0.7,4.4-0.8c9.4-1.1,9.4-1,9.5-10.2c0-1.7,0.1-3.3,0.2-5C118,83.2,117.9,82.5,116.9,82z M24.1,118.4
		c-1.3-2.2,2-6.6-2-6.8c-3.3-0.2-2.6,4.4-3,6.9c-0.9,6.2-0.2,8.4,1.6,8.1C26,125.6,23.2,121.3,24.1,118.4z"/>
	<path class="st20" d="M116.8,32c-4.7-4.2-6.6-10.2-9.6-15.5c-3.9-6.8-3.6-6.9-11.3-4.6c-16.1,4.8-31.4,11.3-45.2,21.2
		c-13,9.2-23.1,20.7-30.2,34.9c-0.7,1.5-1.1,3.2-2.6,4.1c-2.4-1.7-1.8-3.8-1.1-6.2c6.9-21.5,21-37.4,39.7-49.4
		C68,9.1,80.6,3.9,93.8,0.5c6.2-1.6,10.3,0.4,12.8,6.2c3,6.8,6,13.7,8.9,20.5C116.2,28.8,117.3,30.2,116.8,32z"/>
	<path class="st21" d="M217.9,193.6c-0.2-0.2-0.5-0.4-0.7-0.7c-3.7-6.9-6.5-9-11.1-7.9c-4,0.9-7.9,6.2-8.1,12.1
		c-0.3,7.3,0,14.6,0.1,22c-2,0-4.1,0-6.1,0c0-7.5,0-15,0-22.4c0-4.8,1.5-9.2,4.3-13c5-6.9,14.4-5.9,19.4,2c1,1.7,1.6,3.6,2.4,5.4
		c0,0.3,0,0.7,0,1C218,192.6,218,193.1,217.9,193.6z"/>
	<path class="st21" d="M175.9,193.6c-0.3-0.4-0.7-0.7-0.9-1.1c-1.7-3.8-3.7-7.5-8.7-6.5s-6.9,5.3-7.2,9.7
		c-0.5,7.8-0.1,15.6-0.1,23.4c-4.7,0.8-6.5-0.9-6.2-5.9c0.4-5.8,0.1-11.6,0.1-17.5c0-1.8,0.2-3.6,0.8-5.4
		c2.4-7.4,6.4-10.9,12.1-10.3C171.3,180.7,175.7,186.6,175.9,193.6z"/>
	<path class="st21" d="M139.9,193.3c-1.9-2.6-3-6.4-7.3-5.3s-5.8,4.8-5.9,8.8c-0.1,7.4,0.1,14.8,0.2,22.3c-2,0-4,0-6,0l0,0
		c0-8.7-0.1-17.3-0.1-26c0.3-1.3,0.5-2.6,1-3.8c2.4-5.6,6.5-8.2,11-7.1C137.4,183.2,140,187.4,139.9,193.3z"/>
	<path class="st14" d="M234.2,219c-2.1,0-4.1,0-6.2,0c0-7.5,0.1-14.9,0-22.4c0-2.2,0.3-4.3,1.1-6.3c1.6-4.4,3.6-8.4,9.2-8.2
		c5.4,0.2,7.6,4.1,9.3,8.5c0.4,1,0.2,2.3,0.3,3.4c-0.2,0-0.5,0-0.7,0c-1.2-3.3-2.8-6.3-6.9-6c-3.4,0.2-4.6,2.9-5.5,5.7
		c-0.4,1.1-0.7,2.3-0.7,3.4C234,204.3,234.1,211.7,234.2,219z"/>
	<path class="st14" d="M111.9,194.6c-0.7-1.1-1.4-2.2-2.3-3.2c-2.5-3.1-5.6-3.2-8.4-0.3c-2.2,2.4-3.2,5.3-3.2,8.6
		c0,6.4,0.1,12.9,0.1,19.3c-5.2,1-6.7-1.2-6.2-6.2c0.7-6.7-0.8-13.6,0.9-20.3c1.5-5.7,6.1-9.9,10.7-9.3
		C107.9,183.7,111.8,189,111.9,194.6z"/>
	<path class="st21" d="M218.9,141.1c-4.8-6.5-9.7-8.5-15.1-6.1c-3.5,1.6-5.7,4.3-5.8,8c-0.2,4.6-0.5,9.3,0.3,13.9
		c-4.7,0.8-7.2-0.5-6.4-6c0.5-3.3,0-6.6,0.1-9.9c0.3-6.7,6.9-13,13.4-13C212.9,128.1,218.6,133.5,218.9,141.1z"/>
	<path class="st14" d="M175.9,140.6c-2.7-4.3-6.4-6.9-11.6-5.2c-5.2,1.8-6.5,6.1-6.3,11.2c0.2,3.5,0.1,7,0.1,10.5
		c-6.1,0.8-6.2,0.8-6-5.7c0.1-4.9-0.8-9.9,1.2-14.7c2.1-5.1,8-8.5,13.2-7.5C172.2,130.1,175.8,134.4,175.9,140.6z"/>
	<path class="st21" d="M262.2,217.8c-1.4,2-3.5,1.1-5.3,1.3l0,0c0-8.7,0-17.3-0.1-26c2.7-9,8-11.9,14.3-7.9c2.9,1.8,3.9,4.8,4.9,7.9
		c-0.3,0.3-0.7,0.6-1.1,0.9c-1.6-2.6-3.4-5.4-6.9-4.7c-3.7,0.8-5,4-5.5,7.5c-0.2,1.6-0.4,3.3-0.4,5
		C262.2,207.1,262.2,212.5,262.2,217.8z"/>
	<path class="st21" d="M301.9,196.5c-2-1.8-3.1-5.3-6.6-4.1c-3.7,1.2-3.6,4.7-3.6,7.9c0,6.3,0.1,12.5,0.2,18.8c-2,0-3.9,0-5.9,0
		c0-8-0.1-16-0.1-24c1-5.5,4.5-9.2,8.2-8.8C298.8,186.8,301.8,190.7,301.9,196.5z"/>
	<path class="st14" d="M139.3,141.9c-1.2-3.6-3.8-5.4-7.5-4.8c-4.1,0.7-6.4,3.5-6.6,7.5c-0.2,4.7,0.1,9.5,0.2,14.3
		c-6.4,0.2-6.4,0.2-6.4-6.3c0-4.6-0.5-9.2,1-13.8c1.3-4.1,6.8-8.1,11-7.8c4.5,0.3,8.3,3.9,8.9,8.5
		C140,140.3,139.5,141.1,139.3,141.9z"/>
	<path class="st14" d="M110.2,143c-1.4-3.2-4-4.5-7.3-3.7c-3.9,1-6.3,3.7-6.6,7.8c-0.3,4.6-0.2,9.3-0.2,13.9
		c-6.1,1.5-6.2,1.5-6.1-4.6c0.1-4.8,0.4-9.6,1-14.3c0.7-5.2,4.5-7.5,9.2-8.6c4-0.9,7.2,0.6,9.4,4C110.6,139.1,111.9,140.9,110.2,143
		z"/>
	<path class="st14" d="M277.9,144.5c-1.6-1.5-2.6-3.4-4.6-4.4c-4.8-2.4-9.3,0.1-9.4,5.5c-0.1,4.8,0.2,9.6,0.3,14.4
		c-4.9,0.9-7.1-0.8-6.4-6.1c0.4-3.1,0.1-6.3,0.1-9.5c0-7,3.3-11,9.3-11.2C273,133,277.8,138,277.9,144.5z"/>
	<path class="st21" d="M248.9,141.6c-1.2-1.1-2.3-2.4-3.7-3.3c-4.8-3-10.1-0.3-10.3,5.3c-0.2,4.8,0.1,9.6,0.2,14.4
		c-5,0.9-6.9-1-6.3-6.1c0.4-3.4,0-6.9,0.1-10.4c0.2-6,4.5-10.5,9.7-10.4C244.2,131.2,248.8,135.9,248.9,141.6z"/>
	<path class="st21" d="M82.9,196.4c-1.6-1.9-2.4-5.2-5.9-4.2c-3.5,1.1-4.8,4.1-4.8,7.4c-0.1,6.5,0.1,12.9,0.2,19.4
		c-4.5,0.9-5.8-1-5.5-5.4c0.4-5.6,0.1-11.2,0.1-16.9c0-5.9,3.7-10.7,8.1-10.7C79.3,186.1,82.7,190.7,82.9,196.4z"/>
	<path class="st14" d="M80.9,145.3c-1.8-2-4-3.1-6.6-1.9c-2.9,1.3-4.3,3.6-4.3,6.7c0,4.7,0,9.3-0.1,14c-6,1.5-6,1.5-6-4.7
		c0-3.6,0-7.3,0-10.9c0-3.9,1.4-7.1,4.5-9.4c2.7-2.1,5.6-2.7,8.8-1.2C80.6,139.3,81.1,142.1,80.9,145.3z"/>
	<path class="st15" d="M294.3,163c-0.4,0-0.9,0.1-1.3,0.1c-0.3,0-0.7,0-1,0c-2.8,0.2-4.2-0.7-4.1-3.9c0.2-4.3,0.1-8.6,0-12.9
		c-0.1-3.8,0.1-7.5,4.5-8.9c4.2-1.4,7.3,0.6,10.1,3.6c0.8,0.9,1.5,1.8,1.5,3c-0.1,0.7-0.2,1.5-0.9,1.9c-2-2.3-4.3-3.8-7.4-2.4
		c-2.9,1.3-2,4.3-2,6.6C293.8,154.4,294.1,158.7,294.3,163z"/>
	<path class="st21" d="M315.2,219c-4.8,0.7-6.8-0.3-5.6-6c1.1-5.1,0.2-10.5,0.3-15.8c0-5.2,2.3-8.3,5.9-8c4,0.3,7.2,5.2,6.5,9.8
		c-0.8-2.1-1.8-4.3-4.5-3.8c-2.6,0.6-2.7,3.1-2.7,5.3C315.2,206.7,315.2,212.8,315.2,219z"/>
	<path class="st15" d="M317.9,166.1c-4.7,0.8-6.5-1.1-6-5.9c0.4-4.1,0.3-8.2,0-12.4c-0.2-3.9,1-6.7,5.2-6.7c4,0,6.9,2,7.8,6.1
		c0.2,0.9,0,2,0,3c-1.6-1.6-2.9-4.1-5.6-3.1s-1.5,3.7-1.5,5.6C317.7,157.2,317.8,161.6,317.9,166.1z"/>
	<path class="st14" d="M49.3,167c-1.8,0.4-3.5,0.7-5.3,1.1c0-6.7,0-13.3-0.1-20c0-3.5,2.2-5.5,4.9-6.7c4.8-2.2,8,0.5,8.2,6.5
		c-4.6-1.8-6.8-0.9-7.2,3.7C49.3,156.7,49.4,161.8,49.3,167z"/>
	<path class="st21" d="M31.9,169.6c-2,0.5-3.9,1-5.9,1.5c0-5-0.1-10-0.1-15c0-1.6-0.1-3.3,0.1-4.9c0.5-3.6,2-6.4,6.3-6.1
		c4.2,0.3,3.5,3.5,3.5,6.3c-3.1-1.3-3.9,0.5-3.9,3C31.8,159.4,31.9,164.5,31.9,169.6z"/>
	<path class="st14" d="M341,169.3c-6.3,1.3-7.9,0.1-8-5.8c0-4.3,0-8.6-0.1-12.9c-0.1-3.3,1.1-5.6,4.8-5.4c3.4,0.1,5.1,3,4.4,7
		c-1.5-1.2-3.1-2.2-3.2,0.9c-0.1,4.8,0.1,9.6,0.2,14.4C339.1,168.6,340,169,341,169.3z"/>
	<path class="st16" d="M336.2,219c-4.1,0.7-5.6-0.8-5.3-5.1c0.3-5,0.1-10,0.1-14.9c0-3-0.2-6.7,3.9-6.7c4,0,5.5,3.1,5.2,7
		c-2.6-2-3.9-1.2-3.9,2C336.1,207.1,336.2,213.1,336.2,219z"/>
	<path class="st16" d="M12.9,155.1c0.2-6.5,1.1-7.4,6.1-6c0,6.3,0,12.7,0,19c0.7,4-2.3,4.5-5.1,5.1c-0.3,0-0.6-0.1-1-0.1l0,0
		C13,167,12.9,161.1,12.9,155.1z"/>
	<path class="st21" d="M350,149c5-1,6.7,1,5.7,6.3c-1.1,5.8-1.2,11.6,0.2,17.3c-6,0.6-6.4-3.2-6-7.6C349.9,159.7,350,154.4,350,149z
		"/>
	<path class="st16" d="M353,197c-1.4,6-1,12.2-1,18.3c0,1.9,0.1,3.8-2.7,3.7c-2.5-0.1-2.3-1.9-2.3-3.5c0-6.1-0.1-12.3-0.1-18.4
		C348.9,194.1,351,194.2,353,197z"/>
	<path class="st17" d="M294.9,163c9.1-0.1,9.1-0.1,9.1-9.3c0-2.6,0.3-5.3-0.9-7.8c0.8-0.4,0.9-1.1,0.9-1.9c2,6.3,0.6,12.8,0.8,19.1
		c0.1,1.8-1.7,2.1-2.9,1.7C299.6,164.1,296.9,164.7,294.9,163z"/>
	<path class="st17" d="M247.2,194c0.2,0,0.5,0,0.7,0c2.1,3.2,1,6.7,0.9,10.1c-0.1,5,1.3,10.2-0.9,15.1l-0.3-0.3
		C247.9,210.5,248.5,202.2,247.2,194z"/>
	<path class="st17" d="M120.9,193.1c0,8.7,0.1,17.3,0.1,26c-2.1-3.2-1-6.7-0.9-10C120.2,203.7,118.9,198.3,120.9,193.1z"/>
	<path class="st17" d="M256.9,193.1c0,8.7,0,17.3,0.1,26c-2.1-3.2-1-6.7-0.9-10C256.2,203.7,254.9,198.3,256.9,193.1z"/>
	<path class="st17" d="M285.9,195.1c0,8,0.1,16,0.1,24C284.2,211.1,284.4,203.1,285.9,195.1z"/>
	<path class="st17" d="M43.9,148.1c0,6.7,0,13.3,0.1,20C42.3,161.4,42.4,154.7,43.9,148.1z"/>
	<path class="st17" d="M19,168c0-6.3,0-12.7,0-19C20.6,155.4,20.5,161.7,19,168z"/>
	<path class="st17" d="M12.9,155.1c0,6,0,12,0.1,18C11.3,167.1,11.4,161.1,12.9,155.1z"/>
	<path class="st17" d="M350,149c0,5.3-0.1,10.6-0.1,16C348.4,159.7,348.3,154.4,350,149z"/>
	<path class="st17" d="M25.9,156.1c0,5,0.1,10,0.1,15C24.2,166.1,24.5,161.1,25.9,156.1z"/>
	<path class="st21" d="M219.2,143c-0.1-0.6-0.2-1.3-0.3-1.9C219.8,141.5,220,142.2,219.2,143z"/>
	<path class="st17" d="M292,163.1c0.3,0,0.7,0,1,0C292.7,163.6,292.3,163.7,292,163.1z"/>
	<path class="st17" d="M218,192c0-0.3,0-0.7,0-1c0.1,0.2,0.3,0.5,0.3,0.7C218.4,191.8,218.1,192,218,192z"/>
	<path class="st17" d="M13,173c0.3,0,0.7,0,1,0.1C13.6,173.7,13.2,173.6,13,173z"/>
	<path class="st14" d="M116.9,82.1c-2.8-2.4-5.8-3.9-9.4-1.8c-3.3,1.9-4.7,4.9-4.5,8.7c0.2,3.6,0.2,7.3,0.2,10.9
		c-6.2,0.5-6.4,0.5-6.2-6.1c0.1-5-1.1-10.3,2-15c2.7-4.2,7.7-6.4,12.6-4.7C115,75.4,117.5,77.9,116.9,82.1z"/>
	<path class="st21" d="M70.9,93.1c-0.2-4.9-0.2-9.6,4.4-12.9c3-2.1,6.2-2.6,9.2-0.7c2.6,1.7,4.3,4.1,2.8,7.5
		c-1.1-2.5-3.1-3.5-5.6-2.6c-2.9,0.9-4.7,3-4.8,6.1c-0.1,4.8-0.2,9.5-0.3,14.3c-1.9,0.4-3.7,0.8-5.6,1.2
		C71,101.7,70.9,97.4,70.9,93.1z"/>
	<path class="st14" d="M54,112c-6,1.6-6,1.6-6-4.7c0-4,0.1-8,0-12c0-2.9,1.1-5.2,3.2-7c2.3-2,5.1-2.7,7.8-1.1
		c2.5,1.5,3.4,3.9,2.3,6.8c-3.5-2.7-6.9-1.3-7.2,3.2C53.8,102.1,54,107.1,54,112z"/>
	<path class="st21" d="M37.8,118c-1.1,0.4-2.2,0.7-3.2,1.2c-2.1,1-2.7,0.1-2.6-1.8c0-4.8-0.3-9.6,0.1-14.3c0.3-3,2.4-5.5,5.7-4.7
		c2.5,0.6,3.9,2.9,2.2,5.7c-2.2,0.4-2.1,2.1-2.1,3.8C37.9,111.2,37.8,114.6,37.8,118z"/>
	<path class="st14" d="M24.1,118.4c-0.9,2.9,1.9,7.2-3.4,8.1c-1.8,0.3-2.5-1.9-1.6-8.1c0.4-2.5-0.3-7.1,3-6.9
		C26.1,111.8,22.8,116.2,24.1,118.4z"/>
	<path class="st17" d="M70.9,93.1c0,4.3,0.1,8.6,0.1,13C69.2,101.7,69.4,97.4,70.9,93.1z"/>
	<path class="st14" d="M117.2,84c-0.1-0.6-0.2-1.3-0.3-1.9C117.9,82.5,118,83.2,117.2,84z"/>
	<path class="st13" d="M0,208c2.4-5,1.8-10.6,2.4-15.9c1.3-11.6,2.3-23.3,3.5-34.9c3.1-8,10-12.2,17-16.1c14.7-8.2,30.8-12.3,47-16
		c16.5-3.8,33.2-5.9,50-8c10.3-1.3,20.8-1.8,31.2-2.7c1.4-0.1,2.4,0.2,2.7,1.5c1.3,5.6,5.2,6.8,10.3,7.4c7.5,1,8.4,0.5,6.6-6.8
		c-1.5-6.1-0.7-7.5,4.9-10c6.4-2.8,13.3-4.2,19.4-7.6c21.3,0.1,42.6-0.4,63.8,1.2c25.9,2,51.5,5.7,75.1,17.7
		c5.7,2.9,10.7,6.7,15.7,10.6c7.7,6,8.4,14.6,9.3,23.2c1.9,20.5,3.9,40.9,5.9,61.4c0.3,2.6,0.3,5-1.9,6.9c-3,0-6,0-9,0
		c0-2.1,0.1-4.3,0-6.4c-0.4-5.5,1.1-11.1-0.9-16.6c-2-2.8-4.1-2.9-6.1,0c-1.4,1.3-0.9,3.1-0.9,4.7c-0.1,6.1,0,12.2,0,18.3
		c-23,0-46,0-69,0c0-3.1,0.1-6.3,0-9.4c-0.3-5.9,1-11.8-0.8-17.6c-0.9-3.1-2-6.1-4.9-7.9c-6.3-4.1-11.6-1.1-14.3,7.9
		c-2,5.2-0.7,10.6-0.8,16c-0.1,3.3-1.2,6.8,0.9,10l0,0c0,0.3,0,0.7,0,1c-3,0-6,0-9,0c0-0.3,0-0.7,0-1c2.1-4.9,0.7-10,0.9-15.1
		c0.1-3.3,1.2-6.9-0.9-10.1c-0.1-1.1,0.1-2.4-0.3-3.4c-1.7-4.3-4-8.2-9.3-8.5c-5.6-0.2-7.6,3.8-9.2,8.2c-0.7,2-1.1,4.1-1.1,6.3
		c0.1,7.5,0,14.9,0,22.4c0,0.3,0,0.7,0,1c-3,0-6,0-9,0c0-7,0.1-14,0-21c0-1.7,0.7-3.7-1.2-5.1c-0.1-0.2,0-0.3,0.2-0.4
		c0-0.5,0.1-1,0.1-1.5c0.1-0.1,0.4-0.2,0.3-0.3c-0.1-0.2-0.2-0.5-0.3-0.7c-0.8-1.8-1.3-3.8-2.4-5.4c-5-7.9-14.4-8.9-19.4-2
		c-2.8,3.8-4.3,8.2-4.3,13c0,7.5,0,15,0,22.4c0,0.3,0,0.7,0,1c-17,0-34,0-51,0c0-2.5,0.1-5,0-7.4c-0.4-5.9,1.1-11.8-0.9-17.6
		c-0.1-0.6-0.1-1.1-0.2-1.7c0.1-5.9-2.5-10.1-7-11.1c-4.5-1.1-8.6,1.6-11,7.1c-0.5,1.2-0.7,2.5-1,3.8c-2,5.2-0.7,10.6-0.8,16
		c-0.1,3.3-1.2,6.8,0.9,10l0,0c0,0.3,0,0.7,0,1c-23,0-46,0-69,0c0-0.4,0.1-0.7,0.1-1.1c6.9,0.3,6.9,0.3,6.9-6.6
		c0-5.3-0.1-10.5-0.1-15.8c0.6-3.6-0.7-6.4-4.2-7.3c-3.8-0.9-6.2,1.3-7.7,4.7c-0.8,1.9-1,3.8-1,5.8c0,6.8,0,13.5,0,20.3
		c-2.3,0-4.7,0-7,0c0-7.4,0-14.8-0.1-22.3c0-2.5-0.6-5.1-3.7-5.6c-3.1-0.5-5.6,0.4-6.3,4c-1.5,1.3-0.9,3.1-0.9,4.7
		c-0.1,6.4,0,12.9,0,19.3c-1.7,0-3.3,0-5,0c0-3.5,0.2-7-0.1-10.4c-0.3-4.5,1.2-9.2-0.9-13.6c-2.4-1.8-4.4-1.6-6.1,1
		c-1.5,1.3-0.9,3.1-0.9,4.7c-0.1,6.1,0,12.2,0,18.3c-4.3,0-8.7-0.1-13,0.1c-1.7,0.1-2.2-0.3-2.1-2.1C0.1,214.7,0,211.4,0,208z
		 M13,173c0.3,0.5,0.6,0.6,1,0.1c2.8-0.6,5.7-1,5.1-5.1c1.5-6.3,1.6-12.7,0-19c-4.9-1.4-5.8-0.5-6.1,6C11.4,161.1,11.3,167.1,13,173
		L13,173z M350,149c-1.7,5.3-1.6,10.6-0.1,16c-0.4,4.5,0,8.3,6,7.6c-1.4-5.8-1.4-11.5-0.2-17.3C356.7,150,355,148.1,350,149z
		 M339.9,199.2c0.3-3.8-1.1-7-5.2-7s-3.9,3.7-3.9,6.7c0,5,0.3,10-0.1,14.9c-0.3,4.2,1.2,5.8,5.3,5.1c2.6,0.4,3.9-0.5,3.8-3.5
		C339.8,210.1,340,204.7,339.9,199.2z M342.1,152.1c0.7-4-1-6.9-4.4-7c-3.7-0.1-4.8,2.1-4.8,5.4c0.1,4.3,0,8.6,0.1,12.9
		c0,5.9,1.6,7.1,8,5.8c1.3-0.2,2-0.9,2-2.3C342.7,162,343.3,157,342.1,152.1z M26,171c2-0.5,3.9-1,5.9-1.5c2.5-0.1,3.2-1.5,3.2-3.9
		c0-4.8-0.6-9.6,0.7-14.3c0-2.8,0.7-6-3.5-6.3c-4.3-0.3-5.8,2.5-6.3,6.1c-0.2,1.6-0.1,3.3-0.1,4.9C24.5,161.1,24.2,166.1,26,171z
		 M57,147.9c-0.2-6-3.3-8.7-8.2-6.5c-2.7,1.2-5,3.2-4.9,6.7c-1.5,6.7-1.6,13.3,0.1,20c1.8-0.4,3.5-0.7,5.3-1.1
		c7.4-0.6,7.4-0.6,7.5-8.1C56.9,155.2,56.9,151.6,57,147.9z M324.9,150.2c0-1,0.2-2,0-3c-0.9-4.2-3.8-6.1-7.8-6.1
		c-4.2,0-5.5,2.7-5.2,6.7c0.2,4.1,0.4,8.3,0,12.4c-0.5,4.9,1.3,6.7,6,5.9c5.7,1.4,7.1,0.4,7.1-5C325,157.5,325,153.8,324.9,150.2z
		 M322.3,199c0.8-4.6-2.5-9.5-6.5-9.8c-3.6-0.3-5.9,2.8-5.9,8c0,5.3,0.8,10.7-0.3,15.8c-1.2,5.7,0.7,6.8,5.6,6
		c7.8,0,6.7,0.8,6.8-6.7C322.1,207.9,322.2,203.4,322.3,199z M294.9,163c2,1.7,4.7,1.1,7,1.9c1.2,0.4,3,0.1,2.9-1.7
		c-0.2-6.4,1.2-12.8-0.8-19.1c-0.1-1.2-0.7-2.1-1.5-3c-2.7-3-5.8-5-10.1-3.6c-4.4,1.4-4.6,5.1-4.5,8.9c0.1,4.3,0.2,8.6,0,12.9
		c-0.2,3.2,1.2,4.1,4.1,3.9c0.3,0.5,0.7,0.5,1,0c0.4,0,0.9-0.1,1.3-0.1l0.3-0.1L294.9,163z M70,164c10.8-0.7,10.8-0.7,10.9-11.4
		c0-2.5,0-5,0.1-7.4c0.2-3.1-0.3-6-3.6-7.5c-3.2-1.5-6.1-0.8-8.8,1.2c-3.1,2.4-4.5,5.6-4.5,9.4c0,3.6,0,7.3,0,10.9
		C64,165.5,64,165.5,70,164z M285.9,195.1c-1.5,8-1.7,16,0.1,24c2,0,3.9,0,5.9,0c1.6,0,3.3-0.3,4.9,0c4.1,0.6,5.5-1,5.2-5.2
		c-0.4-5.8-0.1-11.5-0.2-17.3c-0.2-5.8-3.1-9.8-7.8-10.3C290.5,185.9,286.9,189.6,285.9,195.1z M218.9,141L218.9,141
		c-0.3-7.5-6-13-13.4-12.9c-6.6,0-13.1,6.2-13.4,13c-0.2,3.3,0.3,6.7-0.1,9.9c-0.8,5.5,1.7,6.8,6.5,6c2.3,0,4.7,0,7-0.1
		c4.3-0.1,9.8,1.5,12.6-0.6c3.1-2.3,0.6-8.1,1.1-12.3c0-0.3,0.1-0.7,0.1-1C220,142.2,219.8,141.5,218.9,141z M235.2,158
		c4.5-0.6,10.6,2.3,13.1-1c2.2-3,0.6-8.8,0.7-13.4c0-0.7,0-1.3,0-2c-0.2-5.7-4.7-10.3-10.2-10.5c-5.3-0.2-9.6,4.4-9.7,10.4
		c-0.1,3.5,0.3,7-0.1,10.4C228.3,157,230.2,158.9,235.2,158z M264.3,160c3.3,0,6.7-0.3,9.9,0.6c2.8,0.8,4,0,3.9-3.1
		c-0.2-4.3-0.1-8.6-0.1-13c-0.2-6.5-4.9-11.5-10.7-11.3c-6,0.2-9.2,4.2-9.3,11.2c0,3.2,0.3,6.4-0.1,9.5
		C257.2,159.2,259.3,160.9,264.3,160z M139.3,141.9c0.2-0.8,0.7-1.6,0.6-2.3c-0.6-4.6-4.5-8.2-8.9-8.5c-4.2-0.3-9.7,3.6-11,7.8
		c-1.4,4.5-0.9,9.2-1,13.8c-0.1,6.5,0,6.5,6.4,6.3c3.3-1.3,6.8-0.8,10.2-0.8c2.5,0,3.5-0.9,3.5-3.4
		C139,150.4,139.2,146.2,139.3,141.9z M72.4,219c1.8,0,3.7-0.1,5.5,0.1c4.3,0.6,5.4-1.3,5.2-5.3c-0.3-5.8-0.1-11.6-0.1-17.4
		c-0.2-5.7-3.7-10.3-7.9-10.3c-4.4,0-8.1,4.8-8.1,10.7c0,5.6,0.3,11.3-0.1,16.9C66.6,218,67.9,219.9,72.4,219z M96.1,161
		c3.8-0.3,7.6-0.7,11.4-0.9c1.5-0.1,2.5-0.6,2.6-2.3c0.2-4.9,1.2-9.9,0.1-14.8c1.6-2,0.4-3.9-0.6-5.5c-2.2-3.4-5.4-4.9-9.4-4
		c-4.6,1-8.5,3.4-9.2,8.6c-0.6,4.7-0.9,9.6-1,14.3C89.9,162.5,90,162.5,96.1,161z M175.9,140.6c-0.2-6.1-3.7-10.4-9.5-11.4
		c-5.2-0.9-11.2,2.5-13.2,7.5c-2,4.8-1.1,9.8-1.2,14.7c-0.1,6.5,0,6.5,6,5.7c4.8-0.1,9.6-0.2,14.4-0.1c2.5,0,3.6-0.9,3.5-3.5
		C175.8,149.2,175.9,144.9,175.9,140.6z M111.9,194.6c-0.2-5.6-4-10.9-8.4-11.4c-4.5-0.5-9.2,3.6-10.7,9.3
		c-1.7,6.7-0.3,13.6-0.9,20.3c-0.5,5,1.1,7.2,6.2,6.2c3.5,0,7-0.1,10.5,0.1c2.7,0.1,3.4-1,3.4-3.5
		C111.9,208.6,112,201.6,111.9,194.6z M159,219c4.2,0,8.3-0.3,12.5,0c3.4,0.2,4.7-0.8,4.6-4.4c-0.3-7-0.1-14-0.1-21
		c-0.2-7-4.6-12.9-10.1-13.6c-5.7-0.6-9.7,2.9-12.1,10.3c-0.6,1.8-0.8,3.5-0.8,5.4c0,5.8,0.3,11.7-0.1,17.5
		C152.5,218.2,154.4,219.8,159,219z"/>
	<path class="st14" d="M46,220c0-6.8,0-13.5,0-20.3c0-2,0.1-3.9,1-5.8c1.5-3.4,3.9-5.6,7.7-4.7c3.5,0.9,4.8,3.7,4.2,7.3
		c-4.2-2.5-6.6-1.2-6.8,4c-0.2,6.1,0,12.3,0,18.4c0,0.4-0.1,0.7-0.1,1.1C50,220,48,220,46,220z"/>
	<path class="st15" d="M28.9,196.1c0.7-3.5,3.2-4.5,6.3-4s3.7,3.1,3.7,5.6C39,205.1,39,212.5,39,220c-3.3,0-6.7,0-10,0
		C28.9,212.1,28.9,204.1,28.9,196.1z M38.1,208.6L38.1,208.6c0-2.7,0.1-5.3,0-8c0-1.1,0.1-2.5-1.6-2.5c-1.5,0-1.8,1.4-1.8,2.5
		c0,5.5,0,10.9,0,16.4c0,1.1,0.4,2,1.7,2s1.6-0.9,1.6-2C38.1,214.3,38.1,211.5,38.1,208.6z"/>
	<path class="st16" d="M15.9,197.1c1.6-2.6,3.7-2.8,6.1-1c0,8,0,16,0,24c-2,0-4,0-6,0C15.9,212.4,15.9,204.7,15.9,197.1z"/>
	<path class="st17" d="M346,220c0-6.1,0-12.2,0-18.3c0-1.6-0.5-3.3,0.9-4.7c0,6.1,0,12.3,0.1,18.4c0,1.7-0.2,3.4,2.3,3.5
		c2.8,0.1,2.7-1.8,2.7-3.7c0-6.1-0.3-12.3,1-18.3c2,5.4,0.5,11,0.9,16.6c0.2,2.1,0,4.3,0,6.4C351.3,220,348.6,220,346,220z"/>
	<path class="st18" d="M257,220c0-0.3,0-0.7,0-1c1.8-0.2,3.9,0.7,5.3-1.3c3.6,0.9,7.3,0.3,10.9,0.5c1.8,0.1,2.9-0.5,2.8-2.5
		c-0.3-7.2,0.9-14.6-0.9-21.7c0.4-0.3,0.7-0.6,1.1-0.9c1.8,5.8,0.5,11.7,0.8,17.6c0.2,3.1,0,6.3,0,9.4C270.3,220,263.6,220,257,220z
		"/>
	<path class="st17" d="M192,220c0-0.3,0-0.7,0-1c2,0,4.1,0,6.1,0c5.3,0,10.7-0.2,16-0.1c3,0.1,4.1-0.9,4-4c-0.3-7-0.2-14-0.3-21
		c1.9,1.3,1.2,3.3,1.2,5.1c0.1,7,0,14,0,21C210,220,201,220,192,220z"/>
	<path class="st18" d="M140.1,195c2,5.8,0.4,11.7,0.9,17.6c0.2,2.5,0,5,0,7.4c-6.7,0-13.3,0-20,0c0-0.3,0-0.7,0-1c2,0,4,0,6,0
		c3.1,0,6.3-0.3,9.4-0.1c2.8,0.1,3.7-1,3.7-3.7C139.9,208.5,140,201.7,140.1,195z"/>
	<path class="st17" d="M28.9,196.1c0,8,0,16,0.1,24c-0.3,0-0.7,0-1,0c0-6.4,0-12.9,0-19.3C28,199.2,27.4,197.4,28.9,196.1z"/>
	<path class="st17" d="M22,220c0-8,0-16,0-24c2.1,4.4,0.6,9.1,0.9,13.6c0.2,3.5,0.1,6.9,0.1,10.4C22.6,220,22.3,220,22,220z"/>
	<path class="st17" d="M15.9,197.1c0,7.7,0,15.3,0.1,23c-0.3,0-0.7,0-1,0c0-6.1,0-12.2,0-18.3C15,200.1,14.4,198.4,15.9,197.1z"/>
	<path class="st17" d="M228,220c0-0.3,0-0.7,0-1c2.1,0,4.1,0,6.2,0c4.5-0.1,9-0.2,13.5-0.2l0.3,0.3c0,0.3,0,0.7,0,1
		C241.3,220,234.6,220,228,220z"/>
	<path class="st16" d="M195,99c-6.1,3.4-13,4.8-19.4,7.6c-5.6,2.5-6.4,3.9-4.9,10c1.8,7.2,0.9,7.7-6.6,6.8
		c-5.1-0.6-9.1-1.8-10.3-7.4c-0.3-1.3-1.3-1.6-2.7-1.5c-10.4,0.9-20.8,1.4-31.2,2.7c-16.7,2.1-33.5,4.2-50,8
		c-16.2,3.7-32.3,7.9-47,16c-7,3.9-13.9,8.1-17,16.1c-4.3-7.7-3.9-10,3-18.2c7.6-4.1,14.9-8.6,22.9-12c29.4-12.4,60-18.5,91.7-20.1
		c8.8-0.4,17.6-0.8,26.4-0.8c2,0,3.1-0.7,3.1-2.9c0-2-0.6-3.1-2.8-3.2c-3.3-0.2-6.6-0.8-9.9-0.9c-2.5,0-4.1-0.9-5-3.2
		c-3.9-10.1-8.9-19.7-11.9-30.1c-1.1-3.7-3.2-4.3-6.3-3.6C93.4,67,70.3,73.6,48.9,85.2c-15.6,8.4-29.3,18.9-36.9,35.7
		c-0.4,0.8-1.3,1.5-1.9,2.2c-2.1-3.6-1.8-7.4-0.2-11c2-4.4,4.2-8.6,6.3-12.9c0.6-0.6,1.3-1.1,1.8-1.7
		c27.7-29.6,62.2-43.8,102.3-45.3c2.5-0.1,3.7-0.9,4.2-3.2c0.5-1.9,1-3.8,1.5-5.8c4,1,6.1,3.5,5.9,7.8c0,0.2,0,0.3,0,0.5
		c-2.1,13,3.3,25.3,4.1,38c0.2,2.6,2.1,3.6,4.5,3.6c4,0,8,0.2,11.9,0.1c4.9-0.1,9.6,0,13,4.5c1.3,1.7,3.6,1.4,5.6,1.4
		C179.1,99,187,99,195,99z"/>
	<path class="st19" d="M126,43.2c-0.5,1.9-1.1,3.8-1.5,5.8c-0.5,2.3-1.7,3.1-4.2,3.2C80.2,53.7,45.7,67.9,18,97.5
		c-0.6,0.6-1.2,1.1-1.8,1.7c0.4-9,2.4-17.8,1.6-26.9c1.5-1,1.9-2.7,2.6-4.1C27.5,54,37.7,42.5,50.6,33.3
		c13.8-9.9,29.1-16.4,45.2-21.2c7.7-2.3,7.4-2.3,11.3,4.6c3,5.3,4.9,11.3,9.6,15.5c1.3,2.3,3.1,4.4,3.8,6.8
		C121.6,41.7,123.6,42.5,126,43.2z"/>
	<path class="st19" d="M10.1,123c0.6-0.7,1.5-1.4,1.9-2.2c7.6-16.8,21.4-27.3,36.9-35.7c21.4-11.6,44.5-18.2,68.2-22.9
		c3.1-0.6,5.2,0,6.3,3.6c3.1,10.4,8.1,20,11.9,30.1c0.9,2.3,2.4,3.2,5,3.2c3.3,0,6.6,0.7,9.9,0.9c2.2,0.1,2.8,1.2,2.8,3.2
		c0,2.2-1.1,2.9-3.1,2.9c-8.8,0-17.6,0.4-26.4,0.8c-31.7,1.6-62.4,7.7-91.7,20.1c-8,3.4-15.4,7.9-22.9,12
		C8.7,133.6,11.7,128.5,10.1,123z M37.8,118c2.4-0.3,2.1-2.1,2.1-3.7c0-3.4,0-6.8,0-10.3c1.7-2.9,0.3-5.1-2.2-5.7
		c-3.3-0.8-5.4,1.7-5.7,4.7c-0.4,4.7-0.1,9.5-0.1,14.3c0,2,0.6,2.8,2.6,1.8C35.6,118.7,36.7,118.4,37.8,118z M61.3,94
		c1.1-2.9,0.2-5.3-2.3-6.8c-2.7-1.6-5.5-0.9-7.8,1.1c-2.1,1.8-3.3,4.1-3.2,7c0.1,4,0,8,0,12c0,6.3,0,6.3,6,4.7c5.9-0.3,8-3.3,7.1-9
		C60.7,100,61.2,97,61.3,94z M87.3,87c1.6-3.4-0.2-5.9-2.8-7.5c-3-1.9-6.2-1.4-9.2,0.7c-4.6,3.3-4.6,8-4.4,12.9
		c-1.5,4.3-1.7,8.7,0.1,13c1.9-0.4,3.7-0.8,5.6-1.2c0.8-0.1,1.6-0.3,2.4-0.4c8-1.9,8-1.9,8.1-10C87.1,92,87.2,89.5,87.3,87z
		 M116.9,82L116.9,82c0.6-4.2-1.9-6.6-5.3-7.8c-4.9-1.7-9.8,0.5-12.6,4.7c-3.1,4.7-1.9,9.9-2,15c-0.2,6.5,0,6.5,6.2,6.1
		c1.5-0.3,2.9-0.7,4.4-0.8c9.4-1.1,9.4-1,9.5-10.2c0-1.7,0.1-3.3,0.2-5C118,83.2,117.9,82.5,116.9,82z M24.1,118.4
		c-1.3-2.2,2-6.6-2-6.8c-3.3-0.2-2.6,4.4-3,6.9c-0.9,6.2-0.2,8.4,1.6,8.1C26,125.6,23.2,121.3,24.1,118.4z"/>
	<path class="st20" d="M116.8,32c-4.7-4.2-6.6-10.2-9.6-15.5c-3.9-6.8-3.6-6.9-11.3-4.6c-16.1,4.8-31.4,11.3-45.2,21.2
		c-13,9.2-23.1,20.7-30.2,34.9c-0.7,1.5-1.1,3.2-2.6,4.1c-2.4-1.7-1.8-3.8-1.1-6.2c6.9-21.5,21-37.4,39.7-49.4
		C68,9.1,80.6,3.9,93.8,0.5c6.2-1.6,10.3,0.4,12.8,6.2c3,6.8,6,13.7,8.9,20.5C116.2,28.8,117.3,30.2,116.8,32z"/>
	<path class="st21" d="M217.9,193.6c-0.2-0.2-0.5-0.4-0.7-0.7c-3.7-6.9-6.5-9-11.1-7.9c-4,0.9-7.9,6.2-8.1,12.1
		c-0.3,7.3,0,14.6,0.1,22c-2,0-4.1,0-6.1,0c0-7.5,0-15,0-22.4c0-4.8,1.5-9.2,4.3-13c5-6.9,14.4-5.9,19.4,2c1,1.7,1.6,3.6,2.4,5.4
		c0,0.3,0,0.7,0,1C218,192.6,218,193.1,217.9,193.6z"/>
	<path class="st21" d="M175.9,193.6c-0.3-0.4-0.7-0.7-0.9-1.1c-1.7-3.8-3.7-7.5-8.7-6.5s-6.9,5.3-7.2,9.7
		c-0.5,7.8-0.1,15.6-0.1,23.4c-4.7,0.8-6.5-0.9-6.2-5.9c0.4-5.8,0.1-11.6,0.1-17.5c0-1.8,0.2-3.6,0.8-5.4
		c2.4-7.4,6.4-10.9,12.1-10.3C171.3,180.7,175.7,186.6,175.9,193.6z"/>
	<path class="st21" d="M139.9,193.3c-1.9-2.6-3-6.4-7.3-5.3s-5.8,4.8-5.9,8.8c-0.1,7.4,0.1,14.8,0.2,22.3c-2,0-4,0-6,0l0,0
		c0-8.7-0.1-17.3-0.1-26c0.3-1.3,0.5-2.6,1-3.8c2.4-5.6,6.5-8.2,11-7.1C137.4,183.2,140,187.4,139.9,193.3z"/>
	<path class="st14" d="M234.2,219c-2.1,0-4.1,0-6.2,0c0-7.5,0.1-14.9,0-22.4c0-2.2,0.3-4.3,1.1-6.3c1.6-4.4,3.6-8.4,9.2-8.2
		c5.4,0.2,7.6,4.1,9.3,8.5c0.4,1,0.2,2.3,0.3,3.4c-0.2,0-0.5,0-0.7,0c-1.2-3.3-2.8-6.3-6.9-6c-3.4,0.2-4.6,2.9-5.5,5.7
		c-0.4,1.1-0.7,2.3-0.7,3.4C234,204.3,234.1,211.7,234.2,219z"/>
	<path class="st14" d="M111.9,194.6c-0.7-1.1-1.4-2.2-2.3-3.2c-2.5-3.1-5.6-3.2-8.4-0.3c-2.2,2.4-3.2,5.3-3.2,8.6
		c0,6.4,0.1,12.9,0.1,19.3c-5.2,1-6.7-1.2-6.2-6.2c0.7-6.7-0.8-13.6,0.9-20.3c1.5-5.7,6.1-9.9,10.7-9.3
		C107.9,183.7,111.8,189,111.9,194.6z"/>
	<path class="st21" d="M218.9,141.1c-4.8-6.5-9.7-8.5-15.1-6.1c-3.5,1.6-5.7,4.3-5.8,8c-0.2,4.6-0.5,9.3,0.3,13.9
		c-4.7,0.8-7.2-0.5-6.4-6c0.5-3.3,0-6.6,0.1-9.9c0.3-6.7,6.9-13,13.4-13C212.9,128.1,218.6,133.5,218.9,141.1z"/>
	<path class="st14" d="M175.9,140.6c-2.7-4.3-6.4-6.9-11.6-5.2c-5.2,1.8-6.5,6.1-6.3,11.2c0.2,3.5,0.1,7,0.1,10.5
		c-6.1,0.8-6.2,0.8-6-5.7c0.1-4.9-0.8-9.9,1.2-14.7c2.1-5.1,8-8.5,13.2-7.5C172.2,130.1,175.8,134.4,175.9,140.6z"/>
	<path class="st21" d="M262.2,217.8c-1.4,2-3.5,1.1-5.3,1.3l0,0c0-8.7,0-17.3-0.1-26c2.7-9,8-11.9,14.3-7.9c2.9,1.8,3.9,4.8,4.9,7.9
		c-0.3,0.3-0.7,0.6-1.1,0.9c-1.6-2.6-3.4-5.4-6.9-4.7c-3.7,0.8-5,4-5.5,7.5c-0.2,1.6-0.4,3.3-0.4,5
		C262.2,207.1,262.2,212.5,262.2,217.8z"/>
	<path class="st21" d="M301.9,196.5c-2-1.8-3.1-5.3-6.6-4.1c-3.7,1.2-3.6,4.7-3.6,7.9c0,6.3,0.1,12.5,0.2,18.8c-2,0-3.9,0-5.9,0
		c0-8-0.1-16-0.1-24c1-5.5,4.5-9.2,8.2-8.8C298.8,186.8,301.8,190.7,301.9,196.5z"/>
	<path class="st14" d="M139.3,141.9c-1.2-3.6-3.8-5.4-7.5-4.8c-4.1,0.7-6.4,3.5-6.6,7.5c-0.2,4.7,0.1,9.5,0.2,14.3
		c-6.4,0.2-6.4,0.2-6.4-6.3c0-4.6-0.5-9.2,1-13.8c1.3-4.1,6.8-8.1,11-7.8c4.5,0.3,8.3,3.9,8.9,8.5
		C140,140.3,139.5,141.1,139.3,141.9z"/>
	<path class="st14" d="M110.2,143c-1.4-3.2-4-4.5-7.3-3.7c-3.9,1-6.3,3.7-6.6,7.8c-0.3,4.6-0.2,9.3-0.2,13.9
		c-6.1,1.5-6.2,1.5-6.1-4.6c0.1-4.8,0.4-9.6,1-14.3c0.7-5.2,4.5-7.5,9.2-8.6c4-0.9,7.2,0.6,9.4,4C110.6,139.1,111.9,140.9,110.2,143
		z"/>
	<path class="st14" d="M277.9,144.5c-1.6-1.5-2.6-3.4-4.6-4.4c-4.8-2.4-9.3,0.1-9.4,5.5c-0.1,4.8,0.2,9.6,0.3,14.4
		c-4.9,0.9-7.1-0.8-6.4-6.1c0.4-3.1,0.1-6.3,0.1-9.5c0-7,3.3-11,9.3-11.2C273,133,277.8,138,277.9,144.5z"/>
	<path class="st21" d="M248.9,141.6c-1.2-1.1-2.3-2.4-3.7-3.3c-4.8-3-10.1-0.3-10.3,5.3c-0.2,4.8,0.1,9.6,0.2,14.4
		c-5,0.9-6.9-1-6.3-6.1c0.4-3.4,0-6.9,0.1-10.4c0.2-6,4.5-10.5,9.7-10.4C244.2,131.2,248.8,135.9,248.9,141.6z"/>
	<path class="st21" d="M82.9,196.4c-1.6-1.9-2.4-5.2-5.9-4.2c-3.5,1.1-4.8,4.1-4.8,7.4c-0.1,6.5,0.1,12.9,0.2,19.4
		c-4.5,0.9-5.8-1-5.5-5.4c0.4-5.6,0.1-11.2,0.1-16.9c0-5.9,3.7-10.7,8.1-10.7C79.3,186.1,82.7,190.7,82.9,196.4z"/>
	<path class="st14" d="M80.9,145.3c-1.8-2-4-3.1-6.6-1.9c-2.9,1.3-4.3,3.6-4.3,6.7c0,4.7,0,9.3-0.1,14c-6,1.5-6,1.5-6-4.7
		c0-3.6,0-7.3,0-10.9c0-3.9,1.4-7.1,4.5-9.4c2.7-2.1,5.6-2.7,8.8-1.2C80.6,139.3,81.1,142.1,80.9,145.3z"/>
	<path class="st15" d="M294.3,163c-0.4,0-0.9,0.1-1.3,0.1c-0.3,0-0.7,0-1,0c-2.8,0.2-4.2-0.7-4.1-3.9c0.2-4.3,0.1-8.6,0-12.9
		c-0.1-3.8,0.1-7.5,4.5-8.9c4.2-1.4,7.3,0.6,10.1,3.6c0.8,0.9,1.5,1.8,1.5,3c-0.1,0.7-0.2,1.5-0.9,1.9c-2-2.3-4.3-3.8-7.4-2.4
		c-2.9,1.3-2,4.3-2,6.6C293.8,154.4,294.1,158.7,294.3,163z"/>
	<path class="st21" d="M315.2,219c-4.8,0.7-6.8-0.3-5.6-6c1.1-5.1,0.2-10.5,0.3-15.8c0-5.2,2.3-8.3,5.9-8c4,0.3,7.2,5.2,6.5,9.8
		c-0.8-2.1-1.8-4.3-4.5-3.8c-2.6,0.6-2.7,3.1-2.7,5.3C315.2,206.7,315.2,212.8,315.2,219z"/>
	<path class="st15" d="M317.9,166.1c-4.7,0.8-6.5-1.1-6-5.9c0.4-4.1,0.3-8.2,0-12.4c-0.2-3.9,1-6.7,5.2-6.7c4,0,6.9,2,7.8,6.1
		c0.2,0.9,0,2,0,3c-1.6-1.6-2.9-4.1-5.6-3.1s-1.5,3.7-1.5,5.6C317.7,157.2,317.8,161.6,317.9,166.1z"/>
	<path class="st14" d="M49.3,167c-1.8,0.4-3.5,0.7-5.3,1.1c0-6.7,0-13.3-0.1-20c0-3.5,2.2-5.5,4.9-6.7c4.8-2.2,8,0.5,8.2,6.5
		c-4.6-1.8-6.8-0.9-7.2,3.7C49.3,156.7,49.4,161.8,49.3,167z"/>
	<path class="st21" d="M31.9,169.6c-2,0.5-3.9,1-5.9,1.5c0-5-0.1-10-0.1-15c0-1.6-0.1-3.3,0.1-4.9c0.5-3.6,2-6.4,6.3-6.1
		c4.2,0.3,3.5,3.5,3.5,6.3c-3.1-1.3-3.9,0.5-3.9,3C31.8,159.4,31.9,164.5,31.9,169.6z"/>
	<path class="st14" d="M341,169.3c-6.3,1.3-7.9,0.1-8-5.8c0-4.3,0-8.6-0.1-12.9c-0.1-3.3,1.1-5.6,4.8-5.4c3.4,0.1,5.1,3,4.4,7
		c-1.5-1.2-3.1-2.2-3.2,0.9c-0.1,4.8,0.1,9.6,0.2,14.4C339.1,168.6,340,169,341,169.3z"/>
	<path class="st16" d="M336.2,219c-4.1,0.7-5.6-0.8-5.3-5.1c0.3-5,0.1-10,0.1-14.9c0-3-0.2-6.7,3.9-6.7c4,0,5.5,3.1,5.2,7
		c-2.6-2-3.9-1.2-3.9,2C336.1,207.1,336.2,213.1,336.2,219z"/>
	<path class="st16" d="M12.9,155.1c0.2-6.5,1.1-7.4,6.1-6c0,6.3,0,12.7,0,19c0.7,4-2.3,4.5-5.1,5.1c-0.3,0-0.6-0.1-1-0.1l0,0
		C13,167,12.9,161.1,12.9,155.1z"/>
	<path class="st21" d="M350,149c5-1,6.7,1,5.7,6.3c-1.1,5.8-1.2,11.6,0.2,17.3c-6,0.6-6.4-3.2-6-7.6C349.9,159.7,350,154.4,350,149z
		"/>
	<path class="st16" d="M353,197c-1.4,6-1,12.2-1,18.3c0,1.9,0.1,3.8-2.7,3.7c-2.5-0.1-2.3-1.9-2.3-3.5c0-6.1-0.1-12.3-0.1-18.4
		C348.9,194.1,351,194.2,353,197z"/>
	<path class="st17" d="M294.9,163c9.1-0.1,9.1-0.1,9.1-9.3c0-2.6,0.3-5.3-0.9-7.8c0.8-0.4,0.9-1.1,0.9-1.9c2,6.3,0.6,12.8,0.8,19.1
		c0.1,1.8-1.7,2.1-2.9,1.7C299.6,164.1,296.9,164.7,294.9,163z"/>
	<path class="st17" d="M247.2,194c0.2,0,0.5,0,0.7,0c2.1,3.2,1,6.7,0.9,10.1c-0.1,5,1.3,10.2-0.9,15.1l-0.3-0.3
		C247.9,210.5,248.5,202.2,247.2,194z"/>
	<path class="st17" d="M120.9,193.1c0,8.7,0.1,17.3,0.1,26c-2.1-3.2-1-6.7-0.9-10C120.2,203.7,118.9,198.3,120.9,193.1z"/>
	<path class="st17" d="M256.9,193.1c0,8.7,0,17.3,0.1,26c-2.1-3.2-1-6.7-0.9-10C256.2,203.7,254.9,198.3,256.9,193.1z"/>
	<path class="st17" d="M285.9,195.1c0,8,0.1,16,0.1,24C284.2,211.1,284.4,203.1,285.9,195.1z"/>
	<path class="st17" d="M43.9,148.1c0,6.7,0,13.3,0.1,20C42.3,161.4,42.4,154.7,43.9,148.1z"/>
	<path class="st17" d="M19,168c0-6.3,0-12.7,0-19C20.6,155.4,20.5,161.7,19,168z"/>
	<path class="st17" d="M12.9,155.1c0,6,0,12,0.1,18C11.3,167.1,11.4,161.1,12.9,155.1z"/>
	<path class="st17" d="M350,149c0,5.3-0.1,10.6-0.1,16C348.4,159.7,348.3,154.4,350,149z"/>
	<path class="st17" d="M25.9,156.1c0,5,0.1,10,0.1,15C24.2,166.1,24.5,161.1,25.9,156.1z"/>
	<path class="st21" d="M219.2,143c-0.1-0.6-0.2-1.3-0.3-1.9C219.8,141.5,220,142.2,219.2,143z"/>
	<path class="st17" d="M292,163.1c0.3,0,0.7,0,1,0C292.7,163.6,292.3,163.7,292,163.1z"/>
	<path class="st17" d="M218,192c0-0.3,0-0.7,0-1c0.1,0.2,0.3,0.5,0.3,0.7C218.4,191.8,218.1,192,218,192z"/>
	<path class="st17" d="M13,173c0.3,0,0.7,0,1,0.1C13.6,173.7,13.2,173.6,13,173z"/>
	<path class="st14" d="M116.9,82.1c-2.8-2.4-5.8-3.9-9.4-1.8c-3.3,1.9-4.7,4.9-4.5,8.7c0.2,3.6,0.2,7.3,0.2,10.9
		c-6.2,0.5-6.4,0.5-6.2-6.1c0.1-5-1.1-10.3,2-15c2.7-4.2,7.7-6.4,12.6-4.7C115,75.4,117.5,77.9,116.9,82.1z"/>
	<path class="st21" d="M70.9,93.1c-0.2-4.9-0.2-9.6,4.4-12.9c3-2.1,6.2-2.6,9.2-0.7c2.6,1.7,4.3,4.1,2.8,7.5
		c-1.1-2.5-3.1-3.5-5.6-2.6c-2.9,0.9-4.7,3-4.8,6.1c-0.1,4.8-0.2,9.5-0.3,14.3c-1.9,0.4-3.7,0.8-5.6,1.2
		C71,101.7,70.9,97.4,70.9,93.1z"/>
	<path class="st14" d="M54,112c-6,1.6-6,1.6-6-4.7c0-4,0.1-8,0-12c0-2.9,1.1-5.2,3.2-7c2.3-2,5.1-2.7,7.8-1.1
		c2.5,1.5,3.4,3.9,2.3,6.8c-3.5-2.7-6.9-1.3-7.2,3.2C53.8,102.1,54,107.1,54,112z"/>
	<path class="st21" d="M37.8,118c-1.1,0.4-2.2,0.7-3.2,1.2c-2.1,1-2.7,0.1-2.6-1.8c0-4.8-0.3-9.6,0.1-14.3c0.3-3,2.4-5.5,5.7-4.7
		c2.5,0.6,3.9,2.9,2.2,5.7c-2.2,0.4-2.1,2.1-2.1,3.8C37.9,111.2,37.8,114.6,37.8,118z"/>
	<path class="st14" d="M24.1,118.4c-0.9,2.9,1.9,7.2-3.4,8.1c-1.8,0.3-2.5-1.9-1.6-8.1c0.4-2.5-0.3-7.1,3-6.9
		C26.1,111.8,22.8,116.2,24.1,118.4z"/>
	<path class="st17" d="M70.9,93.1c0,4.3,0.1,8.6,0.1,13C69.2,101.7,69.4,97.4,70.9,93.1z"/>
	<path class="st14" d="M117.2,84c-0.1-0.6-0.2-1.3-0.3-1.9C117.9,82.5,118,83.2,117.2,84z"/>
</g>
</svg>
