<?xml version="1.0" encoding="utf-8"?>
<!-- Generator: Adobe Illustrator 22.0.0, SVG Export Plug-In . SVG Version: 6.00 Build 0)  -->
<svg version="1.1" id="Layer_1" xmlns="http://www.w3.org/2000/svg" xmlns:xlink="http://www.w3.org/1999/xlink" x="0px" y="0px"
	 viewBox="0 0 174.6 307.8" style="enable-background:new 0 0 174.6 307.8;" xml:space="preserve">
<style type="text/css">
	.st0{fill:#2D24A3;}
	.st1{fill:#B77053;}
	.st2{fill:#ECE0D3;}
	.st3{fill:#E48868;}
	.st4{fill:#464473;}
	.st5{fill:#734E4F;}
	.st6{fill:#393762;}
	.st7{fill:#BA745D;}
	.st8{fill:#563616;}
	.st9{fill:#202070;}
	.st10{fill:#CFB199;}
	.st11{fill:#4E587F;}
	.st12{opacity:0.73;fill:#FFFFFF;enable-background:new    ;}
	.st13{fill:#F76433;}
	.st14{fill:#3A3863;}
	.st15{fill:#3026A2;}
	.st16{fill:#EEC13B;}
	.st17{fill:#F76636;}
	.st18{fill:#413C64;}
	.st19{fill:#E38B6C;}
	.st20{fill:#F9F3F0;}
	.st21{fill:#DB481E;}
	.st22{fill:#CA7C61;}
</style>
<g>
	<g>
		<g>
			<g>
				<path class="st0" d="M6046.6-5143.9v60.8h3.8c0,0,6.6-27.7,6.9-30.4s-1-11.2-1-11.2l5.7-22L6046.6-5143.9z"/>
			</g>
		</g>
		<g>
			<g>
				<path class="st0" d="M6044.6-5143.9v60.8h-3.8c0,0-6.6-27.7-6.9-30.4s1-11.2,1-11.2l-5.7-22L6044.6-5143.9z"/>
			</g>
		</g>
		<g>
			<g>
				<polygon class="st1" points="6046.2,-5099.9 6046.6,-5080 6046.6,-5075.7 6052.1,-5075.7 6050.1,-5079.4 6055.1,-5099.9 				"/>
			</g>
		</g>
	</g>
	<g>
		<g>
			<path class="st2" d="M6056.3-5213.8c1.9,4.5,8.4,5.3,10.6,9.6c1.4,2.9,0.3,6.6-1.9,8.9c-2.3,2.3-5.4,3.6-8.6,4.4
				c-7,1.9-14.5,2.4-21.5,0.2c-2.5-0.8-4.9-1.9-6.8-3.6s-3.4-4.1-3.5-6.7s1.1-5.3,3.3-6.6c1.4-0.8,3.1-1,4.2-2.1
				c1.7-1.6,1.7-4.2,1.6-6.6c-0.1-4.3,0.1-8.7,0.7-13c0.4-3.3,1.2-6.8,3.4-9.3c2.5-2.7,6.5-3.7,10.1-2.9s6.5,3.6,8.1,6.9
				s1.9,7.1,1.2,10.7C6056.5-5220.4,6055-5216.9,6056.3-5213.8z"/>
		</g>
	</g>
	<g>
		<g>
			<path class="st3" d="M6024.2-5159.5c0,0-2.3,4.2-2.5,5.6s-0.2,2.1,0.9,1.8s-0.1,1.9,1.5,1.7c1.6-0.2,4.3-4.5,4.3-4.5l-2.7-3.7
				L6024.2-5159.5z"/>
		</g>
	</g>
	<g>
		<g>
			<path class="st4" d="M6066.4-5142.5c0,0-1.9-27.7-11.7-42l2.5-13.6c0,0,4.2-3.6,3.3-9.1v-7.5c0,0-11.6-5.5-14.4-5.5
				s-15.3,6.1-15.3,6.1s0,5.2,0,7c0,1.9,0.2,6.1,3,8.7l3.1,13.7c0,0-11.2,12-12.7,43.1C6024.2-5141.4,6049.3-5138.6,6066.4-5142.5z"
				/>
		</g>
	</g>
	<g>
		<g>
			<path class="st4" d="M6030.7-5214.1c-2.2,1.4-3.3,3.1-3.6,4.4s-3.1,28.4-3,32c0.2,3.6-2.8,2.8-1.6,8s-3,4.8-1.1,8.3l0.5,2.8
				l4,0.9l4.1-12l3.6-28.6L6030.7-5214.1z"/>
		</g>
	</g>
	<g>
		<g>
			<path class="st1" d="M6073.2-5150.2c3.5-0.6-2.3-10.1-6.2-12.6c-3.9-2.5-11.6-4.6-13.6-4.1S6059.6-5147.6,6073.2-5150.2z"/>
		</g>
	</g>
	<g>
		<g>
			<path class="st1" d="M6053.4-5166.9c-1.7,0-2.3,1.6-2.3,3.4c0,1.9,4.1,21.3,7.2,23s13.6,1.4,14.2-1.9s-1.1-10.8-1.1-10.8
				L6053.4-5166.9z"/>
		</g>
	</g>
	<g>
		<g>
			<polygon class="st1" points="6053.4,-5166.9 6035.9,-5216.5 6033,-5215.1 6051.1,-5163.4 			"/>
		</g>
	</g>
	<g>
		<g>
			<path class="st3" d="M6054.6-5184.5l-3.1,1.8c0,0-3.3-1.4-4.2-1.2l0.7,1.9c0,0-5.5,1.5-5.5,1.8s0,1.7,0,1.7l2-0.4
				c0,0-0.2,1,0,1.2s0.7,0.4,0.7,0.4s0.2,0.8,0.6,1.6s0.4,1.4,1.1,1.9s4.9-1.4,5.4-1.8c0.6-0.3,4.5-4.6,4.5-4.6L6054.6-5184.5z"/>
		</g>
	</g>
	<g>
		<g>
			<path class="st5" d="M6069.1-5149.6c0.6,0,1.2-0.1,1.8-0.2c0.2,0,0.3-0.2,0.2-0.3c0-0.2-0.2-0.3-0.3-0.2
				c-3.5,0.6-7.5-0.8-10.6-3.9c-2.8-2.8-4.6-6.4-6.3-10.1c-0.1-0.1-0.2-0.2-0.4-0.1c-0.1,0.1-0.2,0.2-0.1,0.4
				c1.7,3.8,3.5,7.4,6.4,10.3C6062.5-5151.1,6065.9-5149.6,6069.1-5149.6z"/>
		</g>
	</g>
	<g>
		<g>
			<path class="st5" d="M6068-5152.4c1.3,0,2.6-0.1,3.9-0.4c0.2,0,0.3-0.2,0.2-0.3c0-0.2-0.2-0.3-0.3-0.2c-1.7,0.3-3.3,0.4-5,0.3
				c-0.2,0-0.3,0.1-0.3,0.3c0,0.2,0.1,0.3,0.3,0.3C6067.2-5152.4,6067.6-5152.4,6068-5152.4z"/>
		</g>
	</g>
	<g>
		<g>
			<path class="st5" d="M6061.8-5141.1c0.1,0,0.1,0,0.2-0.1s0.1-0.3,0-0.4c-5.4-6.5-8.7-14.6-9.3-23.1c0-0.2-0.2-0.3-0.3-0.3
				c-0.2,0-0.3,0.2-0.3,0.3c0.6,8.5,3.9,16.8,9.4,23.4C6061.6-5141.1,6061.7-5141.1,6061.8-5141.1z"/>
		</g>
	</g>
	<g>
		<g>
			<path class="st5" d="M6045.5-5182.6h0.1c0.2-0.1,0.2-0.2,0.2-0.4l-4-10.9c-0.1-0.2-0.2-0.2-0.4-0.2c-0.2,0.1-0.2,0.2-0.2,0.4
				l4,10.9C6045.2-5182.7,6045.3-5182.6,6045.5-5182.6z"/>
		</g>
	</g>
	<g>
		<g>
			<path class="st4" d="M6060.4-5214.7c3,1.4,8,28,7.3,29.2c-0.6,1.2-8,8.9-10.5,9.7l-2.7-8.7l4.7-4.1l-2.2-9.5L6060.4-5214.7z"/>
		</g>
	</g>
	<g>
		<g>
			<path class="st6" d="M6042.8-5206.3C6042.8-5206.3,6042.9-5206.3,6042.8-5206.3c3.1-0.7,5.9-2.5,7.9-4.9c0.1-0.1,0.1-0.3-0.1-0.4
				c-0.1-0.1-0.3-0.1-0.4,0.1c-1.8,2.4-4.5,4.1-7.4,4.7c-0.2,0-0.3,0.2-0.2,0.4C6042.6-5206.4,6042.7-5206.3,6042.8-5206.3z"/>
		</g>
	</g>
	<g>
		<g>
			<path class="st6" d="M6033.8-5198.3c0.1,0,0.1,0,0.2,0c0.1-0.1,0.2-0.3,0.1-0.4c-1.9-3.1-2.2-7-0.8-10.4l0.1-0.1l-0.1-0.1
				c-0.2-0.4-0.4-0.9-0.6-1.4s-0.4-1-0.7-1.4c-0.1-0.1-0.3-0.2-0.4-0.1s-0.2,0.3-0.1,0.4c0.2,0.4,0.4,0.9,0.7,1.4
				c0.2,0.4,0.4,0.9,0.6,1.3C6031.4-5205.6,6031.7-5201.5,6033.8-5198.3C6033.6-5198.4,6033.7-5198.3,6033.8-5198.3z"/>
		</g>
	</g>
	<g>
		<g>
			<path class="st6" d="M6057.4-5198.3c0.1,0,0.2,0,0.2-0.1c2-3.2,2.3-7.3,0.9-10.8c0.2-0.4,0.4-0.8,0.6-1.3s0.4-0.9,0.6-1.4
				c0.1-0.1,0-0.3-0.1-0.4s-0.3,0-0.4,0.1c-0.2,0.4-0.4,0.9-0.7,1.4c-0.2,0.5-0.4,0.9-0.6,1.4l-0.1,0.1l0.1,0.1
				c1.4,3.3,1.1,7.3-0.8,10.4c-0.1,0.1,0,0.3,0.1,0.4C6057.3-5198.3,6057.4-5198.3,6057.4-5198.3z"/>
		</g>
	</g>
	<g>
		<g>
			<path class="st6" d="M6026.6-5158.9c0.1,0,0.3-0.1,0.3-0.2c0.8-4.4,2.1-8.7,3.6-12.9c0.1-0.2,0-0.3-0.2-0.4
				c-0.1-0.1-0.3,0-0.4,0.2c-1.6,4.2-2.8,8.6-3.6,13C6026.3-5159.1,6026.4-5158.9,6026.6-5158.9L6026.6-5158.9z"/>
		</g>
	</g>
	<g>
		<g>
			<path class="st6" d="M6057.8-5176.3h0.1c0.1-0.1,0.2-0.2,0.2-0.4l-0.9-2.2c-0.1-0.2-0.2-0.2-0.4-0.2c-0.1,0.1-0.2,0.2-0.2,0.4
				l1,2.2C6057.6-5176.3,6057.7-5176.3,6057.8-5176.3z"/>
		</g>
	</g>
	<g>
		<g>
			<polygon class="st1" points="6045.1,-5099.9 6044.6,-5080 6044.6,-5075.7 6039.2,-5075.7 6041.1,-5079.4 6036.2,-5099.9 			"/>
		</g>
	</g>
	<g>
		<g>
			<path class="st3" d="M6048.6-5224.2v6.9c0,0-3.5,5.9-6.7,0.1l0.3-7H6048.6z"/>
		</g>
	</g>
	<g>
		<g>
			<path class="st3" d="M6047.2-5240.5c5.9,0.8,6.9,7.6,5.5,13c-1.1,4-3.5,8.1-7.3,8s-6.1-5.3-6.8-8.5
				C6037.5-5233.1,6037.7-5241.8,6047.2-5240.5z"/>
		</g>
	</g>
	<g>
		<g>
			<path class="st3" d="M6051.9-5229c0,0,0.2-2.3,2.1-1.5c1.8,0.8-0.4,5.9-2.4,5.3S6051.9-5229,6051.9-5229z"/>
		</g>
	</g>
	<g>
		<g>
			<path class="st3" d="M6039.7-5229.1c0,0-0.1-2.3-1.9-1.7c-1.9,0.6,0,5.9,2.1,5.4C6041.9-5225.7,6039.7-5229.1,6039.7-5229.1z"/>
		</g>
	</g>
	<g>
		<g>
			<path class="st7" d="M6045.3-5219.2c0.9,0,1.8-0.2,2.6-0.7c0.1-0.1,0.2-0.3,0.1-0.4s-0.3-0.2-0.4-0.1c-1.4,0.9-3.4,0.8-4.8-0.2
				c-0.1-0.1-0.3-0.1-0.4,0.1c-0.1,0.1-0.1,0.3,0.1,0.4C6043.3-5219.4,6044.3-5219.2,6045.3-5219.2z"/>
		</g>
	</g>
	<g>
		<g>
			<path class="st8" d="M6042.4-5236.8c-0.1,3.6,0.6,7.3,2.5,10.4s5.1,5.4,8.7,5.8c1.3-3.1,2.2-6.5,1.9-9.9
				c-0.4-3.3-1.9-6.6-4.6-8.6s-6.6-2.5-9.5-0.9c-2.5,1.4-4,4-4.6,6.8c-0.7,2.7-0.6,4.3-0.5,7.1
				C6040.3-5228.4,6042.9-5232.1,6042.4-5236.8z"/>
		</g>
	</g>
</g>
<g>
	<g>
		<g>
			<g>
				<g>
					<g>
						<path class="st3" d="M6177.8-5204.3l-2.5-9.5c0,0-3.6,1-5.2-0.6c-0.7-0.6-1.3-3.4-1.5-7.8c0-0.5-1.8,0.5-1.8,0
							c0-0.9,3.1-5.2,2.9-7c-1-6.4-0.5-8.1,1.4-9.9c4.1-4,18.5-4.6,20.4,2.4c2,7,1.3,10.4-2.2,20.3l2.2,9.9L6177.8-5204.3z"/>
					</g>
				</g>
			</g>
			<g>
				<g>
					<path class="st2" d="M6174.9-5199.7l-3.2-8c0,0,9.7-6.7,19.1-7.3l2,4.1L6174.9-5199.7z"/>
				</g>
			</g>
			<g>
				<g>
					<path class="st6" d="M6142.4-5022.2l-3.7,11.1c0,0-11.3,0.7-11.6,1.5l16.3,4.5l4.3-15.6L6142.4-5022.2z"/>
				</g>
			</g>
			<g>
				<g>
					<polygon class="st6" points="6228.3,-5004.2 6237.6,-5004.2 6244.4,-5009.5 6236,-5023.2 6231.4,-5020.4 6236.9,-5010.2 
						6235.2,-5006.1 					"/>
				</g>
			</g>
			<g>
				<g>
					<polygon class="st0" points="6166.2,-5124.3 6138,-5014.4 6147.4,-5012 6170.1,-5070.4 6186,-5101.2 6203.8,-5055.4 
						6233.6,-5012.5 6240.5,-5017.5 6216.3,-5073.4 6208.5,-5124.3 					"/>
				</g>
			</g>
			<g>
				<g>
					<path class="st9" d="M6191.7-5214.5c0,0-8.7,2.7-13,7.7c-4.4,5-11.4,19.5-11.5,21.1c-0.2,1.6,2.2,19.5,2.2,19.5l-7.8,47.3
						c0,0,33.4,5.2,50.1,0l-8.7-39.1c0,0,1.2-13.8,2.7-15.4s-1.1-15.3-2.2-21.6s-6.1-13.6-7.8-15.1S6191.7-5214.5,6191.7-5214.5z"/>
				</g>
			</g>
			<g>
				<g>
					<path class="st10" d="M6169.3-5183.9c0.2,0,0.3-0.1,0.4-0.3c1-2.5,3.6-5.9,6.1-7.6l0.2-0.1v-0.5c0.1-1.8,0.1-3.8-0.1-5.6
						c1.3-0.6,2.6-1.1,3.9-1.4l0.3-0.1v-0.3c0.3-1.8,1.6-3.4,2.9-5c0.7-0.8,1.4-1.7,1.9-2.6c0.1-0.2,0.1-0.5-0.1-0.6
						s-0.5-0.1-0.6,0.1c-0.5,0.8-1.2,1.6-1.9,2.5c-1.3,1.6-2.6,3.2-3,5.2c-1.4,0.4-2.7,0.9-4,1.5l-0.3,0.1v0.3
						c0.2,1.8,0.2,3.9,0.1,5.7v0.1c-2.6,1.9-5.2,5.2-6.2,7.9c-0.1,0.2,0,0.5,0.2,0.5C6169.2-5183.9,6169.2-5183.9,6169.3-5183.9z"/>
				</g>
			</g>
			<g>
				<g>
					<path class="st6" d="M6168.9-5245.9c0.6-0.2,1.3-0.4,2.2-0.5c3.5-0.6,5.9,1.5,9.1,1.7c2.3,0.2,4.5-0.9,6.9-0.9
						c1.8,0,3.7,0.5,5,1.8s1.8,3.7,0.9,5.4c4.6,1.9,1.4,9.9,0,13.5c-1.4,3.5-3.8,8.6-3.8,8.6l-4.7-4.6c0,0,3.6-4.2,2-6
						c-1.6-1.9-3.2,1-3.2,1s-0.1,1.2-0.2,2.7c-0.8-0.6-1.6-1.1-2.5-1.5h-0.1l-0.2-6.1c0,0-4.9,1.6-5.8-2.5
						C6167.7-5234.5,6161.1-5243.1,6168.9-5245.9z"/>
				</g>
			</g>
		</g>
		<g>
			<path class="st10" d="M6191-5116.1c5.9,0,11.5-0.3,16.6-1c0.2,0,0.4-0.2,0.4-0.5c0-0.2-0.2-0.4-0.5-0.4
				c-11.5,1.5-25.3,1.3-41-0.6c-0.2,0-0.4,0.1-0.5,0.4c0,0.2,0.1,0.4,0.4,0.5C6175.2-5116.7,6183.4-5116.1,6191-5116.1z"/>
		</g>
	</g>
	<g>
		<g>
			<g>
				<path class="st3" d="M6131.5-5180.6c-0.5-1.2-0.2-5.1,0.3-4.7s0.9,2.5,0.9,2.5l0.2,1c0,0,0.8-0.3,0.8,0s0.3,1.6,0.3,1.6l0.1,2.5
					L6131.5-5180.6z"/>
			</g>
		</g>
		<g>
			<g>
				<polygon class="st11" points="6137.6,-5175.7 6134.6,-5186.5 6132.2,-5195.1 6129.1,-5194 6134.9,-5175.4 				"/>
			</g>
		</g>
		<g>
			<g>
				<path class="st3" d="M6168.4-5169.3l-2.5,9.8c0,0-25.1-9.8-26.4-10.3c0,0-3.8-3-4.6-3.6s-3.2-6.6-3.4-7.2s4.5-0.9,4.5-0.9
					s0.1-2.9,0.4-3.8c0.1-0.5,1.2-2.8,1.7-1.2l1,4.4l1.5,1.5c0.8,1.1,1.6,5.5,1.6,5.5L6168.4-5169.3z"/>
			</g>
		</g>
		<g>
			<g>
				<path class="st9" d="M6170.3-5169.6c0,0-2.6-7.4-7.6-4.4c-4.9,3-5.5-0.7-5.5-0.7l-13.3-3.7l-4.3,8.6l28.7,12.3L6170.3-5169.6z"
					/>
			</g>
		</g>
	</g>
	<g>
		<path class="st10" d="M6176-5170.7l0.1-0.4c2.9-10.4,9-20,14.5-28c2.5-3.5,4.9-5.1,7.2-4.7c0.2,0.1,0.4-0.1,0.5-0.3
			c0-0.2-0.1-0.4-0.3-0.5c-2.6-0.5-5.4,1.2-8,5c-5.5,8-11.6,17.5-14.5,27.9l-4.9-1.4c-0.2-0.1-0.5,0.1-0.5,0.3
			c-0.1,0.2,0.1,0.5,0.3,0.5L6176-5170.7z"/>
	</g>
	<g>
		<path class="st10" d="M6180.3-5154.7c0.5,0,1,0,1.5-0.1c2.5-0.4,4.3-2,5.5-3.3c1.5-1.6,2.5-3.4,3.6-5.2c0.1-0.2,0.1-0.5-0.1-0.6
			s-0.5-0.1-0.6,0.1c-1,1.7-2.1,3.5-3.5,5.1c-1.1,1.1-2.8,2.6-5,3c-2.7,0.5-5.6-0.7-7.9-1.7c-0.2-0.1-0.5,0-0.5,0.2
			c-0.1,0.2,0,0.5,0.2,0.5C6175.4-5155.7,6177.8-5154.7,6180.3-5154.7z"/>
	</g>
</g>
<path class="st12" d="M5513.3-5380c0,2.4,0,4.8,0,8.5c-1.8-1.5-4.4-2.9-4.2-3.6c0.6-2,2.2-3.7,3.4-5.6
	C5512.7-5380.5,5513-5380.3,5513.3-5380z"/>
<g>
	<path class="st13" d="M0.2,234c2.4-1.5,2.9-4.3,4-6.5c5.9-11.3,11.9-22.5,17.2-34c2.3-4.9,4.6-7,9.7-4.2c2.9,0,4.7,2.4,7.1,3.4
		c4.9,2,9.8,4.1,14.7,6.1c0.9,0.3,1.7,0.6,2.6,1c2.5,0.8,0.8,2.5,0.9,3.9c0,0.2-0.2,0.4-0.4,0.5c-0.9-0.1-1.8,0-2.2,0.8
		c-2.7,6.6-6.8,12.7-7.8,20c-0.8,0.4-1,1.2-1,2c-2.3,1-2,3.1-2,5c-0.1,0.2-0.3,0.3-0.4,0.5c0.2-0.1,0.3-0.3,0.5-0.4
		c1.5-1.3,2.1-3,2-5c0.3,0,0.7,0,1,0c0.5,4.6-3.2,8.4-2.7,13.6c1.9-2.1,2-4.4,2.8-6.3c2.3-5.6,2.6-12,6.1-17.2
		c-1.8,11.5-5.4,22.6-8.1,33.9c-0.2,0.9-0.6,2.6-1.7,1.7c-3.2-2.7-7.4-1.3-10.9-3.2c-4.6-2.5-9.7-4.2-14.7-6.3
		c-5.5-2.7-11-5.3-16.9-7.2C0.2,235.3,0.2,234.7,0.2,234z M36.2,248c0.3-0.4,0.5-0.7,0.8-1.1c-0.1-0.1-0.3-0.2-0.4-0.3
		C36.4,247.1,36.3,247.5,36.2,248c-0.1,0.1-0.2,0.3-0.2,0.4C36,248.3,36.1,248.1,36.2,248z M38.5,241.5c-0.4,0.5-0.8,0.9-1.1,1.4
		c-0.2,0.5-0.3,1.3,0.6,1.3c0.3,0,0.8-0.5,0.9-0.9C39.2,242.8,39.2,242.1,38.5,241.5z M42.5,236.5c-0.5-1.1-0.6-1.5-0.8-1.9
		c-0.4,0.4-1,0.7-1.3,1.2c-0.3,0.5-0.3,1.4,0.5,1.4C41.5,237.3,42.1,236.7,42.5,236.5z"/>
	<path class="st14" d="M127.7,8.8c-3.8-4.1-8.8-6.2-13.7-8.4c-0.2,0-0.3-0.1-0.5-0.2c-0.1,0-0.3-0.1-0.4-0.1c-0.2,0-0.5,0-0.7-0.1
		H105c-0.3,0.1-0.6,0.1-0.9,0.1H104c-0.2,0-0.5,0-0.7,0c-0.1,0-0.1,0-0.2,0s-0.2,0.1-0.3,0.1c-0.2,0-0.3,0.1-0.5,0.1
		c-0.2,0.1-0.4,0.2-0.6,0.3c-0.6,0.5-1.4,0.3-2.1,0.5c-19,5.5-26.8,25.7-16.1,42.1c3.7,5.8,8.6,9.2,15.9,7.8
		c1.2-0.7,2.4-1.4,3.5-2.1c6.3-4.5,11.7-9.9,16.2-16.2c1.2-1.6,2.9-2.7,5-2.8C135.4,24.4,136.4,18.1,127.7,8.8z"/>
	<path class="st15" d="M96.3,211.1c-0.1,0.1-0.2,0.3-0.2,0.4c-6,25-20.4,45.9-32.8,67.8c-2.6,4.6-5.4,9.2-7.9,13.8
		c-1.1,2-2.2,2.8-4.1,1.1c-1.2-2.5-3.7-3.9-5.3-6.1c3.8-10.9,7.5-21.7,11.3-32.6h-0.1c5.9-13.9,10.5-28.3,15.5-42.4
		c2.5-0.3,5-1.1,7.4-0.9c4.9,0.5,6.3-1.7,7.3-6.2c4.4-20.8,9.2-41.4,13.9-62.1c10.3,1.3,20.6,2.7,30.9,4c0.4,1.6,0.8,3.2,1.1,4.8
		c4,18.4,8,36.8,12.1,55.2c4.1,19.9,8.3,39.7,12.4,59.6c1.6,7.7,3.2,15.3,4.9,22.9c0.4,1.8,0.7,3.3-1.7,3.7
		c-2.5,0.8-5.1,1.6-7.6,2.5c-1.9-0.7-1.8-2.5-2.3-4c-7.9-24.4-15.8-48.8-23.6-73.2c-1.2-3.7-2.8-7-5.1-10.1
		c-5.2-9.5-10.4-19-16.4-29.8C102.4,191.2,99.3,201.1,96.3,211.1z"/>
	<path class="st16" d="M132.1,148c-10.3-1.3-20.6-2.7-30.9-4c0.5-2.6,0.9-5.2,1.4-7.8c4.7-21.7,9.1-43.4,12.3-65.4
		c0.4-2.6-0.2-4.8-2.1-6.8c-4.1-4.2-9.6-5.8-14.7-8.1c0.4-1.7,0.8-3.4,1.2-5c1.2-0.7,2.4-1.4,3.5-2.1c3.5,2.2,6.9,4.6,11.1,5.4
		c0.7,0.6,1.3,1.6,2.2,1.9c5.1,1.7,6.9,4.8,5,10c0.4,0.3,0.7,0.6,1.1,1V67c-0.4,2.1,0.4,3.9,1.3,5.7c2.2,4.3,4.1,8.8,6.5,12.9
		c6.2,10.6,7.9,21,0.2,31.6c-2.5,3.5-2.7,7.3-1.9,11.3C129.6,135,130.9,141.5,132.1,148z"/>
	<path class="st17" d="M132.1,148c-1.3-6.5-2.5-13-3.8-19.5c-0.8-4-0.7-7.8,1.9-11.3c7.8-10.6,6-21-0.2-31.6
		c-2.4-4.2-4.3-8.6-6.5-12.9c-0.9-1.8-1.7-3.6-1.3-5.7c5.9,4.3,8.5,10.8,11.6,17c2.1,4.1,3.7,8.5,5.3,12.9c0.6,1.6,1.8,2.5,3.2,2.7
		c1.3,0.2,1.4-1.5,1.9-2.5c3.8-7.4,7.7-14.7,11.2-22.2c1.5-3.1,3-5.2,6.7-4c0.7,3.1,3.6,3.2,5.8,4.2c3.1,2.1,3.2,4.4,1.6,7.8
		c-4.8,10.3-9.6,20.5-15.4,30.2c-6.2,10.2-7,10.5-19.2,7c1.5,7.9,2.9,15.5,4.4,23c3.8,19.2,7.7,38.5,11.6,57.7
		c1.4,6.8,1.4,6.8-5.7,7.2c-4-18.4-8-36.8-12.1-55.2C132.9,151.2,132.5,149.6,132.1,148z"/>
	<path class="st18" d="M57.2,255.6L57.2,255.6c-8.1,1-16-1.5-24-2c-4.3-0.3-8.5-1.4-12.8-1.4c-4.3-0.1-5.7-1.5-4.2-5.5
		c0.4-1.1,0.6-2.2,0.9-3.4c4.9,2,10,3.7,14.7,6.3c3.5,1.9,7.7,0.5,10.9,3.2c1.1,0.9,1.5-0.8,1.7-1.7c2.7-11.3,6.3-22.4,8.1-33.9
		h-0.1c1.3-0.7,0.9-2,1.1-3.1c1.5-3.1,1.9-6.5,2.7-9.9c0.2-0.1,0.3-0.3,0.4-0.5c4-0.2,5,1.6,4.2,5.4C60,213,59.9,217,59.7,221
		C59,232.5,57,243.9,57.2,255.6z"/>
	<path class="st17" d="M96.3,211.1c3.1-9.9,6.1-19.9,9.7-31.5c5.9,10.8,11.1,20.3,16.4,29.8C113.6,209.9,105,210.5,96.3,211.1z"/>
	<path class="st19" d="M114,54.2c-4.2-0.7-7.6-3.2-11.1-5.4c6.3-4.5,11.7-9.9,16.2-16.2c1.2-1.6,2.9-2.7,5-2.8
		c1.9,4.7,1.1,9.2-0.1,13.9c-0.9,3.5-1.3,7-6.3,6.4C115.1,49.8,115.3,52.9,114,54.2z"/>
	<path class="st17" d="M46,288.1c1.6,2.1,4.1,3.6,5.3,6.1c-2.3,7-1.6,8.5,6.9,13.6c-4-0.8-7.6,1-10.9-1.7
		C40.6,300.5,40.4,299.4,46,288.1z"/>
	<path class="st19" d="M168,75.1c-2.2-1-5.1-1.1-5.8-4.2c-0.9-4.7,1.7-8.9,2.2-13.5c0.2-2.5,1.8-0.4,2.7-0.1c0,2.5,0,4.9,0.2,7.4
		c0.1,1.2-0.6,3,1.4,3c2,0.1,1.6-1.7,1.6-2.9c0-2.9-0.5-5.9,0.3-8.8c4.1,4.8,1.5,9.6-0.1,14.3C169.9,72,168.8,73.5,168,75.1z"/>
	<path class="st17" d="M153.3,296.7c2.5-0.8,5.1-1.6,7.6-2.5c0.6,2.6,2.8,2.5,4.7,2.7c2.8,0.3,5.6,0.2,9,1.8
		c-5.3,1.9-10.1,3.6-14.8,5.5c-2,0.8-2.7-0.5-3.4-1.8C155.3,300.4,154.3,298.5,153.3,296.7z"/>
	<path class="st14" d="M170.6,56c-0.8,2.9-0.3,5.9-0.3,8.8c0,1.2,0.3,3-1.6,2.9c-2-0.1-1.3-1.9-1.4-3c-0.1-2.5-0.1-4.9-0.2-7.4
		c0-5.1-0.1-10.2,0-15.3c0-1.1-0.8-2.9,1.4-2.9c2,0,2.3,1.5,2.3,3.1C170.7,46.8,170.6,51.4,170.6,56z"/>
	<path class="st17" d="M122.3,67c-0.4-0.3-0.7-0.6-1.1-1C121.6,66.4,121.9,66.7,122.3,67z"/>
	<path class="st13" d="M98.1,55.9c5.1,2.3,10.6,3.9,14.7,8.1c2,2,2.5,4.1,2.1,6.8c-3.2,22-7.7,43.7-12.3,65.4
		c-0.6,2.6-1,5.2-1.4,7.8c-4.7,20.7-9.5,41.4-13.9,62.1c-0.9,4.4-2.4,6.7-7.3,6.2c-2.4-0.3-4.9,0.5-7.4,0.9c-0.7,0-1.3-0.1-2-0.1
		c-5.9,0-5.9,0-4.7-5.6c4-18.9,7.9-37.8,12-56.6c2.2-9.9,3.1-19.8,2.7-30c-3.6,4.8-7.3,9.4-6.5,16c0.4,3.1-0.6,6.1-2.7,8.3
		c-5.5,5.6-8.8,12.5-11.8,19.5c-1.3,3.2-2.9,4.8-6.4,3.9c-1.7-3-4.9-2.8-7.6-3.7C55.2,137.6,65,110.4,77,84.1
		c3.5-7.7,9-14,14.4-20.3C93.6,61.1,95.9,58.5,98.1,55.9z M89.2,76c-0.3-0.3-0.7-0.7-1-1c-0.4-0.2-0.7-0.5-1.1-0.7
		c-0.1,0.1-0.2,0.2-0.2,0.4c0.4,0.1,0.9,0.2,1.3,0.4C88.5,75.3,88.9,75.7,89.2,76c0.3,0.4,0.6,0.7,1,1c0.3,0.3,0.7,0.7,1,1
		s0.7,0.7,1,1c0.1,0.1,0.3,0.3,0.4,0.4c-0.1-0.1-0.3-0.3-0.4-0.4c-0.3-0.3-0.7-0.7-1-1s-0.7-0.7-1-1C89.9,76.6,89.5,76.3,89.2,76z
		 M92.5,102c4.2-5.7,4.5-11.9,2.3-18.3C97,90.2,93.9,96,92.5,102z"/>
	<path class="st20" d="M53,198.8c-4.9-2-9.8-4-14.7-6.1c-2.4-1-4.2-3.5-7.1-3.4c2.2-4.1,3.7-8.7,8-11.3c0.2,0.6,0.5,1.7,0.6,1.7
		c4.1-0.3,7.2,3.1,11.2,3.2c2,0.1,2.4,1.3,2.3,3C53.1,190.2,53.1,194.5,53,198.8z"/>
	<path class="st19" d="M53,198.8c0.1-4.3,0.2-8.6,0.3-12.9c0.1-1.7-0.3-2.9-2.3-3c-4-0.1-7-3.5-11.2-3.2c-0.2,0-0.4-1.1-0.6-1.7
		c3.5-3.7,3.9-8.9,6.4-13.1c2.7,0.8,5.9,0.7,7.6,3.7c-0.5,10.5,2.7,20.7,2.3,31.2C54.7,199.4,53.8,199.1,53,198.8z"/>
	<path class="st21" d="M56.1,204.1c-0.8,3.3-1.2,6.7-2.7,9.9c-1.4,0.7-1.1,1.9-1.1,3.1h0.1c-3.5,5.2-3.8,11.6-6.1,17.2
		c-0.8,2-0.9,4.2-2.8,6.3c-0.4-5.1,3.2-9,2.7-13.6l0,0c1-0.6,1.1-1.3,0-2v-0.1c0.9-7.3,5.1-13.4,7.8-20
		C54.3,204.2,55.2,204.1,56.1,204.1z"/>
	<path class="st21" d="M43.2,232c0-1.9-0.3-4,2-5l0,0C45.3,229,44.8,230.7,43.2,232L43.2,232z"/>
	<path class="st21" d="M38.5,241.5c0.8,0.6,0.8,1.3,0.5,1.8c-0.2,0.4-0.6,0.9-0.9,0.9c-0.9,0-0.8-0.8-0.6-1.3
		C37.6,242.4,38.1,242,38.5,241.5z"/>
	<path class="st21" d="M42.5,236.5c-0.4,0.2-1,0.7-1.5,0.7c-0.9,0-0.8-0.9-0.5-1.4c0.3-0.5,0.8-0.8,1.3-1.2
		C41.8,235.1,42,235.5,42.5,236.5z"/>
	<path class="st21" d="M36.2,248c0.1-0.5,0.3-0.9,0.4-1.4c0.1,0.1,0.3,0.2,0.4,0.3C36.7,247.3,36.5,247.6,36.2,248L36.2,248z"/>
	<path class="st21" d="M46.2,227c-0.3,0-0.7,0-1,0l-0.1-0.1c0-0.8,0.2-1.6,1-2v0.1C46.2,225.7,46.2,226.4,46.2,227L46.2,227z"/>
	<path class="st21" d="M43.2,232c-0.2,0.1-0.3,0.3-0.5,0.4C42.9,232.3,43,232.1,43.2,232L43.2,232z"/>
	<path class="st21" d="M36.2,248c-0.1,0.1-0.2,0.3-0.2,0.4C36,248.3,36.1,248.1,36.2,248L36.2,248z"/>
	<path class="st13" d="M52.3,217.1c0-1.2-0.3-2.4,1.1-3.1C53.2,215.1,53.5,216.4,52.3,217.1z"/>
	<path class="st22" d="M92.5,102c1.5-6,4.5-11.8,2.3-18.3C96.9,90.2,96.7,96.3,92.5,102z"/>
	<path class="st22" d="M88.2,75c-0.4-0.1-0.9-0.2-1.3-0.4c0.1-0.1,0.2-0.2,0.2-0.4C87.5,74.5,87.9,74.8,88.2,75L88.2,75z"/>
	<path class="st22" d="M91.2,78c0.3,0.3,0.7,0.7,1,1l0,0C91.9,78.7,91.5,78.3,91.2,78L91.2,78z"/>
	<path class="st22" d="M92.2,79c0.1,0.1,0.3,0.3,0.4,0.4C92.5,79.3,92.3,79.2,92.2,79L92.2,79z"/>
	<path class="st22" d="M91.2,78c-0.3-0.3-0.7-0.7-1-1l0,0C90.5,77.3,90.9,77.6,91.2,78L91.2,78z"/>
	<path class="st22" d="M89.2,76c0.3,0.3,0.7,0.7,1,1l0,0C89.8,76.7,89.5,76.3,89.2,76L89.2,76z"/>
	<path class="st22" d="M89.2,76c-0.3-0.3-0.7-0.7-1-1l0,0C88.5,75.3,88.9,75.7,89.2,76L89.2,76z"/>
	<path class="st13" d="M46.2,227c0-0.7,0-1.3,0-2C47.3,225.7,47.2,226.4,46.2,227z"/>
	<path class="st13" d="M0.2,234c2.4-1.5,2.9-4.3,4-6.5c5.9-11.3,11.9-22.5,17.2-34c2.3-4.9,4.6-7,9.7-4.2c2.9,0,4.7,2.4,7.1,3.4
		c4.9,2,9.8,4.1,14.7,6.1c0.9,0.3,1.7,0.6,2.6,1c2.5,0.8,0.8,2.5,0.9,3.9c0,0.2-0.2,0.4-0.4,0.5c-0.9-0.1-1.8,0-2.2,0.8
		c-2.7,6.6-6.8,12.7-7.8,20c-0.8,0.4-1,1.2-1,2c-2.3,1-2,3.1-2,5c-0.1,0.2-0.3,0.3-0.4,0.5c0.2-0.1,0.3-0.3,0.5-0.4
		c1.5-1.3,2.1-3,2-5c0.3,0,0.7,0,1,0c0.5,4.6-3.2,8.4-2.7,13.6c1.9-2.1,2-4.4,2.8-6.3c2.3-5.6,2.6-12,6.1-17.2
		c-1.8,11.5-5.4,22.6-8.1,33.9c-0.2,0.9-0.6,2.6-1.7,1.7c-3.2-2.7-7.4-1.3-10.9-3.2c-4.6-2.5-9.7-4.2-14.7-6.3
		c-5.5-2.7-11-5.3-16.9-7.2C0.2,235.3,0.2,234.7,0.2,234z M36.2,248c0.3-0.4,0.5-0.7,0.8-1.1c-0.1-0.1-0.3-0.2-0.4-0.3
		C36.4,247.1,36.3,247.5,36.2,248c-0.1,0.1-0.2,0.3-0.2,0.4C36,248.3,36.1,248.1,36.2,248z M38.5,241.5c-0.4,0.5-0.8,0.9-1.1,1.4
		c-0.2,0.5-0.3,1.3,0.6,1.3c0.3,0,0.8-0.5,0.9-0.9C39.2,242.8,39.2,242.1,38.5,241.5z M42.5,236.5c-0.5-1.1-0.6-1.5-0.8-1.9
		c-0.4,0.4-1,0.7-1.3,1.2c-0.3,0.5-0.3,1.4,0.5,1.4C41.5,237.3,42.1,236.7,42.5,236.5z"/>
	<path class="st14" d="M127.7,8.8c-3.8-4.1-8.8-6.2-13.7-8.4c-0.2,0-0.3-0.1-0.5-0.2c-0.1,0-0.3-0.1-0.4-0.1c-0.2,0-0.5,0-0.7-0.1
		H105c-0.3,0.1-0.6,0.1-0.9,0.1H104c-0.2,0-0.5,0-0.7,0c-0.1,0-0.1,0-0.2,0s-0.2,0.1-0.3,0.1c-0.2,0-0.3,0.1-0.5,0.1
		c-0.2,0.1-0.4,0.2-0.6,0.3c-0.6,0.5-1.4,0.3-2.1,0.5c-19,5.5-26.8,25.7-16.1,42.1c3.7,5.8,8.6,9.2,15.9,7.8
		c1.2-0.7,2.4-1.4,3.5-2.1c6.3-4.5,11.7-9.9,16.2-16.2c1.2-1.6,2.9-2.7,5-2.8C135.4,24.4,136.4,18.1,127.7,8.8z"/>
	<path class="st15" d="M96.3,211.1c-0.1,0.1-0.2,0.3-0.2,0.4c-6,25-20.4,45.9-32.8,67.8c-2.6,4.6-5.4,9.2-7.9,13.8
		c-1.1,2-2.2,2.8-4.1,1.1c-1.2-2.5-3.7-3.9-5.3-6.1c3.8-10.9,7.5-21.7,11.3-32.6h-0.1c5.9-13.9,10.5-28.3,15.5-42.4
		c2.5-0.3,5-1.1,7.4-0.9c4.9,0.5,6.3-1.7,7.3-6.2c4.4-20.8,9.2-41.4,13.9-62.1c10.3,1.3,20.6,2.7,30.9,4c0.4,1.6,0.8,3.2,1.1,4.8
		c4,18.4,8,36.8,12.1,55.2c4.1,19.9,8.3,39.7,12.4,59.6c1.6,7.7,3.2,15.3,4.9,22.9c0.4,1.8,0.7,3.3-1.7,3.7
		c-2.5,0.8-5.1,1.6-7.6,2.5c-1.9-0.7-1.8-2.5-2.3-4c-7.9-24.4-15.8-48.8-23.6-73.2c-1.2-3.7-2.8-7-5.1-10.1
		c-5.2-9.5-10.4-19-16.4-29.8C102.4,191.2,99.3,201.1,96.3,211.1z"/>
	<path class="st16" d="M132.1,148c-10.3-1.3-20.6-2.7-30.9-4c0.5-2.6,0.9-5.2,1.4-7.8c4.7-21.7,9.1-43.4,12.3-65.4
		c0.4-2.6-0.2-4.8-2.1-6.8c-4.1-4.2-9.6-5.8-14.7-8.1c0.4-1.7,0.8-3.4,1.2-5c1.2-0.7,2.4-1.4,3.5-2.1c3.5,2.2,6.9,4.6,11.1,5.4
		c0.7,0.6,1.3,1.6,2.2,1.9c5.1,1.7,6.9,4.8,5,10c0.4,0.3,0.7,0.6,1.1,1V67c-0.4,2.1,0.4,3.9,1.3,5.7c2.2,4.3,4.1,8.8,6.5,12.9
		c6.2,10.6,7.9,21,0.2,31.6c-2.5,3.5-2.7,7.3-1.9,11.3C129.6,135,130.9,141.5,132.1,148z"/>
	<path class="st17" d="M132.1,148c-1.3-6.5-2.5-13-3.8-19.5c-0.8-4-0.7-7.8,1.9-11.3c7.8-10.6,6-21-0.2-31.6
		c-2.4-4.2-4.3-8.6-6.5-12.9c-0.9-1.8-1.7-3.6-1.3-5.7c5.9,4.3,8.5,10.8,11.6,17c2.1,4.1,3.7,8.5,5.3,12.9c0.6,1.6,1.8,2.5,3.2,2.7
		c1.3,0.2,1.4-1.5,1.9-2.5c3.8-7.4,7.7-14.7,11.2-22.2c1.5-3.1,3-5.2,6.7-4c0.7,3.1,3.6,3.2,5.8,4.2c3.1,2.1,3.2,4.4,1.6,7.8
		c-4.8,10.3-9.6,20.5-15.4,30.2c-6.2,10.2-7,10.5-19.2,7c1.5,7.9,2.9,15.5,4.4,23c3.8,19.2,7.7,38.5,11.6,57.7
		c1.4,6.8,1.4,6.8-5.7,7.2c-4-18.4-8-36.8-12.1-55.2C132.9,151.2,132.5,149.6,132.1,148z"/>
	<path class="st18" d="M57.2,255.6L57.2,255.6c-8.1,1-16-1.5-24-2c-4.3-0.3-8.5-1.4-12.8-1.4c-4.3-0.1-5.7-1.5-4.2-5.5
		c0.4-1.1,0.6-2.2,0.9-3.4c4.9,2,10,3.7,14.7,6.3c3.5,1.9,7.7,0.5,10.9,3.2c1.1,0.9,1.5-0.8,1.7-1.7c2.7-11.3,6.3-22.4,8.1-33.9
		h-0.1c1.3-0.7,0.9-2,1.1-3.1c1.5-3.1,1.9-6.5,2.7-9.9c0.2-0.1,0.3-0.3,0.4-0.5c4-0.2,5,1.6,4.2,5.4C60,213,59.9,217,59.7,221
		C59,232.5,57,243.9,57.2,255.6z"/>
	<path class="st17" d="M96.3,211.1c3.1-9.9,6.1-19.9,9.7-31.5c5.9,10.8,11.1,20.3,16.4,29.8C113.6,209.9,105,210.5,96.3,211.1z"/>
	<path class="st19" d="M114,54.2c-4.2-0.7-7.6-3.2-11.1-5.4c6.3-4.5,11.7-9.9,16.2-16.2c1.2-1.6,2.9-2.7,5-2.8
		c1.9,4.7,1.1,9.2-0.1,13.9c-0.9,3.5-1.3,7-6.3,6.4C115.1,49.8,115.3,52.9,114,54.2z"/>
	<path class="st17" d="M46,288.1c1.6,2.1,4.1,3.6,5.3,6.1c-2.3,7-1.6,8.5,6.9,13.6c-4-0.8-7.6,1-10.9-1.7
		C40.6,300.5,40.4,299.4,46,288.1z"/>
	<path class="st19" d="M168,75.1c-2.2-1-5.1-1.1-5.8-4.2c-0.9-4.7,1.7-8.9,2.2-13.5c0.2-2.5,1.8-0.4,2.7-0.1c0,2.5,0,4.9,0.2,7.4
		c0.1,1.2-0.6,3,1.4,3c2,0.1,1.6-1.7,1.6-2.9c0-2.9-0.5-5.9,0.3-8.8c4.1,4.8,1.5,9.6-0.1,14.3C169.9,72,168.8,73.5,168,75.1z"/>
	<path class="st17" d="M153.3,296.7c2.5-0.8,5.1-1.6,7.6-2.5c0.6,2.6,2.8,2.5,4.7,2.7c2.8,0.3,5.6,0.2,9,1.8
		c-5.3,1.9-10.1,3.6-14.8,5.5c-2,0.8-2.7-0.5-3.4-1.8C155.3,300.4,154.3,298.5,153.3,296.7z"/>
	<path class="st14" d="M170.6,56c-0.8,2.9-0.3,5.9-0.3,8.8c0,1.2,0.3,3-1.6,2.9c-2-0.1-1.3-1.9-1.4-3c-0.1-2.5-0.1-4.9-0.2-7.4
		c0-5.1-0.1-10.2,0-15.3c0-1.1-0.8-2.9,1.4-2.9c2,0,2.3,1.5,2.3,3.1C170.7,46.8,170.6,51.4,170.6,56z"/>
	<path class="st17" d="M122.3,67c-0.4-0.3-0.7-0.6-1.1-1C121.6,66.4,121.9,66.7,122.3,67z"/>
	<path class="st13" d="M98.1,55.9c5.1,2.3,10.6,3.9,14.7,8.1c2,2,2.5,4.1,2.1,6.8c-3.2,22-7.7,43.7-12.3,65.4
		c-0.6,2.6-1,5.2-1.4,7.8c-4.7,20.7-9.5,41.4-13.9,62.1c-0.9,4.4-2.4,6.7-7.3,6.2c-2.4-0.3-4.9,0.5-7.4,0.9c-0.7,0-1.3-0.1-2-0.1
		c-5.9,0-5.9,0-4.7-5.6c4-18.9,7.9-37.8,12-56.6c2.2-9.9,3.1-19.8,2.7-30c-3.6,4.8-7.3,9.4-6.5,16c0.4,3.1-0.6,6.1-2.7,8.3
		c-5.5,5.6-8.8,12.5-11.8,19.5c-1.3,3.2-2.9,4.8-6.4,3.9c-1.7-3-4.9-2.8-7.6-3.7C55.2,137.6,65,110.4,77,84.1
		c3.5-7.7,9-14,14.4-20.3C93.6,61.1,95.9,58.5,98.1,55.9z M89.2,76c-0.3-0.3-0.7-0.7-1-1c-0.4-0.2-0.7-0.5-1.1-0.7
		c-0.1,0.1-0.2,0.2-0.2,0.4c0.4,0.1,0.9,0.2,1.3,0.4C88.5,75.3,88.9,75.7,89.2,76c0.3,0.4,0.6,0.7,1,1c0.3,0.3,0.7,0.7,1,1
		s0.7,0.7,1,1c0.1,0.1,0.3,0.3,0.4,0.4c-0.1-0.1-0.3-0.3-0.4-0.4c-0.3-0.3-0.7-0.7-1-1s-0.7-0.7-1-1C89.9,76.6,89.5,76.3,89.2,76z
		 M92.5,102c4.2-5.7,4.5-11.9,2.3-18.3C97,90.2,93.9,96,92.5,102z"/>
	<path class="st20" d="M53,198.8c-4.9-2-9.8-4-14.7-6.1c-2.4-1-4.2-3.5-7.1-3.4c2.2-4.1,3.7-8.7,8-11.3c0.2,0.6,0.5,1.7,0.6,1.7
		c4.1-0.3,7.2,3.1,11.2,3.2c2,0.1,2.4,1.3,2.3,3C53.1,190.2,53.1,194.5,53,198.8z"/>
	<path class="st19" d="M53,198.8c0.1-4.3,0.2-8.6,0.3-12.9c0.1-1.7-0.3-2.9-2.3-3c-4-0.1-7-3.5-11.2-3.2c-0.2,0-0.4-1.1-0.6-1.7
		c3.5-3.7,3.9-8.9,6.4-13.1c2.7,0.8,5.9,0.7,7.6,3.7c-0.5,10.5,2.7,20.7,2.3,31.2C54.7,199.4,53.8,199.1,53,198.8z"/>
	<path class="st21" d="M56.1,204.1c-0.8,3.3-1.2,6.7-2.7,9.9c-1.4,0.7-1.1,1.9-1.1,3.1h0.1c-3.5,5.2-3.8,11.6-6.1,17.2
		c-0.8,2-0.9,4.2-2.8,6.3c-0.4-5.1,3.2-9,2.7-13.6l0,0c1-0.6,1.1-1.3,0-2v-0.1c0.9-7.3,5.1-13.4,7.8-20
		C54.3,204.2,55.2,204.1,56.1,204.1z"/>
	<path class="st21" d="M43.2,232c0-1.9-0.3-4,2-5l0,0C45.3,229,44.8,230.7,43.2,232L43.2,232z"/>
	<path class="st21" d="M38.5,241.5c0.8,0.6,0.8,1.3,0.5,1.8c-0.2,0.4-0.6,0.9-0.9,0.9c-0.9,0-0.8-0.8-0.6-1.3
		C37.6,242.4,38.1,242,38.5,241.5z"/>
	<path class="st21" d="M42.5,236.5c-0.4,0.2-1,0.7-1.5,0.7c-0.9,0-0.8-0.9-0.5-1.4c0.3-0.5,0.8-0.8,1.3-1.2
		C41.8,235.1,42,235.5,42.5,236.5z"/>
	<path class="st21" d="M36.2,248c0.1-0.5,0.3-0.9,0.4-1.4c0.1,0.1,0.3,0.2,0.4,0.3C36.7,247.3,36.5,247.6,36.2,248L36.2,248z"/>
	<path class="st21" d="M46.2,227c-0.3,0-0.7,0-1,0l-0.1-0.1c0-0.8,0.2-1.6,1-2v0.1C46.2,225.7,46.2,226.4,46.2,227L46.2,227z"/>
	<path class="st21" d="M43.2,232c-0.2,0.1-0.3,0.3-0.5,0.4C42.9,232.3,43,232.1,43.2,232L43.2,232z"/>
	<path class="st21" d="M36.2,248c-0.1,0.1-0.2,0.3-0.2,0.4C36,248.3,36.1,248.1,36.2,248L36.2,248z"/>
	<path class="st13" d="M52.3,217.1c0-1.2-0.3-2.4,1.1-3.1C53.2,215.1,53.5,216.4,52.3,217.1z"/>
	<path class="st22" d="M92.5,102c1.5-6,4.5-11.8,2.3-18.3C96.9,90.2,96.7,96.3,92.5,102z"/>
	<path class="st22" d="M88.2,75c-0.4-0.1-0.9-0.2-1.3-0.4c0.1-0.1,0.2-0.2,0.2-0.4C87.5,74.5,87.9,74.8,88.2,75L88.2,75z"/>
	<path class="st22" d="M91.2,78c0.3,0.3,0.7,0.7,1,1l0,0C91.9,78.7,91.5,78.3,91.2,78L91.2,78z"/>
	<path class="st22" d="M92.2,79c0.1,0.1,0.3,0.3,0.4,0.4C92.5,79.3,92.3,79.2,92.2,79L92.2,79z"/>
	<path class="st22" d="M91.2,78c-0.3-0.3-0.7-0.7-1-1l0,0C90.5,77.3,90.9,77.6,91.2,78L91.2,78z"/>
	<path class="st22" d="M89.2,76c0.3,0.3,0.7,0.7,1,1l0,0C89.8,76.7,89.5,76.3,89.2,76L89.2,76z"/>
	<path class="st22" d="M89.2,76c-0.3-0.3-0.7-0.7-1-1l0,0C88.5,75.3,88.9,75.7,89.2,76L89.2,76z"/>
	<path class="st13" d="M46.2,227c0-0.7,0-1.3,0-2C47.3,225.7,47.2,226.4,46.2,227z"/>
</g>
</svg>
