<?xml version="1.0" encoding="utf-8"?>
<!-- Generator: Adobe Illustrator 22.0.0, SVG Export Plug-In . SVG Version: 6.00 Build 0)  -->
<svg version="1.1" id="Layer_1" xmlns="http://www.w3.org/2000/svg" xmlns:xlink="http://www.w3.org/1999/xlink" x="0px" y="0px"
	 viewBox="0 0 96.6 311.5" style="enable-background:new 0 0 96.6 311.5;" xml:space="preserve">
<style type="text/css">
	.st0{fill:#2D24A3;}
	.st1{fill:#B77053;}
	.st2{fill:#ECE0D3;}
	.st3{fill:#E48868;}
	.st4{fill:#464473;}
	.st5{fill:#734E4F;}
	.st6{fill:#393762;}
	.st7{fill:#BA745D;}
	.st8{fill:#563616;}
	.st9{fill:#202070;}
	.st10{fill:#CFB199;}
	.st11{fill:#4E587F;}
	.st12{opacity:0.73;fill:#FFFFFF;enable-background:new    ;}
	.st13{fill:#8287FE;}
	.st14{fill:#676ACC;}
	.st15{fill:#9B9EF0;}
	.st16{fill:#454545;}
	.st17{fill:#9799D6;}
	.st18{fill:#888BD0;}
	.st19{fill:#525ACC;}
	.st20{fill:#6E72E4;}
</style>
<g>
	<g>
		<g>
			<g>
				<path class="st0" d="M5578.8-4927.8v60.8h3.8c0,0,6.6-27.7,6.9-30.4c0.3-2.7-1-11.2-1-11.2l5.7-22L5578.8-4927.8z"/>
			</g>
		</g>
		<g>
			<g>
				<path class="st0" d="M5576.8-4927.8v60.8h-3.8c0,0-6.6-27.7-6.9-30.4c-0.3-2.7,1-11.2,1-11.2l-5.7-22L5576.8-4927.8z"/>
			</g>
		</g>
		<g>
			<g>
				<polygon class="st1" points="5578.3,-4883.9 5578.8,-4863.9 5578.8,-4859.7 5584.2,-4859.7 5582.3,-4863.4 5587.3,-4883.9 				
					"/>
			</g>
		</g>
	</g>
	<g>
		<g>
			<path class="st2" d="M5588.5-4997.8c1.9,4.5,8.4,5.3,10.6,9.6c1.4,2.9,0.3,6.6-1.9,8.9s-5.4,3.6-8.6,4.4
				c-7,1.9-14.5,2.4-21.5,0.2c-2.5-0.8-4.9-1.9-6.8-3.6s-3.4-4.1-3.5-6.7c-0.2-2.6,1.1-5.3,3.3-6.6c1.4-0.8,3.1-1,4.2-2.1
				c1.7-1.6,1.7-4.2,1.6-6.6c-0.1-4.3,0.1-8.7,0.7-13c0.4-3.3,1.2-6.8,3.4-9.3c2.5-2.7,6.5-3.7,10.1-2.9s6.5,3.6,8.1,6.9
				s1.9,7.1,1.2,10.7C5588.7-5004.4,5587.2-5000.9,5588.5-4997.8z"/>
		</g>
	</g>
	<g>
		<g>
			<path class="st3" d="M5556.3-4943.4c0,0-2.3,4.2-2.5,5.6s-0.2,2.1,0.9,1.8c1.1-0.3-0.1,1.9,1.5,1.7c1.6-0.2,4.3-4.5,4.3-4.5
				l-2.7-3.7L5556.3-4943.4z"/>
		</g>
	</g>
	<g>
		<g>
			<path class="st4" d="M5598.5-4926.5c0,0-1.9-27.7-11.7-42l2.5-13.6c0,0,4.2-3.6,3.3-9.1v-7.5c0,0-11.6-5.5-14.4-5.5
				s-15.3,6.1-15.3,6.1s0,5.2,0,7c0,1.9,0.2,6.1,3,8.7l3.1,13.7c0,0-11.2,12-12.7,43.1C5556.3-4925.4,5581.5-4922.6,5598.5-4926.5z"
				/>
		</g>
	</g>
	<g>
		<g>
			<path class="st4" d="M5562.9-4998c-2.2,1.4-3.3,3.1-3.6,4.4s-3.1,28.4-3,32c0.2,3.6-2.8,2.8-1.6,8c1.2,5.2-3,4.8-1.1,8.3l0.5,2.8
				l4,0.9l4.1-12l3.6-28.6L5562.9-4998z"/>
		</g>
	</g>
	<g>
		<g>
			<path class="st1" d="M5605.4-4934.1c3.5-0.6-2.3-10.1-6.2-12.6c-3.9-2.5-11.6-4.6-13.6-4.1
				C5583.5-4950.4,5591.8-4931.6,5605.4-4934.1z"/>
		</g>
	</g>
	<g>
		<g>
			<path class="st1" d="M5585.6-4950.8c-1.7,0-2.3,1.6-2.3,3.4c0,1.9,4.1,21.3,7.2,23s13.6,1.4,14.2-1.9s-1.1-10.8-1.1-10.8
				L5585.6-4950.8z"/>
		</g>
	</g>
	<g>
		<g>
			<polygon class="st1" points="5585.6,-4950.8 5568,-5000.4 5565.1,-4999.1 5583.2,-4947.4 			"/>
		</g>
	</g>
	<g>
		<g>
			<path class="st3" d="M5586.8-4968.5l-3.1,1.8c0,0-3.3-1.4-4.2-1.2l0.7,1.9c0,0-5.5,1.5-5.5,1.8s0,1.7,0,1.7l2-0.4
				c0,0-0.2,1,0,1.2s0.7,0.4,0.7,0.4s0.2,0.8,0.6,1.6s0.4,1.4,1.1,1.9c0.6,0.5,4.9-1.4,5.4-1.8s4.5-4.6,4.5-4.6L5586.8-4968.5z"/>
		</g>
	</g>
	<g>
		<g>
			<path class="st5" d="M5601.2-4933.5c0.6,0,1.2-0.1,1.8-0.2c0.2,0,0.3-0.2,0.2-0.3c0-0.2-0.2-0.3-0.3-0.2
				c-3.5,0.6-7.5-0.8-10.6-3.9c-2.8-2.8-4.6-6.4-6.3-10.1c-0.1-0.1-0.2-0.2-0.4-0.1c-0.1,0.1-0.2,0.2-0.1,0.4
				c1.7,3.8,3.5,7.4,6.4,10.3C5594.6-4935.1,5598-4933.5,5601.2-4933.5z"/>
		</g>
	</g>
	<g>
		<g>
			<path class="st5" d="M5600.1-4936.3c1.3,0,2.6-0.1,3.9-0.4c0.2,0,0.3-0.2,0.2-0.3c0-0.2-0.2-0.3-0.3-0.2c-1.7,0.3-3.3,0.4-5,0.3
				c-0.2,0-0.3,0.1-0.3,0.3c0,0.2,0.1,0.3,0.3,0.3C5599.3-4936.3,5599.7-4936.3,5600.1-4936.3z"/>
		</g>
	</g>
	<g>
		<g>
			<path class="st5" d="M5594-4925c0.1,0,0.1,0,0.2-0.1s0.1-0.3,0-0.4c-5.4-6.5-8.7-14.6-9.3-23.1c0-0.2-0.2-0.3-0.3-0.3
				c-0.2,0-0.3,0.2-0.3,0.3c0.6,8.5,3.9,16.8,9.4,23.4C5593.8-4925.1,5593.9-4925,5594-4925z"/>
		</g>
	</g>
	<g>
		<g>
			<path class="st5" d="M5577.6-4966.6h0.1c0.2-0.1,0.2-0.2,0.2-0.4l-4-10.9c-0.1-0.2-0.2-0.2-0.4-0.2c-0.2,0.1-0.2,0.2-0.2,0.4
				l4,10.9C5577.4-4966.7,5577.5-4966.6,5577.6-4966.6z"/>
		</g>
	</g>
	<g>
		<g>
			<path class="st4" d="M5592.6-4998.6c3,1.4,8,28,7.3,29.2s-8,8.9-10.5,9.7l-2.7-8.7l4.7-4.1l-2.2-9.5L5592.6-4998.6z"/>
		</g>
	</g>
	<g>
		<g>
			<path class="st6" d="M5575-4990.3L5575-4990.3c3.1-0.7,5.9-2.5,7.9-4.9c0.1-0.1,0.1-0.3-0.1-0.4c-0.1-0.1-0.3-0.1-0.4,0.1
				c-1.8,2.4-4.5,4.1-7.5,4.7c-0.2,0-0.3,0.2-0.2,0.4C5574.7-4990.3,5574.8-4990.3,5575-4990.3z"/>
		</g>
	</g>
	<g>
		<g>
			<path class="st6" d="M5566-4982.3c0.1,0,0.1,0,0.2,0c0.1-0.1,0.2-0.3,0.1-0.4c-1.9-3.1-2.2-7-0.8-10.4l0.1-0.1l-0.1-0.1
				c-0.2-0.4-0.4-0.9-0.6-1.4s-0.4-1-0.7-1.4c-0.1-0.1-0.3-0.2-0.4-0.1s-0.2,0.3-0.1,0.4c0.2,0.4,0.4,0.9,0.7,1.4
				c0.2,0.4,0.4,0.9,0.6,1.3C5563.6-4989.6,5563.9-4985.5,5566-4982.3C5565.8-4982.3,5565.9-4982.3,5566-4982.3z"/>
		</g>
	</g>
	<g>
		<g>
			<path class="st6" d="M5589.6-4982.3c0.1,0,0.2,0,0.2-0.1c2-3.2,2.3-7.3,0.9-10.8c0.2-0.4,0.4-0.8,0.6-1.3s0.4-0.9,0.6-1.4
				c0.1-0.1,0-0.3-0.1-0.4s-0.3,0-0.4,0.1c-0.2,0.4-0.4,0.9-0.7,1.4c-0.2,0.5-0.4,0.9-0.6,1.4l-0.1,0.1l0.1,0.1
				c1.4,3.3,1.1,7.3-0.8,10.4c-0.1,0.1,0,0.3,0.1,0.4C5589.5-4982.3,5589.5-4982.3,5589.6-4982.3z"/>
		</g>
	</g>
	<g>
		<g>
			<path class="st6" d="M5558.8-4942.8c0.1,0,0.3-0.1,0.3-0.2c0.8-4.4,2.1-8.7,3.6-12.9c0.1-0.2,0-0.3-0.2-0.4
				c-0.1-0.1-0.3,0-0.4,0.2c-1.6,4.2-2.8,8.6-3.6,13C5558.5-4943,5558.6-4942.9,5558.8-4942.8
				C5558.7-4942.8,5558.8-4942.8,5558.8-4942.8z"/>
		</g>
	</g>
	<g>
		<g>
			<path class="st6" d="M5590-4960.2h0.1c0.1-0.1,0.2-0.2,0.2-0.4l-0.9-2.2c-0.1-0.2-0.2-0.2-0.4-0.2c-0.1,0.1-0.2,0.2-0.2,0.4
				l1,2.2C5589.8-4960.3,5589.9-4960.2,5590-4960.2z"/>
		</g>
	</g>
	<g>
		<g>
			<polygon class="st1" points="5577.3,-4883.9 5576.8,-4863.9 5576.8,-4859.7 5571.3,-4859.7 5573.3,-4863.4 5568.3,-4883.9 			"/>
		</g>
	</g>
	<g>
		<g>
			<path class="st3" d="M5580.7-5008.2v6.9c0,0-3.5,5.9-6.7,0.1l0.3-7H5580.7z"/>
		</g>
	</g>
	<g>
		<g>
			<path class="st3" d="M5579.3-5024.5c5.9,0.8,6.9,7.6,5.5,13c-1.1,4-3.5,8.1-7.3,8s-6.1-5.3-6.8-8.5
				C5569.6-5017,5569.8-5025.7,5579.3-5024.5z"/>
		</g>
	</g>
	<g>
		<g>
			<path class="st3" d="M5584.1-5012.9c0,0,0.2-2.3,2.1-1.5c1.8,0.8-0.4,5.9-2.4,5.3C5581.7-5009.7,5584.1-5012.9,5584.1-5012.9z"/>
		</g>
	</g>
	<g>
		<g>
			<path class="st3" d="M5571.9-5013c0,0-0.1-2.3-1.9-1.7c-1.9,0.6,0,5.9,2.1,5.4S5571.9-5013,5571.9-5013z"/>
		</g>
	</g>
	<g>
		<g>
			<path class="st7" d="M5577.5-5003.1c0.9,0,1.8-0.2,2.6-0.7c0.1-0.1,0.2-0.3,0.1-0.4s-0.3-0.2-0.4-0.1c-1.4,0.9-3.4,0.8-4.8-0.2
				c-0.1-0.1-0.3-0.1-0.4,0.1c-0.1,0.1-0.1,0.3,0.1,0.4C5575.4-5003.4,5576.5-5003.1,5577.5-5003.1z"/>
		</g>
	</g>
	<g>
		<g>
			<path class="st8" d="M5574.5-5020.7c-0.1,3.6,0.6,7.3,2.5,10.4s5.1,5.4,8.7,5.8c1.3-3.1,2.2-6.5,1.9-9.9
				c-0.4-3.3-1.9-6.6-4.6-8.6s-6.6-2.5-9.5-0.9c-2.5,1.4-4,4-4.6,6.8s-0.6,4.3-0.5,7.1C5572.4-5012.4,5575.1-5016.1,5574.5-5020.7z"
				/>
		</g>
	</g>
</g>
<g>
	<g>
		<g>
			<g>
				<g>
					<g>
						<path class="st3" d="M5709.9-4988.3l-2.5-9.5c0,0-3.6,1-5.2-0.6c-0.7-0.6-1.3-3.4-1.5-7.8c0-0.5-1.8,0.5-1.8,0
							c0-0.9,3.1-5.2,2.9-7c-1-6.4-0.5-8.1,1.4-9.9c4.1-4,18.5-4.6,20.4,2.4s1.3,10.4-2.2,20.3l2.2,9.9L5709.9-4988.3z"/>
					</g>
				</g>
			</g>
			<g>
				<g>
					<path class="st2" d="M5707.1-4983.7l-3.2-8c0,0,9.7-6.7,19.1-7.3l2,4.1L5707.1-4983.7z"/>
				</g>
			</g>
			<g>
				<g>
					<path class="st6" d="M5674.5-4806.1l-3.7,11.1c0,0-11.3,0.7-11.6,1.5l16.3,4.5l4.3-15.6L5674.5-4806.1z"/>
				</g>
			</g>
			<g>
				<g>
					<polygon class="st6" points="5760.4,-4788.2 5769.8,-4788.2 5776.5,-4793.4 5768.2,-4807.2 5763.5,-4804.4 5769.1,-4794.1 
						5767.3,-4790 					"/>
				</g>
			</g>
			<g>
				<g>
					<polygon class="st0" points="5698.4,-4908.2 5670.2,-4798.4 5679.6,-4795.9 5702.2,-4854.3 5718.2,-4885.1 5736,-4839.4 
						5765.7,-4796.5 5772.7,-4801.4 5748.5,-4857.4 5740.6,-4908.2 					"/>
				</g>
			</g>
			<g>
				<g>
					<path class="st9" d="M5723.8-4998.5c0,0-8.7,2.7-13,7.7s-11.4,19.5-11.5,21.1c-0.2,1.6,2.2,19.5,2.2,19.5l-7.8,47.3
						c0,0,33.4,5.2,50.1,0l-8.7-39.1c0,0,1.2-13.8,2.7-15.4c1.4-1.6-1.1-15.3-2.2-21.6s-6.1-13.6-7.8-15.1
						C5725.9-4995.5,5723.8-4998.5,5723.8-4998.5z"/>
				</g>
			</g>
			<g>
				<g>
					<path class="st10" d="M5701.5-4967.9c0.2,0,0.3-0.1,0.4-0.3c1-2.5,3.6-5.9,6.1-7.6l0.2-0.1v-0.5c0.1-1.8,0.1-3.8-0.1-5.6
						c1.3-0.6,2.6-1.1,3.9-1.4l0.3-0.1v-0.3c0.3-1.8,1.6-3.4,2.9-5c0.7-0.8,1.4-1.7,1.9-2.6c0.1-0.2,0.1-0.5-0.1-0.6
						s-0.5-0.1-0.6,0.1c-0.5,0.8-1.2,1.6-1.9,2.5c-1.3,1.6-2.6,3.2-3,5.2c-1.4,0.4-2.7,0.9-4,1.5l-0.3,0.1v0.3
						c0.2,1.8,0.2,3.9,0.1,5.7v0.1c-2.6,1.9-5.2,5.2-6.2,7.9c-0.1,0.2,0,0.5,0.2,0.5C5701.4-4967.9,5701.4-4967.9,5701.5-4967.9z"/>
				</g>
			</g>
			<g>
				<g>
					<path class="st6" d="M5701.1-5029.8c0.6-0.2,1.3-0.4,2.2-0.5c3.5-0.6,5.9,1.5,9.1,1.7c2.3,0.2,4.5-0.9,6.9-0.9
						c1.8,0,3.7,0.5,5,1.8s1.8,3.7,0.9,5.4c4.6,1.9,1.4,9.9,0,13.5c-1.4,3.5-3.8,8.6-3.8,8.6l-4.7-4.6c0,0,3.6-4.2,2-6
						c-1.6-1.9-3.2,1-3.2,1s-0.1,1.2-0.2,2.7c-0.8-0.6-1.6-1.1-2.5-1.5h-0.1l-0.2-6.1c0,0-4.9,1.6-5.8-2.5
						C5699.9-5018.5,5693.3-5027.1,5701.1-5029.8z"/>
				</g>
			</g>
		</g>
		<g>
			<path class="st10" d="M5723.2-4900.1c5.9,0,11.5-0.3,16.6-1c0.2,0,0.4-0.2,0.4-0.5c0-0.2-0.2-0.4-0.5-0.4
				c-11.5,1.5-25.3,1.3-41-0.6c-0.2,0-0.4,0.1-0.5,0.4c0,0.2,0.1,0.4,0.4,0.5C5707.4-4900.6,5715.6-4900.1,5723.2-4900.1z"/>
		</g>
	</g>
	<g>
		<g>
			<g>
				<path class="st3" d="M5663.7-4964.6c-0.5-1.2-0.2-5.1,0.3-4.7c0.5,0.3,0.9,2.5,0.9,2.5l0.2,1c0,0,0.8-0.3,0.8,0s0.3,1.6,0.3,1.6
					l0.1,2.5L5663.7-4964.6z"/>
			</g>
		</g>
		<g>
			<g>
				<polygon class="st11" points="5669.7,-4959.6 5666.8,-4970.5 5664.4,-4979.1 5661.3,-4977.9 5667,-4959.4 				"/>
			</g>
		</g>
		<g>
			<g>
				<path class="st3" d="M5700.6-4953.3l-2.5,9.8c0,0-25.1-9.8-26.4-10.3c0,0-3.8-3-4.6-3.6c-0.8-0.6-3.2-6.6-3.4-7.2
					c-0.2-0.6,4.5-0.9,4.5-0.9s0.1-2.9,0.4-3.8c0.1-0.5,1.2-2.8,1.7-1.2l1,4.4l1.5,1.5c0.8,1.1,1.6,5.5,1.6,5.5L5700.6-4953.3z"/>
			</g>
		</g>
		<g>
			<g>
				<path class="st9" d="M5702.5-4953.6c0,0-2.6-7.4-7.6-4.4c-4.9,3-5.5-0.7-5.5-0.7l-13.3-3.7l-4.3,8.6l28.7,12.3L5702.5-4953.6z"
					/>
			</g>
		</g>
	</g>
	<g>
		<path class="st10" d="M5708.2-4954.7l0.1-0.4c2.9-10.4,9-20,14.5-28c2.5-3.5,4.9-5.1,7.2-4.7c0.2,0.1,0.4-0.1,0.5-0.3
			c0-0.2-0.1-0.4-0.3-0.5c-2.6-0.5-5.4,1.2-8,5c-5.5,8-11.6,17.5-14.5,27.9l-4.9-1.4c-0.2-0.1-0.5,0.1-0.5,0.3s0.1,0.5,0.3,0.5
			L5708.2-4954.7z"/>
	</g>
	<g>
		<path class="st10" d="M5712.5-4938.7c0.5,0,1,0,1.5-0.1c2.5-0.4,4.4-2,5.5-3.3c1.5-1.6,2.5-3.4,3.6-5.2c0.1-0.2,0.1-0.5-0.1-0.6
			s-0.5-0.1-0.6,0.1c-1,1.7-2.1,3.6-3.5,5.1c-1.1,1.2-2.8,2.6-5,3c-2.7,0.5-5.6-0.7-7.9-1.7c-0.2-0.1-0.5,0-0.5,0.2
			c-0.1,0.2,0,0.5,0.2,0.5C5707.6-4939.7,5710-4938.7,5712.5-4938.7z"/>
	</g>
</g>
<path class="st12" d="M5045.4-5164c0,2.4,0,4.8,0,8.5c-1.8-1.5-4.4-2.9-4.2-3.6c0.6-2,2.2-3.7,3.4-5.6
	C5044.9-5164.4,5045.1-5164.2,5045.4-5164z"/>
<g>
	<path class="st13" d="M1.4,298c0.2-0.2,0.5-0.3,0.8-0.3c0.4,0.4,0.7,0.8,1.1,1.2c0,1,0.1,2,0.1,3c0.2,7.7-1.1,7,7.3,7
		c26.9,0,53.8,0,80.7,0c-1.7,1.7-3.8,0.9-5.7,0.9c-24.9,0.1-49.8,0-74.7,0.1c-1.9,0-4-0.8-5.7,1c-3.4,0.8-4.5-0.5-4.1-4
		C1.7,304.1,1.4,301,1.4,298z"/>
	<path class="st13" d="M5.4,311c1.6-1.7,3.8-1,5.7-1c24.9-0.1,49.8,0,74.7-0.1c1.9,0,4,0.8,5.7-0.9c1.5,0.1,2-1.3,2.9-2
		c0.6,1.5,0,2.8-0.8,4C64,311,34.7,311,5.4,311z"/>
	<path class="st14" d="M94.2,307.1c-0.9,0.7-1.3,2.1-2.9,2c-26.9,0-53.8,0-80.7,0c-8.5,0-7.2,0.7-7.3-7c0-1-0.1-2-0.1-3
		c2-1.2,4.2-1,6.3-1c28,0,56-0.1,84-0.1C95.3,300.9,94.1,304,94.2,307.1z"/>
	<path class="st13" d="M93.6,297.9c-28,0-56,0.1-84,0.1c-2.2,0-4.3-0.2-6.3,1c-0.4-0.4-0.7-0.8-1.1-1.2c0.7-1,1.8-1.8,2.9-1.6
		c5.3,0.9,5.4-2.3,5.3-6.2c-0.2-8.6-0.1-8.6,8.9-9c0.3,0,0.7,0,1,0c6.7,0,13.4,0,20,0c12.4,0,24.7,0,37.1,0c1.5,0,3,0.1,4.5,0.1
		c3.1,0,4.6,1.6,4.5,4.7c0,1.2,0.1,2.3,0,3.5c-0.4,4.2-0.2,7.7,5.6,6.9C92.9,296.1,93.3,297.1,93.6,297.9z M48.5,283
		c-10.3,0-20.6,0.3-30.9-0.1c-4.7-0.2-5.8,1.6-5.4,5.7c0.4,3.6-1.3,7.6,5.2,7.5c19.6-0.3,39.2-0.1,58.8-0.1c8.3,0,8.3-0.1,8.4-8.2
		c0.1-3.6-1-5-4.8-4.9C69.4,283.2,58.9,283,48.5,283z"/>
	<path class="st15" d="M20.3,281c-0.3,0-0.7,0-1,0c0.1-0.3,0.1-0.7,0.2-1C19.8,280.4,20,280.7,20.3,281z"/>
	<path class="st13" d="M68.4,18c0,0.3,0,0.6,0,1c-7.7,0-15.3,0-23,0.1c0-0.3,0-0.7,0-1C53,18,60.7,18,68.4,18z"/>
	<path class="st16" d="M48.5,283c10.5,0,20.9,0.2,31.4-0.1c3.8-0.1,4.8,1.2,4.8,4.9c-0.1,8.2-0.1,8.3-8.4,8.2
		c-19.6,0-39.2-0.2-58.8,0.1c-6.6,0.1-4.9-4-5.2-7.5c-0.4-4.2,0.7-5.9,5.4-5.7C27.8,283.3,38.1,283,48.5,283z"/>
	<path class="st17" d="M45.4,17c0-0.3,0-0.7,0-1c6.3,0,12.5,0,18.8,0c0,0.3,0,0.7,0,1C57.9,17,51.6,17,45.4,17z"/>
	<polygon class="st18" points="48.7,0 69.7,19.1 44.4,19.1 	"/>
	<polygon class="st19" points="48.7,0 27.4,19.1 44.4,19.1 	"/>
	<rect x="9" y="280.5" class="st16" width="78.8" height="16.1"/>
	<rect y="295.4" class="st14" width="96.6" height="16.1"/>
	<polygon class="st20" points="27.4,19.1 9,280.5 44.6,280.5 44.4,19.1 	"/>
	<polygon class="st20" points="69.7,19.1 43.5,19.1 40.3,281 87.8,280.5 	"/>
	<path class="st13" d="M1.4,298c0.2-0.2,0.5-0.3,0.8-0.3c0.4,0.4,0.7,0.8,1.1,1.2c0,1,0.1,2,0.1,3c0.2,7.7-1.1,7,7.3,7
		c26.9,0,53.8,0,80.7,0c-1.7,1.7-3.8,0.9-5.7,0.9c-24.9,0.1-49.8,0-74.7,0.1c-1.9,0-4-0.8-5.7,1c-3.4,0.8-4.5-0.5-4.1-4
		C1.7,304.1,1.4,301,1.4,298z"/>
	<path class="st13" d="M5.4,311c1.6-1.7,3.8-1,5.7-1c24.9-0.1,49.8,0,74.7-0.1c1.9,0,4,0.8,5.7-0.9c1.5,0.1,2-1.3,2.9-2
		c0.6,1.5,0,2.8-0.8,4C64,311,34.7,311,5.4,311z"/>
	<path class="st14" d="M94.2,307.1c-0.9,0.7-1.3,2.1-2.9,2c-26.9,0-53.8,0-80.7,0c-8.5,0-7.2,0.7-7.3-7c0-1-0.1-2-0.1-3
		c2-1.2,4.2-1,6.3-1c28,0,56-0.1,84-0.1C95.3,300.9,94.1,304,94.2,307.1z"/>
	<path class="st13" d="M93.6,297.9c-28,0-56,0.1-84,0.1c-2.2,0-4.3-0.2-6.3,1c-0.4-0.4-0.7-0.8-1.1-1.2c0.7-1,1.8-1.8,2.9-1.6
		c5.3,0.9,5.4-2.3,5.3-6.2c-0.2-8.6-0.1-8.6,8.9-9c0.3,0,0.7,0,1,0c6.7,0,13.4,0,20,0c12.4,0,24.7,0,37.1,0c1.5,0,3,0.1,4.5,0.1
		c3.1,0,4.6,1.6,4.5,4.7c0,1.2,0.1,2.3,0,3.5c-0.4,4.2-0.2,7.7,5.6,6.9C92.9,296.1,93.3,297.1,93.6,297.9z M48.5,283
		c-10.3,0-20.6,0.3-30.9-0.1c-4.7-0.2-5.8,1.6-5.4,5.7c0.4,3.6-1.3,7.6,5.2,7.5c19.6-0.3,39.2-0.1,58.8-0.1c8.3,0,8.3-0.1,8.4-8.2
		c0.1-3.6-1-5-4.8-4.9C69.4,283.2,58.9,283,48.5,283z"/>
	<path class="st15" d="M20.3,281c-0.3,0-0.7,0-1,0c0.1-0.3,0.1-0.7,0.2-1C19.8,280.4,20,280.7,20.3,281z"/>
	<path class="st13" d="M68.4,18c0,0.3,0,0.6,0,1c-7.7,0-15.3,0-23,0.1c0-0.3,0-0.7,0-1C53,18,60.7,18,68.4,18z"/>
	<path class="st16" d="M48.5,283c10.5,0,20.9,0.2,31.4-0.1c3.8-0.1,4.8,1.2,4.8,4.9c-0.1,8.2-0.1,8.3-8.4,8.2
		c-19.6,0-39.2-0.2-58.8,0.1c-6.6,0.1-4.9-4-5.2-7.5c-0.4-4.2,0.7-5.9,5.4-5.7C27.8,283.3,38.1,283,48.5,283z"/>
	<path class="st17" d="M45.4,17c0-0.3,0-0.7,0-1c6.3,0,12.5,0,18.8,0c0,0.3,0,0.7,0,1C57.9,17,51.6,17,45.4,17z"/>
	<polygon class="st18" points="48.7,0 69.7,19.1 44.4,19.1 	"/>
	<polygon class="st19" points="48.7,0 27.4,19.1 44.4,19.1 	"/>
	<rect x="9" y="280.5" class="st16" width="78.8" height="16.1"/>
	<rect y="295.4" class="st14" width="96.6" height="16.1"/>
	<polygon class="st20" points="27.4,19.1 9,280.5 44.6,280.5 44.4,19.1 	"/>
	<polygon class="st20" points="69.7,19.1 43.5,19.1 40.3,281 87.8,280.5 	"/>
</g>
</svg>
