<?xml version="1.0" encoding="utf-8"?>
<!-- Generator: Adobe Illustrator 22.0.0, SVG Export Plug-In . SVG Version: 6.00 Build 0)  -->
<svg version="1.1" id="Layer_1" xmlns="http://www.w3.org/2000/svg" xmlns:xlink="http://www.w3.org/1999/xlink" x="0px" y="0px"
	 viewBox="0 0 78.1 273" style="enable-background:new 0 0 78.1 273;" xml:space="preserve">
<style type="text/css">
	.st0{fill:#2D24A3;}
	.st1{fill:#B77053;}
	.st2{fill:#ECE0D3;}
	.st3{fill:#E48868;}
	.st4{fill:#464473;}
	.st5{fill:#734E4F;}
	.st6{fill:#393762;}
	.st7{fill:#BA745D;}
	.st8{fill:#563616;}
	.st9{fill:#202070;}
	.st10{fill:#CFB199;}
	.st11{fill:#4E587F;}
	.st12{opacity:0.73;fill:#FFFFFF;enable-background:new    ;}
	.st13{fill:#D5BBA6;}
	.st14{fill:#FEFDFD;}
	.st15{fill:#E38969;}
	.st16{fill:#EBDDD0;}
	.st17{fill:#F76433;}
	.st18{fill:#413C64;}
	.st19{fill:#F76636;}
	.st20{fill:#E38B6C;}
	.st21{fill:#CA7C61;}
	.st22{fill:#DB481E;}
</style>
<g>
	<g>
		<g>
			<g>
				<path class="st0" d="M5790.5-5189.9v60.8h3.8c0,0,6.6-27.7,6.9-30.4s-1-11.2-1-11.2l5.7-22L5790.5-5189.9z"/>
			</g>
		</g>
		<g>
			<g>
				<path class="st0" d="M5788.5-5189.9v60.8h-3.8c0,0-6.6-27.7-6.9-30.4s1-11.2,1-11.2l-5.7-22L5788.5-5189.9z"/>
			</g>
		</g>
		<g>
			<g>
				<polygon class="st1" points="5790.1,-5145.9 5790.5,-5126 5790.5,-5121.7 5796,-5121.7 5794,-5125.4 5799,-5145.9 				"/>
			</g>
		</g>
	</g>
	<g>
		<g>
			<path class="st2" d="M5800.2-5259.8c1.9,4.5,8.4,5.3,10.6,9.6c1.4,2.9,0.3,6.6-1.9,8.9c-2.3,2.3-5.4,3.6-8.6,4.4
				c-7,1.9-14.5,2.4-21.5,0.2c-2.5-0.8-4.9-1.9-6.8-3.6s-3.4-4.1-3.5-6.7s1.1-5.3,3.3-6.6c1.4-0.8,3.1-1,4.2-2.1
				c1.7-1.6,1.7-4.2,1.6-6.6c-0.1-4.3,0.1-8.7,0.7-13c0.4-3.3,1.2-6.8,3.4-9.3c2.5-2.7,6.5-3.7,10.1-2.9s6.5,3.6,8.1,6.9
				s1.9,7.1,1.2,10.7C5800.4-5266.4,5798.9-5262.9,5800.2-5259.8z"/>
		</g>
	</g>
	<g>
		<g>
			<path class="st3" d="M5768.1-5205.5c0,0-2.3,4.2-2.5,5.6s-0.2,2.1,0.9,1.8s-0.1,1.9,1.5,1.7c1.6-0.2,4.3-4.5,4.3-4.5l-2.7-3.7
				L5768.1-5205.5z"/>
		</g>
	</g>
	<g>
		<g>
			<path class="st4" d="M5810.3-5188.5c0,0-1.9-27.7-11.7-42l2.5-13.6c0,0,4.2-3.6,3.3-9.1v-7.5c0,0-11.6-5.5-14.4-5.5
				s-15.3,6.1-15.3,6.1s0,5.2,0,7c0,1.9,0.2,6.1,3,8.7l3.1,13.7c0,0-11.2,12-12.7,43.1C5768.1-5187.4,5793.2-5184.6,5810.3-5188.5z"
				/>
		</g>
	</g>
	<g>
		<g>
			<path class="st4" d="M5774.6-5260.1c-2.2,1.4-3.3,3.1-3.6,4.4s-3.1,28.4-3,32c0.2,3.6-2.8,2.8-1.6,8s-3,4.8-1.1,8.3l0.5,2.8
				l4,0.9l4.1-12l3.6-28.6L5774.6-5260.1z"/>
		</g>
	</g>
	<g>
		<g>
			<path class="st1" d="M5817.1-5196.2c3.5-0.6-2.3-10.1-6.2-12.6c-3.9-2.5-11.6-4.6-13.6-4.1S5803.5-5193.6,5817.1-5196.2z"/>
		</g>
	</g>
	<g>
		<g>
			<path class="st1" d="M5797.3-5212.9c-1.7,0-2.3,1.6-2.3,3.4c0,1.9,4.1,21.3,7.2,23s13.6,1.4,14.2-1.9s-1.1-10.8-1.1-10.8
				L5797.3-5212.9z"/>
		</g>
	</g>
	<g>
		<g>
			<polygon class="st1" points="5797.3,-5212.9 5779.8,-5262.5 5776.9,-5261.1 5795,-5209.4 			"/>
		</g>
	</g>
	<g>
		<g>
			<path class="st3" d="M5798.5-5230.5l-3.1,1.8c0,0-3.3-1.4-4.2-1.2l0.7,1.9c0,0-5.5,1.5-5.5,1.8s0,1.7,0,1.7l2-0.4
				c0,0-0.2,1,0,1.2s0.7,0.4,0.7,0.4s0.2,0.8,0.6,1.6s0.4,1.4,1.1,1.9s4.9-1.4,5.4-1.8c0.6-0.3,4.5-4.6,4.5-4.6L5798.5-5230.5z"/>
		</g>
	</g>
	<g>
		<g>
			<path class="st5" d="M5813-5195.6c0.6,0,1.2-0.1,1.8-0.2c0.2,0,0.3-0.2,0.2-0.3c0-0.2-0.2-0.3-0.3-0.2c-3.5,0.6-7.5-0.8-10.6-3.9
				c-2.8-2.8-4.6-6.4-6.3-10.1c-0.1-0.1-0.2-0.2-0.4-0.1c-0.1,0.1-0.2,0.2-0.1,0.4c1.7,3.8,3.5,7.4,6.4,10.3
				C5806.4-5197.1,5809.8-5195.6,5813-5195.6z"/>
		</g>
	</g>
	<g>
		<g>
			<path class="st5" d="M5811.9-5198.4c1.3,0,2.6-0.1,3.9-0.4c0.2,0,0.3-0.2,0.2-0.3c0-0.2-0.2-0.3-0.3-0.2c-1.7,0.3-3.3,0.4-5,0.3
				c-0.2,0-0.3,0.1-0.3,0.3c0,0.2,0.1,0.3,0.3,0.3C5811.1-5198.4,5811.5-5198.4,5811.9-5198.4z"/>
		</g>
	</g>
	<g>
		<g>
			<path class="st5" d="M5805.7-5187.1c0.1,0,0.1,0,0.2-0.1s0.1-0.3,0-0.4c-5.4-6.5-8.7-14.6-9.3-23.1c0-0.2-0.2-0.3-0.3-0.3
				c-0.2,0-0.3,0.2-0.3,0.3c0.6,8.5,3.9,16.8,9.4,23.4C5805.5-5187.1,5805.6-5187.1,5805.7-5187.1z"/>
		</g>
	</g>
	<g>
		<g>
			<path class="st5" d="M5789.4-5228.6h0.1c0.2-0.1,0.2-0.2,0.2-0.4l-4-10.9c-0.1-0.2-0.2-0.2-0.4-0.2c-0.2,0.1-0.2,0.2-0.2,0.4
				l4,10.9C5789.1-5228.7,5789.2-5228.6,5789.4-5228.6z"/>
		</g>
	</g>
	<g>
		<g>
			<path class="st4" d="M5804.3-5260.7c3,1.4,8,28,7.3,29.2c-0.6,1.2-8,8.9-10.5,9.7l-2.7-8.7l4.7-4.1l-2.2-9.5L5804.3-5260.7z"/>
		</g>
	</g>
	<g>
		<g>
			<path class="st6" d="M5786.7-5252.3C5786.7-5252.3,5786.8-5252.3,5786.7-5252.3c3.1-0.7,5.9-2.5,7.9-4.9c0.1-0.1,0.1-0.3-0.1-0.4
				c-0.1-0.1-0.3-0.1-0.4,0.1c-1.8,2.4-4.5,4.1-7.4,4.7c-0.2,0-0.3,0.2-0.2,0.4C5786.5-5252.4,5786.6-5252.3,5786.7-5252.3z"/>
		</g>
	</g>
	<g>
		<g>
			<path class="st6" d="M5777.7-5244.3c0.1,0,0.1,0,0.2,0c0.1-0.1,0.2-0.3,0.1-0.4c-1.9-3.1-2.2-7-0.8-10.4l0.1-0.1l-0.1-0.1
				c-0.2-0.4-0.4-0.9-0.6-1.4s-0.4-1-0.7-1.4c-0.1-0.1-0.3-0.2-0.4-0.1s-0.2,0.3-0.1,0.4c0.2,0.4,0.4,0.9,0.7,1.4
				c0.2,0.4,0.4,0.9,0.6,1.3C5775.3-5251.6,5775.6-5247.5,5777.7-5244.3C5777.5-5244.4,5777.6-5244.3,5777.7-5244.3z"/>
		</g>
	</g>
	<g>
		<g>
			<path class="st6" d="M5801.3-5244.3c0.1,0,0.2,0,0.2-0.1c2-3.2,2.3-7.3,0.9-10.8c0.2-0.4,0.4-0.8,0.6-1.3s0.4-0.9,0.6-1.4
				c0.1-0.1,0-0.3-0.1-0.4s-0.3,0-0.4,0.1c-0.2,0.4-0.4,0.9-0.7,1.4c-0.2,0.5-0.4,0.9-0.6,1.4l-0.1,0.1l0.1,0.1
				c1.4,3.3,1.1,7.3-0.8,10.4c-0.1,0.1,0,0.3,0.1,0.4C5801.2-5244.3,5801.3-5244.3,5801.3-5244.3z"/>
		</g>
	</g>
	<g>
		<g>
			<path class="st6" d="M5770.5-5204.9c0.1,0,0.3-0.1,0.3-0.2c0.8-4.4,2.1-8.7,3.6-12.9c0.1-0.2,0-0.3-0.2-0.4
				c-0.1-0.1-0.3,0-0.4,0.2c-1.6,4.2-2.8,8.6-3.6,13C5770.2-5205.1,5770.3-5204.9,5770.5-5204.9L5770.5-5204.9z"/>
		</g>
	</g>
	<g>
		<g>
			<path class="st6" d="M5801.7-5222.3h0.1c0.1-0.1,0.2-0.2,0.2-0.4l-0.9-2.2c-0.1-0.2-0.2-0.2-0.4-0.2c-0.1,0.1-0.2,0.2-0.2,0.4
				l1,2.2C5801.5-5222.3,5801.6-5222.3,5801.7-5222.3z"/>
		</g>
	</g>
	<g>
		<g>
			<polygon class="st1" points="5789,-5145.9 5788.5,-5126 5788.5,-5121.7 5783.1,-5121.7 5785,-5125.4 5780.1,-5145.9 			"/>
		</g>
	</g>
	<g>
		<g>
			<path class="st3" d="M5792.5-5270.2v6.9c0,0-3.5,5.9-6.7,0.1l0.3-7H5792.5z"/>
		</g>
	</g>
	<g>
		<g>
			<path class="st3" d="M5791.1-5286.5c5.9,0.8,6.9,7.6,5.5,13c-1.1,4-3.5,8.1-7.3,8s-6.1-5.3-6.8-8.5
				C5781.4-5279.1,5781.6-5287.8,5791.1-5286.5z"/>
		</g>
	</g>
	<g>
		<g>
			<path class="st3" d="M5795.8-5275c0,0,0.2-2.3,2.1-1.5c1.8,0.8-0.4,5.9-2.4,5.3S5795.8-5275,5795.8-5275z"/>
		</g>
	</g>
	<g>
		<g>
			<path class="st3" d="M5783.6-5275.1c0,0-0.1-2.3-1.9-1.7c-1.9,0.6,0,5.9,2.1,5.4C5785.8-5271.7,5783.6-5275.1,5783.6-5275.1z"/>
		</g>
	</g>
	<g>
		<g>
			<path class="st7" d="M5789.2-5265.2c0.9,0,1.8-0.2,2.6-0.7c0.1-0.1,0.2-0.3,0.1-0.4s-0.3-0.2-0.4-0.1c-1.4,0.9-3.4,0.8-4.8-0.2
				c-0.1-0.1-0.3-0.1-0.4,0.1c-0.1,0.1-0.1,0.3,0.1,0.4C5787.2-5265.4,5788.2-5265.2,5789.2-5265.2z"/>
		</g>
	</g>
	<g>
		<g>
			<path class="st8" d="M5786.3-5282.8c-0.1,3.6,0.6,7.3,2.5,10.4s5.1,5.4,8.7,5.8c1.3-3.1,2.2-6.5,1.9-9.9
				c-0.4-3.3-1.9-6.6-4.6-8.6s-6.6-2.5-9.5-0.9c-2.5,1.4-4,4-4.6,6.8c-0.7,2.7-0.6,4.3-0.5,7.1
				C5784.2-5274.4,5786.8-5278.1,5786.3-5282.8z"/>
		</g>
	</g>
</g>
<g>
	<g>
		<g>
			<g>
				<g>
					<g>
						<path class="st3" d="M5921.7-5250.3l-2.5-9.5c0,0-3.6,1-5.2-0.6c-0.7-0.6-1.3-3.4-1.5-7.8c0-0.5-1.8,0.5-1.8,0
							c0-0.9,3.1-5.2,2.9-7c-1-6.4-0.5-8.1,1.4-9.9c4.1-4,18.5-4.6,20.4,2.4c2,7,1.3,10.4-2.2,20.3l2.2,9.9L5921.7-5250.3z"/>
					</g>
				</g>
			</g>
			<g>
				<g>
					<path class="st2" d="M5918.8-5245.7l-3.2-8c0,0,9.7-6.7,19.1-7.3l2,4.1L5918.8-5245.7z"/>
				</g>
			</g>
			<g>
				<g>
					<path class="st6" d="M5886.3-5068.2l-3.7,11.1c0,0-11.3,0.7-11.6,1.5l16.3,4.5l4.3-15.6L5886.3-5068.2z"/>
				</g>
			</g>
			<g>
				<g>
					<polygon class="st6" points="5972.2,-5050.2 5981.5,-5050.2 5988.3,-5055.5 5979.9,-5069.2 5975.3,-5066.4 5980.8,-5056.2 
						5979.1,-5052.1 					"/>
				</g>
			</g>
			<g>
				<g>
					<polygon class="st0" points="5910.1,-5170.3 5881.9,-5060.4 5891.3,-5058 5914,-5116.4 5929.9,-5147.2 5947.7,-5101.4 
						5977.5,-5058.5 5984.4,-5063.5 5960.2,-5119.4 5952.4,-5170.3 					"/>
				</g>
			</g>
			<g>
				<g>
					<path class="st9" d="M5935.6-5260.5c0,0-8.7,2.7-13,7.7c-4.4,5-11.4,19.5-11.5,21.1c-0.2,1.6,2.2,19.5,2.2,19.5l-7.8,47.3
						c0,0,33.4,5.2,50.1,0l-8.7-39.1c0,0,1.2-13.8,2.7-15.4s-1.1-15.3-2.2-21.6s-6.1-13.6-7.8-15.1S5935.6-5260.5,5935.6-5260.5z"/>
				</g>
			</g>
			<g>
				<g>
					<path class="st10" d="M5913.2-5229.9c0.2,0,0.3-0.1,0.4-0.3c1-2.5,3.6-5.9,6.1-7.6l0.2-0.1v-0.5c0.1-1.8,0.1-3.8-0.1-5.6
						c1.3-0.6,2.6-1.1,3.9-1.4l0.3-0.1v-0.3c0.3-1.8,1.6-3.4,2.9-5c0.7-0.8,1.4-1.7,1.9-2.6c0.1-0.2,0.1-0.5-0.1-0.6
						s-0.5-0.1-0.6,0.1c-0.5,0.8-1.2,1.6-1.9,2.5c-1.3,1.6-2.6,3.2-3,5.2c-1.4,0.4-2.7,0.9-4,1.5l-0.3,0.1v0.3
						c0.2,1.8,0.2,3.9,0.1,5.7v0.1c-2.6,1.9-5.2,5.2-6.2,7.9c-0.1,0.2,0,0.5,0.2,0.5C5913.1-5229.9,5913.1-5229.9,5913.2-5229.9z"/>
				</g>
			</g>
			<g>
				<g>
					<path class="st6" d="M5912.8-5291.9c0.6-0.2,1.3-0.4,2.2-0.5c3.5-0.6,5.9,1.5,9.1,1.7c2.3,0.2,4.5-0.9,6.9-0.9
						c1.8,0,3.7,0.5,5,1.8s1.8,3.7,0.9,5.4c4.6,1.9,1.4,9.9,0,13.5c-1.4,3.5-3.8,8.6-3.8,8.6l-4.7-4.6c0,0,3.6-4.2,2-6
						c-1.6-1.9-3.2,1-3.2,1s-0.1,1.2-0.2,2.7c-0.8-0.6-1.6-1.1-2.5-1.5h-0.1l-0.2-6.1c0,0-4.9,1.6-5.8-2.5
						C5911.6-5280.5,5905-5289.1,5912.8-5291.9z"/>
				</g>
			</g>
		</g>
		<g>
			<path class="st10" d="M5934.9-5162.1c5.9,0,11.5-0.3,16.6-1c0.2,0,0.4-0.2,0.4-0.5c0-0.2-0.2-0.4-0.5-0.4
				c-11.5,1.5-25.3,1.3-41-0.6c-0.2,0-0.4,0.1-0.5,0.4c0,0.2,0.1,0.4,0.4,0.5C5919.1-5162.7,5927.3-5162.1,5934.9-5162.1z"/>
		</g>
	</g>
	<g>
		<g>
			<g>
				<path class="st3" d="M5875.4-5226.6c-0.5-1.2-0.2-5.1,0.3-4.7s0.9,2.5,0.9,2.5l0.2,1c0,0,0.8-0.3,0.8,0s0.3,1.6,0.3,1.6l0.1,2.5
					L5875.4-5226.6z"/>
			</g>
		</g>
		<g>
			<g>
				<polygon class="st11" points="5881.5,-5221.7 5878.5,-5232.5 5876.1,-5241.1 5873,-5240 5878.8,-5221.4 				"/>
			</g>
		</g>
		<g>
			<g>
				<path class="st3" d="M5912.3-5215.3l-2.5,9.8c0,0-25.1-9.8-26.4-10.3c0,0-3.8-3-4.6-3.6s-3.2-6.6-3.4-7.2s4.5-0.9,4.5-0.9
					s0.1-2.9,0.4-3.8c0.1-0.5,1.2-2.8,1.7-1.2l1,4.4l1.5,1.5c0.8,1.1,1.6,5.5,1.6,5.5L5912.3-5215.3z"/>
			</g>
		</g>
		<g>
			<g>
				<path class="st9" d="M5914.2-5215.6c0,0-2.6-7.4-7.6-4.4c-4.9,3-5.5-0.7-5.5-0.7l-13.3-3.7l-4.3,8.6l28.7,12.3L5914.2-5215.6z"
					/>
			</g>
		</g>
	</g>
	<g>
		<path class="st10" d="M5919.9-5216.7l0.1-0.4c2.9-10.4,9-20,14.5-28c2.5-3.5,4.9-5.1,7.2-4.7c0.2,0.1,0.4-0.1,0.5-0.3
			c0-0.2-0.1-0.4-0.3-0.5c-2.6-0.5-5.4,1.2-8,5c-5.5,8-11.6,17.5-14.5,27.9l-4.9-1.4c-0.2-0.1-0.5,0.1-0.5,0.3
			c-0.1,0.2,0.1,0.5,0.3,0.5L5919.9-5216.7z"/>
	</g>
	<g>
		<path class="st10" d="M5924.2-5200.7c0.5,0,1,0,1.5-0.1c2.5-0.4,4.3-2,5.5-3.3c1.5-1.6,2.5-3.4,3.6-5.2c0.1-0.2,0.1-0.5-0.1-0.6
			s-0.5-0.1-0.6,0.1c-1,1.7-2.1,3.5-3.5,5.1c-1.1,1.1-2.8,2.6-5,3c-2.7,0.5-5.6-0.7-7.9-1.7c-0.2-0.1-0.5,0-0.5,0.2
			c-0.1,0.2,0,0.5,0.2,0.5C5919.3-5201.7,5921.7-5200.7,5924.2-5200.7z"/>
	</g>
</g>
<path class="st12" d="M5257.2-5426c0,2.4,0,4.8,0,8.5c-1.8-1.5-4.4-2.9-4.2-3.6c0.6-2,2.2-3.7,3.4-5.6
	C5256.6-5426.5,5256.9-5426.3,5257.2-5426z"/>
<path class="st13" d="M65.4,96.6c-0.1,0-0.2,0.1-0.4,0.1c0-0.2-0.1-0.4-0.1-0.5c0.1,0,0.3,0,0.4,0.1C65.4,96.4,65.4,96.5,65.4,96.6z
	"/>
<path class="st13" d="M65.4,96.6c-0.1,0-0.2,0.1-0.4,0.1c0-0.2-0.1-0.4-0.1-0.5c0.1,0,0.3,0,0.4,0.1C65.4,96.4,65.4,96.5,65.4,96.6z
	"/>
<g>
	<path class="st14" d="M7.1,57.2c-1.2-4.3-2.4-8.5-3.7-12.8C3,43.2,3.6,40.7,1.6,41c-1.9,0.4-1.5,2.5-1.1,4.2
		c1.7,6.2,3.4,12.4,5.1,18.6c-1.3,0.1-2.3,0.3-1.8,2.1c1.3,4.4,2.8,8.4,7.4,10.6c8.4,4,16.6,8.4,24.9,12.6c0.5,2.6-0.6,4.5-2.6,6
		c-1.9,1.4-3.2,3.5-2.1,5.6c1.9,3.8,0.8,7.3-0.3,10.9c-4,6.7-6.8,14-9.8,21.1c-1.6,3.8-3.3,6.3-7.9,5.2c-0.8-0.2-2.9-0.8-2.4,1.1
		c1,3.3-2,4.2-3,6.3c-1,2.1-3.3,3.4-3.5,6c2.7,0.8,3.6-3.2,6.1-1.6c5,3.4,7.2-0.4,9.6-3.5c2.8-3.6,5.2-7.6,9.1-10.3
		c0.6,4.2-1.7,7.9-1.8,12c-2.1,7.7-3.2,15.7-3.9,23.6c-0.5,5.4-1.8,11.1,0.2,16.3c3.3,8.3,6.9,16.6,11.3,24.4c0.2,1,0,2.1,1,2.8
		c0.5,15.1-1,30.1-3.1,45c-2.4,4.8-4.4,9.9-9.9,12.4c3.6,0.5,6.8,0.9,9.4-1.4c1.3-1.1,2.6-2.7,3,0.6c0.1,1,1.1,1.1,1.9,1.1
		c1.2-0.1,1.7-0.8,1.8-2c0.4-3.6,0.7-7.2,1.1-10.8c3.1-6.5,4-13.7,6.7-21.2c3,6.1,5.6,11.6,8.3,17.1c2.2,5.9,0.6,11.3-2.4,16.5
		c0.4,0.2,0.7,0.4,1,0.4c5.1,0.7,6-6.6,11.1-5.9c0.1-0.5,0.3-1.1,0.1-1.5c-2-3.8-1.9-8.4-5.1-11.6c-1.5-10.7-5.3-20.8-8.7-31
		c-0.1-0.6-0.2-1.3-0.4-1.9c0.2-8.6-0.1-17.1,2.7-25.6c4.6-14,8.3-28.3,12.4-42.5c3.5-10.4,10-20,8-31.7c-0.7-4.4-1.4-8.8-2-13.2
		c2.2-14.8,7.9-28.9,5.3-44.5c-1.8-10.7-6.4-18.5-15-24.4c-1.8-1.2-4.5-1.8-4.3-4.9c2.5,0.5,2.9-0.9,2.6-2.8
		c-0.4-2.1-0.9-4.2-1.4-6.3c3.4-0.5,8.6,1,9.3-3.5c0.6-4-4.5-5.1-7.6-6.7c-0.4-0.2-0.9-0.4-1.4-0.6c-1.8-0.4-2.6-1.6-3.3-3.3
		C51.5-0.9,38.4-3.6,29.6,5.3C28,7,26.4,7.8,24.1,7.8c-3.4,0-8.5-0.9-9.2,2.8c-0.8,4.4,4.6,5.1,8,6.6c0.8,4.2,1.4,8.5,2.5,12.6
		c1.1,4.3-4.4,8.1-0.9,12.6c4.5-4.6,13.9-4.3,15.3,0.4c1.6,0,2.3-2.6,4.3-1.5c0.9,5.8-2.4,9.9-5.4,14.2c-4.2,5.9-10.3,11.1-8.6,19.6
		c-3.7-0.9-7.4-1.8-11-2.7c-1.5-0.4-2.9-0.8-3-2.7c-0.1-4.2-3.2-7.1-4.7-10.8C10.5,57.3,9.1,56.7,7.1,57.2z"/>
	<path class="st15" d="M55.1,256c-2.7-5.5-5.3-10.9-8.3-17.1c-2.7,7.5-3.6,14.7-6.7,21.2c-2.5,0-4.9,0-7.4,0
		c2.1-14.9,3.6-29.9,3.1-45c1.9-1.5,1.2-3.7,1.1-5.6c-0.1-13.3-0.3-26.5,3-39.5c1.4-5.5,2.1-11.2,3.1-16.8c-1.4,1.4-1.8,3-2.1,4.6
		c-4.3,17.9-6.2,36.1-6.1,54.5c-4.4-7.8-8-16.1-11.3-24.4c-2-5.2-0.7-10.9-0.2-16.3c0.7-7.9,1.8-15.9,3.9-23.6
		c12.9,2,25.7,4.2,38.7,5c-4.1,14.2-7.8,28.5-12.4,42.5c-2.8,8.5-2.5,17-2.7,25.6c-4,4.5-2.9,10.1-3.9,15.2
		c2.2-4.2,1.6-9.3,4.2-13.4c3.4,10.2,7.1,20.3,8.7,31C58.3,254.6,56.7,255.3,55.1,256z"/>
	<path class="st16" d="M58.1,34.2c-0.3,3.1,2.5,3.6,4.3,4.9c8.6,5.9,13.2,13.7,15,24.4c2.6,15.6-3.1,29.8-5.3,44.5
		c-7-0.9-14-1.7-21-2.7c-12.2-1.8-12.2-1.8-15.9,9.6c-1.4-1.1-2.7-2.2-4.1-3.3c1.1-3.6,2.2-7.1,0.3-10.9c-1.1-2.1,0.2-4.2,2.1-5.6
		c2-1.5,3.1-3.4,2.6-6c2.7,1.1,5.1,2.9,5.4-2.6c0.5-7.8,1-7.7-6.6-9.6c-1.6-0.4-3.1-0.9-4.7-1.4c-1.7-8.5,4.4-13.7,8.6-19.6
		c3.1-4.3,6.3-8.5,5.4-14.2c3.4,1.1,5.9-0.1,8.1-2.8C53.9,37,55.1,34.5,58.1,34.2z M47.1,79c-0.7,0.2-1.5,0.3-2.2,0.5
		c0.1,0.1,0.2,0.3,0.3,0.4C46,80.1,46.7,79.8,47.1,79c0.4-0.3,0.7-0.6,1-0.9c2.1,0.1,4.3,0,6.4,0.3c1.7,0.3,2.6,0,2.6-1.8
		c0-6.8,0-13.6,0-20.4c-1,4-1,7.9-1,11.9c0,7.7,0,7.7-7.3,9.3c-0.3,0.1-0.5,0.4-0.7,0.7C47.7,78.3,47.4,78.6,47.1,79z M52.3,97.2
		c0,0.2-0.1,0.3-0.1,0.5c3.3,0,6.5,0,9.8,0c0-0.2,0-0.3,0-0.5C58.8,97.2,55.6,97.2,52.3,97.2z M57.6,53.3c0.2-0.3,0.4-0.6,0.4-0.8
		c0-0.3-0.3-0.5-0.4-0.8c-0.1,0.3-0.4,0.5-0.4,0.8S57.4,53,57.6,53.3z M42.6,93c0.3-0.1,0.5-0.3,0.8-0.4c-0.2-0.2-0.5-0.4-0.7-0.4
		c-0.3,0-0.5,0.2-0.8,0.4C42.1,92.6,42.3,92.8,42.6,93z M44.3,94.9c0.1,0.3,0.2,0.7,0.4,0.8c0.2,0.1,0.5-0.1,0.8-0.2
		c-0.1-0.3-0.2-0.6-0.5-0.8C44.9,94.6,44.6,94.8,44.3,94.9z M48.6,96.9c0.3-0.1,0.5-0.3,0.8-0.4c-0.3-0.2-0.5-0.4-0.8-0.4
		s-0.5,0.2-0.8,0.4C48.1,96.6,48.3,96.8,48.6,96.9z M65.4,96.6c0-0.1,0-0.3-0.1-0.3c-0.1-0.1-0.3-0.1-0.4-0.1c0,0.2,0.1,0.4,0.1,0.5
		C65.2,96.7,65.3,96.7,65.4,96.6z"/>
	<path class="st17" d="M35.1,115c3.7-11.5,3.7-11.4,15.9-9.6c7,1,14,1.8,21,2.7c0.7,4.4,1.3,8.8,2,13.2c1.9,11.7-4.6,21.3-8,31.7
		c-13-0.8-25.9-3-38.7-5c0.2-4.1,2.5-7.8,1.8-12l-0.1,0.1c0.9,0.2,0.9-0.5,1-1.1C31.8,128.3,33.4,121.7,35.1,115z"/>
	<path class="st18" d="M58.1,34.2c-3,0.2-4.2,2.8-5.8,4.7c-2.2,2.7-4.7,3.9-8.1,2.8c-2-1.1-2.7,1.5-4.3,1.5
		c-1.4-4.7-10.8-5.1-15.3-0.4c-3.5-4.5,2-8.3,0.9-12.6c-1.1-4.1-1.7-8.4-2.5-12.6c0.7-2.8,2-4,5.3-3.2c7.2,1.8,14.6,3.2,22,4.3
		c4.3,0.6,7.6,2,9,6.4c0.5,2.1,1,4.2,1.4,6.3C61,33.4,60.6,34.8,58.1,34.2z M27.9,20.2c0.4,2.1,2.4,3.5,2.1,5.6
		c-0.5,4,2.8,6.4,4.4,9.4c1.2,2.3,4.5,2.2,6.7,0.5c1.9-1.5,1.8-3.9,0.5-5.8c-1.2-1.8-3.1-3.3-3.1-5.5c0-3.5-2-4.1-4.7-4.1
		C31.8,20.2,29.9,20.2,27.9,20.2z"/>
	<path class="st19" d="M59.3,25.1c-1.4-4.4-4.7-5.7-9-6.4c-7.4-1.1-14.7-2.5-22-4.3c-3.3-0.8-4.6,0.4-5.3,3.2
		c-3.4-1.5-8.7-2.2-8-6.6c0.6-3.7,5.8-2.8,9.2-2.8c2.4,0,3.9-0.9,5.5-2.5c8.8-8.9,21.9-6.1,26.6,5.5c0.7,1.7,1.5,2.9,3.3,3.3
		c0.5,0.1,0.9,0.3,1.4,0.6c3.2,1.6,8.2,2.7,7.6,6.7C67.9,26.2,62.7,24.6,59.3,25.1z M29.9,9c5.7,1,11.3,2.1,17,3.1
		C41.5,9.4,35.8,8.7,29.9,9z M51.4,12.5c-0.3-0.2-0.5-0.4-0.8-0.5c-0.3,0-0.5,0.2-0.8,0.4c0.3,0.2,0.5,0.4,0.8,0.4
		C50.9,12.9,51.1,12.7,51.4,12.5z M54.6,14c0.3-0.1,0.5-0.3,0.8-0.4c-0.3-0.2-0.5-0.4-0.8-0.4s-0.5,0.2-0.8,0.4
		C54,13.6,54.3,13.8,54.6,14z"/>
	<path class="st20" d="M30.1,75.6c1.6,0.5,3.1,1,4.7,1.4c7.5,1.9,7,1.9,6.6,9.6c-0.3,5.5-2.7,3.7-5.4,2.6
		c-8.3-4.2-16.5-8.6-24.9-12.6C6.5,74.4,5,70.3,3.7,66c-0.6-1.8,0.5-2,1.8-2.1c1.8,1.9,2.9,1.6,2.5-1c-0.2-1.9-1.2-3.6-0.9-5.6
		c2.1-0.5,3.5,0.1,4.3,2.2c1.5,3.6,4.6,6.5,4.7,10.8c0.1,1.9,1.5,2.4,3,2.7C22.8,73.8,26.5,74.7,30.1,75.6z"/>
	<path class="st20" d="M35.1,115c-1.7,6.7-3.3,13.3-5,20c-0.7,0-1,0.4-1,1.1l0.1-0.1c-3.9,2.7-6.3,6.7-9.1,10.3
		c-2.4,3.2-4.7,6.9-9.6,3.5c-2.4-1.7-3.4,2.3-6.1,1.6c0.2-2.6,2.5-4,3.5-6c1-2.1,4-3,3-6.3c-0.5-1.8,1.6-1.2,2.4-1.1
		c4.6,1.1,6.3-1.4,7.9-5.2c3.1-7.1,5.8-14.4,9.8-21.1C32.4,112.8,33.7,113.9,35.1,115z"/>
	<path class="st16" d="M32.8,260.1c2.5,0,4.9,0,7.4,0c-0.4,3.6-0.8,7.2-1.1,10.8c-0.1,1.1-0.6,1.9-1.8,2c-0.9,0.1-1.8-0.1-1.9-1.1
		c-0.4-3.3-1.7-1.7-3-0.6c-2.6,2.3-5.8,1.9-9.4,1.4C28.3,270,30.4,264.9,32.8,260.1z"/>
	<path class="st16" d="M55.1,256c1.6-0.7,3.2-1.4,4.8-2c3.2,3.2,3.1,7.9,5.1,11.6c0.2,0.4-0.1,1-0.1,1.5c-5.1-0.7-6,6.6-11.1,5.9
		c-0.3,0-0.6-0.3-1-0.4C55.7,267.3,57.3,261.9,55.1,256z"/>
	<path class="st21" d="M34.9,212.3c0-18.4,1.8-36.6,6.1-54.5c0.4-1.6,0.7-3.2,2.1-4.6c-1,5.6-1.8,11.3-3.1,16.8
		c-3.3,13-3.1,26.2-3,39.5c0,1.9,0.8,4-1.1,5.6C35,214.4,35.1,213.3,34.9,212.3z"/>
	<path class="st18" d="M7.1,57.2c-0.3,2,0.7,3.7,0.9,5.6c0.3,2.7-0.7,2.9-2.5,1c-1.7-6.2-3.4-12.4-5.1-18.6
		c-0.5-1.7-0.9-3.8,1.1-4.2s1.4,2.1,1.8,3.4C4.7,48.7,5.8,53,7.1,57.2z"/>
	<path class="st21" d="M51.2,222.9c-2.6,4.1-2,9.1-4.2,13.4c1-5.2-0.1-10.8,3.9-15.2C51,221.7,51.1,222.3,51.2,222.9z"/>
	<path class="st13" d="M48.1,78c0.2-0.2,0.4-0.6,0.7-0.7c7.3-1.6,7.3-1.6,7.3-9.3c0-4,0-7.9,1-11.9c0,6.8,0,13.6,0,20.4
		c0,1.8-0.8,2.1-2.6,1.8C52.4,78,50.3,78.1,48.1,78L48.1,78z"/>
	<path class="st13" d="M52.3,97.2c3.2,0,6.4,0,9.7,0c0,0.2,0,0.3,0,0.5c-3.3,0-6.5,0-9.8,0C52.3,97.5,52.3,97.4,52.3,97.2z"/>
	<path class="st13" d="M57.6,53.3c-0.2-0.3-0.4-0.6-0.4-0.8c0-0.3,0.3-0.5,0.4-0.8c0.1,0.3,0.4,0.5,0.4,0.8S57.8,53,57.6,53.3z"/>
	<path class="st13" d="M47.1,79c-0.5,0.8-1.1,1-2,0.8c-0.1,0-0.2-0.2-0.3-0.4C45.6,79.3,46.3,79.1,47.1,79L47.1,79z"/>
	<path class="st13" d="M42.6,93c-0.3-0.2-0.5-0.3-0.7-0.5c0.3-0.1,0.5-0.4,0.8-0.4s0.5,0.3,0.7,0.4C43.1,92.7,42.9,92.8,42.6,93z"/>
	<path class="st13" d="M44.3,94.9c0.3-0.1,0.6-0.3,0.8-0.2c0.2,0.1,0.3,0.5,0.5,0.8c-0.3,0.1-0.6,0.3-0.8,0.2
		C44.5,95.5,44.5,95.2,44.3,94.9z"/>
	<path class="st13" d="M48.6,96.9c-0.3-0.2-0.5-0.3-0.8-0.5c0.3-0.1,0.6-0.4,0.8-0.4c0.3,0,0.5,0.3,0.8,0.4
		C49.1,96.7,48.8,96.8,48.6,96.9z"/>
	<path class="st13" d="M47.1,79c0.3-0.3,0.7-0.6,1-1l0,0C47.8,78.4,47.5,78.7,47.1,79L47.1,79z"/>
	<path class="st14" d="M29.1,136.1c0-0.7,0.3-1.1,1-1.1C30,135.5,30,136.2,29.1,136.1z"/>
	<path class="st15" d="M27.9,20.2c2.1,0,4,0,5.9,0c2.7,0.1,4.7,0.6,4.7,4.1c0,2.2,1.9,3.7,3.1,5.5c1.3,1.9,1.4,4.3-0.5,5.8
		c-2.2,1.7-5.4,1.8-6.7-0.5c-1.6-3-4.9-5.3-4.4-9.4C30.3,23.7,28.3,22.4,27.9,20.2z"/>
	<path class="st22" d="M29.9,9c5.9-0.3,11.6,0.4,17,3.1C41.2,11.1,35.6,10,29.9,9z"/>
	<path class="st22" d="M51.4,12.5c-0.3,0.1-0.6,0.4-0.8,0.4c-0.3,0-0.5-0.3-0.8-0.4c0.3-0.1,0.5-0.4,0.8-0.4S51.1,12.4,51.4,12.5z"
		/>
	<path class="st22" d="M54.6,14c-0.3-0.2-0.5-0.3-0.8-0.5c0.3-0.1,0.5-0.4,0.8-0.4s0.5,0.3,0.8,0.4C55.1,13.7,54.8,13.8,54.6,14z"/>
	<path class="st14" d="M7.1,57.2c-1.2-4.3-2.4-8.5-3.7-12.8C3,43.2,3.6,40.7,1.6,41c-1.9,0.4-1.5,2.5-1.1,4.2
		c1.7,6.2,3.4,12.4,5.1,18.6c-1.3,0.1-2.3,0.3-1.8,2.1c1.3,4.4,2.8,8.4,7.4,10.6c8.4,4,16.6,8.4,24.9,12.6c0.5,2.6-0.6,4.5-2.6,6
		c-1.9,1.4-3.2,3.5-2.1,5.6c1.9,3.8,0.8,7.3-0.3,10.9c-4,6.7-6.8,14-9.8,21.1c-1.6,3.8-3.3,6.3-7.9,5.2c-0.8-0.2-2.9-0.8-2.4,1.1
		c1,3.3-2,4.2-3,6.3c-1,2.1-3.3,3.4-3.5,6c2.7,0.8,3.6-3.2,6.1-1.6c5,3.4,7.2-0.4,9.6-3.5c2.8-3.6,5.2-7.6,9.1-10.3
		c0.6,4.2-1.7,7.9-1.8,12c-2.1,7.7-3.2,15.7-3.9,23.6c-0.5,5.4-1.8,11.1,0.2,16.3c3.3,8.3,6.9,16.6,11.3,24.4c0.2,1,0,2.1,1,2.8
		c0.5,15.1-1,30.1-3.1,45c-2.4,4.8-4.4,9.9-9.9,12.4c3.6,0.5,6.8,0.9,9.4-1.4c1.3-1.1,2.6-2.7,3,0.6c0.1,1,1.1,1.1,1.9,1.1
		c1.2-0.1,1.7-0.8,1.8-2c0.4-3.6,0.7-7.2,1.1-10.8c3.1-6.5,4-13.7,6.7-21.2c3,6.1,5.6,11.6,8.3,17.1c2.2,5.9,0.6,11.3-2.4,16.5
		c0.4,0.2,0.7,0.4,1,0.4c5.1,0.7,6-6.6,11.1-5.9c0.1-0.5,0.3-1.1,0.1-1.5c-2-3.8-1.9-8.4-5.1-11.6c-1.5-10.7-5.3-20.8-8.7-31
		c-0.1-0.6-0.2-1.3-0.4-1.9c0.2-8.6-0.1-17.1,2.7-25.6c4.6-14,8.3-28.3,12.4-42.5c3.5-10.4,10-20,8-31.7c-0.7-4.4-1.4-8.8-2-13.2
		c2.2-14.8,7.9-28.9,5.3-44.5c-1.8-10.7-6.4-18.5-15-24.4c-1.8-1.2-4.5-1.8-4.3-4.9c2.5,0.5,2.9-0.9,2.6-2.8
		c-0.4-2.1-0.9-4.2-1.4-6.3c3.4-0.5,8.6,1,9.3-3.5c0.6-4-4.5-5.1-7.6-6.7c-0.4-0.2-0.9-0.4-1.4-0.6c-1.8-0.4-2.6-1.6-3.3-3.3
		C51.5-0.9,38.4-3.6,29.6,5.3C28,7,26.4,7.8,24.1,7.8c-3.4,0-8.5-0.9-9.2,2.8c-0.8,4.4,4.6,5.1,8,6.6c0.8,4.2,1.4,8.5,2.5,12.6
		c1.1,4.3-4.4,8.1-0.9,12.6c4.5-4.6,13.9-4.3,15.3,0.4c1.6,0,2.3-2.6,4.3-1.5c0.9,5.8-2.4,9.9-5.4,14.2c-4.2,5.9-10.3,11.1-8.6,19.6
		c-3.7-0.9-7.4-1.8-11-2.7c-1.5-0.4-2.9-0.8-3-2.7c-0.1-4.2-3.2-7.1-4.7-10.8C10.5,57.3,9.1,56.7,7.1,57.2z"/>
	<path class="st15" d="M55.1,256c-2.7-5.5-5.3-10.9-8.3-17.1c-2.7,7.5-3.6,14.7-6.7,21.2c-2.5,0-4.9,0-7.4,0
		c2.1-14.9,3.6-29.9,3.1-45c1.9-1.5,1.2-3.7,1.1-5.6c-0.1-13.3-0.3-26.5,3-39.5c1.4-5.5,2.1-11.2,3.1-16.8c-1.4,1.4-1.8,3-2.1,4.6
		c-4.3,17.9-6.2,36.1-6.1,54.5c-4.4-7.8-8-16.1-11.3-24.4c-2-5.2-0.7-10.9-0.2-16.3c0.7-7.9,1.8-15.9,3.9-23.6
		c12.9,2,25.7,4.2,38.7,5c-4.1,14.2-7.8,28.5-12.4,42.5c-2.8,8.5-2.5,17-2.7,25.6c-4,4.5-2.9,10.1-3.9,15.2
		c2.2-4.2,1.6-9.3,4.2-13.4c3.4,10.2,7.1,20.3,8.7,31C58.3,254.6,56.7,255.3,55.1,256z"/>
	<path class="st16" d="M58.1,34.2c-0.3,3.1,2.5,3.6,4.3,4.9c8.6,5.9,13.2,13.7,15,24.4c2.6,15.6-3.1,29.8-5.3,44.5
		c-7-0.9-14-1.7-21-2.7c-12.2-1.8-12.2-1.8-15.9,9.6c-1.4-1.1-2.7-2.2-4.1-3.3c1.1-3.6,2.2-7.1,0.3-10.9c-1.1-2.1,0.2-4.2,2.1-5.6
		c2-1.5,3.1-3.4,2.6-6c2.7,1.1,5.1,2.9,5.4-2.6c0.5-7.8,1-7.7-6.6-9.6c-1.6-0.4-3.1-0.9-4.7-1.4c-1.7-8.5,4.4-13.7,8.6-19.6
		c3.1-4.3,6.3-8.5,5.4-14.2c3.4,1.1,5.9-0.1,8.1-2.8C53.9,37,55.1,34.5,58.1,34.2z M47.1,79c-0.7,0.2-1.5,0.3-2.2,0.5
		c0.1,0.1,0.2,0.3,0.3,0.4C46,80.1,46.7,79.8,47.1,79c0.4-0.3,0.7-0.6,1-0.9c2.1,0.1,4.3,0,6.4,0.3c1.7,0.3,2.6,0,2.6-1.8
		c0-6.8,0-13.6,0-20.4c-1,4-1,7.9-1,11.9c0,7.7,0,7.7-7.3,9.3c-0.3,0.1-0.5,0.4-0.7,0.7C47.7,78.3,47.4,78.6,47.1,79z M52.3,97.2
		c0,0.2-0.1,0.3-0.1,0.5c3.3,0,6.5,0,9.8,0c0-0.2,0-0.3,0-0.5C58.8,97.2,55.6,97.2,52.3,97.2z M57.6,53.3c0.2-0.3,0.4-0.6,0.4-0.8
		c0-0.3-0.3-0.5-0.4-0.8c-0.1,0.3-0.4,0.5-0.4,0.8S57.4,53,57.6,53.3z M42.6,93c0.3-0.1,0.5-0.3,0.8-0.4c-0.2-0.2-0.5-0.4-0.7-0.4
		c-0.3,0-0.5,0.2-0.8,0.4C42.1,92.6,42.3,92.8,42.6,93z M44.3,94.9c0.1,0.3,0.2,0.7,0.4,0.8c0.2,0.1,0.5-0.1,0.8-0.2
		c-0.1-0.3-0.2-0.6-0.5-0.8C44.9,94.6,44.6,94.8,44.3,94.9z M48.6,96.9c0.3-0.1,0.5-0.3,0.8-0.4c-0.3-0.2-0.5-0.4-0.8-0.4
		s-0.5,0.2-0.8,0.4C48.1,96.6,48.3,96.8,48.6,96.9z M65.4,96.6c0-0.1,0-0.3-0.1-0.3c-0.1-0.1-0.3-0.1-0.4-0.1c0,0.2,0.1,0.4,0.1,0.5
		C65.2,96.7,65.3,96.7,65.4,96.6z"/>
	<path class="st17" d="M35.1,115c3.7-11.5,3.7-11.4,15.9-9.6c7,1,14,1.8,21,2.7c0.7,4.4,1.3,8.8,2,13.2c1.9,11.7-4.6,21.3-8,31.7
		c-13-0.8-25.9-3-38.7-5c0.2-4.1,2.5-7.8,1.8-12l-0.1,0.1c0.9,0.2,0.9-0.5,1-1.1C31.8,128.3,33.4,121.7,35.1,115z"/>
	<path class="st18" d="M58.1,34.2c-3,0.2-4.2,2.8-5.8,4.7c-2.2,2.7-4.7,3.9-8.1,2.8c-2-1.1-2.7,1.5-4.3,1.5
		c-1.4-4.7-10.8-5.1-15.3-0.4c-3.5-4.5,2-8.3,0.9-12.6c-1.1-4.1-1.7-8.4-2.5-12.6c0.7-2.8,2-4,5.3-3.2c7.2,1.8,14.6,3.2,22,4.3
		c4.3,0.6,7.6,2,9,6.4c0.5,2.1,1,4.2,1.4,6.3C61,33.4,60.6,34.8,58.1,34.2z M27.9,20.2c0.4,2.1,2.4,3.5,2.1,5.6
		c-0.5,4,2.8,6.4,4.4,9.4c1.2,2.3,4.5,2.2,6.7,0.5c1.9-1.5,1.8-3.9,0.5-5.8c-1.2-1.8-3.1-3.3-3.1-5.5c0-3.5-2-4.1-4.7-4.1
		C31.8,20.2,29.9,20.2,27.9,20.2z"/>
	<path class="st19" d="M59.3,25.1c-1.4-4.4-4.7-5.7-9-6.4c-7.4-1.1-14.7-2.5-22-4.3c-3.3-0.8-4.6,0.4-5.3,3.2
		c-3.4-1.5-8.7-2.2-8-6.6c0.6-3.7,5.8-2.8,9.2-2.8c2.4,0,3.9-0.9,5.5-2.5c8.8-8.9,21.9-6.1,26.6,5.5c0.7,1.7,1.5,2.9,3.3,3.3
		c0.5,0.1,0.9,0.3,1.4,0.6c3.2,1.6,8.2,2.7,7.6,6.7C67.9,26.2,62.7,24.6,59.3,25.1z M29.9,9c5.7,1,11.3,2.1,17,3.1
		C41.5,9.4,35.8,8.7,29.9,9z M51.4,12.5c-0.3-0.2-0.5-0.4-0.8-0.5c-0.3,0-0.5,0.2-0.8,0.4c0.3,0.2,0.5,0.4,0.8,0.4
		C50.9,12.9,51.1,12.7,51.4,12.5z M54.6,14c0.3-0.1,0.5-0.3,0.8-0.4c-0.3-0.2-0.5-0.4-0.8-0.4s-0.5,0.2-0.8,0.4
		C54,13.6,54.3,13.8,54.6,14z"/>
	<path class="st20" d="M30.1,75.6c1.6,0.5,3.1,1,4.7,1.4c7.5,1.9,7,1.9,6.6,9.6c-0.3,5.5-2.7,3.7-5.4,2.6
		c-8.3-4.2-16.5-8.6-24.9-12.6C6.5,74.4,5,70.3,3.7,66c-0.6-1.8,0.5-2,1.8-2.1c1.8,1.9,2.9,1.6,2.5-1c-0.2-1.9-1.2-3.6-0.9-5.6
		c2.1-0.5,3.5,0.1,4.3,2.2c1.5,3.6,4.6,6.5,4.7,10.8c0.1,1.9,1.5,2.4,3,2.7C22.8,73.8,26.5,74.7,30.1,75.6z"/>
	<path class="st20" d="M35.1,115c-1.7,6.7-3.3,13.3-5,20c-0.7,0-1,0.4-1,1.1l0.1-0.1c-3.9,2.7-6.3,6.7-9.1,10.3
		c-2.4,3.2-4.7,6.9-9.6,3.5c-2.4-1.7-3.4,2.3-6.1,1.6c0.2-2.6,2.5-4,3.5-6c1-2.1,4-3,3-6.3c-0.5-1.8,1.6-1.2,2.4-1.1
		c4.6,1.1,6.3-1.4,7.9-5.2c3.1-7.1,5.8-14.4,9.8-21.1C32.4,112.8,33.7,113.9,35.1,115z"/>
	<path class="st16" d="M32.8,260.1c2.5,0,4.9,0,7.4,0c-0.4,3.6-0.8,7.2-1.1,10.8c-0.1,1.1-0.6,1.9-1.8,2c-0.9,0.1-1.8-0.1-1.9-1.1
		c-0.4-3.3-1.7-1.7-3-0.6c-2.6,2.3-5.8,1.9-9.4,1.4C28.3,270,30.4,264.9,32.8,260.1z"/>
	<path class="st16" d="M55.1,256c1.6-0.7,3.2-1.4,4.8-2c3.2,3.2,3.1,7.9,5.1,11.6c0.2,0.4-0.1,1-0.1,1.5c-5.1-0.7-6,6.6-11.1,5.9
		c-0.3,0-0.6-0.3-1-0.4C55.7,267.3,57.3,261.9,55.1,256z"/>
	<path class="st21" d="M34.9,212.3c0-18.4,1.8-36.6,6.1-54.5c0.4-1.6,0.7-3.2,2.1-4.6c-1,5.6-1.8,11.3-3.1,16.8
		c-3.3,13-3.1,26.2-3,39.5c0,1.9,0.8,4-1.1,5.6C35,214.4,35.1,213.3,34.9,212.3z"/>
	<path class="st18" d="M7.1,57.2c-0.3,2,0.7,3.7,0.9,5.6c0.3,2.7-0.7,2.9-2.5,1c-1.7-6.2-3.4-12.4-5.1-18.6
		c-0.5-1.7-0.9-3.8,1.1-4.2s1.4,2.1,1.8,3.4C4.7,48.7,5.8,53,7.1,57.2z"/>
	<path class="st21" d="M51.2,222.9c-2.6,4.1-2,9.1-4.2,13.4c1-5.2-0.1-10.8,3.9-15.2C51,221.7,51.1,222.3,51.2,222.9z"/>
	<path class="st13" d="M48.1,78c0.2-0.2,0.4-0.6,0.7-0.7c7.3-1.6,7.3-1.6,7.3-9.3c0-4,0-7.9,1-11.9c0,6.8,0,13.6,0,20.4
		c0,1.8-0.8,2.1-2.6,1.8C52.4,78,50.3,78.1,48.1,78L48.1,78z"/>
	<path class="st13" d="M52.3,97.2c3.2,0,6.4,0,9.7,0c0,0.2,0,0.3,0,0.5c-3.3,0-6.5,0-9.8,0C52.3,97.5,52.3,97.4,52.3,97.2z"/>
	<path class="st13" d="M57.6,53.3c-0.2-0.3-0.4-0.6-0.4-0.8c0-0.3,0.3-0.5,0.4-0.8c0.1,0.3,0.4,0.5,0.4,0.8S57.8,53,57.6,53.3z"/>
	<path class="st13" d="M47.1,79c-0.5,0.8-1.1,1-2,0.8c-0.1,0-0.2-0.2-0.3-0.4C45.6,79.3,46.3,79.1,47.1,79L47.1,79z"/>
	<path class="st13" d="M42.6,93c-0.3-0.2-0.5-0.3-0.7-0.5c0.3-0.1,0.5-0.4,0.8-0.4s0.5,0.3,0.7,0.4C43.1,92.7,42.9,92.8,42.6,93z"/>
	<path class="st13" d="M44.3,94.9c0.3-0.1,0.6-0.3,0.8-0.2c0.2,0.1,0.3,0.5,0.5,0.8c-0.3,0.1-0.6,0.3-0.8,0.2
		C44.5,95.5,44.5,95.2,44.3,94.9z"/>
	<path class="st13" d="M48.6,96.9c-0.3-0.2-0.5-0.3-0.8-0.5c0.3-0.1,0.6-0.4,0.8-0.4c0.3,0,0.5,0.3,0.8,0.4
		C49.1,96.7,48.8,96.8,48.6,96.9z"/>
	<path class="st13" d="M47.1,79c0.3-0.3,0.7-0.6,1-1l0,0C47.8,78.4,47.5,78.7,47.1,79L47.1,79z"/>
	<path class="st14" d="M29.1,136.1c0-0.7,0.3-1.1,1-1.1C30,135.5,30,136.2,29.1,136.1z"/>
	<path class="st15" d="M27.9,20.2c2.1,0,4,0,5.9,0c2.7,0.1,4.7,0.6,4.7,4.1c0,2.2,1.9,3.7,3.1,5.5c1.3,1.9,1.4,4.3-0.5,5.8
		c-2.2,1.7-5.4,1.8-6.7-0.5c-1.6-3-4.9-5.3-4.4-9.4C30.3,23.7,28.3,22.4,27.9,20.2z"/>
	<path class="st22" d="M29.9,9c5.9-0.3,11.6,0.4,17,3.1C41.2,11.1,35.6,10,29.9,9z"/>
	<path class="st22" d="M51.4,12.5c-0.3,0.1-0.6,0.4-0.8,0.4c-0.3,0-0.5-0.3-0.8-0.4c0.3-0.1,0.5-0.4,0.8-0.4S51.1,12.4,51.4,12.5z"
		/>
	<path class="st22" d="M54.6,14c-0.3-0.2-0.5-0.3-0.8-0.5c0.3-0.1,0.5-0.4,0.8-0.4s0.5,0.3,0.8,0.4C55.1,13.7,54.8,13.8,54.6,14z"/>
</g>
</svg>
