<?xml version="1.0" encoding="utf-8"?>
<!-- Generator: Adobe Illustrator 22.0.0, SVG Export Plug-In . SVG Version: 6.00 Build 0)  -->
<svg version="1.1" id="Layer_1" xmlns="http://www.w3.org/2000/svg" xmlns:xlink="http://www.w3.org/1999/xlink" x="0px" y="0px"
	 viewBox="0 0 478.6 273.2" style="enable-background:new 0 0 478.6 273.2;" xml:space="preserve">
<style type="text/css">
	.st0{fill:#2D24A3;}
	.st1{fill:#B77053;}
	.st2{fill:#ECE0D3;}
	.st3{fill:#E48868;}
	.st4{fill:#464473;}
	.st5{fill:#734E4F;}
	.st6{fill:#393762;}
	.st7{fill:#BA745D;}
	.st8{fill:#563616;}
	.st9{fill:#202070;}
	.st10{fill:#CFB199;}
	.st11{fill:#4E587F;}
	.st12{opacity:0.73;fill:#FFFFFF;enable-background:new    ;}
	.st13{fill:#FDA790;}
	.st14{fill:#FEBAA8;}
	.st15{fill:#8388FB;}
	.st16{fill:#FBBAAA;}
	.st17{fill:#FE9B7F;}
	.st18{fill:#6E70CD;}
	.st19{fill:#676ACB;}
	.st20{fill:#9CA0F8;}
	.st21{fill:#6265CA;}
	.st22{fill:#FDBAA8;}
	.st23{fill:#8589E6;}
	.st24{fill:#FEFEFE;}
	.st25{fill:#F9F9FE;}
</style>
<g>
	<g>
		<g>
			<g>
				<path class="st0" d="M5372.2-5018.8v60.8h3.8c0,0,6.6-27.7,6.9-30.4c0.3-2.7-1-11.2-1-11.2l5.7-22L5372.2-5018.8z"/>
			</g>
		</g>
		<g>
			<g>
				<path class="st0" d="M5370.2-5018.8v60.8h-3.8c0,0-6.6-27.7-6.9-30.4c-0.3-2.7,1-11.2,1-11.2l-5.7-22L5370.2-5018.8z"/>
			</g>
		</g>
		<g>
			<g>
				<polygon class="st1" points="5371.7,-4974.9 5372.2,-4954.9 5372.2,-4950.7 5377.6,-4950.7 5375.7,-4954.4 5380.7,-4974.9 				
					"/>
			</g>
		</g>
	</g>
	<g>
		<g>
			<path class="st2" d="M5381.9-5088.8c1.9,4.5,8.4,5.3,10.6,9.6c1.4,2.9,0.3,6.6-1.9,8.9c-2.2,2.3-5.4,3.6-8.6,4.4
				c-7,1.9-14.5,2.4-21.5,0.2c-2.5-0.8-4.9-1.9-6.8-3.6c-1.9-1.7-3.4-4.1-3.5-6.7c-0.2-2.6,1.1-5.3,3.3-6.6c1.4-0.8,3.1-1,4.2-2.1
				c1.7-1.6,1.7-4.2,1.6-6.6c-0.1-4.3,0.1-8.7,0.7-13c0.4-3.3,1.2-6.8,3.4-9.3c2.5-2.7,6.5-3.7,10.1-2.9c3.6,0.8,6.5,3.6,8.1,6.9
				c1.6,3.3,1.9,7.1,1.2,10.7C5382.1-5095.4,5380.6-5091.9,5381.9-5088.8z"/>
		</g>
	</g>
	<g>
		<g>
			<path class="st3" d="M5349.7-5034.4c0,0-2.3,4.2-2.5,5.6s-0.2,2.1,0.9,1.8c1.1-0.3-0.1,1.9,1.5,1.7c1.6-0.2,4.3-4.5,4.3-4.5
				l-2.7-3.7L5349.7-5034.4z"/>
		</g>
	</g>
	<g>
		<g>
			<path class="st4" d="M5391.9-5017.5c0,0-1.9-27.7-11.7-42l2.5-13.6c0,0,4.2-3.6,3.3-9.1v-7.5c0,0-11.6-5.5-14.4-5.5
				s-15.3,6.1-15.3,6.1s0,5.2,0,7c0,1.9,0.2,6.1,3,8.7l3.1,13.7c0,0-11.2,12-12.7,43.1C5349.7-5016.4,5374.9-5013.6,5391.9-5017.5z"
				/>
		</g>
	</g>
	<g>
		<g>
			<path class="st4" d="M5356.3-5089c-2.2,1.4-3.3,3.1-3.6,4.4c-0.3,1.3-3.1,28.4-3,32c0.2,3.6-2.8,2.8-1.6,8c1.2,5.2-3,4.8-1.1,8.3
				l0.5,2.8l4,0.9l4.1-12l3.6-28.6L5356.3-5089z"/>
		</g>
	</g>
	<g>
		<g>
			<path class="st1" d="M5398.8-5025.1c3.5-0.6-2.3-10.1-6.2-12.6c-3.9-2.5-11.6-4.6-13.6-4.1
				C5376.9-5041.4,5385.2-5022.6,5398.8-5025.1z"/>
		</g>
	</g>
	<g>
		<g>
			<path class="st1" d="M5379-5041.8c-1.7,0-2.3,1.6-2.3,3.4c0,1.9,4.1,21.3,7.2,23c3.1,1.7,13.6,1.4,14.2-1.9
				c0.6-3.3-1.1-10.8-1.1-10.8L5379-5041.8z"/>
		</g>
	</g>
	<g>
		<g>
			<polygon class="st1" points="5379,-5041.8 5361.4,-5091.4 5358.5,-5090.1 5376.6,-5038.4 			"/>
		</g>
	</g>
	<g>
		<g>
			<path class="st3" d="M5380.2-5059.5l-3.1,1.8c0,0-3.3-1.4-4.2-1.2l0.7,1.9c0,0-5.5,1.5-5.5,1.8s0,1.7,0,1.7l2-0.4
				c0,0-0.2,1,0,1.2s0.7,0.4,0.7,0.4s0.2,0.8,0.6,1.6c0.4,0.8,0.4,1.4,1.1,1.9c0.6,0.5,4.9-1.4,5.4-1.8s4.5-4.6,4.5-4.6
				L5380.2-5059.5z"/>
		</g>
	</g>
	<g>
		<g>
			<path class="st5" d="M5394.6-5024.5c0.6,0,1.2-0.1,1.8-0.2c0.2,0,0.3-0.2,0.2-0.3c0-0.2-0.2-0.3-0.3-0.2
				c-3.5,0.6-7.5-0.8-10.6-3.9c-2.8-2.8-4.6-6.4-6.3-10.1c-0.1-0.1-0.2-0.2-0.4-0.1c-0.1,0.1-0.2,0.2-0.1,0.4
				c1.7,3.8,3.5,7.4,6.4,10.3C5388-5026.1,5391.4-5024.5,5394.6-5024.5z"/>
		</g>
	</g>
	<g>
		<g>
			<path class="st5" d="M5393.5-5027.3c1.3,0,2.6-0.1,3.9-0.4c0.2,0,0.3-0.2,0.2-0.3c0-0.2-0.2-0.3-0.3-0.2c-1.7,0.3-3.3,0.4-5,0.3
				c-0.2,0-0.3,0.1-0.3,0.3c0,0.2,0.1,0.3,0.3,0.3C5392.7-5027.3,5393.1-5027.3,5393.5-5027.3z"/>
		</g>
	</g>
	<g>
		<g>
			<path class="st5" d="M5387.4-5016c0.1,0,0.1,0,0.2-0.1c0.1-0.1,0.1-0.3,0-0.4c-5.4-6.5-8.7-14.6-9.3-23.1c0-0.2-0.2-0.3-0.3-0.3
				c-0.2,0-0.3,0.2-0.3,0.3c0.6,8.5,3.9,16.8,9.4,23.4C5387.2-5016.1,5387.3-5016,5387.4-5016z"/>
		</g>
	</g>
	<g>
		<g>
			<path class="st5" d="M5371-5057.6L5371-5057.6c0.3-0.1,0.3-0.2,0.3-0.4l-4-10.9c-0.1-0.2-0.2-0.2-0.4-0.2
				c-0.2,0.1-0.2,0.2-0.2,0.4l4,10.9C5370.8-5057.7,5370.9-5057.6,5371-5057.6z"/>
		</g>
	</g>
	<g>
		<g>
			<path class="st4" d="M5386-5089.6c3,1.4,8,28,7.3,29.2s-8,8.9-10.5,9.7l-2.7-8.7l4.7-4.1l-2.2-9.5L5386-5089.6z"/>
		</g>
	</g>
	<g>
		<g>
			<path class="st6" d="M5368.4-5081.3L5368.4-5081.3c3.1-0.7,5.9-2.5,7.9-4.9c0.1-0.1,0.1-0.3-0.1-0.4c-0.1-0.1-0.3-0.1-0.4,0.1
				c-1.8,2.4-4.5,4.1-7.5,4.7c-0.2,0-0.3,0.2-0.2,0.4C5368.1-5081.3,5368.2-5081.3,5368.4-5081.3z"/>
		</g>
	</g>
	<g>
		<g>
			<path class="st6" d="M5359.4-5073.3c0.1,0,0.1,0,0.2,0c0.1-0.1,0.2-0.3,0.1-0.4c-1.9-3.1-2.2-7-0.8-10.4l0.1-0.1l-0.1-0.1
				c-0.2-0.4-0.4-0.9-0.6-1.4s-0.4-1-0.7-1.4c-0.1-0.1-0.3-0.2-0.4-0.1c-0.1,0.1-0.2,0.3-0.1,0.4c0.2,0.4,0.4,0.9,0.7,1.4
				c0.2,0.4,0.4,0.9,0.6,1.3C5357-5080.6,5357.3-5076.5,5359.4-5073.3C5359.2-5073.3,5359.3-5073.3,5359.4-5073.3z"/>
		</g>
	</g>
	<g>
		<g>
			<path class="st6" d="M5383-5073.3c0.1,0,0.2,0,0.2-0.1c2-3.2,2.3-7.3,0.9-10.8c0.2-0.4,0.4-0.8,0.6-1.3s0.4-0.9,0.6-1.4
				c0.1-0.1,0-0.3-0.1-0.4c-0.1-0.1-0.3,0-0.4,0.1c-0.2,0.4-0.4,0.9-0.7,1.4c-0.2,0.5-0.4,0.9-0.6,1.4l-0.1,0.1l0.1,0.1
				c1.4,3.3,1.1,7.3-0.8,10.4c-0.1,0.1,0,0.3,0.1,0.4C5382.9-5073.3,5382.9-5073.3,5383-5073.3z"/>
		</g>
	</g>
	<g>
		<g>
			<path class="st6" d="M5352.2-5033.8c0.1,0,0.3-0.1,0.3-0.2c0.8-4.4,2.1-8.7,3.6-12.9c0.1-0.2,0-0.3-0.2-0.4
				c-0.1-0.1-0.3,0-0.4,0.2c-1.6,4.2-2.8,8.6-3.6,13C5351.9-5034,5352-5033.9,5352.2-5033.8
				C5352.1-5033.8,5352.2-5033.8,5352.2-5033.8z"/>
		</g>
	</g>
	<g>
		<g>
			<path class="st6" d="M5383.4-5051.2L5383.4-5051.2c0.2-0.1,0.3-0.2,0.3-0.4l-0.9-2.2c-0.1-0.2-0.2-0.2-0.4-0.2
				c-0.1,0.1-0.2,0.2-0.2,0.4l1,2.2C5383.2-5051.3,5383.3-5051.2,5383.4-5051.2z"/>
		</g>
	</g>
	<g>
		<g>
			<polygon class="st1" points="5370.7,-4974.9 5370.2,-4954.9 5370.2,-4950.7 5364.7,-4950.7 5366.7,-4954.4 5361.7,-4974.9 			"/>
		</g>
	</g>
	<g>
		<g>
			<path class="st3" d="M5374.1-5099.2v6.9c0,0-3.5,5.9-6.7,0.1l0.3-7H5374.1z"/>
		</g>
	</g>
	<g>
		<g>
			<path class="st3" d="M5372.7-5115.5c5.9,0.8,6.9,7.6,5.5,13c-1.1,4-3.5,8.1-7.3,8s-6.1-5.3-6.8-8.5
				C5363-5108,5363.2-5116.7,5372.7-5115.5z"/>
		</g>
	</g>
	<g>
		<g>
			<path class="st3" d="M5377.5-5103.9c0,0,0.2-2.3,2.1-1.5c1.8,0.8-0.4,5.9-2.4,5.3C5375.1-5100.7,5377.5-5103.9,5377.5-5103.9z"/>
		</g>
	</g>
	<g>
		<g>
			<path class="st3" d="M5365.3-5104c0,0-0.1-2.3-1.9-1.7c-1.9,0.6,0,5.9,2.1,5.4C5367.6-5100.8,5365.3-5104,5365.3-5104z"/>
		</g>
	</g>
	<g>
		<g>
			<path class="st7" d="M5370.9-5094.1c0.9,0,1.8-0.2,2.6-0.7c0.1-0.1,0.2-0.3,0.1-0.4c-0.1-0.1-0.3-0.2-0.4-0.1
				c-1.4,0.9-3.4,0.8-4.8-0.2c-0.1-0.1-0.3-0.1-0.4,0.1c-0.1,0.1-0.1,0.3,0.1,0.4C5368.8-5094.4,5369.9-5094.1,5370.9-5094.1z"/>
		</g>
	</g>
	<g>
		<g>
			<path class="st8" d="M5367.9-5111.7c-0.1,3.6,0.6,7.3,2.5,10.4c1.9,3.1,5.1,5.4,8.7,5.8c1.3-3.1,2.2-6.5,1.9-9.9
				c-0.4-3.3-1.9-6.6-4.6-8.6s-6.6-2.5-9.5-0.9c-2.5,1.4-4,4-4.6,6.8c-0.6,2.8-0.6,4.3-0.5,7.1
				C5365.8-5103.4,5368.5-5107.1,5367.9-5111.7z"/>
		</g>
	</g>
</g>
<g>
	<g>
		<g>
			<g>
				<g>
					<g>
						<path class="st3" d="M5503.3-5079.3l-2.5-9.5c0,0-3.6,1-5.2-0.6c-0.7-0.6-1.3-3.4-1.5-7.8c0-0.5-1.8,0.5-1.8,0
							c0-0.9,3.1-5.2,2.9-7c-1-6.4-0.5-8.1,1.4-9.9c4.1-4,18.5-4.6,20.4,2.4c1.9,7,1.3,10.4-2.2,20.3l2.2,9.9L5503.3-5079.3z"/>
					</g>
				</g>
			</g>
			<g>
				<g>
					<path class="st2" d="M5500.5-5074.7l-3.2-8c0,0,9.7-6.7,19.1-7.3l2,4.1L5500.5-5074.7z"/>
				</g>
			</g>
			<g>
				<g>
					<path class="st6" d="M5467.9-4897.1l-3.7,11.1c0,0-11.3,0.7-11.6,1.5l16.3,4.5l4.3-15.6L5467.9-4897.1z"/>
				</g>
			</g>
			<g>
				<g>
					<polygon class="st6" points="5553.8,-4879.2 5563.2,-4879.2 5569.9,-4884.4 5561.6,-4898.2 5556.9,-4895.4 5562.5,-4885.1 
						5560.7,-4881 					"/>
				</g>
			</g>
			<g>
				<g>
					<polygon class="st0" points="5491.8,-4999.2 5463.6,-4889.4 5473,-4886.9 5495.6,-4945.3 5511.6,-4976.1 5529.4,-4930.4 
						5559.1,-4887.5 5566.1,-4892.4 5541.9,-4948.4 5534,-4999.2 					"/>
				</g>
			</g>
			<g>
				<g>
					<path class="st9" d="M5517.2-5089.5c0,0-8.7,2.7-13,7.7s-11.4,19.5-11.5,21.1c-0.2,1.6,2.2,19.5,2.2,19.5l-7.8,47.3
						c0,0,33.4,5.2,50.1,0l-8.7-39.1c0,0,1.2-13.8,2.7-15.4c1.4-1.6-1.1-15.3-2.2-21.6c-1.1-6.3-6.1-13.6-7.8-15.1
						C5519.3-5086.5,5517.2-5089.5,5517.2-5089.5z"/>
				</g>
			</g>
			<g>
				<g>
					<path class="st10" d="M5494.9-5058.9c0.2,0,0.3-0.1,0.4-0.3c1-2.5,3.6-5.9,6.1-7.6l0.2-0.1v-0.5c0.1-1.8,0.1-3.8-0.1-5.6
						c1.3-0.6,2.6-1.1,3.9-1.4l0.3-0.1v-0.3c0.3-1.8,1.6-3.4,2.9-5c0.7-0.8,1.4-1.7,1.9-2.6c0.1-0.2,0.1-0.5-0.1-0.6
						s-0.5-0.1-0.6,0.1c-0.5,0.8-1.2,1.6-1.9,2.5c-1.3,1.6-2.6,3.2-3,5.2c-1.4,0.4-2.7,0.9-4,1.5l-0.3,0.1v0.3
						c0.2,1.8,0.2,3.9,0.1,5.7v0.1c-2.6,1.9-5.2,5.2-6.2,7.9c-0.1,0.2,0,0.5,0.2,0.5C5494.8-5058.9,5494.8-5058.9,5494.9-5058.9z"/>
				</g>
			</g>
			<g>
				<g>
					<path class="st6" d="M5494.5-5120.8c0.6-0.2,1.3-0.4,2.2-0.5c3.5-0.6,5.9,1.5,9.1,1.7c2.3,0.2,4.5-0.9,6.9-0.9
						c1.8,0,3.7,0.5,5,1.8s1.8,3.7,0.9,5.4c4.6,1.9,1.4,9.9,0,13.5c-1.4,3.5-3.8,8.6-3.8,8.6l-4.7-4.6c0,0,3.6-4.2,2-6
						c-1.6-1.9-3.2,1-3.2,1s-0.1,1.2-0.2,2.7c-0.8-0.6-1.6-1.1-2.5-1.5h-0.1l-0.2-6.1c0,0-4.9,1.6-5.8-2.5
						C5493.3-5109.5,5486.7-5118.1,5494.5-5120.8z"/>
				</g>
			</g>
		</g>
		<g>
			<path class="st10" d="M5516.6-4991.1c5.9,0,11.5-0.3,16.6-1c0.2,0,0.4-0.2,0.4-0.5c0-0.2-0.2-0.4-0.5-0.4
				c-11.5,1.5-25.3,1.3-41-0.6c-0.2,0-0.4,0.1-0.5,0.4c0,0.2,0.1,0.4,0.4,0.5C5500.8-4991.6,5509-4991.1,5516.6-4991.1z"/>
		</g>
	</g>
	<g>
		<g>
			<g>
				<path class="st3" d="M5457.1-5055.6c-0.5-1.2-0.2-5.1,0.3-4.7c0.5,0.3,0.9,2.5,0.9,2.5l0.2,1c0,0,0.8-0.3,0.8,0s0.3,1.6,0.3,1.6
					l0.1,2.5L5457.1-5055.6z"/>
			</g>
		</g>
		<g>
			<g>
				<polygon class="st11" points="5463.1,-5050.6 5460.2,-5061.5 5457.8,-5070.1 5454.7,-5068.9 5460.4,-5050.4 				"/>
			</g>
		</g>
		<g>
			<g>
				<path class="st3" d="M5494-5044.3l-2.5,9.8c0,0-25.1-9.8-26.4-10.3c0,0-3.8-3-4.6-3.6s-3.2-6.6-3.4-7.2s4.5-0.9,4.5-0.9
					s0.1-2.9,0.4-3.8c0.1-0.5,1.2-2.8,1.7-1.2l1,4.4l1.5,1.5c0.8,1.1,1.6,5.5,1.6,5.5L5494-5044.3z"/>
			</g>
		</g>
		<g>
			<g>
				<path class="st9" d="M5495.9-5044.6c0,0-2.6-7.4-7.6-4.4c-4.9,3-5.5-0.7-5.5-0.7l-13.3-3.7l-4.3,8.6l28.7,12.3L5495.9-5044.6z"
					/>
			</g>
		</g>
	</g>
	<g>
		<path class="st10" d="M5501.6-5045.7l0.1-0.4c2.9-10.4,9-20,14.5-28c2.5-3.5,4.9-5.1,7.2-4.7c0.2,0.1,0.4-0.1,0.5-0.3
			c0-0.2-0.1-0.4-0.3-0.5c-2.6-0.5-5.4,1.2-8,5c-5.5,8-11.6,17.5-14.5,27.9l-4.9-1.4c-0.2-0.1-0.5,0.1-0.5,0.3s0.1,0.5,0.3,0.5
			L5501.6-5045.7z"/>
	</g>
	<g>
		<path class="st10" d="M5505.9-5029.7c0.5,0,1,0,1.5-0.1c2.5-0.4,4.4-2,5.5-3.3c1.5-1.6,2.5-3.4,3.6-5.2c0.1-0.2,0.1-0.5-0.1-0.6
			s-0.5-0.1-0.6,0.1c-1,1.7-2.1,3.6-3.5,5.1c-1.1,1.2-2.8,2.6-5,3c-2.7,0.5-5.6-0.7-7.9-1.7c-0.2-0.1-0.5,0-0.5,0.2
			c-0.1,0.2,0,0.5,0.2,0.5C5501-5030.7,5503.4-5029.7,5505.9-5029.7z"/>
	</g>
</g>
<path class="st12" d="M4838.8-5255c0,2.4,0,4.8,0,8.5c-1.8-1.5-4.4-2.9-4.2-3.6c0.6-2,2.2-3.7,3.4-5.6
	C4838.3-5255.4,4838.5-5255.2,4838.8-5255z"/>
<g>
	<path class="st13" d="M218.7,254c0.4-2.2,0.7-4.4,1.1-6.7c2-1.3,3-3.3,4-5.2c0.9-0.5,1.5-1.2,1.8-2.3c0.2-0.2,0.3-0.4,0.3-0.6
		c0.6-0.7,1.2-1.5,1.9-2.2c0.4-0.6,0.7-1.1,1.1-1.7c2-1.4,4-2.8,6-4.2c5.4-4.3,11.6-7.1,17.7-10.1c4.6-2.4,9.2-4.7,13.8-7.1
		c2-0.2,4-0.8,5.9-0.5c15.1,2.4,29.1,8.1,42.9,14.3c5.7,2.6,11.4,4.6,17.7,4c7-0.7,14.1-1.8,21.1-2.8c10.9-1.5,20.9-4.4,27.8-14.2
		c3.2-4.5,6.5-9.3,11.7-12c8.5-4.5,13.5-10.7,11.3-21c-0.7-3.4-1.5-6.8-1.9-10.2c-0.8-6.9-4.6-10.7-11.5-11.5
		c-2-0.2-3.9-0.7-5.5-1.9c10.1-3.6,28.9,1.9,37,10.8c-5.4,0-8.9,3.8-13,6.5c-1,0.7-1.2,1.9-1.1,3.1c0,3.5,0,7,0,10.4
		c0,1.7,0.4,2.9,2.4,2.9c5.7,0,9.6-3.2,10.5-9c0.6-4,1.5-7.8,4.1-11c5.3,4.6,8.9,10.3,11.7,16.6c2.4,5.4,5.8,9.7,10.9,12.6
		c18.6,10.4,26.1,27.6,29.3,47.4c1.9,11.4,1.6,11.4-10.1,11.6c-20.5,0.3-40.9,0.7-61.4,1.1c-2.5,0-4.9,0.5-7.4,0.8l0,0
		c-0.3-0.3-0.6-0.7-0.9-1c-3.5-2.6-6.4-5.4-7.4-10.1c-0.8-4.1-3.5-7.7-7.6-9.3c-5.5-2.1-11.5-2.8-17.1-2.3
		c-11.9,1.1-23.5,4.3-33.8,10.7c-9.4,5.8-18,12.4-24.1,21.9c-18.3,0-36.6,0-55.6,0c1.5-1.7,3.6-2.6,3.5-4.9l0,0
		c15.5,1.2,30.1-3.1,44.8-7.3c4.1-1.2,4.3-3.2,2.8-6.5c-2.1-4.6-5.1-8.6-7.9-12.6c-7.2-10.4-26-15.6-37.9-11.1
		c-9.4,3.6-17.5,9.3-25.7,14.9C227.3,247.5,223.9,251.9,218.7,254z M444.9,206c-5.1-3.9-10.2-7.8-15.6-7.5
		c-8.6,0.4-17.2,2.8-25.8,4.6c-2.7,0.6-7.9,9.5-7.7,12.1c0.1,1.2,0.7,1.9,1.7,2.2c7.8,2.5,15.6,4.5,23.7,1
		C429.1,214.9,435.5,208.7,444.9,206z M412.7,165.5c-2.8,0-6,2.6-5.9,5.2c0,1.3,0.2,3.3,1.9,2.6c2.6-1.1,5.8-2.1,6.7-5.3
		C415.7,166.9,414.9,165.3,412.7,165.5z M314.1,236.3c-0.1-1.6-7-6.6-8.5-6.1c-1.9,0.7-1.5,2-0.7,3.1c1.9,2.5,4.9,3.2,7.6,4.3
		C313.4,238,314.1,237.3,314.1,236.3z"/>
	<path class="st14" d="M385.9,158.2c1.6,1.2,3.6,1.7,5.5,1.9c6.9,0.8,10.6,4.6,11.5,11.5c0.4,3.4,1.2,6.8,1.9,10.2
		c2.2,10.3-2.8,16.5-11.3,21c-5.2,2.7-8.5,7.5-11.7,12c-6.9,9.8-16.9,12.7-27.8,14.2c-7,0.9-14,2-21.1,2.8c-6.3,0.7-12-1.4-17.7-4
		c-13.8-6.3-27.8-11.9-42.9-14.3c-1.9-0.3-3.9,0.3-5.9,0.5c0.8-1,2.3-1.4,2.5-2.9c5.5-1,10.2-3.9,14.9-6.8c2-1.1,4-2.3,6-3.4
		c1.3-0.1,2.7,0.1,3.9-0.4c9.7-3.8,19.4-7.7,29.1-11.5c7.1-1.6,14.4-2.7,20.9-6.4c6.3-0.3,11.7-2.4,15.8-7.5
		c2.2-0.1,3.5-1.7,5.1-2.9C372,167.9,377.8,161.4,385.9,158.2z"/>
	<path class="st15" d="M325.6,169c-1,0-2,0-3-0.1c-5.3,0-10.7-0.3-16,0c-8.5,0.5-13.4-4.4-17.4-10.9c-1.7-0.3-2.4-1.4-2.5-3
		c-7.8-7.1-14.1-15.2-18.2-25c-2.8-0.5-2.3-4.2-4.7-5c-2.1-0.5-2-3.4-4.1-4c0,5.4,0.1,10.7-0.2,16.1c-0.1,1.5,0.9,1.9,1.3,2.9
		c0,5.8,0,11.6,0,17.3c0,1.6,0.5,3.3-0.9,4.7c-0.7,2.2,1.2,6.5-1.4,6.4c-3.2-0.1-1.2-4.3-1.6-6.7c-0.3-1.8-0.2-3.7,0-5.5
		c0.4-4.5-2.2-6.7-6-8c-1.1-0.4-2.2-0.5-3.4-0.8c-6.2-1.4-7.4-4.2-4.5-10.6c-2-2.3-1.2-5-1.2-7.6c-0.1-5.1-0.1-10.3,0-15.4
		c0.1-2.4-1.8-6,3.3-5.9s7.6,1.8,7.6,6.3c0.1,5.6,0,11.3,0,16.9c0,1.3,0.1,2.6,0.2,4c3.9-0.8,3.5-3.8,3.9-6.8
		c0.4-3.1-2.1-6.8,1.8-9.2c-1.8-5.5-5-10.2-7.8-15.1c-6.8,2.7-9.7,0.9-10-6.3c-0.1-1.9,0.6-3.8,0.9-5.7c-1.6-2.4-0.7-5.2-0.9-7.8
		c2.3-4.6-0.1-8.3-2.1-12.1c-0.4,6.3,1.1,12.7-0.9,19c-0.2,3.8,0.7,7.7-0.8,12.4c-2.1-3.5-0.5-6.6-1.8-10.1c-0.3,4.9-0.5,9,0.1,13
		c2.2-0.3,3.6,0.4,3.6,2.8c-0.1,8.7-0.2,17.3-0.3,26c0,0.4-0.5,0.8-0.7,1.2c-0.1,3.9,1,8-1,11.8c3.1,7.1,1.8,14.5,2,21.8
		c0.7,0,1.5,0,2.2,0c0.1-5,0.1-10,0.4-14.9c0.1-2.4,0.6-4.6,4.1-4c3,0.5,6.9-0.2,7.3,4.2c0.4,4.1,0,8.3,0.1,12.5c0,0.4,0,0.7-0.1,1
		v0.1c0,0.5-0.1,0.9-0.4,1.3l0,0c-0.1,0.3-0.3,0.5-0.7,0.6c-1.1,0.2-2.2,0.4-3.3,0.5c-1.1,1.3-2.4,1-3.8,0.2c-0.4,0-0.7,0-1.1,0
		c-0.3,0.2-0.8,0.3-1.2-0.1L242,171c-3.3,3.4-7.8,2.2-11.7,2.8c-9.4,1.3-18.9,2.5-28.3,4c-1.7,0.3-3.6,0.9-5.1-0.9
		c-0.7,0-1.3,0.1-2,0.1c-3.3,3.3-12.2,3.9-15,1c-2.8,1.1-5.6,2.1-8.5,3.2c-1.5,0.6-3,1.3-4.5,0c-2.9-0.8-6.1,0.7-8.8-1.3
		c-0.4-0.3-0.8-0.5-1.2-0.8c-3.6-0.3-5.3-3.4-7.8-5.2c-3.7-1.9-4.5-5.7-6.2-9l0,0c-2.2-2.5-3-5.2-2.2-8.6c0.5-2.2,0.2-4.6,0-7
		c-0.1-1.8-1.6-2.8-3.1-2.7c-1.6,0.1,0.2,2-1.1,3.1c-2-4.7-3-9.4-3.6-14.3c0.1-4-1.4-7.8-1.9-11.7c-0.2-1.6-1.6-4.3,1.8-4.6
		c2.9-0.2,5.3,0.4,5.1,4.3c-0.2,4.5-0.1,9-0.2,13.5c2.3-0.9,3.1-2.7,3.1-5.1c-0.1-3.1,0-6.3,0-9.4c0-2.3,0.5-4.8-2.7-5.5
		c-3.1-0.7-6.3-2.4-9.3,1.6v-6.7c-2.9-5.6-1.3-11.8-1.9-17.7c-1.4-5.2-2.1-10.6-2-16c-0.7,0-1.4,0-2,0c0.1,11.6,2.4,22.9,3.7,34.3
		c0.3,2.6,0.4,5.3,0.5,7.9c1.2,5.8,3.3,11.5,2.8,17.6c1.2,1,1.8,2.3,2.1,3.8c0.2,1.2,1.6,2.5,0.3,3.6s-3,1.1-4.4-0.3
		c-1.3,0.8-2.8,1.5-0.8,3.1c6.9-0.2,9.7,3.1,10.8,12.6c0.2,1.8,0.4,3.6,0.6,5.4c3.5-0.5,3.9,2.6,4,4.5c0.4,5.5,0.1,11.1,0.1,17.3
		c-2.4-1.7-1.6-3.6-1.7-5.2c-0.2-5.3-1.6-6.6-6.9-6.8c-2.1-0.1-4.3,0.9-6.1-1c-2.9,0.7-2.2,2.3-1,4c1.6-0.1,3.3-0.2,4.9-0.2
		c5.5,0,8.4,4.8,6,9.8c-0.4,0.8-1,1.2-1.9,1.4c-3.1,0.5-5.8,2.5-9.1,2c-4,2.4-4.8,2.1-4.9-2.3c-0.1-5.3,0.3-10.6-0.1-15.9
		c-0.4-4.9,1.2-6.8,6.1-5.6c0.1-0.2,0.1-0.5,0.1-0.7c-0.4-0.5-0.8-1-1.2-1.6c-3.6,2.2-4.8,0.4-4.9-3.1c0-6,0.3-12-0.1-18
		c-0.4-4.9,1.4-6.7,6.1-5.9c0-0.3,0-0.6,0-0.9c-0.3-0.4-0.6-0.8-0.9-1.1c-6.1,1.6-6.1,1.6-6.1-4.5c-0.1-10.6,0.2-21.1-0.9-31.7
		c-0.2-2-0.1-4,0.9-5.8c-2-5.3-0.4-10.9-1-16.3c-1.9,1.3-2.1,3.3-2,5.3c1.3,26.6-1.9,53.1-0.9,79.6c0.3,9.1-0.2,18.3,0.1,27.4
		c0.1,4.6-1.5,6.9-6.2,6.9c-0.6,0-1.1,0-1.7,0c-0.6,1.3-1.7,2-3.1,2.1c-5,4-11.1,5.7-16.6,8.7c-1.6,0.9-3.5,1.2-4.3,3
		c1.3,0.2,2.8-0.3,3.8,1.1c4.3,0,8.6,0,13,0c3.7-3,8.2-4.4,12.7-4.9c5.4-0.6,2.8,3.8,3,6.3c-0.1,1.8,0,3.4,0.7,4.4h4.7
		c0-2.9,0-5.8-0.1-8.7c-0.1-2.8,0.9-4.4,4-4.2c3.5,0,6.5-2.4,10.1-2c3.9-0.8,7.9-1.3,11.9-1c23.2-3.5,46.6-2.3,70-2h17.9
		c5.1,0.3,10.3-0.2,15.3,1c5.6,0.3,11.3,0.7,16.9,1c5.1-0.4,10,0.7,15,1.2c2-1.1,4-2.3,6-3.4v-0.1c-3.1,0-6.3-0.2-9.4-0.6
		c-3.9-0.1-7.7-0.5-11.5-1.2c-1.5,0-3-0.1-4.5-0.4c-5.4,0-10.8-0.1-16.1-0.4c-8.3-0.5-16.4-1.4-24.8-1c0,0,0,0-0.1,0
		c-16.1,0-32.2,0.3-48.2,0.8c-0.5,0.1-1,0.2-1.5,0.1c-0.7,0.1-1.4,0.1-2.2,0.2c-2,0.2-4.1,0.4-6.1,0.5c-0.2,0-0.3,0-0.5-0.1
		c-1.4,0.3-3,0.3-4.4,0.4c-5.4,0.4-10.9-0.2-16.3,1.1c-1,0.2-3.1,0.7-3.3-1.1c-0.2-1.3,0.7-2.5,2.4-3.2c8.1-3.7,16.9-3.7,25.5-5
		c12.5-2,25.1-3,37.6-3.7c19.7-1.1,39.5-2.4,59.2-2.6c17.1-0.2,34.2,1,51.2,3.1c3.4-2.2,6.8-4.4,10.2-6.6c0-0.3,0-0.5,0-0.8
		c-34.3,0-68.6-0.4-102.9,0.1c-10.7,0.2-21.5,0.8-32.1,2.6c-1.3,0.2-2.7,0.5-4.7-1.2c30.1-4.5,59.6-5.8,89.2-6.7
		c1-1.2,2.4-0.9,3.7-0.9c15.2,0,30.4,0,45.6,0c1.3,0,2.7-0.3,3.7,0.9c1,0,2,0.1,3,0.1c0.3,0,0.7-0.1,1-0.2c1.2-1.6,2.5-3.2,3.7-4.8
		C333.5,169.7,329.6,169.4,325.6,169z M119.9,140.6h0.5V166h-0.5V140.6z M120.6,192.7c-0.1,0-0.3,0-0.4,0v-22.4
		c0.1-0.1,0.3-0.1,0.4-0.2V192.7z M145.8,184.6c0-2.9,0-5.8,0-8.6c2-0.4,1.8,1.5,2.7,2c2,1.1,4,2.2,6,3.4c1,0.6,2.5,0.9,2.2,2.3
		s-1.7,1.3-2.9,1.5c-1.8,0.3-3.6,0.6-5.4,0.9C146.7,187.2,145.7,186.8,145.8,184.6z M151.9,188.1c0-0.4,0-0.7,0-1.1
		c5.4-1,10.8-1.9,16.2-2.9c0.1,0.4,0.1,0.9,0.2,1.3C162.9,186.4,157.4,187.3,151.9,188.1z M274.8,163c0.5,4.8-1.1,6.9-6,6
		c-3.6,0.5-5.2-0.8-5.1-4.7c0.2-6.5,0.1-13,0-19.5c0-1.6,0.7-3.4-0.9-4.7v27.7c-0.4,0-0.7,0-1.1,0v-27.7c1-1.6,2.6-0.9,4.1-1
		c-2.1-2.4-2.5-5.1-1.6-8.7c2,2.7,3.9,4.8,4.7,7.7c4.3,4,6.8,8.7,6,14.9C274.4,156.3,274.5,159.7,274.8,163z M292.8,169.1h-0.4
		c-0.5,0.2-1.2,0.2-1.8,0h-11.7c-0.6,0-0.9-0.5-1-0.9c-0.4-0.4-0.6-0.9-0.6-1.5c-0.1-5.3-0.1-10.7-0.1-17.3c3.6,4.1,6.7,7.3,9,10.9
		c0.4,0.4,0.8,1,1.2,1.4c0.6,0.6,1.4,1,2,1.6c0.7,0.6,1.3,1.3,2,1.8c0.2,0.1,0.3,0.3,0.4,0.4c0.8,0.6,1.5,1.3,1.5,2
		C294,168,293.7,169.1,292.8,169.1z"/>
	<path class="st16" d="M255.8,267c0.1,2.2-2,3.1-3.5,4.9c19,0,37.3,0,55.6,0c29.9,0,59.8,0.1,89.7,0.1c1.4,0,3,0.4,4.2-1
		c0.4,3.3-2.2,1.9-3.4,1.9c-12,0.1-24,0.1-35.9,0.1c-58.6,0-117.2-0.1-175.7-0.2c-1.4,0-3.3,1.1-4.4-0.9c0-0.1,0.1-0.3,0.2-0.4
		c0.1-0.1,0.3-0.2,0.4-0.3c0.6,0.2,1.2,0.7,1.8,0.7c11.3,0,22.6,0,33.9,0.1c1.4,0,2.6-0.2,3.4-1.5c1.4-2.4,4-2.8,6.4-3.4
		c4.1-0.9,8.2-1.6,12.2-2.4c-11.2-0.7-22,1.3-33,2.7c-6.2,0.8-12.6,3-19,0.6c7.7-4.9,16.9-6,25.1-9.6c2.3-1,3.9-2.2,4.9-4.3
		c5.1-2.1,8.6-6.5,13.1-9.6c8.2-5.6,16.3-11.3,25.7-14.9c12-4.5,30.7,0.7,37.9,11.1c2.8,4.1,5.8,8.1,7.9,12.6
		c1.5,3.3,1.3,5.3-2.8,6.5C285.9,263.9,271.3,268.2,255.8,267c-2.5-1.4-5.1-2.3-8.3-1.7C250.2,267.3,253,267.1,255.8,267z"/>
	<path class="st17" d="M401.8,271c-1.1,1.4-2.7,1-4.2,1c-29.9,0-59.8-0.1-89.7-0.1c6.1-9.4,14.7-16.1,24.1-21.9
		c10.3-6.4,21.9-9.6,33.8-10.7c5.5-0.5,11.6,0.2,17.1,2.3c4.2,1.6,6.8,5.2,7.6,9.3c1,4.7,3.9,7.5,7.4,10.1c0.3,0.3,0.6,0.7,0.9,1
		l0,0C398.6,265.4,401.3,267.8,401.8,271z"/>
	<path class="st16" d="M105.9,200.2c-5,4-11.1,5.7-16.6,8.7c-1.6,0.9-3.5,1.2-4.3,3c-0.1,0.5-0.2,1.1-0.4,1.6
		c-17.3,0.2-34.5,0.8-51.8-0.4C22.1,212.4,11.2,213,0,213c2.7-3.1,5.4-5.4,9.9-6.1c13-2.2,25.7-5.4,33.1-18.2
		c1.5-2.5,3.9-4.1,6.7-4.8c5.9-1.5,11.9-3.1,17.8-4.6c4.9-1.2,7.8,2.5,10.7,5.1c3.4,3,6.6,5.2,11.5,4.8c2.6-0.2,5.2,1.2,7,3.4
		c1.6,2,2.7,1,3.8-0.5c0.1,0.4,0.1,0.7,0.2,1.1C100.1,197.3,103.8,198.2,105.9,200.2z"/>
	<path class="st18" d="M179.8,178.1c-2.8,1.1-5.6,2.1-8.5,3.2c-1.5,0.6-3,1.3-4.5,0c1-0.4,1.8-1.1,2.1-2.2c0.3,0,0.7-0.1,1-0.2
		c2,0.6,3.6-0.1,5-1.4c1-0.9,3.5-1.5,2-3.1c-2.5-2.7-3.4-6.9-7.3-8.3c-0.2,0-0.5,0-0.7,0c-2.1-10.2-7.3-19.2-11-28.8
		c-0.3-0.1-0.7-0.1-1-0.2c-0.7-12.2-5.7-23.3-7.6-36.4c-1.5,4-0.2,7.1-1.6,9.8c-0.4,0.2-0.8,0.4-1.2,0.6c0.1-0.8-0.1-1.5-0.9-1.8
		c0-9.7,0-19.3,0-29c1.3-0.1,1.6,0.5,1.8,1.7c3.1,16.9,6.9,33.7,11.7,50.2c3.7,13,8.3,25.7,16.1,36.9c3.8,5.4,4.1,5.4,8.1,0.4
		c13.6-16.7,20.4-36.5,26-56.7c4.6-16.5,8-33.3,9.2-50.5c0.1-0.8,0.1-1.7,1-2.1c0.2,6.1,0.3,12.1-0.9,18.1c-0.2,1.5-0.3,3-0.6,4.5
		c-1.6,8.3-4.3,16.6-4.6,25c-0.6,22.1-0.1,44.3,0,66.5c-0.7,0-1.4,0-2.1,0c0-18.7,0-37.3,0-56c-2.8,5-4.2,10.2-6.3,15.2
		c-2.6,6-3.5,12-3.3,18.4c0.3,7.8,0.2,15.6,0.2,23.4c-0.7,0-1.3,0-2,0c-0.6-9.3,1.2-18.6,0-28c-6.7,9-10.5,18.7-8.8,30
		c-0.6,0-1.2,0-1.8,0c0-3.5,0-7,0-11.8c-2.7,3.2-4.3,5.5-6.3,7.4c-2.2,2.1-1.4,3.7,0.3,5.4C182.4,178,181.1,178.1,179.8,178.1z"/>
	<path class="st19" d="M268.8,203.1c-5.6-0.3-11.3-0.7-16.9-1c-6.1,9.3-8.4,9.1-15.3-1c-5.5,0-11,0-16.5,0v5
		c1.7,0.4,3.3,0.8,3.7,2.9c1.9,2.4,0.7,5.1,0.9,7.7c0.6,7.7-1,15.5,0.9,23.2c0.2-0.2,0.3-0.4,0.3-0.6c0-8.9-0.1-17.7,0-26.6
		c0-0.9-1.6-3.8,1.9-2.6c2,3.9,0.7,8,0.9,12c0.3,4.4,0.2,8.9,0.2,13.3c2-1.4,4-2.8,6-4.2c-1.9-3-0.1-5.3,1.6-7.5
		c1.3-1.7,2.9-3.2,4.3-4.8c5-5.9,8.2-5.3,11.8,2.2c4.6-2.4,9.2-4.7,13.8-7.1c0.8-1,2.3-1.4,2.5-2.9
		C268.9,208.4,268.9,205.7,268.8,203.1z M234.3,221.6c-0.1-0.5-0.4-0.9-0.4-1.3c0-5.3,0-10.5,0-16.3c1.1,0.2,1.3,0.2,1.4,0.3
		C244.8,211.3,244.6,214.1,234.3,221.6z M252.7,215.1c-6.4-2.6-6.4-3.6,0-9.1V215.1z"/>
	<path class="st19" d="M325.6,169c-1,0-2,0-3-0.1c0-6-0.1-12,0.2-17.9c0.1-3.4-0.9-6-3.1-8.6c-10.4-12.2-19-25.6-26.8-39.6
		c-0.8-1.5-1.2-3.4-3.4-4.6c0,2.3,0,4.1,0,5.9c-0.1,17.9-0.2,35.9-0.3,53.8c-1.7-0.3-2.4-1.4-2.5-3c0-17.7,0-35.5,0.2-53.2
		c0.1-6.5,0-12.9-3.5-18.7c0.8,0,1.7-0.1,2.5-0.1c13.7,30.5,32.3,57.5,57.1,80c-0.4,0.7-0.9,1.3-1.3,2c-6.1-4.4-10.5-10.6-16.1-15
		C325.6,156.5,325.6,162.7,325.6,169z"/>
	<path class="st20" d="M211.7,174c0.7,0,1.4,0,2.1,0c4-0.3,5.5-2.1,5.3-6.4c-0.5-9.6,0.2-19.3,0.4-28.9c0.3-19,0.1-38,0.3-56.9
		c0-1.3,0.4-2.7-1-3.7c1.2-6,1.1-12.1,0.9-18.1c-0.4-5.1-0.8-10.1,1.8-14.9c0.6-1.2,0.3-2.9,0.3-4.4c0-10.4,0.1-20.8,0-31.3
		c0-3,0.4-5.6,2.8-7.6c0,13.7,0,27.4,0.1,41.1c0,1.7-0.8,3.7,1,5.1v0.1c0,0.3,0,0.5,0,0.8c-0.6,1.1-2.3,1.4-2,3.1
		c-0.2,0-0.5,0-0.7,0c-0.4-0.6-0.7-1-1.2-0.1c0.6,1.4,1,2.7,0.7,4.3c-1.7,11.4-0.3,22.8-0.8,34.3c-0.1,1.6,0.5,2.2,2,1.5
		c0.3,0.6,0.6,1.3,0.9,1.9c-2.7,0.3-2.9,2.3-2.9,4.4c0,11.8,0,23.5,0,35.3c0,1.5-0.3,3.1,1.9,3.4c0.3,0.6,0.7,1.3,1,1.9
		c-2.1-0.1-2.9,0.9-2.9,3c0.1,9.2,0,18.4,0.1,27.7c0,1.6,0,4.1,3,2.4c0.3,0,0.6,0,0.9,0c0.4,0,0.8,0,1.2,0c2.8,0.7,5.4-1,8.1-0.9
		c1.4,0.2,2.6-0.2,3.7-1c0.7,0,1.5,0,2.2,0c0.3,0.3,0.6,0.7,0.9,1c-3.3,3.4-7.8,2.3-11.7,2.8c-9.4,1.3-18.9,2.5-28.3,4
		c-1.7,0.3-3.6,0.9-5.1-0.9c1.2-0.6,2.4-1.3,3.5-1.9c0.7,0,1.3,0,2,0C205.5,175.4,208.6,174.5,211.7,174z"/>
	<path class="st21" d="M259.7,49c0.1-12.4,0-24.8,0-37.2c-5.8,0-11.4-1.8-17-3c-3.2-0.7-7.2-0.5-8.2-4.7c-0.4-0.5-0.7-1.1-1-1.7
		c-0.5-0.2-1.2-0.4-1.7-0.6c-0.4,13.1-0.2,26.2,1.9,39.2c0.1,0.9,0.3,1.6,1.1,2.1c0.1-6.2,0.2-12.5,0.3-18.7c-1.2-4.4,0-5.8,4.5-4
		c3.2,1.2,6.7,1.8,10,2.6c0.9,0.2,1.9,0.5,2.8,0.9c4.2,1.6,5.7,5.2,5.2,9.1c-0.8,5.8,3.6,13.3-4.7,17c-0.4,0.4-0.7,0.7-1.1,1.1
		c1.8,1.7,4.1,0.8,6.2,1.2C260.8,52.9,259.7,50.2,259.7,49z"/>
	<path class="st19" d="M265.6,7.1c1.2,1.4,2.3,2.9,2.2,4.9c-0.6,21.3,7.2,40.8,13.4,60.6c-0.5,0.8-1.1,1.4-2,1.5
		c-3.7-10-6.9-20.2-10.7-30.3c0,3.4,0,6.8,0,10.3c-3.8,0.5-4.9-1.4-4.8-5c0.1-11.8,0.1-23.6,0.1-35.5C263.7,11.2,264.3,9,265.6,7.1z
		"/>
	<path class="st21" d="M126.9,137c-6.1,1.6-6.1,1.6-6.1-4.5c-0.1-10.6,0.2-21.1-0.9-31.7c-0.2-2-0.1-4,0.9-5.8
		c0-5.6,0.1-11.3,0.1-16.9c0.6,0,1.3,0,1.9,0c0.1,11.6,2.4,22.9,3.7,34.3c0.3,2.6,0.4,5.3,0.5,7.9
		C126.9,125.9,126.9,131.5,126.9,137z"/>
	<path class="st15" d="M265.6,7.1c-1.4,2-1.9,4.2-1.9,6.5c0,11.8,0.1,23.6-0.1,35.5c0,3.6,1,5.5,4.8,4.9c0,0.7,0,1.4,0,2.1
		c-3.6-0.6-5,0.6-4.9,4.5c0.3,11,0.2,21.9,0.4,32.9c0,1.2-0.5,1.4-1.4,1.4c0-11.9,0-23.9,0-35.8c-0.9,10.1-1,20.2-0.9,30.4
		c0,2.6-0.5,4.5-3,5.5c-0.7-0.1-1.9,0-1.5-1.1c0.3-1.1,1.6-0.6,2.5-0.8c1.5-1.3,0.9-3.1,0.9-4.7c0-8.6,0.1-17.3,0-25.9
		c0-2.1,0.8-4.3-0.8-6.2c-0.2-2.1-1.8-1.9-3.3-2.1c-3.7-0.5-7.4-1.3-10.9-2.8c2,0,4.1,0,6.1,0c1.8,1.7,4.1,0.8,6.2,1.2
		c2.9,0.6,1.8-2.1,1.8-3.4c0.1-12.4,0-24.8,0-37.2C261.7,10.1,259.9,3.9,265.6,7.1z M262.6,11.4c-0.2-0.1-0.3-0.1-0.5-0.2
		c0,13.5,0,27,0,40.5c0.2,0,0.3,0,0.5,0C262.6,38.3,262.6,24.8,262.6,11.4z"/>
	<path class="st22" d="M425.8,172c-2.6,3.2-3.5,7-4.1,11c-0.9,5.9-4.8,9.1-10.5,9c-2.1,0-2.5-1.2-2.4-2.9c0-3.5,0-7,0-10.4
		c0-1.2,0.1-2.5,1.1-3.1c4-2.7,7.6-6.5,13-6.5C424.2,169.7,425.1,170.7,425.8,172z"/>
	<path class="st15" d="M231.8,1.8c-0.4,13.1-0.2,26.2,1.9,39.2c0.1,0.9,0.3,1.6,1.1,2.1c0.6,3.1,1.1,6.2,5.1,6.8
		c-1.8,0.5-5-0.7-3.6,3.3c0.3,0.9,0.6,1.9,0.9,3c1.1-1.2-0.2-3,1.8-3.7c2.2,2.9-0.3,5.1-1.2,7.5c-1.8,0.8-0.2,4-3,4
		c-0.4-2.7-0.8-5.4-1.1-8.2c-0.4-5-2.5-7.9-8-6.9c0-0.3,0-0.5,0-0.8c0.3-0.4,0.7-0.7,1-1.1c2.3-0.2,5.9,0.9,4.8-3.3
		c-1.1-4.2-0.9-8.5-1.4-12.8c-1.2-8.7-1.8-17.4-1.4-26.2c0.1-1.8,0.5-3.3,2.5-3.8C231.4,1.2,231.6,1.5,231.8,1.8z"/>
	<path class="st13" d="M188.7,268c6.4,2.4,12.8,0.2,19-0.6c11-1.4,21.8-3.4,33-2.7c-4.1,0.8-8.2,1.5-12.2,2.4c-2.4,0.5-5,1-6.4,3.4
		c-0.8,1.4-2,1.6-3.4,1.5c-11.3,0-22.6,0-33.9-0.1c-0.6,0-1.2-0.4-1.8-0.7C184.9,270.2,186.8,269.1,188.7,268z"/>
	<path class="st19" d="M126.8,94.1c-1.4-5.2-2.1-10.6-2-16c0.6-0.4,1.3-0.5,1.8,0.1c3.1,4.2,10.7,6,16.2,3.8c0,9,0,18.1,0.1,27.1
		c-1.1,0.3-2.2,0.6-3.3,0.9c2.4-5.2,2.1-10.9,1-16.1c-1.3-6-7.1-3.5-10.9-4.3C126.1,88.8,127.4,92.4,126.8,94.1z"/>
	<path class="st19" d="M148.7,203c-4-0.3-8,0.2-11.9,1v0.1c0.1,0,0.3,0.1,0.4,0.2c0.6,0.1,1,0.6,1.1,1.1c0.1,0.1,0.2,0.2,0.2,0.4
		l0,0c0,0.1,0,0.1,0,0.2v0.1c0,0.3,0.1,0.6,0.1,0.8c0,1.8,0,3.6,0,5.5c0.1,0.2,0.1,0.4,0.2,0.6c0.1,0.5-0.1,1.1-0.7,1.2
		c-0.5,0.1-1.1-0.2-1.2-0.7c-0.1-0.4-0.2-0.7-0.4-1c-0.1-0.2-0.2-0.3-0.4-0.5c-0.1-0.1-0.1-0.1-0.2-0.2c0,0-0.3-0.2-0.1-0.1
		c-0.1,0-0.1-0.1-0.1-0.1c-0.1-0.1-0.1-0.1-0.2-0.2c-0.2,0.2-0.5,0.5-0.7,0.7c1.1,2.4,3.1,4.1,4.4,6.5c0.2,0.3,0.4,0.6,0.6,0.8h8.3
		c1-0.6,0.6-2.3,0.7-3.5C148.7,211.6,148.7,207.3,148.7,203z"/>
	<path class="st15" d="M223.8,209c-0.4-2.1-2-2.5-3.7-2.9v41c1.7-1.3,2.7-3.1,3.7-5C223.8,231.1,223.8,220,223.8,209z"/>
	<path class="st19" d="M231.2,0.9c-1.9,0.6-2.4,2-2.5,3.8c-0.5,8.8,0.2,17.6,1.4,26.2c0.6,4.2,0.3,8.5,1.4,12.8
		c1.1,4.2-2.6,3.1-4.8,3.3c0-13.4,0-26.7,0-40.1c0-2.4,0.4-4.6,1.1-6.8C229,0,230.3-0.3,231.2,0.9z"/>
	<path class="st15" d="M333.7,174.9c1.2-1.6,2.5-3.2,3.7-4.8c3.2-0.7,6.4,1.3,9.6-0.1c1.4,0.8,2.9,2,3.6-0.7c4.3,2.7,9.4,1.4,14,2.9
		c-1.5,1.2-2.9,2.8-5.1,2.9C351,175,342.3,174.9,333.7,174.9z"/>
	<path class="st20" d="M100.7,194.8c-0.1-0.4-1.7-0.8-1.8-1.1c5.6-8.6,15-26.9,19-36.4c-5,10.8-7.4,29.5-7.2,40.8
		c-0.6,0-1.1,0-1.7,0c0-5.1,0-10.1,0-16.4C105.4,186.2,104.6,192.5,100.7,194.8z"/>
	<path class="st15" d="M142.8,109.1c0-9,0-18.1-0.1-27.1c0.3-1.8,1.5-2.2,3.1-1.9c0,9.7,0,19.3,0,29
		C144.7,110.3,143.7,110.3,142.8,109.1z"/>
	<path class="st19" d="M132.9,207.7L132.9,207.7c-0.3,0.1-0.5,0.1-0.7,0.2c-0.1,0.1-0.1,0.1-0.2,0.2c-0.3,0.4-0.4,0.9-0.6,1.3
		c0,0.5,0,1-0.2,1.4c-0.7,1.3-1.8,2.9-3.3,2.6c-1.6-0.4-0.9-2.2-1-3.5s-0.1-2.7-0.1-4c-3-0.2-4.1,1.4-4,4.2c0.1,2.9,0.1,5.8,0.1,8.7
		h3.9c0.4-0.3,0.7-0.7,1.1-1.2c1.7-2.3,2.8-5.9,6.8-5.5c0.2-0.2,0.5-0.5,0.7-0.7C134.6,210.2,134.9,207.9,132.9,207.7z"/>
	<path class="st23" d="M227.8,0.2c-0.7,2.2-1.1,4.4-1.1,6.8c0.1,13.4,0,26.7,0,40.1c-0.3,0.4-0.7,0.7-1,1.1v-0.1
		c0-14.1,0-28.2,0-42.2c0-1.6,0.6-3.3-0.9-4.7C225.5-0.4,226.7,0.1,227.8,0.2z"/>
	<path class="st21" d="M224.9,1.1c1.4,1.4,0.8,3.1,0.9,4.7c0,14.1,0,28.2,0,42.2c-1.8-1.4-1-3.4-1-5.1c-0.1-13.7-0.1-27.4-0.1-41.1
		C224.7,1.6,224.8,1.4,224.9,1.1z"/>
	<path class="st19" d="M281.5,73c-0.1-0.1-0.1-0.3-0.1-0.4c0,0,0,0-0.1-0.1c-0.5,0.8-1.1,1.4-2,1.5c0.8,3.3,2.6,6.1,4.1,9
		c0.8,0,1.7-0.1,2.5-0.1c0,0,0,0,0-0.1C284,79.8,283.3,76.2,281.5,73z"/>
	<path class="st19" d="M350.6,169.3c-0.8,2.7-2.2,1.4-3.6,0.7c-1.8-1.7-3.5-3.3-5.3-5c0.4-0.7,0.9-1.3,1.3-2
		C346,164.6,348.3,167,350.6,169.3z"/>
	<path class="st23" d="M120.8,78.1c0,5.6-0.1,11.3-0.1,16.9c-2-5.3-0.4-10.9-1-16.3C120.1,78.5,120.4,78.3,120.8,78.1z"/>
	<path class="st15" d="M84.6,213.6c0.1-0.5,0.2-1.1,0.4-1.6c1.3,0.2,2.8-0.3,3.8,1.1C87.5,214.2,86.1,213.8,84.6,213.6z"/>
	<path class="st22" d="M444.9,206c-9.4,2.7-15.8,8.8-23.7,12.3c-8.1,3.5-15.9,1.6-23.7-1c-1-0.3-1.6-1.1-1.7-2.2
		c-0.3-2.6,5-11.5,7.7-12.1c8.5-1.8,17.1-4.1,25.8-4.6C434.7,198.2,439.7,202.1,444.9,206z"/>
	<path class="st16" d="M412.7,165.5c2.2-0.2,3,1.4,2.7,2.4c-0.9,3.2-4,4.3-6.7,5.3c-1.7,0.7-1.9-1.3-1.9-2.6
		C406.7,168.1,409.9,165.5,412.7,165.5z"/>
	<path class="st16" d="M314.2,236.3c0,1-0.8,1.7-1.6,1.4c-2.7-1.1-5.7-1.9-7.6-4.3c-0.9-1.1-1.2-2.5,0.7-3.1
		C307.1,229.7,314,234.7,314.2,236.3z"/>
	<path class="st23" d="M223.8,242.1c0-11,0-22.1,0-33.1c1.9,2.4,0.7,5.1,0.9,7.7c0.6,7.7-1,15.5,0.9,23.2
		C225.4,240.9,224.7,241.6,223.8,242.1z"/>
	<path class="st20" d="M225.9,239.3c0-8.9-0.1-17.7,0-26.6c0-0.9-1.6-3.8,1.9-2.6l0,0c-1.7,8.9-1.5,17.9-0.1,26.8l0.1,0.2
		C227.2,237.8,226.5,238.5,225.9,239.3z"/>
	<path class="st20" d="M227.8,210c2,3.9,0.7,8,0.9,12c0.3,4.4,0.2,8.9,0.2,13.3c-0.4,0.6-0.7,1.1-1.1,1.7l-0.1-0.2
		C227.7,227.9,227.7,219,227.8,210L227.8,210z"/>
	<path class="st24" d="M398.8,262.1c-0.3-0.3-0.6-0.7-0.9-1C398.2,261.4,398.5,261.7,398.8,262.1z"/>
	<path class="st21" d="M333.7,174.9c8.6,0.1,17.2,0.1,25.8,0.2c-4,5.1-9.5,7.2-15.8,7.5c-1.3-1.7-3.1-1.5-4.9-1.5
		c-3.9,0-7.8,0-11.7-0.1c0-0.3,0-0.5,0-0.8c2.2-1.3,4.1-2.9,5.5-5.1C333.1,175,333.4,175,333.7,174.9z"/>
	<path class="st15" d="M327.3,181c3.9,0,7.8,0,11.7,0.1c1.8,0,3.6-0.2,4.9,1.5c-6.5,3.7-13.8,4.8-20.9,6.4c-1.9-0.5-3.9-0.9-5.8-1.4
		C320.5,185.4,323.9,183.2,327.3,181z"/>
	<path class="st21" d="M225.7,48.9c5.5-1,7.6,1.9,8,6.9c0.2,2.7,0.7,5.5,1.1,8.2c0.1,0.4,0.2,0.9,0.3,1.3c0,7.1-0.1,14.2-0.1,21.3
		c0,2-0.3,4.2,2.7,4.3c-0.2,3.8,0.7,7.7-0.8,12.4c-2.1-3.5-0.5-6.6-1.8-10.1c-0.3,4.9-0.5,9,0.1,13c-0.1,8.6-0.1,17.3-0.2,25.9
		c0,2.2,0.7,3.5,2.8,4.1c-0.1,3.9,1,8-1,11.8c-1.9,1.6-1.8,3.7-1.8,5.9c0,5.7,0,11.3,0,17c-2.7,0-5.3,1.7-8.1,0.9
		c0-9.9,0-19.8-0.1-29.8c0-1.7,0.7-3.7-1-5.1l0,0c0.7-1.3,1-2.7,1.1-4.3c0.2-16.9-0.5-33.9,0.8-50.8c0.6-7.9-1.4-15.9-0.9-23.9
		c0.2-2.1,0-4.3,0-6.8c-1.6,1.7-1,3.5-1,5c-0.1,9.7,0,19.3-0.1,29c0,1.6,0.6,3.4-0.9,4.7c0-10.9,0-21.9-0.1-32.8
		c0-1.7,0.8-3.7-1-5.1C223.5,50.4,225.2,50,225.7,48.9z"/>
	<path class="st21" d="M268.6,56.1c0,24.6,0,49.3,0,73.9c-2.8-0.5-2.3-4.2-4.7-5c-0.1-0.7-0.1-1.3-0.2-2c0-7.7,0.1-15.3,0.1-23
		c0-1.5,0.7-3.8-1.8-3.9c-3-0.1-1.9,2.5-2.1,4.1c-0.6,4.9,1.1,9.9-1,14.6c-2.7-6-5.4-11.9-8.2-17.8c-1-2.2-0.8-3.7,1.3-4.9
		c0.3-0.1,0.5-0.2,0.8-0.3c3.7-1.3,4.8-4.3,5-7.8c0.2-4.3,0.1-8.6,0-12.9c-0.1-5-2.6-8-7.4-9.2c-3.2-0.7-6.4-1.3-9.7-1.9
		c-0.9-0.1-1.9-0.1-2.8-0.2c0.9-2.4,3.4-4.6,1.2-7.5c-1.9,0.7-0.7,2.5-1.8,3.7c-0.3-1.1-0.6-2.1-0.9-3c-1.4-4,1.9-2.8,3.6-3.3
		c0.3,0,0.6,0.1,0.8,0.2c1.2,1.4,2.8,0.8,4.2,0.8c0.3,0,0.5,0.1,0.7,0.2c3.5,1.5,7.2,2.3,10.9,2.8c1.5,0.2,3.1,0,3.3,2.1
		c0,12.3-0.1,24.6-0.1,36.9c-0.9,0.1-2.1-0.3-2.5,0.8s0.8,1,1.5,1.1c1.3,0,2.6,0,3.8,0c0.9,0,1.4-0.2,1.4-1.4
		c-0.2-11,0-21.9-0.4-32.9C263.6,56.7,265,55.5,268.6,56.1z"/>
	<path class="st21" d="M332.8,175c-1.4,2.2-3.3,3.8-5.5,5.1c-34.3,0-68.6-0.4-102.9,0.1c-10.7,0.2-21.5,0.8-32.1,2.6
		c-1.3,0.2-2.7,0.5-4.7-1.2c30.1-4.5,59.6-5.8,89.2-6.7c17.7,0,35.3,0,53,0C330.8,175,331.8,175,332.8,175z"/>
	<path class="st21" d="M147.9,110.4c0.9,1.7,0.5,3.6,0.5,5.4c0,18.3,0.1,36.5,0.1,54.8c0,1.1,0.3,2.3,0.5,3.4
		c-3.7-1.9-4.5-5.7-6.2-9c2.6-0.2,2-2.2,2-3.8c0.1-4.5,0.1-8.9,0-13.4c-0.1-2.4,0.6-5-0.5-7.3c-0.5,0-1,0-1.4,0.1
		c0,8.1,0,16.3,0,24.4c-2.2-2.5-3-5.2-2.2-8.6c0.5-2.2,0.2-4.6,0-7c-0.1-1.8-1.6-2.8-3.1-2.7c-1.6,0.1,0.2,2-1.1,3.1
		c-2-4.7-3-9.4-3.6-14.3c1.2,1.9,3,1.9,4.9,1.4c2.3-0.9,3.1-2.7,3.1-5.1c-0.1-3.1,0-6.3,0-9.4c0-2.3,0.5-4.8-2.7-5.5
		c-3.1-0.7-6.3-2.4-9.3,1.6c0-2.6,0-4.7,0-6.8c3.4,0.8,6.7,0.5,9.8-1.1c3.5-0.2,4.5,1.5,4.3,4.9c-0.3,6.3-0.1,12.7,0,19
		c0,1.2-0.5,3.1,1.4,3.1s1.4-1.9,1.4-3.1c0-7.2,0-14.3-0.1-21.5c0-1.1-0.4-2,1.1-2.1C147.1,110.8,147.5,110.6,147.9,110.4z"/>
	<path class="st21" d="M253,135.1c3.9-0.8,3.5-3.8,3.9-6.8c0.4-3.1-2.1-6.8,1.8-9.2l0,0c0,0.8,0.2,1.6,1,2l0,0
		c0,5.4,0.1,10.7-0.2,16.1c-0.1,1.5,0.9,1.9,1.3,2.9c-1.4,1.1-1,2.7-1,4.1c0,6,0,11.9,0,17.9c-0.7,2.2,1.2,6.5-1.4,6.4
		c-3.2-0.1-1.2-4.3-1.6-6.7c-0.3-1.8-0.2-3.7,0-5.5c0.4-4.5-2.2-6.7-6-8c-1.1-0.4-2.2-0.5-3.4-0.8c-6.2-1.4-7.4-4.2-4.5-10.5
		C246.5,137.2,250,137.6,253,135.1z M257,137.6c-0.3-0.2-0.6-0.5-0.8-0.5c-0.5,0-1.6-0.3-1.3,0.5C255.1,138.3,256.3,138.2,257,137.6
		z"/>
	<path class="st20" d="M263.7,123.1c0.1,0.7,0.1,1.3,0.2,2c-2.1-0.5-2-3.4-4.1-4l0,0c0-0.9-0.1-1.6-1-2l0,0
		c-1.8-5.5-5-10.2-7.8-15.1c-2.6-3.8-2.9-8.7-6.2-12.1c-0.5-2.9-0.2-6.3-3.8-7.8c2.3-4.6-0.1-8.3-2.1-12.1c-2.1-1.8-0.5-5.4-3.5-6.7
		c-0.1-0.4-0.2-0.9-0.3-1.3c2.8,0,1.2-3.2,3-4c0.9,0.1,1.9,0.1,2.8,0.2c-1.3,1.1-2.2,2.2-0.9,3.9c0.6,9.4,5.1,17.7,7.8,26.5
		c0.6,2,2.7,1.5,4.3,1.7c-2.1,1.2-2.3,2.7-1.3,4.9c2.8,5.9,5.5,11.9,8.2,17.8C260.4,117.7,262,120.4,263.7,123.1z"/>
	<path class="st21" d="M127.9,167.5c3.5-0.2,7.4,1.8,10.5-1.3c3.5-0.5,3.9,2.6,4,4.5c0.4,5.5,0.1,11.1,0.1,17.3
		c-2.4-1.7-1.6-3.6-1.7-5.2c-0.2-5.3-1.6-6.6-6.9-6.8c-2.1-0.1-4.3,0.9-6.1-1c0-2.3,0-4.5,0-6.8C127.9,168,127.9,167.8,127.9,167.5z
		"/>
	<path class="st21" d="M268.5,140.1c0.1,9.6,0.2,19.3,0.3,28.9c-3.6,0.5-5.2-0.9-5.1-4.7c0.2-6.5,0.1-13,0-19.5
		c0-1.6,0.7-3.4-0.9-4.7c-0.4,0-0.7,0-1.1-0.1c1-1.6,2.6-0.9,4.1-1C266.4,140.2,267.5,140,268.5,140.1z"/>
	<path class="st19" d="M127,148.2c-0.1,5.9-0.2,11.9-0.3,17.8c-3.6,2.2-4.8,0.4-4.9-3.1c0-6,0.3-12-0.1-18c-0.4-4.9,1.4-6.7,6.1-5.9
		c0,2,0,4,0,6.1C126.4,145.8,124.9,146.5,127,148.2z"/>
	<path class="st19" d="M126.8,179.1c0,4.3,0,8.6-0.1,13c-4,2.4-4.8,2.1-4.9-2.3c-0.1-5.3,0.3-10.6-0.1-15.9
		c-0.4-4.9,1.2-6.8,6.1-5.6c0,2.3,0,4.6,0,6.8C124.8,175.7,125.5,177.3,126.8,179.1z"/>
	<path class="st21" d="M244.6,91.9c3.3,3.4,3.6,8.4,6.2,12.1c-6.8,2.7-9.7,0.9-10-6.3c-0.1-1.9,0.6-3.8,0.9-5.7
		C242.7,91.9,243.7,91.9,244.6,91.9z"/>
	<path class="st23" d="M329.7,174.9c-17.7,0-35.3,0-53,0c1-1.2,2.4-0.9,3.7-0.9c15.2,0,30.4,0,45.6,0
		C327.3,174,328.7,173.8,329.7,174.9z"/>
	<path class="st23" d="M158,137.2c0,14.3,0,28.5,0,42.8c-0.4-0.3-0.8-0.5-1.2-0.8c0.1-14.1,0.1-28.1,0.2-42.2
		C157.3,137.1,157.7,137.1,158,137.2z"/>
	<path class="st21" d="M127.7,138.2c0.7-0.1,1.3-0.1,2-0.2c1.2,1,1.8,2.3,2.1,3.8c0.2,1.2,1.6,2.5,0.3,3.6s-3,1.1-4.4-0.3
		c0-2,0-4,0-6.1C127.7,138.7,127.7,138.4,127.7,138.2z"/>
	<path class="st21" d="M148.5,177.9c0,2.7,0,5.5,0,8.2c-1.8,1.1-2.7,0.7-2.7-1.5c0-2.9,0-5.8,0-8.6
		C147.8,175.6,147.5,177.5,148.5,177.9z"/>
	<path class="st23" d="M261.7,140.1c0.4,0,0.7,0,1.1,0.1c0,9.2,0,18.5,0,27.7c-0.4,0-0.7,0-1.1,0
		C261.7,158.6,261.7,149.4,261.7,140.1z"/>
	<path class="st21" d="M268.5,140.1c-1,0-2.1,0.1-2.7-0.9c-2.1-2.4-2.5-5.1-1.6-8.7c2,2.7,3.9,4.8,4.7,7.7
		C268.7,138.8,268.6,139.4,268.5,140.1z"/>
	<path class="st20" d="M191.5,177c1.1,0,2.2,0,3.2,0.1c-3.3,3.3-12.2,3.9-15,1c1.3,0,2.6,0,3.9-0.1c2.1,0.1,4.2,0.3,6.1-1
		C190.3,177,190.9,177,191.5,177z"/>
	<path class="st15" d="M119.9,166c0-8.5,0-16.9,0-25.4c0.2,0,0.3,0,0.5,0c0,8.5,0,16.9,0,25.4C120.2,166,120,166,119.9,166z"/>
	<path class="st23" d="M120.6,170.2c0,7.5,0,15,0,22.6c-0.1,0-0.3,0-0.4,0c0-7.5,0-14.9,0-22.4C120.3,170.3,120.4,170.2,120.6,170.2
		z"/>
	<path class="st23" d="M151.9,187.1c5.4-1,10.8-1.9,16.2-2.9c0.1,0.4,0.1,0.9,0.2,1.3c-5.5,0.9-10.9,1.8-16.4,2.7
		C151.9,187.8,151.9,187.4,151.9,187.1z"/>
	<path class="st23" d="M259.8,162c0-6-0.1-11.9,0-17.9c0-1.4-0.5-3,1-4.1c0,5.8,0,11.6,0,17.3C260.7,158.9,261.3,160.7,259.8,162z"
		/>
	<path class="st20" d="M244.4,171.5c1.4,0.8,2.7,1,3.8-0.2C247,171.4,245.7,171.5,244.4,171.5z"/>
	<path class="st13" d="M255.8,267c-2.8,0-5.5,0.2-8.3-1.7C250.7,264.7,253.3,265.7,255.8,267L255.8,267z"/>
	<path class="st20" d="M138.6,110.7c0.3-0.2,0.6-0.5,0.9-0.7c1.1-0.3,2.2-0.6,3.3-0.9c1,1.2,2,1.2,3,0c0.8,0.4,0.9,1,0.9,1.8
		c-1.5,0.2-1.1,1.1-1.1,2.1c0.1,7.2,0.1,14.3,0.1,21.5c0,1.2,0.5,3.1-1.4,3.1s-1.4-1.9-1.4-3.1c-0.1-6.3-0.2-12.7,0-19
		C143,112.2,142,110.5,138.6,110.7z"/>
	<path class="st23" d="M169.7,166c0.1,4.3,0.1,8.6,0.2,12.9c-0.3,0.1-0.6,0.2-1,0.2c0-4.4,0-8.7,0-13.1
		C169.2,166,169.5,166,169.7,166z"/>
	<path class="st15" d="M223.6,137c-2.2-0.3-1.9-2-1.9-3.4c0-11.8,0-23.5,0-35.3c0-2.1,0.2-4,2.9-4.4c0.1,13.7,0.1,27.3,0.2,41
		c0,0.7,0,1.3-0.1,2C224.4,137,224,137,223.6,137z"/>
	<path class="st15" d="M223.7,52c1.8,1.4,1,3.4,1,5.1c0.1,10.9,0.1,21.9,0.1,32.8c0,0.7,0,1.4,0,2.1c-0.3,0-0.7,0-1,0
		c-1.5,0.7-2.1,0.1-2-1.5c0.5-11.4-0.9-22.9,0.8-34.3c0.2-1.6-0.2-2.9-0.7-4.3c0.4,0,0.8,0,1.2,0.1C223.2,52,223.5,52,223.7,52z"/>
	<path class="st15" d="M224.8,172c-3,1.7-3-0.8-3-2.4c-0.1-9.2,0-18.4-0.1-27.7c0-2.1,0.8-3.1,2.9-3C224.7,150,224.7,161,224.8,172z
		"/>
	<path class="st21" d="M223.8,92.1c0.3,0,0.7,0,1,0c0.9,0.7,1,1.6,1,2.6c0,12.5,0,25.1,0,37.6c0,1,0,2-1,2.7
		c-0.1-13.7-0.1-27.3-0.2-41C224.3,93.3,224,92.7,223.8,92.1z"/>
	<path class="st21" d="M224.8,172c-0.1-11-0.1-22-0.2-33.1c-0.3-0.6-0.7-1.3-1-1.9c0.4,0,0.7-0.1,1.1-0.1c0.3,0,0.7,0.1,1,0.1l0,0
		c0,11.6,0,23.3-0.1,34.9C225.4,172,225.1,172,224.8,172z"/>
	<path class="st23" d="M225.7,172c0-11.6,0-23.3,0.1-34.9c1.6,1.5,1,3.4,1,5.1c0.1,9.9,0.1,19.8,0.1,29.8
		C226.5,172,226.1,172,225.7,172z"/>
	<path class="st21" d="M223,52c-0.4,0-0.8,0-1.2-0.1C222.2,51.1,222.6,51.4,223,52z"/>
	<path class="st15" d="M252.9,50.1c0-5.8-0.2-11.6-0.1-17.4c0.1-3.4-1.3-5.2-4.7-5.8c-4.4-0.8-8.5-2.6-13-2.5c-1.2-4.4,0-5.8,4.5-4
		c3.2,1.2,6.7,1.8,10,2.6c1,0.2,1.9,0.5,2.8,0.9c4.2,1.6,5.7,5.2,5.2,9.1C256.8,38.8,261.2,46.3,252.9,50.1z"/>
	<path class="st23" d="M262.6,11.4c0,13.4,0,26.9,0,40.3c-0.2,0-0.3,0-0.5,0c0-13.5,0-27,0-40.5C262.3,11.2,262.5,11.3,262.6,11.4z"
		/>
	<path class="st20" d="M262.7,94.9c-1.3,0-2.6,0-3.8,0c2.5-1,3-2.9,3-5.5c-0.2-10.1-0.1-20.2,0.9-30.4C262.7,71,262.7,83,262.7,94.9
		z"/>
	<path class="st20" d="M259.8,93c0-12.3,0.1-24.6,0.1-36.9c1.6,1.9,0.8,4.2,0.8,6.2c0.1,8.6,0.1,17.3,0,25.9
		C260.7,89.9,261.3,91.7,259.8,93z"/>
	<path class="st25" d="M138.6,207c-0.2-0.3-0.5-0.5-0.7-0.8c0.2-0.1,0.4-0.3,0.6-0.4C138.5,206.2,138.5,206.6,138.6,207z"/>
	<path class="st25" d="M137.6,213.1c0.3,0,0.7,0,1,0C138.2,214.4,137.9,213.5,137.6,213.1z"/>
	<path class="st15" d="M227.8,210c0,8.9-0.1,17.9-0.1,26.8C226.2,227.9,226,219,227.8,210z"/>
	<path class="st23" d="M225.8,137c-0.3,0-0.7-0.1-1-0.1c0-0.7,0-1.3,0.1-2c1-0.7,1-1.7,1-2.7c0-12.5,0-25.1,0-37.6c0-1-0.1-2-1-2.6
		c0-0.7,0-1.4,0-2.1c1.6-1.3,0.9-3.1,0.9-4.7c0.1-9.7,0-19.3,0.1-29c0-1.5-0.6-3.3,1-5c0,2.5,0.1,4.7,0,6.8
		c-0.6,8,1.5,15.9,0.9,23.9c-1.3,16.9-0.6,33.9-0.8,50.8C226.8,134.3,226.5,135.7,225.8,137z"/>
	<path class="st15" d="M252.7,92c0-6.5-0.1-13,0.1-19.5c0.2-4.3-1.4-6.6-5.7-7.2c-2.5-0.3-4.9-0.8-7.4-1.3c-1.3-1.7-0.5-2.8,0.9-3.9
		c3.2,0.6,6.5,1.2,9.6,1.9c4.8,1.1,7.3,4.2,7.4,9.2c0,4.3,0.2,8.6,0,12.9C257.5,87.6,256.4,90.7,252.7,92z"/>
	<path class="st15" d="M263.7,123.1c-1.6-2.7-3.3-5.4-4.9-8.1c2.1-4.8,0.4-9.8,1-14.6c0.2-1.6-0.9-4.2,2.1-4.1
		c2.6,0.1,1.8,2.4,1.8,3.9C263.8,107.7,263.7,115.4,263.7,123.1z"/>
	<path class="st15" d="M240.8,50.1c1.5-0.1,3-0.5,4.2,0.8C243.5,51,241.9,51.5,240.8,50.1z"/>
	<path class="st15" d="M142.8,165c0-8.1,0-16.3,0-24.4c0.5,0,1,0,1.4-0.1c1.1,2.3,0.5,4.9,0.5,7.3c0.1,4.5,0.1,8.9,0,13.4
		C144.7,162.8,145.3,164.8,142.8,165L142.8,165z"/>
	<path class="st15" d="M257,137.6c-0.8,0.6-1.9,0.7-2.2,0c-0.3-0.8,0.8-0.5,1.3-0.5C256.4,137.1,256.7,137.4,257,137.6z"/>
	<path class="st15" d="M258.7,119.1c0.9,0.4,1.1,1.1,1,2C258.9,120.6,258.7,119.9,258.7,119.1z"/>
	<path class="st13" d="M218.7,254c0.4-2.2,0.7-4.4,1.1-6.7c2-1.3,3-3.3,4-5.2c0.9-0.5,1.5-1.2,1.8-2.3c0.2-0.2,0.3-0.4,0.3-0.6
		c0.6-0.7,1.2-1.5,1.9-2.2c0.4-0.6,0.7-1.1,1.1-1.7c2-1.4,4-2.8,6-4.2c5.4-4.3,11.6-7.1,17.7-10.1c4.6-2.4,9.2-4.7,13.8-7.1
		c2-0.2,4-0.8,5.9-0.5c15.1,2.4,29.1,8.1,42.9,14.3c5.7,2.6,11.4,4.6,17.7,4c7-0.7,14.1-1.8,21.1-2.8c10.9-1.5,20.9-4.4,27.8-14.2
		c3.2-4.5,6.5-9.3,11.7-12c8.5-4.5,13.5-10.7,11.3-21c-0.7-3.4-1.5-6.8-1.9-10.2c-0.8-6.9-4.6-10.7-11.5-11.5
		c-2-0.2-3.9-0.7-5.5-1.9c10.1-3.6,28.9,1.9,37,10.8c-5.4,0-8.9,3.8-13,6.5c-1,0.7-1.2,1.9-1.1,3.1c0,3.5,0,7,0,10.4
		c0,1.7,0.4,2.9,2.4,2.9c5.7,0,9.6-3.2,10.5-9c0.6-4,1.5-7.8,4.1-11c5.3,4.6,8.9,10.3,11.7,16.6c2.4,5.4,5.8,9.7,10.9,12.6
		c18.6,10.4,26.1,27.6,29.3,47.4c1.9,11.4,1.6,11.4-10.1,11.6c-20.5,0.3-40.9,0.7-61.4,1.1c-2.5,0-4.9,0.5-7.4,0.8l0,0
		c-0.3-0.3-0.6-0.7-0.9-1c-3.5-2.6-6.4-5.4-7.4-10.1c-0.8-4.1-3.5-7.7-7.6-9.3c-5.5-2.1-11.5-2.8-17.1-2.3
		c-11.9,1.1-23.5,4.3-33.8,10.7c-9.4,5.8-18,12.4-24.1,21.9c-18.3,0-36.6,0-55.6,0c1.5-1.7,3.6-2.6,3.5-4.9l0,0
		c15.5,1.2,30.1-3.1,44.8-7.3c4.1-1.2,4.3-3.2,2.8-6.5c-2.1-4.6-5.1-8.6-7.9-12.6c-7.2-10.4-26-15.6-37.9-11.1
		c-9.4,3.6-17.5,9.3-25.7,14.9C227.3,247.5,223.9,251.9,218.7,254z M444.9,206c-5.1-3.9-10.2-7.8-15.6-7.5
		c-8.6,0.4-17.2,2.8-25.8,4.6c-2.7,0.6-7.9,9.5-7.7,12.1c0.1,1.2,0.7,1.9,1.7,2.2c7.8,2.5,15.6,4.5,23.7,1
		C429.1,214.9,435.5,208.7,444.9,206z M412.7,165.5c-2.8,0-6,2.6-5.9,5.2c0,1.3,0.2,3.3,1.9,2.6c2.6-1.1,5.8-2.1,6.7-5.3
		C415.7,166.9,414.9,165.3,412.7,165.5z M314.1,236.3c-0.1-1.6-7-6.6-8.5-6.1c-1.9,0.7-1.5,2-0.7,3.1c1.9,2.5,4.9,3.2,7.6,4.3
		C313.4,238,314.1,237.3,314.1,236.3z"/>
	<path class="st14" d="M385.9,158.2c1.6,1.2,3.6,1.7,5.5,1.9c6.9,0.8,10.6,4.6,11.5,11.5c0.4,3.4,1.2,6.8,1.9,10.2
		c2.2,10.3-2.8,16.5-11.3,21c-5.2,2.7-8.5,7.5-11.7,12c-6.9,9.8-16.9,12.7-27.8,14.2c-7,0.9-14,2-21.1,2.8c-6.3,0.7-12-1.4-17.7-4
		c-13.8-6.3-27.8-11.9-42.9-14.3c-1.9-0.3-3.9,0.3-5.9,0.5c0.8-1,2.3-1.4,2.5-2.9c5.5-1,10.2-3.9,14.9-6.8c2-1.1,4-2.3,6-3.4
		c1.3-0.1,2.7,0.1,3.9-0.4c9.7-3.8,19.4-7.7,29.1-11.5c7.1-1.6,14.4-2.7,20.9-6.4c6.3-0.3,11.7-2.4,15.8-7.5
		c2.2-0.1,3.5-1.7,5.1-2.9C372,167.9,377.8,161.4,385.9,158.2z"/>
	<path class="st15" d="M325.6,169c-1,0-2,0-3-0.1c-5.3,0-10.7-0.3-16,0c-8.5,0.5-13.4-4.4-17.4-10.9c-1.7-0.3-2.4-1.4-2.5-3
		c-7.8-7.1-14.1-15.2-18.2-25c-2.8-0.5-2.3-4.2-4.7-5c-2.1-0.5-2-3.4-4.1-4c0,5.4,0.1,10.7-0.2,16.1c-0.1,1.5,0.9,1.9,1.3,2.9
		c0,5.8,0,11.6,0,17.3c0,1.6,0.5,3.3-0.9,4.7c-0.7,2.2,1.2,6.5-1.4,6.4c-3.2-0.1-1.2-4.3-1.6-6.7c-0.3-1.8-0.2-3.7,0-5.5
		c0.4-4.5-2.2-6.7-6-8c-1.1-0.4-2.2-0.5-3.4-0.8c-6.2-1.4-7.4-4.2-4.5-10.6c-2-2.3-1.2-5-1.2-7.6c-0.1-5.1-0.1-10.3,0-15.4
		c0.1-2.4-1.8-6,3.3-5.9s7.6,1.8,7.6,6.3c0.1,5.6,0,11.3,0,16.9c0,1.3,0.1,2.6,0.2,4c3.9-0.8,3.5-3.8,3.9-6.8
		c0.4-3.1-2.1-6.8,1.8-9.2c-1.8-5.5-5-10.2-7.8-15.1c-6.8,2.7-9.7,0.9-10-6.3c-0.1-1.9,0.6-3.8,0.9-5.7c-1.6-2.4-0.7-5.2-0.9-7.8
		c2.3-4.6-0.1-8.3-2.1-12.1c-0.4,6.3,1.1,12.7-0.9,19c-0.2,3.8,0.7,7.7-0.8,12.4c-2.1-3.5-0.5-6.6-1.8-10.1c-0.3,4.9-0.5,9,0.1,13
		c2.2-0.3,3.6,0.4,3.6,2.8c-0.1,8.7-0.2,17.3-0.3,26c0,0.4-0.5,0.8-0.7,1.2c-0.1,3.9,1,8-1,11.8c3.1,7.1,1.8,14.5,2,21.8
		c0.7,0,1.5,0,2.2,0c0.1-5,0.1-10,0.4-14.9c0.1-2.4,0.6-4.6,4.1-4c3,0.5,6.9-0.2,7.3,4.2c0.4,4.1,0,8.3,0.1,12.5c0,0.4,0,0.7-0.1,1
		v0.1c0,0.5-0.1,0.9-0.4,1.3l0,0c-0.1,0.3-0.3,0.5-0.7,0.6c-1.1,0.2-2.2,0.4-3.3,0.5c-1.1,1.3-2.4,1-3.8,0.2c-0.4,0-0.7,0-1.1,0
		c-0.3,0.2-0.8,0.3-1.2-0.1L242,171c-3.3,3.4-7.8,2.2-11.7,2.8c-9.4,1.3-18.9,2.5-28.3,4c-1.7,0.3-3.6,0.9-5.1-0.9
		c-0.7,0-1.3,0.1-2,0.1c-3.3,3.3-12.2,3.9-15,1c-2.8,1.1-5.6,2.1-8.5,3.2c-1.5,0.6-3,1.3-4.5,0c-2.9-0.8-6.1,0.7-8.8-1.3
		c-0.4-0.3-0.8-0.5-1.2-0.8c-3.6-0.3-5.3-3.4-7.8-5.2c-3.7-1.9-4.5-5.7-6.2-9l0,0c-2.2-2.5-3-5.2-2.2-8.6c0.5-2.2,0.2-4.6,0-7
		c-0.1-1.8-1.6-2.8-3.1-2.7c-1.6,0.1,0.2,2-1.1,3.1c-2-4.7-3-9.4-3.6-14.3c0.1-4-1.4-7.8-1.9-11.7c-0.2-1.6-1.6-4.3,1.8-4.6
		c2.9-0.2,5.3,0.4,5.1,4.3c-0.2,4.5-0.1,9-0.2,13.5c2.3-0.9,3.1-2.7,3.1-5.1c-0.1-3.1,0-6.3,0-9.4c0-2.3,0.5-4.8-2.7-5.5
		c-3.1-0.7-6.3-2.4-9.3,1.6v-6.7c-2.9-5.6-1.3-11.8-1.9-17.7c-1.4-5.2-2.1-10.6-2-16c-0.7,0-1.4,0-2,0c0.1,11.6,2.4,22.9,3.7,34.3
		c0.3,2.6,0.4,5.3,0.5,7.9c1.2,5.8,3.3,11.5,2.8,17.6c1.2,1,1.8,2.3,2.1,3.8c0.2,1.2,1.6,2.5,0.3,3.6s-3,1.1-4.4-0.3
		c-1.3,0.8-2.8,1.5-0.8,3.1c6.9-0.2,9.7,3.1,10.8,12.6c0.2,1.8,0.4,3.6,0.6,5.4c3.5-0.5,3.9,2.6,4,4.5c0.4,5.5,0.1,11.1,0.1,17.3
		c-2.4-1.7-1.6-3.6-1.7-5.2c-0.2-5.3-1.6-6.6-6.9-6.8c-2.1-0.1-4.3,0.9-6.1-1c-2.9,0.7-2.2,2.3-1,4c1.6-0.1,3.3-0.2,4.9-0.2
		c5.5,0,8.4,4.8,6,9.8c-0.4,0.8-1,1.2-1.9,1.4c-3.1,0.5-5.8,2.5-9.1,2c-4,2.4-4.8,2.1-4.9-2.3c-0.1-5.3,0.3-10.6-0.1-15.9
		c-0.4-4.9,1.2-6.8,6.1-5.6c0.1-0.2,0.1-0.5,0.1-0.7c-0.4-0.5-0.8-1-1.2-1.6c-3.6,2.2-4.8,0.4-4.9-3.1c0-6,0.3-12-0.1-18
		c-0.4-4.9,1.4-6.7,6.1-5.9c0-0.3,0-0.6,0-0.9c-0.3-0.4-0.6-0.8-0.9-1.1c-6.1,1.6-6.1,1.6-6.1-4.5c-0.1-10.6,0.2-21.1-0.9-31.7
		c-0.2-2-0.1-4,0.9-5.8c-2-5.3-0.4-10.9-1-16.3c-1.9,1.3-2.1,3.3-2,5.3c1.3,26.6-1.9,53.1-0.9,79.6c0.3,9.1-0.2,18.3,0.1,27.4
		c0.1,4.6-1.5,6.9-6.2,6.9c-0.6,0-1.1,0-1.7,0c-0.6,1.3-1.7,2-3.1,2.1c-5,4-11.1,5.7-16.6,8.7c-1.6,0.9-3.5,1.2-4.3,3
		c1.3,0.2,2.8-0.3,3.8,1.1c4.3,0,8.6,0,13,0c3.7-3,8.2-4.4,12.7-4.9c5.4-0.6,2.8,3.8,3,6.3c-0.1,1.8,0,3.4,0.7,4.4h4.7
		c0-2.9,0-5.8-0.1-8.7c-0.1-2.8,0.9-4.4,4-4.2c3.5,0,6.5-2.4,10.1-2c3.9-0.8,7.9-1.3,11.9-1c23.2-3.5,46.6-2.3,70-2h17.9
		c5.1,0.3,10.3-0.2,15.3,1c5.6,0.3,11.3,0.7,16.9,1c5.1-0.4,10,0.7,15,1.2c2-1.1,4-2.3,6-3.4v-0.1c-3.1,0-6.3-0.2-9.4-0.6
		c-3.9-0.1-7.7-0.5-11.5-1.2c-1.5,0-3-0.1-4.5-0.4c-5.4,0-10.8-0.1-16.1-0.4c-8.3-0.5-16.4-1.4-24.8-1c0,0,0,0-0.1,0
		c-16.1,0-32.2,0.3-48.2,0.8c-0.5,0.1-1,0.2-1.5,0.1c-0.7,0.1-1.4,0.1-2.2,0.2c-2,0.2-4.1,0.4-6.1,0.5c-0.2,0-0.3,0-0.5-0.1
		c-1.4,0.3-3,0.3-4.4,0.4c-5.4,0.4-10.9-0.2-16.3,1.1c-1,0.2-3.1,0.7-3.3-1.1c-0.2-1.3,0.7-2.5,2.4-3.2c8.1-3.7,16.9-3.7,25.5-5
		c12.5-2,25.1-3,37.6-3.7c19.7-1.1,39.5-2.4,59.2-2.6c17.1-0.2,34.2,1,51.2,3.1c3.4-2.2,6.8-4.4,10.2-6.6c0-0.3,0-0.5,0-0.8
		c-34.3,0-68.6-0.4-102.9,0.1c-10.7,0.2-21.5,0.8-32.1,2.6c-1.3,0.2-2.7,0.5-4.7-1.2c30.1-4.5,59.6-5.8,89.2-6.7
		c1-1.2,2.4-0.9,3.7-0.9c15.2,0,30.4,0,45.6,0c1.3,0,2.7-0.3,3.7,0.9c1,0,2,0.1,3,0.1c0.3,0,0.7-0.1,1-0.2c1.2-1.6,2.5-3.2,3.7-4.8
		C333.5,169.7,329.6,169.4,325.6,169z M119.9,140.6h0.5V166h-0.5V140.6z M120.6,192.7c-0.1,0-0.3,0-0.4,0v-22.4
		c0.1-0.1,0.3-0.1,0.4-0.2V192.7z M145.8,184.6c0-2.9,0-5.8,0-8.6c2-0.4,1.8,1.5,2.7,2c2,1.1,4,2.2,6,3.4c1,0.6,2.5,0.9,2.2,2.3
		s-1.7,1.3-2.9,1.5c-1.8,0.3-3.6,0.6-5.4,0.9C146.7,187.2,145.7,186.8,145.8,184.6z M151.9,188.1c0-0.4,0-0.7,0-1.1
		c5.4-1,10.8-1.9,16.2-2.9c0.1,0.4,0.1,0.9,0.2,1.3C162.9,186.4,157.4,187.3,151.9,188.1z M274.8,163c0.5,4.8-1.1,6.9-6,6
		c-3.6,0.5-5.2-0.8-5.1-4.7c0.2-6.5,0.1-13,0-19.5c0-1.6,0.7-3.4-0.9-4.7v27.7c-0.4,0-0.7,0-1.1,0v-27.7c1-1.6,2.6-0.9,4.1-1
		c-2.1-2.4-2.5-5.1-1.6-8.7c2,2.7,3.9,4.8,4.7,7.7c4.3,4,6.8,8.7,6,14.9C274.4,156.3,274.5,159.7,274.8,163z M292.8,169.1h-0.4
		c-0.5,0.2-1.2,0.2-1.8,0h-11.7c-0.6,0-0.9-0.5-1-0.9c-0.4-0.4-0.6-0.9-0.6-1.5c-0.1-5.3-0.1-10.7-0.1-17.3c3.6,4.1,6.7,7.3,9,10.9
		c0.4,0.4,0.8,1,1.2,1.4c0.6,0.6,1.4,1,2,1.6c0.7,0.6,1.3,1.3,2,1.8c0.2,0.1,0.3,0.3,0.4,0.4c0.8,0.6,1.5,1.3,1.5,2
		C294,168,293.7,169.1,292.8,169.1z"/>
	<path class="st16" d="M255.8,267c0.1,2.2-2,3.1-3.5,4.9c19,0,37.3,0,55.6,0c29.9,0,59.8,0.1,89.7,0.1c1.4,0,3,0.4,4.2-1
		c0.4,3.3-2.2,1.9-3.4,1.9c-12,0.1-24,0.1-35.9,0.1c-58.6,0-117.2-0.1-175.7-0.2c-1.4,0-3.3,1.1-4.4-0.9c0-0.1,0.1-0.3,0.2-0.4
		c0.1-0.1,0.3-0.2,0.4-0.3c0.6,0.2,1.2,0.7,1.8,0.7c11.3,0,22.6,0,33.9,0.1c1.4,0,2.6-0.2,3.4-1.5c1.4-2.4,4-2.8,6.4-3.4
		c4.1-0.9,8.2-1.6,12.2-2.4c-11.2-0.7-22,1.3-33,2.7c-6.2,0.8-12.6,3-19,0.6c7.7-4.9,16.9-6,25.1-9.6c2.3-1,3.9-2.2,4.9-4.3
		c5.1-2.1,8.6-6.5,13.1-9.6c8.2-5.6,16.3-11.3,25.7-14.9c12-4.5,30.7,0.7,37.9,11.1c2.8,4.1,5.8,8.1,7.9,12.6
		c1.5,3.3,1.3,5.3-2.8,6.5C285.9,263.9,271.3,268.2,255.8,267c-2.5-1.4-5.1-2.3-8.3-1.7C250.2,267.3,253,267.1,255.8,267z"/>
	<path class="st17" d="M401.8,271c-1.1,1.4-2.7,1-4.2,1c-29.9,0-59.8-0.1-89.7-0.1c6.1-9.4,14.7-16.1,24.1-21.9
		c10.3-6.4,21.9-9.6,33.8-10.7c5.5-0.5,11.6,0.2,17.1,2.3c4.2,1.6,6.8,5.2,7.6,9.3c1,4.7,3.9,7.5,7.4,10.1c0.3,0.3,0.6,0.7,0.9,1
		l0,0C398.6,265.4,401.3,267.8,401.8,271z"/>
	<path class="st16" d="M105.9,200.2c-5,4-11.1,5.7-16.6,8.7c-1.6,0.9-3.5,1.2-4.3,3c-0.1,0.5-0.2,1.1-0.4,1.6
		c-17.3,0.2-34.5,0.8-51.8-0.4C22.1,212.4,11.2,213,0,213c2.7-3.1,5.4-5.4,9.9-6.1c13-2.2,25.7-5.4,33.1-18.2
		c1.5-2.5,3.9-4.1,6.7-4.8c5.9-1.5,11.9-3.1,17.8-4.6c4.9-1.2,7.8,2.5,10.7,5.1c3.4,3,6.6,5.2,11.5,4.8c2.6-0.2,5.2,1.2,7,3.4
		c1.6,2,2.7,1,3.8-0.5c0.1,0.4,0.1,0.7,0.2,1.1C100.1,197.3,103.8,198.2,105.9,200.2z"/>
	<path class="st18" d="M179.8,178.1c-2.8,1.1-5.6,2.1-8.5,3.2c-1.5,0.6-3,1.3-4.5,0c1-0.4,1.8-1.1,2.1-2.2c0.3,0,0.7-0.1,1-0.2
		c2,0.6,3.6-0.1,5-1.4c1-0.9,3.5-1.5,2-3.1c-2.5-2.7-3.4-6.9-7.3-8.3c-0.2,0-0.5,0-0.7,0c-2.1-10.2-7.3-19.2-11-28.8
		c-0.3-0.1-0.7-0.1-1-0.2c-0.7-12.2-5.7-23.3-7.6-36.4c-1.5,4-0.2,7.1-1.6,9.8c-0.4,0.2-0.8,0.4-1.2,0.6c0.1-0.8-0.1-1.5-0.9-1.8
		c0-9.7,0-19.3,0-29c1.3-0.1,1.6,0.5,1.8,1.7c3.1,16.9,6.9,33.7,11.7,50.2c3.7,13,8.3,25.7,16.1,36.9c3.8,5.4,4.1,5.4,8.1,0.4
		c13.6-16.7,20.4-36.5,26-56.7c4.6-16.5,8-33.3,9.2-50.5c0.1-0.8,0.1-1.7,1-2.1c0.2,6.1,0.3,12.1-0.9,18.1c-0.2,1.5-0.3,3-0.6,4.5
		c-1.6,8.3-4.3,16.6-4.6,25c-0.6,22.1-0.1,44.3,0,66.5c-0.7,0-1.4,0-2.1,0c0-18.7,0-37.3,0-56c-2.8,5-4.2,10.2-6.3,15.2
		c-2.6,6-3.5,12-3.3,18.4c0.3,7.8,0.2,15.6,0.2,23.4c-0.7,0-1.3,0-2,0c-0.6-9.3,1.2-18.6,0-28c-6.7,9-10.5,18.7-8.8,30
		c-0.6,0-1.2,0-1.8,0c0-3.5,0-7,0-11.8c-2.7,3.2-4.3,5.5-6.3,7.4c-2.2,2.1-1.4,3.7,0.3,5.4C182.4,178,181.1,178.1,179.8,178.1z"/>
	<path class="st19" d="M268.8,203.1c-5.6-0.3-11.3-0.7-16.9-1c-6.1,9.3-8.4,9.1-15.3-1c-5.5,0-11,0-16.5,0v5
		c1.7,0.4,3.3,0.8,3.7,2.9c1.9,2.4,0.7,5.1,0.9,7.7c0.6,7.7-1,15.5,0.9,23.2c0.2-0.2,0.3-0.4,0.3-0.6c0-8.9-0.1-17.7,0-26.6
		c0-0.9-1.6-3.8,1.9-2.6c2,3.9,0.7,8,0.9,12c0.3,4.4,0.2,8.9,0.2,13.3c2-1.4,4-2.8,6-4.2c-1.9-3-0.1-5.3,1.6-7.5
		c1.3-1.7,2.9-3.2,4.3-4.8c5-5.9,8.2-5.3,11.8,2.2c4.6-2.4,9.2-4.7,13.8-7.1c0.8-1,2.3-1.4,2.5-2.9
		C268.9,208.4,268.9,205.7,268.8,203.1z M234.3,221.6c-0.1-0.5-0.4-0.9-0.4-1.3c0-5.3,0-10.5,0-16.3c1.1,0.2,1.3,0.2,1.4,0.3
		C244.8,211.3,244.6,214.1,234.3,221.6z M252.7,215.1c-6.4-2.6-6.4-3.6,0-9.1V215.1z"/>
	<path class="st19" d="M325.6,169c-1,0-2,0-3-0.1c0-6-0.1-12,0.2-17.9c0.1-3.4-0.9-6-3.1-8.6c-10.4-12.2-19-25.6-26.8-39.6
		c-0.8-1.5-1.2-3.4-3.4-4.6c0,2.3,0,4.1,0,5.9c-0.1,17.9-0.2,35.9-0.3,53.8c-1.7-0.3-2.4-1.4-2.5-3c0-17.7,0-35.5,0.2-53.2
		c0.1-6.5,0-12.9-3.5-18.7c0.8,0,1.7-0.1,2.5-0.1c13.7,30.5,32.3,57.5,57.1,80c-0.4,0.7-0.9,1.3-1.3,2c-6.1-4.4-10.5-10.6-16.1-15
		C325.6,156.5,325.6,162.7,325.6,169z"/>
	<path class="st20" d="M211.7,174c0.7,0,1.4,0,2.1,0c4-0.3,5.5-2.1,5.3-6.4c-0.5-9.6,0.2-19.3,0.4-28.9c0.3-19,0.1-38,0.3-56.9
		c0-1.3,0.4-2.7-1-3.7c1.2-6,1.1-12.1,0.9-18.1c-0.4-5.1-0.8-10.1,1.8-14.9c0.6-1.2,0.3-2.9,0.3-4.4c0-10.4,0.1-20.8,0-31.3
		c0-3,0.4-5.6,2.8-7.6c0,13.7,0,27.4,0.1,41.1c0,1.7-0.8,3.7,1,5.1v0.1c0,0.3,0,0.5,0,0.8c-0.6,1.1-2.3,1.4-2,3.1
		c-0.2,0-0.5,0-0.7,0c-0.4-0.6-0.7-1-1.2-0.1c0.6,1.4,1,2.7,0.7,4.3c-1.7,11.4-0.3,22.8-0.8,34.3c-0.1,1.6,0.5,2.2,2,1.5
		c0.3,0.6,0.6,1.3,0.9,1.9c-2.7,0.3-2.9,2.3-2.9,4.4c0,11.8,0,23.5,0,35.3c0,1.5-0.3,3.1,1.9,3.4c0.3,0.6,0.7,1.3,1,1.9
		c-2.1-0.1-2.9,0.9-2.9,3c0.1,9.2,0,18.4,0.1,27.7c0,1.6,0,4.1,3,2.4c0.3,0,0.6,0,0.9,0c0.4,0,0.8,0,1.2,0c2.8,0.7,5.4-1,8.1-0.9
		c1.4,0.2,2.6-0.2,3.7-1c0.7,0,1.5,0,2.2,0c0.3,0.3,0.6,0.7,0.9,1c-3.3,3.4-7.8,2.3-11.7,2.8c-9.4,1.3-18.9,2.5-28.3,4
		c-1.7,0.3-3.6,0.9-5.1-0.9c1.2-0.6,2.4-1.3,3.5-1.9c0.7,0,1.3,0,2,0C205.5,175.4,208.6,174.5,211.7,174z"/>
	<path class="st21" d="M259.7,49c0.1-12.4,0-24.8,0-37.2c-5.8,0-11.4-1.8-17-3c-3.2-0.7-7.2-0.5-8.2-4.7c-0.4-0.5-0.7-1.1-1-1.7
		c-0.5-0.2-1.2-0.4-1.7-0.6c-0.4,13.1-0.2,26.2,1.9,39.2c0.1,0.9,0.3,1.6,1.1,2.1c0.1-6.2,0.2-12.5,0.3-18.7c-1.2-4.4,0-5.8,4.5-4
		c3.2,1.2,6.7,1.8,10,2.6c0.9,0.2,1.9,0.5,2.8,0.9c4.2,1.6,5.7,5.2,5.2,9.1c-0.8,5.8,3.6,13.3-4.7,17c-0.4,0.4-0.7,0.7-1.1,1.1
		c1.8,1.7,4.1,0.8,6.2,1.2C260.8,52.9,259.7,50.2,259.7,49z"/>
	<path class="st19" d="M265.6,7.1c1.2,1.4,2.3,2.9,2.2,4.9c-0.6,21.3,7.2,40.8,13.4,60.6c-0.5,0.8-1.1,1.4-2,1.5
		c-3.7-10-6.9-20.2-10.7-30.3c0,3.4,0,6.8,0,10.3c-3.8,0.5-4.9-1.4-4.8-5c0.1-11.8,0.1-23.6,0.1-35.5C263.7,11.2,264.3,9,265.6,7.1z
		"/>
	<path class="st21" d="M126.9,137c-6.1,1.6-6.1,1.6-6.1-4.5c-0.1-10.6,0.2-21.1-0.9-31.7c-0.2-2-0.1-4,0.9-5.8
		c0-5.6,0.1-11.3,0.1-16.9c0.6,0,1.3,0,1.9,0c0.1,11.6,2.4,22.9,3.7,34.3c0.3,2.6,0.4,5.3,0.5,7.9
		C126.9,125.9,126.9,131.5,126.9,137z"/>
	<path class="st15" d="M265.6,7.1c-1.4,2-1.9,4.2-1.9,6.5c0,11.8,0.1,23.6-0.1,35.5c0,3.6,1,5.5,4.8,4.9c0,0.7,0,1.4,0,2.1
		c-3.6-0.6-5,0.6-4.9,4.5c0.3,11,0.2,21.9,0.4,32.9c0,1.2-0.5,1.4-1.4,1.4c0-11.9,0-23.9,0-35.8c-0.9,10.1-1,20.2-0.9,30.4
		c0,2.6-0.5,4.5-3,5.5c-0.7-0.1-1.9,0-1.5-1.1c0.3-1.1,1.6-0.6,2.5-0.8c1.5-1.3,0.9-3.1,0.9-4.7c0-8.6,0.1-17.3,0-25.9
		c0-2.1,0.8-4.3-0.8-6.2c-0.2-2.1-1.8-1.9-3.3-2.1c-3.7-0.5-7.4-1.3-10.9-2.8c2,0,4.1,0,6.1,0c1.8,1.7,4.1,0.8,6.2,1.2
		c2.9,0.6,1.8-2.1,1.8-3.4c0.1-12.4,0-24.8,0-37.2C261.7,10.1,259.9,3.9,265.6,7.1z M262.6,11.4c-0.2-0.1-0.3-0.1-0.5-0.2
		c0,13.5,0,27,0,40.5c0.2,0,0.3,0,0.5,0C262.6,38.3,262.6,24.8,262.6,11.4z"/>
	<path class="st22" d="M425.8,172c-2.6,3.2-3.5,7-4.1,11c-0.9,5.9-4.8,9.1-10.5,9c-2.1,0-2.5-1.2-2.4-2.9c0-3.5,0-7,0-10.4
		c0-1.2,0.1-2.5,1.1-3.1c4-2.7,7.6-6.5,13-6.5C424.2,169.7,425.1,170.7,425.8,172z"/>
	<path class="st15" d="M231.8,1.8c-0.4,13.1-0.2,26.2,1.9,39.2c0.1,0.9,0.3,1.6,1.1,2.1c0.6,3.1,1.1,6.2,5.1,6.8
		c-1.8,0.5-5-0.7-3.6,3.3c0.3,0.9,0.6,1.9,0.9,3c1.1-1.2-0.2-3,1.8-3.7c2.2,2.9-0.3,5.1-1.2,7.5c-1.8,0.8-0.2,4-3,4
		c-0.4-2.7-0.8-5.4-1.1-8.2c-0.4-5-2.5-7.9-8-6.9c0-0.3,0-0.5,0-0.8c0.3-0.4,0.7-0.7,1-1.1c2.3-0.2,5.9,0.9,4.8-3.3
		c-1.1-4.2-0.9-8.5-1.4-12.8c-1.2-8.7-1.8-17.4-1.4-26.2c0.1-1.8,0.5-3.3,2.5-3.8C231.4,1.2,231.6,1.5,231.8,1.8z"/>
	<path class="st13" d="M188.7,268c6.4,2.4,12.8,0.2,19-0.6c11-1.4,21.8-3.4,33-2.7c-4.1,0.8-8.2,1.5-12.2,2.4c-2.4,0.5-5,1-6.4,3.4
		c-0.8,1.4-2,1.6-3.4,1.5c-11.3,0-22.6,0-33.9-0.1c-0.6,0-1.2-0.4-1.8-0.7C184.9,270.2,186.8,269.1,188.7,268z"/>
	<path class="st19" d="M126.8,94.1c-1.4-5.2-2.1-10.6-2-16c0.6-0.4,1.3-0.5,1.8,0.1c3.1,4.2,10.7,6,16.2,3.8c0,9,0,18.1,0.1,27.1
		c-1.1,0.3-2.2,0.6-3.3,0.9c2.4-5.2,2.1-10.9,1-16.1c-1.3-6-7.1-3.5-10.9-4.3C126.1,88.8,127.4,92.4,126.8,94.1z"/>
	<path class="st19" d="M148.7,203c-4-0.3-8,0.2-11.9,1v0.1c0.1,0,0.3,0.1,0.4,0.2c0.6,0.1,1,0.6,1.1,1.1c0.1,0.1,0.2,0.2,0.2,0.4
		l0,0c0,0.1,0,0.1,0,0.2v0.1c0,0.3,0.1,0.6,0.1,0.8c0,1.8,0,3.6,0,5.5c0.1,0.2,0.1,0.4,0.2,0.6c0.1,0.5-0.1,1.1-0.7,1.2
		c-0.5,0.1-1.1-0.2-1.2-0.7c-0.1-0.4-0.2-0.7-0.4-1c-0.1-0.2-0.2-0.3-0.4-0.5c-0.1-0.1-0.1-0.1-0.2-0.2c0,0-0.3-0.2-0.1-0.1
		c-0.1,0-0.1-0.1-0.1-0.1c-0.1-0.1-0.1-0.1-0.2-0.2c-0.2,0.2-0.5,0.5-0.7,0.7c1.1,2.4,3.1,4.1,4.4,6.5c0.2,0.3,0.4,0.6,0.6,0.8h8.3
		c1-0.6,0.6-2.3,0.7-3.5C148.7,211.6,148.7,207.3,148.7,203z"/>
	<path class="st15" d="M223.8,209c-0.4-2.1-2-2.5-3.7-2.9v41c1.7-1.3,2.7-3.1,3.7-5C223.8,231.1,223.8,220,223.8,209z"/>
	<path class="st19" d="M231.2,0.9c-1.9,0.6-2.4,2-2.5,3.8c-0.5,8.8,0.2,17.6,1.4,26.2c0.6,4.2,0.3,8.5,1.4,12.8
		c1.1,4.2-2.6,3.1-4.8,3.3c0-13.4,0-26.7,0-40.1c0-2.4,0.4-4.6,1.1-6.8C229,0,230.3-0.3,231.2,0.9z"/>
	<path class="st15" d="M333.7,174.9c1.2-1.6,2.5-3.2,3.7-4.8c3.2-0.7,6.4,1.3,9.6-0.1c1.4,0.8,2.9,2,3.6-0.7c4.3,2.7,9.4,1.4,14,2.9
		c-1.5,1.2-2.9,2.8-5.1,2.9C351,175,342.3,174.9,333.7,174.9z"/>
	<path class="st20" d="M100.7,194.8c-0.1-0.4-1.7-0.8-1.8-1.1c5.6-8.6,15-26.9,19-36.4c-5,10.8-7.4,29.5-7.2,40.8
		c-0.6,0-1.1,0-1.7,0c0-5.1,0-10.1,0-16.4C105.4,186.2,104.6,192.5,100.7,194.8z"/>
	<path class="st15" d="M142.8,109.1c0-9,0-18.1-0.1-27.1c0.3-1.8,1.5-2.2,3.1-1.9c0,9.7,0,19.3,0,29
		C144.7,110.3,143.7,110.3,142.8,109.1z"/>
	<path class="st19" d="M132.9,207.7L132.9,207.7c-0.3,0.1-0.5,0.1-0.7,0.2c-0.1,0.1-0.1,0.1-0.2,0.2c-0.3,0.4-0.4,0.9-0.6,1.3
		c0,0.5,0,1-0.2,1.4c-0.7,1.3-1.8,2.9-3.3,2.6c-1.6-0.4-0.9-2.2-1-3.5s-0.1-2.7-0.1-4c-3-0.2-4.1,1.4-4,4.2c0.1,2.9,0.1,5.8,0.1,8.7
		h3.9c0.4-0.3,0.7-0.7,1.1-1.2c1.7-2.3,2.8-5.9,6.8-5.5c0.2-0.2,0.5-0.5,0.7-0.7C134.6,210.2,134.9,207.9,132.9,207.7z"/>
	<path class="st23" d="M227.8,0.2c-0.7,2.2-1.1,4.4-1.1,6.8c0.1,13.4,0,26.7,0,40.1c-0.3,0.4-0.7,0.7-1,1.1v-0.1
		c0-14.1,0-28.2,0-42.2c0-1.6,0.6-3.3-0.9-4.7C225.5-0.4,226.7,0.1,227.8,0.2z"/>
	<path class="st21" d="M224.9,1.1c1.4,1.4,0.8,3.1,0.9,4.7c0,14.1,0,28.2,0,42.2c-1.8-1.4-1-3.4-1-5.1c-0.1-13.7-0.1-27.4-0.1-41.1
		C224.7,1.6,224.8,1.4,224.9,1.1z"/>
	<path class="st19" d="M281.5,73c-0.1-0.1-0.1-0.3-0.1-0.4c0,0,0,0-0.1-0.1c-0.5,0.8-1.1,1.4-2,1.5c0.8,3.3,2.6,6.1,4.1,9
		c0.8,0,1.7-0.1,2.5-0.1c0,0,0,0,0-0.1C284,79.8,283.3,76.2,281.5,73z"/>
	<path class="st19" d="M350.6,169.3c-0.8,2.7-2.2,1.4-3.6,0.7c-1.8-1.7-3.5-3.3-5.3-5c0.4-0.7,0.9-1.3,1.3-2
		C346,164.6,348.3,167,350.6,169.3z"/>
	<path class="st23" d="M120.8,78.1c0,5.6-0.1,11.3-0.1,16.9c-2-5.3-0.4-10.9-1-16.3C120.1,78.5,120.4,78.3,120.8,78.1z"/>
	<path class="st15" d="M84.6,213.6c0.1-0.5,0.2-1.1,0.4-1.6c1.3,0.2,2.8-0.3,3.8,1.1C87.5,214.2,86.1,213.8,84.6,213.6z"/>
	<path class="st22" d="M444.9,206c-9.4,2.7-15.8,8.8-23.7,12.3c-8.1,3.5-15.9,1.6-23.7-1c-1-0.3-1.6-1.1-1.7-2.2
		c-0.3-2.6,5-11.5,7.7-12.1c8.5-1.8,17.1-4.1,25.8-4.6C434.7,198.2,439.7,202.1,444.9,206z"/>
	<path class="st16" d="M412.7,165.5c2.2-0.2,3,1.4,2.7,2.4c-0.9,3.2-4,4.3-6.7,5.3c-1.7,0.7-1.9-1.3-1.9-2.6
		C406.7,168.1,409.9,165.5,412.7,165.5z"/>
	<path class="st16" d="M314.2,236.3c0,1-0.8,1.7-1.6,1.4c-2.7-1.1-5.7-1.9-7.6-4.3c-0.9-1.1-1.2-2.5,0.7-3.1
		C307.1,229.7,314,234.7,314.2,236.3z"/>
	<path class="st23" d="M223.8,242.1c0-11,0-22.1,0-33.1c1.9,2.4,0.7,5.1,0.9,7.7c0.6,7.7-1,15.5,0.9,23.2
		C225.4,240.9,224.7,241.6,223.8,242.1z"/>
	<path class="st20" d="M225.9,239.3c0-8.9-0.1-17.7,0-26.6c0-0.9-1.6-3.8,1.9-2.6l0,0c-1.7,8.9-1.5,17.9-0.1,26.8l0.1,0.2
		C227.2,237.8,226.5,238.5,225.9,239.3z"/>
	<path class="st20" d="M227.8,210c2,3.9,0.7,8,0.9,12c0.3,4.4,0.2,8.9,0.2,13.3c-0.4,0.6-0.7,1.1-1.1,1.7l-0.1-0.2
		C227.7,227.9,227.7,219,227.8,210L227.8,210z"/>
	<path class="st24" d="M398.8,262.1c-0.3-0.3-0.6-0.7-0.9-1C398.2,261.4,398.5,261.7,398.8,262.1z"/>
	<path class="st21" d="M333.7,174.9c8.6,0.1,17.2,0.1,25.8,0.2c-4,5.1-9.5,7.2-15.8,7.5c-1.3-1.7-3.1-1.5-4.9-1.5
		c-3.9,0-7.8,0-11.7-0.1c0-0.3,0-0.5,0-0.8c2.2-1.3,4.1-2.9,5.5-5.1C333.1,175,333.4,175,333.7,174.9z"/>
	<path class="st15" d="M327.3,181c3.9,0,7.8,0,11.7,0.1c1.8,0,3.6-0.2,4.9,1.5c-6.5,3.7-13.8,4.8-20.9,6.4c-1.9-0.5-3.9-0.9-5.8-1.4
		C320.5,185.4,323.9,183.2,327.3,181z"/>
	<path class="st21" d="M225.7,48.9c5.5-1,7.6,1.9,8,6.9c0.2,2.7,0.7,5.5,1.1,8.2c0.1,0.4,0.2,0.9,0.3,1.3c0,7.1-0.1,14.2-0.1,21.3
		c0,2-0.3,4.2,2.7,4.3c-0.2,3.8,0.7,7.7-0.8,12.4c-2.1-3.5-0.5-6.6-1.8-10.1c-0.3,4.9-0.5,9,0.1,13c-0.1,8.6-0.1,17.3-0.2,25.9
		c0,2.2,0.7,3.5,2.8,4.1c-0.1,3.9,1,8-1,11.8c-1.9,1.6-1.8,3.7-1.8,5.9c0,5.7,0,11.3,0,17c-2.7,0-5.3,1.7-8.1,0.9
		c0-9.9,0-19.8-0.1-29.8c0-1.7,0.7-3.7-1-5.1l0,0c0.7-1.3,1-2.7,1.1-4.3c0.2-16.9-0.5-33.9,0.8-50.8c0.6-7.9-1.4-15.9-0.9-23.9
		c0.2-2.1,0-4.3,0-6.8c-1.6,1.7-1,3.5-1,5c-0.1,9.7,0,19.3-0.1,29c0,1.6,0.6,3.4-0.9,4.7c0-10.9,0-21.9-0.1-32.8
		c0-1.7,0.8-3.7-1-5.1C223.5,50.4,225.2,50,225.7,48.9z"/>
	<path class="st21" d="M268.6,56.1c0,24.6,0,49.3,0,73.9c-2.8-0.5-2.3-4.2-4.7-5c-0.1-0.7-0.1-1.3-0.2-2c0-7.7,0.1-15.3,0.1-23
		c0-1.5,0.7-3.8-1.8-3.9c-3-0.1-1.9,2.5-2.1,4.1c-0.6,4.9,1.1,9.9-1,14.6c-2.7-6-5.4-11.9-8.2-17.8c-1-2.2-0.8-3.7,1.3-4.9
		c0.3-0.1,0.5-0.2,0.8-0.3c3.7-1.3,4.8-4.3,5-7.8c0.2-4.3,0.1-8.6,0-12.9c-0.1-5-2.6-8-7.4-9.2c-3.2-0.7-6.4-1.3-9.7-1.9
		c-0.9-0.1-1.9-0.1-2.8-0.2c0.9-2.4,3.4-4.6,1.2-7.5c-1.9,0.7-0.7,2.5-1.8,3.7c-0.3-1.1-0.6-2.1-0.9-3c-1.4-4,1.9-2.8,3.6-3.3
		c0.3,0,0.6,0.1,0.8,0.2c1.2,1.4,2.8,0.8,4.2,0.8c0.3,0,0.5,0.1,0.7,0.2c3.5,1.5,7.2,2.3,10.9,2.8c1.5,0.2,3.1,0,3.3,2.1
		c0,12.3-0.1,24.6-0.1,36.9c-0.9,0.1-2.1-0.3-2.5,0.8s0.8,1,1.5,1.1c1.3,0,2.6,0,3.8,0c0.9,0,1.4-0.2,1.4-1.4
		c-0.2-11,0-21.9-0.4-32.9C263.6,56.7,265,55.5,268.6,56.1z"/>
	<path class="st21" d="M332.8,175c-1.4,2.2-3.3,3.8-5.5,5.1c-34.3,0-68.6-0.4-102.9,0.1c-10.7,0.2-21.5,0.8-32.1,2.6
		c-1.3,0.2-2.7,0.5-4.7-1.2c30.1-4.5,59.6-5.8,89.2-6.7c17.7,0,35.3,0,53,0C330.8,175,331.8,175,332.8,175z"/>
	<path class="st21" d="M147.9,110.4c0.9,1.7,0.5,3.6,0.5,5.4c0,18.3,0.1,36.5,0.1,54.8c0,1.1,0.3,2.3,0.5,3.4
		c-3.7-1.9-4.5-5.7-6.2-9c2.6-0.2,2-2.2,2-3.8c0.1-4.5,0.1-8.9,0-13.4c-0.1-2.4,0.6-5-0.5-7.3c-0.5,0-1,0-1.4,0.1
		c0,8.1,0,16.3,0,24.4c-2.2-2.5-3-5.2-2.2-8.6c0.5-2.2,0.2-4.6,0-7c-0.1-1.8-1.6-2.8-3.1-2.7c-1.6,0.1,0.2,2-1.1,3.1
		c-2-4.7-3-9.4-3.6-14.3c1.2,1.9,3,1.9,4.9,1.4c2.3-0.9,3.1-2.7,3.1-5.1c-0.1-3.1,0-6.3,0-9.4c0-2.3,0.5-4.8-2.7-5.5
		c-3.1-0.7-6.3-2.4-9.3,1.6c0-2.6,0-4.7,0-6.8c3.4,0.8,6.7,0.5,9.8-1.1c3.5-0.2,4.5,1.5,4.3,4.9c-0.3,6.3-0.1,12.7,0,19
		c0,1.2-0.5,3.1,1.4,3.1s1.4-1.9,1.4-3.1c0-7.2,0-14.3-0.1-21.5c0-1.1-0.4-2,1.1-2.1C147.1,110.8,147.5,110.6,147.9,110.4z"/>
	<path class="st21" d="M253,135.1c3.9-0.8,3.5-3.8,3.9-6.8c0.4-3.1-2.1-6.8,1.8-9.2l0,0c0,0.8,0.2,1.6,1,2l0,0
		c0,5.4,0.1,10.7-0.2,16.1c-0.1,1.5,0.9,1.9,1.3,2.9c-1.4,1.1-1,2.7-1,4.1c0,6,0,11.9,0,17.9c-0.7,2.2,1.2,6.5-1.4,6.4
		c-3.2-0.1-1.2-4.3-1.6-6.7c-0.3-1.8-0.2-3.7,0-5.5c0.4-4.5-2.2-6.7-6-8c-1.1-0.4-2.2-0.5-3.4-0.8c-6.2-1.4-7.4-4.2-4.5-10.5
		C246.5,137.2,250,137.6,253,135.1z M257,137.6c-0.3-0.2-0.6-0.5-0.8-0.5c-0.5,0-1.6-0.3-1.3,0.5C255.1,138.3,256.3,138.2,257,137.6
		z"/>
	<path class="st20" d="M263.7,123.1c0.1,0.7,0.1,1.3,0.2,2c-2.1-0.5-2-3.4-4.1-4l0,0c0-0.9-0.1-1.6-1-2l0,0
		c-1.8-5.5-5-10.2-7.8-15.1c-2.6-3.8-2.9-8.7-6.2-12.1c-0.5-2.9-0.2-6.3-3.8-7.8c2.3-4.6-0.1-8.3-2.1-12.1c-2.1-1.8-0.5-5.4-3.5-6.7
		c-0.1-0.4-0.2-0.9-0.3-1.3c2.8,0,1.2-3.2,3-4c0.9,0.1,1.9,0.1,2.8,0.2c-1.3,1.1-2.2,2.2-0.9,3.9c0.6,9.4,5.1,17.7,7.8,26.5
		c0.6,2,2.7,1.5,4.3,1.7c-2.1,1.2-2.3,2.7-1.3,4.9c2.8,5.9,5.5,11.9,8.2,17.8C260.4,117.7,262,120.4,263.7,123.1z"/>
	<path class="st21" d="M127.9,167.5c3.5-0.2,7.4,1.8,10.5-1.3c3.5-0.5,3.9,2.6,4,4.5c0.4,5.5,0.1,11.1,0.1,17.3
		c-2.4-1.7-1.6-3.6-1.7-5.2c-0.2-5.3-1.6-6.6-6.9-6.8c-2.1-0.1-4.3,0.9-6.1-1c0-2.3,0-4.5,0-6.8C127.9,168,127.9,167.8,127.9,167.5z
		"/>
	<path class="st21" d="M268.5,140.1c0.1,9.6,0.2,19.3,0.3,28.9c-3.6,0.5-5.2-0.9-5.1-4.7c0.2-6.5,0.1-13,0-19.5
		c0-1.6,0.7-3.4-0.9-4.7c-0.4,0-0.7,0-1.1-0.1c1-1.6,2.6-0.9,4.1-1C266.4,140.2,267.5,140,268.5,140.1z"/>
	<path class="st19" d="M127,148.2c-0.1,5.9-0.2,11.9-0.3,17.8c-3.6,2.2-4.8,0.4-4.9-3.1c0-6,0.3-12-0.1-18c-0.4-4.9,1.4-6.7,6.1-5.9
		c0,2,0,4,0,6.1C126.4,145.8,124.9,146.5,127,148.2z"/>
	<path class="st19" d="M126.8,179.1c0,4.3,0,8.6-0.1,13c-4,2.4-4.8,2.1-4.9-2.3c-0.1-5.3,0.3-10.6-0.1-15.9
		c-0.4-4.9,1.2-6.8,6.1-5.6c0,2.3,0,4.6,0,6.8C124.8,175.7,125.5,177.3,126.8,179.1z"/>
	<path class="st21" d="M244.6,91.9c3.3,3.4,3.6,8.4,6.2,12.1c-6.8,2.7-9.7,0.9-10-6.3c-0.1-1.9,0.6-3.8,0.9-5.7
		C242.7,91.9,243.7,91.9,244.6,91.9z"/>
	<path class="st23" d="M329.7,174.9c-17.7,0-35.3,0-53,0c1-1.2,2.4-0.9,3.7-0.9c15.2,0,30.4,0,45.6,0
		C327.3,174,328.7,173.8,329.7,174.9z"/>
	<path class="st23" d="M158,137.2c0,14.3,0,28.5,0,42.8c-0.4-0.3-0.8-0.5-1.2-0.8c0.1-14.1,0.1-28.1,0.2-42.2
		C157.3,137.1,157.7,137.1,158,137.2z"/>
	<path class="st21" d="M127.7,138.2c0.7-0.1,1.3-0.1,2-0.2c1.2,1,1.8,2.3,2.1,3.8c0.2,1.2,1.6,2.5,0.3,3.6s-3,1.1-4.4-0.3
		c0-2,0-4,0-6.1C127.7,138.7,127.7,138.4,127.7,138.2z"/>
	<path class="st21" d="M148.5,177.9c0,2.7,0,5.5,0,8.2c-1.8,1.1-2.7,0.7-2.7-1.5c0-2.9,0-5.8,0-8.6
		C147.8,175.6,147.5,177.5,148.5,177.9z"/>
	<path class="st23" d="M261.7,140.1c0.4,0,0.7,0,1.1,0.1c0,9.2,0,18.5,0,27.7c-0.4,0-0.7,0-1.1,0
		C261.7,158.6,261.7,149.4,261.7,140.1z"/>
	<path class="st21" d="M268.5,140.1c-1,0-2.1,0.1-2.7-0.9c-2.1-2.4-2.5-5.1-1.6-8.7c2,2.7,3.9,4.8,4.7,7.7
		C268.7,138.8,268.6,139.4,268.5,140.1z"/>
	<path class="st20" d="M191.5,177c1.1,0,2.2,0,3.2,0.1c-3.3,3.3-12.2,3.9-15,1c1.3,0,2.6,0,3.9-0.1c2.1,0.1,4.2,0.3,6.1-1
		C190.3,177,190.9,177,191.5,177z"/>
	<path class="st15" d="M119.9,166c0-8.5,0-16.9,0-25.4c0.2,0,0.3,0,0.5,0c0,8.5,0,16.9,0,25.4C120.2,166,120,166,119.9,166z"/>
	<path class="st23" d="M120.6,170.2c0,7.5,0,15,0,22.6c-0.1,0-0.3,0-0.4,0c0-7.5,0-14.9,0-22.4C120.3,170.3,120.4,170.2,120.6,170.2
		z"/>
	<path class="st23" d="M151.9,187.1c5.4-1,10.8-1.9,16.2-2.9c0.1,0.4,0.1,0.9,0.2,1.3c-5.5,0.9-10.9,1.8-16.4,2.7
		C151.9,187.8,151.9,187.4,151.9,187.1z"/>
	<path class="st23" d="M259.8,162c0-6-0.1-11.9,0-17.9c0-1.4-0.5-3,1-4.1c0,5.8,0,11.6,0,17.3C260.7,158.9,261.3,160.7,259.8,162z"
		/>
	<path class="st20" d="M244.4,171.5c1.4,0.8,2.7,1,3.8-0.2C247,171.4,245.7,171.5,244.4,171.5z"/>
	<path class="st13" d="M255.8,267c-2.8,0-5.5,0.2-8.3-1.7C250.7,264.7,253.3,265.7,255.8,267L255.8,267z"/>
	<path class="st20" d="M138.6,110.7c0.3-0.2,0.6-0.5,0.9-0.7c1.1-0.3,2.2-0.6,3.3-0.9c1,1.2,2,1.2,3,0c0.8,0.4,0.9,1,0.9,1.8
		c-1.5,0.2-1.1,1.1-1.1,2.1c0.1,7.2,0.1,14.3,0.1,21.5c0,1.2,0.5,3.1-1.4,3.1s-1.4-1.9-1.4-3.1c-0.1-6.3-0.2-12.7,0-19
		C143,112.2,142,110.5,138.6,110.7z"/>
	<path class="st23" d="M169.7,166c0.1,4.3,0.1,8.6,0.2,12.9c-0.3,0.1-0.6,0.2-1,0.2c0-4.4,0-8.7,0-13.1
		C169.2,166,169.5,166,169.7,166z"/>
	<path class="st15" d="M223.6,137c-2.2-0.3-1.9-2-1.9-3.4c0-11.8,0-23.5,0-35.3c0-2.1,0.2-4,2.9-4.4c0.1,13.7,0.1,27.3,0.2,41
		c0,0.7,0,1.3-0.1,2C224.4,137,224,137,223.6,137z"/>
	<path class="st15" d="M223.7,52c1.8,1.4,1,3.4,1,5.1c0.1,10.9,0.1,21.9,0.1,32.8c0,0.7,0,1.4,0,2.1c-0.3,0-0.7,0-1,0
		c-1.5,0.7-2.1,0.1-2-1.5c0.5-11.4-0.9-22.9,0.8-34.3c0.2-1.6-0.2-2.9-0.7-4.3c0.4,0,0.8,0,1.2,0.1C223.2,52,223.5,52,223.7,52z"/>
	<path class="st15" d="M224.8,172c-3,1.7-3-0.8-3-2.4c-0.1-9.2,0-18.4-0.1-27.7c0-2.1,0.8-3.1,2.9-3C224.7,150,224.7,161,224.8,172z
		"/>
	<path class="st21" d="M223.8,92.1c0.3,0,0.7,0,1,0c0.9,0.7,1,1.6,1,2.6c0,12.5,0,25.1,0,37.6c0,1,0,2-1,2.7
		c-0.1-13.7-0.1-27.3-0.2-41C224.3,93.3,224,92.7,223.8,92.1z"/>
	<path class="st21" d="M224.8,172c-0.1-11-0.1-22-0.2-33.1c-0.3-0.6-0.7-1.3-1-1.9c0.4,0,0.7-0.1,1.1-0.1c0.3,0,0.7,0.1,1,0.1l0,0
		c0,11.6,0,23.3-0.1,34.9C225.4,172,225.1,172,224.8,172z"/>
	<path class="st23" d="M225.7,172c0-11.6,0-23.3,0.1-34.9c1.6,1.5,1,3.4,1,5.1c0.1,9.9,0.1,19.8,0.1,29.8
		C226.5,172,226.1,172,225.7,172z"/>
	<path class="st21" d="M223,52c-0.4,0-0.8,0-1.2-0.1C222.2,51.1,222.6,51.4,223,52z"/>
	<path class="st15" d="M252.9,50.1c0-5.8-0.2-11.6-0.1-17.4c0.1-3.4-1.3-5.2-4.7-5.8c-4.4-0.8-8.5-2.6-13-2.5c-1.2-4.4,0-5.8,4.5-4
		c3.2,1.2,6.7,1.8,10,2.6c1,0.2,1.9,0.5,2.8,0.9c4.2,1.6,5.7,5.2,5.2,9.1C256.8,38.8,261.2,46.3,252.9,50.1z"/>
	<path class="st23" d="M262.6,11.4c0,13.4,0,26.9,0,40.3c-0.2,0-0.3,0-0.5,0c0-13.5,0-27,0-40.5C262.3,11.2,262.5,11.3,262.6,11.4z"
		/>
	<path class="st20" d="M262.7,94.9c-1.3,0-2.6,0-3.8,0c2.5-1,3-2.9,3-5.5c-0.2-10.1-0.1-20.2,0.9-30.4C262.7,71,262.7,83,262.7,94.9
		z"/>
	<path class="st20" d="M259.8,93c0-12.3,0.1-24.6,0.1-36.9c1.6,1.9,0.8,4.2,0.8,6.2c0.1,8.6,0.1,17.3,0,25.9
		C260.7,89.9,261.3,91.7,259.8,93z"/>
	<path class="st25" d="M138.6,207c-0.2-0.3-0.5-0.5-0.7-0.8c0.2-0.1,0.4-0.3,0.6-0.4C138.5,206.2,138.5,206.6,138.6,207z"/>
	<path class="st25" d="M137.6,213.1c0.3,0,0.7,0,1,0C138.2,214.4,137.9,213.5,137.6,213.1z"/>
	<path class="st15" d="M227.8,210c0,8.9-0.1,17.9-0.1,26.8C226.2,227.9,226,219,227.8,210z"/>
	<path class="st23" d="M225.8,137c-0.3,0-0.7-0.1-1-0.1c0-0.7,0-1.3,0.1-2c1-0.7,1-1.7,1-2.7c0-12.5,0-25.1,0-37.6c0-1-0.1-2-1-2.6
		c0-0.7,0-1.4,0-2.1c1.6-1.3,0.9-3.1,0.9-4.7c0.1-9.7,0-19.3,0.1-29c0-1.5-0.6-3.3,1-5c0,2.5,0.1,4.7,0,6.8
		c-0.6,8,1.5,15.9,0.9,23.9c-1.3,16.9-0.6,33.9-0.8,50.8C226.8,134.3,226.5,135.7,225.8,137z"/>
	<path class="st15" d="M252.7,92c0-6.5-0.1-13,0.1-19.5c0.2-4.3-1.4-6.6-5.7-7.2c-2.5-0.3-4.9-0.8-7.4-1.3c-1.3-1.7-0.5-2.8,0.9-3.9
		c3.2,0.6,6.5,1.2,9.6,1.9c4.8,1.1,7.3,4.2,7.4,9.2c0,4.3,0.2,8.6,0,12.9C257.5,87.6,256.4,90.7,252.7,92z"/>
	<path class="st15" d="M263.7,123.1c-1.6-2.7-3.3-5.4-4.9-8.1c2.1-4.8,0.4-9.8,1-14.6c0.2-1.6-0.9-4.2,2.1-4.1
		c2.6,0.1,1.8,2.4,1.8,3.9C263.8,107.7,263.7,115.4,263.7,123.1z"/>
	<path class="st15" d="M240.8,50.1c1.5-0.1,3-0.5,4.2,0.8C243.5,51,241.9,51.5,240.8,50.1z"/>
	<path class="st15" d="M142.8,165c0-8.1,0-16.3,0-24.4c0.5,0,1,0,1.4-0.1c1.1,2.3,0.5,4.9,0.5,7.3c0.1,4.5,0.1,8.9,0,13.4
		C144.7,162.8,145.3,164.8,142.8,165L142.8,165z"/>
	<path class="st15" d="M257,137.6c-0.8,0.6-1.9,0.7-2.2,0c-0.3-0.8,0.8-0.5,1.3-0.5C256.4,137.1,256.7,137.4,257,137.6z"/>
	<path class="st15" d="M258.7,119.1c0.9,0.4,1.1,1.1,1,2C258.9,120.6,258.7,119.9,258.7,119.1z"/>
</g>
</svg>
