<?xml version="1.0" encoding="utf-8"?>
<!-- Generator: Adobe Illustrator 22.0.0, SVG Export Plug-In . SVG Version: 6.00 Build 0)  -->
<svg version="1.1" id="Layer_1" xmlns="http://www.w3.org/2000/svg" xmlns:xlink="http://www.w3.org/1999/xlink" x="0px" y="0px"
	 viewBox="0 0 281.9 496.9" style="enable-background:new 0 0 281.9 496.9;" xml:space="preserve">
<style type="text/css">
	.st0{fill:#2D24A3;}
	.st1{fill:#B77053;}
	.st2{fill:#ECE0D3;}
	.st3{fill:#E48868;}
	.st4{fill:#464473;}
	.st5{fill:#734E4F;}
	.st6{fill:#393762;}
	.st7{fill:#BA745D;}
	.st8{fill:#563616;}
	.st9{fill:#202070;}
	.st10{fill:#CFB199;}
	.st11{fill:#4E587F;}
	.st12{opacity:0.73;fill:#FFFFFF;enable-background:new    ;}
	.st13{opacity:0.73;fill:#FEFEFE;enable-background:new    ;}
	.st14{fill:#B4CBE8;}
	.st15{fill:#F86534;}
	.st16{fill:#2E25A3;}
	.st17{fill:#1D1B89;}
	.st18{fill:#F5B998;}
	.st19{fill:#FBD488;}
	.st20{fill:#F5B897;}
	.st21{fill:#F86535;}
	.st22{fill:#F8D188;}
	.st23{fill:#EDB65A;}
	.st24{fill:#FBD387;}
	.st25{fill:#F2A694;}
	.st26{fill:#F09780;}
	.st27{fill:#FEFEFE;}
	.st28{fill:#F0BE68;}
</style>
<g>
	<g>
		<g>
			<g>
				<path class="st0" d="M5615.5-5016.8v60.8h3.8c0,0,6.6-27.7,6.9-30.4s-1-11.2-1-11.2l5.7-22L5615.5-5016.8z"/>
			</g>
		</g>
		<g>
			<g>
				<path class="st0" d="M5613.5-5016.8v60.8h-3.8c0,0-6.6-27.7-6.9-30.4s1-11.2,1-11.2l-5.7-22L5613.5-5016.8z"/>
			</g>
		</g>
		<g>
			<g>
				<polygon class="st1" points="5615.1,-4972.8 5615.5,-4952.9 5615.5,-4948.6 5621,-4948.6 5619,-4952.3 5624,-4972.8 				"/>
			</g>
		</g>
	</g>
	<g>
		<g>
			<path class="st2" d="M5625.2-5086.7c1.9,4.5,8.4,5.3,10.6,9.6c1.4,2.9,0.3,6.6-1.9,8.9c-2.3,2.3-5.4,3.6-8.6,4.4
				c-7,1.9-14.5,2.4-21.5,0.2c-2.5-0.8-4.9-1.9-6.8-3.6s-3.4-4.1-3.5-6.7s1.1-5.3,3.3-6.6c1.4-0.8,3.1-1,4.2-2.1
				c1.7-1.6,1.7-4.2,1.6-6.6c-0.1-4.3,0.1-8.7,0.7-13c0.4-3.3,1.2-6.8,3.4-9.3c2.5-2.7,6.5-3.7,10.1-2.9s6.5,3.6,8.1,6.9
				s1.9,7.1,1.2,10.7C5625.4-5093.3,5623.9-5089.8,5625.2-5086.7z"/>
		</g>
	</g>
	<g>
		<g>
			<path class="st3" d="M5593.1-5032.4c0,0-2.3,4.2-2.5,5.6s-0.2,2.1,0.9,1.8s-0.1,1.9,1.5,1.7c1.6-0.2,4.3-4.5,4.3-4.5l-2.7-3.7
				L5593.1-5032.4z"/>
		</g>
	</g>
	<g>
		<g>
			<path class="st4" d="M5635.3-5015.4c0,0-1.9-27.7-11.7-42l2.5-13.6c0,0,4.2-3.6,3.3-9.1v-7.5c0,0-11.6-5.5-14.4-5.5
				s-15.3,6.1-15.3,6.1s0,5.2,0,7c0,1.9,0.2,6.1,3,8.7l3.1,13.7c0,0-11.2,12-12.7,43.1C5593.1-5014.3,5618.2-5011.5,5635.3-5015.4z"
				/>
		</g>
	</g>
	<g>
		<g>
			<path class="st4" d="M5599.6-5087c-2.2,1.4-3.3,3.1-3.6,4.4s-3.1,28.4-3,32c0.2,3.6-2.8,2.8-1.6,8s-3,4.8-1.1,8.3l0.5,2.8l4,0.9
				l4.1-12l3.6-28.6L5599.6-5087z"/>
		</g>
	</g>
	<g>
		<g>
			<path class="st1" d="M5642.1-5023.1c3.5-0.6-2.3-10.1-6.2-12.6c-3.9-2.5-11.6-4.6-13.6-4.1S5628.5-5020.5,5642.1-5023.1z"/>
		</g>
	</g>
	<g>
		<g>
			<path class="st1" d="M5622.3-5039.8c-1.7,0-2.3,1.6-2.3,3.4c0,1.9,4.1,21.3,7.2,23s13.6,1.4,14.2-1.9s-1.1-10.8-1.1-10.8
				L5622.3-5039.8z"/>
		</g>
	</g>
	<g>
		<g>
			<polygon class="st1" points="5622.3,-5039.8 5604.8,-5089.4 5601.9,-5088 5620,-5036.3 			"/>
		</g>
	</g>
	<g>
		<g>
			<path class="st3" d="M5623.5-5057.4l-3.1,1.8c0,0-3.3-1.4-4.2-1.2l0.7,1.9c0,0-5.5,1.5-5.5,1.8s0,1.7,0,1.7l2-0.4
				c0,0-0.2,1,0,1.2s0.7,0.4,0.7,0.4s0.2,0.8,0.6,1.6s0.4,1.4,1.1,1.9s4.9-1.4,5.4-1.8c0.6-0.3,4.5-4.6,4.5-4.6L5623.5-5057.4z"/>
		</g>
	</g>
	<g>
		<g>
			<path class="st5" d="M5638-5022.5c0.6,0,1.2-0.1,1.8-0.2c0.2,0,0.3-0.2,0.2-0.3c0-0.2-0.2-0.3-0.3-0.2c-3.5,0.6-7.5-0.8-10.6-3.9
				c-2.8-2.8-4.6-6.4-6.3-10.1c-0.1-0.1-0.2-0.2-0.4-0.1c-0.1,0.1-0.2,0.2-0.1,0.4c1.7,3.8,3.5,7.4,6.4,10.3
				C5631.4-5024,5634.8-5022.5,5638-5022.5z"/>
		</g>
	</g>
	<g>
		<g>
			<path class="st5" d="M5636.9-5025.3c1.3,0,2.6-0.1,3.9-0.4c0.2,0,0.3-0.2,0.2-0.3c0-0.2-0.2-0.3-0.3-0.2c-1.7,0.3-3.3,0.4-5,0.3
				c-0.2,0-0.3,0.1-0.3,0.3c0,0.2,0.1,0.3,0.3,0.3C5636.1-5025.3,5636.5-5025.3,5636.9-5025.3z"/>
		</g>
	</g>
	<g>
		<g>
			<path class="st5" d="M5630.7-5014c0.1,0,0.1,0,0.2-0.1s0.1-0.3,0-0.4c-5.4-6.5-8.7-14.6-9.3-23.1c0-0.2-0.2-0.3-0.3-0.3
				c-0.2,0-0.3,0.2-0.3,0.3c0.6,8.5,3.9,16.8,9.4,23.4C5630.5-5014,5630.6-5014,5630.7-5014z"/>
		</g>
	</g>
	<g>
		<g>
			<path class="st5" d="M5614.4-5055.5h0.1c0.2-0.1,0.2-0.2,0.2-0.4l-4-10.9c-0.1-0.2-0.2-0.2-0.4-0.2c-0.2,0.1-0.2,0.2-0.2,0.4
				l4,10.9C5614.1-5055.6,5614.2-5055.5,5614.4-5055.5z"/>
		</g>
	</g>
	<g>
		<g>
			<path class="st4" d="M5629.3-5087.6c3,1.4,8,28,7.3,29.2c-0.6,1.2-8,8.9-10.5,9.7l-2.7-8.7l4.7-4.1l-2.2-9.5L5629.3-5087.6z"/>
		</g>
	</g>
	<g>
		<g>
			<path class="st6" d="M5611.7-5079.2C5611.7-5079.2,5611.8-5079.2,5611.7-5079.2c3.1-0.7,5.9-2.5,7.9-4.9c0.1-0.1,0.1-0.3-0.1-0.4
				c-0.1-0.1-0.3-0.1-0.4,0.1c-1.8,2.4-4.5,4.1-7.4,4.7c-0.2,0-0.3,0.2-0.2,0.4C5611.5-5079.3,5611.6-5079.2,5611.7-5079.2z"/>
		</g>
	</g>
	<g>
		<g>
			<path class="st6" d="M5602.7-5071.2c0.1,0,0.1,0,0.2,0c0.1-0.1,0.2-0.3,0.1-0.4c-1.9-3.1-2.2-7-0.8-10.4l0.1-0.1l-0.1-0.1
				c-0.2-0.4-0.4-0.9-0.6-1.4s-0.4-1-0.7-1.4c-0.1-0.1-0.3-0.2-0.4-0.1s-0.2,0.3-0.1,0.4c0.2,0.4,0.4,0.9,0.7,1.4
				c0.2,0.4,0.4,0.9,0.6,1.3C5600.3-5078.5,5600.6-5074.4,5602.7-5071.2C5602.5-5071.3,5602.6-5071.2,5602.7-5071.2z"/>
		</g>
	</g>
	<g>
		<g>
			<path class="st6" d="M5626.3-5071.2c0.1,0,0.2,0,0.2-0.1c2-3.2,2.3-7.3,0.9-10.8c0.2-0.4,0.4-0.8,0.6-1.3s0.4-0.9,0.6-1.4
				c0.1-0.1,0-0.3-0.1-0.4s-0.3,0-0.4,0.1c-0.2,0.4-0.4,0.9-0.7,1.4c-0.2,0.5-0.4,0.9-0.6,1.4l-0.1,0.1l0.1,0.1
				c1.4,3.3,1.1,7.3-0.8,10.4c-0.1,0.1,0,0.3,0.1,0.4C5626.2-5071.2,5626.3-5071.2,5626.3-5071.2z"/>
		</g>
	</g>
	<g>
		<g>
			<path class="st6" d="M5595.5-5031.8c0.1,0,0.3-0.1,0.3-0.2c0.8-4.4,2.1-8.7,3.6-12.9c0.1-0.2,0-0.3-0.2-0.4
				c-0.1-0.1-0.3,0-0.4,0.2c-1.6,4.2-2.8,8.6-3.6,13C5595.2-5032,5595.3-5031.8,5595.5-5031.8L5595.5-5031.8z"/>
		</g>
	</g>
	<g>
		<g>
			<path class="st6" d="M5626.7-5049.2h0.1c0.1-0.1,0.2-0.2,0.2-0.4l-0.9-2.2c-0.1-0.2-0.2-0.2-0.4-0.2c-0.1,0.1-0.2,0.2-0.2,0.4
				l1,2.2C5626.5-5049.2,5626.6-5049.2,5626.7-5049.2z"/>
		</g>
	</g>
	<g>
		<g>
			<polygon class="st1" points="5614,-4972.8 5613.5,-4952.9 5613.5,-4948.6 5608.1,-4948.6 5610,-4952.3 5605.1,-4972.8 			"/>
		</g>
	</g>
	<g>
		<g>
			<path class="st3" d="M5617.5-5097.1v6.9c0,0-3.5,5.9-6.7,0.1l0.3-7H5617.5z"/>
		</g>
	</g>
	<g>
		<g>
			<path class="st3" d="M5616.1-5113.4c5.9,0.8,6.9,7.6,5.5,13c-1.1,4-3.5,8.1-7.3,8s-6.1-5.3-6.8-8.5
				C5606.4-5106,5606.6-5114.7,5616.1-5113.4z"/>
		</g>
	</g>
	<g>
		<g>
			<path class="st3" d="M5620.8-5101.9c0,0,0.2-2.3,2.1-1.5c1.8,0.8-0.4,5.9-2.4,5.3S5620.8-5101.9,5620.8-5101.9z"/>
		</g>
	</g>
	<g>
		<g>
			<path class="st3" d="M5608.6-5102c0,0-0.1-2.3-1.9-1.7c-1.9,0.6,0,5.9,2.1,5.4C5610.8-5098.6,5608.6-5102,5608.6-5102z"/>
		</g>
	</g>
	<g>
		<g>
			<path class="st7" d="M5614.2-5092.1c0.9,0,1.8-0.2,2.6-0.7c0.1-0.1,0.2-0.3,0.1-0.4s-0.3-0.2-0.4-0.1c-1.4,0.9-3.4,0.8-4.8-0.2
				c-0.1-0.1-0.3-0.1-0.4,0.1c-0.1,0.1-0.1,0.3,0.1,0.4C5612.2-5092.3,5613.2-5092.1,5614.2-5092.1z"/>
		</g>
	</g>
	<g>
		<g>
			<path class="st8" d="M5611.3-5109.7c-0.1,3.6,0.6,7.3,2.5,10.4s5.1,5.4,8.7,5.8c1.3-3.1,2.2-6.5,1.9-9.9
				c-0.4-3.3-1.9-6.6-4.6-8.6s-6.6-2.5-9.5-0.9c-2.5,1.4-4,4-4.6,6.8c-0.7,2.7-0.6,4.3-0.5,7.1
				C5609.2-5101.3,5611.8-5105,5611.3-5109.7z"/>
		</g>
	</g>
</g>
<g>
	<g>
		<g>
			<g>
				<g>
					<g>
						<path class="st3" d="M5746.7-5077.2l-2.5-9.5c0,0-3.6,1-5.2-0.6c-0.7-0.6-1.3-3.4-1.5-7.8c0-0.5-1.8,0.5-1.8,0
							c0-0.9,3.1-5.2,2.9-7c-1-6.4-0.5-8.1,1.4-9.9c4.1-4,18.5-4.6,20.4,2.4c2,7,1.3,10.4-2.2,20.3l2.2,9.9L5746.7-5077.2z"/>
					</g>
				</g>
			</g>
			<g>
				<g>
					<path class="st2" d="M5743.8-5072.6l-3.2-8c0,0,9.7-6.7,19.1-7.3l2,4.1L5743.8-5072.6z"/>
				</g>
			</g>
			<g>
				<g>
					<path class="st6" d="M5711.3-4895.1l-3.7,11.1c0,0-11.3,0.7-11.6,1.5l16.3,4.5l4.3-15.6L5711.3-4895.1z"/>
				</g>
			</g>
			<g>
				<g>
					<polygon class="st6" points="5797.2,-4877.1 5806.5,-4877.1 5813.3,-4882.4 5804.9,-4896.1 5800.3,-4893.3 5805.8,-4883.1 
						5804.1,-4879 					"/>
				</g>
			</g>
			<g>
				<g>
					<polygon class="st0" points="5735.1,-4997.2 5706.9,-4887.3 5716.3,-4884.9 5739,-4943.3 5754.9,-4974.1 5772.7,-4928.3 
						5802.5,-4885.4 5809.4,-4890.4 5785.2,-4946.3 5777.4,-4997.2 					"/>
				</g>
			</g>
			<g>
				<g>
					<path class="st9" d="M5760.6-5087.4c0,0-8.7,2.7-13,7.7c-4.4,5-11.4,19.5-11.5,21.1c-0.2,1.6,2.2,19.5,2.2,19.5l-7.8,47.3
						c0,0,33.4,5.2,50.1,0l-8.7-39.1c0,0,1.2-13.8,2.7-15.4s-1.1-15.3-2.2-21.6s-6.1-13.6-7.8-15.1S5760.6-5087.4,5760.6-5087.4z"/>
				</g>
			</g>
			<g>
				<g>
					<path class="st10" d="M5738.2-5056.8c0.2,0,0.3-0.1,0.4-0.3c1-2.5,3.6-5.9,6.1-7.6l0.2-0.1v-0.5c0.1-1.8,0.1-3.8-0.1-5.6
						c1.3-0.6,2.6-1.1,3.9-1.4l0.3-0.1v-0.3c0.3-1.8,1.6-3.4,2.9-5c0.7-0.8,1.4-1.7,1.9-2.6c0.1-0.2,0.1-0.5-0.1-0.6
						s-0.5-0.1-0.6,0.1c-0.5,0.8-1.2,1.6-1.9,2.5c-1.3,1.6-2.6,3.2-3,5.2c-1.4,0.4-2.7,0.9-4,1.5l-0.3,0.1v0.3
						c0.2,1.8,0.2,3.9,0.1,5.7v0.1c-2.6,1.9-5.2,5.2-6.2,7.9c-0.1,0.2,0,0.5,0.2,0.5C5738.1-5056.8,5738.1-5056.8,5738.2-5056.8z"/>
				</g>
			</g>
			<g>
				<g>
					<path class="st6" d="M5737.8-5118.8c0.6-0.2,1.3-0.4,2.2-0.5c3.5-0.6,5.9,1.5,9.1,1.7c2.3,0.2,4.5-0.9,6.9-0.9
						c1.8,0,3.7,0.5,5,1.8s1.8,3.7,0.9,5.4c4.6,1.9,1.4,9.9,0,13.5c-1.4,3.5-3.8,8.6-3.8,8.6l-4.7-4.6c0,0,3.6-4.2,2-6
						c-1.6-1.9-3.2,1-3.2,1s-0.1,1.2-0.2,2.7c-0.8-0.6-1.6-1.1-2.5-1.5h-0.1l-0.2-6.1c0,0-4.9,1.6-5.8-2.5
						C5736.6-5107.4,5730-5116,5737.8-5118.8z"/>
				</g>
			</g>
		</g>
		<g>
			<path class="st10" d="M5759.9-4989c5.9,0,11.5-0.3,16.6-1c0.2,0,0.4-0.2,0.4-0.5c0-0.2-0.2-0.4-0.5-0.4
				c-11.5,1.5-25.3,1.3-41-0.6c-0.2,0-0.4,0.1-0.5,0.4c0,0.2,0.1,0.4,0.4,0.5C5744.1-4989.6,5752.3-4989,5759.9-4989z"/>
		</g>
	</g>
	<g>
		<g>
			<g>
				<path class="st3" d="M5700.4-5053.5c-0.5-1.2-0.2-5.1,0.3-4.7s0.9,2.5,0.9,2.5l0.2,1c0,0,0.8-0.3,0.8,0s0.3,1.6,0.3,1.6l0.1,2.5
					L5700.4-5053.5z"/>
			</g>
		</g>
		<g>
			<g>
				<polygon class="st11" points="5706.5,-5048.6 5703.5,-5059.4 5701.1,-5068 5698,-5066.9 5703.8,-5048.3 				"/>
			</g>
		</g>
		<g>
			<g>
				<path class="st3" d="M5737.3-5042.2l-2.5,9.8c0,0-25.1-9.8-26.4-10.3c0,0-3.8-3-4.6-3.6s-3.2-6.6-3.4-7.2s4.5-0.9,4.5-0.9
					s0.1-2.9,0.4-3.8c0.1-0.5,1.2-2.8,1.7-1.2l1,4.4l1.5,1.5c0.8,1.1,1.6,5.5,1.6,5.5L5737.3-5042.2z"/>
			</g>
		</g>
		<g>
			<g>
				<path class="st9" d="M5739.2-5042.5c0,0-2.6-7.4-7.6-4.4c-4.9,3-5.5-0.7-5.5-0.7l-13.3-3.7l-4.3,8.6l28.7,12.3L5739.2-5042.5z"
					/>
			</g>
		</g>
	</g>
	<g>
		<path class="st10" d="M5744.9-5043.6l0.1-0.4c2.9-10.4,9-20,14.5-28c2.5-3.5,4.9-5.1,7.2-4.7c0.2,0.1,0.4-0.1,0.5-0.3
			c0-0.2-0.1-0.4-0.3-0.5c-2.6-0.5-5.4,1.2-8,5c-5.5,8-11.6,17.5-14.5,27.9l-4.9-1.4c-0.2-0.1-0.5,0.1-0.5,0.3
			c-0.1,0.2,0.1,0.5,0.3,0.5L5744.9-5043.6z"/>
	</g>
	<g>
		<path class="st10" d="M5749.2-5027.6c0.5,0,1,0,1.5-0.1c2.5-0.4,4.3-2,5.5-3.3c1.5-1.6,2.5-3.4,3.6-5.2c0.1-0.2,0.1-0.5-0.1-0.6
			s-0.5-0.1-0.6,0.1c-1,1.7-2.1,3.5-3.5,5.1c-1.1,1.1-2.8,2.6-5,3c-2.7,0.5-5.6-0.7-7.9-1.7c-0.2-0.1-0.5,0-0.5,0.2
			c-0.1,0.2,0,0.5,0.2,0.5C5744.3-5028.6,5746.7-5027.6,5749.2-5027.6z"/>
	</g>
</g>
<path class="st12" d="M5082.2-5252.9c0,2.4,0,4.8,0,8.5c-1.8-1.5-4.4-2.9-4.2-3.6c0.6-2,2.2-3.7,3.4-5.6
	C5081.6-5253.4,5081.9-5253.2,5082.2-5252.9z"/>
<g>
	<polygon class="st13" points="1.1,113.1 116.4,54.1 122,148.6 29.1,160.6 	"/>
	<g id="aIbnuD.tif">
		<g>
			<path class="st14" d="M0.1,109.8c15.6-0.1,31.1-1.6,46.6-2.8c6.8-0.5,13.6-0.5,20.3-1.3c4.5-0.5,7,1.2,9.1,5
				c5.2,9.8,10.7,19.5,16.1,29.2c3.5,6.4,7.2,12.7,10.5,19.2c1.2,2.3,2.4,2.5,4.7,1.6c6.1-2.5,12.4-4.7,18.6-7
				c1.6,1.5,0.4,2.3-0.8,3c-3.4,2-7,3.9-10.2,6.1c-7.6,5.3-16.7,3.2-25,5c-16.9-0.4-33.9,0.3-50.8,1c-3.8,0.2-5.7-1.4-7.4-4.4
				C21.9,147.5,12,130.6,2,113.8c-0.5-0.9-1-1.7-2-2.1C0.1,111.1,0.1,110.4,0.1,109.8z M51.1,137.8c0-3-1.4-5.3-4.4-5.5
				c-2.1-0.2-2.7,1.9-2.7,3.9c0,2.7,0.7,5,3.8,5.4C50.5,141.9,51.1,140.1,51.1,137.8z"/>
			<path class="st15" d="M235.3,55.3c-2.7-10.1-5.8-20.1-8.5-30.1C223.7,13.7,216.1,5.8,205,1.6c-0.9-0.3-1.9-0.3-2.8-0.7
				c-0.2,0-0.4-0.1-0.6-0.2c-3.6-0.6-7.1-0.8-10.8-0.7c-1.4,0.2-2.8,0.5-4.1,0.9c-0.8,0.4-1.7,0.5-2.5,0.9
				c-12.8,6.4-18.2,17.8-14,29.9c4.2-2.2,8.8-3.1,13.3-4.1c3.1-0.7,5.2-1.7,4.5-5.5c-0.4-2.1,0.2-4.3,1.6-6.7
				c3.3,9.2,9.9,14.4,19,16.3c2.4,0.5,2,1.7,2,3.6c-0.5,11.1-0.7,22.2-1,33.2c0,1.1,0.9,1.2,1.7,1.5c5.3-3.5,10.9-4.9,17.5-4.4
				C234.2,65.9,236.8,60.8,235.3,55.3z M216.9,46.5c-1.6,0.1-3.3-0.4-3.5-2.6c-0.2-3.1,2.6-7.2,5.1-7s3.7,1.9,3.7,3.7
				C222.3,44.9,220.1,46.4,216.9,46.5z"/>
			<path class="st16" d="M107,472c3.9-26.5,8.2-53,11.5-79.5c8-63.4,26.6-124.5,40.1-186.7c0.3-1.3,0.5-2.6,0.8-3.9
				c2.1-0.4,4.3-0.8,6.4-1.2c0,0.5,0.2,1,0.1,1.5c-0.3,3,0.1,4.8,4,4.7c4.2-0.1,3.2-2.6,3.3-4.9c0-1,0.1-2,0.1-2.9
				c7.2-1.2,14.5-2.4,21.7-3.6c0,1.5,0,2.9,0.2,4.4c0.2,1.7-1,4.2,2.5,3.9c2.6-0.2,3.9-1,3.7-3.9c-0.2-1.9,0-3.9,0.1-5.9
				c10.9-2,21.8-4.1,32.8-6.1c5.5,7.9,6.9,17.1,7.9,26.3c1.1,10.1-1.6,19.2-7.5,27.7c-8.5,12.2-17,24.5-23.2,38.2
				c-3.1-0.9-3.1,2.3-4,3.6c-10.7,17.4-21.4,34.8-31.7,52.4c-5.8,9.9-11,20.1-11.6,32c-4.2,12.5-6.9,25.5-10.4,38.2
				c-6,21.9-11.8,43.8-17.7,65.8C126.3,472.7,116.6,472.7,107,472z"/>
			<path class="st17" d="M164,368c0.6-11.8,5.8-22.1,11.6-32c10.3-17.6,21-35,31.7-52.4c0.8-1.3,0.9-4.4,4-3.6
				c-4.9,13.4-9.9,26.7-12.7,40.8c-3.2,15.6-1,29.8,8,43.2c14.4,21.4,31.9,39.9,50,58.1c2.9,2.9,5.9,5.8,8.9,8.7
				c-4.4,8.9-9.3,17.5-14.4,26C217.2,431.9,186.3,404.2,164,368z"/>
			<path class="st18" d="M90.1,167.8c8.3-1.8,17.3,0.3,25-5c3.3-2.3,6.8-4.1,10.2-6.1c1.2-0.7,2.4-1.5,0.8-3
				c-0.5-3.6-3.5-6.9-1-10.8c0.7,0,1.4,0,2.1,0c1.4,2.7,1.6,6,4.2,8.1c-0.2,2.1,1.4,2.9,2.8,4c0.9,1.4,2,2.6,3.8,2.8
				c6,0.8,12,2.1,18.2,2c3.3,0,6.6,0,9.9,0c2,1.3,4.1,1.2,6.1,0c7.9,0,15.8,0.2,23.1-3.3c3.2,0,3.5-2.5,4.1-4.7c0.5,0,1.1,0,1.6,0
				c0.5,0.8,1.2,1,2.1,1l0,0c0.4,0.8,1.2,1,2,1l0,0c5.4,3.3,10.7,6.7,17,8l0,0c0.4,0.9,1.2,1,2,1l0,0c0.1,2,1.6,2,3,2l0,0
				c0.3,0.3,0.7,0.7,1,1l0,0c0.4,0.8,1.2,1,2,1.1c0,0.3,0,0.6,0,1c-1.1,2-2.2,4-3.2,6.1c-2.2,1.8-4.3,3.6-6.5,5.4
				c-5.7,4.4-12.6,5.8-19.3,7.6c-2,0.3-4,0.7-6,1c-7.4,0-14.8,0-22.2,0.1c-2.3-0.1-4.6-0.1-6.9-0.2c-2.4-1.8-5.2-0.4-7.7-0.9
				c-5.8-1.1-11.7-2.1-17.5-3.2c-9.6-1.9-18.9-4.7-28-8.3c-5.4-2.1-11.1-3.2-16.8-4.5C93.9,170.2,91.3,170.4,90.1,167.8z"/>
			<path class="st19" d="M230.1,167.8c0-0.3,0-0.6,0-1c-0.4-0.9-1.2-1-2-1.1l0,0c-0.3-0.3-0.7-0.7-1-1l0,0c-0.5-1.4-1.6-2-3-2l0,0
				c-0.4-0.8-1.2-1-2-1l0,0c-5-4.1-10.4-7.2-17-8l0,0c-0.4-0.9-1.2-1-2-1l0,0c-0.4-0.9-1.2-1-2.1-1c-0.5,0-1.1,0-1.6,0
				c-0.1-1-0.1-2-0.2-2.9c3.5-3.4,4.5-7.8,6-12.4c-2.6,0.1-1.5,3.3-3.8,3.2c0.3-10.4,0.4-20.9,0.8-31.3c0.6-12.2,2.9-23.7,13.7-31.5
				c0-0.2,0-0.5,0-0.7c14.4-2.6,24.2,9.9,27,20.7c4.2,16,2.4,32-1.3,47.8c-1.7,7.1-4,14-6.9,20.8
				C233.9,167.6,232.8,169.2,230.1,167.8z M229.1,161.8c-0.3-0.3-0.7-0.7-1-1c-1.4-2.3-3.5-2.9-6-3c-0.2-0.1-0.3-0.3-0.5-0.4
				c0.1,0.2,0.3,0.3,0.4,0.5c1.4,2.2,3.5,3,6,3C228.4,161.1,228.8,161.4,229.1,161.8c0.3,0.3,0.7,0.5,1.1,0.8
				c0.1-0.1,0.2-0.3,0.3-0.4C230,162,229.5,161.9,229.1,161.8z M205.1,133.9c0.6,0.1,1.1,0.2,1.7,0.3c1.3-10.1,8.5-19.4,3-31.1
				c-1.8,5.8,0.9,10.8-0.6,15.8C207.6,123.8,206.4,128.9,205.1,133.9z M210.8,152.5c2.1,1.1,3.7,3.5,6.6,2.5
				C215.4,153.7,213.7,151.9,210.8,152.5z M208.4,151.3c-0.1-0.1-0.1-0.3-0.2-0.3c-0.1,0-0.3,0-0.4,0c0.1,0.2,0.2,0.3,0.3,0.5
				C208.2,151.5,208.3,151.4,208.4,151.3z M205.2,150.5c0.1-0.1,0.2-0.2,0.3-0.2c-0.1-0.1-0.2-0.2-0.3-0.3c-0.1,0.1-0.3,0.3-0.4,0.4
				C204.9,150.4,205.1,150.5,205.2,150.5z"/>
			<path class="st20" d="M170.2,31.7c4.2-2.2,8.8-3.1,13.3-4.1c3.1-0.7,5.2-1.7,4.5-5.5c-0.4-2.1,0.2-4.3,1.6-6.7
				c3.3,9.2,9.9,14.4,19,16.3c2.4,0.5,2,1.7,2,3.6c-0.5,11.1-0.7,22.2-1,33.2c0,1.1,0.9,1.2,1.7,1.5c0.2,0.6,0.4,1.3,0.7,1.9
				c-4.9-0.2-9.4,1.7-14,2.8c-6.1,1.5-6.1,1.5-3.8,7.1c-2.4,4.8-4.8,9.5-7.2,14.3c-0.3-0.1-0.6-0.2-0.8-0.4c0-4.6,0-9.3,0-13.9
				c1.5-3.6,1.3-6.5-3.3-7.4c0.1-1.2,0.4-2.5-0.6-3.5c0-1,0.1-2,0.1-3c4.3-1.4,9.7-0.5,11.8-6.1c0.4-0.1,0.9-0.3,1.3-0.4
				c-0.1-0.1-0.2-0.3-0.2-0.4c-0.4,0.2-0.7,0.5-1.1,0.7c-4,1-8,2-12,3c-8.7-2.1-12-8-12-16.5C170.1,42.8,170.2,37.2,170.2,31.7z"/>
			<path class="st21" d="M250.9,456.9c5.1-8.5,10.1-17.1,14.4-26c1.1-1.3,1.9-2.7,3.7-0.5c3.8,4.6,7.8,9.1,11.7,13.6
				c0.8,0.9,1.6,1.6,0.9,3c-6,12.7-10.9,26-18.4,38c-0.2,0.4-0.8,0.6-1.5,1.1c-1.9-4.1-0.5-8.1,0.6-11.5c1.9-5.7,0.2-8.7-4.8-11.5
				C255.1,461.8,250.9,461.3,250.9,456.9z"/>
			<path class="st21" d="M107,472c9.7,0.8,19.3,0.7,29,0c2,1,1.1,2.4,0.6,3.8c-1.9,5.1-3.7,10.3-5.5,15.5c-0.5,1.5-1.2,2.6-3,2.8
				c-13.7,1.4-27.4,3.1-41.2,2.7c-0.9,0-1.6-0.3-2.3-1.5c4-2.9,8.9-4.1,13.6-5.3c3.2-0.8,4.3-2.2,4.2-5.4c-0.1-2.8,0.8-5.6,0.6-8.4
				C102.7,472.8,104.3,472,107,472z"/>
			<path class="st22" d="M201.1,186.8c6.7-1.8,13.6-3.2,19.3-7.6c2.2-1.7,4.3-3.6,6.5-5.4c1.7,5.1,6.1,8.7,7.3,14
				c-10.9,2-21.8,4.1-32.8,6.1C201.3,191.6,201.2,189.2,201.1,186.8z"/>
			<path class="st23" d="M194.1,81.8c-2.3-5.6-2.3-5.6,3.8-7.1c4.6-1.1,9.1-3,14-2.8c1.4,1.4,2.7,2.8,4.1,4.3c0,0.2,0,0.5,0,0.7
				c-3.2-0.6-5.5,1.4-7.9,2.9c-0.9-1.2-1.9-0.7-3.1-0.4C201.4,80.2,197.8,80.9,194.1,81.8z"/>
			<path class="st22" d="M158.4,186.7c2.5,0.5,5.3-0.8,7.7,0.9c-0.1,4.3-0.1,8.7-0.2,13c-2.1,0.4-4.3,0.8-6.4,1.2
				C159.1,196.8,158.7,191.8,158.4,186.7z"/>
			<path class="st24" d="M194.1,81.8c3.6-0.8,7.3-1.6,10.9-2.5c1.1-0.3,2.2-0.8,3.1,0.4c-2.8,2.2-4.5,5.2-5.9,8.5
				c-3.8,8.8-4.4,18.3-5,27.7c-0.8,13.5-1.3,27.1-1.9,40.7c-7.4,3.5-15.3,3.3-23.1,3.3c0.1-26.7-1.2-53.4,0.2-80.2
				c1.5,0,2.9,0.1,4.4,0.1c3.1,0.7,6.2,1.4,9.3,2c0,4.6,0,9.3,0,13.9c0.3,0.1,0.6,0.2,0.8,0.4C189.3,91.3,191.7,86.5,194.1,81.8z"/>
			<path class="st19" d="M166.1,159.8c-3.3,0-6.6,0-9.9,0c0-3.6-0.1-7.3-0.1-10.9c-0.1-0.7-0.1-1.5-0.2-2.2
				c-0.6,0.4-1.2,0.8-1.8,1.2l0,0c-0.7-1.2-1.9-1-3-1.1l0,0c-0.5-0.8-1.2-1-2.1-0.9h0.1c-0.4-0.9-1.1-1.1-2-1.1l0,0
				c-1.3-1.6-3-2.1-5-2l0,0c-0.4-0.8-1.2-1-2-1l0,0c-0.4-0.8-1.2-1-2-1l0,0c-0.4-0.8-1.2-1-2-1l0,0c-0.4-0.8-1.2-1-2-1
				s-1.6,0-2.4,0.1c-2.4-1.6-3.5-3.3-2-6.4c4.2-8.4,7.1-17.5,10.4-26.3c4-10.6,10.6-19,21.1-24c2.1-1,4.3-1.7,6.7-1.6
				c-1.3,9.4-2,18.8-1.9,28.3C166.1,125.8,166,142.8,166.1,159.8z M151.1,128.7c-0.1,0.2-0.3,0.3-0.4,0.5
				C150.8,129.1,151,128.9,151.1,128.7c0.2-0.1,0.3-0.2,0.5-0.4C151.4,128.5,151.2,128.6,151.1,128.7z M134.1,133.8
				c0.1,0.1,0.3,0.3,0.4,0.4C134.4,134,134.3,133.9,134.1,133.8c-0.3-0.3-0.7-0.5-1.1-0.8c-0.1,0.1-0.2,0.3-0.3,0.4
				C133.2,133.5,133.6,133.7,134.1,133.8z M141.1,137.7c-0.2-0.1-0.3-0.3-0.5-0.4C140.8,137.5,140.9,137.6,141.1,137.7
				c2,2.6,4.7,3.9,7.9,4.1c1.2,2,3,2.8,5.3,2.8c-0.2-2.4-1.1-3.7-3.3-3.9c-1.3-2.9-0.7-6.2-1.6-10c-2.4,3.6-0.9,6.3-0.4,9
				C146.2,140.2,144.1,137.4,141.1,137.7z M153.7,127c4-0.7,6.9-10.2,6.1-18.5c-4.9,2.2-2.3,6.8-2.7,10.7
				C156.8,122.1,156.4,125.1,153.7,127z"/>
			<path class="st21" d="M166.1,159.8c0-17,0.1-34-0.1-50.9c-0.1-9.5,0.7-18.9,1.9-28.3c1.3-1.4,2.8-1.2,4.5-1
				c-1.4,26.7-0.1,53.4-0.2,80.2C170.1,161,168.1,161,166.1,159.8z"/>
			<path class="st25" d="M125.1,142.9c-2.4,3.9,0.5,7.2,1,10.8c-6.2,2.3-12.5,4.5-18.6,7c-2.3,0.9-3.5,0.7-4.7-1.6
				c-3.4-6.5-7-12.8-10.5-19.2C103.1,141.8,114,143.2,125.1,142.9z"/>
			<path class="st21" d="M170.1,48.3c-0.1,8.4,3.3,14.4,12,16.5c0.1,1,0.1,2,0.2,3c0,1-0.1,2-0.1,3c-6.7-0.7-13-2.8-19.2-5.2
				c-1.5-0.6-3.2-1.1-1.6-3.4C164.4,57.7,167.2,52.9,170.1,48.3z"/>
			<path class="st26" d="M131.7,138.9c0.8,0,1.6,0,2.4-0.1c0.5,0.8,1.2,1,2,1l0,0c0.4,0.8,1.2,1,2,1l0,0c0.4,0.9,1.2,1,2,1l0,0
				c0.4,0.9,1.2,1,2,1l0,0c1.3,1.6,3.1,2.1,5,2l0,0c0,0.3,0,0.6,0,0.9c-5.2,1.8-10.5,3.6-15.7,5.3c-2.6-2.1-2.8-5.4-4.2-8.1
				C129.6,142.6,130.7,140.8,131.7,138.9z"/>
			<path class="st23" d="M186.1,81.7c-3.1-0.7-6.2-1.4-9.3-2c1.7-2.1,3.4-4.3,6-5.4C187.4,75.3,187.6,78.1,186.1,81.7z"/>
			<path class="st27" d="M51.1,137.8c0,2.3-0.6,4.1-3.3,3.8c-3.1-0.4-3.7-2.7-3.8-5.4c0-2,0.5-4.1,2.7-3.9
				C49.7,132.5,51.1,134.8,51.1,137.8z"/>
			<path class="st20" d="M222.2,40.7c0,4.3-2.2,5.7-5.3,5.9c-1.6,0.1-3.3-0.4-3.5-2.6c-0.2-3.1,2.6-7.2,5.1-7
				C221,37.2,222.2,38.9,222.2,40.7z"/>
			<path class="st22" d="M172.9,187.8c7.4,0,14.8,0,22.2-0.1c0,2.5-0.1,5.1-0.1,7.6c-7.2,1.2-14.5,2.4-21.7,3.6
				C173.2,195.3,173.1,191.6,172.9,187.8z"/>
			<path class="st15" d="M172.9,187.8c0.1,3.7,0.3,7.5,0.4,11.2c0,1-0.1,2-0.1,2.9c0,2.3,0.9,4.8-3.3,4.9c-3.9,0.1-4.3-1.7-4-4.7
				c0-0.5-0.1-1-0.1-1.5c0.1-4.3,0.1-8.7,0.2-13C168.4,187.7,170.7,187.8,172.9,187.8z"/>
			<path class="st15" d="M195,195.4c0-2.5,0.1-5.1,0.1-7.6c2-0.3,4-0.7,6-1c0.1,2.4,0.2,4.8,0.3,7.2c0,2-0.3,3.9-0.1,5.9
				c0.3,2.8-1.1,3.7-3.7,3.9c-3.6,0.3-2.3-2.3-2.5-3.9C195,198.3,195,196.8,195,195.4z"/>
			<path class="st21" d="M195.3,156.5c0.6-13.6,1.1-27.1,1.9-40.7c0.6-9.4,1.2-18.9,5-27.7c1.4-3.2,3.1-6.2,5.9-8.5
				c2.5-1.5,4.7-3.4,7.9-2.9c-10.8,7.8-13.1,19.3-13.7,31.5c-0.5,10.4-0.6,20.9-0.8,31.3c-0.7,3.1-1.5,6.1-2.2,9.2
				c0.1,1,0.1,2,0.2,2.9C198.8,154,198.5,156.5,195.3,156.5z"/>
			<path class="st26" d="M156,148.8c0,3.6,0.1,7.3,0.1,10.9c-6.1,0.1-12.1-1.2-18.2-2c-1.9-0.2-2.9-1.4-3.8-2.8
				c3.8-1.5,7.6-3,11.4-4.5c1.7-0.7,3.5-1.3,3.4-3.6c0.7,0,1.5,0,2.2,0l0,0c0.7,1.2,1.9,1,3,1.1l0,0
				C154.5,148.6,155.2,148.8,156,148.8z"/>
			<path class="st14" d="M148.9,146.8c0.1,2.3-1.7,3-3.4,3.6c-3.8,1.5-7.6,3-11.4,4.5c-1.3-1-3-1.9-2.8-4c5.2-1.8,10.5-3.6,15.7-5.3
				c0.7,0.1,1.3,0.1,2,0.2h-0.1C148.8,146.1,148.8,146.4,148.9,146.8z"/>
			<path class="st28" d="M205.1,153.8c6.6,0.8,12,3.9,17,8C215.8,160.4,210.5,157,205.1,153.8z"/>
			<path class="st28" d="M224.1,162.8c1.5,0,2.5,0.6,3,2C225.6,164.8,224.2,164.8,224.1,162.8z"/>
			<path class="st28" d="M228.1,165.8c0.9,0,1.6,0.2,2,1.1C229.3,166.7,228.5,166.6,228.1,165.8z"/>
			<path class="st28" d="M222.1,161.8c0.8,0,1.6,0.2,2,1C223.3,162.8,222.5,162.6,222.1,161.8z"/>
			<path class="st28" d="M203.1,152.8c0.8,0,1.6,0.2,2,1C204.3,153.8,203.5,153.6,203.1,152.8z"/>
			<path class="st28" d="M201.1,151.8c0.8,0,1.6,0.2,2.1,1C202.3,152.8,201.5,152.6,201.1,151.8z"/>
			<path class="st28" d="M227.1,164.8c0.3,0.3,0.7,0.7,1,1C227.8,165.4,227.4,165.1,227.1,164.8z"/>
			<path class="st28" d="M205.1,133.9c1.3-5,2.5-10.1,4-15.1s-1.3-10,0.6-15.8c5.5,11.8-1.6,21.1-3,31.1
				C206.2,134.1,205.6,134,205.1,133.9z"/>
			<path class="st28" d="M199.3,148.8c0.7-3.1,1.5-6.1,2.2-9.2c2.2,0.1,1.1-3.1,3.8-3.2C203.8,141,202.8,145.5,199.3,148.8z"/>
			<path class="st28" d="M210.8,152.5c2.8-0.5,4.6,1.2,6.6,2.5C214.5,156,212.9,153.6,210.8,152.5z"/>
			<path class="st28" d="M228.1,160.8c-2.5,0-4.6-0.8-6-3l0.1-0.1C224.6,157.8,226.8,158.5,228.1,160.8L228.1,160.8z"/>
			<path class="st28" d="M229.1,161.8c0.4,0.1,0.9,0.3,1.3,0.4c-0.1,0.1-0.2,0.3-0.3,0.4C229.8,162.3,229.4,162,229.1,161.8
				L229.1,161.8z"/>
			<path class="st28" d="M208.4,151.3c-0.1,0.1-0.2,0.1-0.3,0.2c-0.1-0.2-0.2-0.3-0.3-0.5c0.1,0,0.3-0.1,0.4,0
				C208.3,151,208.4,151.2,208.4,151.3z"/>
			<path class="st28" d="M205.2,150.5c-0.1,0-0.2-0.1-0.4-0.1c0.1-0.1,0.3-0.3,0.4-0.4c0.1,0.1,0.2,0.2,0.3,0.3
				C205.4,150.4,205.3,150.5,205.2,150.5z"/>
			<path class="st28" d="M228.1,160.8c0.3,0.3,0.7,0.7,1,1l0,0C228.8,161.4,228.4,161.1,228.1,160.8L228.1,160.8z"/>
			<path class="st28" d="M222.1,157.8c-0.1-0.2-0.3-0.3-0.4-0.5C221.8,157.5,222,157.6,222.1,157.8
				C222.1,157.7,222.1,157.8,222.1,157.8z"/>
			<path class="st26" d="M182.3,67.8c-0.1-1-0.1-2-0.2-3c4-1,8-2,12-3l0,0C192,67.3,186.5,66.4,182.3,67.8z"/>
			<path class="st26" d="M194.1,61.8c0.4-0.2,0.7-0.5,1.1-0.7c0.1,0.1,0.2,0.3,0.2,0.4C195,61.5,194.5,61.6,194.1,61.8L194.1,61.8z"
				/>
			<path class="st28" d="M153.7,127c2.7-2,3.1-4.9,3.4-7.8c0.4-3.9-2.2-8.5,2.7-10.7C160.6,116.8,157.7,126.3,153.7,127z"/>
			<path class="st28" d="M149.1,139.8c-0.5-2.7-2-5.5,0.4-9c0.9,3.8,0.3,7.1,1.6,10l0,0C150.4,140.4,149.8,140.1,149.1,139.8
				L149.1,139.8z"/>
			<path class="st28" d="M141.1,137.7c2.9-0.3,5,2.5,8,2.1l0,0c0,0.7,0,1.3,0,2l0,0C145.9,141.6,143.1,140.3,141.1,137.7
				L141.1,137.7z"/>
			<path class="st28" d="M151.1,140.7c2.2,0.2,3.1,1.5,3.3,3.9c-2.4,0-4.1-0.8-5.3-2.8l0,0C149.9,141.7,150.7,141.6,151.1,140.7
				L151.1,140.7z"/>
			<path class="st23" d="M147.1,144.8c-2,0-3.7-0.4-5-2C144.1,142.7,145.8,143.2,147.1,144.8z"/>
			<path class="st28" d="M156,148.8c-0.8-0.1-1.5-0.2-1.9-1c0.6-0.4,1.2-0.8,1.8-1.2C155.9,147.4,156,148.1,156,148.8z"/>
			<path class="st28" d="M154.1,147.8c-1.1-0.1-2.3,0.2-3-1.1C152.2,146.8,153.4,146.6,154.1,147.8z"/>
			<path class="st28" d="M134.1,133.8c-0.4-0.1-0.9-0.3-1.3-0.4c0.1-0.1,0.2-0.3,0.3-0.4C133.4,133.3,133.8,133.5,134.1,133.8
				L134.1,133.8z"/>
			<path class="st23" d="M136.1,139.8c-0.8,0-1.6-0.2-2-1C134.9,138.8,135.7,138.9,136.1,139.8z"/>
			<path class="st23" d="M138.1,140.8c-0.8,0-1.6-0.2-2-1C136.9,139.8,137.7,139.9,138.1,140.8z"/>
			<path class="st23" d="M142.1,142.8c-0.8,0-1.6-0.2-2-1C140.9,141.8,141.7,141.9,142.1,142.8z"/>
			<path class="st28" d="M149.1,145.8c-0.7-0.1-1.3-0.1-2-0.2c0-0.3,0-0.6,0-0.9C147.9,144.8,148.7,144.9,149.1,145.8z"/>
			<path class="st23" d="M140.1,141.8c-0.8,0-1.6-0.2-2-1C138.9,140.8,139.7,140.9,140.1,141.8z"/>
			<path class="st28" d="M148.9,146.8c-0.1-0.3-0.1-0.6,0.1-0.9c0.9-0.1,1.6,0.1,2.1,0.9C150.4,146.7,149.6,146.8,148.9,146.8z"/>
			<path class="st28" d="M141.1,137.8c-0.1-0.2-0.3-0.3-0.4-0.5C140.8,137.5,141,137.6,141.1,137.8
				C141.1,137.7,141.1,137.8,141.1,137.8z"/>
			<path class="st28" d="M151.1,128.8c-0.2,0.1-0.3,0.3-0.5,0.4C150.8,129.1,150.9,128.9,151.1,128.8L151.1,128.8z"/>
			<path class="st28" d="M134.1,133.8c0.1,0.1,0.3,0.3,0.4,0.4C134.4,134.1,134.2,133.9,134.1,133.8L134.1,133.8z"/>
			<path class="st28" d="M151.1,128.7c0.2-0.1,0.3-0.3,0.5-0.4C151.4,128.5,151.3,128.6,151.1,128.7
				C151.1,128.8,151.1,128.7,151.1,128.7z"/>
			<path class="st19" d="M151.1,140.8c-0.4,0.8-1.2,0.9-2,1c0-0.7,0-1.3,0-2C149.8,140.1,150.4,140.4,151.1,140.8z"/>
		</g>
	</g>
	<polygon class="st13" points="1.1,113.1 116.4,54.1 122,148.6 29.1,160.6 	"/>
	<g id="aIbnuD.tif_2_">
		<g>
			<path class="st14" d="M0.1,109.8c15.6-0.1,31.1-1.6,46.6-2.8c6.8-0.5,13.6-0.5,20.3-1.3c4.5-0.5,7,1.2,9.1,5
				c5.2,9.8,10.7,19.5,16.1,29.2c3.5,6.4,7.2,12.7,10.5,19.2c1.2,2.3,2.4,2.5,4.7,1.6c6.1-2.5,12.4-4.7,18.6-7
				c1.6,1.5,0.4,2.3-0.8,3c-3.4,2-7,3.9-10.2,6.1c-7.6,5.3-16.7,3.2-25,5c-16.9-0.4-33.9,0.3-50.8,1c-3.8,0.2-5.7-1.4-7.4-4.4
				C21.9,147.5,12,130.6,2,113.8c-0.5-0.9-1-1.7-2-2.1C0.1,111.1,0.1,110.4,0.1,109.8z M51.1,137.8c0-3-1.4-5.3-4.4-5.5
				c-2.1-0.2-2.7,1.9-2.7,3.9c0,2.7,0.7,5,3.8,5.4C50.5,141.9,51.1,140.1,51.1,137.8z"/>
			<path class="st15" d="M235.3,55.3c-2.7-10.1-5.8-20.1-8.5-30.1C223.7,13.7,216.1,5.8,205,1.6c-0.9-0.3-1.9-0.3-2.8-0.7
				c-0.2,0-0.4-0.1-0.6-0.2c-3.6-0.6-7.1-0.8-10.8-0.7c-1.4,0.2-2.8,0.5-4.1,0.9c-0.8,0.4-1.7,0.5-2.5,0.9
				c-12.8,6.4-18.2,17.8-14,29.9c4.2-2.2,8.8-3.1,13.3-4.1c3.1-0.7,5.2-1.7,4.5-5.5c-0.4-2.1,0.2-4.3,1.6-6.7
				c3.3,9.2,9.9,14.4,19,16.3c2.4,0.5,2,1.7,2,3.6c-0.5,11.1-0.7,22.2-1,33.2c0,1.1,0.9,1.2,1.7,1.5c5.3-3.5,10.9-4.9,17.5-4.4
				C234.2,65.9,236.8,60.8,235.3,55.3z M216.9,46.5c-1.6,0.1-3.3-0.4-3.5-2.6c-0.2-3.1,2.6-7.2,5.1-7s3.7,1.9,3.7,3.7
				C222.3,44.9,220.1,46.4,216.9,46.5z"/>
			<path class="st16" d="M107,472c3.9-26.5,8.2-53,11.5-79.5c8-63.4,26.6-124.5,40.1-186.7c0.3-1.3,0.5-2.6,0.8-3.9
				c2.1-0.4,4.3-0.8,6.4-1.2c0,0.5,0.2,1,0.1,1.5c-0.3,3,0.1,4.8,4,4.7c4.2-0.1,3.2-2.6,3.3-4.9c0-1,0.1-2,0.1-2.9
				c7.2-1.2,14.5-2.4,21.7-3.6c0,1.5,0,2.9,0.2,4.4c0.2,1.7-1,4.2,2.5,3.9c2.6-0.2,3.9-1,3.7-3.9c-0.2-1.9,0-3.9,0.1-5.9
				c10.9-2,21.8-4.1,32.8-6.1c5.5,7.9,6.9,17.1,7.9,26.3c1.1,10.1-1.6,19.2-7.5,27.7c-8.5,12.2-17,24.5-23.2,38.2
				c-3.1-0.9-3.1,2.3-4,3.6c-10.7,17.4-21.4,34.8-31.7,52.4c-5.8,9.9-11,20.1-11.6,32c-4.2,12.5-6.9,25.5-10.4,38.2
				c-6,21.9-11.8,43.8-17.7,65.8C126.3,472.7,116.6,472.7,107,472z"/>
			<path class="st17" d="M164,368c0.6-11.8,5.8-22.1,11.6-32c10.3-17.6,21-35,31.7-52.4c0.8-1.3,0.9-4.4,4-3.6
				c-4.9,13.4-9.9,26.7-12.7,40.8c-3.2,15.6-1,29.8,8,43.2c14.4,21.4,31.9,39.9,50,58.1c2.9,2.9,5.9,5.8,8.9,8.7
				c-4.4,8.9-9.3,17.5-14.4,26C217.2,431.9,186.3,404.2,164,368z"/>
			<path class="st18" d="M90.1,167.8c8.3-1.8,17.3,0.3,25-5c3.3-2.3,6.8-4.1,10.2-6.1c1.2-0.7,2.4-1.5,0.8-3
				c-0.5-3.6-3.5-6.9-1-10.8c0.7,0,1.4,0,2.1,0c1.4,2.7,1.6,6,4.2,8.1c-0.2,2.1,1.4,2.9,2.8,4c0.9,1.4,2,2.6,3.8,2.8
				c6,0.8,12,2.1,18.2,2c3.3,0,6.6,0,9.9,0c2,1.3,4.1,1.2,6.1,0c7.9,0,15.8,0.2,23.1-3.3c3.2,0,3.5-2.5,4.1-4.7c0.5,0,1.1,0,1.6,0
				c0.5,0.8,1.2,1,2.1,1l0,0c0.4,0.8,1.2,1,2,1l0,0c5.4,3.3,10.7,6.7,17,8l0,0c0.4,0.9,1.2,1,2,1l0,0c0.1,2,1.6,2,3,2l0,0
				c0.3,0.3,0.7,0.7,1,1l0,0c0.4,0.8,1.2,1,2,1.1c0,0.3,0,0.6,0,1c-1.1,2-2.2,4-3.2,6.1c-2.2,1.8-4.3,3.6-6.5,5.4
				c-5.7,4.4-12.6,5.8-19.3,7.6c-2,0.3-4,0.7-6,1c-7.4,0-14.8,0-22.2,0.1c-2.3-0.1-4.6-0.1-6.9-0.2c-2.4-1.8-5.2-0.4-7.7-0.9
				c-5.8-1.1-11.7-2.1-17.5-3.2c-9.6-1.9-18.9-4.7-28-8.3c-5.4-2.1-11.1-3.2-16.8-4.5C93.9,170.2,91.3,170.4,90.1,167.8z"/>
			<path class="st19" d="M230.1,167.8c0-0.3,0-0.6,0-1c-0.4-0.9-1.2-1-2-1.1l0,0c-0.3-0.3-0.7-0.7-1-1l0,0c-0.5-1.4-1.6-2-3-2l0,0
				c-0.4-0.8-1.2-1-2-1l0,0c-5-4.1-10.4-7.2-17-8l0,0c-0.4-0.9-1.2-1-2-1l0,0c-0.4-0.9-1.2-1-2.1-1c-0.5,0-1.1,0-1.6,0
				c-0.1-1-0.1-2-0.2-2.9c3.5-3.4,4.5-7.8,6-12.4c-2.6,0.1-1.5,3.3-3.8,3.2c0.3-10.4,0.4-20.9,0.8-31.3c0.6-12.2,2.9-23.7,13.7-31.5
				c0-0.2,0-0.5,0-0.7c14.4-2.6,24.2,9.9,27,20.7c4.2,16,2.4,32-1.3,47.8c-1.7,7.1-4,14-6.9,20.8
				C233.9,167.6,232.8,169.2,230.1,167.8z M229.1,161.8c-0.3-0.3-0.7-0.7-1-1c-1.4-2.3-3.5-2.9-6-3c-0.2-0.1-0.3-0.3-0.5-0.4
				c0.1,0.2,0.3,0.3,0.4,0.5c1.4,2.2,3.5,3,6,3C228.4,161.1,228.8,161.4,229.1,161.8c0.3,0.3,0.7,0.5,1.1,0.8
				c0.1-0.1,0.2-0.3,0.3-0.4C230,162,229.5,161.9,229.1,161.8z M205.1,133.9c0.6,0.1,1.1,0.2,1.7,0.3c1.3-10.1,8.5-19.4,3-31.1
				c-1.8,5.8,0.9,10.8-0.6,15.8C207.6,123.8,206.4,128.9,205.1,133.9z M210.8,152.5c2.1,1.1,3.7,3.5,6.6,2.5
				C215.4,153.7,213.7,151.9,210.8,152.5z M208.4,151.3c-0.1-0.1-0.1-0.3-0.2-0.3c-0.1,0-0.3,0-0.4,0c0.1,0.2,0.2,0.3,0.3,0.5
				C208.2,151.5,208.3,151.4,208.4,151.3z M205.2,150.5c0.1-0.1,0.2-0.2,0.3-0.2c-0.1-0.1-0.2-0.2-0.3-0.3c-0.1,0.1-0.3,0.3-0.4,0.4
				C204.9,150.4,205.1,150.5,205.2,150.5z"/>
			<path class="st20" d="M170.2,31.7c4.2-2.2,8.8-3.1,13.3-4.1c3.1-0.7,5.2-1.7,4.5-5.5c-0.4-2.1,0.2-4.3,1.6-6.7
				c3.3,9.2,9.9,14.4,19,16.3c2.4,0.5,2,1.7,2,3.6c-0.5,11.1-0.7,22.2-1,33.2c0,1.1,0.9,1.2,1.7,1.5c0.2,0.6,0.4,1.3,0.7,1.9
				c-4.9-0.2-9.4,1.7-14,2.8c-6.1,1.5-6.1,1.5-3.8,7.1c-2.4,4.8-4.8,9.5-7.2,14.3c-0.3-0.1-0.6-0.2-0.8-0.4c0-4.6,0-9.3,0-13.9
				c1.5-3.6,1.3-6.5-3.3-7.4c0.1-1.2,0.4-2.5-0.6-3.5c0-1,0.1-2,0.1-3c4.3-1.4,9.7-0.5,11.8-6.1c0.4-0.1,0.9-0.3,1.3-0.4
				c-0.1-0.1-0.2-0.3-0.2-0.4c-0.4,0.2-0.7,0.5-1.1,0.7c-4,1-8,2-12,3c-8.7-2.1-12-8-12-16.5C170.1,42.8,170.2,37.2,170.2,31.7z"/>
			<path class="st21" d="M250.9,456.9c5.1-8.5,10.1-17.1,14.4-26c1.1-1.3,1.9-2.7,3.7-0.5c3.8,4.6,7.8,9.1,11.7,13.6
				c0.8,0.9,1.6,1.6,0.9,3c-6,12.7-10.9,26-18.4,38c-0.2,0.4-0.8,0.6-1.5,1.1c-1.9-4.1-0.5-8.1,0.6-11.5c1.9-5.7,0.2-8.7-4.8-11.5
				C255.1,461.8,250.9,461.3,250.9,456.9z"/>
			<path class="st21" d="M107,472c9.7,0.8,19.3,0.7,29,0c2,1,1.1,2.4,0.6,3.8c-1.9,5.1-3.7,10.3-5.5,15.5c-0.5,1.5-1.2,2.6-3,2.8
				c-13.7,1.4-27.4,3.1-41.2,2.7c-0.9,0-1.6-0.3-2.3-1.5c4-2.9,8.9-4.1,13.6-5.3c3.2-0.8,4.3-2.2,4.2-5.4c-0.1-2.8,0.8-5.6,0.6-8.4
				C102.7,472.8,104.3,472,107,472z"/>
			<path class="st22" d="M201.1,186.8c6.7-1.8,13.6-3.2,19.3-7.6c2.2-1.7,4.3-3.6,6.5-5.4c1.7,5.1,6.1,8.7,7.3,14
				c-10.9,2-21.8,4.1-32.8,6.1C201.3,191.6,201.2,189.2,201.1,186.8z"/>
			<path class="st23" d="M194.1,81.8c-2.3-5.6-2.3-5.6,3.8-7.1c4.6-1.1,9.1-3,14-2.8c1.4,1.4,2.7,2.8,4.1,4.3c0,0.2,0,0.5,0,0.7
				c-3.2-0.6-5.5,1.4-7.9,2.9c-0.9-1.2-1.9-0.7-3.1-0.4C201.4,80.2,197.8,80.9,194.1,81.8z"/>
			<path class="st22" d="M158.4,186.7c2.5,0.5,5.3-0.8,7.7,0.9c-0.1,4.3-0.1,8.7-0.2,13c-2.1,0.4-4.3,0.8-6.4,1.2
				C159.1,196.8,158.7,191.8,158.4,186.7z"/>
			<path class="st24" d="M194.1,81.8c3.6-0.8,7.3-1.6,10.9-2.5c1.1-0.3,2.2-0.8,3.1,0.4c-2.8,2.2-4.5,5.2-5.9,8.5
				c-3.8,8.8-4.4,18.3-5,27.7c-0.8,13.5-1.3,27.1-1.9,40.7c-7.4,3.5-15.3,3.3-23.1,3.3c0.1-26.7-1.2-53.4,0.2-80.2
				c1.5,0,2.9,0.1,4.4,0.1c3.1,0.7,6.2,1.4,9.3,2c0,4.6,0,9.3,0,13.9c0.3,0.1,0.6,0.2,0.8,0.4C189.3,91.3,191.7,86.5,194.1,81.8z"/>
			<path class="st19" d="M166.1,159.8c-3.3,0-6.6,0-9.9,0c0-3.6-0.1-7.3-0.1-10.9c-0.1-0.7-0.1-1.5-0.2-2.2
				c-0.6,0.4-1.2,0.8-1.8,1.2l0,0c-0.7-1.2-1.9-1-3-1.1l0,0c-0.5-0.8-1.2-1-2.1-0.9h0.1c-0.4-0.9-1.1-1.1-2-1.1l0,0
				c-1.3-1.6-3-2.1-5-2l0,0c-0.4-0.8-1.2-1-2-1l0,0c-0.4-0.8-1.2-1-2-1l0,0c-0.4-0.8-1.2-1-2-1l0,0c-0.4-0.8-1.2-1-2-1
				s-1.6,0-2.4,0.1c-2.4-1.6-3.5-3.3-2-6.4c4.2-8.4,7.1-17.5,10.4-26.3c4-10.6,10.6-19,21.1-24c2.1-1,4.3-1.7,6.7-1.6
				c-1.3,9.4-2,18.8-1.9,28.3C166.1,125.8,166,142.8,166.1,159.8z M151.1,128.7c-0.1,0.2-0.3,0.3-0.4,0.5
				C150.8,129.1,151,128.9,151.1,128.7c0.2-0.1,0.3-0.2,0.5-0.4C151.4,128.5,151.2,128.6,151.1,128.7z M134.1,133.8
				c0.1,0.1,0.3,0.3,0.4,0.4C134.4,134,134.3,133.9,134.1,133.8c-0.3-0.3-0.7-0.5-1.1-0.8c-0.1,0.1-0.2,0.3-0.3,0.4
				C133.2,133.5,133.6,133.7,134.1,133.8z M141.1,137.7c-0.2-0.1-0.3-0.3-0.5-0.4C140.8,137.5,140.9,137.6,141.1,137.7
				c2,2.6,4.7,3.9,7.9,4.1c1.2,2,3,2.8,5.3,2.8c-0.2-2.4-1.1-3.7-3.3-3.9c-1.3-2.9-0.7-6.2-1.6-10c-2.4,3.6-0.9,6.3-0.4,9
				C146.2,140.2,144.1,137.4,141.1,137.7z M153.7,127c4-0.7,6.9-10.2,6.1-18.5c-4.9,2.2-2.3,6.8-2.7,10.7
				C156.8,122.1,156.4,125.1,153.7,127z"/>
			<path class="st21" d="M166.1,159.8c0-17,0.1-34-0.1-50.9c-0.1-9.5,0.7-18.9,1.9-28.3c1.3-1.4,2.8-1.2,4.5-1
				c-1.4,26.7-0.1,53.4-0.2,80.2C170.1,161,168.1,161,166.1,159.8z"/>
			<path class="st25" d="M125.1,142.9c-2.4,3.9,0.5,7.2,1,10.8c-6.2,2.3-12.5,4.5-18.6,7c-2.3,0.9-3.5,0.7-4.7-1.6
				c-3.4-6.5-7-12.8-10.5-19.2C103.1,141.8,114,143.2,125.1,142.9z"/>
			<path class="st21" d="M170.1,48.3c-0.1,8.4,3.3,14.4,12,16.5c0.1,1,0.1,2,0.2,3c0,1-0.1,2-0.1,3c-6.7-0.7-13-2.8-19.2-5.2
				c-1.5-0.6-3.2-1.1-1.6-3.4C164.4,57.7,167.2,52.9,170.1,48.3z"/>
			<path class="st26" d="M131.7,138.9c0.8,0,1.6,0,2.4-0.1c0.5,0.8,1.2,1,2,1l0,0c0.4,0.8,1.2,1,2,1l0,0c0.4,0.9,1.2,1,2,1l0,0
				c0.4,0.9,1.2,1,2,1l0,0c1.3,1.6,3.1,2.1,5,2l0,0c0,0.3,0,0.6,0,0.9c-5.2,1.8-10.5,3.6-15.7,5.3c-2.6-2.1-2.8-5.4-4.2-8.1
				C129.6,142.6,130.7,140.8,131.7,138.9z"/>
			<path class="st23" d="M186.1,81.7c-3.1-0.7-6.2-1.4-9.3-2c1.7-2.1,3.4-4.3,6-5.4C187.4,75.3,187.6,78.1,186.1,81.7z"/>
			<path class="st27" d="M51.1,137.8c0,2.3-0.6,4.1-3.3,3.8c-3.1-0.4-3.7-2.7-3.8-5.4c0-2,0.5-4.1,2.7-3.9
				C49.7,132.5,51.1,134.8,51.1,137.8z"/>
			<path class="st20" d="M222.2,40.7c0,4.3-2.2,5.7-5.3,5.9c-1.6,0.1-3.3-0.4-3.5-2.6c-0.2-3.1,2.6-7.2,5.1-7
				C221,37.2,222.2,38.9,222.2,40.7z"/>
			<path class="st22" d="M172.9,187.8c7.4,0,14.8,0,22.2-0.1c0,2.5-0.1,5.1-0.1,7.6c-7.2,1.2-14.5,2.4-21.7,3.6
				C173.2,195.3,173.1,191.6,172.9,187.8z"/>
			<path class="st15" d="M172.9,187.8c0.1,3.7,0.3,7.5,0.4,11.2c0,1-0.1,2-0.1,2.9c0,2.3,0.9,4.8-3.3,4.9c-3.9,0.1-4.3-1.7-4-4.7
				c0-0.5-0.1-1-0.1-1.5c0.1-4.3,0.1-8.7,0.2-13C168.4,187.7,170.7,187.8,172.9,187.8z"/>
			<path class="st15" d="M195,195.4c0-2.5,0.1-5.1,0.1-7.6c2-0.3,4-0.7,6-1c0.1,2.4,0.2,4.8,0.3,7.2c0,2-0.3,3.9-0.1,5.9
				c0.3,2.8-1.1,3.7-3.7,3.9c-3.6,0.3-2.3-2.3-2.5-3.9C195,198.3,195,196.8,195,195.4z"/>
			<path class="st21" d="M195.3,156.5c0.6-13.6,1.1-27.1,1.9-40.7c0.6-9.4,1.2-18.9,5-27.7c1.4-3.2,3.1-6.2,5.9-8.5
				c2.5-1.5,4.7-3.4,7.9-2.9c-10.8,7.8-13.1,19.3-13.7,31.5c-0.5,10.4-0.6,20.9-0.8,31.3c-0.7,3.1-1.5,6.1-2.2,9.2
				c0.1,1,0.1,2,0.2,2.9C198.8,154,198.5,156.5,195.3,156.5z"/>
			<path class="st26" d="M156,148.8c0,3.6,0.1,7.3,0.1,10.9c-6.1,0.1-12.1-1.2-18.2-2c-1.9-0.2-2.9-1.4-3.8-2.8
				c3.8-1.5,7.6-3,11.4-4.5c1.7-0.7,3.5-1.3,3.4-3.6c0.7,0,1.5,0,2.2,0l0,0c0.7,1.2,1.9,1,3,1.1l0,0
				C154.5,148.6,155.2,148.8,156,148.8z"/>
			<path class="st14" d="M148.9,146.8c0.1,2.3-1.7,3-3.4,3.6c-3.8,1.5-7.6,3-11.4,4.5c-1.3-1-3-1.9-2.8-4c5.2-1.8,10.5-3.6,15.7-5.3
				c0.7,0.1,1.3,0.1,2,0.2h-0.1C148.8,146.1,148.8,146.4,148.9,146.8z"/>
			<path class="st28" d="M205.1,153.8c6.6,0.8,12,3.9,17,8C215.8,160.4,210.5,157,205.1,153.8z"/>
			<path class="st28" d="M224.1,162.8c1.5,0,2.5,0.6,3,2C225.6,164.8,224.2,164.8,224.1,162.8z"/>
			<path class="st28" d="M228.1,165.8c0.9,0,1.6,0.2,2,1.1C229.3,166.7,228.5,166.6,228.1,165.8z"/>
			<path class="st28" d="M222.1,161.8c0.8,0,1.6,0.2,2,1C223.3,162.8,222.5,162.6,222.1,161.8z"/>
			<path class="st28" d="M203.1,152.8c0.8,0,1.6,0.2,2,1C204.3,153.8,203.5,153.6,203.1,152.8z"/>
			<path class="st28" d="M201.1,151.8c0.8,0,1.6,0.2,2.1,1C202.3,152.8,201.5,152.6,201.1,151.8z"/>
			<path class="st28" d="M227.1,164.8c0.3,0.3,0.7,0.7,1,1C227.8,165.4,227.4,165.1,227.1,164.8z"/>
			<path class="st28" d="M205.1,133.9c1.3-5,2.5-10.1,4-15.1s-1.3-10,0.6-15.8c5.5,11.8-1.6,21.1-3,31.1
				C206.2,134.1,205.6,134,205.1,133.9z"/>
			<path class="st28" d="M199.3,148.8c0.7-3.1,1.5-6.1,2.2-9.2c2.2,0.1,1.1-3.1,3.8-3.2C203.8,141,202.8,145.5,199.3,148.8z"/>
			<path class="st28" d="M210.8,152.5c2.8-0.5,4.6,1.2,6.6,2.5C214.5,156,212.9,153.6,210.8,152.5z"/>
			<path class="st28" d="M228.1,160.8c-2.5,0-4.6-0.8-6-3l0.1-0.1C224.6,157.8,226.8,158.5,228.1,160.8L228.1,160.8z"/>
			<path class="st28" d="M229.1,161.8c0.4,0.1,0.9,0.3,1.3,0.4c-0.1,0.1-0.2,0.3-0.3,0.4C229.8,162.3,229.4,162,229.1,161.8
				L229.1,161.8z"/>
			<path class="st28" d="M208.4,151.3c-0.1,0.1-0.2,0.1-0.3,0.2c-0.1-0.2-0.2-0.3-0.3-0.5c0.1,0,0.3-0.1,0.4,0
				C208.3,151,208.4,151.2,208.4,151.3z"/>
			<path class="st28" d="M205.2,150.5c-0.1,0-0.2-0.1-0.4-0.1c0.1-0.1,0.3-0.3,0.4-0.4c0.1,0.1,0.2,0.2,0.3,0.3
				C205.4,150.4,205.3,150.5,205.2,150.5z"/>
			<path class="st28" d="M228.1,160.8c0.3,0.3,0.7,0.7,1,1l0,0C228.8,161.4,228.4,161.1,228.1,160.8L228.1,160.8z"/>
			<path class="st28" d="M222.1,157.8c-0.1-0.2-0.3-0.3-0.4-0.5C221.8,157.5,222,157.6,222.1,157.8
				C222.1,157.7,222.1,157.8,222.1,157.8z"/>
			<path class="st26" d="M182.3,67.8c-0.1-1-0.1-2-0.2-3c4-1,8-2,12-3l0,0C192,67.3,186.5,66.4,182.3,67.8z"/>
			<path class="st26" d="M194.1,61.8c0.4-0.2,0.7-0.5,1.1-0.7c0.1,0.1,0.2,0.3,0.2,0.4C195,61.5,194.5,61.6,194.1,61.8L194.1,61.8z"
				/>
			<path class="st28" d="M153.7,127c2.7-2,3.1-4.9,3.4-7.8c0.4-3.9-2.2-8.5,2.7-10.7C160.6,116.8,157.7,126.3,153.7,127z"/>
			<path class="st28" d="M149.1,139.8c-0.5-2.7-2-5.5,0.4-9c0.9,3.8,0.3,7.1,1.6,10l0,0C150.4,140.4,149.8,140.1,149.1,139.8
				L149.1,139.8z"/>
			<path class="st28" d="M141.1,137.7c2.9-0.3,5,2.5,8,2.1l0,0c0,0.7,0,1.3,0,2l0,0C145.9,141.6,143.1,140.3,141.1,137.7
				L141.1,137.7z"/>
			<path class="st28" d="M151.1,140.7c2.2,0.2,3.1,1.5,3.3,3.9c-2.4,0-4.1-0.8-5.3-2.8l0,0C149.9,141.7,150.7,141.6,151.1,140.7
				L151.1,140.7z"/>
			<path class="st23" d="M147.1,144.8c-2,0-3.7-0.4-5-2C144.1,142.7,145.8,143.2,147.1,144.8z"/>
			<path class="st28" d="M156,148.8c-0.8-0.1-1.5-0.2-1.9-1c0.6-0.4,1.2-0.8,1.8-1.2C155.9,147.4,156,148.1,156,148.8z"/>
			<path class="st28" d="M154.1,147.8c-1.1-0.1-2.3,0.2-3-1.1C152.2,146.8,153.4,146.6,154.1,147.8z"/>
			<path class="st28" d="M134.1,133.8c-0.4-0.1-0.9-0.3-1.3-0.4c0.1-0.1,0.2-0.3,0.3-0.4C133.4,133.3,133.8,133.5,134.1,133.8
				L134.1,133.8z"/>
			<path class="st23" d="M136.1,139.8c-0.8,0-1.6-0.2-2-1C134.9,138.8,135.7,138.9,136.1,139.8z"/>
			<path class="st23" d="M138.1,140.8c-0.8,0-1.6-0.2-2-1C136.9,139.8,137.7,139.9,138.1,140.8z"/>
			<path class="st23" d="M142.1,142.8c-0.8,0-1.6-0.2-2-1C140.9,141.8,141.7,141.9,142.1,142.8z"/>
			<path class="st28" d="M149.1,145.8c-0.7-0.1-1.3-0.1-2-0.2c0-0.3,0-0.6,0-0.9C147.9,144.8,148.7,144.9,149.1,145.8z"/>
			<path class="st23" d="M140.1,141.8c-0.8,0-1.6-0.2-2-1C138.9,140.8,139.7,140.9,140.1,141.8z"/>
			<path class="st28" d="M148.9,146.8c-0.1-0.3-0.1-0.6,0.1-0.9c0.9-0.1,1.6,0.1,2.1,0.9C150.4,146.7,149.6,146.8,148.9,146.8z"/>
			<path class="st28" d="M141.1,137.8c-0.1-0.2-0.3-0.3-0.4-0.5C140.8,137.5,141,137.6,141.1,137.8
				C141.1,137.7,141.1,137.8,141.1,137.8z"/>
			<path class="st28" d="M151.1,128.8c-0.2,0.1-0.3,0.3-0.5,0.4C150.8,129.1,150.9,128.9,151.1,128.8L151.1,128.8z"/>
			<path class="st28" d="M134.1,133.8c0.1,0.1,0.3,0.3,0.4,0.4C134.4,134.1,134.2,133.9,134.1,133.8L134.1,133.8z"/>
			<path class="st28" d="M151.1,128.7c0.2-0.1,0.3-0.3,0.5-0.4C151.4,128.5,151.3,128.6,151.1,128.7
				C151.1,128.8,151.1,128.7,151.1,128.7z"/>
			<path class="st19" d="M151.1,140.8c-0.4,0.8-1.2,0.9-2,1c0-0.7,0-1.3,0-2C149.8,140.1,150.4,140.4,151.1,140.8z"/>
		</g>
	</g>
</g>
</svg>
