<?xml version="1.0" encoding="utf-8"?>
<!-- Generator: Adobe Illustrator 22.0.0, SVG Export Plug-In . SVG Version: 6.00 Build 0)  -->
<svg version="1.1" id="Layer_1" xmlns="http://www.w3.org/2000/svg" xmlns:xlink="http://www.w3.org/1999/xlink" x="0px" y="0px"
	 viewBox="0 0 155.3 169.5" style="enable-background:new 0 0 155.3 169.5;" xml:space="preserve">
<style type="text/css">
	.st0{fill:#2D24A3;}
	.st1{fill:#B77053;}
	.st2{fill:#ECE0D3;}
	.st3{fill:#E48868;}
	.st4{fill:#464473;}
	.st5{fill:#734E4F;}
	.st6{fill:#393762;}
	.st7{fill:#BA745D;}
	.st8{fill:#563616;}
	.st9{fill:#202070;}
	.st10{fill:#CFB199;}
	.st11{fill:#4E587F;}
	.st12{opacity:0.73;fill:#FFFFFF;enable-background:new    ;}
	.st13{fill:#C5CFEF;}
	.st14{fill:#AEB9F4;}
	.st15{fill:#8387FE;}
	.st16{fill:#FE8730;}
	.st17{fill:#AF6144;}
	.st18{fill:#FEBA72;}
	.st19{fill:#CBD2D7;}
	.st20{fill:#6C757D;}
	.st21{fill:#FEDB00;}
	.st22{fill:#FFFFFF;}
	.st23{fill:#5055BC;}
	.st24{fill:#6668CA;}
	.st25{fill:#9198F9;}
	.st26{fill:#535A61;}
	.st27{fill:#8387FD;}
	.st28{fill:#6668C9;}
</style>
<g>
	<g>
		<g>
			<g>
				<path class="st0" d="M4933.3-4920.4v60.8h3.8c0,0,6.6-27.7,6.9-30.4c0.3-2.7-1-11.2-1-11.2l5.7-22L4933.3-4920.4z"/>
			</g>
		</g>
		<g>
			<g>
				<path class="st0" d="M4931.3-4920.4v60.8h-3.8c0,0-6.6-27.7-6.9-30.4c-0.3-2.7,1-11.2,1-11.2l-5.7-22L4931.3-4920.4z"/>
			</g>
		</g>
		<g>
			<g>
				<polygon class="st1" points="4932.8,-4876.5 4933.3,-4856.5 4933.3,-4852.3 4938.7,-4852.3 4936.8,-4856 4941.8,-4876.5 				"/>
			</g>
		</g>
	</g>
	<g>
		<g>
			<path class="st2" d="M4943-4990.4c1.9,4.5,8.4,5.3,10.6,9.6c1.4,2.9,0.3,6.6-1.9,8.9s-5.4,3.6-8.6,4.4c-7,1.9-14.5,2.4-21.5,0.2
				c-2.5-0.8-4.9-1.9-6.8-3.6s-3.4-4.1-3.5-6.7c-0.2-2.6,1.1-5.3,3.3-6.6c1.4-0.8,3.1-1,4.2-2.1c1.7-1.6,1.7-4.2,1.6-6.6
				c-0.1-4.3,0.1-8.7,0.7-13c0.4-3.3,1.2-6.8,3.4-9.3c2.5-2.7,6.5-3.7,10.1-2.9s6.5,3.6,8.1,6.9s1.9,7.1,1.2,10.7
				C4943.2-4997,4941.7-4993.5,4943-4990.4z"/>
		</g>
	</g>
	<g>
		<g>
			<path class="st3" d="M4910.8-4936c0,0-2.3,4.2-2.5,5.6s-0.2,2.1,0.9,1.8c1.1-0.3-0.1,1.9,1.5,1.7c1.6-0.2,4.3-4.5,4.3-4.5
				l-2.7-3.7L4910.8-4936z"/>
		</g>
	</g>
	<g>
		<g>
			<path class="st4" d="M4953-4919.1c0,0-1.9-27.7-11.7-42l2.5-13.6c0,0,4.2-3.6,3.3-9.1v-7.5c0,0-11.6-5.5-14.4-5.5
				s-15.3,6.1-15.3,6.1s0,5.2,0,7c0,1.9,0.2,6.1,3,8.7l3.1,13.7c0,0-11.2,12-12.7,43.1C4910.8-4918,4936-4915.2,4953-4919.1z"/>
		</g>
	</g>
	<g>
		<g>
			<path class="st4" d="M4917.4-4990.6c-2.2,1.4-3.3,3.1-3.6,4.4s-3.1,28.4-3,32c0.2,3.6-2.8,2.8-1.6,8c1.2,5.2-3,4.8-1.1,8.3
				l0.5,2.8l4,0.9l4.1-12l3.6-28.6L4917.4-4990.6z"/>
		</g>
	</g>
	<g>
		<g>
			<path class="st1" d="M4959.9-4926.7c3.5-0.6-2.3-10.1-6.2-12.6c-3.9-2.5-11.6-4.6-13.6-4.1
				C4938-4943,4946.3-4924.2,4959.9-4926.7z"/>
		</g>
	</g>
	<g>
		<g>
			<path class="st1" d="M4940.1-4943.4c-1.7,0-2.3,1.6-2.3,3.4c0,1.9,4.1,21.3,7.2,23s13.6,1.4,14.2-1.9s-1.1-10.8-1.1-10.8
				L4940.1-4943.4z"/>
		</g>
	</g>
	<g>
		<g>
			<polygon class="st1" points="4940.1,-4943.4 4922.5,-4993 4919.6,-4991.7 4937.7,-4940 			"/>
		</g>
	</g>
	<g>
		<g>
			<path class="st3" d="M4941.3-4961.1l-3.1,1.8c0,0-3.3-1.4-4.2-1.2l0.7,1.9c0,0-5.5,1.5-5.5,1.8s0,1.7,0,1.7l2-0.4
				c0,0-0.2,1,0,1.2s0.7,0.4,0.7,0.4s0.2,0.8,0.6,1.6s0.4,1.4,1.1,1.9c0.6,0.5,4.9-1.4,5.4-1.8s4.5-4.6,4.5-4.6L4941.3-4961.1z"/>
		</g>
	</g>
	<g>
		<g>
			<path class="st5" d="M4955.7-4926.1c0.6,0,1.2-0.1,1.8-0.2c0.2,0,0.3-0.2,0.2-0.3c0-0.2-0.2-0.3-0.3-0.2
				c-3.5,0.6-7.5-0.8-10.6-3.9c-2.8-2.8-4.6-6.4-6.3-10.1c-0.1-0.1-0.2-0.2-0.4-0.1c-0.1,0.1-0.2,0.2-0.1,0.4
				c1.7,3.8,3.5,7.4,6.4,10.3C4949.1-4927.7,4952.5-4926.1,4955.7-4926.1z"/>
		</g>
	</g>
	<g>
		<g>
			<path class="st5" d="M4954.6-4928.9c1.3,0,2.6-0.1,3.9-0.4c0.2,0,0.3-0.2,0.2-0.3c0-0.2-0.2-0.3-0.3-0.2c-1.7,0.3-3.3,0.4-5,0.3
				c-0.2,0-0.3,0.1-0.3,0.3c0,0.2,0.1,0.3,0.3,0.3C4953.8-4928.9,4954.2-4928.9,4954.6-4928.9z"/>
		</g>
	</g>
	<g>
		<g>
			<path class="st5" d="M4948.5-4917.6c0.1,0,0.1,0,0.2-0.1s0.1-0.3,0-0.4c-5.4-6.5-8.7-14.6-9.3-23.1c0-0.2-0.2-0.3-0.3-0.3
				c-0.2,0-0.3,0.2-0.3,0.3c0.6,8.5,3.9,16.8,9.4,23.4C4948.3-4917.7,4948.4-4917.6,4948.5-4917.6z"/>
		</g>
	</g>
	<g>
		<g>
			<path class="st5" d="M4932.1-4959.2h0.1c0.2-0.1,0.2-0.2,0.2-0.4l-4-10.9c-0.1-0.2-0.2-0.2-0.4-0.2c-0.2,0.1-0.2,0.2-0.2,0.4
				l4,10.9C4931.9-4959.3,4932-4959.2,4932.1-4959.2z"/>
		</g>
	</g>
	<g>
		<g>
			<path class="st4" d="M4947.1-4991.2c3,1.4,8,28,7.3,29.2s-8,8.9-10.5,9.7l-2.7-8.7l4.7-4.1l-2.2-9.5L4947.1-4991.2z"/>
		</g>
	</g>
	<g>
		<g>
			<path class="st6" d="M4929.5-4982.9L4929.5-4982.9c3.1-0.7,5.9-2.5,7.9-4.9c0.1-0.1,0.1-0.3-0.1-0.4c-0.1-0.1-0.3-0.1-0.4,0.1
				c-1.8,2.4-4.5,4.1-7.5,4.7c-0.2,0-0.3,0.2-0.2,0.4C4929.2-4982.9,4929.3-4982.9,4929.5-4982.9z"/>
		</g>
	</g>
	<g>
		<g>
			<path class="st6" d="M4920.5-4974.9c0.1,0,0.1,0,0.2,0c0.1-0.1,0.2-0.3,0.1-0.4c-1.9-3.1-2.2-7-0.8-10.4l0.1-0.1l-0.1-0.1
				c-0.2-0.4-0.4-0.9-0.6-1.4s-0.4-1-0.7-1.4c-0.1-0.1-0.3-0.2-0.4-0.1s-0.2,0.3-0.1,0.4c0.2,0.4,0.4,0.9,0.7,1.4
				c0.2,0.4,0.4,0.9,0.6,1.3C4918.1-4982.2,4918.4-4978.1,4920.5-4974.9C4920.3-4974.9,4920.4-4974.9,4920.5-4974.9z"/>
		</g>
	</g>
	<g>
		<g>
			<path class="st6" d="M4944.1-4974.9c0.1,0,0.2,0,0.2-0.1c2-3.2,2.3-7.3,0.9-10.8c0.2-0.4,0.4-0.8,0.6-1.3s0.4-0.9,0.6-1.4
				c0.1-0.1,0-0.3-0.1-0.4s-0.3,0-0.4,0.1c-0.2,0.4-0.4,0.9-0.7,1.4c-0.2,0.5-0.4,0.9-0.6,1.4l-0.1,0.1l0.1,0.1
				c1.4,3.3,1.1,7.3-0.8,10.4c-0.1,0.1,0,0.3,0.1,0.4C4944-4974.9,4944-4974.9,4944.1-4974.9z"/>
		</g>
	</g>
	<g>
		<g>
			<path class="st6" d="M4913.3-4935.4c0.1,0,0.3-0.1,0.3-0.2c0.8-4.4,2.1-8.7,3.6-12.9c0.1-0.2,0-0.3-0.2-0.4
				c-0.1-0.1-0.3,0-0.4,0.2c-1.6,4.2-2.8,8.6-3.6,13C4913-4935.6,4913.1-4935.5,4913.3-4935.4
				C4913.2-4935.4,4913.3-4935.4,4913.3-4935.4z"/>
		</g>
	</g>
	<g>
		<g>
			<path class="st6" d="M4944.5-4952.8h0.1c0.1-0.1,0.2-0.2,0.2-0.4l-0.9-2.2c-0.1-0.2-0.2-0.2-0.4-0.2c-0.1,0.1-0.2,0.2-0.2,0.4
				l1,2.2C4944.3-4952.9,4944.4-4952.8,4944.5-4952.8z"/>
		</g>
	</g>
	<g>
		<g>
			<polygon class="st1" points="4931.8,-4876.5 4931.3,-4856.5 4931.3,-4852.3 4925.8,-4852.3 4927.8,-4856 4922.8,-4876.5 			"/>
		</g>
	</g>
	<g>
		<g>
			<path class="st3" d="M4935.2-5000.8v6.9c0,0-3.5,5.9-6.7,0.1l0.3-7H4935.2z"/>
		</g>
	</g>
	<g>
		<g>
			<path class="st3" d="M4933.8-5017.1c5.9,0.8,6.9,7.6,5.5,13c-1.1,4-3.5,8.1-7.3,8s-6.1-5.3-6.8-8.5
				C4924.1-5009.6,4924.3-5018.3,4933.8-5017.1z"/>
		</g>
	</g>
	<g>
		<g>
			<path class="st3" d="M4938.6-5005.5c0,0,0.2-2.3,2.1-1.5c1.8,0.8-0.4,5.9-2.4,5.3C4936.2-5002.3,4938.6-5005.5,4938.6-5005.5z"/>
		</g>
	</g>
	<g>
		<g>
			<path class="st3" d="M4926.4-5005.6c0,0-0.1-2.3-1.9-1.7c-1.9,0.6,0,5.9,2.1,5.4S4926.4-5005.6,4926.4-5005.6z"/>
		</g>
	</g>
	<g>
		<g>
			<path class="st7" d="M4932-4995.7c0.9,0,1.8-0.2,2.6-0.7c0.1-0.1,0.2-0.3,0.1-0.4s-0.3-0.2-0.4-0.1c-1.4,0.9-3.4,0.8-4.8-0.2
				c-0.1-0.1-0.3-0.1-0.4,0.1c-0.1,0.1-0.1,0.3,0.1,0.4C4929.9-4996,4931-4995.7,4932-4995.7z"/>
		</g>
	</g>
	<g>
		<g>
			<path class="st8" d="M4929-5013.3c-0.1,3.6,0.6,7.3,2.5,10.4s5.1,5.4,8.7,5.8c1.3-3.1,2.2-6.5,1.9-9.9c-0.4-3.3-1.9-6.6-4.6-8.6
				s-6.6-2.5-9.5-0.9c-2.5,1.4-4,4-4.6,6.8s-0.6,4.3-0.5,7.1C4926.9-5005,4929.6-5008.7,4929-5013.3z"/>
		</g>
	</g>
</g>
<g>
	<g>
		<g>
			<g>
				<g>
					<g>
						<path class="st3" d="M5064.4-4980.9l-2.5-9.5c0,0-3.6,1-5.2-0.6c-0.7-0.6-1.3-3.4-1.5-7.8c0-0.5-1.8,0.5-1.8,0
							c0-0.9,3.1-5.2,2.9-7c-1-6.4-0.5-8.1,1.4-9.9c4.1-4,18.5-4.6,20.4,2.4s1.3,10.4-2.2,20.3l2.2,9.9L5064.4-4980.9z"/>
					</g>
				</g>
			</g>
			<g>
				<g>
					<path class="st2" d="M5061.6-4976.3l-3.2-8c0,0,9.7-6.7,19.1-7.3l2,4.1L5061.6-4976.3z"/>
				</g>
			</g>
			<g>
				<g>
					<path class="st6" d="M5029-4798.7l-3.7,11.1c0,0-11.3,0.7-11.6,1.5l16.3,4.5l4.3-15.6L5029-4798.7z"/>
				</g>
			</g>
			<g>
				<g>
					<polygon class="st6" points="5114.9,-4780.8 5124.3,-4780.8 5131,-4786 5122.7,-4799.8 5118,-4797 5123.6,-4786.7 
						5121.8,-4782.6 					"/>
				</g>
			</g>
			<g>
				<g>
					<polygon class="st0" points="5052.9,-4900.8 5024.7,-4791 5034.1,-4788.5 5056.7,-4846.9 5072.7,-4877.7 5090.5,-4832 
						5120.2,-4789.1 5127.2,-4794 5103,-4850 5095.1,-4900.8 					"/>
				</g>
			</g>
			<g>
				<g>
					<path class="st9" d="M5078.3-4991.1c0,0-8.7,2.7-13,7.7s-11.4,19.5-11.5,21.1c-0.2,1.6,2.2,19.5,2.2,19.5l-7.8,47.3
						c0,0,33.4,5.2,50.1,0l-8.7-39.1c0,0,1.2-13.8,2.7-15.4c1.4-1.6-1.1-15.3-2.2-21.6s-6.1-13.6-7.8-15.1
						C5080.4-4988.1,5078.3-4991.1,5078.3-4991.1z"/>
				</g>
			</g>
			<g>
				<g>
					<path class="st10" d="M5056-4960.5c0.2,0,0.3-0.1,0.4-0.3c1-2.5,3.6-5.9,6.1-7.6l0.2-0.1v-0.5c0.1-1.8,0.1-3.8-0.1-5.6
						c1.3-0.6,2.6-1.1,3.9-1.4l0.3-0.1v-0.3c0.3-1.8,1.6-3.4,2.9-5c0.7-0.8,1.4-1.7,1.9-2.6c0.1-0.2,0.1-0.5-0.1-0.6
						s-0.5-0.1-0.6,0.1c-0.5,0.8-1.2,1.6-1.9,2.5c-1.3,1.6-2.6,3.2-3,5.2c-1.4,0.4-2.7,0.9-4,1.5l-0.3,0.1v0.3
						c0.2,1.8,0.2,3.9,0.1,5.7v0.1c-2.6,1.9-5.2,5.2-6.2,7.9c-0.1,0.2,0,0.5,0.2,0.5C5055.9-4960.5,5055.9-4960.5,5056-4960.5z"/>
				</g>
			</g>
			<g>
				<g>
					<path class="st6" d="M5055.6-5022.4c0.6-0.2,1.3-0.4,2.2-0.5c3.5-0.6,5.9,1.5,9.1,1.7c2.3,0.2,4.5-0.9,6.9-0.9
						c1.8,0,3.7,0.5,5,1.8s1.8,3.7,0.9,5.4c4.6,1.9,1.4,9.9,0,13.5c-1.4,3.5-3.8,8.6-3.8,8.6l-4.7-4.6c0,0,3.6-4.2,2-6
						c-1.6-1.9-3.2,1-3.2,1s-0.1,1.2-0.2,2.7c-0.8-0.6-1.6-1.1-2.5-1.5h-0.1l-0.2-6.1c0,0-4.9,1.6-5.8-2.5
						C5054.4-5011.1,5047.8-5019.7,5055.6-5022.4z"/>
				</g>
			</g>
		</g>
		<g>
			<path class="st10" d="M5077.7-4892.7c5.9,0,11.5-0.3,16.6-1c0.2,0,0.4-0.2,0.4-0.5c0-0.2-0.2-0.4-0.5-0.4
				c-11.5,1.5-25.3,1.3-41-0.6c-0.2,0-0.4,0.1-0.5,0.4c0,0.2,0.1,0.4,0.4,0.5C5061.9-4893.2,5070.1-4892.7,5077.7-4892.7z"/>
		</g>
	</g>
	<g>
		<g>
			<g>
				<path class="st3" d="M5018.2-4957.2c-0.5-1.2-0.2-5.1,0.3-4.7c0.5,0.3,0.9,2.5,0.9,2.5l0.2,1c0,0,0.8-0.3,0.8,0s0.3,1.6,0.3,1.6
					l0.1,2.5L5018.2-4957.2z"/>
			</g>
		</g>
		<g>
			<g>
				<polygon class="st11" points="5024.2,-4952.2 5021.3,-4963.1 5018.9,-4971.7 5015.8,-4970.5 5021.5,-4952 				"/>
			</g>
		</g>
		<g>
			<g>
				<path class="st3" d="M5055.1-4945.9l-2.5,9.8c0,0-25.1-9.8-26.4-10.3c0,0-3.8-3-4.6-3.6c-0.8-0.6-3.2-6.6-3.4-7.2
					c-0.2-0.6,4.5-0.9,4.5-0.9s0.1-2.9,0.4-3.8c0.1-0.5,1.2-2.8,1.7-1.2l1,4.4l1.5,1.5c0.8,1.1,1.6,5.5,1.6,5.5L5055.1-4945.9z"/>
			</g>
		</g>
		<g>
			<g>
				<path class="st9" d="M5057-4946.2c0,0-2.6-7.4-7.6-4.4c-4.9,3-5.5-0.7-5.5-0.7l-13.3-3.7l-4.3,8.6l28.7,12.3L5057-4946.2z"/>
			</g>
		</g>
	</g>
	<g>
		<path class="st10" d="M5062.7-4947.3l0.1-0.4c2.9-10.4,9-20,14.5-28c2.5-3.5,4.9-5.1,7.2-4.7c0.2,0.1,0.4-0.1,0.5-0.3
			c0-0.2-0.1-0.4-0.3-0.5c-2.6-0.5-5.4,1.2-8,5c-5.5,8-11.6,17.5-14.5,27.9l-4.9-1.4c-0.2-0.1-0.5,0.1-0.5,0.3s0.1,0.5,0.3,0.5
			L5062.7-4947.3z"/>
	</g>
	<g>
		<path class="st10" d="M5067-4931.3c0.5,0,1,0,1.5-0.1c2.5-0.4,4.4-2,5.5-3.3c1.5-1.6,2.5-3.4,3.6-5.2c0.1-0.2,0.1-0.5-0.1-0.6
			s-0.5-0.1-0.6,0.1c-1,1.7-2.1,3.6-3.5,5.1c-1.1,1.2-2.8,2.6-5,3c-2.7,0.5-5.6-0.7-7.9-1.7c-0.2-0.1-0.5,0-0.5,0.2
			c-0.1,0.2,0,0.5,0.2,0.5C5062.1-4932.3,5064.5-4931.3,5067-4931.3z"/>
	</g>
</g>
<path class="st12" d="M4399.9-5156.6c0,2.4,0,4.8,0,8.5c-1.8-1.5-4.4-2.9-4.2-3.6c0.6-2,2.2-3.7,3.4-5.6
	C4399.4-5157,4399.6-5156.8,4399.9-5156.6z"/>
<g>
	<rect x="1429.2" y="136.6" width="5.6" height="8"/>
	<path class="st13" d="M1442.9,110.8c-0.4-0.6-1.1-0.8-1.3-0.9l0,0c0,0,0,0-0.1,0h-0.1l0,0c-0.3,0.1-1,0.2-1.3,0.9
		c-0.4,0.8-7.2,22.7-7.2,22.7v120.8h8.5h0.1h8.5V133.4C1450.1,133.4,1443.3,111.5,1442.9,110.8z"/>
	<path class="st14" d="M1449.6,131.8c-1.6-5.1-6.4-20.4-6.7-21c-0.3-0.5-0.9-0.7-1.2-0.8v21.9L1449.6,131.8L1449.6,131.8z"/>
	<rect x="1441.7" y="135.7" class="st14" width="8.4" height="12.8"/>
	<rect x="1441.7" y="152.4" class="st14" width="8.4" height="16.2"/>
	<rect x="1441.7" y="172.4" class="st14" width="8.4" height="35.9"/>
	<rect x="1441.7" y="212.2" class="st14" width="8.4" height="42.1"/>
	<path class="st15" d="M1446.1,120.7v11.1h3.5C1448.9,129.5,1447.5,125,1446.1,120.7z"/>
	<rect x="1446.1" y="135.7" class="st15" width="4" height="12.8"/>
	<rect x="1446.1" y="152.4" class="st15" width="4" height="16.2"/>
	<rect x="1446.1" y="172.4" class="st15" width="4" height="35.9"/>
	<rect x="1446.1" y="212.2" class="st15" width="4" height="42.1"/>
	<rect x="1432.9" y="133.4" width="17.2" height="0.7"/>
	<rect x="1432.9" y="150.1" width="17.2" height="0.7"/>
	<rect x="1432.9" y="170" width="17.2" height="0.7"/>
	<rect x="1432.9" y="209.9" width="17.2" height="0.7"/>
	<rect x="1384" y="136.6" width="5.6" height="8"/>
	<path class="st14" d="M1375.9,110.8c0.4-0.6,1.1-0.8,1.3-0.9l0,0c0,0,0,0,0.1,0h0.1l0,0c0.3,0.1,1,0.2,1.3,0.9
		c0.4,0.8,7.2,22.7,7.2,22.7v120.8h-8.5h-0.1h-8.5V133.4C1368.7,133.4,1375.5,111.5,1375.9,110.8z"/>
	<path class="st15" d="M1385.5,131.8c-1.6-5.2-6.3-20.3-6.7-21c-0.3-0.5-0.9-0.7-1.2-0.8v21.8H1385.5z"/>
	<rect x="1377.6" y="135.7" class="st15" width="8.4" height="12.8"/>
	<rect x="1377.6" y="212.2" class="st15" width="8.4" height="42.2"/>
	<rect x="1377.6" y="172.4" class="st15" width="8.4" height="35.9"/>
	<rect x="1377.6" y="152.4" class="st15" width="8.4" height="16.2"/>
	<rect x="1368.7" y="133.4" width="17.2" height="0.7"/>
	<rect x="1368.7" y="150.1" width="17.2" height="0.7"/>
	<rect x="1368.7" y="170" width="17.2" height="0.7"/>
	<rect x="1368.7" y="209.9" width="17.2" height="0.7"/>
	<rect x="1388.5" y="156.5" width="41.8" height="0.7"/>
	<path class="st16" d="M1409.7,60.3v-0.2c0,0,0,0-0.1,0.1c-0.1-0.1-0.1-0.1-0.1-0.1v0.2c-2.4,2.6-23.4,26.6-20.8,62.8v169.1h20.8
		h0.2h20.8V123.1C1433.1,86.9,1412.1,62.9,1409.7,60.3z"/>
	<path class="st17" d="M1420.7,76.5v215.7h9.8V123.1C1431.9,103.5,1426.4,87.5,1420.7,76.5z"/>
	<path class="st18" d="M1409.3,120.5v-60c-2.9,3.2-22.2,25.9-20.8,60.1L1409.3,120.5L1409.3,120.5z"/>
	<rect x="1388.7" y="125.8" class="st18" width="20.6" height="166.4"/>
	<rect x="1355.5" y="279.6" class="st19" width="37" height="45.2"/>
	
		<rect x="1425.9" y="279.6" transform="matrix(1 -1.328112e-03 1.328112e-03 1 -0.4001 1.9186)" class="st20" width="37" height="45.2"/>
	<rect x="1395.7" y="310.1" class="st16" width="28.1" height="14.8"/>
	<polygon class="st21" points="1395.7,310.1 1397,322.9 1398,319.5 1399,321.4 1401.6,317.5 1404.8,323.7 1405.9,319.7 
		1406.9,322.1 1407.7,318.7 1409,321.8 1410.3,319 1412.4,323.4 1416.3,315.2 1419.2,323.7 1420,319.6 1421,323 1422.4,316.1 
		1423.4,323.1 1423.7,310.1 	"/>
	<polygon class="st22" points="1395.7,310.1 1396.7,315 1397.4,311.5 1399,314.3 1400,311.8 1401,315.7 1402.3,311.6 1403.9,318.4 
		1404.6,311.7 1405.7,313.5 1406.6,311.4 1407.3,316.1 1408.3,311 1409.7,317.2 1411.8,311.3 1413.4,315.7 1413.9,311.4 1415,312.7 
		1416.5,310.7 1418.1,315.4 1419,310.7 1420.6,319.3 1421.4,311.2 1421.9,312.3 1422.3,311.2 1423,312.6 1423.7,310.1 	"/>
	<g>
		<path class="st17" d="M1430.4,220.8v-65.9l-18.3-18.3l-0.1,0.2c0.2,0.3,0.3,0.6,0.2,1.1c-0.9,11.6-0.3,23.5-0.4,35.2
			c0,6.2-0.1,12.3-0.1,18.5c0,3.6,0.2,7.2,0.1,10.8L1430.4,220.8z"/>
		<path class="st23" d="M1468.4,278.9c0,0-0.5-3.1-1.8-7.8c-1.2-4.7-4.7-7.4-4.7-7.4s-18.9-19.8-23.2-23.4
			c-4.3-3.6-6.5-11.7-6.5-11.7l-9.1-51.3h-13.5h-0.1H1396l-9.1,51.3c0,0-2.2,8.1-6.5,11.7c-4.3,3.6-23.2,23.4-23.2,23.4
			s-3.5,2.7-4.7,7.4c-1.2,4.7-1.8,7.8-1.8,7.8v3h1.2l-1.2,3v2.7l58.7,7.4l0,0l0,0l0,0l0,0l58.7-7.4v-2.7l-1.2-3h1.2v-3H1468.4z"/>
		<polygon class="st20" points="1389.9,290.1 1389.9,303 1394.6,303 1395.7,310.1 1408.3,310.1 1408.3,289.5 		"/>
		<polygon class="st24" points="1352.1,278.7 1409.7,278.7 1409.7,295 1350.9,287.6 1350.9,284.8 1352.1,281.9 1350.9,281.9 
			1350.9,278.9 		"/>
		<path class="st25" d="M1395.7,194.2l-6.1,38c0,0-2.7,7-4.6,8.9c-1.9,1.9-29.1,29-29.1,29l-2.7,8.6h48.2l-1.8-91.6L1395.7,194.2z"
			/>
		<polygon class="st26" points="1429.5,290.1 1429.5,303 1424.8,303 1423.7,310.1 1411.1,310.1 1411.1,289.5 		"/>
		<polygon class="st23" points="1467.3,278.7 1409.7,278.7 1409.7,295 1468.4,287.6 1468.4,284.8 1467.2,281.9 1468.4,281.9 
			1468.4,278.9 		"/>
		<path class="st15" d="M1423.7,194.2l6.1,38c0,0,2.7,7,4.6,8.9c1.9,1.9,29.1,29,29.1,29l2.7,8.6H1418l1.8-91.6L1423.7,194.2z"/>
		<path class="st23" d="M1437.9,244.6c-1.9-1.9-3.2-3.2-3.5-3.5c-1.9-1.9-4.6-8.9-4.6-8.9l-6.1-38l-3.8-7.1l-1.8,91.6h19.9
			L1437.9,244.6L1437.9,244.6z"/>
		<path class="st15" d="M1423.7,269.5c0,0,0.1-81.9,0-91.2s-2.8-19.7-2.8-19.7c-5-23.5-10.7-23.5-11.1-23.4c-0.5,0-6.1,0-11.1,23.4
			c0,0-2.7,10.4-2.8,19.7s0,91.2,0,91.2c-5.6,0-5.8,11.8-5.8,11.8V295h16h3.8h0.1h3.8h16v-13.7
			C1429.5,281.3,1429.3,269.5,1423.7,269.5z"/>
		<path class="st25" d="M1418.6,149.6c-4-13.3-7.8-14.4-8.7-14.4v14.4H1418.6z"/>
		<path class="st25" d="M1423.7,269.5L1423.7,269.5h-13.8V295h19.6v-13.7C1429.5,281.3,1429.3,269.5,1423.7,269.5z"/>
		<path class="st25" d="M1423.7,265.6c0-16.4,0.1-79.2,0-87.3c-0.1-9.3-2.8-19.7-2.8-19.7c-0.4-1.9-0.8-3.6-1.2-5.1h-9.8v112.1
			H1423.7z"/>
		<path class="st15" d="M1423.7,269.5L1423.7,269.5h-3.9c0.6,0.5,1.1,1.1,1.6,1.7l0,0l0.1,0.1l0,0c0.8,0.8,1.3,1.6,1.7,2.6
			c0.5,1,0.8,2.2,0.8,3.6v17.4h5.4v-13.7C1429.5,281.3,1429.3,269.5,1423.7,269.5z"/>
		<path class="st24" d="M1423.7,178.3c-0.1-9.3-2.8-19.7-2.8-19.7c-0.4-1.9-0.8-3.6-1.2-5.1h-2.7v112.1h6.7
			C1423.7,249.2,1423.8,186.4,1423.7,178.3z"/>
		<polygon class="st24" points="1409.7,267.9 1409.7,267.9 1405.5,267.9 1407.9,317.2 1409.7,317.2 1409.7,317.2 1411.5,317.2 
			1413.9,267.9 		"/>
		<polygon class="st26" points="1418.5,162.6 1409.7,158.7 1409.7,158.6 1409.7,158.7 1409.7,158.6 1409.7,158.7 1400.9,162.6 
			1399.5,168.2 1401.9,168.2 1403.1,164.5 1409.7,163.8 1416.3,164.5 1417.5,168.2 1419.9,168.2 		"/>
		<polygon class="st26" points="1419,151.1 1412.9,151.1 1412.9,147.2 1409.7,147.2 1409.7,147.2 1406.5,147.2 1406.5,151.1 
			1400.4,151.1 1400.1,152.1 1409.7,152.1 1409.7,152.1 1419.3,152.1 		"/>
	</g>
	<rect x="1388.7" y="123.1" width="41.8" height="0.7"/>
	<circle class="st22" cx="1378.3" cy="315.1" r="10.5"/>
	<g>
		<path class="st22" d="M1215.6,293.9c-7,0-13.5,2.7-18.3,7c-0.6-5.1-4.9-9-10.2-9c-5.7,0-10.3,4.6-10.3,10.3
			c0,5.7,4.6,10.3,10.3,10.3c0.9,0,1.8-0.1,2.7-0.4c-1,2.9-1.6,6-1.6,9.2c0,0.2,0,0.4,0,0.6c-0.6,0-1.1,0.1-1.6,0.2
			c-3-7-10-11.9-18.1-11.9c-9.2,0-16.9,6.4-19.1,14.9c-2.3-3.2-5.5-5.6-9.4-6.7c1.3-1.7,2-3.8,2-6.1c0-5.6-4.5-10.1-10.1-10.1
			s-10.1,4.5-10.1,10.1c0,3.2,1.5,6.1,3.9,7.9c-3.3,2-5.9,5-7.3,8.7c-2.2-2.5-5.4-4.2-9-4.5c0.9-2,1.4-4.3,1.4-6.6
			c0-9.1-7.4-16.5-16.5-16.5s-16.5,7.4-16.5,16.5c0,2.4,0.5,4.7,1.5,6.7c-0.7-0.1-1.4-0.2-2.2-0.2c-2.6,0-5.1,0.8-7.1,2.1
			c-0.4-3.4-3.3-6.1-6.9-6.1c-3.8,0-6.9,3.1-6.9,6.9s3.1,6.9,6.9,6.9c0.5,0,0.9,0,1.4-0.1c-0.3,1.1-0.5,2.2-0.5,3.4
			c0,7.2,5.9,13.1,13.1,13.1s13.1-5.9,13.1-13.1c0-1.3-0.2-2.6-0.6-3.9c1.5,0.4,3,0.7,4.7,0.7c0.3,0,0.7,0,1-0.1
			c-0.3,1.1-0.5,2.3-0.5,3.6c0,7.4,6,13.5,13.5,13.5c4.9,0,9.2-2.6,11.6-6.6c3.1,5,8.7,8.3,15,8.3c8,0,14.7-5.3,16.9-12.6
			c3.5,5.5,9.6,9.1,16.6,9.1c5.4,0,10.3-2.2,13.9-5.7c1.8,1.2,4,1.8,6.3,1.8c3.4,0,6.5-1.5,8.7-3.8c4.9,4.3,11.2,7,18.3,7
			c15.2,0,27.4-12.3,27.4-27.4C1243,306.2,1230.7,293.9,1215.6,293.9z"/>
		<path class="st22" d="M1525.9,308.1c-1.7,0-3.3,0.2-4.9,0.6c-0.8-1.3-1.7-2.5-2.7-3.7c2.3-2,3.7-4.9,3.7-8.1
			c0-6-4.9-10.9-10.9-10.8c-5.1,0-9.4,3.5-10.5,8.3c-2.3-0.5-4.6-0.8-7-0.8c-16,0-29.3,11.7-31.8,27c-2.8-1.3-5.9-2.1-9.2-2.1
			c-7.4,0-13.8,3.7-17.7,9.3c-4.8-11.5-16.2-19.5-29.4-19.5c-7.6,0-14.5,2.7-20,7.1c-3.4-14-16-24.4-31-24.4c-2.9,0-5.7,0.4-8.3,1.1
			c0-0.4,0.1-0.7,0.1-1.1c0-9.7-7.9-17.5-17.5-17.5c-9.7,0-17.5,7.8-17.5,17.5c0,8.8,6.5,16,14.9,17.2c-0.5,1.1-1,2.2-1.5,3.3
			c-2.8-1.9-6.1-3-9.7-3c-3.2,0-6.3,0.9-8.9,2.5c-4.1-11.7-15.2-20-28.2-20c-9.6,0-18.2,4.6-23.6,11.7c-1.9-0.9-4-1.4-6.2-1.4
			c-6.5,0-12.1,4.2-14.1,10.1c-1.6-0.9-3.4-1.4-5.4-1.4c-6,0-10.9,4.9-10.9,10.9s4.9,10.9,10.9,10.9c3.8,0,7.2-2,9.1-5
			c2.7,2.6,6.3,4.2,10.3,4.2c0.6,0,1.2,0,1.7-0.1c4.1,11.5,15.2,19.8,28.1,19.8c10.1,0,19-5,24.4-12.7c3.2,3.4,7.7,5.5,12.7,5.5
			c4.6,0,8.8-1.8,11.9-4.8c5.5,9.5,15.8,15.9,27.6,15.9c7.6,0,14.5-2.7,20-7.1c2,8.2,7.2,15.2,14.1,19.6h33.8
			c5.5-3.5,10-8.6,12.5-14.7c3.9,5.6,10.4,9.3,17.8,9.3c8.4,0,15.7-4.9,19.3-11.9c5.8,5.2,13.4,8.4,21.8,8.4
			c9.9,0,18.7-4.5,24.6-11.5c2.4,1,5,1.5,7.7,1.5c11.1,0,20.1-9,20-20.1C1546,317.1,1537,308.1,1525.9,308.1z"/>
		<path class="st20" d="M1525,310.7c-3,0-5.9,0.7-8.4,2c-4.3-8.8-13.4-14.8-23.9-14.8c-14.7,0-26.5,11.9-26.5,26.6
			c0,6.3,2.2,12.1,5.9,16.7c-1.3-3.1-2-6.5-2-10.1c0-14.7,11.9-26.6,26.5-26.6c7.7,0,14.6,3.3,19.5,8.5c-6.2,3.2-10.5,9.7-10.5,17.2
			c0,4.6,1.6,8.8,4.3,12.2c-0.9-2.3-1.5-4.8-1.5-7.4c0-10.7,8.7-19.4,19.4-19.4c6.1,0,11.5,2.8,15.1,7.2
			C1540,315.6,1533.1,310.7,1525,310.7z"/>
		<g>
			<path class="st20" d="M1354.7,294.4c-14.7,0-26.6,11.9-26.6,26.6c0,6.3,2.2,12.1,5.9,16.7c-1.3-3.1-2-6.5-2-10.1
				c0-14.7,11.9-26.6,26.6-26.6c8.4,0,15.8,3.9,20.7,9.9C1375.3,301.2,1365.8,294.4,1354.7,294.4z"/>
			<path class="st20" d="M1315,311.7c-2.7,0-5.2,0.8-7.4,2.1c-1.3-2-3.4-3.6-5.8-4.2c-4.3-9-13.4-15.2-24-15.2
				c-9.4,0-17.7,4.9-22.4,12.3c-2-1.7-4.6-2.7-7.4-2.7c-4,0-7.5,2-9.6,5.1c-4.8-7-12.8-11.6-21.9-11.6c-14.7,0-26.6,11.9-26.6,26.6
				c0,6.3,2.2,12.1,5.9,16.7c-1.3-3.1-2-6.5-2-10.1c0-14.7,11.9-26.6,26.6-26.6c6.6,0,12.6,2.4,17.3,6.4c-0.8,1.5-1.2,3.3-1.2,5.1
				c0,2.7,1,5.3,2.6,7.2c-0.6-1.4-0.9-2.8-0.9-4.4c0-2.2,0.6-4.2,1.6-5.9c0.4,0.5,0.9,0.9,1.3,1.4c-0.3-0.7-0.6-1.3-0.9-2
				c2.1-3.1,5.6-5.1,9.6-5.1c1.7,0,3.4,0.4,4.9,1.1c-2.1,3.8-3.4,8.2-3.4,12.9c0,6.3,2.2,12.1,5.9,16.7c-1.3-3.1-2-6.5-2-10.1
				c0-14.7,11.9-26.6,26.6-26.6c7.7,0,14.6,3.3,19.4,8.5c-0.6-0.1-1.2-0.2-1.9-0.2c-5.5,0-9.9,4.4-9.9,9.9c0,2.4,0.8,4.5,2.2,6.2
				c-0.5-1.2-0.7-2.4-0.7-3.8c0-5.5,4.4-9.9,9.9-9.9c2.5,0,4.7,0.9,6.4,2.4c-3.9,2.6-6.4,6.9-6.4,11.9c0,3.4,1.2,6.5,3.2,9
				c-0.7-1.7-1.1-3.5-1.1-5.4c0-7.9,6.4-14.3,14.3-14.3c4.5,0,8.5,2.1,11.1,5.3C1326,315.3,1320.9,311.7,1315,311.7z"/>
		</g>
		<path class="st20" d="M1316.5,298.1c0-7.9,6.4-14.3,14.3-14.3c4.5,0,8.5,2.1,11.1,5.3c-2.1-5.2-7.2-8.9-13.2-8.9
			c-7.9,0-14.3,6.4-14.3,14.3c0,3.4,1.2,6.5,3.2,9C1316.9,301.9,1316.5,300,1316.5,298.1z"/>
	</g>
</g>
<g>
	<rect x="1429.2" y="136.6" width="5.6" height="8"/>
	<path class="st13" d="M1442.9,110.8c-0.4-0.6-1.1-0.8-1.3-0.9l0,0c0,0,0,0-0.1,0h-0.1l0,0c-0.3,0.1-1,0.2-1.3,0.9
		c-0.4,0.8-7.2,22.7-7.2,22.7v120.8h8.5h0.1h8.5V133.4C1450.1,133.4,1443.3,111.5,1442.9,110.8z"/>
	<path class="st14" d="M1449.6,131.8c-1.6-5.1-6.4-20.4-6.7-21c-0.3-0.5-0.9-0.7-1.2-0.8v21.9L1449.6,131.8L1449.6,131.8z"/>
	<rect x="1441.7" y="135.7" class="st14" width="8.4" height="12.8"/>
	<rect x="1441.7" y="152.4" class="st14" width="8.4" height="16.2"/>
	<rect x="1441.7" y="172.4" class="st14" width="8.4" height="35.9"/>
	<rect x="1441.7" y="212.2" class="st14" width="8.4" height="42.1"/>
	<path class="st15" d="M1446.1,120.7v11.1h3.5C1448.9,129.5,1447.5,125,1446.1,120.7z"/>
	<rect x="1446.1" y="135.7" class="st15" width="4" height="12.8"/>
	<rect x="1446.1" y="152.4" class="st15" width="4" height="16.2"/>
	<rect x="1446.1" y="172.4" class="st15" width="4" height="35.9"/>
	<rect x="1446.1" y="212.2" class="st15" width="4" height="42.1"/>
	<rect x="1432.9" y="133.4" width="17.2" height="0.7"/>
	<rect x="1432.9" y="150.1" width="17.2" height="0.7"/>
	<rect x="1432.9" y="170" width="17.2" height="0.7"/>
	<rect x="1432.9" y="209.9" width="17.2" height="0.7"/>
	<rect x="1384" y="136.6" width="5.6" height="8"/>
	<path class="st14" d="M1375.9,110.8c0.4-0.6,1.1-0.8,1.3-0.9l0,0c0,0,0,0,0.1,0h0.1l0,0c0.3,0.1,1,0.2,1.3,0.9
		c0.4,0.8,7.2,22.7,7.2,22.7v120.8h-8.5h-0.1h-8.5V133.4C1368.7,133.4,1375.5,111.5,1375.9,110.8z"/>
	<path class="st15" d="M1385.5,131.8c-1.6-5.2-6.3-20.3-6.7-21c-0.3-0.5-0.9-0.7-1.2-0.8v21.8H1385.5z"/>
	<rect x="1377.6" y="135.7" class="st15" width="8.4" height="12.8"/>
	<rect x="1377.6" y="212.2" class="st15" width="8.4" height="42.2"/>
	<rect x="1377.6" y="172.4" class="st15" width="8.4" height="35.9"/>
	<rect x="1377.6" y="152.4" class="st15" width="8.4" height="16.2"/>
	<rect x="1368.7" y="133.4" width="17.2" height="0.7"/>
	<rect x="1368.7" y="150.1" width="17.2" height="0.7"/>
	<rect x="1368.7" y="170" width="17.2" height="0.7"/>
	<rect x="1368.7" y="209.9" width="17.2" height="0.7"/>
	<rect x="1388.5" y="156.5" width="41.8" height="0.7"/>
	<path class="st16" d="M1409.7,60.3v-0.2c0,0,0,0-0.1,0.1c-0.1-0.1-0.1-0.1-0.1-0.1v0.2c-2.4,2.6-23.4,26.6-20.8,62.8v169.1h20.8
		h0.2h20.8V123.1C1433.1,86.9,1412.1,62.9,1409.7,60.3z"/>
	<path class="st17" d="M1420.7,76.5v215.7h9.8V123.1C1431.9,103.5,1426.4,87.5,1420.7,76.5z"/>
	<path class="st18" d="M1409.3,120.5v-60c-2.9,3.2-22.2,25.9-20.8,60.1L1409.3,120.5L1409.3,120.5z"/>
	<rect x="1388.7" y="125.8" class="st18" width="20.6" height="166.4"/>
	<rect x="1355.5" y="279.6" class="st19" width="37" height="45.2"/>
	
		<rect x="1425.9" y="279.6" transform="matrix(1 -1.328112e-03 1.328112e-03 1 -0.4001 1.9186)" class="st20" width="37" height="45.2"/>
	<rect x="1395.7" y="310.1" class="st16" width="28.1" height="14.8"/>
	<polygon class="st21" points="1395.7,310.1 1397,322.9 1398,319.5 1399,321.4 1401.6,317.5 1404.8,323.7 1405.9,319.7 
		1406.9,322.1 1407.7,318.7 1409,321.8 1410.3,319 1412.4,323.4 1416.3,315.2 1419.2,323.7 1420,319.6 1421,323 1422.4,316.1 
		1423.4,323.1 1423.7,310.1 	"/>
	<polygon class="st22" points="1395.7,310.1 1396.7,315 1397.4,311.5 1399,314.3 1400,311.8 1401,315.7 1402.3,311.6 1403.9,318.4 
		1404.6,311.7 1405.7,313.5 1406.6,311.4 1407.3,316.1 1408.3,311 1409.7,317.2 1411.8,311.3 1413.4,315.7 1413.9,311.4 1415,312.7 
		1416.5,310.7 1418.1,315.4 1419,310.7 1420.6,319.3 1421.4,311.2 1421.9,312.3 1422.3,311.2 1423,312.6 1423.7,310.1 	"/>
	<g>
		<path class="st17" d="M1430.4,220.8v-65.9l-18.3-18.3l-0.1,0.2c0.2,0.3,0.3,0.6,0.2,1.1c-0.9,11.6-0.3,23.5-0.4,35.2
			c0,6.2-0.1,12.3-0.1,18.5c0,3.6,0.2,7.2,0.1,10.8L1430.4,220.8z"/>
		<path class="st23" d="M1468.4,278.9c0,0-0.5-3.1-1.8-7.8c-1.2-4.7-4.7-7.4-4.7-7.4s-18.9-19.8-23.2-23.4
			c-4.3-3.6-6.5-11.7-6.5-11.7l-9.1-51.3h-13.5h-0.1H1396l-9.1,51.3c0,0-2.2,8.1-6.5,11.7c-4.3,3.6-23.2,23.4-23.2,23.4
			s-3.5,2.7-4.7,7.4c-1.2,4.7-1.8,7.8-1.8,7.8v3h1.2l-1.2,3v2.7l58.7,7.4l0,0l0,0l0,0l0,0l58.7-7.4v-2.7l-1.2-3h1.2v-3H1468.4z"/>
		<polygon class="st20" points="1389.9,290.1 1389.9,303 1394.6,303 1395.7,310.1 1408.3,310.1 1408.3,289.5 		"/>
		<polygon class="st24" points="1352.1,278.7 1409.7,278.7 1409.7,295 1350.9,287.6 1350.9,284.8 1352.1,281.9 1350.9,281.9 
			1350.9,278.9 		"/>
		<path class="st25" d="M1395.7,194.2l-6.1,38c0,0-2.7,7-4.6,8.9c-1.9,1.9-29.1,29-29.1,29l-2.7,8.6h48.2l-1.8-91.6L1395.7,194.2z"
			/>
		<polygon class="st26" points="1429.5,290.1 1429.5,303 1424.8,303 1423.7,310.1 1411.1,310.1 1411.1,289.5 		"/>
		<polygon class="st23" points="1467.3,278.7 1409.7,278.7 1409.7,295 1468.4,287.6 1468.4,284.8 1467.2,281.9 1468.4,281.9 
			1468.4,278.9 		"/>
		<path class="st15" d="M1423.7,194.2l6.1,38c0,0,2.7,7,4.6,8.9c1.9,1.9,29.1,29,29.1,29l2.7,8.6H1418l1.8-91.6L1423.7,194.2z"/>
		<path class="st23" d="M1437.9,244.6c-1.9-1.9-3.2-3.2-3.5-3.5c-1.9-1.9-4.6-8.9-4.6-8.9l-6.1-38l-3.8-7.1l-1.8,91.6h19.9
			L1437.9,244.6L1437.9,244.6z"/>
		<path class="st15" d="M1423.7,269.5c0,0,0.1-81.9,0-91.2s-2.8-19.7-2.8-19.7c-5-23.5-10.7-23.5-11.1-23.4c-0.5,0-6.1,0-11.1,23.4
			c0,0-2.7,10.4-2.8,19.7s0,91.2,0,91.2c-5.6,0-5.8,11.8-5.8,11.8V295h16h3.8h0.1h3.8h16v-13.7
			C1429.5,281.3,1429.3,269.5,1423.7,269.5z"/>
		<path class="st25" d="M1418.6,149.6c-4-13.3-7.8-14.4-8.7-14.4v14.4H1418.6z"/>
		<path class="st25" d="M1423.7,269.5L1423.7,269.5h-13.8V295h19.6v-13.7C1429.5,281.3,1429.3,269.5,1423.7,269.5z"/>
		<path class="st25" d="M1423.7,265.6c0-16.4,0.1-79.2,0-87.3c-0.1-9.3-2.8-19.7-2.8-19.7c-0.4-1.9-0.8-3.6-1.2-5.1h-9.8v112.1
			H1423.7z"/>
		<path class="st15" d="M1423.7,269.5L1423.7,269.5h-3.9c0.6,0.5,1.1,1.1,1.6,1.7l0,0l0.1,0.1l0,0c0.8,0.8,1.3,1.6,1.7,2.6
			c0.5,1,0.8,2.2,0.8,3.6v17.4h5.4v-13.7C1429.5,281.3,1429.3,269.5,1423.7,269.5z"/>
		<path class="st24" d="M1423.7,178.3c-0.1-9.3-2.8-19.7-2.8-19.7c-0.4-1.9-0.8-3.6-1.2-5.1h-2.7v112.1h6.7
			C1423.7,249.2,1423.8,186.4,1423.7,178.3z"/>
		<polygon class="st24" points="1409.7,267.9 1409.7,267.9 1405.5,267.9 1407.9,317.2 1409.7,317.2 1409.7,317.2 1411.5,317.2 
			1413.9,267.9 		"/>
		<polygon class="st26" points="1418.5,162.6 1409.7,158.7 1409.7,158.6 1409.7,158.7 1409.7,158.6 1409.7,158.7 1400.9,162.6 
			1399.5,168.2 1401.9,168.2 1403.1,164.5 1409.7,163.8 1416.3,164.5 1417.5,168.2 1419.9,168.2 		"/>
		<polygon class="st26" points="1419,151.1 1412.9,151.1 1412.9,147.2 1409.7,147.2 1409.7,147.2 1406.5,147.2 1406.5,151.1 
			1400.4,151.1 1400.1,152.1 1409.7,152.1 1409.7,152.1 1419.3,152.1 		"/>
	</g>
	<rect x="1388.7" y="123.1" width="41.8" height="0.7"/>
	<circle class="st22" cx="1378.3" cy="315.1" r="10.5"/>
	<g>
		<path class="st22" d="M1215.6,293.9c-7,0-13.5,2.7-18.3,7c-0.6-5.1-4.9-9-10.2-9c-5.7,0-10.3,4.6-10.3,10.3
			c0,5.7,4.6,10.3,10.3,10.3c0.9,0,1.8-0.1,2.7-0.4c-1,2.9-1.6,6-1.6,9.2c0,0.2,0,0.4,0,0.6c-0.6,0-1.1,0.1-1.6,0.2
			c-3-7-10-11.9-18.1-11.9c-9.2,0-16.9,6.4-19.1,14.9c-2.3-3.2-5.5-5.6-9.4-6.7c1.3-1.7,2-3.8,2-6.1c0-5.6-4.5-10.1-10.1-10.1
			s-10.1,4.5-10.1,10.1c0,3.2,1.5,6.1,3.9,7.9c-3.3,2-5.9,5-7.3,8.7c-2.2-2.5-5.4-4.2-9-4.5c0.9-2,1.4-4.3,1.4-6.6
			c0-9.1-7.4-16.5-16.5-16.5s-16.5,7.4-16.5,16.5c0,2.4,0.5,4.7,1.5,6.7c-0.7-0.1-1.4-0.2-2.2-0.2c-2.6,0-5.1,0.8-7.1,2.1
			c-0.4-3.4-3.3-6.1-6.9-6.1c-3.8,0-6.9,3.1-6.9,6.9s3.1,6.9,6.9,6.9c0.5,0,0.9,0,1.4-0.1c-0.3,1.1-0.5,2.2-0.5,3.4
			c0,7.2,5.9,13.1,13.1,13.1s13.1-5.9,13.1-13.1c0-1.3-0.2-2.6-0.6-3.9c1.5,0.4,3,0.7,4.7,0.7c0.3,0,0.7,0,1-0.1
			c-0.3,1.1-0.5,2.3-0.5,3.6c0,7.4,6,13.5,13.5,13.5c4.9,0,9.2-2.6,11.6-6.6c3.1,5,8.7,8.3,15,8.3c8,0,14.7-5.3,16.9-12.6
			c3.5,5.5,9.6,9.1,16.6,9.1c5.4,0,10.3-2.2,13.9-5.7c1.8,1.2,4,1.8,6.3,1.8c3.4,0,6.5-1.5,8.7-3.8c4.9,4.3,11.2,7,18.3,7
			c15.2,0,27.4-12.3,27.4-27.4C1243,306.2,1230.7,293.9,1215.6,293.9z"/>
		<path class="st22" d="M1525.9,308.1c-1.7,0-3.3,0.2-4.9,0.6c-0.8-1.3-1.7-2.5-2.7-3.7c2.3-2,3.7-4.9,3.7-8.1
			c0-6-4.9-10.9-10.9-10.8c-5.1,0-9.4,3.5-10.5,8.3c-2.3-0.5-4.6-0.8-7-0.8c-16,0-29.3,11.7-31.8,27c-2.8-1.3-5.9-2.1-9.2-2.1
			c-7.4,0-13.8,3.7-17.7,9.3c-4.8-11.5-16.2-19.5-29.4-19.5c-7.6,0-14.5,2.7-20,7.1c-3.4-14-16-24.4-31-24.4c-2.9,0-5.7,0.4-8.3,1.1
			c0-0.4,0.1-0.7,0.1-1.1c0-9.7-7.9-17.5-17.5-17.5c-9.7,0-17.5,7.8-17.5,17.5c0,8.8,6.5,16,14.9,17.2c-0.5,1.1-1,2.2-1.5,3.3
			c-2.8-1.9-6.1-3-9.7-3c-3.2,0-6.3,0.9-8.9,2.5c-4.1-11.7-15.2-20-28.2-20c-9.6,0-18.2,4.6-23.6,11.7c-1.9-0.9-4-1.4-6.2-1.4
			c-6.5,0-12.1,4.2-14.1,10.1c-1.6-0.9-3.4-1.4-5.4-1.4c-6,0-10.9,4.9-10.9,10.9s4.9,10.9,10.9,10.9c3.8,0,7.2-2,9.1-5
			c2.7,2.6,6.3,4.2,10.3,4.2c0.6,0,1.2,0,1.7-0.1c4.1,11.5,15.2,19.8,28.1,19.8c10.1,0,19-5,24.4-12.7c3.2,3.4,7.7,5.5,12.7,5.5
			c4.6,0,8.8-1.8,11.9-4.8c5.5,9.5,15.8,15.9,27.6,15.9c7.6,0,14.5-2.7,20-7.1c2,8.2,7.2,15.2,14.1,19.6h33.8
			c5.5-3.5,10-8.6,12.5-14.7c3.9,5.6,10.4,9.3,17.8,9.3c8.4,0,15.7-4.9,19.3-11.9c5.8,5.2,13.4,8.4,21.8,8.4
			c9.9,0,18.7-4.5,24.6-11.5c2.4,1,5,1.5,7.7,1.5c11.1,0,20.1-9,20-20.1C1546,317.1,1537,308.1,1525.9,308.1z"/>
		<path class="st20" d="M1525,310.7c-3,0-5.9,0.7-8.4,2c-4.3-8.8-13.4-14.8-23.9-14.8c-14.7,0-26.5,11.9-26.5,26.6
			c0,6.3,2.2,12.1,5.9,16.7c-1.3-3.1-2-6.5-2-10.1c0-14.7,11.9-26.6,26.5-26.6c7.7,0,14.6,3.3,19.5,8.5c-6.2,3.2-10.5,9.7-10.5,17.2
			c0,4.6,1.6,8.8,4.3,12.2c-0.9-2.3-1.5-4.8-1.5-7.4c0-10.7,8.7-19.4,19.4-19.4c6.1,0,11.5,2.8,15.1,7.2
			C1540,315.6,1533.1,310.7,1525,310.7z"/>
		<g>
			<path class="st20" d="M1354.7,294.4c-14.7,0-26.6,11.9-26.6,26.6c0,6.3,2.2,12.1,5.9,16.7c-1.3-3.1-2-6.5-2-10.1
				c0-14.7,11.9-26.6,26.6-26.6c8.4,0,15.8,3.9,20.7,9.9C1375.3,301.2,1365.8,294.4,1354.7,294.4z"/>
			<path class="st20" d="M1315,311.7c-2.7,0-5.2,0.8-7.4,2.1c-1.3-2-3.4-3.6-5.8-4.2c-4.3-9-13.4-15.2-24-15.2
				c-9.4,0-17.7,4.9-22.4,12.3c-2-1.7-4.6-2.7-7.4-2.7c-4,0-7.5,2-9.6,5.1c-4.8-7-12.8-11.6-21.9-11.6c-14.7,0-26.6,11.9-26.6,26.6
				c0,6.3,2.2,12.1,5.9,16.7c-1.3-3.1-2-6.5-2-10.1c0-14.7,11.9-26.6,26.6-26.6c6.6,0,12.6,2.4,17.3,6.4c-0.8,1.5-1.2,3.3-1.2,5.1
				c0,2.7,1,5.3,2.6,7.2c-0.6-1.4-0.9-2.8-0.9-4.4c0-2.2,0.6-4.2,1.6-5.9c0.4,0.5,0.9,0.9,1.3,1.4c-0.3-0.7-0.6-1.3-0.9-2
				c2.1-3.1,5.6-5.1,9.6-5.1c1.7,0,3.4,0.4,4.9,1.1c-2.1,3.8-3.4,8.2-3.4,12.9c0,6.3,2.2,12.1,5.9,16.7c-1.3-3.1-2-6.5-2-10.1
				c0-14.7,11.9-26.6,26.6-26.6c7.7,0,14.6,3.3,19.4,8.5c-0.6-0.1-1.2-0.2-1.9-0.2c-5.5,0-9.9,4.4-9.9,9.9c0,2.4,0.8,4.5,2.2,6.2
				c-0.5-1.2-0.7-2.4-0.7-3.8c0-5.5,4.4-9.9,9.9-9.9c2.5,0,4.7,0.9,6.4,2.4c-3.9,2.6-6.4,6.9-6.4,11.9c0,3.4,1.2,6.5,3.2,9
				c-0.7-1.7-1.1-3.5-1.1-5.4c0-7.9,6.4-14.3,14.3-14.3c4.5,0,8.5,2.1,11.1,5.3C1326,315.3,1320.9,311.7,1315,311.7z"/>
		</g>
		<path class="st20" d="M1316.5,298.1c0-7.9,6.4-14.3,14.3-14.3c4.5,0,8.5,2.1,11.1,5.3c-2.1-5.2-7.2-8.9-13.2-8.9
			c-7.9,0-14.3,6.4-14.3,14.3c0,3.4,1.2,6.5,3.2,9C1316.9,301.9,1316.5,300,1316.5,298.1z"/>
	</g>
</g>
<g>
	<path id="XMLID_22_" class="st27" d="M87.4,169.5c-1.2,0-2.4,0-3.6,0c-9.8,0-19.6,0-29.4,0c-1,0-1.3-0.3-1.3-1.3
		c0-8.2,0-16.5,0-24.7c0-1,0.3-1.3,1.2-1.2c0.9,0,2.1,0.4,2.6-0.2c0.5-0.6,0.1-1.7,0.2-2.6c0-1,0-2.1,0-3.1c0-0.6,0.2-0.7,0.7-0.7
		c1.4,0,2.8-0.1,4.1,0c1.2,0.1,1.4-0.4,1.3-1.4c0-1.7,0-3.3,0-5c0.1-4.2,0.1-8.5,0.2-12.7c0.2-7.3,0.3-14.7,0.4-22
		c0.1-3.5,0.1-7.1,0.2-10.6c0.1-4.4,0.7-8.7,1.1-13.1c0-0.1,0-0.1,0-0.2c0.3-1.5,0.1-2.6-1.5-3.4c-1.3-0.6-2.4-1.5-3.6-2.3
		c-0.7-0.4-0.9-0.8-0.7-1.6c1.4-5,2.6-10.1,3.5-15.2c0.2-1.1,0.4-2.3,0.5-3.5c0.1-0.8-0.2-1.3-1.2-1.5c-3.8-0.8-7.5-2.2-11.1-3.4
		c-1.4-0.5-2.8-0.7-4.2-0.7c-4.7,0-9.4,0-14.1,0c-0.7,0-1.1-0.2-1.6-0.8c-2.4-3.5-4.9-7-7.3-10.6c-0.5-0.7-1-1-1.8-1
		c-4.2-0.2-8.5-0.4-12.7-0.9c-2.5-0.3-4.9-1.1-7.3-1.7c-0.3-0.1-0.5-0.3-0.6-0.6c-0.2-0.4-0.4-0.9-0.7-1.3c-1-1.8-1-1.8,1-2.1
		c1.9-0.3,3.8-0.6,5.7-0.9c0.9-0.1,1.6-0.5,1.9-1.4s0.8-1,1.7-1.1c3.8-0.4,7.3,0.4,10.4,2.6c2.1,1.5,4.3,1.9,6.9,1.7
		c6.2-0.4,12.4-0.5,18.6-0.8c1,0,2-0.2,2.9-0.8c1.1-0.8,2.3-1,3.6-1c3.4-0.2,6.8-0.3,10.2-0.4c1.4-0.1,2.7-0.5,4-0.9
		c2.2-0.8,4.3-0.6,6.5-0.2c1.6,0.2,3.2,0.4,4.7,0.6c0.5,0.1,0.6-0.1,0.6-0.5c0.4-4.8,0.1-9.6-0.4-14.4C78.9,1.4,80,0,81.2,0
		c1.8,0,3.6,0,5.4,0c0,31.1,0,62.1,0.2,93.2C87.4,118.8,87.3,144.1,87.4,169.5z"/>
	<path id="XMLID_1_" class="st28" d="M85.9,169.5c1,0,1.9,0,2.9,0c7.8,0,15.6,0,23.4,0c0.8,0,1-0.3,1-1.3c0-8.2,0-16.5,0-24.7
		c0-1-0.2-1.3-1-1.2c-0.7,0-1.7,0.4-2.1-0.2c-0.4-0.6-0.1-1.7-0.2-2.6c0-1,0-2.1,0-3.1c0-0.6-0.2-0.7-0.6-0.7c-1.1,0-2.2-0.1-3.3,0
		c-1,0.1-1.1-0.4-1-1.4c0-1.7,0-3.3,0-5c-0.1-4.2-0.1-8.5-0.2-12.7c-0.2-7.3-0.2-14.7-0.3-22c-0.1-3.5-0.1-7.1-0.2-10.6
		c-0.1-4.4-0.6-8.7-0.9-13.1c0-0.1,0-0.1,0-0.2c-0.2-1.5-0.1-2.6,1.2-3.4c1-0.6,1.9-1.5,2.9-2.3c0.6-0.4,0.7-0.8,0.6-1.6
		c-1.1-5-2.1-10.1-2.8-15.2c-0.2-1.1-0.3-2.3-0.4-3.5c-0.1-0.8,0.2-1.3,1-1.5c3-0.8,6-2.2,8.8-3.4c1.1-0.5,2.2-0.7,3.3-0.7
		c3.7,0,7.5,0,11.2,0c0.6,0,0.9-0.2,1.3-0.8c1.9-3.5,3.9-7,5.8-10.6c0.4-0.7,0.8-1,1.4-1c3.3-0.2,6.8-0.4,10.1-0.9
		c2-0.3,3.9-1.1,5.8-1.7c0.2-0.1,0.4-0.3,0.5-0.6c0.2-0.4,0.3-0.9,0.6-1.3c0.8-1.8,0.8-1.8-0.8-2.1c-1.5-0.3-3-0.6-4.5-0.9
		c-0.7-0.1-1.3-0.5-1.5-1.4s-0.6-1-1.4-1.1c-3-0.4-5.8,0.4-8.3,2.6c-1.7,1.5-3.4,1.9-5.5,1.7c-4.9-0.4-9.9-0.5-14.8-0.8
		c-0.8,0-1.6-0.2-2.3-0.8c-0.9-0.8-1.8-1-2.9-1c-2.7-0.2-5.4-0.3-8.1-0.4c-1.1-0.1-2.1-0.5-3.2-0.9c-1.7-0.8-3.4-0.6-5.2-0.2
		c-1.3,0.2-2.5,0.4-3.7,0.6c-0.4,0.1-0.5-0.1-0.5-0.5c-0.3-4.8-0.1-9.6,0.3-14.4C92.6,1.4,91.7,0,90.8,0c-1.4,0-2.9,0-4.3,0
		c0,31.1,0,62.1-0.2,93.2C85.9,118.8,85.9,144.1,85.9,169.5z"/>
</g>
</svg>
