<?xml version="1.0" encoding="utf-8"?>
<!-- Generator: Adobe Illustrator 22.0.0, SVG Export Plug-In . SVG Version: 6.00 Build 0)  -->
<svg version="1.1" id="Layer_1" xmlns="http://www.w3.org/2000/svg" xmlns:xlink="http://www.w3.org/1999/xlink" x="0px" y="0px"
	 viewBox="0 0 64.5 134.2" style="enable-background:new 0 0 64.5 134.2;" xml:space="preserve">
<style type="text/css">
	.st0{fill:#2D24A3;}
	.st1{fill:#B77053;}
	.st2{fill:#ECE0D3;}
	.st3{fill:#E48868;}
	.st4{fill:#464473;}
	.st5{fill:#734E4F;}
	.st6{fill:#393762;}
	.st7{fill:#BA745D;}
	.st8{fill:#563616;}
	.st9{fill:#202070;}
	.st10{fill:#CFB199;}
	.st11{fill:#4E587F;}
	.st12{opacity:0.73;fill:#FFFFFF;enable-background:new    ;}
	.st13{fill:#FEFEFE;}
	.st14{fill:#E48A6A;}
	.st15{fill:#F86737;}
	.st16{fill:#F86332;}
	.st17{fill:#F86433;}
	.st18{fill:#E38868;}
	.st19{fill:#EADCCF;}
	.st20{fill:#BB7760;}
	.st21{fill:#443C63;}
	.st22{fill:#2E25A2;}
	.st23{fill:#EC902D;}
	.st24{fill:#D73E13;}
	.st25{fill:#3F4482;}
	.st26{fill:#EFC33B;}
	.st27{fill:#49478A;}
	.st28{fill:none;stroke:#E8A12B;stroke-width:0.5;stroke-linecap:round;stroke-linejoin:round;stroke-miterlimit:10;}
	.st29{fill:#430CBC;}
	.st30{fill:#DC5955;}
	.st31{opacity:0.32;fill:#F3F0EB;enable-background:new    ;}
	.st32{fill:#C5CFEF;}
	.st33{fill:#AEB9F4;}
	.st34{fill:#8387FE;}
	.st35{fill:#FE8730;}
	.st36{fill:#AF6144;}
	.st37{fill:#FEBA72;}
	.st38{fill:#CBD2D7;}
	.st39{fill:#6C757D;}
	.st40{fill:#FEDB00;}
	.st41{fill:#FFFFFF;}
	.st42{fill:#5055BC;}
	.st43{fill:#6668CA;}
	.st44{fill:#9198F9;}
	.st45{fill:#535A61;}
	.st46{opacity:0.44;fill:#B4CCE9;enable-background:new    ;}
	.st47{fill:#1A3151;}
	.st48{fill:#EFBFA5;}
</style>
<g>
	<g>
		<g>
			<g>
				<path class="st0" d="M5062.9-5259.3v60.8h3.8c0,0,6.6-27.7,6.9-30.4s-1-11.2-1-11.2l5.7-22L5062.9-5259.3z"/>
			</g>
		</g>
		<g>
			<g>
				<path class="st0" d="M5060.9-5259.3v60.8h-3.8c0,0-6.6-27.7-6.9-30.4s1-11.2,1-11.2l-5.7-22L5060.9-5259.3z"/>
			</g>
		</g>
		<g>
			<g>
				<polygon class="st1" points="5062.5,-5215.3 5062.9,-5195.4 5062.9,-5191.1 5068.4,-5191.1 5066.4,-5194.8 5071.4,-5215.3 				
					"/>
			</g>
		</g>
	</g>
	<g>
		<g>
			<path class="st2" d="M5072.6-5329.2c1.9,4.5,8.4,5.3,10.6,9.6c1.4,2.9,0.3,6.6-1.9,8.9c-2.3,2.3-5.4,3.6-8.6,4.4
				c-7,1.9-14.5,2.4-21.5,0.2c-2.5-0.8-4.9-1.9-6.8-3.6s-3.4-4.1-3.5-6.7s1.1-5.3,3.3-6.6c1.4-0.8,3.1-1,4.2-2.1
				c1.7-1.6,1.7-4.2,1.6-6.6c-0.1-4.3,0.1-8.7,0.7-13c0.4-3.3,1.2-6.8,3.4-9.3c2.5-2.7,6.5-3.7,10.1-2.9s6.5,3.6,8.1,6.9
				s1.9,7.1,1.2,10.7C5072.8-5335.8,5071.3-5332.3,5072.6-5329.2z"/>
		</g>
	</g>
	<g>
		<g>
			<path class="st3" d="M5040.5-5274.9c0,0-2.3,4.2-2.5,5.6s-0.2,2.1,0.9,1.8s-0.1,1.9,1.5,1.7c1.6-0.2,4.3-4.5,4.3-4.5l-2.7-3.7
				L5040.5-5274.9z"/>
		</g>
	</g>
	<g>
		<g>
			<path class="st4" d="M5082.7-5257.9c0,0-1.9-27.7-11.7-42l2.5-13.6c0,0,4.2-3.6,3.3-9.1v-7.5c0,0-11.6-5.5-14.4-5.5
				s-15.3,6.1-15.3,6.1s0,5.2,0,7c0,1.9,0.2,6.1,3,8.7l3.1,13.7c0,0-11.2,12-12.7,43.1C5040.5-5256.8,5065.6-5254,5082.7-5257.9z"/>
		</g>
	</g>
	<g>
		<g>
			<path class="st4" d="M5047-5329.5c-2.2,1.4-3.3,3.1-3.6,4.4s-3.1,28.4-3,32c0.2,3.6-2.8,2.8-1.6,8s-3,4.8-1.1,8.3l0.5,2.8l4,0.9
				l4.1-12l3.6-28.6L5047-5329.5z"/>
		</g>
	</g>
	<g>
		<g>
			<path class="st1" d="M5089.5-5265.6c3.5-0.6-2.3-10.1-6.2-12.6c-3.9-2.5-11.6-4.6-13.6-4.1S5075.9-5263,5089.5-5265.6z"/>
		</g>
	</g>
	<g>
		<g>
			<path class="st1" d="M5069.7-5282.3c-1.7,0-2.3,1.6-2.3,3.4c0,1.9,4.1,21.3,7.2,23s13.6,1.4,14.2-1.9s-1.1-10.8-1.1-10.8
				L5069.7-5282.3z"/>
		</g>
	</g>
	<g>
		<g>
			<polygon class="st1" points="5069.7,-5282.3 5052.2,-5331.9 5049.3,-5330.5 5067.4,-5278.8 			"/>
		</g>
	</g>
	<g>
		<g>
			<path class="st3" d="M5070.9-5299.9l-3.1,1.8c0,0-3.3-1.4-4.2-1.2l0.7,1.9c0,0-5.5,1.5-5.5,1.8s0,1.7,0,1.7l2-0.4
				c0,0-0.2,1,0,1.2s0.7,0.4,0.7,0.4s0.2,0.8,0.6,1.6s0.4,1.4,1.1,1.9s4.9-1.4,5.4-1.8c0.6-0.3,4.5-4.6,4.5-4.6L5070.9-5299.9z"/>
		</g>
	</g>
	<g>
		<g>
			<path class="st5" d="M5085.4-5265c0.6,0,1.2-0.1,1.8-0.2c0.2,0,0.3-0.2,0.2-0.3c0-0.2-0.2-0.3-0.3-0.2c-3.5,0.6-7.5-0.8-10.6-3.9
				c-2.8-2.8-4.6-6.4-6.3-10.1c-0.1-0.1-0.2-0.2-0.4-0.1c-0.1,0.1-0.2,0.2-0.1,0.4c1.7,3.8,3.5,7.4,6.4,10.3
				C5078.8-5266.5,5082.2-5265,5085.4-5265z"/>
		</g>
	</g>
	<g>
		<g>
			<path class="st5" d="M5084.3-5267.8c1.3,0,2.6-0.1,3.9-0.4c0.2,0,0.3-0.2,0.2-0.3c0-0.2-0.2-0.3-0.3-0.2c-1.7,0.3-3.3,0.4-5,0.3
				c-0.2,0-0.3,0.1-0.3,0.3c0,0.2,0.1,0.3,0.3,0.3C5083.5-5267.8,5083.9-5267.8,5084.3-5267.8z"/>
		</g>
	</g>
	<g>
		<g>
			<path class="st5" d="M5078.1-5256.5c0.1,0,0.1,0,0.2-0.1s0.1-0.3,0-0.4c-5.4-6.5-8.7-14.6-9.3-23.1c0-0.2-0.2-0.3-0.3-0.3
				c-0.2,0-0.3,0.2-0.3,0.3c0.6,8.5,3.9,16.8,9.4,23.4C5077.9-5256.5,5078-5256.5,5078.1-5256.5z"/>
		</g>
	</g>
	<g>
		<g>
			<path class="st5" d="M5061.8-5298h0.1c0.2-0.1,0.2-0.2,0.2-0.4l-4-10.9c-0.1-0.2-0.2-0.2-0.4-0.2c-0.2,0.1-0.2,0.2-0.2,0.4
				l4,10.9C5061.5-5298.1,5061.6-5298,5061.8-5298z"/>
		</g>
	</g>
	<g>
		<g>
			<path class="st4" d="M5076.7-5330.1c3,1.4,8,28,7.3,29.2c-0.6,1.2-8,8.9-10.5,9.7l-2.7-8.7l4.7-4.1l-2.2-9.5L5076.7-5330.1z"/>
		</g>
	</g>
	<g>
		<g>
			<path class="st6" d="M5059.1-5321.7C5059.1-5321.7,5059.2-5321.7,5059.1-5321.7c3.1-0.7,5.9-2.5,7.9-4.9c0.1-0.1,0.1-0.3-0.1-0.4
				c-0.1-0.1-0.3-0.1-0.4,0.1c-1.8,2.4-4.5,4.1-7.4,4.7c-0.2,0-0.3,0.2-0.2,0.4C5058.9-5321.8,5059-5321.7,5059.1-5321.7z"/>
		</g>
	</g>
	<g>
		<g>
			<path class="st6" d="M5050.1-5313.7c0.1,0,0.1,0,0.2,0c0.1-0.1,0.2-0.3,0.1-0.4c-1.9-3.1-2.2-7-0.8-10.4l0.1-0.1l-0.1-0.1
				c-0.2-0.4-0.4-0.9-0.6-1.4s-0.4-1-0.7-1.4c-0.1-0.1-0.3-0.2-0.4-0.1s-0.2,0.3-0.1,0.4c0.2,0.4,0.4,0.9,0.7,1.4
				c0.2,0.4,0.4,0.9,0.6,1.3C5047.7-5321,5048-5316.9,5050.1-5313.7C5049.9-5313.8,5050-5313.7,5050.1-5313.7z"/>
		</g>
	</g>
	<g>
		<g>
			<path class="st6" d="M5073.7-5313.7c0.1,0,0.2,0,0.2-0.1c2-3.2,2.3-7.3,0.9-10.8c0.2-0.4,0.4-0.8,0.6-1.3s0.4-0.9,0.6-1.4
				c0.1-0.1,0-0.3-0.1-0.4s-0.3,0-0.4,0.1c-0.2,0.4-0.4,0.9-0.7,1.4c-0.2,0.5-0.4,0.9-0.6,1.4l-0.1,0.1l0.1,0.1
				c1.4,3.3,1.1,7.3-0.8,10.4c-0.1,0.1,0,0.3,0.1,0.4C5073.6-5313.7,5073.7-5313.7,5073.7-5313.7z"/>
		</g>
	</g>
	<g>
		<g>
			<path class="st6" d="M5042.9-5274.3c0.1,0,0.3-0.1,0.3-0.2c0.8-4.4,2.1-8.7,3.6-12.9c0.1-0.2,0-0.3-0.2-0.4
				c-0.1-0.1-0.3,0-0.4,0.2c-1.6,4.2-2.8,8.6-3.6,13C5042.6-5274.5,5042.7-5274.3,5042.9-5274.3L5042.9-5274.3z"/>
		</g>
	</g>
	<g>
		<g>
			<path class="st6" d="M5074.1-5291.7h0.1c0.1-0.1,0.2-0.2,0.2-0.4l-0.9-2.2c-0.1-0.2-0.2-0.2-0.4-0.2c-0.1,0.1-0.2,0.2-0.2,0.4
				l1,2.2C5073.9-5291.7,5074-5291.7,5074.1-5291.7z"/>
		</g>
	</g>
	<g>
		<g>
			<polygon class="st1" points="5061.4,-5215.3 5060.9,-5195.4 5060.9,-5191.1 5055.5,-5191.1 5057.4,-5194.8 5052.5,-5215.3 			"/>
		</g>
	</g>
	<g>
		<g>
			<path class="st3" d="M5064.9-5339.6v6.9c0,0-3.5,5.9-6.7,0.1l0.3-7H5064.9z"/>
		</g>
	</g>
	<g>
		<g>
			<path class="st3" d="M5063.5-5355.9c5.9,0.8,6.9,7.6,5.5,13c-1.1,4-3.5,8.1-7.3,8s-6.1-5.3-6.8-8.5
				C5053.8-5348.5,5054-5357.2,5063.5-5355.9z"/>
		</g>
	</g>
	<g>
		<g>
			<path class="st3" d="M5068.2-5344.4c0,0,0.2-2.3,2.1-1.5c1.8,0.8-0.4,5.9-2.4,5.3S5068.2-5344.4,5068.2-5344.4z"/>
		</g>
	</g>
	<g>
		<g>
			<path class="st3" d="M5056-5344.5c0,0-0.1-2.3-1.9-1.7c-1.9,0.6,0,5.9,2.1,5.4C5058.2-5341.1,5056-5344.5,5056-5344.5z"/>
		</g>
	</g>
	<g>
		<g>
			<path class="st7" d="M5061.6-5334.6c0.9,0,1.8-0.2,2.6-0.7c0.1-0.1,0.2-0.3,0.1-0.4s-0.3-0.2-0.4-0.1c-1.4,0.9-3.4,0.8-4.8-0.2
				c-0.1-0.1-0.3-0.1-0.4,0.1c-0.1,0.1-0.1,0.3,0.1,0.4C5059.6-5334.8,5060.6-5334.6,5061.6-5334.6z"/>
		</g>
	</g>
	<g>
		<g>
			<path class="st8" d="M5058.7-5352.2c-0.1,3.6,0.6,7.3,2.5,10.4s5.1,5.4,8.7,5.8c1.3-3.1,2.2-6.5,1.9-9.9
				c-0.4-3.3-1.9-6.6-4.6-8.6s-6.6-2.5-9.5-0.9c-2.5,1.4-4,4-4.6,6.8c-0.7,2.7-0.6,4.3-0.5,7.1
				C5056.6-5343.8,5059.2-5347.5,5058.7-5352.2z"/>
		</g>
	</g>
</g>
<g>
	<g>
		<g>
			<g>
				<g>
					<g>
						<path class="st3" d="M5194.1-5319.7l-2.5-9.5c0,0-3.6,1-5.2-0.6c-0.7-0.6-1.3-3.4-1.5-7.8c0-0.5-1.8,0.5-1.8,0
							c0-0.9,3.1-5.2,2.9-7c-1-6.4-0.5-8.1,1.4-9.9c4.1-4,18.5-4.6,20.4,2.4c2,7,1.3,10.4-2.2,20.3l2.2,9.9L5194.1-5319.7z"/>
					</g>
				</g>
			</g>
			<g>
				<g>
					<path class="st2" d="M5191.2-5315.1l-3.2-8c0,0,9.7-6.7,19.1-7.3l2,4.1L5191.2-5315.1z"/>
				</g>
			</g>
			<g>
				<g>
					<path class="st6" d="M5158.7-5137.6l-3.7,11.1c0,0-11.3,0.7-11.6,1.5l16.3,4.5l4.3-15.6L5158.7-5137.6z"/>
				</g>
			</g>
			<g>
				<g>
					<polygon class="st6" points="5244.6,-5119.6 5253.9,-5119.6 5260.7,-5124.9 5252.3,-5138.6 5247.7,-5135.8 5253.2,-5125.6 
						5251.5,-5121.5 					"/>
				</g>
			</g>
			<g>
				<g>
					<polygon class="st0" points="5182.5,-5239.7 5154.3,-5129.8 5163.7,-5127.4 5186.4,-5185.8 5202.3,-5216.6 5220.1,-5170.8 
						5249.9,-5127.9 5256.8,-5132.9 5232.6,-5188.8 5224.8,-5239.7 					"/>
				</g>
			</g>
			<g>
				<g>
					<path class="st9" d="M5208-5329.9c0,0-8.7,2.7-13,7.7c-4.4,5-11.4,19.5-11.5,21.1c-0.2,1.6,2.2,19.5,2.2,19.5l-7.8,47.3
						c0,0,33.4,5.2,50.1,0l-8.7-39.1c0,0,1.2-13.8,2.7-15.4s-1.1-15.3-2.2-21.6s-6.1-13.6-7.8-15.1S5208-5329.9,5208-5329.9z"/>
				</g>
			</g>
			<g>
				<g>
					<path class="st10" d="M5185.6-5299.3c0.2,0,0.3-0.1,0.4-0.3c1-2.5,3.6-5.9,6.1-7.6l0.2-0.1v-0.5c0.1-1.8,0.1-3.8-0.1-5.6
						c1.3-0.6,2.6-1.1,3.9-1.4l0.3-0.1v-0.3c0.3-1.8,1.6-3.4,2.9-5c0.7-0.8,1.4-1.7,1.9-2.6c0.1-0.2,0.1-0.5-0.1-0.6
						s-0.5-0.1-0.6,0.1c-0.5,0.8-1.2,1.6-1.9,2.5c-1.3,1.6-2.6,3.2-3,5.2c-1.4,0.4-2.7,0.9-4,1.5l-0.3,0.1v0.3
						c0.2,1.8,0.2,3.9,0.1,5.7v0.1c-2.6,1.9-5.2,5.2-6.2,7.9c-0.1,0.2,0,0.5,0.2,0.5C5185.5-5299.3,5185.5-5299.3,5185.6-5299.3z"/>
				</g>
			</g>
			<g>
				<g>
					<path class="st6" d="M5185.2-5361.3c0.6-0.2,1.3-0.4,2.2-0.5c3.5-0.6,5.9,1.5,9.1,1.7c2.3,0.2,4.5-0.9,6.9-0.9
						c1.8,0,3.7,0.5,5,1.8s1.8,3.7,0.9,5.4c4.6,1.9,1.4,9.9,0,13.5c-1.4,3.5-3.8,8.6-3.8,8.6l-4.7-4.6c0,0,3.6-4.2,2-6
						c-1.6-1.9-3.2,1-3.2,1s-0.1,1.2-0.2,2.7c-0.8-0.6-1.6-1.1-2.5-1.5h-0.1l-0.2-6.1c0,0-4.9,1.6-5.8-2.5
						C5184-5349.9,5177.4-5358.5,5185.2-5361.3z"/>
				</g>
			</g>
		</g>
		<g>
			<path class="st10" d="M5207.3-5231.5c5.9,0,11.5-0.3,16.6-1c0.2,0,0.4-0.2,0.4-0.5c0-0.2-0.2-0.4-0.5-0.4
				c-11.5,1.5-25.3,1.3-41-0.6c-0.2,0-0.4,0.1-0.5,0.4c0,0.2,0.1,0.4,0.4,0.5C5191.5-5232.1,5199.7-5231.5,5207.3-5231.5z"/>
		</g>
	</g>
	<g>
		<g>
			<g>
				<path class="st3" d="M5147.8-5296c-0.5-1.2-0.2-5.1,0.3-4.7s0.9,2.5,0.9,2.5l0.2,1c0,0,0.8-0.3,0.8,0s0.3,1.6,0.3,1.6l0.1,2.5
					L5147.8-5296z"/>
			</g>
		</g>
		<g>
			<g>
				<polygon class="st11" points="5153.9,-5291.1 5150.9,-5301.9 5148.5,-5310.5 5145.4,-5309.4 5151.2,-5290.8 				"/>
			</g>
		</g>
		<g>
			<g>
				<path class="st3" d="M5184.7-5284.7l-2.5,9.8c0,0-25.1-9.8-26.4-10.3c0,0-3.8-3-4.6-3.6s-3.2-6.6-3.4-7.2s4.5-0.9,4.5-0.9
					s0.1-2.9,0.4-3.8c0.1-0.5,1.2-2.8,1.7-1.2l1,4.4l1.5,1.5c0.8,1.1,1.6,5.5,1.6,5.5L5184.7-5284.7z"/>
			</g>
		</g>
		<g>
			<g>
				<path class="st9" d="M5186.6-5285c0,0-2.6-7.4-7.6-4.4c-4.9,3-5.5-0.7-5.5-0.7l-13.3-3.7l-4.3,8.6l28.7,12.3L5186.6-5285z"/>
			</g>
		</g>
	</g>
	<g>
		<path class="st10" d="M5192.3-5286.1l0.1-0.4c2.9-10.4,9-20,14.5-28c2.5-3.5,4.9-5.1,7.2-4.7c0.2,0.1,0.4-0.1,0.5-0.3
			c0-0.2-0.1-0.4-0.3-0.5c-2.6-0.5-5.4,1.2-8,5c-5.5,8-11.6,17.5-14.5,27.9l-4.9-1.4c-0.2-0.1-0.5,0.1-0.5,0.3
			c-0.1,0.2,0.1,0.5,0.3,0.5L5192.3-5286.1z"/>
	</g>
	<g>
		<path class="st10" d="M5196.6-5270.1c0.5,0,1,0,1.5-0.1c2.5-0.4,4.3-2,5.5-3.3c1.5-1.6,2.5-3.4,3.6-5.2c0.1-0.2,0.1-0.5-0.1-0.6
			s-0.5-0.1-0.6,0.1c-1,1.7-2.1,3.5-3.5,5.1c-1.1,1.1-2.8,2.6-5,3c-2.7,0.5-5.6-0.7-7.9-1.7c-0.2-0.1-0.5,0-0.5,0.2
			c-0.1,0.2,0,0.5,0.2,0.5C5191.7-5271.1,5194.1-5270.1,5196.6-5270.1z"/>
	</g>
</g>
<path class="st12" d="M4529.6-5495.4c0,2.4,0,4.8,0,8.5c-1.8-1.5-4.4-2.9-4.2-3.6c0.6-2,2.2-3.7,3.4-5.6
	C4529-5495.9,4529.3-5495.7,4529.6-5495.4z"/>
<path class="st13" d="M89.5,21.6c-0.3-0.3-0.6-0.7-0.9-1C88.9,21,89.2,21.3,89.5,21.6z"/>
<path class="st13" d="M89.5,21.6c-0.3-0.3-0.6-0.7-0.9-1C88.9,21,89.2,21.3,89.5,21.6z"/>
<g>
	<g id="_x37_o2STE.tif">
		<g>
			<path class="st14" d="M229.6-46c-4.9,0.4-9.9,0.8-14.8,1.3c-5.6,0.5-6.6-4.6-9.3-7.7c0-2,0-4,0-6c10.3-9.4,20.7-18.7,30.7-28.5
				c3.1-3,5.1-7.3,7.1-11.3c1.7-3.4,3.3-5.2,6.8-2c0.6,0.5,2-0.1,2.7,0.9c-4.9,1.6-5.4,5-3.9,9.3c0.4,1.2,0.5,2.6,0.7,3.9
				c0.3,1.2,0,3.1,1.6,3.2c1.8,0.1,2.1-1.7,2.4-3.2c0.3-1.4,0.4-2.9,1.7-4c1.6,1,2.2,2.5,2.8,4.1c-1.9,5.5-6.7,5.7-11.3,5.9
				c-2.2,0.1-4.1-0.1-5.7,2c-4,5.6-8.3,11.1-12.5,16.6c-0.9,1.7-1.1,3.3-0.6,5.2C228.7-52.9,229.1-49.4,229.6-46z"/>
			<path class="st15" d="M273.5,209.6c0.5-5.5,2.4-10.7,4.1-16c2.6,0,5.2,0,7.9,0c0,0.3,0.2,0.7,0.1,1c-2.8,7.4,0.6,11.9,7,15
				C286.1,209.6,279.8,209.6,273.5,209.6z"/>
			<path class="st15" d="M244.3,193.6c-0.3,5.3-0.6,10.6-0.9,16c-6.7,0-13.3,0-20,0c0.3-0.3,0.6-0.8,1.1-0.9
				c7.7-2.1,12.3-6.6,12-15.1C239.1,193.6,241.7,193.6,244.3,193.6z"/>
			<path class="st16" d="M229.6-46c-0.5-3.4-0.9-6.9-1.7-10.3c-0.5-2-0.3-3.6,0.6-5.2c2.5,0.3,4.4-1.4,6.5-2.2
				c9.6-3.8,18.5-9.5,29-11.2c8.5,6.9,9.9,7,19.6,1.5c1-0.6,2.1-0.8,3.2-1.3c9.1,2.8,17.6,7,26,11.3c2.3,1.1,3.5,3,4.4,5.2
				c2.9,7.1,5.6,14.2,8.7,21.2c1.3,3,0.3,4.1-2.3,5.1c-2.4,0.9-5.1,1.4-7.1,3.5c-1.9-0.1-3.4,1.2-5.1,1.5c-4.5,0.8-5.5,3.8-4.6,7.6
				s0.3,7.6,1,11.3c1.1,5.9,0.3,11.8,1.3,17.6c0.4,8,1.8,15.9,1.5,23.9c-21.3,1.7-42.6,3.3-63.9,5c-0.1-23.5-0.2-47-0.3-70.5
				c0-6.6,0-6.6-6.8-5.6c-1,0.1-2,0.1-3,0.3c-3.9,1.2-5.4-0.7-5.7-4.3C230.6-43.1,230-44.6,229.6-46z M282.5,2.6
				c-0.3-0.3-0.7-0.7-1-1c-1.9-4.1-4.9-7.1-9-9c-0.3-0.3-0.7-0.7-1-1c0-0.8-0.2-1.6-1-2c-0.1-1.3-0.7-2-2-2c0-0.8-0.2-1.6-1-2
				c-0.1-0.7-0.2-1.6-1.3-1.5c-0.1,0-0.3,0.2-0.3,0.3c-0.1,1.1,0.7,1.2,1.5,1.3c0,0.8,0.2,1.6,1,2c0.1,1.3,0.7,2,2,2
				c0,0.8,0.2,1.6,1,2c0.3,0.3,0.7,0.7,1,1c1.9,4.1,4.9,7.1,9,9C281.8,2,282.1,2.3,282.5,2.6c0.1,0.2,0.3,0.3,0.4,0.5
				C282.8,2.9,282.6,2.7,282.5,2.6z M285.5,4.6c-0.2-0.1-0.3-0.3-0.5-0.4C285.1,4.3,285.3,4.5,285.5,4.6c0,0.8,0.1,1.6,1.2,1.6
				c0.1,0,0.3-0.2,0.3-0.3C287.1,4.7,286.2,4.7,285.5,4.6z M274.4,14.6c0,0.8,0.2,1.6,1,2c0.1,1.3,0.7,2,2,2c0.1,1,0.3,2,1.4,2.3
				c0.1,0,0.4-0.2,0.4-0.3c0.1-1.2-0.8-1.7-1.6-2.1c-0.1-1.2-0.7-2-2-2C275.5,15.7,275.3,15,274.4,14.6c-0.1-0.8-0.1-1.6-1.2-1.6
				c-0.1,0-0.3,0.2-0.3,0.3C272.9,14.4,273.7,14.5,274.4,14.6z M290.5,8.6c-0.1-0.8-0.2-1.6-1.3-1.5c-0.1,0-0.3,0.2-0.3,0.3
				C288.9,8.5,289.7,8.5,290.5,8.6c0.4,0.9,0.9,1.8,2.1,1.6c0.2,0,0.5-0.5,0.4-0.7C292.5,8.3,291.4,8.7,290.5,8.6z M263.5-20.4
				c-0.2-0.1-0.3-0.3-0.5-0.4C263.1-20.7,263.3-20.5,263.5-20.4c0.1,1-0.4,2.1,0.9,2.6c0.2,0.1,0.7-0.2,0.7-0.4
				C265.2-19.5,264.3-19.9,263.5-20.4z M308.2-47.6c-3.7,5.9-4.6,13.9-1.9,17.5C305.7-36,307.3-41.8,308.2-47.6z M265.4-0.5
				c-0.2-3.4-1.8-5.3-3.1-7.4C262.3-5.2,262.6-2.8,265.4-0.5z M261.7-23c0-2.4-0.9-4.3-3-6.5C258.6-26.3,259.8-24.5,261.7-23z
				 M311.3-54.9c-2.2,2.3-2.2,2.3-1.9,5.2C310.4-51.5,311.6-52.7,311.3-54.9z M294.4,11c1.3,1.9,2.5,2.7,4.6,2.2
				C297.9,11.5,296.7,10.9,294.4,11z M270,8.3c0.2-1.7-0.2-2.9-2-3.4C267.8,6.6,268.1,7.8,270,8.3z M272.1,10.7
				c-0.1-0.2-0.2-0.6-0.4-0.7c-0.2-0.1-0.5,0.2-0.8,0.3c0.2,0.3,0.4,0.6,0.6,0.9C271.7,11,271.9,10.9,272.1,10.7z"/>
			<path class="st17" d="M337.5,69.4c0.3,0,0.7,0.2,1,0.1c10.3-1.8,10.3-1.8,13.1,8.1c4.2,14.5,8.3,29.1,12.7,43.6
				c1.2,4,0.2,5.4-3.7,6.1c-5.1,0.8-10.1,2.2-15.1,3.4c-10.5,1.8-20.9,5-31.9,4.6c-0.5-15.2-2.3-30.9-2.1-46.7
				c1.6,4.5,1.8,9.3,2.1,14c0.1,0.9,0.1,3.4,1.3,2.2c2.3-2.3,1.6-0.2,1.8,0.8c0.3,1.3,0.6,2.6,0.9,3.9c1.6,7.5,3.3,15,4.9,22.5
				c0.5-0.1,1-0.2,1.5-0.3c-3.7-17.4-7.4-34.8-11.2-52.2c-0.3,0.1-0.7,0.1-1,0.2c-0.1,2.4-0.2,4.9-0.3,7.3c-1.3-2.6-0.4-5.4-1-8.1
				c0.3-1.6-0.3-3.7,2.1-4.2c0.9,0,1.7-0.1,2.6-0.1C322.5,72.8,330,71.1,337.5,69.4z"/>
			<path class="st14" d="M285.4,193.6c-2.6,0-5.2,0-7.9,0c1.4-17.5,2.9-35.1,4.3-52.6c0.9-10.8,1.8-21.5,2.7-32.3
				c5.6,0,11.3-0.1,16.9-0.1c0.2,5.5-1.3,10.8-1.5,16.3c-0.2,3.9-2,7.8-0.1,11.7C295.6,155.8,290.7,174.7,285.4,193.6z"/>
			<path class="st14" d="M309,9.6c-1.1-5.8-0.2-11.8-1.3-17.6c-0.7-3.7-0.1-7.5-1-11.3s0.1-6.7,4.6-7.6c1.7-0.3,3.2-1.7,5.1-1.5
				c2.5,12.5,4.9,25,7.4,37.5c3.2,15.6,6.4,31.1,10.7,46.4c-0.4,0.4-0.7,0.7-1.1,1.1c-2.9-1.4-5.7,0.1-8.6,0.4
				c-3.3,0.4-7,1.8-7.1-4.3c0-2.5,0-4.6,1.6-6.2c2.2-2.3,2.1-4.5,1.1-7.2c-3.2-8.7-6.1-17.5-9.3-26.2C310.8,11.8,310.8,10,309,9.6z"
				/>
			<path class="st18" d="M286.7-74.7c-1.1,0.4-2.2,0.7-3.2,1.3c-9.7,5.4-11.1,5.3-19.6-1.5c0.6-4.6,2.3-9.5-3.1-12.7
				c-0.9-1.5-2-2.9-2.7-4.6c-1-2.3-1.8-4.7,1.3-6.2c1.2,0.3,1,2.7,2.9,2c0.6-11.2,2.1-12.7,13.2-13c1.2,0,2.4,0,3.4-0.4
				c2.2-0.8,3.1-0.5,3.7,2.1c0.8,3.7,2.4,7.2,3.8,11.2c1.7-1.7,0.4-4.2,2.5-5.1c3.9,1.5,4.3,4.6,0.9,9.2c-3.3,4.4-4.5,9.3-4.3,14.7
				C285.5-76.4,285.8-75.5,286.7-74.7z M283.5-80.4c-0.3,0.3-0.7,0.7-1,1c-0.1,0.1-0.2,0.1-0.3,0.2c-0.1,0-0.1,0.2-0.1,0.3
				c0.1-0.1,0.3-0.3,0.4-0.4C282.8-79.7,283.1-80.1,283.5-80.4c0.1,0,0.3-0.1,0.3-0.2c0.1,0,0-0.2,0.1-0.3
				C283.7-80.7,283.6-80.5,283.5-80.4z M267.5-79.4c-0.1-0.4-0.2-0.9-0.4-1.3c-0.1,0.1-0.3,0.2-0.4,0.2
				C267-80.1,267.2-79.8,267.5-79.4c0.4,0.8,1.2,1,2,1c2.1,3.5,5.2,1.5,8.1,1.4c-2.7-0.5-5.4-0.9-8-1.4
				C269-79.2,268.3-79.4,267.5-79.4z"/>
			<path class="st19" d="M299.9,136.6c-1.9-3.9-0.1-7.8,0.1-11.7c0.2-5.4,1.7-10.8,1.5-16.3c0.2-1.1,0.3-2.1,0.5-3.2l0.1-0.4
				c0.8-7,1.9-14.1,2.3-21.1c0.2-4.3,1.6-6.1,5.9-5.1c0.6,2.7-0.3,5.5,1,8.1c0,0.6,0.1,1.1,0.1,1.7c-0.2,15.8,1.6,31.5,2.1,46.7
				c11.1,0.4,21.4-2.8,31.9-4.6c-0.1,9-0.1,9.3-9,8.8C324.2,138.8,312.1,137.6,299.9,136.6z"/>
			<path class="st20" d="M288.8-101.6c-2,0.9-0.8,3.4-2.5,5.1c-1.4-4-3-7.5-3.8-11.2c-0.6-2.6-1.5-2.9-3.7-2.1
				c-1.1,0.4-2.3,0.3-3.4,0.4c-11.1,0.3-12.6,1.8-13.2,13c-1.9,0.7-1.7-1.7-2.9-2c0-1.1,0-2.2-0.9-3c0-1.3,0.1-2.6,0.1-4
				c0.2-9,4.7-14.3,12.6-15c9.4-0.8,14.3,2.8,16.3,12C288-106.1,288.4-103.9,288.8-101.6z"/>
			<path class="st21" d="M258.5-101.4c0.9,0.8,1,1.9,0.9,3c-3,1.5-2.3,3.9-1.3,6.2c0.7,1.6,1.8,3,2.7,4.6c-0.9,0.5-1.9,1.1-2.8,1.6
				c-0.6-1.6-1.2-3.1-2.8-4.1c-1.3,1.1-1.4,2.7-1.7,4c-0.3,1.5-0.6,3.3-2.4,3.2c-1.6-0.1-1.4-2-1.6-3.2c-0.3-1.3-0.3-2.7-0.7-3.9
				c-1.5-4.3-1-7.7,3.9-9.3C254.6-100,256.6-100.7,258.5-101.4z"/>
			<path class="st20" d="M335.5,65.8c-0.7-3.1-1.4-6.1-2-9.2c0.4-0.4,0.7-0.7,1.1-1.1C337.6,58.7,336.5,62.3,335.5,65.8z"/>
			<path class="st22" d="M311.8,50.4c0.6,5.5,1.1,11,1.7,16.5c-1.6,2.4-0.7,5.1-1.1,7.7c-2.4,0.5-1.8,2.6-2.1,4.2
				c-4.3-1-5.7,0.8-5.9,5.1C304,91,302.9,98,302.1,105c-6.9,0-13.8,0-20.6,0c6.9,2.6,13.7,1.3,20.5,0.4c-0.2,1.1-0.3,2.1-0.5,3.2
				c-5.6,0-11.3,0.1-16.9,0.1c-4.4,0.7-5.3-1.4-5.4-5.5c-0.2-11.5-1-22.9-2.4-34.5c-2.4,8.5-4.8,17.1-7.2,25.6
				c-1,3.5-2.3,7-2.8,10.6c-0.5,3.3-2.3,4-5.1,3.9c-6.3,0-12.5,0-18.8,0c-5.2,0.7-5.5-1.7-4.9-6.2c2.8-19.6,5.1-39.2,7.6-58.8
				c0.2-1.8,0.1-3.7,1.1-5.3c21.3-1.7,42.6-3.3,63.9-5c1.4,5.4,1,10.9,1.3,16.3c-1.1-0.4-2.2-0.8-3.2-1.2c-0.3-0.3-0.7-0.7-1-1
				s-0.7-0.7-1-1c-1.2-3.5-0.4-7.6-2.9-10.8c0.3,3.8-0.7,7.9,2.8,10.9c0.3,0.3,0.7,0.7,1,1s0.7,0.7,1,1
				C308.7,50.8,310.3,50.6,311.8,50.4z M278.2,58.8c3.9-6.2,1.2-13.1,3.1-19.4c-0.5-0.1-1.1-0.1-1.6-0.2c-0.1,3.1-0.3,6.3-0.4,10.1
				c-1.8-3.5,0.5-7.2-2.3-9.9C278,45.8,277.1,52.3,278.2,58.8z M255.3,106.2c-4.7-2.3-9.4-1.6-14.1-1.4c0,0.5,0,0.9,0,1.4
				C245.9,106.2,250.6,106.2,255.3,106.2z M254.9,39.1c-0.4,2.5-0.8,5.1-1.2,7.6C255.3,44.4,257,42,254.9,39.1z M249.2,52.2
				c-1,0.7-1.7,0.9-1.9,1.4c-0.5,1,0.6,1,1,0.8c0.5-0.2,1-0.6,1.4-1.1C249.8,53.2,249.4,52.6,249.2,52.2z"/>
			<path class="st14" d="M242.8,108.7c6.3,0,12.5,0,18.8,0c-1.8,18.2-7,35.8-10.6,53.7c-2.1,10.4-4.5,20.8-6.7,31.1
				c-2.6,0-5.2,0-7.8,0c0.6-26.4,1.2-52.8,5.7-78.9C242.5,112.7,242.6,110.7,242.8,108.7z"/>
			<path class="st23" d="M308.2-47.6c-0.8,5.8-2.5,11.6-1.9,17.5C303.5-33.7,304.4-41.7,308.2-47.6z"/>
			<path class="st23" d="M281.4,1.6c-4.1-1.9-7.1-4.9-9-9l0.1-0.1C276.6-5.6,279.6-2.5,281.4,1.6C281.5,1.6,281.4,1.6,281.4,1.6z"/>
			<path class="st23" d="M265.4-0.5c-2.8-2.3-3.2-4.8-3.1-7.4C263.6-5.8,265.2-3.9,265.4-0.5z"/>
			<path class="st23" d="M261.7-23c-1.8-1.5-3-3.3-3-6.5C260.8-27.2,261.7-25.3,261.7-23z"/>
			<path class="st23" d="M311.3-54.9c0.3,2.2-0.9,3.4-1.9,5.2C309-52.6,309-52.6,311.3-54.9z"/>
			<path class="st23" d="M294.4,11c2.2-0.1,3.5,0.5,4.6,2.2C296.9,13.7,295.7,12.9,294.4,11z"/>
			<path class="st23" d="M270,8.3c-1.9-0.6-2.2-1.7-2-3.4C269.8,5.5,270.2,6.6,270,8.3z"/>
			<path class="st23" d="M263.5-20.4c0.8,0.5,1.7,1,1.5,2.2c0,0.2-0.5,0.5-0.7,0.4C263.1-18.3,263.6-19.5,263.5-20.4L263.5-20.4z"/>
			<path class="st23" d="M290.5,8.6c0.9,0.1,2-0.3,2.5,1c0.1,0.2-0.2,0.7-0.4,0.7C291.4,10.4,290.9,9.5,290.5,8.6L290.5,8.6z"/>
			<path class="st23" d="M270.4-10.4c-1.3-0.1-1.9-0.8-2-2l0.1-0.1C269.8-12.4,270.4-11.7,270.4-10.4
				C270.5-10.4,270.4-10.4,270.4-10.4z"/>
			<path class="st23" d="M267.4-14.4c-0.8-0.1-1.6-0.2-1.5-1.3c0-0.1,0.2-0.3,0.3-0.3C267.3-16,267.4-15.2,267.4-14.4L267.4-14.4z"
				/>
			<path class="st23" d="M277.5,18.6c0.8,0.5,1.7,0.9,1.6,2.1c0,0.1-0.3,0.3-0.4,0.3C277.7,20.6,277.5,19.7,277.5,18.6L277.5,18.6z"
				/>
			<path class="st23" d="M277.4,18.6c-1.3-0.1-1.9-0.8-2-2l0.1-0.1C276.8,16.6,277.4,17.3,277.4,18.6L277.4,18.6z"/>
			<path class="st23" d="M274.4,14.6c-0.8-0.1-1.6-0.2-1.5-1.3c0-0.1,0.2-0.3,0.3-0.3C274.3,13,274.4,13.8,274.4,14.6L274.4,14.6z"
				/>
			<path class="st23" d="M272.1,10.7c-0.2,0.2-0.4,0.3-0.6,0.5c-0.2-0.3-0.4-0.6-0.6-0.9c0.3-0.1,0.6-0.3,0.8-0.3
				C271.9,10.1,272,10.4,272.1,10.7z"/>
			<path class="st23" d="M290.4,8.6c-0.7-0.1-1.6-0.2-1.5-1.3c0-0.1,0.2-0.3,0.3-0.3C290.3,7,290.4,7.8,290.4,8.6
				C290.5,8.6,290.4,8.6,290.4,8.6z"/>
			<path class="st23" d="M285.5,4.6c0.7,0.1,1.6,0.2,1.5,1.3c0,0.1-0.2,0.3-0.3,0.3C285.6,6.2,285.5,5.4,285.5,4.6L285.5,4.6z"/>
			<path class="st23" d="M274.5,14.6c0.8,0.4,1,1.2,1,2l-0.1,0.1C274.6,16.2,274.4,15.5,274.5,14.6L274.5,14.6z"/>
			<path class="st23" d="M271.4-8.4c-0.8-0.4-1-1.2-1-2l0.1-0.1C271.3-10,271.5-9.3,271.4-8.4C271.5-8.4,271.4-8.4,271.4-8.4z"/>
			<path class="st23" d="M267.5-14.4c0.8,0.4,1,1.2,1,2l-0.1,0.1C267.6-12.8,267.4-13.5,267.5-14.4
				C267.4-14.4,267.5-14.4,267.5-14.4z"/>
			<path class="st23" d="M263.4-20.4c-0.1-0.2-0.3-0.3-0.4-0.5C263.2-20.7,263.3-20.6,263.4-20.4C263.5-20.4,263.4-20.4,263.4-20.4z
				"/>
			<path class="st23" d="M285.4,4.6c-0.1-0.2-0.3-0.3-0.4-0.5C285.2,4.3,285.3,4.4,285.4,4.6L285.4,4.6z"/>
			<path class="st23" d="M282.5,2.6c0.1,0.2,0.3,0.3,0.4,0.5C282.7,2.9,282.6,2.8,282.5,2.6L282.5,2.6z"/>
			<path class="st23" d="M282.4,2.6c-0.3-0.3-0.7-0.7-1-1l0.1-0.1C281.8,1.9,282.2,2.2,282.4,2.6L282.4,2.6z"/>
			<path class="st23" d="M272.4-7.4c-0.3-0.3-0.7-0.7-1-1l0.1-0.1C271.8-8.1,272.2-7.8,272.4-7.4C272.5-7.4,272.4-7.4,272.4-7.4z"/>
			<path class="st24" d="M311.4,88.6c0-0.6-0.1-1.1-0.1-1.7c0.1-2.4,0.2-4.9,0.3-7.3c0.3-0.1,0.7-0.1,1-0.2
				c3.7,17.4,7.4,34.8,11.2,52.2c-0.5,0.1-1,0.2-1.5,0.3c-1.6-7.5-3.3-15-4.9-22.5c-0.3-1.3-0.6-2.6-0.9-3.9c-0.2-1,0.4-3.1-1.8-0.8
				c-1.2,1.2-1.2-1.3-1.3-2.2C313.2,97.8,313,93.1,311.4,88.6z"/>
			<path class="st20" d="M312.4,74.5c0.4-2.5-0.5-5.3,1.1-7.7c0.7-1.6,1.5-3.2,2.9-6.1c0.6,5.7-1.7,9.6-1.4,13.7
				C314.1,74.5,313.3,74.5,312.4,74.5z"/>
			<path class="st20" d="M269.5-78.4c2.7,0.5,5.4,0.9,8,1.4C274.7-76.9,271.5-74.9,269.5-78.4L269.5-78.4z"/>
			<path class="st20" d="M269.5-78.4c-0.8,0-1.6-0.2-2-1l0,0C268.3-79.4,269-79.2,269.5-78.4L269.5-78.4z"/>
			<path class="st20" d="M267.5-79.4c-0.3-0.4-0.5-0.7-0.8-1.1c0.1-0.1,0.3-0.2,0.4-0.2C267.2-80.3,267.3-79.8,267.5-79.4
				L267.5-79.4z"/>
			<path class="st20" d="M282.5-79.4c-0.1,0.1-0.3,0.3-0.4,0.4c0-0.1,0-0.2,0.1-0.3C282.2-79.3,282.3-79.4,282.5-79.4L282.5-79.4z"
				/>
			<path class="st20" d="M283.5-80.4c-0.3,0.3-0.7,0.7-1,1l0,0C282.8-79.7,283.1-80.1,283.5-80.4L283.5-80.4z"/>
			<path class="st20" d="M283.5-80.4c0.1-0.1,0.3-0.3,0.4-0.4c0,0.1,0,0.2-0.1,0.3C283.7-80.5,283.6-80.4,283.5-80.4L283.5-80.4z"/>
			<path class="st25" d="M302,105.4c-6.8,0.8-13.6,2.1-20.5-0.4c6.9,0,13.8,0,20.6,0L302,105.4z"/>
			<path class="st25" d="M308.5,48.6c1.1,0.4,2.2,0.8,3.2,1.2l0.2,0.3l-0.1,0.3C310.3,50.6,308.7,50.8,308.5,48.6L308.5,48.6z"/>
			<path class="st25" d="M278.2,58.8c-1.1-6.5-0.2-13-1.2-19.5c2.8,2.7,0.5,6.4,2.3,9.9c0.2-3.8,0.3-6.9,0.4-10.1
				c0.5,0.1,1.1,0.1,1.6,0.2C279.4,45.7,282.1,52.6,278.2,58.8z"/>
			<path class="st25" d="M255.3,106.2c-4.7,0-9.4,0-14.1,0c0-0.5,0-0.9,0-1.4C245.9,104.6,250.6,104,255.3,106.2z"/>
			<path class="st25" d="M306.4,46.6c-3.4-3-2.5-7.1-2.8-10.9C306.1,39,305.3,43,306.4,46.6L306.4,46.6z"/>
			<path class="st25" d="M254.9,39.1c2.1,2.9,0.4,5.2-1.2,7.6C254.1,44.2,254.5,41.7,254.9,39.1z"/>
			<path class="st25" d="M249.2,52.2c0.2,0.5,0.6,1,0.5,1.2c-0.3,0.5-0.9,0.9-1.4,1.1c-0.5,0.1-1.5,0.2-1-0.8
				C247.5,53.1,248.2,52.9,249.2,52.2z"/>
			<path class="st25" d="M308.4,48.6c-0.3-0.3-0.7-0.7-1-1l0.1-0.1C307.8,47.9,308.2,48.2,308.4,48.6L308.4,48.6z"/>
			<path class="st25" d="M306.5,46.6c0.3,0.3,0.7,0.7,1,1l-0.1,0.1C307.1,47.3,306.8,47,306.5,46.6L306.5,46.6z"/>
		</g>
	</g>
	<g id="_x37_o2STE.tif_2_">
		<g>
			<path class="st14" d="M229.6-46c-4.9,0.4-9.9,0.8-14.8,1.3c-5.6,0.5-6.6-4.6-9.3-7.7c0-2,0-4,0-6c10.3-9.4,20.7-18.7,30.7-28.5
				c3.1-3,5.1-7.3,7.1-11.3c1.7-3.4,3.3-5.2,6.8-2c0.6,0.5,2-0.1,2.7,0.9c-4.9,1.6-5.4,5-3.9,9.3c0.4,1.2,0.5,2.6,0.7,3.9
				c0.3,1.2,0,3.1,1.6,3.2c1.8,0.1,2.1-1.7,2.4-3.2c0.3-1.4,0.4-2.9,1.7-4c1.6,1,2.2,2.5,2.8,4.1c-1.9,5.5-6.7,5.7-11.3,5.9
				c-2.2,0.1-4.1-0.1-5.7,2c-4,5.6-8.3,11.1-12.5,16.6c-0.9,1.7-1.1,3.3-0.6,5.2C228.7-52.9,229.1-49.4,229.6-46z"/>
			<path class="st15" d="M273.5,209.6c0.5-5.5,2.4-10.7,4.1-16c2.6,0,5.2,0,7.9,0c0,0.3,0.2,0.7,0.1,1c-2.8,7.4,0.6,11.9,7,15
				C286.1,209.6,279.8,209.6,273.5,209.6z"/>
			<path class="st15" d="M244.3,193.6c-0.3,5.3-0.6,10.6-0.9,16c-6.7,0-13.3,0-20,0c0.3-0.3,0.6-0.8,1.1-0.9
				c7.7-2.1,12.3-6.6,12-15.1C239.1,193.6,241.7,193.6,244.3,193.6z"/>
			<path class="st16" d="M229.6-46c-0.5-3.4-0.9-6.9-1.7-10.3c-0.5-2-0.3-3.6,0.6-5.2c2.5,0.3,4.4-1.4,6.5-2.2
				c9.6-3.8,18.5-9.5,29-11.2c8.5,6.9,9.9,7,19.6,1.5c1-0.6,2.1-0.8,3.2-1.3c9.1,2.8,17.6,7,26,11.3c2.3,1.1,3.5,3,4.4,5.2
				c2.9,7.1,5.6,14.2,8.7,21.2c1.3,3,0.3,4.1-2.3,5.1c-2.4,0.9-5.1,1.4-7.1,3.5c-1.9-0.1-3.4,1.2-5.1,1.5c-4.5,0.8-5.5,3.8-4.6,7.6
				s0.3,7.6,1,11.3c1.1,5.9,0.3,11.8,1.3,17.6c0.4,8,1.8,15.9,1.5,23.9c-21.3,1.7-42.6,3.3-63.9,5c-0.1-23.5-0.2-47-0.3-70.5
				c0-6.6,0-6.6-6.8-5.6c-1,0.1-2,0.1-3,0.3c-3.9,1.2-5.4-0.7-5.7-4.3C230.6-43.1,230-44.6,229.6-46z M282.5,2.6
				c-0.3-0.3-0.7-0.7-1-1c-1.9-4.1-4.9-7.1-9-9c-0.3-0.3-0.7-0.7-1-1c0-0.8-0.2-1.6-1-2c-0.1-1.3-0.7-2-2-2c0-0.8-0.2-1.6-1-2
				c-0.1-0.7-0.2-1.6-1.3-1.5c-0.1,0-0.3,0.2-0.3,0.3c-0.1,1.1,0.7,1.2,1.5,1.3c0,0.8,0.2,1.6,1,2c0.1,1.3,0.7,2,2,2
				c0,0.8,0.2,1.6,1,2c0.3,0.3,0.7,0.7,1,1c1.9,4.1,4.9,7.1,9,9C281.8,2,282.1,2.3,282.5,2.6c0.1,0.2,0.3,0.3,0.4,0.5
				C282.8,2.9,282.6,2.7,282.5,2.6z M285.5,4.6c-0.2-0.1-0.3-0.3-0.5-0.4C285.1,4.3,285.3,4.5,285.5,4.6c0,0.8,0.1,1.6,1.2,1.6
				c0.1,0,0.3-0.2,0.3-0.3C287.1,4.7,286.2,4.7,285.5,4.6z M274.4,14.6c0,0.8,0.2,1.6,1,2c0.1,1.3,0.7,2,2,2c0.1,1,0.3,2,1.4,2.3
				c0.1,0,0.4-0.2,0.4-0.3c0.1-1.2-0.8-1.7-1.6-2.1c-0.1-1.2-0.7-2-2-2C275.5,15.7,275.3,15,274.4,14.6c-0.1-0.8-0.1-1.6-1.2-1.6
				c-0.1,0-0.3,0.2-0.3,0.3C272.9,14.4,273.7,14.5,274.4,14.6z M290.5,8.6c-0.1-0.8-0.2-1.6-1.3-1.5c-0.1,0-0.3,0.2-0.3,0.3
				C288.9,8.5,289.7,8.5,290.5,8.6c0.4,0.9,0.9,1.8,2.1,1.6c0.2,0,0.5-0.5,0.4-0.7C292.5,8.3,291.4,8.7,290.5,8.6z M263.5-20.4
				c-0.2-0.1-0.3-0.3-0.5-0.4C263.1-20.7,263.3-20.5,263.5-20.4c0.1,1-0.4,2.1,0.9,2.6c0.2,0.1,0.7-0.2,0.7-0.4
				C265.2-19.5,264.3-19.9,263.5-20.4z M308.2-47.6c-3.7,5.9-4.6,13.9-1.9,17.5C305.7-36,307.3-41.8,308.2-47.6z M265.4-0.5
				c-0.2-3.4-1.8-5.3-3.1-7.4C262.3-5.2,262.6-2.8,265.4-0.5z M261.7-23c0-2.4-0.9-4.3-3-6.5C258.6-26.3,259.8-24.5,261.7-23z
				 M311.3-54.9c-2.2,2.3-2.2,2.3-1.9,5.2C310.4-51.5,311.6-52.7,311.3-54.9z M294.4,11c1.3,1.9,2.5,2.7,4.6,2.2
				C297.9,11.5,296.7,10.9,294.4,11z M270,8.3c0.2-1.7-0.2-2.9-2-3.4C267.8,6.6,268.1,7.8,270,8.3z M272.1,10.7
				c-0.1-0.2-0.2-0.6-0.4-0.7c-0.2-0.1-0.5,0.2-0.8,0.3c0.2,0.3,0.4,0.6,0.6,0.9C271.7,11,271.9,10.9,272.1,10.7z"/>
			<path class="st17" d="M337.5,69.4c0.3,0,0.7,0.2,1,0.1c10.3-1.8,10.3-1.8,13.1,8.1c4.2,14.5,8.3,29.1,12.7,43.6
				c1.2,4,0.2,5.4-3.7,6.1c-5.1,0.8-10.1,2.2-15.1,3.4c-10.5,1.8-20.9,5-31.9,4.6c-0.5-15.2-2.3-30.9-2.1-46.7
				c1.6,4.5,1.8,9.3,2.1,14c0.1,0.9,0.1,3.4,1.3,2.2c2.3-2.3,1.6-0.2,1.8,0.8c0.3,1.3,0.6,2.6,0.9,3.9c1.6,7.5,3.3,15,4.9,22.5
				c0.5-0.1,1-0.2,1.5-0.3c-3.7-17.4-7.4-34.8-11.2-52.2c-0.3,0.1-0.7,0.1-1,0.2c-0.1,2.4-0.2,4.9-0.3,7.3c-1.3-2.6-0.4-5.4-1-8.1
				c0.3-1.6-0.3-3.7,2.1-4.2c0.9,0,1.7-0.1,2.6-0.1C322.5,72.8,330,71.1,337.5,69.4z"/>
			<path class="st14" d="M285.4,193.6c-2.6,0-5.2,0-7.9,0c1.4-17.5,2.9-35.1,4.3-52.6c0.9-10.8,1.8-21.5,2.7-32.3
				c5.6,0,11.3-0.1,16.9-0.1c0.2,5.5-1.3,10.8-1.5,16.3c-0.2,3.9-2,7.8-0.1,11.7C295.6,155.8,290.7,174.7,285.4,193.6z"/>
			<path class="st14" d="M309,9.6c-1.1-5.8-0.2-11.8-1.3-17.6c-0.7-3.7-0.1-7.5-1-11.3s0.1-6.7,4.6-7.6c1.7-0.3,3.2-1.7,5.1-1.5
				c2.5,12.5,4.9,25,7.4,37.5c3.2,15.6,6.4,31.1,10.7,46.4c-0.4,0.4-0.7,0.7-1.1,1.1c-2.9-1.4-5.7,0.1-8.6,0.4
				c-3.3,0.4-7,1.8-7.1-4.3c0-2.5,0-4.6,1.6-6.2c2.2-2.3,2.1-4.5,1.1-7.2c-3.2-8.7-6.1-17.5-9.3-26.2C310.8,11.8,310.8,10,309,9.6z"
				/>
			<path class="st18" d="M286.7-74.7c-1.1,0.4-2.2,0.7-3.2,1.3c-9.7,5.4-11.1,5.3-19.6-1.5c0.6-4.6,2.3-9.5-3.1-12.7
				c-0.9-1.5-2-2.9-2.7-4.6c-1-2.3-1.8-4.7,1.3-6.2c1.2,0.3,1,2.7,2.9,2c0.6-11.2,2.1-12.7,13.2-13c1.2,0,2.4,0,3.4-0.4
				c2.2-0.8,3.1-0.5,3.7,2.1c0.8,3.7,2.4,7.2,3.8,11.2c1.7-1.7,0.4-4.2,2.5-5.1c3.9,1.5,4.3,4.6,0.9,9.2c-3.3,4.4-4.5,9.3-4.3,14.7
				C285.5-76.4,285.8-75.5,286.7-74.7z M283.5-80.4c-0.3,0.3-0.7,0.7-1,1c-0.1,0.1-0.2,0.1-0.3,0.2c-0.1,0-0.1,0.2-0.1,0.3
				c0.1-0.1,0.3-0.3,0.4-0.4C282.8-79.7,283.1-80.1,283.5-80.4c0.1,0,0.3-0.1,0.3-0.2c0.1,0,0-0.2,0.1-0.3
				C283.7-80.7,283.6-80.5,283.5-80.4z M267.5-79.4c-0.1-0.4-0.2-0.9-0.4-1.3c-0.1,0.1-0.3,0.2-0.4,0.2
				C267-80.1,267.2-79.8,267.5-79.4c0.4,0.8,1.2,1,2,1c2.1,3.5,5.2,1.5,8.1,1.4c-2.7-0.5-5.4-0.9-8-1.4
				C269-79.2,268.3-79.4,267.5-79.4z"/>
			<path class="st19" d="M299.9,136.6c-1.9-3.9-0.1-7.8,0.1-11.7c0.2-5.4,1.7-10.8,1.5-16.3c0.2-1.1,0.3-2.1,0.5-3.2l0.1-0.4
				c0.8-7,1.9-14.1,2.3-21.1c0.2-4.3,1.6-6.1,5.9-5.1c0.6,2.7-0.3,5.5,1,8.1c0,0.6,0.1,1.1,0.1,1.7c-0.2,15.8,1.6,31.5,2.1,46.7
				c11.1,0.4,21.4-2.8,31.9-4.6c-0.1,9-0.1,9.3-9,8.8C324.2,138.8,312.1,137.6,299.9,136.6z"/>
			<path class="st20" d="M288.8-101.6c-2,0.9-0.8,3.4-2.5,5.1c-1.4-4-3-7.5-3.8-11.2c-0.6-2.6-1.5-2.9-3.7-2.1
				c-1.1,0.4-2.3,0.3-3.4,0.4c-11.1,0.3-12.6,1.8-13.2,13c-1.9,0.7-1.7-1.7-2.9-2c0-1.1,0-2.2-0.9-3c0-1.3,0.1-2.6,0.1-4
				c0.2-9,4.7-14.3,12.6-15c9.4-0.8,14.3,2.8,16.3,12C288-106.1,288.4-103.9,288.8-101.6z"/>
			<path class="st21" d="M258.5-101.4c0.9,0.8,1,1.9,0.9,3c-3,1.5-2.3,3.9-1.3,6.2c0.7,1.6,1.8,3,2.7,4.6c-0.9,0.5-1.9,1.1-2.8,1.6
				c-0.6-1.6-1.2-3.1-2.8-4.1c-1.3,1.1-1.4,2.7-1.7,4c-0.3,1.5-0.6,3.3-2.4,3.2c-1.6-0.1-1.4-2-1.6-3.2c-0.3-1.3-0.3-2.7-0.7-3.9
				c-1.5-4.3-1-7.7,3.9-9.3C254.6-100,256.6-100.7,258.5-101.4z"/>
			<path class="st20" d="M335.5,65.8c-0.7-3.1-1.4-6.1-2-9.2c0.4-0.4,0.7-0.7,1.1-1.1C337.6,58.7,336.5,62.3,335.5,65.8z"/>
			<path class="st22" d="M311.8,50.4c0.6,5.5,1.1,11,1.7,16.5c-1.6,2.4-0.7,5.1-1.1,7.7c-2.4,0.5-1.8,2.6-2.1,4.2
				c-4.3-1-5.7,0.8-5.9,5.1C304,91,302.9,98,302.1,105c-6.9,0-13.8,0-20.6,0c6.9,2.6,13.7,1.3,20.5,0.4c-0.2,1.1-0.3,2.1-0.5,3.2
				c-5.6,0-11.3,0.1-16.9,0.1c-4.4,0.7-5.3-1.4-5.4-5.5c-0.2-11.5-1-22.9-2.4-34.5c-2.4,8.5-4.8,17.1-7.2,25.6
				c-1,3.5-2.3,7-2.8,10.6c-0.5,3.3-2.3,4-5.1,3.9c-6.3,0-12.5,0-18.8,0c-5.2,0.7-5.5-1.7-4.9-6.2c2.8-19.6,5.1-39.2,7.6-58.8
				c0.2-1.8,0.1-3.7,1.1-5.3c21.3-1.7,42.6-3.3,63.9-5c1.4,5.4,1,10.9,1.3,16.3c-1.1-0.4-2.2-0.8-3.2-1.2c-0.3-0.3-0.7-0.7-1-1
				s-0.7-0.7-1-1c-1.2-3.5-0.4-7.6-2.9-10.8c0.3,3.8-0.7,7.9,2.8,10.9c0.3,0.3,0.7,0.7,1,1s0.7,0.7,1,1
				C308.7,50.8,310.3,50.6,311.8,50.4z M278.2,58.8c3.9-6.2,1.2-13.1,3.1-19.4c-0.5-0.1-1.1-0.1-1.6-0.2c-0.1,3.1-0.3,6.3-0.4,10.1
				c-1.8-3.5,0.5-7.2-2.3-9.9C278,45.8,277.1,52.3,278.2,58.8z M255.3,106.2c-4.7-2.3-9.4-1.6-14.1-1.4c0,0.5,0,0.9,0,1.4
				C245.9,106.2,250.6,106.2,255.3,106.2z M254.9,39.1c-0.4,2.5-0.8,5.1-1.2,7.6C255.3,44.4,257,42,254.9,39.1z M249.2,52.2
				c-1,0.7-1.7,0.9-1.9,1.4c-0.5,1,0.6,1,1,0.8c0.5-0.2,1-0.6,1.4-1.1C249.8,53.2,249.4,52.6,249.2,52.2z"/>
			<path class="st14" d="M242.8,108.7c6.3,0,12.5,0,18.8,0c-1.8,18.2-7,35.8-10.6,53.7c-2.1,10.4-4.5,20.8-6.7,31.1
				c-2.6,0-5.2,0-7.8,0c0.6-26.4,1.2-52.8,5.7-78.9C242.5,112.7,242.6,110.7,242.8,108.7z"/>
			<path class="st23" d="M308.2-47.6c-0.8,5.8-2.5,11.6-1.9,17.5C303.5-33.7,304.4-41.7,308.2-47.6z"/>
			<path class="st23" d="M281.4,1.6c-4.1-1.9-7.1-4.9-9-9l0.1-0.1C276.6-5.6,279.6-2.5,281.4,1.6C281.5,1.6,281.4,1.6,281.4,1.6z"/>
			<path class="st23" d="M265.4-0.5c-2.8-2.3-3.2-4.8-3.1-7.4C263.6-5.8,265.2-3.9,265.4-0.5z"/>
			<path class="st23" d="M261.7-23c-1.8-1.5-3-3.3-3-6.5C260.8-27.2,261.7-25.3,261.7-23z"/>
			<path class="st23" d="M311.3-54.9c0.3,2.2-0.9,3.4-1.9,5.2C309-52.6,309-52.6,311.3-54.9z"/>
			<path class="st23" d="M294.4,11c2.2-0.1,3.5,0.5,4.6,2.2C296.9,13.7,295.7,12.9,294.4,11z"/>
			<path class="st23" d="M270,8.3c-1.9-0.6-2.2-1.7-2-3.4C269.8,5.5,270.2,6.6,270,8.3z"/>
			<path class="st23" d="M263.5-20.4c0.8,0.5,1.7,1,1.5,2.2c0,0.2-0.5,0.5-0.7,0.4C263.1-18.3,263.6-19.5,263.5-20.4L263.5-20.4z"/>
			<path class="st23" d="M290.5,8.6c0.9,0.1,2-0.3,2.5,1c0.1,0.2-0.2,0.7-0.4,0.7C291.4,10.4,290.9,9.5,290.5,8.6L290.5,8.6z"/>
			<path class="st23" d="M270.4-10.4c-1.3-0.1-1.9-0.8-2-2l0.1-0.1C269.8-12.4,270.4-11.7,270.4-10.4
				C270.5-10.4,270.4-10.4,270.4-10.4z"/>
			<path class="st23" d="M267.4-14.4c-0.8-0.1-1.6-0.2-1.5-1.3c0-0.1,0.2-0.3,0.3-0.3C267.3-16,267.4-15.2,267.4-14.4L267.4-14.4z"
				/>
			<path class="st23" d="M277.5,18.6c0.8,0.5,1.7,0.9,1.6,2.1c0,0.1-0.3,0.3-0.4,0.3C277.7,20.6,277.5,19.7,277.5,18.6L277.5,18.6z"
				/>
			<path class="st23" d="M277.4,18.6c-1.3-0.1-1.9-0.8-2-2l0.1-0.1C276.8,16.6,277.4,17.3,277.4,18.6L277.4,18.6z"/>
			<path class="st23" d="M274.4,14.6c-0.8-0.1-1.6-0.2-1.5-1.3c0-0.1,0.2-0.3,0.3-0.3C274.3,13,274.4,13.8,274.4,14.6L274.4,14.6z"
				/>
			<path class="st23" d="M272.1,10.7c-0.2,0.2-0.4,0.3-0.6,0.5c-0.2-0.3-0.4-0.6-0.6-0.9c0.3-0.1,0.6-0.3,0.8-0.3
				C271.9,10.1,272,10.4,272.1,10.7z"/>
			<path class="st23" d="M290.4,8.6c-0.7-0.1-1.6-0.2-1.5-1.3c0-0.1,0.2-0.3,0.3-0.3C290.3,7,290.4,7.8,290.4,8.6
				C290.5,8.6,290.4,8.6,290.4,8.6z"/>
			<path class="st23" d="M285.5,4.6c0.7,0.1,1.6,0.2,1.5,1.3c0,0.1-0.2,0.3-0.3,0.3C285.6,6.2,285.5,5.4,285.5,4.6L285.5,4.6z"/>
			<path class="st23" d="M274.5,14.6c0.8,0.4,1,1.2,1,2l-0.1,0.1C274.6,16.2,274.4,15.5,274.5,14.6L274.5,14.6z"/>
			<path class="st23" d="M271.4-8.4c-0.8-0.4-1-1.2-1-2l0.1-0.1C271.3-10,271.5-9.3,271.4-8.4C271.5-8.4,271.4-8.4,271.4-8.4z"/>
			<path class="st23" d="M267.5-14.4c0.8,0.4,1,1.2,1,2l-0.1,0.1C267.6-12.8,267.4-13.5,267.5-14.4
				C267.4-14.4,267.5-14.4,267.5-14.4z"/>
			<path class="st23" d="M263.4-20.4c-0.1-0.2-0.3-0.3-0.4-0.5C263.2-20.7,263.3-20.6,263.4-20.4C263.5-20.4,263.4-20.4,263.4-20.4z
				"/>
			<path class="st23" d="M285.4,4.6c-0.1-0.2-0.3-0.3-0.4-0.5C285.2,4.3,285.3,4.4,285.4,4.6L285.4,4.6z"/>
			<path class="st23" d="M282.5,2.6c0.1,0.2,0.3,0.3,0.4,0.5C282.7,2.9,282.6,2.8,282.5,2.6L282.5,2.6z"/>
			<path class="st23" d="M282.4,2.6c-0.3-0.3-0.7-0.7-1-1l0.1-0.1C281.8,1.9,282.2,2.2,282.4,2.6L282.4,2.6z"/>
			<path class="st23" d="M272.4-7.4c-0.3-0.3-0.7-0.7-1-1l0.1-0.1C271.8-8.1,272.2-7.8,272.4-7.4C272.5-7.4,272.4-7.4,272.4-7.4z"/>
			<path class="st24" d="M311.4,88.6c0-0.6-0.1-1.1-0.1-1.7c0.1-2.4,0.2-4.9,0.3-7.3c0.3-0.1,0.7-0.1,1-0.2
				c3.7,17.4,7.4,34.8,11.2,52.2c-0.5,0.1-1,0.2-1.5,0.3c-1.6-7.5-3.3-15-4.9-22.5c-0.3-1.3-0.6-2.6-0.9-3.9c-0.2-1,0.4-3.1-1.8-0.8
				c-1.2,1.2-1.2-1.3-1.3-2.2C313.2,97.8,313,93.1,311.4,88.6z"/>
			<path class="st20" d="M312.4,74.5c0.4-2.5-0.5-5.3,1.1-7.7c0.7-1.6,1.5-3.2,2.9-6.1c0.6,5.7-1.7,9.6-1.4,13.7
				C314.1,74.5,313.3,74.5,312.4,74.5z"/>
			<path class="st20" d="M269.5-78.4c2.7,0.5,5.4,0.9,8,1.4C274.7-76.9,271.5-74.9,269.5-78.4L269.5-78.4z"/>
			<path class="st20" d="M269.5-78.4c-0.8,0-1.6-0.2-2-1l0,0C268.3-79.4,269-79.2,269.5-78.4L269.5-78.4z"/>
			<path class="st20" d="M267.5-79.4c-0.3-0.4-0.5-0.7-0.8-1.1c0.1-0.1,0.3-0.2,0.4-0.2C267.2-80.3,267.3-79.8,267.5-79.4
				L267.5-79.4z"/>
			<path class="st20" d="M282.5-79.4c-0.1,0.1-0.3,0.3-0.4,0.4c0-0.1,0-0.2,0.1-0.3C282.2-79.3,282.3-79.4,282.5-79.4L282.5-79.4z"
				/>
			<path class="st20" d="M283.5-80.4c-0.3,0.3-0.7,0.7-1,1l0,0C282.8-79.7,283.1-80.1,283.5-80.4L283.5-80.4z"/>
			<path class="st20" d="M283.5-80.4c0.1-0.1,0.3-0.3,0.4-0.4c0,0.1,0,0.2-0.1,0.3C283.7-80.5,283.6-80.4,283.5-80.4L283.5-80.4z"/>
			<path class="st25" d="M302,105.4c-6.8,0.8-13.6,2.1-20.5-0.4c6.9,0,13.8,0,20.6,0L302,105.4z"/>
			<path class="st25" d="M308.5,48.6c1.1,0.4,2.2,0.8,3.2,1.2l0.2,0.3l-0.1,0.3C310.3,50.6,308.7,50.8,308.5,48.6L308.5,48.6z"/>
			<path class="st25" d="M278.2,58.8c-1.1-6.5-0.2-13-1.2-19.5c2.8,2.7,0.5,6.4,2.3,9.9c0.2-3.8,0.3-6.9,0.4-10.1
				c0.5,0.1,1.1,0.1,1.6,0.2C279.4,45.7,282.1,52.6,278.2,58.8z"/>
			<path class="st25" d="M255.3,106.2c-4.7,0-9.4,0-14.1,0c0-0.5,0-0.9,0-1.4C245.9,104.6,250.6,104,255.3,106.2z"/>
			<path class="st25" d="M306.4,46.6c-3.4-3-2.5-7.1-2.8-10.9C306.1,39,305.3,43,306.4,46.6L306.4,46.6z"/>
			<path class="st25" d="M254.9,39.1c2.1,2.9,0.4,5.2-1.2,7.6C254.1,44.2,254.5,41.7,254.9,39.1z"/>
			<path class="st25" d="M249.2,52.2c0.2,0.5,0.6,1,0.5,1.2c-0.3,0.5-0.9,0.9-1.4,1.1c-0.5,0.1-1.5,0.2-1-0.8
				C247.5,53.1,248.2,52.9,249.2,52.2z"/>
			<path class="st25" d="M308.4,48.6c-0.3-0.3-0.7-0.7-1-1l0.1-0.1C307.8,47.9,308.2,48.2,308.4,48.6L308.4,48.6z"/>
			<path class="st25" d="M306.5,46.6c0.3,0.3,0.7,0.7,1,1l-0.1,0.1C307.1,47.3,306.8,47,306.5,46.6L306.5,46.6z"/>
		</g>
	</g>
</g>
<g>
	<g>
		<g>
			<g>
				<g>
					<g>
						<path class="st3" d="M721.8-108.4l3-6.8c0,0,2.6,0.7,3.7-0.4c0.4-0.4,0.8-2.6,1.1-5.3c0-0.3,0-0.7,0.1-1
							c0-0.3,1.4,0.6,1.4,0.2c0-0.7-1.4-2.8-1.4-3.5c-0.1-3.4-0.6-6.7-1.8-8c-2.9-2.9-13.2-3.3-14.6,1.7c-1.4,5-0.1,10.6,4,14.5
							l-2.8,7.1L721.8-108.4z"/>
					</g>
				</g>
			</g>
			<g>
				<g>
					<path class="st26" d="M729.3-134.3c2.4,2.3,3.6,4.5,2.9,7.7c-2.1,0.1-4.2,0.2-6.2,0.4c-1.9,3.2-2.9,6.9-3.4,10.6
						c-0.6-3.4-0.5-7,0.3-10.3c-1.1-0.8-2.9-0.4-3.5,0.9s0.3,2.9,1.7,3.1c-1.2,1.8-3,5.4-4.2,7.2c-0.3,0.4,0.5-0.1,0,0
						s-1.1-0.8-1.6-1.2c-7.7-5.8-5.9-19.8,4.6-21.4C722.4-137.7,725.4-137.6,729.3-134.3"/>
				</g>
			</g>
			<g>
				<g>
					<path class="st11" d="M737.5,29.8l-0.4,3.3c0,0,7.6,2.8,7.6,3.4h-12.4l1.2-6.7L737.5,29.8L737.5,29.8z"/>
				</g>
			</g>
			<g>
				<g>
					<path class="st11" d="M684.2,17.4l-2.7,2.1c0,0,2.1,8,1.6,8.5l-6.8-9.9l5.7-3.9L684.2,17.4z"/>
				</g>
			</g>
			<g>
				<g>
					<path class="st9" d="M721.4-21.9c0,0-4,16.8-4.5,17.4c-0.5,0.6-32.9,23-32.9,23l-3.4-3.7l24.9-27.9l0.3-33.4L721.4-21.9z"/>
				</g>
			</g>
			<g>
				<g>
					<path class="st0" d="M732.5-64.6l-2,10.2c0,0,4.1,29.5,4.2,31.9c0.2,2.4,3.7,52.9,3.7,52.9h-5.9l-12.1-48
						c0,0-20.3-27.4-18.1-36.9c2.2-9.6,8.9-14.1,8.9-14.1L732.5-64.6z"/>
				</g>
			</g>
			<g>
				<g>
					<path class="st2" d="M702.4-61.1l30.6,2.8l-4.1-13.5c0,0,3.5-11.3,4.3-14.7c1.3-5.7,1.3-5.7-2.4-12.6c-3.8-6.9-3.4-6.5-3.4-6.5
						l1.2-3.4l-13.3-6.7l-1.2,4.7c0,0-5.3,7.2-6.7,9.8c-1.4,2.6-1.9,28.3-1.7,30.5L702.4-61.1z"/>
				</g>
			</g>
			<g>
				<g>
					<path class="st3" d="M708.4-85.7c0.8,7.5,1.8,14.6,2.1,15.3c0.7,1.2,9.8,2.4,15.4,3.1c10.1,1.4,15.8,3.2,17,3.1
						c2.6-0.3,4.1-0.6,3.3-2.5s2.3-2.1,1.3-3.6c-0.9-1.5,2.5-2.2,0.9-3.3s-5.1,0.8-5.1,0.8s-2.7-2.5-5.4,1.8c-0.6,1-3.7,0-4.6-0.2
						c-4.8-1.2-9.3-3.3-13.8-5.2l0.1-8.7C719.7-85.2,707.8-90.4,708.4-85.7z"/>
				</g>
			</g>
			<g>
				<g>
					<path class="st2" d="M713.8-105.5c-3.9-0.2-7.1,3.1-6.8,7c0.3,3.4,0.8,8.2,1.3,12.8c3.8,0.1,7.6,0.3,11.3,0.5l0.2-13.8
						C720-102.4,717.3-105.4,713.8-105.5z"/>
				</g>
			</g>
			<g>
				<g>
					<polygon class="st26" points="734.9,-66 737.9,-59.5 736.4,-59.7 733.9,-66 					"/>
				</g>
			</g>
			<g>
				<g>
					<polygon class="st16" points="748.9,-59.2 713.5,-64.9 704.8,-19.9 744.6,-12.7 					"/>
				</g>
			</g>
			<g>
				<g>
					<path class="st26" d="M733.4-71.3c-2.5-0.7-8.9,8.1-8.9,8.1l-1.4-0.2c0,0,6.3-8,9-8.7C733-72.4,733.4-71.3,733.4-71.3z"/>
				</g>
			</g>
			<g>
				<g>
					<path class="st26" d="M698.6-123.3c0,1.6,0.4,3.2,0.7,4.8c0.3,1.6,0.4,3.3-0.3,4.8c-0.6,1.5-2.2,2.7-3.8,2.5
						c1.9,3.4,6.8,4.3,10.2,2.5c3.5-1.8,5.5-5.6,6.1-9.4c0.3-1.9,0.2-3.8,0.6-5.6c0.4-1.9,1.2-3.7,2.8-4.8c-2.2-3.1-6.4-4.6-10-3.4
						C701.2-130.8,698.5-127.1,698.6-123.3z"/>
				</g>
			</g>
		</g>
		<g>
			<path class="st10" d="M718.7-87.3c0.1,0,0.3-0.1,0.3-0.3c0.5-2.9,1.1-6.1,0.6-9.3c-0.6-3.5-2.8-6.3-5.5-7.2
				c-0.2-0.1-0.3,0-0.4,0.2s0,0.3,0.2,0.4c2.5,0.8,4.6,3.5,5.1,6.7c0.5,3,0,6.1-0.6,9C718.4-87.5,718.5-87.3,718.7-87.3L718.7-87.3z
				"/>
		</g>
	</g>
	<g>
		<g>
			<g>
				<g>
					<g>
						<path class="st3" d="M721.8-108.4l3-6.8c0,0,2.6,0.7,3.7-0.4c0.4-0.4,0.8-2.6,1.1-5.3c0-0.3,0-0.7,0.1-1
							c0-0.3,1.4,0.6,1.4,0.2c0-0.7-1.4-2.8-1.4-3.5c-0.1-3.4-0.6-6.7-1.8-8c-2.9-2.9-13.2-3.3-14.6,1.7c-1.4,5-0.1,10.6,4,14.5
							l-2.8,7.1L721.8-108.4z"/>
					</g>
				</g>
			</g>
			<g>
				<g>
					<path class="st26" d="M729.3-134.3c2.4,2.3,3.6,4.5,2.9,7.7c-2.1,0.1-4.2,0.2-6.2,0.4c-1.9,3.2-2.9,6.9-3.4,10.6
						c-0.6-3.4-0.5-7,0.3-10.3c-1.1-0.8-2.9-0.4-3.5,0.9s0.3,2.9,1.7,3.1c-1.2,1.8-3,5.4-4.2,7.2c-0.3,0.4,0.5-0.1,0,0
						s-1.1-0.8-1.6-1.2c-7.7-5.8-5.9-19.8,4.6-21.4C722.4-137.7,725.4-137.6,729.3-134.3"/>
				</g>
			</g>
			<g>
				<g>
					<path class="st11" d="M737.5,29.8l-0.4,3.3c0,0,7.6,2.8,7.6,3.4h-12.4l1.2-6.7L737.5,29.8L737.5,29.8z"/>
				</g>
			</g>
			<g>
				<g>
					<path class="st11" d="M684.2,17.4l-2.7,2.1c0,0,2.1,8,1.6,8.5l-6.8-9.9l5.7-3.9L684.2,17.4z"/>
				</g>
			</g>
			<g>
				<g>
					<path class="st9" d="M721.4-21.9c0,0-4,16.8-4.5,17.4c-0.5,0.6-32.9,23-32.9,23l-3.4-3.7l24.9-27.9l0.3-33.4L721.4-21.9z"/>
				</g>
			</g>
			<g>
				<g>
					<path class="st0" d="M732.5-64.6l-2,10.2c0,0,4.1,29.5,4.2,31.9c0.2,2.4,3.7,52.9,3.7,52.9h-5.9l-12.1-48
						c0,0-20.3-27.4-18.1-36.9c2.2-9.6,8.9-14.1,8.9-14.1L732.5-64.6z"/>
				</g>
			</g>
			<g>
				<g>
					<path class="st2" d="M702.4-61.1l30.6,2.8l-4.1-13.5c0,0,3.5-11.3,4.3-14.7c1.3-5.7,1.3-5.7-2.4-12.6c-3.8-6.9-3.4-6.5-3.4-6.5
						l1.2-3.4l-13.3-6.7l-1.2,4.7c0,0-5.3,7.2-6.7,9.8c-1.4,2.6-1.9,28.3-1.7,30.5L702.4-61.1z"/>
				</g>
			</g>
			<g>
				<g>
					<path class="st3" d="M708.4-85.7c0.8,7.5,1.8,14.6,2.1,15.3c0.7,1.2,9.8,2.4,15.4,3.1c10.1,1.4,15.8,3.2,17,3.1
						c2.6-0.3,4.1-0.6,3.3-2.5s2.3-2.1,1.3-3.6c-0.9-1.5,2.5-2.2,0.9-3.3s-5.1,0.8-5.1,0.8s-2.7-2.5-5.4,1.8c-0.6,1-3.7,0-4.6-0.2
						c-4.8-1.2-9.3-3.3-13.8-5.2l0.1-8.7C719.7-85.2,707.8-90.4,708.4-85.7z"/>
				</g>
			</g>
			<g>
				<g>
					<path class="st2" d="M713.8-105.5c-3.9-0.2-7.1,3.1-6.8,7c0.3,3.4,0.8,8.2,1.3,12.8c3.8,0.1,7.6,0.3,11.3,0.5l0.2-13.8
						C720-102.4,717.3-105.4,713.8-105.5z"/>
				</g>
			</g>
			<g>
				<g>
					<polygon class="st26" points="734.9,-66 737.9,-59.5 736.4,-59.7 733.9,-66 					"/>
				</g>
			</g>
			<g>
				<g>
					<polygon class="st16" points="748.9,-59.2 713.5,-64.9 704.8,-19.9 744.6,-12.7 					"/>
				</g>
			</g>
			<g>
				<g>
					<path class="st26" d="M733.4-71.3c-2.5-0.7-8.9,8.1-8.9,8.1l-1.4-0.2c0,0,6.3-8,9-8.7C733-72.4,733.4-71.3,733.4-71.3z"/>
				</g>
			</g>
			<g>
				<g>
					<path class="st26" d="M698.6-123.3c0,1.6,0.4,3.2,0.7,4.8c0.3,1.6,0.4,3.3-0.3,4.8c-0.6,1.5-2.2,2.7-3.8,2.5
						c1.9,3.4,6.8,4.3,10.2,2.5c3.5-1.8,5.5-5.6,6.1-9.4c0.3-1.9,0.2-3.8,0.6-5.6c0.4-1.9,1.2-3.7,2.8-4.8c-2.2-3.1-6.4-4.6-10-3.4
						C701.2-130.8,698.5-127.1,698.6-123.3z"/>
				</g>
			</g>
		</g>
		<g>
			<path class="st10" d="M718.7-87.3c0.1,0,0.3-0.1,0.3-0.3c0.5-2.9,1.1-6.1,0.6-9.3c-0.6-3.5-2.8-6.3-5.5-7.2
				c-0.2-0.1-0.3,0-0.4,0.2s0,0.3,0.2,0.4c2.5,0.8,4.6,3.5,5.1,6.7c0.5,3,0,6.1-0.6,9C718.4-87.5,718.5-87.3,718.7-87.3L718.7-87.3z
				"/>
		</g>
	</g>
</g>
<g>
	<g>
		<g>
			<path class="st27" d="M29.3,72.8c-3.3,0-6.3-0.2-9.1-0.6c-0.1,0-0.2-0.1-0.2-0.3c0-0.1,0.1-0.2,0.3-0.2
				c6.3,0.8,13.9,0.7,22.5-0.3c0.1,0,0.2,0.1,0.3,0.2c0,0.1-0.1,0.2-0.2,0.3C38,72.5,33.5,72.8,29.3,72.8z"/>
		</g>
		<g>
			<g>
				<g>
					<g>
						<path class="st3" d="M36.6,24.4l1.4-5.2c0,0,2,0.5,2.8-0.3c0.4-0.3,0.7-1.9,0.8-4.3c0-0.3,1,0.3,1,0c0-0.5-1.7-2.9-1.6-3.8
							c0.6-3.5,0.3-4.4-0.8-5.4C37.9,3.2,30.1,2.9,29,6.7c-1.1,3.8-0.7,5.7,1.2,11.1L29,23.2L36.6,24.4z"/>
					</g>
				</g>
			</g>
			<g>
				<g>
					<path class="st2" d="M38.2,26.9l1.8-4.4c0,0-5.3-3.7-10.5-4l-1.1,2.3L38.2,26.9z"/>
				</g>
			</g>
			<g>
				<g>
					<path class="st6" d="M56.1,124.4l2,6.1c0,0,6.2,0.4,6.4,0.8l-8.9,2.4l-2.3-8.5L56.1,124.4z"/>
				</g>
			</g>
			<g>
				<g>
					<polygon class="st6" points="8.9,134.2 3.8,134.2 0,131.4 4.7,123.8 7.2,125.4 4.2,131 5.1,133.2 					"/>
				</g>
			</g>
			<g>
				<g>
					<polygon class="st6" points="43,68.3 58.5,128.7 53.3,130 40.8,97.9 32.1,81 22.3,106.1 6,129.7 2.2,127 15.5,96.3 19.8,68.3 
											"/>
				</g>
			</g>
			<g>
				<g>
					<path class="st6" d="M29,18.8c0,0,4.8,1.5,7.1,4.2c2.4,2.7,6.2,10.7,6.3,11.6c0.1,0.9-1.2,10.7-1.2,10.7l4.3,26
						c0,0-18.3,2.8-27.5,0l4.8-21.5c0,0-0.7-7.6-1.5-8.4c-0.8-0.9,0.6-8.4,1.2-11.9c0.6-3.5,3.3-7.5,4.3-8.3
						C27.8,20.4,29,18.8,29,18.8z"/>
				</g>
			</g>
			<g id="XMLID_46_">
				<g>
					<g>
						<path class="st3" d="M54.4,58.2c-0.7,0.2-2-1.1-2.6-2c-1,0.3-2.8-0.3-3.9-0.1c3.9,4.1,5.3,6.6,5.9,7c1.3,0.9,2,1.4,2.4,0.2
							c0.4-1.1,1.8,0,2-1s1.9,0,1.7-1.1c-0.2-1.1-2.5-1.7-2.5-1.7S57.2,57.4,54.4,58.2z"/>
					</g>
				</g>
			</g>
			<g>
				<g>
					<path class="st6" d="M22.6,30.3c0.7,3.4,27.7,29.8,27.7,29.8l4.1-3.5c0,0-5.1-5.7-6-8.2S47,45,44,43.9S36.3,31,33.4,28.5
						C30.5,26,22.1,28,22.6,30.3z"/>
				</g>
			</g>
			<g id="XMLID_30_">
				<g>
					<g>
						<path class="st3" d="M10.4,63.5c-0.4-0.6,0.4-2.2,1-3.1c-0.6-0.8-0.7-2.8-1.2-3.7c-2.5,5.1-4.4,7.2-4.6,7.9
							C5.2,66.1,5,66.9,6.2,67c1.2,0,0.6,1.7,1.6,1.5s0.6,1.8,1.6,1.2c1-0.6,0.7-3,0.7-3S12.1,65.9,10.4,63.5z"/>
					</g>
				</g>
			</g>
			<g>
				<g>
					<path class="st6" d="M25.9,24.2C22.9,26,7.1,60.3,7.1,60.3l4.7,2.6c0,0,3.6-6.7,5.7-8.4c2.1-1.7,2.7-2.5,2.8-5.7
						s9.5-11.5,10.9-15.1C32.7,30.2,28,22.9,25.9,24.2z"/>
				</g>
			</g>
			<g>
				<g>
					<path class="st27" d="M41,41.8c-0.1,0-0.1,0-0.2-0.1c-1.8-1.7-2.9-4-3.8-6.3c-0.3-0.6-0.5-1.2-0.8-1.8c-1.4-2.9-3.2-5.6-5.3-8
						c-0.5-0.6-1.1-1.2-1.9-1.4c-0.7-0.2-1.5-0.2-2,0.4c-0.1,0.1-0.2,0.1-0.3,0s-0.1-0.2,0-0.3c0.6-0.8,1.7-0.9,2.5-0.6s1.5,1,2,1.6
						c2.2,2.4,4,5.1,5.4,8.1c0.3,0.6,0.5,1.2,0.8,1.8c1,2.2,1.9,4.5,3.7,6.1c0.1,0.1,0.1,0.2,0,0.3C41.1,41.8,41.1,41.8,41,41.8z"/>
				</g>
			</g>
			<g>
				<g>
					<path class="st27" d="M41.3,35.6c-0.1,0-0.2-0.1-0.2-0.1c-0.5-1.4-2-3.2-3.3-4.2l-0.1-0.1v-0.3c0-1-0.1-2.1,0-3.1
						c-0.7-0.3-1.4-0.6-2.1-0.8h-0.1v-0.2c-0.1-1-0.9-1.9-1.6-2.8c-0.4-0.5-0.8-0.9-1.1-1.4c-0.1-0.1,0-0.2,0.1-0.3
						c0.1-0.1,0.2,0,0.3,0.1c0.3,0.5,0.6,0.9,1,1.4c0.7,0.9,1.4,1.8,1.7,2.8c0.8,0.2,1.5,0.5,2.2,0.8l0.1,0.1v0.2
						c-0.1,1-0.1,2.1-0.1,3.2l0,0c1.4,1,2.9,2.9,3.4,4.3C41.5,35.4,41.5,35.5,41.3,35.6L41.3,35.6z"/>
				</g>
			</g>
			<g>
				<g>
					<path class="st27" d="M22.1,43.3c-0.1,0-0.2-0.1-0.2-0.2c-0.5-4.7-0.2-9.5,1-14.1c0-0.1,0.2-0.2,0.3-0.2s0.2,0.2,0.2,0.3
						c-1.1,4.6-1.5,9.3-1,14C22.4,43.2,22.3,43.3,22.1,43.3C22.2,43.3,22.2,43.3,22.1,43.3z"/>
				</g>
			</g>
			<g>
				<g>
					<path class="st27" d="M41.7,51.7c-0.1,0-0.1,0-0.2-0.1c-5.1-4.7-9.9-9.8-14.2-15.3c-0.1-0.1-0.1-0.2,0-0.3
						c0.1-0.1,0.2-0.1,0.3,0c4.3,5.4,9.1,10.6,14.2,15.2c0.1,0.1,0.1,0.2,0,0.3C41.8,51.6,41.7,51.7,41.7,51.7z"/>
				</g>
			</g>
			<g>
				<g>
					<path class="st27" d="M32.8,78.7L32.8,78.7c-0.2-0.1-0.2-0.2-0.2-0.3l2.6-4c0.1-0.1,0.2-0.1,0.3-0.1c0.1,0.1,0.1,0.2,0.1,0.3
						l-2.6,4C32.9,78.7,32.9,78.7,32.8,78.7z"/>
				</g>
			</g>
			<g>
				<g>
					<path class="st6" d="M41.9,0.5c0,0.5-0.2,0.9-0.5,1.2C41.7,0.9,40.8,0,40,0c-0.9,0-1.4,0.5-1.9,1.2c0.2-0.4,0.9-0.3,1,0.1
						c0.2,0.4,0,0.9-0.4,1.1c-0.4,0.2-0.8,0.3-1.2,0.3c-1,0-2-0.3-3-0.5c-1-0.3-2-0.5-3-0.5s-2,0.3-2.8,1c-0.7,0.7-1,2.1-0.5,2.9
						c-2.5,1-0.8,5.4,0,7.4c0.8,1.9,2.1,4.7,2.1,4.7l2.6-2.5c0,0-2-2.3-1.1-3.3c0.9-1,1.8,0.6,1.8,0.6s0.3,4.9,1,5.2
						s4.6,3.1,6.3,2.5c1.7-0.6,0.8-5.6,0.8-5.6l-6.5-0.8l0.1-4.1c0,0,2.7,0.9,3.2-1.4c1.9-0.3,4.2-1,4.9-2.8S43.5,1.5,41.9,0.5z"/>
				</g>
			</g>
		</g>
	</g>
	<g>
		<g>
			<path class="st27" d="M29.3,72.8c-3.3,0-6.3-0.2-9.1-0.6c-0.1,0-0.2-0.1-0.2-0.3c0-0.1,0.1-0.2,0.3-0.2
				c6.3,0.8,13.9,0.7,22.5-0.3c0.1,0,0.2,0.1,0.3,0.2c0,0.1-0.1,0.2-0.2,0.3C38,72.5,33.5,72.8,29.3,72.8z"/>
		</g>
		<g>
			<g>
				<g>
					<g>
						<path class="st3" d="M36.6,24.4l1.4-5.2c0,0,2,0.5,2.8-0.3c0.4-0.3,0.7-1.9,0.8-4.3c0-0.3,1,0.3,1,0c0-0.5-1.7-2.9-1.6-3.8
							c0.6-3.5,0.3-4.4-0.8-5.4C37.9,3.2,30.1,2.9,29,6.7c-1.1,3.8-0.7,5.7,1.2,11.1L29,23.2L36.6,24.4z"/>
					</g>
				</g>
			</g>
			<g>
				<g>
					<path class="st2" d="M38.2,26.9l1.8-4.4c0,0-5.3-3.7-10.5-4l-1.1,2.3L38.2,26.9z"/>
				</g>
			</g>
			<g>
				<g>
					<path class="st6" d="M56.1,124.4l2,6.1c0,0,6.2,0.4,6.4,0.8l-8.9,2.4l-2.3-8.5L56.1,124.4z"/>
				</g>
			</g>
			<g>
				<g>
					<polygon class="st6" points="8.9,134.2 3.8,134.2 0,131.4 4.7,123.8 7.2,125.4 4.2,131 5.1,133.2 					"/>
				</g>
			</g>
			<g>
				<g>
					<polygon class="st6" points="43,68.3 58.5,128.7 53.3,130 40.8,97.9 32.1,81 22.3,106.1 6,129.7 2.2,127 15.5,96.3 19.8,68.3 
											"/>
				</g>
			</g>
			<g>
				<g>
					<path class="st6" d="M29,18.8c0,0,4.8,1.5,7.1,4.2c2.4,2.7,6.2,10.7,6.3,11.6c0.1,0.9-1.2,10.7-1.2,10.7l4.3,26
						c0,0-18.3,2.8-27.5,0l4.8-21.5c0,0-0.7-7.6-1.5-8.4c-0.8-0.9,0.6-8.4,1.2-11.9c0.6-3.5,3.3-7.5,4.3-8.3
						C27.8,20.4,29,18.8,29,18.8z"/>
				</g>
			</g>
			<g id="XMLID_8_">
				<g>
					<g>
						<path class="st3" d="M54.4,58.2c-0.7,0.2-2-1.1-2.6-2c-1,0.3-2.8-0.3-3.9-0.1c3.9,4.1,5.3,6.6,5.9,7c1.3,0.9,2,1.4,2.4,0.2
							c0.4-1.1,1.8,0,2-1s1.9,0,1.7-1.1c-0.2-1.1-2.5-1.7-2.5-1.7S57.2,57.4,54.4,58.2z"/>
					</g>
				</g>
			</g>
			<g>
				<g>
					<path class="st6" d="M22.6,30.3c0.7,3.4,27.7,29.8,27.7,29.8l4.1-3.5c0,0-5.1-5.7-6-8.2S47,45,44,43.9S36.3,31,33.4,28.5
						C30.5,26,22.1,28,22.6,30.3z"/>
				</g>
			</g>
			<g id="XMLID_7_">
				<g>
					<g>
						<path class="st3" d="M10.4,63.5c-0.4-0.6,0.4-2.2,1-3.1c-0.6-0.8-0.7-2.8-1.2-3.7c-2.5,5.1-4.4,7.2-4.6,7.9
							C5.2,66.1,5,66.9,6.2,67c1.2,0,0.6,1.7,1.6,1.5s0.6,1.8,1.6,1.2c1-0.6,0.7-3,0.7-3S12.1,65.9,10.4,63.5z"/>
					</g>
				</g>
			</g>
			<g>
				<g>
					<path class="st6" d="M25.9,24.2C22.9,26,7.1,60.3,7.1,60.3l4.7,2.6c0,0,3.6-6.7,5.7-8.4c2.1-1.7,2.7-2.5,2.8-5.7
						s9.5-11.5,10.9-15.1C32.7,30.2,28,22.9,25.9,24.2z"/>
				</g>
			</g>
			<g>
				<g>
					<path class="st27" d="M41,41.8c-0.1,0-0.1,0-0.2-0.1c-1.8-1.7-2.9-4-3.8-6.3c-0.3-0.6-0.5-1.2-0.8-1.8c-1.4-2.9-3.2-5.6-5.3-8
						c-0.5-0.6-1.1-1.2-1.9-1.4c-0.7-0.2-1.5-0.2-2,0.4c-0.1,0.1-0.2,0.1-0.3,0s-0.1-0.2,0-0.3c0.6-0.8,1.7-0.9,2.5-0.6s1.5,1,2,1.6
						c2.2,2.4,4,5.1,5.4,8.1c0.3,0.6,0.5,1.2,0.8,1.8c1,2.2,1.9,4.5,3.7,6.1c0.1,0.1,0.1,0.2,0,0.3C41.1,41.8,41.1,41.8,41,41.8z"/>
				</g>
			</g>
			<g>
				<g>
					<path class="st27" d="M41.3,35.6c-0.1,0-0.2-0.1-0.2-0.1c-0.5-1.4-2-3.2-3.3-4.2l-0.1-0.1v-0.3c0-1-0.1-2.1,0-3.1
						c-0.7-0.3-1.4-0.6-2.1-0.8h-0.1v-0.2c-0.1-1-0.9-1.9-1.6-2.8c-0.4-0.5-0.8-0.9-1.1-1.4c-0.1-0.1,0-0.2,0.1-0.3
						c0.1-0.1,0.2,0,0.3,0.1c0.3,0.5,0.6,0.9,1,1.4c0.7,0.9,1.4,1.8,1.7,2.8c0.8,0.2,1.5,0.5,2.2,0.8l0.1,0.1v0.2
						c-0.1,1-0.1,2.1-0.1,3.2l0,0c1.4,1,2.9,2.9,3.4,4.3C41.5,35.4,41.5,35.5,41.3,35.6L41.3,35.6z"/>
				</g>
			</g>
			<g>
				<g>
					<path class="st27" d="M22.1,43.3c-0.1,0-0.2-0.1-0.2-0.2c-0.5-4.7-0.2-9.5,1-14.1c0-0.1,0.2-0.2,0.3-0.2s0.2,0.2,0.2,0.3
						c-1.1,4.6-1.5,9.3-1,14C22.4,43.2,22.3,43.3,22.1,43.3C22.2,43.3,22.2,43.3,22.1,43.3z"/>
				</g>
			</g>
			<g>
				<g>
					<path class="st27" d="M41.7,51.7c-0.1,0-0.1,0-0.2-0.1c-5.1-4.7-9.9-9.8-14.2-15.3c-0.1-0.1-0.1-0.2,0-0.3
						c0.1-0.1,0.2-0.1,0.3,0c4.3,5.4,9.1,10.6,14.2,15.2c0.1,0.1,0.1,0.2,0,0.3C41.8,51.6,41.7,51.7,41.7,51.7z"/>
				</g>
			</g>
			<g>
				<g>
					<path class="st27" d="M32.8,78.7L32.8,78.7c-0.2-0.1-0.2-0.2-0.2-0.3l2.6-4c0.1-0.1,0.2-0.1,0.3-0.1c0.1,0.1,0.1,0.2,0.1,0.3
						l-2.6,4C32.9,78.7,32.9,78.7,32.8,78.7z"/>
				</g>
			</g>
			<g>
				<g>
					<path class="st6" d="M41.9,0.5c0,0.5-0.2,0.9-0.5,1.2C41.7,0.9,40.8,0,40,0c-0.9,0-1.4,0.5-1.9,1.2c0.2-0.4,0.9-0.3,1,0.1
						c0.2,0.4,0,0.9-0.4,1.1c-0.4,0.2-0.8,0.3-1.2,0.3c-1,0-2-0.3-3-0.5c-1-0.3-2-0.5-3-0.5s-2,0.3-2.8,1c-0.7,0.7-1,2.1-0.5,2.9
						c-2.5,1-0.8,5.4,0,7.4c0.8,1.9,2.1,4.7,2.1,4.7l2.6-2.5c0,0-2-2.3-1.1-3.3c0.9-1,1.8,0.6,1.8,0.6s0.3,4.9,1,5.2
						s4.6,3.1,6.3,2.5c1.7-0.6,0.8-5.6,0.8-5.6l-6.5-0.8l0.1-4.1c0,0,2.7,0.9,3.2-1.4c1.9-0.3,4.2-1,4.9-2.8S43.5,1.5,41.9,0.5z"/>
				</g>
			</g>
		</g>
	</g>
</g>
<g>
	<g>
		<g>
			<path class="st16" d="M1085,35.3c-0.4-3.4-1.1-6.3-1.5-9.7h-45.4c-0.9,2.9,2.2,5.7,1.9,7.8c-1,7.4,5.2,25,5.2,25l1.7,9.7
				l2.2,36.6c0,0-1.9,17.9-3.1,32.1c-0.2,2.2-0.3,4.3-0.3,6.4c0,0.6,0,1.1,0.1,1.6c0.3,10.9,3.9,21.1,4.1,32.5l5.5,1.4
				c0,0,2.1-18.8,4.3-35.5l0,0l0,0c0.4-2.8,0.7-5.6,1.1-8.2c0,0.6-0.1,1.2-0.1,1.7c-0.2,2.2-0.3,4.3-0.3,6.4c0,0.6,0,1.1,0.1,1.6
				c0.3,10.9,3.9,21.1,4.1,32.5l5.5,1.4c0,0,2.1-18.8,4.3-35.5l0,0l0,0c1.6-11.9,3.2-22.7,4-24.7c1.4-3.1,3.8-29.7,6.4-48.4l0,0
				C1086.1,63,1085.8,42.3,1085,35.3z"/>
		</g>
		<g>
			<g>
				<polygon class="st6" points="1064.7,175.6 1062.9,185.2 1082.6,185.2 1071.8,180.4 1070.6,175.6 				"/>
			</g>
			<g>
				<path class="st0" d="M1034.6,7.9c0,0-0.1,17.3,1.5,19l0,0l3.9,6.5l45,1.9l0.6-6.4l2.2-1.5c1.9-1.2,2.8-3.5,2.3-5.7l-11.5-29.6
					c0,0-0.8-9.4-0.2-13.9c0.6-4.6-10.4-29.5-12.5-32.3c-2.1-2.8-10.5-3.3-14,0s-13.2,17.7-14,20.8
					C1037.2-30.3,1034.6,7.9,1034.6,7.9z"/>
			</g>
			<g>
				<path class="st0" d="M1055.4-56.9c-4.7,1.1-25,12.9-26.9,16.7s-17.3,44.9-11.9,49.5c5.5,4.6,22.3-2.1,22.3-2.1l2.2-24.4
					L1055.4-56.9z"/>
			</g>
			<g>
				<path class="st28" d="M1062.1-36.3"/>
			</g>
			<g>
				<path class="st5" d="M1065.8,54c-0.1,0-0.3-0.1-0.4-0.2c-2.4-2.8-3.9-6.3-4.3-9.9c0-0.3,0.2-0.5,0.4-0.5c0.2,0,0.5,0.2,0.5,0.4
					c0.4,3.4,1.8,6.8,4.1,9.4c0.2,0.2,0.1,0.5-0.1,0.7C1066.1,54,1066,54,1065.8,54z"/>
			</g>
			<g>
				<polygon class="st6" points="1049.9,175.6 1048.2,185.2 1067.9,185.2 1057,180.4 1055.9,175.6 				"/>
			</g>
			<g>
				<path class="st5" d="M1062,132.2L1062,132.2c-0.4-0.1-0.5-0.3-0.4-0.6c0.1-0.4,10.1-41.2,11.9-48.8c1.7-7.6,0.8-39.7,0.8-40
					c0-0.1,0-0.2,0.1-0.3l4.8-5.1c0.2-0.2,0.5-0.2,0.7,0s0.2,0.5,0,0.7l-4.7,5c0.1,3,0.9,32.6-0.8,40.1
					c-1.7,7.7-11.8,48.5-11.9,48.9C1062.4,132.1,1062.2,132.2,1062,132.2z"/>
			</g>
			<g>
				<path class="st10" d="M1041.2,29.9c-0.3,0-0.5-0.2-0.5-0.5s0.2-0.5,0.5-0.5l42-0.2l0,0c0.3,0,0.5,0.2,0.5,0.5s-0.2,0.5-0.5,0.5
					L1041.2,29.9L1041.2,29.9z"/>
			</g>
		</g>
		<g>
			<g>
				<path class="st3" d="M1121.7-83.6l0.9-4.9c0,0,3.7-3.5,4.5-4.1s3.2-6.6,3.4-7.1c0.2-0.6-4.4-0.9-4.4-0.9s-0.1-2.9-0.4-3.8
					c-0.1-0.5-1.2-2.7-1.7-1.2l-1,4.4l-1.5,1.5c-0.8,1.1-1.6,5.5-1.6,5.5l-3,6.3C1118.5-86.4,1120.1-85,1121.7-83.6z"/>
			</g>
			<g>
				<path class="st29" d="M1134.8-129.1l-7.4,23.5l-2.9,10.8l2.7,0.3l9-33.8C1135.5-128.7,1135.5-128.7,1134.8-129.1z"/>
			</g>
			<g>
				<path class="st3" d="M1130.5-99.7c0.5-1.2-0.7-5-1.1-4.7c-0.5,0.3-0.7,2.3-0.7,2.3l0.5,1.2c0,0-0.8-0.3-0.8,0s-0.3,1.6-0.3,1.6
					l-0.1,2.5L1130.5-99.7z"/>
			</g>
		</g>
		<g>
			<path class="st0" d="M1085.1-28.5c4.8-4.9,18.1-16.7,22.4-22.7c4.1-5.7,16.2-33.7,16.2-33.7l-6.7-6.5l-19.5,27.3
				c0,0-13.8,8.5-21.2,11.6C1080.9-44.3,1080.1-36.4,1085.1-28.5z"/>
		</g>
		<g>
			<path class="st0" d="M1059.4-56.4c37.9,2.6,39.9,5.9,29.5,18l-5.7,45.7l-13.3-19.6L1059.4-56.4z"/>
		</g>
		<g>
			<polygon class="st30" points="1057.3,-15 1063.7,-20.4 1057.3,-3.9 1051,-2.5 			"/>
		</g>
		<g>
			<polygon class="st30" points="1044.6,-8.5 1046.9,-18.6 1057.3,-15 1049.9,-0.4 			"/>
		</g>
		<g>
			<path class="st3" d="M1034.9-2.7l4.3-3.9c0,0,3.4-4.7,4.8-5.1l0.6,3.1c0,0,10.3-1.4,10.6-1c0.3,0.4,1.4,2.4,1.4,2.4l-3.1,1.1
				c0,0,1.1,1.2,1,1.7s-0.6,1.1-0.6,1.1s0.4,1.3,0.5,2.6c0,1.3-2.5,0.1-3,1.3s-7.9,2-9,2c-1,0-10.6,2.4-10.6,2.4L1034.9-2.7z"/>
		</g>
		<g>
			<path class="st10" d="M1034-3.9L1034-3.9l-6.4-0.5c-0.3,0-0.5-0.2-0.4-0.5c0-0.3,0.2-0.5,0.5-0.4l6.4,0.5c0.3,0,0.5,0.2,0.4,0.5
				C1034.5-4.1,1034.3-3.9,1034-3.9z"/>
		</g>
		<g>
			<path class="st10" d="M1031.8-4.2c-0.1,0-0.1,0-0.2,0c-0.2-0.1-0.3-0.4-0.2-0.6c3.7-8.4,6.4-17.2,8.1-26.2c0.3-1.7,0.6-3.3,0.4-5
				c-0.2-1.8-1-3.2-2.2-4c-0.2-0.1-0.3-0.4-0.1-0.7c0.1-0.2,0.4-0.3,0.7-0.1c1.4,1,2.3,2.7,2.6,4.7c0.2,1.8-0.1,3.5-0.4,5.2
				c-1.7,9.1-4.4,17.9-8.1,26.4C1032.1-4.3,1031.9-4.2,1031.8-4.2z"/>
		</g>
		<g>
			<path class="st10" d="M1081.2,0.6c-0.2,0-0.3-0.1-0.4-0.2l-19.4-33.8c-0.1-0.2-0.1-0.5,0.2-0.6c0.2-0.1,0.5-0.1,0.6,0.2L1081.6,0
				c0.1,0.2,0.1,0.5-0.2,0.6C1081.4,0.5,1081.3,0.6,1081.2,0.6z"/>
		</g>
		<g>
			<g>
				<path class="st3" d="M1070.3-54.1l1.4-6.6c0,0,4.2-0.2,5.4-2.5c0.5-0.9,0.1-4.1-1.2-9c-0.1-0.5,2.1-0.1,1.9-0.7
					c-0.3-1-5.3-4.5-5.6-6.5c-1.2-7.2-2.4-8.9-5-10.2c-5.9-2.8-23.5,1.7-23.1,10c0.4,8.2,4.2,11.7,11.6,21.1l-0.3,1.6
					c-0.8,5.1,3.6,9.5,8.7,8.7l0,0C1067.2-48.7,1069.7-51.1,1070.3-54.1z"/>
			</g>
		</g>
		<g>
			<path class="st6" d="M1055.7-58.5l1.8-8.7c0,0-7.3-4.1-4.2-8.2c3.1-4.1,12.5,9.6,12.5,9.6l0.8-2l-4.2-8.9c0,0,3-2.7,2.3-6.3
				c0,0,8.2-3.3,7.5-9c-0.7-5.8-25.5,3-29.7,7.9C1038.4-79.3,1044.9-69.6,1055.7-58.5z"/>
		</g>
	</g>
	<g>
		<g>
			<path class="st16" d="M1085,35.3c-0.4-3.4-1.1-6.3-1.5-9.7h-45.4c-0.9,2.9,2.2,5.7,1.9,7.8c-1,7.4,5.2,25,5.2,25l1.7,9.7
				l2.2,36.6c0,0-1.9,17.9-3.1,32.1c-0.2,2.2-0.3,4.3-0.3,6.4c0,0.6,0,1.1,0.1,1.6c0.3,10.9,3.9,21.1,4.1,32.5l5.5,1.4
				c0,0,2.1-18.8,4.3-35.5l0,0l0,0c0.4-2.8,0.7-5.6,1.1-8.2c0,0.6-0.1,1.2-0.1,1.7c-0.2,2.2-0.3,4.3-0.3,6.4c0,0.6,0,1.1,0.1,1.6
				c0.3,10.9,3.9,21.1,4.1,32.5l5.5,1.4c0,0,2.1-18.8,4.3-35.5l0,0l0,0c1.6-11.9,3.2-22.7,4-24.7c1.4-3.1,3.8-29.7,6.4-48.4l0,0
				C1086.1,63,1085.8,42.3,1085,35.3z"/>
		</g>
		<g>
			<g>
				<polygon class="st6" points="1064.7,175.6 1062.9,185.2 1082.6,185.2 1071.8,180.4 1070.6,175.6 				"/>
			</g>
			<g>
				<path class="st0" d="M1034.6,7.9c0,0-0.1,17.3,1.5,19l0,0l3.9,6.5l45,1.9l0.6-6.4l2.2-1.5c1.9-1.2,2.8-3.5,2.3-5.7l-11.5-29.6
					c0,0-0.8-9.4-0.2-13.9c0.6-4.6-10.4-29.5-12.5-32.3c-2.1-2.8-10.5-3.3-14,0s-13.2,17.7-14,20.8
					C1037.2-30.3,1034.6,7.9,1034.6,7.9z"/>
			</g>
			<g>
				<path class="st0" d="M1055.4-56.9c-4.7,1.1-25,12.9-26.9,16.7s-17.3,44.9-11.9,49.5c5.5,4.6,22.3-2.1,22.3-2.1l2.2-24.4
					L1055.4-56.9z"/>
			</g>
			<g>
				<path class="st28" d="M1062.1-36.3"/>
			</g>
			<g>
				<path class="st5" d="M1065.8,54c-0.1,0-0.3-0.1-0.4-0.2c-2.4-2.8-3.9-6.3-4.3-9.9c0-0.3,0.2-0.5,0.4-0.5c0.2,0,0.5,0.2,0.5,0.4
					c0.4,3.4,1.8,6.8,4.1,9.4c0.2,0.2,0.1,0.5-0.1,0.7C1066.1,54,1066,54,1065.8,54z"/>
			</g>
			<g>
				<polygon class="st6" points="1049.9,175.6 1048.2,185.2 1067.9,185.2 1057,180.4 1055.9,175.6 				"/>
			</g>
			<g>
				<path class="st5" d="M1062,132.2L1062,132.2c-0.4-0.1-0.5-0.3-0.4-0.6c0.1-0.4,10.1-41.2,11.9-48.8c1.7-7.6,0.8-39.7,0.8-40
					c0-0.1,0-0.2,0.1-0.3l4.8-5.1c0.2-0.2,0.5-0.2,0.7,0s0.2,0.5,0,0.7l-4.7,5c0.1,3,0.9,32.6-0.8,40.1
					c-1.7,7.7-11.8,48.5-11.9,48.9C1062.4,132.1,1062.2,132.2,1062,132.2z"/>
			</g>
			<g>
				<path class="st10" d="M1041.2,29.9c-0.3,0-0.5-0.2-0.5-0.5s0.2-0.5,0.5-0.5l42-0.2l0,0c0.3,0,0.5,0.2,0.5,0.5s-0.2,0.5-0.5,0.5
					L1041.2,29.9L1041.2,29.9z"/>
			</g>
		</g>
		<g>
			<g>
				<path class="st3" d="M1121.7-83.6l0.9-4.9c0,0,3.7-3.5,4.5-4.1s3.2-6.6,3.4-7.1c0.2-0.6-4.4-0.9-4.4-0.9s-0.1-2.9-0.4-3.8
					c-0.1-0.5-1.2-2.7-1.7-1.2l-1,4.4l-1.5,1.5c-0.8,1.1-1.6,5.5-1.6,5.5l-3,6.3C1118.5-86.4,1120.1-85,1121.7-83.6z"/>
			</g>
			<g>
				<path class="st29" d="M1134.8-129.1l-7.4,23.5l-2.9,10.8l2.7,0.3l9-33.8C1135.5-128.7,1135.5-128.7,1134.8-129.1z"/>
			</g>
			<g>
				<path class="st3" d="M1130.5-99.7c0.5-1.2-0.7-5-1.1-4.7c-0.5,0.3-0.7,2.3-0.7,2.3l0.5,1.2c0,0-0.8-0.3-0.8,0s-0.3,1.6-0.3,1.6
					l-0.1,2.5L1130.5-99.7z"/>
			</g>
		</g>
		<g>
			<path class="st0" d="M1085.1-28.5c4.8-4.9,18.1-16.7,22.4-22.7c4.1-5.7,16.2-33.7,16.2-33.7l-6.7-6.5l-19.5,27.3
				c0,0-13.8,8.5-21.2,11.6C1080.9-44.3,1080.1-36.4,1085.1-28.5z"/>
		</g>
		<g>
			<path class="st0" d="M1059.4-56.4c37.9,2.6,39.9,5.9,29.5,18l-5.7,45.7l-13.3-19.6L1059.4-56.4z"/>
		</g>
		<g>
			<polygon class="st30" points="1057.3,-15 1063.7,-20.4 1057.3,-3.9 1051,-2.5 			"/>
		</g>
		<g>
			<polygon class="st30" points="1044.6,-8.5 1046.9,-18.6 1057.3,-15 1049.9,-0.4 			"/>
		</g>
		<g>
			<path class="st3" d="M1034.9-2.7l4.3-3.9c0,0,3.4-4.7,4.8-5.1l0.6,3.1c0,0,10.3-1.4,10.6-1c0.3,0.4,1.4,2.4,1.4,2.4l-3.1,1.1
				c0,0,1.1,1.2,1,1.7s-0.6,1.1-0.6,1.1s0.4,1.3,0.5,2.6c0,1.3-2.5,0.1-3,1.3s-7.9,2-9,2c-1,0-10.6,2.4-10.6,2.4L1034.9-2.7z"/>
		</g>
		<g>
			<path class="st10" d="M1034-3.9L1034-3.9l-6.4-0.5c-0.3,0-0.5-0.2-0.4-0.5c0-0.3,0.2-0.5,0.5-0.4l6.4,0.5c0.3,0,0.5,0.2,0.4,0.5
				C1034.5-4.1,1034.3-3.9,1034-3.9z"/>
		</g>
		<g>
			<path class="st10" d="M1031.8-4.2c-0.1,0-0.1,0-0.2,0c-0.2-0.1-0.3-0.4-0.2-0.6c3.7-8.4,6.4-17.2,8.1-26.2c0.3-1.7,0.6-3.3,0.4-5
				c-0.2-1.8-1-3.2-2.2-4c-0.2-0.1-0.3-0.4-0.1-0.7c0.1-0.2,0.4-0.3,0.7-0.1c1.4,1,2.3,2.7,2.6,4.7c0.2,1.8-0.1,3.5-0.4,5.2
				c-1.7,9.1-4.4,17.9-8.1,26.4C1032.1-4.3,1031.9-4.2,1031.8-4.2z"/>
		</g>
		<g>
			<path class="st10" d="M1081.2,0.6c-0.2,0-0.3-0.1-0.4-0.2l-19.4-33.8c-0.1-0.2-0.1-0.5,0.2-0.6c0.2-0.1,0.5-0.1,0.6,0.2L1081.6,0
				c0.1,0.2,0.1,0.5-0.2,0.6C1081.4,0.5,1081.3,0.6,1081.2,0.6z"/>
		</g>
		<g>
			<g>
				<path class="st3" d="M1070.3-54.1l1.4-6.6c0,0,4.2-0.2,5.4-2.5c0.5-0.9,0.1-4.1-1.2-9c-0.1-0.5,2.1-0.1,1.9-0.7
					c-0.3-1-5.3-4.5-5.6-6.5c-1.2-7.2-2.4-8.9-5-10.2c-5.9-2.8-23.5,1.7-23.1,10c0.4,8.2,4.2,11.7,11.6,21.1l-0.3,1.6
					c-0.8,5.1,3.6,9.5,8.7,8.7l0,0C1067.2-48.7,1069.7-51.1,1070.3-54.1z"/>
			</g>
		</g>
		<g>
			<path class="st6" d="M1055.7-58.5l1.8-8.7c0,0-7.3-4.1-4.2-8.2c3.1-4.1,12.5,9.6,12.5,9.6l0.8-2l-4.2-8.9c0,0,3-2.7,2.3-6.3
				c0,0,8.2-3.3,7.5-9c-0.7-5.8-25.5,3-29.7,7.9C1038.4-79.3,1044.9-69.6,1055.7-58.5z"/>
		</g>
	</g>
</g>
<g>
	<g>
		<rect x="1273.3" y="-66.9" class="st0" width="15.1" height="30.7"/>
		<rect x="1274.6" y="-64.9" class="st16" width="12.1" height="26.6"/>
	</g>
	<polygon id="XMLID_508_" class="st31" points="1274.7,-48 1286.1,-55.1 1286.6,-58.9 1275.1,-50.9 	"/>
	<g>
		<rect x="1280" y="-53.1" width="0.3" height="0.4"/>
		<path class="st32" d="M1280.6-54.2C1280.6-54.3,1280.6-54.3,1280.6-54.2L1280.6-54.2C1280.6-54.3,1280.6-54.3,1280.6-54.2
			C1280.6-54.3,1280.6-54.3,1280.6-54.2L1280.6-54.2c-0.1,0-0.1,0-0.1,0l-0.3,1v5.6h0.4l0,0h0.4v-5.6
			C1281-53.2,1280.7-54.2,1280.6-54.2z"/>
		<path class="st33" d="M1281-53.3c-0.1-0.2-0.3-0.9-0.3-1c0,0,0,0-0.1,0v1H1281z"/>
		<rect x="1280.6" y="-53.1" class="st33" width="0.4" height="0.6"/>
		<rect x="1280.6" y="-52.3" class="st33" width="0.4" height="0.7"/>
		<rect x="1280.6" y="-51.4" class="st33" width="0.4" height="1.7"/>
		<rect x="1280.6" y="-49.6" class="st33" width="0.4" height="1.9"/>
		<path class="st34" d="M1280.8-53.8v0.5h0.2C1280.9-53.4,1280.9-53.6,1280.8-53.8z"/>
		<rect x="1280.8" y="-53.1" class="st34" width="0.2" height="0.6"/>
		<rect x="1280.8" y="-52.3" class="st34" width="0.2" height="0.7"/>
		<rect x="1280.8" y="-51.4" class="st34" width="0.2" height="1.7"/>
		<rect x="1280.8" y="-49.6" class="st34" width="0.2" height="1.9"/>
		<polygon points="1280.2,-53.2 1281,-53.2 1281,-53.2 		"/>
		<polygon points="1280.2,-52.4 1281,-52.4 1281,-52.4 		"/>
		<polygon points="1280.2,-51.5 1281,-51.5 1281,-51.5 		"/>
		<polygon points="1280.2,-49.7 1281,-49.7 1281,-49.7 		"/>
		<rect x="1277.9" y="-53.1" width="0.3" height="0.4"/>
		<path class="st33" d="M1277.5-54.2C1277.6-54.3,1277.6-54.3,1277.5-54.2L1277.5-54.2C1277.6-54.3,1277.6-54.3,1277.5-54.2
			C1277.6-54.3,1277.6-54.3,1277.5-54.2L1277.5-54.2c0.1,0,0.1,0,0.1,0l0.3,1v5.6h-0.4l0,0h-0.4v-5.6
			C1277.2-53.2,1277.5-54.2,1277.5-54.2z"/>
		<path class="st34" d="M1278-53.3c-0.1-0.2-0.3-0.9-0.3-1c0,0,0,0-0.1,0v1H1278z"/>
		<rect x="1277.6" y="-53.1" class="st34" width="0.4" height="0.6"/>
		<rect x="1277.6" y="-49.6" class="st34" width="0.4" height="1.9"/>
		<rect x="1277.6" y="-51.4" class="st34" width="0.4" height="1.7"/>
		<rect x="1277.6" y="-52.3" class="st34" width="0.4" height="0.7"/>
		<polygon points="1277.2,-53.2 1278,-53.2 1278,-53.2 		"/>
		<polygon points="1277.2,-52.4 1278,-52.4 1278,-52.4 		"/>
		<polygon points="1277.2,-51.5 1278,-51.5 1278,-51.5 		"/>
		<polygon points="1277.2,-49.7 1278,-49.7 1278,-49.7 		"/>
		<polygon points="1278.1,-52.1 1280,-52.1 1280,-52.1 		"/>
		<path class="st35" d="M1279.1-56.6L1279.1-56.6L1279.1-56.6L1279.1-56.6L1279.1-56.6c-0.1,0.1-1.1,1.2-1,2.9v7.8h1l0,0h1v-7.8
			C1280.2-55.4,1279.2-56.5,1279.1-56.6z"/>
		<path class="st36" d="M1279.6-55.8v10h0.5v-7.8C1280.1-54.6,1279.9-55.3,1279.6-55.8z"/>
		<path class="st37" d="M1279.1-53.8v-2.8c-0.1,0.1-1,1.2-1,2.8H1279.1z"/>
		<rect x="1278.1" y="-53.6" class="st37" width="1" height="7.7"/>
		<rect x="1276.6" y="-46.4" class="st38" width="1.7" height="2.1"/>
		<rect x="1279.9" y="-46.4" class="st39" width="1.7" height="2.1"/>
		<rect x="1278.5" y="-45" class="st35" width="1.3" height="0.7"/>
		<polygon class="st40" points="1278.5,-45 1278.5,-44.4 1278.6,-44.6 1278.6,-44.5 1278.7,-44.7 1278.9,-44.4 1278.9,-44.6 
			1279,-44.5 1279,-44.6 1279.1,-44.5 1279.1,-44.6 1279.2,-44.4 1279.4,-44.8 1279.5,-44.4 1279.6,-44.6 1279.6,-44.4 
			1279.7,-44.8 1279.7,-44.4 1279.8,-45 		"/>
		<polygon class="st41" points="1278.5,-45 1278.5,-44.8 1278.5,-45 1278.6,-44.8 1278.7,-45 1278.7,-44.8 1278.8,-45 1278.8,-44.7 
			1278.9,-45 1278.9,-44.9 1279,-45 1279,-44.8 1279,-45 1279.1,-44.7 1279.2,-45 1279.3,-44.8 1279.3,-45 1279.4,-44.9 1279.4,-45 
			1279.5,-44.8 1279.5,-45 1279.6,-44.6 1279.6,-45 1279.7,-44.9 1279.7,-45 1279.7,-44.9 1279.8,-45 		"/>
		<g>
			<path class="st36" d="M1280.1-49.2v-3l-0.8-0.8l0,0l0,0c0,0.5,0,1.1,0,1.6c0,0.3,0,0.6,0,0.9c0,0.2,0,0.3,0,0.5L1280.1-49.2z"/>
			<path class="st42" d="M1281.8-46.5c0,0,0-0.1-0.1-0.4c-0.1-0.2-0.2-0.3-0.2-0.3s-0.9-0.9-1.1-1.1s-0.3-0.5-0.3-0.5l-0.4-2.4h-0.6
				l0,0h-0.6l-0.4,2.4c0,0-0.1,0.4-0.3,0.5s-1.1,1.1-1.1,1.1s-0.2,0.1-0.2,0.3c-0.1,0.2-0.1,0.4-0.1,0.4v0.1h0.1l-0.1,0.1v0.1
				l2.7,0.3l0,0l0,0l0,0l0,0l2.7-0.3v-0.1l-0.1-0.1h0.1L1281.8-46.5L1281.8-46.5z"/>
			<polygon class="st39" points="1278.2,-46 1278.2,-45.4 1278.4,-45.4 1278.5,-45 1279,-45 1279,-46 			"/>
			<polygon class="st43" points="1276.4,-46.5 1279.1,-46.5 1279.1,-45.7 1276.4,-46.1 1276.4,-46.2 1276.4,-46.3 1276.4,-46.3 			
				"/>
			<path class="st44" d="M1278.5-50.4l-0.3,1.8c0,0-0.1,0.3-0.2,0.4c-0.1,0.1-1.3,1.3-1.3,1.3l-0.1,0.4h2.2l-0.1-4.2L1278.5-50.4z"
				/>
			<polygon class="st45" points="1280,-46 1280,-45.4 1279.8,-45.4 1279.8,-45 1279.2,-45 1279.2,-46 			"/>
			<polygon class="st42" points="1281.8,-46.5 1279.1,-46.5 1279.1,-45.7 1281.8,-46.1 1281.8,-46.2 1281.8,-46.3 1281.8,-46.3 			
				"/>
			<path class="st34" d="M1279.8-50.4l0.3,1.8c0,0,0.1,0.3,0.2,0.4c0.1,0.1,1.3,1.3,1.3,1.3l0.1,0.4h-2.2l0.1-4.2L1279.8-50.4z"/>
			<path class="st42" d="M1280.4-48.1c-0.1-0.1-0.1-0.1-0.2-0.2c-0.1-0.1-0.2-0.4-0.2-0.4l-0.3-1.8l-0.2-0.3l-0.1,4.2h0.9v-1.5
				H1280.4z"/>
			<path class="st34" d="M1279.8-46.9c0,0,0-3.8,0-4.2s-0.1-0.9-0.1-0.9c-0.2-1.1-0.5-1.1-0.5-1.1s-0.3,0-0.5,1.1
				c0,0-0.1,0.5-0.1,0.9s0,4.2,0,4.2c-0.3,0-0.3,0.5-0.3,0.5v0.6h0.7h0.2l0,0h0.2h0.7v-0.6C1280-46.4,1280-46.9,1279.8-46.9z"/>
			<path class="st44" d="M1279.5-52.5c-0.2-0.6-0.4-0.7-0.4-0.7v0.7H1279.5z"/>
			<path class="st44" d="M1279.8-46.9L1279.8-46.9h-0.6v1.2h0.9v-0.7C1280-46.4,1280-46.9,1279.8-46.9z"/>
			<path class="st44" d="M1279.8-47.1c0-0.8,0-3.7,0-4c0-0.4-0.1-0.9-0.1-0.9c0-0.1,0-0.2-0.1-0.2h-0.5v5.2h0.7V-47.1z"/>
			<path class="st34" d="M1279.8-46.9L1279.8-46.9h-0.2c0,0,0.1,0,0.1,0.1l0,0l0,0L1279.8-46.9c-0.1,0.1,0,0.2,0,0.2s0,0.1,0,0.2
				v0.8h0.3v-0.7C1280-46.4,1280-46.9,1279.8-46.9z"/>
			<path class="st43" d="M1279.8-51.1c0-0.4-0.1-0.9-0.1-0.9c0-0.1,0-0.2-0.1-0.2h-0.1v5.2h0.3C1279.8-47.8,1279.8-50.8,1279.8-51.1
				z"/>
			<polygon class="st43" points="1279.1,-47 1279.1,-47 1278.9,-47 1279,-44.7 1279.1,-44.7 1279.1,-44.7 1279.2,-44.7 1279.3,-47 
							"/>
			<polygon class="st45" points="1279.5,-51.9 1279.1,-52 1279.1,-52 1279.1,-52 1279.1,-52 1279.1,-52 1278.7,-51.9 1278.6,-51.6 
				1278.7,-51.6 1278.8,-51.8 1279.1,-51.8 1279.4,-51.8 1279.5,-51.6 1279.6,-51.6 			"/>
			<polygon class="st45" points="1279.5,-52.4 1279.3,-52.4 1279.3,-52.6 1279.1,-52.6 1279.1,-52.6 1279,-52.6 1279,-52.4 
				1278.7,-52.4 1278.7,-52.3 1279.1,-52.3 1279.1,-52.3 1279.5,-52.3 			"/>
		</g>
		<polygon points="1278.1,-53.7 1280,-53.7 1280,-53.7 		"/>
		<circle class="st41" cx="1277.7" cy="-44.8" r="0.5"/>
		<g>
			<path class="st41" d="M1284.5-45.1c-0.1,0-0.2,0-0.2,0c0-0.1-0.1-0.1-0.1-0.2c0.1-0.1,0.2-0.2,0.2-0.4c0-0.3-0.2-0.5-0.5-0.5
				c-0.2,0-0.4,0.2-0.5,0.4c-0.1,0-0.2,0-0.3,0c-0.7,0-1.4,0.5-1.5,1.2c-0.1-0.1-0.3-0.1-0.4-0.1c-0.3,0-0.6,0.2-0.8,0.4
				c-0.2-0.5-0.7-0.9-1.4-0.9c-0.4,0-0.7,0.1-0.9,0.3c-0.2-0.6-0.7-1.1-1.4-1.1c-0.1,0-0.3,0-0.4,0.1c0,0,0,0,0-0.1
				c0-0.2-0.1-0.5-0.3-0.6c0.3,1.2,0.5,2.3,0.7,3.6l0,0c0.4,0,0.7-0.1,0.9-0.3c0.1,0.4,0.3,0.7,0.7,0.9h1.6c0.3-0.2,0.5-0.4,0.6-0.7
				c0.2,0.3,0.5,0.4,0.8,0.4c0.4,0,0.7-0.2,0.9-0.6c0.3,0.2,0.6,0.4,1,0.4c0.5,0,0.9-0.2,1.1-0.5c0.1,0,0.2,0.1,0.4,0.1
				c0.5,0,0.9-0.4,0.9-0.9C1285.4-44.7,1285-45.1,1284.5-45.1z"/>
			<path class="st39" d="M1284.4-45c-0.1,0-0.3,0-0.4,0.1c-0.2-0.4-0.6-0.7-1.1-0.7c-0.7,0-1.2,0.6-1.2,1.2c0,0.3,0.1,0.6,0.3,0.8
				c-0.1-0.1-0.1-0.3-0.1-0.5c0-0.7,0.5-1.2,1.2-1.2c0.4,0,0.7,0.2,0.9,0.4c-0.3,0.1-0.5,0.4-0.5,0.8c0,0.2,0.1,0.4,0.2,0.6
				c0-0.1-0.1-0.2-0.1-0.3c0-0.5,0.4-0.9,0.9-0.9c0.3,0,0.5,0.1,0.7,0.3C1285.1-44.8,1284.8-45,1284.4-45z"/>
		</g>
	</g>
	<polygon id="XMLID_509_" class="st46" points="1274.8,-64.7 1275.1,-38.4 1285.9,-38.3 1286.3,-64.3 	"/>
	<g>
		<g>
			<g>
				<g>
					<path class="st22" d="M1201.4,249.3c0.1-0.5,0.3-1.1,0.6-1.8c0.9-1.8,1.8-3.8,3.1-5.5c1.1-1.5,3.3-1.1,5-0.9
						c2.6,0.3,5.1,0.7,7.7,1c0.1,0,0.2,0,0.3,0.1c0.3,0.2,0.1,0.6,0,0.9c-1.4,2.7-2.7,5.5-4.1,8.2c-0.3,0.5-0.5,1-1,1.4
						s-1.2,0.5-1.9,0.5c-2.6,0.1-5.2-0.4-7.6-1.3C1201.8,251.3,1201.2,250.5,1201.4,249.3z"/>
					<polygon class="st22" points="1186,128.7 1201.5,189.6 1201.8,250.8 1208.1,252.9 1212.7,250.6 1221.8,187.2 1228,124.9 					
						"/>
				</g>
				<g>
					<path class="st22" d="M1141,246.5c0.2-0.5,0.6-1,1.1-1.5c1.4-1.5,2.8-3.2,4.4-4.4c1.5-1.1,3.5-0.1,5,0.5c2.4,1,4.7,2.1,7.1,3.1
						c0.1,0,0.2,0.1,0.3,0.2c0.2,0.3,0,0.6-0.2,0.8c-2.1,2.3-4.1,4.5-6.2,6.8c-0.4,0.4-0.8,0.9-1.3,1.1c-0.6,0.2-1.3,0.1-1.9-0.1
						c-2.5-0.6-4.9-1.8-7-3.4C1140.8,248.5,1140.5,247.6,1141,246.5z"/>
					<polygon class="st22" points="1160.2,124.1 1155.9,185.3 1141.5,245.9 1147,249.7 1152.1,248.7 1178.4,190.3 1201.6,132.1 
											"/>
				</g>
				<path class="st16" d="M1193.7-8.2c3.1,3.2,4.9,11.8,6.4,15.7c9.6,24,17.8,48.6,25.7,73.3c4,12.4,7.8,24.8,11.8,37.2
					c0.7,2.3,8.7,29.7,9.2,29.6c-36.5,4.6-64.6,11.1-101.1,6.6c-4.2-0.5-4.6-29.5-4.9-33.2c-1.3-18.4-1.6-37,0.2-55.4
					c1.4-13.7,3.9-27.3,8.1-40.2c3.2-10.2,8.3-28.3,17.6-33.4c5-2.7,21.2-4.3,26.2-0.9C1193.1-8.7,1193.4-8.5,1193.7-8.2z"/>
				<path class="st47" d="M1214.8-9.8c-2.6,8.7-7.4,15.5-12.1,22c-11.3,15.5-22.6,31.1-33.9,46.6c-0.5,0.7-1,1.4-1.6,1.7
					c-1.1,0.6-2.3,0.3-3.4-0.1c-11.8-3.9-14.4,39.7-26.3,35.8c5.4-19,2.3-84.8,9.2-102.7c5-12.9,10.6-25.7,18.8-34.3
					c8.1-8.6,26.6-19.3,36.7-15.1C1214.4-50.8,1219.5-25.6,1214.8-9.8z"/>
				<path class="st47" d="M1218-9.8c-2.6,8.7-7.4,15.5-12.1,22c-11.3,15.5-22.6,31.1-33.9,46.6c-0.5,0.7-1,1.4-1.6,1.7
					c-1.1,0.6-2.3,0.3-3.4-0.1c-11.8-3.9-14.4,39.7-26.3,35.8c5.4-19,2.3-84.8,9.2-102.7c5-12.9,10.6-25.7,18.8-34.3
					c8.1-8.6,26.6-19.3,36.7-15.1C1217.7-50.8,1222.7-25.6,1218-9.8z"/>
			</g>
			<g>
				<path class="st48" d="M1291.9-39.2c-0.4-1.4-0.9-2.7-1.9-3.7c-0.2-0.2-0.4-0.4-0.7-0.4c-0.4,0-0.7,0.3-1,0.6
					c-1.8,2.1-3.6,4.1-5.3,6.2c-1.2-0.6-1.3-2.7-3.1-2.4c-0.8,0.1-1.4,0.8-1.6,1.5c-0.1,0.4-0.5,0.7-0.5,1.2c0,0.4,0.3,0.8,0.5,1.1
					c4.2,6.7-11.4,12-2,17.3c1,0.6,2.5,1.1,3.3,0.3c0.3-0.3,0.4-0.6,0.6-1c1.1-2.3,2.9-4.7,5.2-6c2.7-1.5,5.4-1.6,6.9-5.9
					c0.7-2.2,0.7-4.5,0.2-6.7C1292.3-37.6,1292.2-38.4,1291.9-39.2z"/>
				<polygon class="st16" points="1213.3,60.1 1254.7,33.6 1284.7,-21.9 1275.3,-26.9 1228.5,13.1 1201.4,20.5 1177,51.9 				"/>
			</g>
		</g>
	</g>
	<g>
		<rect x="1273.3" y="-66.9" class="st0" width="15.1" height="30.7"/>
		<rect x="1274.6" y="-64.9" class="st16" width="12.1" height="26.6"/>
	</g>
	<polygon id="XMLID_6_" class="st31" points="1274.7,-48 1286.1,-55.1 1286.6,-58.9 1275.1,-50.9 	"/>
	<g>
		<rect x="1280" y="-53.1" width="0.3" height="0.4"/>
		<path class="st32" d="M1280.6-54.2C1280.6-54.3,1280.6-54.3,1280.6-54.2L1280.6-54.2C1280.6-54.3,1280.6-54.3,1280.6-54.2
			C1280.6-54.3,1280.6-54.3,1280.6-54.2L1280.6-54.2c-0.1,0-0.1,0-0.1,0l-0.3,1v5.6h0.4l0,0h0.4v-5.6
			C1281-53.2,1280.7-54.2,1280.6-54.2z"/>
		<path class="st33" d="M1281-53.3c-0.1-0.2-0.3-0.9-0.3-1c0,0,0,0-0.1,0v1H1281z"/>
		<rect x="1280.6" y="-53.1" class="st33" width="0.4" height="0.6"/>
		<rect x="1280.6" y="-52.3" class="st33" width="0.4" height="0.7"/>
		<rect x="1280.6" y="-51.4" class="st33" width="0.4" height="1.7"/>
		<rect x="1280.6" y="-49.6" class="st33" width="0.4" height="1.9"/>
		<path class="st34" d="M1280.8-53.8v0.5h0.2C1280.9-53.4,1280.9-53.6,1280.8-53.8z"/>
		<rect x="1280.8" y="-53.1" class="st34" width="0.2" height="0.6"/>
		<rect x="1280.8" y="-52.3" class="st34" width="0.2" height="0.7"/>
		<rect x="1280.8" y="-51.4" class="st34" width="0.2" height="1.7"/>
		<rect x="1280.8" y="-49.6" class="st34" width="0.2" height="1.9"/>
		<polygon points="1280.2,-53.2 1281,-53.2 1281,-53.2 		"/>
		<polygon points="1280.2,-52.4 1281,-52.4 1281,-52.4 		"/>
		<polygon points="1280.2,-51.5 1281,-51.5 1281,-51.5 		"/>
		<polygon points="1280.2,-49.7 1281,-49.7 1281,-49.7 		"/>
		<rect x="1277.9" y="-53.1" width="0.3" height="0.4"/>
		<path class="st33" d="M1277.5-54.2C1277.6-54.3,1277.6-54.3,1277.5-54.2L1277.5-54.2C1277.6-54.3,1277.6-54.3,1277.5-54.2
			C1277.6-54.3,1277.6-54.3,1277.5-54.2L1277.5-54.2c0.1,0,0.1,0,0.1,0l0.3,1v5.6h-0.4l0,0h-0.4v-5.6
			C1277.2-53.2,1277.5-54.2,1277.5-54.2z"/>
		<path class="st34" d="M1278-53.3c-0.1-0.2-0.3-0.9-0.3-1c0,0,0,0-0.1,0v1H1278z"/>
		<rect x="1277.6" y="-53.1" class="st34" width="0.4" height="0.6"/>
		<rect x="1277.6" y="-49.6" class="st34" width="0.4" height="1.9"/>
		<rect x="1277.6" y="-51.4" class="st34" width="0.4" height="1.7"/>
		<rect x="1277.6" y="-52.3" class="st34" width="0.4" height="0.7"/>
		<polygon points="1277.2,-53.2 1278,-53.2 1278,-53.2 		"/>
		<polygon points="1277.2,-52.4 1278,-52.4 1278,-52.4 		"/>
		<polygon points="1277.2,-51.5 1278,-51.5 1278,-51.5 		"/>
		<polygon points="1277.2,-49.7 1278,-49.7 1278,-49.7 		"/>
		<polygon points="1278.1,-52.1 1280,-52.1 1280,-52.1 		"/>
		<path class="st35" d="M1279.1-56.6L1279.1-56.6L1279.1-56.6L1279.1-56.6L1279.1-56.6c-0.1,0.1-1.1,1.2-1,2.9v7.8h1l0,0h1v-7.8
			C1280.2-55.4,1279.2-56.5,1279.1-56.6z"/>
		<path class="st36" d="M1279.6-55.8v10h0.5v-7.8C1280.1-54.6,1279.9-55.3,1279.6-55.8z"/>
		<path class="st37" d="M1279.1-53.8v-2.8c-0.1,0.1-1,1.2-1,2.8H1279.1z"/>
		<rect x="1278.1" y="-53.6" class="st37" width="1" height="7.7"/>
		<rect x="1276.6" y="-46.4" class="st38" width="1.7" height="2.1"/>
		<rect x="1279.9" y="-46.4" class="st39" width="1.7" height="2.1"/>
		<rect x="1278.5" y="-45" class="st35" width="1.3" height="0.7"/>
		<polygon class="st40" points="1278.5,-45 1278.5,-44.4 1278.6,-44.6 1278.6,-44.5 1278.7,-44.7 1278.9,-44.4 1278.9,-44.6 
			1279,-44.5 1279,-44.6 1279.1,-44.5 1279.1,-44.6 1279.2,-44.4 1279.4,-44.8 1279.5,-44.4 1279.6,-44.6 1279.6,-44.4 
			1279.7,-44.8 1279.7,-44.4 1279.8,-45 		"/>
		<polygon class="st41" points="1278.5,-45 1278.5,-44.8 1278.5,-45 1278.6,-44.8 1278.7,-45 1278.7,-44.8 1278.8,-45 1278.8,-44.7 
			1278.9,-45 1278.9,-44.9 1279,-45 1279,-44.8 1279,-45 1279.1,-44.7 1279.2,-45 1279.3,-44.8 1279.3,-45 1279.4,-44.9 1279.4,-45 
			1279.5,-44.8 1279.5,-45 1279.6,-44.6 1279.6,-45 1279.7,-44.9 1279.7,-45 1279.7,-44.9 1279.8,-45 		"/>
		<g>
			<path class="st36" d="M1280.1-49.2v-3l-0.8-0.8l0,0l0,0c0,0.5,0,1.1,0,1.6c0,0.3,0,0.6,0,0.9c0,0.2,0,0.3,0,0.5L1280.1-49.2z"/>
			<path class="st42" d="M1281.8-46.5c0,0,0-0.1-0.1-0.4c-0.1-0.2-0.2-0.3-0.2-0.3s-0.9-0.9-1.1-1.1s-0.3-0.5-0.3-0.5l-0.4-2.4h-0.6
				l0,0h-0.6l-0.4,2.4c0,0-0.1,0.4-0.3,0.5s-1.1,1.1-1.1,1.1s-0.2,0.1-0.2,0.3c-0.1,0.2-0.1,0.4-0.1,0.4v0.1h0.1l-0.1,0.1v0.1
				l2.7,0.3l0,0l0,0l0,0l0,0l2.7-0.3v-0.1l-0.1-0.1h0.1L1281.8-46.5L1281.8-46.5z"/>
			<polygon class="st39" points="1278.2,-46 1278.2,-45.4 1278.4,-45.4 1278.5,-45 1279,-45 1279,-46 			"/>
			<polygon class="st43" points="1276.4,-46.5 1279.1,-46.5 1279.1,-45.7 1276.4,-46.1 1276.4,-46.2 1276.4,-46.3 1276.4,-46.3 			
				"/>
			<path class="st44" d="M1278.5-50.4l-0.3,1.8c0,0-0.1,0.3-0.2,0.4c-0.1,0.1-1.3,1.3-1.3,1.3l-0.1,0.4h2.2l-0.1-4.2L1278.5-50.4z"
				/>
			<polygon class="st45" points="1280,-46 1280,-45.4 1279.8,-45.4 1279.8,-45 1279.2,-45 1279.2,-46 			"/>
			<polygon class="st42" points="1281.8,-46.5 1279.1,-46.5 1279.1,-45.7 1281.8,-46.1 1281.8,-46.2 1281.8,-46.3 1281.8,-46.3 			
				"/>
			<path class="st34" d="M1279.8-50.4l0.3,1.8c0,0,0.1,0.3,0.2,0.4c0.1,0.1,1.3,1.3,1.3,1.3l0.1,0.4h-2.2l0.1-4.2L1279.8-50.4z"/>
			<path class="st42" d="M1280.4-48.1c-0.1-0.1-0.1-0.1-0.2-0.2c-0.1-0.1-0.2-0.4-0.2-0.4l-0.3-1.8l-0.2-0.3l-0.1,4.2h0.9v-1.5
				H1280.4z"/>
			<path class="st34" d="M1279.8-46.9c0,0,0-3.8,0-4.2s-0.1-0.9-0.1-0.9c-0.2-1.1-0.5-1.1-0.5-1.1s-0.3,0-0.5,1.1
				c0,0-0.1,0.5-0.1,0.9s0,4.2,0,4.2c-0.3,0-0.3,0.5-0.3,0.5v0.6h0.7h0.2l0,0h0.2h0.7v-0.6C1280-46.4,1280-46.9,1279.8-46.9z"/>
			<path class="st44" d="M1279.5-52.5c-0.2-0.6-0.4-0.7-0.4-0.7v0.7H1279.5z"/>
			<path class="st44" d="M1279.8-46.9L1279.8-46.9h-0.6v1.2h0.9v-0.7C1280-46.4,1280-46.9,1279.8-46.9z"/>
			<path class="st44" d="M1279.8-47.1c0-0.8,0-3.7,0-4c0-0.4-0.1-0.9-0.1-0.9c0-0.1,0-0.2-0.1-0.2h-0.5v5.2h0.7V-47.1z"/>
			<path class="st34" d="M1279.8-46.9L1279.8-46.9h-0.2c0,0,0.1,0,0.1,0.1l0,0l0,0L1279.8-46.9c-0.1,0.1,0,0.2,0,0.2s0,0.1,0,0.2
				v0.8h0.3v-0.7C1280-46.4,1280-46.9,1279.8-46.9z"/>
			<path class="st43" d="M1279.8-51.1c0-0.4-0.1-0.9-0.1-0.9c0-0.1,0-0.2-0.1-0.2h-0.1v5.2h0.3C1279.8-47.8,1279.8-50.8,1279.8-51.1
				z"/>
			<polygon class="st43" points="1279.1,-47 1279.1,-47 1278.9,-47 1279,-44.7 1279.1,-44.7 1279.1,-44.7 1279.2,-44.7 1279.3,-47 
							"/>
			<polygon class="st45" points="1279.5,-51.9 1279.1,-52 1279.1,-52 1279.1,-52 1279.1,-52 1279.1,-52 1278.7,-51.9 1278.6,-51.6 
				1278.7,-51.6 1278.8,-51.8 1279.1,-51.8 1279.4,-51.8 1279.5,-51.6 1279.6,-51.6 			"/>
			<polygon class="st45" points="1279.5,-52.4 1279.3,-52.4 1279.3,-52.6 1279.1,-52.6 1279.1,-52.6 1279,-52.6 1279,-52.4 
				1278.7,-52.4 1278.7,-52.3 1279.1,-52.3 1279.1,-52.3 1279.5,-52.3 			"/>
		</g>
		<polygon points="1278.1,-53.7 1280,-53.7 1280,-53.7 		"/>
		<circle class="st41" cx="1277.7" cy="-44.8" r="0.5"/>
		<g>
			<path class="st41" d="M1284.5-45.1c-0.1,0-0.2,0-0.2,0c0-0.1-0.1-0.1-0.1-0.2c0.1-0.1,0.2-0.2,0.2-0.4c0-0.3-0.2-0.5-0.5-0.5
				c-0.2,0-0.4,0.2-0.5,0.4c-0.1,0-0.2,0-0.3,0c-0.7,0-1.4,0.5-1.5,1.2c-0.1-0.1-0.3-0.1-0.4-0.1c-0.3,0-0.6,0.2-0.8,0.4
				c-0.2-0.5-0.7-0.9-1.4-0.9c-0.4,0-0.7,0.1-0.9,0.3c-0.2-0.6-0.7-1.1-1.4-1.1c-0.1,0-0.3,0-0.4,0.1c0,0,0,0,0-0.1
				c0-0.2-0.1-0.5-0.3-0.6c0.3,1.2,0.5,2.3,0.7,3.6l0,0c0.4,0,0.7-0.1,0.9-0.3c0.1,0.4,0.3,0.7,0.7,0.9h1.6c0.3-0.2,0.5-0.4,0.6-0.7
				c0.2,0.3,0.5,0.4,0.8,0.4c0.4,0,0.7-0.2,0.9-0.6c0.3,0.2,0.6,0.4,1,0.4c0.5,0,0.9-0.2,1.1-0.5c0.1,0,0.2,0.1,0.4,0.1
				c0.5,0,0.9-0.4,0.9-0.9C1285.4-44.7,1285-45.1,1284.5-45.1z"/>
			<path class="st39" d="M1284.4-45c-0.1,0-0.3,0-0.4,0.1c-0.2-0.4-0.6-0.7-1.1-0.7c-0.7,0-1.2,0.6-1.2,1.2c0,0.3,0.1,0.6,0.3,0.8
				c-0.1-0.1-0.1-0.3-0.1-0.5c0-0.7,0.5-1.2,1.2-1.2c0.4,0,0.7,0.2,0.9,0.4c-0.3,0.1-0.5,0.4-0.5,0.8c0,0.2,0.1,0.4,0.2,0.6
				c0-0.1-0.1-0.2-0.1-0.3c0-0.5,0.4-0.9,0.9-0.9c0.3,0,0.5,0.1,0.7,0.3C1285.1-44.8,1284.8-45,1284.4-45z"/>
		</g>
	</g>
	<polygon id="XMLID_5_" class="st46" points="1274.8,-64.7 1275.1,-38.4 1285.9,-38.3 1286.3,-64.3 	"/>
	<g>
		<g>
			<g>
				<g>
					<path class="st22" d="M1201.4,249.3c0.1-0.5,0.3-1.1,0.6-1.8c0.9-1.8,1.8-3.8,3.1-5.5c1.1-1.5,3.3-1.1,5-0.9
						c2.6,0.3,5.1,0.7,7.7,1c0.1,0,0.2,0,0.3,0.1c0.3,0.2,0.1,0.6,0,0.9c-1.4,2.7-2.7,5.5-4.1,8.2c-0.3,0.5-0.5,1-1,1.4
						s-1.2,0.5-1.9,0.5c-2.6,0.1-5.2-0.4-7.6-1.3C1201.8,251.3,1201.2,250.5,1201.4,249.3z"/>
					<polygon class="st22" points="1186,128.7 1201.5,189.6 1201.8,250.8 1208.1,252.9 1212.7,250.6 1221.8,187.2 1228,124.9 					
						"/>
				</g>
				<g>
					<path class="st22" d="M1141,246.5c0.2-0.5,0.6-1,1.1-1.5c1.4-1.5,2.8-3.2,4.4-4.4c1.5-1.1,3.5-0.1,5,0.5c2.4,1,4.7,2.1,7.1,3.1
						c0.1,0,0.2,0.1,0.3,0.2c0.2,0.3,0,0.6-0.2,0.8c-2.1,2.3-4.1,4.5-6.2,6.8c-0.4,0.4-0.8,0.9-1.3,1.1c-0.6,0.2-1.3,0.1-1.9-0.1
						c-2.5-0.6-4.9-1.8-7-3.4C1140.8,248.5,1140.5,247.6,1141,246.5z"/>
					<polygon class="st22" points="1160.2,124.1 1155.9,185.3 1141.5,245.9 1147,249.7 1152.1,248.7 1178.4,190.3 1201.6,132.1 
											"/>
				</g>
				<path class="st16" d="M1193.7-8.2c3.1,3.2,4.9,11.8,6.4,15.7c9.6,24,17.8,48.6,25.7,73.3c4,12.4,7.8,24.8,11.8,37.2
					c0.7,2.3,8.7,29.7,9.2,29.6c-36.5,4.6-64.6,11.1-101.1,6.6c-4.2-0.5-4.6-29.5-4.9-33.2c-1.3-18.4-1.6-37,0.2-55.4
					c1.4-13.7,3.9-27.3,8.1-40.2c3.2-10.2,8.3-28.3,17.6-33.4c5-2.7,21.2-4.3,26.2-0.9C1193.1-8.7,1193.4-8.5,1193.7-8.2z"/>
				<path class="st47" d="M1214.8-9.8c-2.6,8.7-7.4,15.5-12.1,22c-11.3,15.5-22.6,31.1-33.9,46.6c-0.5,0.7-1,1.4-1.6,1.7
					c-1.1,0.6-2.3,0.3-3.4-0.1c-11.8-3.9-14.4,39.7-26.3,35.8c5.4-19,2.3-84.8,9.2-102.7c5-12.9,10.6-25.7,18.8-34.3
					c8.1-8.6,26.6-19.3,36.7-15.1C1214.4-50.8,1219.5-25.6,1214.8-9.8z"/>
				<path class="st47" d="M1218-9.8c-2.6,8.7-7.4,15.5-12.1,22c-11.3,15.5-22.6,31.1-33.9,46.6c-0.5,0.7-1,1.4-1.6,1.7
					c-1.1,0.6-2.3,0.3-3.4-0.1c-11.8-3.9-14.4,39.7-26.3,35.8c5.4-19,2.3-84.8,9.2-102.7c5-12.9,10.6-25.7,18.8-34.3
					c8.1-8.6,26.6-19.3,36.7-15.1C1217.7-50.8,1222.7-25.6,1218-9.8z"/>
			</g>
			<g>
				<path class="st48" d="M1291.9-39.2c-0.4-1.4-0.9-2.7-1.9-3.7c-0.2-0.2-0.4-0.4-0.7-0.4c-0.4,0-0.7,0.3-1,0.6
					c-1.8,2.1-3.6,4.1-5.3,6.2c-1.2-0.6-1.3-2.7-3.1-2.4c-0.8,0.1-1.4,0.8-1.6,1.5c-0.1,0.4-0.5,0.7-0.5,1.2c0,0.4,0.3,0.8,0.5,1.1
					c4.2,6.7-11.4,12-2,17.3c1,0.6,2.5,1.1,3.3,0.3c0.3-0.3,0.4-0.6,0.6-1c1.1-2.3,2.9-4.7,5.2-6c2.7-1.5,5.4-1.6,6.9-5.9
					c0.7-2.2,0.7-4.5,0.2-6.7C1292.3-37.6,1292.2-38.4,1291.9-39.2z"/>
				<polygon class="st16" points="1213.3,60.1 1254.7,33.6 1284.7,-21.9 1275.3,-26.9 1228.5,13.1 1201.4,20.5 1177,51.9 				"/>
			</g>
		</g>
	</g>
</g>
</svg>
