<?xml version="1.0" encoding="utf-8"?>
<!-- Generator: Adobe Illustrator 22.0.0, SVG Export Plug-In . SVG Version: 6.00 Build 0)  -->
<svg version="1.1" id="Layer_1" xmlns="http://www.w3.org/2000/svg" xmlns:xlink="http://www.w3.org/1999/xlink" x="0px" y="0px"
	 viewBox="0 0 395.8 285.8" style="enable-background:new 0 0 395.8 285.8;" xml:space="preserve">
<style type="text/css">
	.st0{fill:#2D24A3;}
	.st1{fill:#B77053;}
	.st2{fill:#ECE0D3;}
	.st3{fill:#E48868;}
	.st4{fill:#464473;}
	.st5{fill:#734E4F;}
	.st6{fill:#393762;}
	.st7{fill:#BA745D;}
	.st8{fill:#563616;}
	.st9{fill:#202070;}
	.st10{fill:#CFB199;}
	.st11{fill:#4E587F;}
	.st12{opacity:0.73;fill:#FFFFFF;enable-background:new    ;}
	.st13{fill:#6668CA;}
	.st14{fill:#8387FE;}
	.st15{fill:none;stroke:#6668CA;stroke-miterlimit:10;}
	.st16{fill:#F96332;}
	.st17{fill:#CDD0F9;}
</style>
<g>
	<g>
		<g>
			<g>
				<path class="st0" d="M4710.3-4960.3v60.8h3.8c0,0,6.6-27.7,6.9-30.4c0.3-2.7-1-11.2-1-11.2l5.7-22L4710.3-4960.3z"/>
			</g>
		</g>
		<g>
			<g>
				<path class="st0" d="M4708.3-4960.3v60.8h-3.8c0,0-6.6-27.7-6.9-30.4c-0.3-2.7,1-11.2,1-11.2l-5.7-22L4708.3-4960.3z"/>
			</g>
		</g>
		<g>
			<g>
				<polygon class="st1" points="4709.8,-4916.4 4710.3,-4896.4 4710.3,-4892.2 4715.7,-4892.2 4713.8,-4895.9 4718.8,-4916.4 				
					"/>
			</g>
		</g>
	</g>
	<g>
		<g>
			<path class="st2" d="M4720-5030.3c1.9,4.5,8.4,5.3,10.6,9.6c1.4,2.9,0.3,6.6-1.9,8.9c-2.2,2.3-5.4,3.6-8.6,4.4
				c-7,1.9-14.5,2.4-21.5,0.2c-2.5-0.8-4.9-1.9-6.8-3.6c-1.9-1.7-3.4-4.1-3.5-6.7c-0.2-2.6,1.1-5.3,3.3-6.6c1.4-0.8,3.1-1,4.2-2.1
				c1.7-1.6,1.7-4.2,1.6-6.6c-0.1-4.3,0.1-8.7,0.7-13c0.4-3.3,1.2-6.8,3.4-9.3c2.5-2.7,6.5-3.7,10.1-2.9c3.6,0.8,6.5,3.6,8.1,6.9
				c1.6,3.3,1.9,7.1,1.2,10.7C4720.2-5036.9,4718.7-5033.4,4720-5030.3z"/>
		</g>
	</g>
	<g>
		<g>
			<path class="st3" d="M4687.8-4975.9c0,0-2.3,4.2-2.5,5.6s-0.2,2.1,0.9,1.8c1.1-0.3-0.1,1.9,1.5,1.7c1.6-0.2,4.3-4.5,4.3-4.5
				l-2.7-3.7L4687.8-4975.9z"/>
		</g>
	</g>
	<g>
		<g>
			<path class="st4" d="M4730-4959c0,0-1.9-27.7-11.7-42l2.5-13.6c0,0,4.2-3.6,3.3-9.1v-7.5c0,0-11.6-5.5-14.4-5.5
				s-15.3,6.1-15.3,6.1s0,5.2,0,7c0,1.9,0.2,6.1,3,8.7l3.1,13.7c0,0-11.2,12-12.7,43.1C4687.8-4957.9,4713-4955.1,4730-4959z"/>
		</g>
	</g>
	<g>
		<g>
			<path class="st4" d="M4694.4-5030.5c-2.2,1.4-3.3,3.1-3.6,4.4c-0.3,1.3-3.1,28.4-3,32c0.2,3.6-2.8,2.8-1.6,8s-3,4.8-1.1,8.3
				l0.5,2.8l4,0.9l4.1-12l3.6-28.6L4694.4-5030.5z"/>
		</g>
	</g>
	<g>
		<g>
			<path class="st1" d="M4736.9-4966.6c3.5-0.6-2.3-10.1-6.2-12.6s-11.6-4.6-13.6-4.1C4715-4982.9,4723.3-4964.1,4736.9-4966.6z"/>
		</g>
	</g>
	<g>
		<g>
			<path class="st1" d="M4717.1-4983.3c-1.7,0-2.3,1.6-2.3,3.4c0,1.9,4.1,21.3,7.2,23c3.1,1.7,13.6,1.4,14.2-1.9
				c0.6-3.3-1.1-10.8-1.1-10.8L4717.1-4983.3z"/>
		</g>
	</g>
	<g>
		<g>
			<polygon class="st1" points="4717.1,-4983.3 4699.5,-5032.9 4696.6,-5031.6 4714.7,-4979.9 			"/>
		</g>
	</g>
	<g>
		<g>
			<path class="st3" d="M4718.3-5001l-3.1,1.8c0,0-3.3-1.4-4.2-1.2l0.7,1.9c0,0-5.5,1.5-5.5,1.8s0,1.7,0,1.7l2-0.4c0,0-0.2,1,0,1.2
				s0.7,0.4,0.7,0.4s0.2,0.8,0.6,1.6c0.4,0.8,0.4,1.4,1.1,1.9c0.6,0.5,4.9-1.4,5.4-1.8s4.5-4.6,4.5-4.6L4718.3-5001z"/>
		</g>
	</g>
	<g>
		<g>
			<path class="st5" d="M4732.7-4966c0.6,0,1.2-0.1,1.8-0.2c0.2,0,0.3-0.2,0.2-0.3c0-0.2-0.2-0.3-0.3-0.2c-3.5,0.6-7.5-0.8-10.6-3.9
				c-2.8-2.8-4.6-6.4-6.3-10.1c-0.1-0.1-0.2-0.2-0.4-0.1c-0.1,0.1-0.2,0.2-0.1,0.4c1.7,3.8,3.5,7.4,6.4,10.3
				C4726.1-4967.6,4729.5-4966,4732.7-4966z"/>
		</g>
	</g>
	<g>
		<g>
			<path class="st5" d="M4731.6-4968.8c1.3,0,2.6-0.1,3.9-0.4c0.2,0,0.3-0.2,0.2-0.3c0-0.2-0.2-0.3-0.3-0.2c-1.7,0.3-3.3,0.4-5,0.3
				c-0.2,0-0.3,0.1-0.3,0.3c0,0.2,0.1,0.3,0.3,0.3C4730.8-4968.8,4731.2-4968.8,4731.6-4968.8z"/>
		</g>
	</g>
	<g>
		<g>
			<path class="st5" d="M4725.5-4957.5c0.1,0,0.1,0,0.2-0.1c0.1-0.1,0.1-0.3,0-0.4c-5.4-6.5-8.7-14.6-9.3-23.1
				c0-0.2-0.2-0.3-0.3-0.3c-0.2,0-0.3,0.2-0.3,0.3c0.6,8.5,3.9,16.8,9.4,23.4C4725.3-4957.6,4725.4-4957.5,4725.5-4957.5z"/>
		</g>
	</g>
	<g>
		<g>
			<path class="st5" d="M4709.1-4999.1h0.1c0.2-0.1,0.2-0.2,0.2-0.4l-4-10.9c-0.1-0.2-0.2-0.2-0.4-0.2c-0.2,0.1-0.2,0.2-0.2,0.4
				l4,10.9C4708.9-4999.2,4709-4999.1,4709.1-4999.1z"/>
		</g>
	</g>
	<g>
		<g>
			<path class="st4" d="M4724.1-5031.1c3,1.4,8,28,7.3,29.2s-8,8.9-10.5,9.7l-2.7-8.7l4.7-4.1l-2.2-9.5L4724.1-5031.1z"/>
		</g>
	</g>
	<g>
		<g>
			<path class="st6" d="M4706.5-5022.8L4706.5-5022.8c3.1-0.7,5.9-2.5,7.9-4.9c0.1-0.1,0.1-0.3-0.1-0.4c-0.1-0.1-0.3-0.1-0.4,0.1
				c-1.8,2.4-4.5,4.1-7.5,4.7c-0.2,0-0.3,0.2-0.2,0.4C4706.2-5022.8,4706.3-5022.8,4706.5-5022.8z"/>
		</g>
	</g>
	<g>
		<g>
			<path class="st6" d="M4697.5-5014.8c0.1,0,0.1,0,0.2,0c0.1-0.1,0.2-0.3,0.1-0.4c-1.9-3.1-2.2-7-0.8-10.4l0.1-0.1l-0.1-0.1
				c-0.2-0.4-0.4-0.9-0.6-1.4s-0.4-1-0.7-1.4c-0.1-0.1-0.3-0.2-0.4-0.1c-0.1,0.1-0.2,0.3-0.1,0.4c0.2,0.4,0.4,0.9,0.7,1.4
				c0.2,0.4,0.4,0.9,0.6,1.3C4695.1-5022.1,4695.4-5018,4697.5-5014.8C4697.3-5014.8,4697.4-5014.8,4697.5-5014.8z"/>
		</g>
	</g>
	<g>
		<g>
			<path class="st6" d="M4721.1-5014.8c0.1,0,0.2,0,0.2-0.1c2-3.2,2.3-7.3,0.9-10.8c0.2-0.4,0.4-0.8,0.6-1.3s0.4-0.9,0.6-1.4
				c0.1-0.1,0-0.3-0.1-0.4c-0.1-0.1-0.3,0-0.4,0.1c-0.2,0.4-0.4,0.9-0.7,1.4c-0.2,0.5-0.4,0.9-0.6,1.4l-0.1,0.1l0.1,0.1
				c1.4,3.3,1.1,7.3-0.8,10.4c-0.1,0.1,0,0.3,0.1,0.4C4721-5014.8,4721-5014.8,4721.1-5014.8z"/>
		</g>
	</g>
	<g>
		<g>
			<path class="st6" d="M4690.3-4975.3c0.1,0,0.3-0.1,0.3-0.2c0.8-4.4,2.1-8.7,3.6-12.9c0.1-0.2,0-0.3-0.2-0.4
				c-0.1-0.1-0.3,0-0.4,0.2c-1.6,4.2-2.8,8.6-3.6,13C4690-4975.5,4690.1-4975.4,4690.3-4975.3
				C4690.2-4975.3,4690.3-4975.3,4690.3-4975.3z"/>
		</g>
	</g>
	<g>
		<g>
			<path class="st6" d="M4721.5-4992.7h0.1c0.1-0.1,0.2-0.2,0.2-0.4l-0.9-2.2c-0.1-0.2-0.2-0.2-0.4-0.2c-0.1,0.1-0.2,0.2-0.2,0.4
				l1,2.2C4721.3-4992.8,4721.4-4992.7,4721.5-4992.7z"/>
		</g>
	</g>
	<g>
		<g>
			<polygon class="st1" points="4708.8,-4916.4 4708.3,-4896.4 4708.3,-4892.2 4702.8,-4892.2 4704.8,-4895.9 4699.8,-4916.4 			"/>
		</g>
	</g>
	<g>
		<g>
			<path class="st3" d="M4712.2-5040.7v6.9c0,0-3.5,5.9-6.7,0.1l0.3-7H4712.2z"/>
		</g>
	</g>
	<g>
		<g>
			<path class="st3" d="M4710.8-5057c5.9,0.8,6.9,7.6,5.5,13c-1.1,4-3.5,8.1-7.3,8s-6.1-5.3-6.8-8.5
				C4701.1-5049.5,4701.3-5058.2,4710.8-5057z"/>
		</g>
	</g>
	<g>
		<g>
			<path class="st3" d="M4715.6-5045.4c0,0,0.2-2.3,2.1-1.5c1.8,0.8-0.4,5.9-2.4,5.3C4713.2-5042.2,4715.6-5045.4,4715.6-5045.4z"/>
		</g>
	</g>
	<g>
		<g>
			<path class="st3" d="M4703.4-5045.5c0,0-0.1-2.3-1.9-1.7c-1.9,0.6,0,5.9,2.1,5.4C4705.7-5042.3,4703.4-5045.5,4703.4-5045.5z"/>
		</g>
	</g>
	<g>
		<g>
			<path class="st7" d="M4709-5035.6c0.9,0,1.8-0.2,2.6-0.7c0.1-0.1,0.2-0.3,0.1-0.4c-0.1-0.1-0.3-0.2-0.4-0.1
				c-1.4,0.9-3.4,0.8-4.8-0.2c-0.1-0.1-0.3-0.1-0.4,0.1c-0.1,0.1-0.1,0.3,0.1,0.4C4706.9-5035.9,4708-5035.6,4709-5035.6z"/>
		</g>
	</g>
	<g>
		<g>
			<path class="st8" d="M4706-5053.2c-0.1,3.6,0.6,7.3,2.5,10.4c1.9,3.1,5.1,5.4,8.7,5.8c1.3-3.1,2.2-6.5,1.9-9.9
				c-0.4-3.3-1.9-6.6-4.6-8.6s-6.6-2.5-9.5-0.9c-2.5,1.4-4,4-4.6,6.8c-0.6,2.8-0.6,4.3-0.5,7.1
				C4703.9-5044.9,4706.6-5048.6,4706-5053.2z"/>
		</g>
	</g>
</g>
<g>
	<g>
		<g>
			<g>
				<g>
					<g>
						<path class="st3" d="M4841.4-5020.8l-2.5-9.5c0,0-3.6,1-5.2-0.6c-0.7-0.6-1.3-3.4-1.5-7.8c0-0.5-1.8,0.5-1.8,0
							c0-0.9,3.1-5.2,2.9-7c-1-6.4-0.5-8.1,1.4-9.9c4.1-4,18.5-4.6,20.4,2.4c1.9,7,1.3,10.4-2.2,20.3l2.2,9.9L4841.4-5020.8z"/>
					</g>
				</g>
			</g>
			<g>
				<g>
					<path class="st2" d="M4838.6-5016.2l-3.2-8c0,0,9.7-6.7,19.1-7.3l2,4.1L4838.6-5016.2z"/>
				</g>
			</g>
			<g>
				<g>
					<path class="st6" d="M4806-4838.6l-3.7,11.1c0,0-11.3,0.7-11.6,1.5l16.3,4.5l4.3-15.6L4806-4838.6z"/>
				</g>
			</g>
			<g>
				<g>
					<polygon class="st6" points="4891.9,-4820.7 4901.3,-4820.7 4908,-4825.9 4899.7,-4839.7 4895,-4836.9 4900.6,-4826.6 
						4898.8,-4822.5 					"/>
				</g>
			</g>
			<g>
				<g>
					<polygon class="st0" points="4829.9,-4940.7 4801.7,-4830.9 4811.1,-4828.4 4833.7,-4886.8 4849.7,-4917.6 4867.5,-4871.9 
						4897.2,-4829 4904.2,-4833.9 4880,-4889.9 4872.1,-4940.7 					"/>
				</g>
			</g>
			<g>
				<g>
					<path class="st9" d="M4855.3-5031c0,0-8.7,2.7-13,7.7s-11.4,19.5-11.5,21.1c-0.2,1.6,2.2,19.5,2.2,19.5l-7.8,47.3
						c0,0,33.4,5.2,50.1,0l-8.7-39.1c0,0,1.2-13.8,2.7-15.4c1.4-1.6-1.1-15.3-2.2-21.6c-1.1-6.3-6.1-13.6-7.8-15.1
						C4857.4-5028,4855.3-5031,4855.3-5031z"/>
				</g>
			</g>
			<g>
				<g>
					<path class="st10" d="M4833-5000.4c0.2,0,0.3-0.1,0.4-0.3c1-2.5,3.6-5.9,6.1-7.6l0.2-0.1v-0.5c0.1-1.8,0.1-3.8-0.1-5.6
						c1.3-0.6,2.6-1.1,3.9-1.4l0.3-0.1v-0.3c0.3-1.8,1.6-3.4,2.9-5c0.7-0.8,1.4-1.7,1.9-2.6c0.1-0.2,0.1-0.5-0.1-0.6
						s-0.5-0.1-0.6,0.1c-0.5,0.8-1.2,1.6-1.9,2.5c-1.3,1.6-2.6,3.2-3,5.2c-1.4,0.4-2.7,0.9-4,1.5l-0.3,0.1v0.3
						c0.2,1.8,0.2,3.9,0.1,5.7v0.1c-2.6,1.9-5.2,5.2-6.2,7.9c-0.1,0.2,0,0.5,0.2,0.5C4832.9-5000.4,4832.9-5000.4,4833-5000.4z"/>
				</g>
			</g>
			<g>
				<g>
					<path class="st6" d="M4832.6-5062.3c0.6-0.2,1.3-0.4,2.2-0.5c3.5-0.6,5.9,1.5,9.1,1.7c2.3,0.2,4.5-0.9,6.9-0.9
						c1.8,0,3.7,0.5,5,1.8s1.8,3.7,0.9,5.4c4.6,1.9,1.4,9.9,0,13.5c-1.4,3.5-3.8,8.6-3.8,8.6l-4.7-4.6c0,0,3.6-4.2,2-6
						c-1.6-1.9-3.2,1-3.2,1s-0.1,1.2-0.2,2.7c-0.8-0.6-1.6-1.1-2.5-1.5h-0.1l-0.2-6.1c0,0-4.9,1.6-5.8-2.5
						C4831.4-5051,4824.8-5059.6,4832.6-5062.3z"/>
				</g>
			</g>
		</g>
		<g>
			<path class="st10" d="M4854.7-4932.6c5.9,0,11.5-0.3,16.6-1c0.2,0,0.4-0.2,0.4-0.5c0-0.2-0.2-0.4-0.5-0.4
				c-11.5,1.5-25.3,1.3-41-0.6c-0.2,0-0.4,0.1-0.5,0.4c0,0.2,0.1,0.4,0.4,0.5C4838.9-4933.1,4847.1-4932.6,4854.7-4932.6z"/>
		</g>
	</g>
	<g>
		<g>
			<g>
				<path class="st3" d="M4795.2-4997.1c-0.5-1.2-0.2-5.1,0.3-4.7c0.5,0.3,0.9,2.5,0.9,2.5l0.2,1c0,0,0.8-0.3,0.8,0s0.3,1.6,0.3,1.6
					l0.1,2.5L4795.2-4997.1z"/>
			</g>
		</g>
		<g>
			<g>
				<polygon class="st11" points="4801.2,-4992.1 4798.3,-5003 4795.9,-5011.6 4792.8,-5010.4 4798.5,-4991.9 				"/>
			</g>
		</g>
		<g>
			<g>
				<path class="st3" d="M4832.1-4985.8l-2.5,9.8c0,0-25.1-9.8-26.4-10.3c0,0-3.8-3-4.6-3.6c-0.8-0.6-3.2-6.6-3.4-7.2
					c-0.2-0.6,4.5-0.9,4.5-0.9s0.1-2.9,0.4-3.8c0.1-0.5,1.2-2.8,1.7-1.2l1,4.4l1.5,1.5c0.8,1.1,1.6,5.5,1.6,5.5L4832.1-4985.8z"/>
			</g>
		</g>
		<g>
			<g>
				<path class="st9" d="M4834-4986.1c0,0-2.6-7.4-7.6-4.4c-4.9,3-5.5-0.7-5.5-0.7l-13.3-3.7l-4.3,8.6l28.7,12.3L4834-4986.1z"/>
			</g>
		</g>
	</g>
	<g>
		<path class="st10" d="M4839.7-4987.2l0.1-0.4c2.9-10.4,9-20,14.5-28c2.5-3.5,4.9-5.1,7.2-4.7c0.2,0.1,0.4-0.1,0.5-0.3
			c0-0.2-0.1-0.4-0.3-0.5c-2.6-0.5-5.4,1.2-8,5c-5.5,8-11.6,17.5-14.5,27.9l-4.9-1.4c-0.2-0.1-0.5,0.1-0.5,0.3s0.1,0.5,0.3,0.5
			L4839.7-4987.2z"/>
	</g>
	<g>
		<path class="st10" d="M4844-4971.2c0.5,0,1,0,1.5-0.1c2.5-0.4,4.4-2,5.5-3.3c1.5-1.6,2.5-3.4,3.6-5.2c0.1-0.2,0.1-0.5-0.1-0.6
			s-0.5-0.1-0.6,0.1c-1,1.7-2.1,3.6-3.5,5.1c-1.1,1.2-2.8,2.6-5,3c-2.7,0.5-5.6-0.7-7.9-1.7c-0.2-0.1-0.5,0-0.5,0.2
			c-0.1,0.2,0,0.5,0.2,0.5C4839.1-4972.2,4841.5-4971.2,4844-4971.2z"/>
	</g>
</g>
<path class="st12" d="M4176.9-5196.5c0,2.4,0,4.8,0,8.5c-1.8-1.5-4.4-2.9-4.2-3.6c0.6-2,2.2-3.7,3.4-5.6
	C4176.4-5196.9,4176.6-5196.7,4176.9-5196.5z"/>
<g>
	<polygon class="st13" points="297.4,44.2 253.2,63.3 256.8,65.7 298.2,46.7 	"/>
	<polygon class="st14" points="246.6,59.2 270.5,48.1 277.4,52.8 253.5,63.8 	"/>
	<g>
		<polygon class="st14" points="221.4,44.7 238.4,36.5 239.6,37.1 222.3,45.9 		"/>
		<polygon class="st13" points="217.3,42.5 234.3,33.7 238.4,36.5 221.4,44.7 		"/>
	</g>
	<g>
		<polygon class="st14" points="288.6,85.2 303,80.2 304,80.9 289.2,86.3 		"/>
		<polygon class="st13" points="285.6,83.1 300,77.6 303,80.2 288.6,85.2 		"/>
	</g>
	<g>
		<polygon class="st14" points="192,32.5 174.3,23.7 175.8,23.7 193.2,32.4 		"/>
		<polygon class="st13" points="198,30.9 179.5,21.1 175.8,23.7 193.2,32.4 		"/>
	</g>
	<g>
		<polygon class="st14" points="171.6,44.1 154.5,36 156,36 172.8,44.1 		"/>
		<polygon class="st13" points="177.4,42.5 159.5,33.4 156,36 172.8,44.1 		"/>
	</g>
	<g>
		<polygon class="st14" points="152.9,55 136.3,47.7 137.7,47.6 154,54.9 		"/>
		<polygon class="st13" points="158.3,53.2 140.9,44.9 137.7,47.6 154,54.9 		"/>
	</g>
	<g>
		<polygon class="st14" points="88.8,91 72.7,85.2 74,85 89.9,90.8 		"/>
		<polygon class="st13" points="93.8,88.6 76.8,82 74,85 89.9,90.8 		"/>
	</g>
	<g>
		<polygon class="st14" points="102,83.6 85.9,77.8 87.2,77.6 103.1,83.4 		"/>
		<polygon class="st13" points="107,81.2 90,74.6 87.2,77.6 103.1,83.4 		"/>
	</g>
	<g>
		<polygon class="st14" points="117.3,74.6 100.6,68.8 102,68.6 118.4,74.4 		"/>
		<polygon class="st13" points="122.4,72.2 104.9,65.6 102,68.6 118.4,74.4 		"/>
	</g>
	<g>
		<polygon class="st14" points="133.8,65.4 116.7,59.5 118.1,59.3 135,65.2 		"/>
		<polygon class="st13" points="139.1,63.1 121.1,56.3 118.1,59.3 135,65.2 		"/>
	</g>
	<polygon class="st14" points="112,110.7 101.7,263 97,263.5 108.1,108.2 	"/>
	<polygon class="st13" points="103.4,108.2 108.1,108.2 97,263.5 89.7,264.8 	"/>
	<polygon class="st14" points="161.6,124 153.5,261.1 149.9,261.5 158.6,121.7 	"/>
	<polygon class="st13" points="154.9,121.7 158.6,121.7 149.9,261.5 144.2,262.6 	"/>
	<polygon class="st13" points="200.3,138.8 200.3,135 332.5,92.1 333.4,96.4 	"/>
	<polygon class="st14" points="59.9,88.2 200.3,135 200.3,138.8 60.1,93.6 	"/>
	<polygon class="st13" points="210.3,38.4 252.9,16.1 253.2,10.8 206.2,36.1 	"/>
	<polygon class="st14" points="0,283.2 18.7,267.8 197.6,257.5 197.6,281.9 	"/>
	<polygon class="st13" points="197.6,257.5 197.6,281.9 395.8,285.8 374.6,269 	"/>
	<polygon class="st14" points="57.9,93.6 198.2,8.6 198.7,1.7 57.9,87.1 	"/>
	<polygon class="st14" points="86.5,92.1 86.3,95.3 197.4,33.5 197.4,30.1 	"/>
	<polygon class="st13" points="302.3,94.9 301.9,92.1 197.4,30.1 197.4,33.5 	"/>
	<polygon class="st13" points="198.2,8.6 198.7,1.7 333.8,90.6 334.7,96.1 	"/>
	<polygon class="st13" points="197.8,11.6 198.2,8.6 57.9,93.6 60.1,93.6 	"/>
	<polygon class="st14" points="334.7,96.1 198.2,8.6 197.8,11.6 333.4,96.4 	"/>
	<polyline class="st15" points="86.3,95.3 200.2,133.3 301.6,97.2 	"/>
	<polygon class="st13" points="60.1,93.6 57.9,93.6 199.9,139.7 200.3,138.8 	"/>
	<polygon class="st14" points="199.9,139.7 334.7,96.1 333.1,95.8 200.3,138.8 	"/>
	<polygon class="st14" points="269.8,48.5 303.8,33.9 323.5,265.8 315.2,265.2 296.9,44.4 276.8,53 	"/>
	<polygon class="st13" points="306.8,36.1 303.8,33.9 323.5,265.8 327.6,265.8 	"/>
	<polygon class="st14" points="222.6,27.2 215.7,22.7 200,31.5 207,35.8 	"/>
	<g>
		<path class="st16" d="M167.8,105.1v145.1c0.9,0.3,1.8,0.6,2.7,0.8V104.3C169.6,104.6,168.7,104.8,167.8,105.1z"/>
		<path class="st16" d="M185.8,101.5v152.3c0.9,0.1,1.8,0.1,2.7,0.2V101.4C187.6,101.4,186.7,101.5,185.8,101.5z"/>
		<path class="st16" d="M193,101.3V254c0.9,0,1.8,0,2.7-0.1V101.4C194.8,101.3,193.9,101.3,193,101.3z"/>
		<path class="st16" d="M191.8,101.3c-0.8,0-1.6,0-2.4,0V254c0.8,0,1.6,0,2.4,0c0.1,0,0.2,0,0.3,0V101.3
			C192,101.3,191.9,101.3,191.8,101.3z"/>
		<path class="st16" d="M171.4,104v147.3c0.9,0.2,1.8,0.5,2.7,0.7V103.3C173.2,103.6,172.3,103.8,171.4,104z"/>
		<path class="st16" d="M178.6,102.4v150.5c0.9,0.2,1.8,0.3,2.7,0.4V102C180.4,102.1,179.5,102.3,178.6,102.4z"/>
		<path class="st16" d="M175,103.1v149c0.9,0.2,1.8,0.4,2.7,0.6V102.6C176.8,102.8,175.9,102.9,175,103.1z"/>
		<path class="st16" d="M182.2,101.9v151.5c0.9,0.1,1.8,0.2,2.7,0.3V101.6C184,101.7,183.1,101.8,182.2,101.9z"/>
		<path class="st16" d="M210.9,103.7v147.9c0.9-0.2,1.8-0.5,2.7-0.8V104.5C212.7,104.2,211.8,103.9,210.9,103.7z"/>
		<path class="st16" d="M214.5,104.7v145.9c0.9-0.3,1.8-0.6,2.7-0.9V105.6C216.3,105.3,215.4,105,214.5,104.7z"/>
		<path class="st16" d="M196.6,101.4v152.4c0.9-0.1,1.8-0.1,2.7-0.2v-152C198.4,101.6,197.5,101.5,196.6,101.4z"/>
		<path class="st16" d="M218.1,105.9v143.5c0.9-0.3,1.8-0.7,2.7-1.1V107C219.9,106.6,219,106.3,218.1,105.9z"/>
		<path class="st16" d="M200.1,101.7v151.8c0.9-0.1,1.8-0.2,2.7-0.3V102.1C202,102,201.1,101.8,200.1,101.7z"/>
		<path class="st16" d="M207.3,102.9v149.6c0.9-0.2,1.8-0.4,2.7-0.6V103.5C209.1,103.3,208.2,103.1,207.3,102.9z"/>
		<path class="st16" d="M203.7,102.2v150.9c0.9-0.1,1.8-0.3,2.7-0.5V102.7C205.5,102.5,204.6,102.4,203.7,102.2z"/>
		<path class="st16" d="M160.7,107.9v139.5c0.9,0.4,1.8,0.8,2.7,1.1V106.8C162.5,107.1,161.6,107.5,160.7,107.9z"/>
		<path class="st16" d="M124.8,141v73.3c0.9,1.6,1.8,3.1,2.7,4.6v-82.4C126.5,138,125.6,139.5,124.8,141z"/>
		<path class="st16" d="M128.4,135.1v85.1c0.9,1.3,1.8,2.5,2.7,3.8v-92.6C130.1,132.6,129.2,133.8,128.4,135.1z"/>
		<path class="st16" d="M135.5,126v103.3c0.9,1,1.8,1.9,2.7,2.8V123.2C137.3,124.1,136.4,125.1,135.5,126z"/>
		<path class="st16" d="M132,130.2v94.9c0.9,1.1,1.8,2.2,2.7,3.2V127C133.7,128,132.8,129.1,132,130.2z"/>
		<path class="st16" d="M115.4,177.7c0,4.8,0.4,9.5,1.3,14v-28C115.9,168.2,115.4,172.9,115.4,177.7z"/>
		<path class="st16" d="M121.2,148.5v58.2c0.8,2,1.7,4,2.7,5.9v-70C122.9,144.6,122,146.5,121.2,148.5z"/>
		<path class="st16" d="M117.6,159.6v36.2c0.7,3,1.6,5.9,2.7,8.8v-53.8C119.2,153.6,118.3,156.6,117.6,159.6z"/>
		<path class="st16" d="M146.3,116.3V239c0.9,0.7,1.8,1.3,2.7,1.9V114.4C148.1,115,147.2,115.7,146.3,116.3z"/>
		<path class="st16" d="M153.5,111.6v132.1c0.9,0.5,1.8,1,2.7,1.5V110.1C155.3,110.6,154.4,111.1,153.5,111.6z"/>
		<path class="st16" d="M139.1,122.4V233c0.9,0.8,1.8,1.7,2.7,2.5V119.9C140.9,120.7,140,121.5,139.1,122.4z"/>
		<path class="st16" d="M225.3,109v137.3c0.9-0.4,1.8-0.9,2.7-1.4V110.4C227.1,109.9,226.2,109.4,225.3,109z"/>
		<path class="st16" d="M157.1,109.6v136.1c0.9,0.5,1.8,0.9,2.7,1.3V108.3C158.9,108.7,158,109.2,157.1,109.6z"/>
		<path class="st16" d="M142.7,119.2v117c0.9,0.7,1.8,1.5,2.7,2.2V117C144.5,117.7,143.6,118.4,142.7,119.2z"/>
		<path class="st16" d="M164.3,106.4v142.5c0.9,0.3,1.8,0.7,2.7,1V105.4C166.1,105.7,165.2,106.1,164.3,106.4z"/>
		<path class="st16" d="M149.9,113.8v127.7c0.9,0.6,1.8,1.2,2.7,1.7V112.1C151.7,112.7,150.8,113.2,149.9,113.8z"/>
		<path class="st16" d="M221.7,107.4V248c0.9-0.4,1.8-0.8,2.7-1.2V108.6C223.5,108.2,222.6,107.7,221.7,107.4z"/>
		<path class="st16" d="M257.6,138.8v77.7c1-1.6,1.9-3.3,2.7-5v-67.7C259.4,142.1,258.5,140.4,257.6,138.8z"/>
		<path class="st16" d="M254,133.3V222c0.9-1.3,1.9-2.7,2.7-4.1v-80.6C255.8,136,254.9,134.6,254,133.3z"/>
		<path class="st16" d="M232.4,113v129.3c0.9-0.6,1.8-1.2,2.7-1.8V114.8C234.3,114.2,233.4,113.6,232.4,113z"/>
		<path class="st16" d="M250.4,128.7v98c0.9-1.1,1.8-2.3,2.7-3.4v-91.1C252.2,130.9,251.3,129.8,250.4,128.7z"/>
		<path class="st16" d="M261.2,145.6v64c1-2.2,1.9-4.4,2.7-6.7v-50.6C263.1,150,262.2,147.8,261.2,145.6z"/>
		<path class="st16" d="M236,115.4v124.5c0.9-0.7,1.8-1.3,2.7-2V117.4C237.9,116.7,237,116,236,115.4z"/>
		<path class="st16" d="M243.2,121.2v113c0.9-0.8,1.8-1.7,2.7-2.6V123.8C245,122.9,244.1,122,243.2,121.2z"/>
		<path class="st16" d="M246.8,124.7v106c0.9-1,1.8-2,2.7-3V127.6C248.6,126.6,247.7,125.6,246.8,124.7z"/>
		<path class="st16" d="M268.2,177.7c0-7.9-1.2-15.5-3.4-22.7v45.4C267,193.2,268.2,185.6,268.2,177.7z"/>
		<path class="st16" d="M239.6,118.1v119.1c0.9-0.7,1.8-1.5,2.7-2.3V120.4C241.5,119.6,240.5,118.9,239.6,118.1z"/>
		<path class="st16" d="M228.9,110.9v133.6c0.9-0.5,1.8-1,2.7-1.6V112.4C230.7,111.9,229.8,111.4,228.9,110.9z"/>
	</g>
	<g>
		<path class="st17" d="M125.5,142.7c0.3-0.6,0.6-1.1,0.9-1.6v-49l-0.9,1.4V142.7z"/>
		<path class="st17" d="M129,136.5c0.3-0.4,0.6-0.9,0.9-1.3V86.1l-0.9,1.4V136.5z"/>
		<path class="st17" d="M132.6,131.4c0.3-0.4,0.6-0.8,0.9-1.1V80.2l-0.9,1.4V131.4z"/>
		<path class="st17" d="M136.1,127c0.3-0.3,0.6-0.7,0.9-1V74.2l-0.9,1.4V127z"/>
		<path class="st17" d="M139.6,123.2c0.3-0.3,0.6-0.6,0.9-0.9v-54l-0.9,1.4V123.2z"/>
		<path class="st17" d="M143.1,119.9c0.3-0.3,0.6-0.5,0.9-0.7V69.9l-0.9-0.4V119.9z"/>
		<path class="st17" d="M146.6,117c0.3-0.2,0.6-0.4,0.9-0.7V71.4l-0.9-0.4V117z"/>
		<path class="st17" d="M150.1,114.4c0.3-0.2,0.6-0.4,0.9-0.6V73.1l-0.9-0.4V114.4z"/>
		<path class="st17" d="M153.6,112.1c0.3-0.2,0.6-0.3,0.9-0.5V74.7l-0.9-0.4V112.1z"/>
		<path class="st17" d="M157.2,110.1c0.3-0.2,0.6-0.3,0.9-0.5V76.3l-0.9-0.4V110.1z"/>
		<path class="st17" d="M160.7,108.3c0.3-0.1,0.6-0.3,0.9-0.4v-30l-0.9-0.4V108.3z"/>
		<path class="st17" d="M164.2,106.8c0.3-0.1,0.6-0.2,0.9-0.3V79.6l-0.9-0.4V106.8z"/>
		<path class="st17" d="M167.7,105.4c0.3-0.1,0.6-0.2,0.9-0.3v-24l-0.9-0.4V105.4z"/>
		<path class="st17" d="M171.2,104.3c0.3-0.1,0.6-0.2,0.9-0.2V82.8l-0.9-0.4V104.3z"/>
		<path class="st17" d="M174.7,103.3c0.3-0.1,0.6-0.1,0.9-0.2V84.3l-0.9-0.4V103.3z"/>
		<path class="st17" d="M178.3,102.6c0.3-0.1,0.6-0.1,0.9-0.2V85.9l-0.9-0.4V102.6z"/>
		<path class="st17" d="M181.8,102c0.3,0,0.6-0.1,0.9-0.1V87.6l-0.9-0.4V102z"/>
		<path class="st17" d="M185.3,101.6c0.3,0,0.6-0.1,0.9-0.1V89.1l-0.9-0.4V101.6z"/>
		<path class="st17" d="M188.8,101.4c0.3,0,0.6,0,0.9,0V90.8l-0.9-0.4V101.4z"/>
		<path class="st17" d="M192.3,101.3c0.3,0,0.6,0,0.9,0v-8.9l-0.9-0.4V101.3z"/>
		<path class="st17" d="M195.8,101.4c0.3,0,0.6,0,0.9,0.1v-9.9l-0.9,0.4V101.4z"/>
		<path class="st17" d="M199.4,101.7c0.3,0,0.6,0.1,0.9,0.1V90.2l-0.9,0.4V101.7z"/>
		<path class="st17" d="M202.9,102.1c0.3,0,0.6,0.1,0.9,0.1V88.6l-0.9,0.4V102.1z"/>
		<path class="st17" d="M206.4,102.7c0.3,0.1,0.6,0.1,0.9,0.2V87.2l-0.9,0.4V102.7z"/>
		<path class="st17" d="M209.9,103.5c0.3,0.1,0.6,0.1,0.9,0.2v-18l-0.9,0.4V103.5z"/>
		<path class="st17" d="M213.4,104.5c0.3,0.1,0.6,0.2,0.9,0.3V84.3l-0.9,0.4V104.5z"/>
		<path class="st17" d="M216.9,105.6c0.3,0.1,0.6,0.2,0.9,0.3V82.8l-0.9,0.4V105.6z"/>
		<path class="st17" d="M220.4,107c0.3,0.1,0.6,0.2,0.9,0.4v-26l-0.9,0.4V107z"/>
		<path class="st17" d="M224,108.6c0.3,0.1,0.6,0.3,0.9,0.4V79.9l-0.9,0.4V108.6z"/>
		<path class="st17" d="M227.5,110.4c0.3,0.2,0.6,0.3,0.9,0.5V78.5l-0.9,0.4V110.4z"/>
		<path class="st17" d="M231,112.4c0.3,0.2,0.6,0.4,0.9,0.5v-36l-0.9,0.4V112.4z"/>
		<path class="st17" d="M234.5,114.8c0.3,0.2,0.6,0.4,0.9,0.6V75.5l-0.9,0.4V114.8z"/>
		<path class="st17" d="M238,117.4c0.3,0.2,0.6,0.5,0.9,0.7v-44l-0.9,0.4V117.4z"/>
		<path class="st17" d="M241.5,120.4c0.3,0.3,0.6,0.5,0.9,0.8V72.6l-0.9,0.4V120.4z"/>
		<path class="st17" d="M245.1,123.8c0.3,0.3,0.6,0.6,0.9,0.9V71.2l-0.9,0.4V123.8z"/>
		<path class="st17" d="M248.6,127.6c0.3,0.3,0.6,0.7,0.9,1v-59l-0.9,0.4V127.6z"/>
		<path class="st17" d="M252.1,132.1c0.3,0.4,0.6,0.8,0.9,1.2v-65l-0.9,0.4V132.1z"/>
		<polygon class="st17" points="252.1,68.6 252.9,68.3 252.1,68.3 		"/>
	</g>
	<polygon class="st14" points="251.7,12.3 231,23 223.7,18.2 258.1,0 272.3,262.6 260.7,262 	"/>
	<polygon class="st13" points="263.5,4.3 258.1,0 272.3,262.6 276.8,262.6 	"/>
	<polygon class="st13" points="297.4,44.2 253.2,63.3 256.8,65.7 298.2,46.7 	"/>
	<polygon class="st14" points="246.6,59.2 270.5,48.1 277.4,52.8 253.5,63.8 	"/>
	<g>
		<polygon class="st14" points="221.4,44.7 238.4,36.5 239.6,37.1 222.3,45.9 		"/>
		<polygon class="st13" points="217.3,42.5 234.3,33.7 238.4,36.5 221.4,44.7 		"/>
	</g>
	<g>
		<polygon class="st14" points="288.6,85.2 303,80.2 304,80.9 289.2,86.3 		"/>
		<polygon class="st13" points="285.6,83.1 300,77.6 303,80.2 288.6,85.2 		"/>
	</g>
	<g>
		<polygon class="st14" points="192,32.5 174.3,23.7 175.8,23.7 193.2,32.4 		"/>
		<polygon class="st13" points="198,30.9 179.5,21.1 175.8,23.7 193.2,32.4 		"/>
	</g>
	<g>
		<polygon class="st14" points="171.6,44.1 154.5,36 156,36 172.8,44.1 		"/>
		<polygon class="st13" points="177.4,42.5 159.5,33.4 156,36 172.8,44.1 		"/>
	</g>
	<g>
		<polygon class="st14" points="152.9,55 136.3,47.7 137.7,47.6 154,54.9 		"/>
		<polygon class="st13" points="158.3,53.2 140.9,44.9 137.7,47.6 154,54.9 		"/>
	</g>
	<g>
		<polygon class="st14" points="88.8,91 72.7,85.2 74,85 89.9,90.8 		"/>
		<polygon class="st13" points="93.8,88.6 76.8,82 74,85 89.9,90.8 		"/>
	</g>
	<g>
		<polygon class="st14" points="102,83.6 85.9,77.8 87.2,77.6 103.1,83.4 		"/>
		<polygon class="st13" points="107,81.2 90,74.6 87.2,77.6 103.1,83.4 		"/>
	</g>
	<g>
		<polygon class="st14" points="117.3,74.6 100.6,68.8 102,68.6 118.4,74.4 		"/>
		<polygon class="st13" points="122.4,72.2 104.9,65.6 102,68.6 118.4,74.4 		"/>
	</g>
	<g>
		<polygon class="st14" points="133.8,65.4 116.7,59.5 118.1,59.3 135,65.2 		"/>
		<polygon class="st13" points="139.1,63.1 121.1,56.3 118.1,59.3 135,65.2 		"/>
	</g>
	<polygon class="st14" points="112,110.7 101.7,263 97,263.5 108.1,108.2 	"/>
	<polygon class="st13" points="103.4,108.2 108.1,108.2 97,263.5 89.7,264.8 	"/>
	<polygon class="st14" points="161.6,124 153.5,261.1 149.9,261.5 158.6,121.7 	"/>
	<polygon class="st13" points="154.9,121.7 158.6,121.7 149.9,261.5 144.2,262.6 	"/>
	<polygon class="st13" points="200.3,138.8 200.3,135 332.5,92.1 333.4,96.4 	"/>
	<polygon class="st14" points="59.9,88.2 200.3,135 200.3,138.8 60.1,93.6 	"/>
	<polygon class="st13" points="210.3,38.4 252.9,16.1 253.2,10.8 206.2,36.1 	"/>
	<polygon class="st14" points="0,283.2 18.7,267.8 197.6,257.5 197.6,281.9 	"/>
	<polygon class="st13" points="197.6,257.5 197.6,281.9 395.8,285.8 374.6,269 	"/>
	<polygon class="st14" points="57.9,93.6 198.2,8.6 198.7,1.7 57.9,87.1 	"/>
	<polygon class="st14" points="86.5,92.1 86.3,95.3 197.4,33.5 197.4,30.1 	"/>
	<polygon class="st13" points="302.3,94.9 301.9,92.1 197.4,30.1 197.4,33.5 	"/>
	<polygon class="st13" points="198.2,8.6 198.7,1.7 333.8,90.6 334.7,96.1 	"/>
	<polygon class="st13" points="197.8,11.6 198.2,8.6 57.9,93.6 60.1,93.6 	"/>
	<polygon class="st14" points="334.7,96.1 198.2,8.6 197.8,11.6 333.4,96.4 	"/>
	<polyline class="st15" points="86.3,95.3 200.2,133.3 301.6,97.2 	"/>
	<polygon class="st13" points="60.1,93.6 57.9,93.6 199.9,139.7 200.3,138.8 	"/>
	<polygon class="st14" points="199.9,139.7 334.7,96.1 333.1,95.8 200.3,138.8 	"/>
	<polygon class="st14" points="269.8,48.5 303.8,33.9 323.5,265.8 315.2,265.2 296.9,44.4 276.8,53 	"/>
	<polygon class="st13" points="306.8,36.1 303.8,33.9 323.5,265.8 327.6,265.8 	"/>
	<polygon class="st14" points="222.6,27.2 215.7,22.7 200,31.5 207,35.8 	"/>
	<g>
		<path class="st16" d="M167.8,105.1v145.1c0.9,0.3,1.8,0.6,2.7,0.8V104.3C169.6,104.6,168.7,104.8,167.8,105.1z"/>
		<path class="st16" d="M185.8,101.5v152.3c0.9,0.1,1.8,0.1,2.7,0.2V101.4C187.6,101.4,186.7,101.5,185.8,101.5z"/>
		<path class="st16" d="M193,101.3V254c0.9,0,1.8,0,2.7-0.1V101.4C194.8,101.3,193.9,101.3,193,101.3z"/>
		<path class="st16" d="M191.8,101.3c-0.8,0-1.6,0-2.4,0V254c0.8,0,1.6,0,2.4,0c0.1,0,0.2,0,0.3,0V101.3
			C192,101.3,191.9,101.3,191.8,101.3z"/>
		<path class="st16" d="M171.4,104v147.3c0.9,0.2,1.8,0.5,2.7,0.7V103.3C173.2,103.6,172.3,103.8,171.4,104z"/>
		<path class="st16" d="M178.6,102.4v150.5c0.9,0.2,1.8,0.3,2.7,0.4V102C180.4,102.1,179.5,102.3,178.6,102.4z"/>
		<path class="st16" d="M175,103.1v149c0.9,0.2,1.8,0.4,2.7,0.6V102.6C176.8,102.8,175.9,102.9,175,103.1z"/>
		<path class="st16" d="M182.2,101.9v151.5c0.9,0.1,1.8,0.2,2.7,0.3V101.6C184,101.7,183.1,101.8,182.2,101.9z"/>
		<path class="st16" d="M210.9,103.7v147.9c0.9-0.2,1.8-0.5,2.7-0.8V104.5C212.7,104.2,211.8,103.9,210.9,103.7z"/>
		<path class="st16" d="M214.5,104.7v145.9c0.9-0.3,1.8-0.6,2.7-0.9V105.6C216.3,105.3,215.4,105,214.5,104.7z"/>
		<path class="st16" d="M196.6,101.4v152.4c0.9-0.1,1.8-0.1,2.7-0.2v-152C198.4,101.6,197.5,101.5,196.6,101.4z"/>
		<path class="st16" d="M218.1,105.9v143.5c0.9-0.3,1.8-0.7,2.7-1.1V107C219.9,106.6,219,106.3,218.1,105.9z"/>
		<path class="st16" d="M200.1,101.7v151.8c0.9-0.1,1.8-0.2,2.7-0.3V102.1C202,102,201.1,101.8,200.1,101.7z"/>
		<path class="st16" d="M207.3,102.9v149.6c0.9-0.2,1.8-0.4,2.7-0.6V103.5C209.1,103.3,208.2,103.1,207.3,102.9z"/>
		<path class="st16" d="M203.7,102.2v150.9c0.9-0.1,1.8-0.3,2.7-0.5V102.7C205.5,102.5,204.6,102.4,203.7,102.2z"/>
		<path class="st16" d="M160.7,107.9v139.5c0.9,0.4,1.8,0.8,2.7,1.1V106.8C162.5,107.1,161.6,107.5,160.7,107.9z"/>
		<path class="st16" d="M124.8,141v73.3c0.9,1.6,1.8,3.1,2.7,4.6v-82.4C126.5,138,125.6,139.5,124.8,141z"/>
		<path class="st16" d="M128.4,135.1v85.1c0.9,1.3,1.8,2.5,2.7,3.8v-92.6C130.1,132.6,129.2,133.8,128.4,135.1z"/>
		<path class="st16" d="M135.5,126v103.3c0.9,1,1.8,1.9,2.7,2.8V123.2C137.3,124.1,136.4,125.1,135.5,126z"/>
		<path class="st16" d="M132,130.2v94.9c0.9,1.1,1.8,2.2,2.7,3.2V127C133.7,128,132.8,129.1,132,130.2z"/>
		<path class="st16" d="M115.4,177.7c0,4.8,0.4,9.5,1.3,14v-28C115.9,168.2,115.4,172.9,115.4,177.7z"/>
		<path class="st16" d="M121.2,148.5v58.2c0.8,2,1.7,4,2.7,5.9v-70C122.9,144.6,122,146.5,121.2,148.5z"/>
		<path class="st16" d="M117.6,159.6v36.2c0.7,3,1.6,5.9,2.7,8.8v-53.8C119.2,153.6,118.3,156.6,117.6,159.6z"/>
		<path class="st16" d="M146.3,116.3V239c0.9,0.7,1.8,1.3,2.7,1.9V114.4C148.1,115,147.2,115.7,146.3,116.3z"/>
		<path class="st16" d="M153.5,111.6v132.1c0.9,0.5,1.8,1,2.7,1.5V110.1C155.3,110.6,154.4,111.1,153.5,111.6z"/>
		<path class="st16" d="M139.1,122.4V233c0.9,0.8,1.8,1.7,2.7,2.5V119.9C140.9,120.7,140,121.5,139.1,122.4z"/>
		<path class="st16" d="M225.3,109v137.3c0.9-0.4,1.8-0.9,2.7-1.4V110.4C227.1,109.9,226.2,109.4,225.3,109z"/>
		<path class="st16" d="M157.1,109.6v136.1c0.9,0.5,1.8,0.9,2.7,1.3V108.3C158.9,108.7,158,109.2,157.1,109.6z"/>
		<path class="st16" d="M142.7,119.2v117c0.9,0.7,1.8,1.5,2.7,2.2V117C144.5,117.7,143.6,118.4,142.7,119.2z"/>
		<path class="st16" d="M164.3,106.4v142.5c0.9,0.3,1.8,0.7,2.7,1V105.4C166.1,105.7,165.2,106.1,164.3,106.4z"/>
		<path class="st16" d="M149.9,113.8v127.7c0.9,0.6,1.8,1.2,2.7,1.7V112.1C151.7,112.7,150.8,113.2,149.9,113.8z"/>
		<path class="st16" d="M221.7,107.4V248c0.9-0.4,1.8-0.8,2.7-1.2V108.6C223.5,108.2,222.6,107.7,221.7,107.4z"/>
		<path class="st16" d="M257.6,138.8v77.7c1-1.6,1.9-3.3,2.7-5v-67.7C259.4,142.1,258.5,140.4,257.6,138.8z"/>
		<path class="st16" d="M254,133.3V222c0.9-1.3,1.9-2.7,2.7-4.1v-80.6C255.8,136,254.9,134.6,254,133.3z"/>
		<path class="st16" d="M232.4,113v129.3c0.9-0.6,1.8-1.2,2.7-1.8V114.8C234.3,114.2,233.4,113.6,232.4,113z"/>
		<path class="st16" d="M250.4,128.7v98c0.9-1.1,1.8-2.3,2.7-3.4v-91.1C252.2,130.9,251.3,129.8,250.4,128.7z"/>
		<path class="st16" d="M261.2,145.6v64c1-2.2,1.9-4.4,2.7-6.7v-50.6C263.1,150,262.2,147.8,261.2,145.6z"/>
		<path class="st16" d="M236,115.4v124.5c0.9-0.7,1.8-1.3,2.7-2V117.4C237.9,116.7,237,116,236,115.4z"/>
		<path class="st16" d="M243.2,121.2v113c0.9-0.8,1.8-1.7,2.7-2.6V123.8C245,122.9,244.1,122,243.2,121.2z"/>
		<path class="st16" d="M246.8,124.7v106c0.9-1,1.8-2,2.7-3V127.6C248.6,126.6,247.7,125.6,246.8,124.7z"/>
		<path class="st16" d="M268.2,177.7c0-7.9-1.2-15.5-3.4-22.7v45.4C267,193.2,268.2,185.6,268.2,177.7z"/>
		<path class="st16" d="M239.6,118.1v119.1c0.9-0.7,1.8-1.5,2.7-2.3V120.4C241.5,119.6,240.5,118.9,239.6,118.1z"/>
		<path class="st16" d="M228.9,110.9v133.6c0.9-0.5,1.8-1,2.7-1.6V112.4C230.7,111.9,229.8,111.4,228.9,110.9z"/>
	</g>
	<g>
		<path class="st17" d="M125.5,142.7c0.3-0.6,0.6-1.1,0.9-1.6v-49l-0.9,1.4V142.7z"/>
		<path class="st17" d="M129,136.5c0.3-0.4,0.6-0.9,0.9-1.3V86.1l-0.9,1.4V136.5z"/>
		<path class="st17" d="M132.6,131.4c0.3-0.4,0.6-0.8,0.9-1.1V80.2l-0.9,1.4V131.4z"/>
		<path class="st17" d="M136.1,127c0.3-0.3,0.6-0.7,0.9-1V74.2l-0.9,1.4V127z"/>
		<path class="st17" d="M139.6,123.2c0.3-0.3,0.6-0.6,0.9-0.9v-54l-0.9,1.4V123.2z"/>
		<path class="st17" d="M143.1,119.9c0.3-0.3,0.6-0.5,0.9-0.7V69.9l-0.9-0.4V119.9z"/>
		<path class="st17" d="M146.6,117c0.3-0.2,0.6-0.4,0.9-0.7V71.4l-0.9-0.4V117z"/>
		<path class="st17" d="M150.1,114.4c0.3-0.2,0.6-0.4,0.9-0.6V73.1l-0.9-0.4V114.4z"/>
		<path class="st17" d="M153.6,112.1c0.3-0.2,0.6-0.3,0.9-0.5V74.7l-0.9-0.4V112.1z"/>
		<path class="st17" d="M157.2,110.1c0.3-0.2,0.6-0.3,0.9-0.5V76.3l-0.9-0.4V110.1z"/>
		<path class="st17" d="M160.7,108.3c0.3-0.1,0.6-0.3,0.9-0.4v-30l-0.9-0.4V108.3z"/>
		<path class="st17" d="M164.2,106.8c0.3-0.1,0.6-0.2,0.9-0.3V79.6l-0.9-0.4V106.8z"/>
		<path class="st17" d="M167.7,105.4c0.3-0.1,0.6-0.2,0.9-0.3v-24l-0.9-0.4V105.4z"/>
		<path class="st17" d="M171.2,104.3c0.3-0.1,0.6-0.2,0.9-0.2V82.8l-0.9-0.4V104.3z"/>
		<path class="st17" d="M174.7,103.3c0.3-0.1,0.6-0.1,0.9-0.2V84.3l-0.9-0.4V103.3z"/>
		<path class="st17" d="M178.3,102.6c0.3-0.1,0.6-0.1,0.9-0.2V85.9l-0.9-0.4V102.6z"/>
		<path class="st17" d="M181.8,102c0.3,0,0.6-0.1,0.9-0.1V87.6l-0.9-0.4V102z"/>
		<path class="st17" d="M185.3,101.6c0.3,0,0.6-0.1,0.9-0.1V89.1l-0.9-0.4V101.6z"/>
		<path class="st17" d="M188.8,101.4c0.3,0,0.6,0,0.9,0V90.8l-0.9-0.4V101.4z"/>
		<path class="st17" d="M192.3,101.3c0.3,0,0.6,0,0.9,0v-8.9l-0.9-0.4V101.3z"/>
		<path class="st17" d="M195.8,101.4c0.3,0,0.6,0,0.9,0.1v-9.9l-0.9,0.4V101.4z"/>
		<path class="st17" d="M199.4,101.7c0.3,0,0.6,0.1,0.9,0.1V90.2l-0.9,0.4V101.7z"/>
		<path class="st17" d="M202.9,102.1c0.3,0,0.6,0.1,0.9,0.1V88.6l-0.9,0.4V102.1z"/>
		<path class="st17" d="M206.4,102.7c0.3,0.1,0.6,0.1,0.9,0.2V87.2l-0.9,0.4V102.7z"/>
		<path class="st17" d="M209.9,103.5c0.3,0.1,0.6,0.1,0.9,0.2v-18l-0.9,0.4V103.5z"/>
		<path class="st17" d="M213.4,104.5c0.3,0.1,0.6,0.2,0.9,0.3V84.3l-0.9,0.4V104.5z"/>
		<path class="st17" d="M216.9,105.6c0.3,0.1,0.6,0.2,0.9,0.3V82.8l-0.9,0.4V105.6z"/>
		<path class="st17" d="M220.4,107c0.3,0.1,0.6,0.2,0.9,0.4v-26l-0.9,0.4V107z"/>
		<path class="st17" d="M224,108.6c0.3,0.1,0.6,0.3,0.9,0.4V79.9l-0.9,0.4V108.6z"/>
		<path class="st17" d="M227.5,110.4c0.3,0.2,0.6,0.3,0.9,0.5V78.5l-0.9,0.4V110.4z"/>
		<path class="st17" d="M231,112.4c0.3,0.2,0.6,0.4,0.9,0.5v-36l-0.9,0.4V112.4z"/>
		<path class="st17" d="M234.5,114.8c0.3,0.2,0.6,0.4,0.9,0.6V75.5l-0.9,0.4V114.8z"/>
		<path class="st17" d="M238,117.4c0.3,0.2,0.6,0.5,0.9,0.7v-44l-0.9,0.4V117.4z"/>
		<path class="st17" d="M241.5,120.4c0.3,0.3,0.6,0.5,0.9,0.8V72.6l-0.9,0.4V120.4z"/>
		<path class="st17" d="M245.1,123.8c0.3,0.3,0.6,0.6,0.9,0.9V71.2l-0.9,0.4V123.8z"/>
		<path class="st17" d="M248.6,127.6c0.3,0.3,0.6,0.7,0.9,1v-59l-0.9,0.4V127.6z"/>
		<path class="st17" d="M252.1,132.1c0.3,0.4,0.6,0.8,0.9,1.2v-65l-0.9,0.4V132.1z"/>
		<polygon class="st17" points="252.1,68.6 252.9,68.3 252.1,68.3 		"/>
	</g>
	<polygon class="st14" points="251.7,12.3 231,23 223.7,18.2 258.1,0 272.3,262.6 260.7,262 	"/>
	<polygon class="st13" points="263.5,4.3 258.1,0 272.3,262.6 276.8,262.6 	"/>
</g>
</svg>
