<?xml version="1.0" encoding="utf-8"?>
<!-- Generator: Adobe Illustrator 22.0.0, SVG Export Plug-In . SVG Version: 6.00 Build 0)  -->
<svg version="1.1" id="Layer_1" xmlns="http://www.w3.org/2000/svg" xmlns:xlink="http://www.w3.org/1999/xlink" x="0px" y="0px"
	 viewBox="0 0 159.3 330.1" style="enable-background:new 0 0 159.3 330.1;" xml:space="preserve">
<style type="text/css">
	.st0{fill:#2D24A3;}
	.st1{fill:#B77053;}
	.st2{fill:#ECE0D3;}
	.st3{fill:#E48868;}
	.st4{fill:#464473;}
	.st5{fill:#734E4F;}
	.st6{fill:#393762;}
	.st7{fill:#BA745D;}
	.st8{fill:#563616;}
	.st9{fill:#202070;}
	.st10{fill:#CFB199;}
	.st11{fill:#4E587F;}
	.st12{opacity:0.73;fill:#FFFFFF;enable-background:new    ;}
	.st13{fill:#E48A6A;}
	.st14{fill:#F86737;}
	.st15{fill:#F86332;}
	.st16{fill:#F86433;}
	.st17{fill:#E38868;}
	.st18{fill:#EADCCF;}
	.st19{fill:#BB7760;}
	.st20{fill:#443C63;}
	.st21{fill:#2E25A2;}
	.st22{fill:#EC902D;}
	.st23{fill:#D73E13;}
	.st24{fill:#3F4482;}
</style>
<g>
	<g>
		<g>
			<g>
				<path class="st0" d="M4857.4-5138.8v60.8h3.8c0,0,6.6-27.7,6.9-30.4s-1-11.2-1-11.2l5.7-22L4857.4-5138.8z"/>
			</g>
		</g>
		<g>
			<g>
				<path class="st0" d="M4855.4-5138.8v60.8h-3.8c0,0-6.6-27.7-6.9-30.4s1-11.2,1-11.2l-5.7-22L4855.4-5138.8z"/>
			</g>
		</g>
		<g>
			<g>
				<polygon class="st1" points="4857,-5094.8 4857.4,-5074.9 4857.4,-5070.6 4862.9,-5070.6 4860.9,-5074.3 4865.9,-5094.8 				"/>
			</g>
		</g>
	</g>
	<g>
		<g>
			<path class="st2" d="M4867.1-5208.7c1.9,4.5,8.4,5.3,10.6,9.6c1.4,2.9,0.3,6.6-1.9,8.9c-2.3,2.3-5.4,3.6-8.6,4.4
				c-7,1.9-14.5,2.4-21.5,0.2c-2.5-0.8-4.9-1.9-6.8-3.6s-3.4-4.1-3.5-6.7s1.1-5.3,3.3-6.6c1.4-0.8,3.1-1,4.2-2.1
				c1.7-1.6,1.7-4.2,1.6-6.6c-0.1-4.3,0.1-8.7,0.7-13c0.4-3.3,1.2-6.8,3.4-9.3c2.5-2.7,6.5-3.7,10.1-2.9s6.5,3.6,8.1,6.9
				s1.9,7.1,1.2,10.7C4867.3-5215.3,4865.8-5211.8,4867.1-5208.7z"/>
		</g>
	</g>
	<g>
		<g>
			<path class="st3" d="M4835-5154.4c0,0-2.3,4.2-2.5,5.6s-0.2,2.1,0.9,1.8s-0.1,1.9,1.5,1.7c1.6-0.2,4.3-4.5,4.3-4.5l-2.7-3.7
				L4835-5154.4z"/>
		</g>
	</g>
	<g>
		<g>
			<path class="st4" d="M4877.2-5137.4c0,0-1.9-27.7-11.7-42l2.5-13.6c0,0,4.2-3.6,3.3-9.1v-7.5c0,0-11.6-5.5-14.4-5.5
				s-15.3,6.1-15.3,6.1s0,5.2,0,7c0,1.9,0.2,6.1,3,8.7l3.1,13.7c0,0-11.2,12-12.7,43.1C4835-5136.3,4860.1-5133.5,4877.2-5137.4z"/>
		</g>
	</g>
	<g>
		<g>
			<path class="st4" d="M4841.5-5209c-2.2,1.4-3.3,3.1-3.6,4.4s-3.1,28.4-3,32c0.2,3.6-2.8,2.8-1.6,8s-3,4.8-1.1,8.3l0.5,2.8l4,0.9
				l4.1-12l3.6-28.6L4841.5-5209z"/>
		</g>
	</g>
	<g>
		<g>
			<path class="st1" d="M4884-5145.1c3.5-0.6-2.3-10.1-6.2-12.6c-3.9-2.5-11.6-4.6-13.6-4.1S4870.4-5142.5,4884-5145.1z"/>
		</g>
	</g>
	<g>
		<g>
			<path class="st1" d="M4864.2-5161.8c-1.7,0-2.3,1.6-2.3,3.4c0,1.9,4.1,21.3,7.2,23s13.6,1.4,14.2-1.9s-1.1-10.8-1.1-10.8
				L4864.2-5161.8z"/>
		</g>
	</g>
	<g>
		<g>
			<polygon class="st1" points="4864.2,-5161.8 4846.7,-5211.4 4843.8,-5210 4861.9,-5158.3 			"/>
		</g>
	</g>
	<g>
		<g>
			<path class="st3" d="M4865.4-5179.4l-3.1,1.8c0,0-3.3-1.4-4.2-1.2l0.7,1.9c0,0-5.5,1.5-5.5,1.8s0,1.7,0,1.7l2-0.4
				c0,0-0.2,1,0,1.2s0.7,0.4,0.7,0.4s0.2,0.8,0.6,1.6s0.4,1.4,1.1,1.9s4.9-1.4,5.4-1.8c0.6-0.3,4.5-4.6,4.5-4.6L4865.4-5179.4z"/>
		</g>
	</g>
	<g>
		<g>
			<path class="st5" d="M4879.9-5144.5c0.6,0,1.2-0.1,1.8-0.2c0.2,0,0.3-0.2,0.2-0.3c0-0.2-0.2-0.3-0.3-0.2
				c-3.5,0.6-7.5-0.8-10.6-3.9c-2.8-2.8-4.6-6.4-6.3-10.1c-0.1-0.1-0.2-0.2-0.4-0.1c-0.1,0.1-0.2,0.2-0.1,0.4
				c1.7,3.8,3.5,7.4,6.4,10.3C4873.3-5146,4876.7-5144.5,4879.9-5144.5z"/>
		</g>
	</g>
	<g>
		<g>
			<path class="st5" d="M4878.8-5147.3c1.3,0,2.6-0.1,3.9-0.4c0.2,0,0.3-0.2,0.2-0.3c0-0.2-0.2-0.3-0.3-0.2c-1.7,0.3-3.3,0.4-5,0.3
				c-0.2,0-0.3,0.1-0.3,0.3c0,0.2,0.1,0.3,0.3,0.3C4878-5147.3,4878.4-5147.3,4878.8-5147.3z"/>
		</g>
	</g>
	<g>
		<g>
			<path class="st5" d="M4872.6-5136c0.1,0,0.1,0,0.2-0.1s0.1-0.3,0-0.4c-5.4-6.5-8.7-14.6-9.3-23.1c0-0.2-0.2-0.3-0.3-0.3
				c-0.2,0-0.3,0.2-0.3,0.3c0.6,8.5,3.9,16.8,9.4,23.4C4872.4-5136,4872.5-5136,4872.6-5136z"/>
		</g>
	</g>
	<g>
		<g>
			<path class="st5" d="M4856.3-5177.5h0.1c0.2-0.1,0.2-0.2,0.2-0.4l-4-10.9c-0.1-0.2-0.2-0.2-0.4-0.2c-0.2,0.1-0.2,0.2-0.2,0.4
				l4,10.9C4856-5177.6,4856.1-5177.5,4856.3-5177.5z"/>
		</g>
	</g>
	<g>
		<g>
			<path class="st4" d="M4871.2-5209.6c3,1.4,8,28,7.3,29.2c-0.6,1.2-8,8.9-10.5,9.7l-2.7-8.7l4.7-4.1l-2.2-9.5L4871.2-5209.6z"/>
		</g>
	</g>
	<g>
		<g>
			<path class="st6" d="M4853.6-5201.2C4853.6-5201.2,4853.7-5201.2,4853.6-5201.2c3.1-0.7,5.9-2.5,7.9-4.9c0.1-0.1,0.1-0.3-0.1-0.4
				c-0.1-0.1-0.3-0.1-0.4,0.1c-1.8,2.4-4.5,4.1-7.4,4.7c-0.2,0-0.3,0.2-0.2,0.4C4853.4-5201.3,4853.5-5201.2,4853.6-5201.2z"/>
		</g>
	</g>
	<g>
		<g>
			<path class="st6" d="M4844.6-5193.2c0.1,0,0.1,0,0.2,0c0.1-0.1,0.2-0.3,0.1-0.4c-1.9-3.1-2.2-7-0.8-10.4l0.1-0.1l-0.1-0.1
				c-0.2-0.4-0.4-0.9-0.6-1.4s-0.4-1-0.7-1.4c-0.1-0.1-0.3-0.2-0.4-0.1s-0.2,0.3-0.1,0.4c0.2,0.4,0.4,0.9,0.7,1.4
				c0.2,0.4,0.4,0.9,0.6,1.3C4842.2-5200.5,4842.5-5196.4,4844.6-5193.2C4844.4-5193.3,4844.5-5193.2,4844.6-5193.2z"/>
		</g>
	</g>
	<g>
		<g>
			<path class="st6" d="M4868.2-5193.2c0.1,0,0.2,0,0.2-0.1c2-3.2,2.3-7.3,0.9-10.8c0.2-0.4,0.4-0.8,0.6-1.3s0.4-0.9,0.6-1.4
				c0.1-0.1,0-0.3-0.1-0.4s-0.3,0-0.4,0.1c-0.2,0.4-0.4,0.9-0.7,1.4c-0.2,0.5-0.4,0.9-0.6,1.4l-0.1,0.1l0.1,0.1
				c1.4,3.3,1.1,7.3-0.8,10.4c-0.1,0.1,0,0.3,0.1,0.4C4868.1-5193.2,4868.2-5193.2,4868.2-5193.2z"/>
		</g>
	</g>
	<g>
		<g>
			<path class="st6" d="M4837.4-5153.8c0.1,0,0.3-0.1,0.3-0.2c0.8-4.4,2.1-8.7,3.6-12.9c0.1-0.2,0-0.3-0.2-0.4
				c-0.1-0.1-0.3,0-0.4,0.2c-1.6,4.2-2.8,8.6-3.6,13C4837.1-5154,4837.2-5153.8,4837.4-5153.8L4837.4-5153.8z"/>
		</g>
	</g>
	<g>
		<g>
			<path class="st6" d="M4868.6-5171.2h0.1c0.1-0.1,0.2-0.2,0.2-0.4l-0.9-2.2c-0.1-0.2-0.2-0.2-0.4-0.2c-0.1,0.1-0.2,0.2-0.2,0.4
				l1,2.2C4868.4-5171.2,4868.5-5171.2,4868.6-5171.2z"/>
		</g>
	</g>
	<g>
		<g>
			<polygon class="st1" points="4855.9,-5094.8 4855.4,-5074.9 4855.4,-5070.6 4850,-5070.6 4851.9,-5074.3 4847,-5094.8 			"/>
		</g>
	</g>
	<g>
		<g>
			<path class="st3" d="M4859.4-5219.1v6.9c0,0-3.5,5.9-6.7,0.1l0.3-7H4859.4z"/>
		</g>
	</g>
	<g>
		<g>
			<path class="st3" d="M4858-5235.4c5.9,0.8,6.9,7.6,5.5,13c-1.1,4-3.5,8.1-7.3,8s-6.1-5.3-6.8-8.5
				C4848.3-5228,4848.5-5236.7,4858-5235.4z"/>
		</g>
	</g>
	<g>
		<g>
			<path class="st3" d="M4862.7-5223.9c0,0,0.2-2.3,2.1-1.5c1.8,0.8-0.4,5.9-2.4,5.3S4862.7-5223.9,4862.7-5223.9z"/>
		</g>
	</g>
	<g>
		<g>
			<path class="st3" d="M4850.5-5224c0,0-0.1-2.3-1.9-1.7c-1.9,0.6,0,5.9,2.1,5.4C4852.7-5220.6,4850.5-5224,4850.5-5224z"/>
		</g>
	</g>
	<g>
		<g>
			<path class="st7" d="M4856.1-5214.1c0.9,0,1.8-0.2,2.6-0.7c0.1-0.1,0.2-0.3,0.1-0.4s-0.3-0.2-0.4-0.1c-1.4,0.9-3.4,0.8-4.8-0.2
				c-0.1-0.1-0.3-0.1-0.4,0.1c-0.1,0.1-0.1,0.3,0.1,0.4C4854.1-5214.3,4855.1-5214.1,4856.1-5214.1z"/>
		</g>
	</g>
	<g>
		<g>
			<path class="st8" d="M4853.2-5231.7c-0.1,3.6,0.6,7.3,2.5,10.4s5.1,5.4,8.7,5.8c1.3-3.1,2.2-6.5,1.9-9.9
				c-0.4-3.3-1.9-6.6-4.6-8.6s-6.6-2.5-9.5-0.9c-2.5,1.4-4,4-4.6,6.8c-0.7,2.7-0.6,4.3-0.5,7.1
				C4851.1-5223.3,4853.7-5227,4853.2-5231.7z"/>
		</g>
	</g>
</g>
<g>
	<g>
		<g>
			<g>
				<g>
					<g>
						<path class="st3" d="M4988.6-5199.2l-2.5-9.5c0,0-3.6,1-5.2-0.6c-0.7-0.6-1.3-3.4-1.5-7.8c0-0.5-1.8,0.5-1.8,0
							c0-0.9,3.1-5.2,2.9-7c-1-6.4-0.5-8.1,1.4-9.9c4.1-4,18.5-4.6,20.4,2.4c2,7,1.3,10.4-2.2,20.3l2.2,9.9L4988.6-5199.2z"/>
					</g>
				</g>
			</g>
			<g>
				<g>
					<path class="st2" d="M4985.7-5194.6l-3.2-8c0,0,9.7-6.7,19.1-7.3l2,4.1L4985.7-5194.6z"/>
				</g>
			</g>
			<g>
				<g>
					<path class="st6" d="M4953.2-5017.1l-3.7,11.1c0,0-11.3,0.7-11.6,1.5l16.3,4.5l4.3-15.6L4953.2-5017.1z"/>
				</g>
			</g>
			<g>
				<g>
					<polygon class="st6" points="5039.1,-4999.1 5048.4,-4999.1 5055.2,-5004.4 5046.8,-5018.1 5042.2,-5015.3 5047.7,-5005.1 
						5046,-5001 					"/>
				</g>
			</g>
			<g>
				<g>
					<polygon class="st0" points="4977,-5119.2 4948.8,-5009.3 4958.2,-5006.9 4980.9,-5065.3 4996.8,-5096.1 5014.6,-5050.3 
						5044.4,-5007.4 5051.3,-5012.4 5027.1,-5068.3 5019.3,-5119.2 					"/>
				</g>
			</g>
			<g>
				<g>
					<path class="st9" d="M5002.5-5209.4c0,0-8.7,2.7-13,7.7c-4.4,5-11.4,19.5-11.5,21.1c-0.2,1.6,2.2,19.5,2.2,19.5l-7.8,47.3
						c0,0,33.4,5.2,50.1,0l-8.7-39.1c0,0,1.2-13.8,2.7-15.4s-1.1-15.3-2.2-21.6s-6.1-13.6-7.8-15.1S5002.5-5209.4,5002.5-5209.4z"/>
				</g>
			</g>
			<g>
				<g>
					<path class="st10" d="M4980.1-5178.8c0.2,0,0.3-0.1,0.4-0.3c1-2.5,3.6-5.9,6.1-7.6l0.2-0.1v-0.5c0.1-1.8,0.1-3.8-0.1-5.6
						c1.3-0.6,2.6-1.1,3.9-1.4l0.3-0.1v-0.3c0.3-1.8,1.6-3.4,2.9-5c0.7-0.8,1.4-1.7,1.9-2.6c0.1-0.2,0.1-0.5-0.1-0.6
						s-0.5-0.1-0.6,0.1c-0.5,0.8-1.2,1.6-1.9,2.5c-1.3,1.6-2.6,3.2-3,5.2c-1.4,0.4-2.7,0.9-4,1.5l-0.3,0.1v0.3
						c0.2,1.8,0.2,3.9,0.1,5.7v0.1c-2.6,1.9-5.2,5.2-6.2,7.9c-0.1,0.2,0,0.5,0.2,0.5C4980-5178.8,4980-5178.8,4980.1-5178.8z"/>
				</g>
			</g>
			<g>
				<g>
					<path class="st6" d="M4979.7-5240.8c0.6-0.2,1.3-0.4,2.2-0.5c3.5-0.6,5.9,1.5,9.1,1.7c2.3,0.2,4.5-0.9,6.9-0.9
						c1.8,0,3.7,0.5,5,1.8s1.8,3.7,0.9,5.4c4.6,1.9,1.4,9.9,0,13.5c-1.4,3.5-3.8,8.6-3.8,8.6l-4.7-4.6c0,0,3.6-4.2,2-6
						c-1.6-1.9-3.2,1-3.2,1s-0.1,1.2-0.2,2.7c-0.8-0.6-1.6-1.1-2.5-1.5h-0.1l-0.2-6.1c0,0-4.9,1.6-5.8-2.5
						C4978.5-5229.4,4971.9-5238,4979.7-5240.8z"/>
				</g>
			</g>
		</g>
		<g>
			<path class="st10" d="M5001.8-5111c5.9,0,11.5-0.3,16.6-1c0.2,0,0.4-0.2,0.4-0.5c0-0.2-0.2-0.4-0.5-0.4
				c-11.5,1.5-25.3,1.3-41-0.6c-0.2,0-0.4,0.1-0.5,0.4c0,0.2,0.1,0.4,0.4,0.5C4986-5111.6,4994.2-5111,5001.8-5111z"/>
		</g>
	</g>
	<g>
		<g>
			<g>
				<path class="st3" d="M4942.3-5175.5c-0.5-1.2-0.2-5.1,0.3-4.7s0.9,2.5,0.9,2.5l0.2,1c0,0,0.8-0.3,0.8,0s0.3,1.6,0.3,1.6l0.1,2.5
					L4942.3-5175.5z"/>
			</g>
		</g>
		<g>
			<g>
				<polygon class="st11" points="4948.4,-5170.6 4945.4,-5181.4 4943,-5190 4939.9,-5188.9 4945.7,-5170.3 				"/>
			</g>
		</g>
		<g>
			<g>
				<path class="st3" d="M4979.2-5164.2l-2.5,9.8c0,0-25.1-9.8-26.4-10.3c0,0-3.8-3-4.6-3.6s-3.2-6.6-3.4-7.2s4.5-0.9,4.5-0.9
					s0.1-2.9,0.4-3.8c0.1-0.5,1.2-2.8,1.7-1.2l1,4.4l1.5,1.5c0.8,1.1,1.6,5.5,1.6,5.5L4979.2-5164.2z"/>
			</g>
		</g>
		<g>
			<g>
				<path class="st9" d="M4981.1-5164.5c0,0-2.6-7.4-7.6-4.4c-4.9,3-5.5-0.7-5.5-0.7l-13.3-3.7l-4.3,8.6l28.7,12.3L4981.1-5164.5z"
					/>
			</g>
		</g>
	</g>
	<g>
		<path class="st10" d="M4986.8-5165.6l0.1-0.4c2.9-10.4,9-20,14.5-28c2.5-3.5,4.9-5.1,7.2-4.7c0.2,0.1,0.4-0.1,0.5-0.3
			c0-0.2-0.1-0.4-0.3-0.5c-2.6-0.5-5.4,1.2-8,5c-5.5,8-11.6,17.5-14.5,27.9l-4.9-1.4c-0.2-0.1-0.5,0.1-0.5,0.3
			c-0.1,0.2,0.1,0.5,0.3,0.5L4986.8-5165.6z"/>
	</g>
	<g>
		<path class="st10" d="M4991.1-5149.6c0.5,0,1,0,1.5-0.1c2.5-0.4,4.3-2,5.5-3.3c1.5-1.6,2.5-3.4,3.6-5.2c0.1-0.2,0.1-0.5-0.1-0.6
			s-0.5-0.1-0.6,0.1c-1,1.7-2.1,3.5-3.5,5.1c-1.1,1.1-2.8,2.6-5,3c-2.7,0.5-5.6-0.7-7.9-1.7c-0.2-0.1-0.5,0-0.5,0.2
			c-0.1,0.2,0,0.5,0.2,0.5C4986.2-5150.6,4988.6-5149.6,4991.1-5149.6z"/>
	</g>
</g>
<path class="st12" d="M4324.1-5374.9c0,2.4,0,4.8,0,8.5c-1.8-1.5-4.4-2.9-4.2-3.6c0.6-2,2.2-3.7,3.4-5.6
	C4323.5-5375.4,4323.8-5375.2,4324.1-5374.9z"/>
<g>
	<g id="_x37_o2STE.tif">
		<g>
			<path class="st13" d="M24.1,74.5c-4.9,0.4-9.9,0.8-14.8,1.3c-5.6,0.5-6.6-4.6-9.3-7.7c0-2,0-4,0-6c10.3-9.4,20.7-18.7,30.7-28.5
				c3.1-3,5.1-7.3,7.1-11.3c1.7-3.4,3.3-5.2,6.8-2c0.6,0.5,2-0.1,2.7,0.9c-4.9,1.6-5.4,5-3.9,9.3c0.4,1.2,0.5,2.6,0.7,3.9
				c0.3,1.2,0,3.1,1.6,3.2c1.8,0.1,2.1-1.7,2.4-3.2c0.3-1.4,0.4-2.9,1.7-4c1.6,1,2.2,2.5,2.8,4.1c-1.9,5.5-6.7,5.7-11.3,5.9
				c-2.2,0.1-4.1-0.1-5.7,2c-4,5.6-8.3,11.1-12.5,16.6c-0.9,1.7-1.1,3.3-0.6,5.2C23.2,67.6,23.6,71.1,24.1,74.5z"/>
			<path class="st14" d="M68,330.1c0.5-5.5,2.4-10.7,4.1-16c2.6,0,5.2,0,7.9,0c0,0.3,0.2,0.7,0.1,1c-2.8,7.4,0.6,11.9,7,15
				C80.6,330.1,74.3,330.1,68,330.1z"/>
			<path class="st14" d="M38.8,314.1c-0.3,5.3-0.6,10.6-0.9,16c-6.7,0-13.3,0-20,0c0.3-0.3,0.6-0.8,1.1-0.9
				c7.7-2.1,12.3-6.6,12-15.1C33.6,314.1,36.2,314.1,38.8,314.1z"/>
			<path class="st15" d="M24.1,74.5c-0.5-3.4-0.9-6.9-1.7-10.3c-0.5-2-0.3-3.6,0.6-5.2c2.5,0.3,4.4-1.4,6.5-2.2
				c9.6-3.8,18.5-9.5,29-11.2c8.5,6.9,9.9,7,19.6,1.5c1-0.6,2.1-0.8,3.2-1.3c9.1,2.8,17.6,7,26,11.3c2.3,1.1,3.5,3,4.4,5.2
				c2.9,7.1,5.6,14.2,8.7,21.2c1.3,3,0.3,4.1-2.3,5.1c-2.4,0.9-5.1,1.4-7.1,3.5c-1.9-0.1-3.4,1.2-5.1,1.5c-4.5,0.8-5.5,3.8-4.6,7.6
				s0.3,7.6,1,11.3c1.1,5.9,0.3,11.8,1.3,17.6c0.4,8,1.8,15.9,1.5,23.9c-21.3,1.7-42.6,3.3-63.9,5c-0.1-23.5-0.2-47-0.3-70.5
				c0-6.6,0-6.6-6.8-5.6c-1,0.1-2,0.1-3,0.3c-3.9,1.2-5.4-0.7-5.7-4.3C25.1,77.4,24.5,75.9,24.1,74.5z M77,123.1
				c-0.3-0.3-0.7-0.7-1-1c-1.9-4.1-4.9-7.1-9-9c-0.3-0.3-0.7-0.7-1-1c0-0.8-0.2-1.6-1-2c-0.1-1.3-0.7-2-2-2c0-0.8-0.2-1.6-1-2
				c-0.1-0.7-0.2-1.6-1.3-1.5c-0.1,0-0.3,0.2-0.3,0.3c-0.1,1.1,0.7,1.2,1.5,1.3c0,0.8,0.2,1.6,1,2c0.1,1.3,0.7,2,2,2
				c0,0.8,0.2,1.6,1,2c0.3,0.3,0.7,0.7,1,1c1.9,4.1,4.9,7.1,9,9C76.3,122.5,76.6,122.8,77,123.1c0.1,0.2,0.3,0.3,0.4,0.5
				C77.3,123.4,77.1,123.2,77,123.1z M80,125.1c-0.2-0.1-0.3-0.3-0.5-0.4C79.6,124.8,79.8,125,80,125.1c0,0.8,0.1,1.6,1.2,1.6
				c0.1,0,0.3-0.2,0.3-0.3C81.6,125.2,80.7,125.2,80,125.1z M68.9,135.1c0,0.8,0.2,1.6,1,2c0.1,1.3,0.7,2,2,2c0.1,1,0.3,2,1.4,2.3
				c0.1,0,0.4-0.2,0.4-0.3c0.1-1.2-0.8-1.7-1.6-2.1c-0.1-1.2-0.7-2-2-2C70,136.2,69.8,135.5,68.9,135.1c-0.1-0.8-0.1-1.6-1.2-1.6
				c-0.1,0-0.3,0.2-0.3,0.3C67.4,134.9,68.2,135,68.9,135.1z M85,129.1c-0.1-0.8-0.2-1.6-1.3-1.5c-0.1,0-0.3,0.2-0.3,0.3
				C83.4,129,84.2,129,85,129.1c0.4,0.9,0.9,1.8,2.1,1.6c0.2,0,0.5-0.5,0.4-0.7C87,128.8,85.9,129.2,85,129.1z M58,100.1
				c-0.2-0.1-0.3-0.3-0.5-0.4C57.6,99.8,57.8,100,58,100.1c0.1,1-0.4,2.1,0.9,2.6c0.2,0.1,0.7-0.2,0.7-0.4
				C59.7,101,58.8,100.6,58,100.1z M102.7,72.9c-3.7,5.9-4.6,13.9-1.9,17.5C100.2,84.5,101.8,78.7,102.7,72.9z M59.9,120
				c-0.2-3.4-1.8-5.3-3.1-7.4C56.8,115.3,57.1,117.7,59.9,120z M56.2,97.5c0-2.4-0.9-4.3-3-6.5C53.1,94.2,54.3,96,56.2,97.5z
				 M105.8,65.6c-2.2,2.3-2.2,2.3-1.9,5.2C104.9,69,106.1,67.8,105.8,65.6z M88.9,131.5c1.3,1.9,2.5,2.7,4.6,2.2
				C92.4,132,91.2,131.4,88.9,131.5z M64.5,128.8c0.2-1.7-0.2-2.9-2-3.4C62.3,127.1,62.6,128.3,64.5,128.8z M66.6,131.2
				c-0.1-0.2-0.2-0.6-0.4-0.7c-0.2-0.1-0.5,0.2-0.8,0.3c0.2,0.3,0.4,0.6,0.6,0.9C66.2,131.5,66.4,131.4,66.6,131.2z"/>
			<path class="st16" d="M132,189.9c0.3,0,0.7,0.2,1,0.1c10.3-1.8,10.3-1.8,13.1,8.1c4.2,14.5,8.3,29.1,12.7,43.6
				c1.2,4,0.2,5.4-3.7,6.1c-5.1,0.8-10.1,2.2-15.1,3.4c-10.5,1.8-20.9,5-31.9,4.6c-0.5-15.2-2.3-30.9-2.1-46.7
				c1.6,4.5,1.8,9.3,2.1,14c0.1,0.9,0.1,3.4,1.3,2.2c2.3-2.3,1.6-0.2,1.8,0.8c0.3,1.3,0.6,2.6,0.9,3.9c1.6,7.5,3.3,15,4.9,22.5
				c0.5-0.1,1-0.2,1.5-0.3c-3.7-17.4-7.4-34.8-11.2-52.2c-0.3,0.1-0.7,0.1-1,0.2c-0.1,2.4-0.2,4.9-0.3,7.3c-1.3-2.6-0.4-5.4-1-8.1
				c0.3-1.6-0.3-3.7,2.1-4.2c0.9,0,1.7-0.1,2.6-0.1C117,193.3,124.5,191.6,132,189.9z"/>
			<path class="st13" d="M79.9,314.1c-2.6,0-5.2,0-7.9,0c1.4-17.5,2.9-35.1,4.3-52.6c0.9-10.8,1.8-21.5,2.7-32.3
				c5.6,0,11.3-0.1,16.9-0.1c0.2,5.5-1.3,10.8-1.5,16.3c-0.2,3.9-2,7.8-0.1,11.7C90.1,276.3,85.2,295.2,79.9,314.1z"/>
			<path class="st13" d="M103.5,130.1c-1.1-5.8-0.2-11.8-1.3-17.6c-0.7-3.7-0.1-7.5-1-11.3s0.1-6.7,4.6-7.6c1.7-0.3,3.2-1.7,5.1-1.5
				c2.5,12.5,4.9,25,7.4,37.5c3.2,15.6,6.4,31.1,10.7,46.4c-0.4,0.4-0.7,0.7-1.1,1.1c-2.9-1.4-5.7,0.1-8.6,0.4
				c-3.3,0.4-7,1.8-7.1-4.3c0-2.5,0-4.6,1.6-6.2c2.2-2.3,2.1-4.5,1.1-7.2c-3.2-8.7-6.1-17.5-9.3-26.2
				C105.3,132.3,105.3,130.5,103.5,130.1z"/>
			<path class="st17" d="M81.2,45.8c-1.1,0.4-2.2,0.7-3.2,1.3c-9.7,5.4-11.1,5.3-19.6-1.5c0.6-4.6,2.3-9.5-3.1-12.7
				c-0.9-1.5-2-2.9-2.7-4.6c-1-2.3-1.8-4.7,1.3-6.2c1.2,0.3,1,2.7,2.9,2c0.6-11.2,2.1-12.7,13.2-13c1.2,0,2.4,0,3.4-0.4
				c2.2-0.8,3.1-0.5,3.7,2.1c0.8,3.7,2.4,7.2,3.8,11.2c1.7-1.7,0.4-4.2,2.5-5.1c3.9,1.5,4.3,4.6,0.9,9.2c-3.3,4.4-4.5,9.3-4.3,14.7
				C80,44.1,80.3,45,81.2,45.8z M78,40.1c-0.3,0.3-0.7,0.7-1,1c-0.1,0.1-0.2,0.1-0.3,0.2c-0.1,0-0.1,0.2-0.1,0.3
				c0.1-0.1,0.3-0.3,0.4-0.4C77.3,40.8,77.6,40.4,78,40.1c0.1,0,0.3-0.1,0.3-0.2c0.1,0,0-0.2,0.1-0.3C78.2,39.8,78.1,40,78,40.1z
				 M62,41.1c-0.1-0.4-0.2-0.9-0.4-1.3c-0.1,0.1-0.3,0.2-0.4,0.2C61.5,40.4,61.7,40.7,62,41.1c0.4,0.8,1.2,1,2,1
				c2.1,3.5,5.2,1.5,8.1,1.4c-2.7-0.5-5.4-0.9-8-1.4C63.5,41.3,62.8,41.1,62,41.1z"/>
			<path class="st18" d="M94.4,257.1c-1.9-3.9-0.1-7.8,0.1-11.7c0.2-5.4,1.7-10.8,1.5-16.3c0.2-1.1,0.3-2.1,0.5-3.2l0.1-0.4
				c0.8-7,1.9-14.1,2.3-21.1c0.2-4.3,1.6-6.1,5.9-5.1c0.6,2.7-0.3,5.5,1,8.1c0,0.6,0.1,1.1,0.1,1.7c-0.2,15.8,1.6,31.5,2.1,46.7
				c11.1,0.4,21.4-2.8,31.9-4.6c-0.1,9-0.1,9.3-9,8.8C118.7,259.3,106.6,258.1,94.4,257.1z"/>
			<path class="st19" d="M83.3,18.9c-2,0.9-0.8,3.4-2.5,5.1c-1.4-4-3-7.5-3.8-11.2c-0.6-2.6-1.5-2.9-3.7-2.1
				c-1.1,0.4-2.3,0.3-3.4,0.4c-11.1,0.3-12.6,1.8-13.2,13c-1.9,0.7-1.7-1.7-2.9-2c0-1.1,0-2.2-0.9-3c0-1.3,0.1-2.6,0.1-4
				c0.2-9,4.7-14.3,12.6-15c9.4-0.8,14.3,2.8,16.3,12C82.5,14.4,82.9,16.6,83.3,18.9z"/>
			<path class="st20" d="M53,19.1c0.9,0.8,1,1.9,0.9,3c-3,1.5-2.3,3.9-1.3,6.2c0.7,1.6,1.8,3,2.7,4.6c-0.9,0.5-1.9,1.1-2.8,1.6
				c-0.6-1.6-1.2-3.1-2.8-4.1c-1.3,1.1-1.4,2.7-1.7,4c-0.3,1.5-0.6,3.3-2.4,3.2c-1.6-0.1-1.4-2-1.6-3.2c-0.3-1.3-0.3-2.7-0.7-3.9
				c-1.5-4.3-1-7.7,3.9-9.3C49.1,20.5,51.1,19.8,53,19.1z"/>
			<path class="st19" d="M130,186.3c-0.7-3.1-1.4-6.1-2-9.2c0.4-0.4,0.7-0.7,1.1-1.1C132.1,179.2,131,182.8,130,186.3z"/>
			<path class="st21" d="M106.3,170.9c0.6,5.5,1.1,11,1.7,16.5c-1.6,2.4-0.7,5.1-1.1,7.7c-2.4,0.5-1.8,2.6-2.1,4.2
				c-4.3-1-5.7,0.8-5.9,5.1c-0.4,7.1-1.5,14.1-2.3,21.1c-6.9,0-13.8,0-20.6,0c6.9,2.6,13.7,1.3,20.5,0.4c-0.2,1.1-0.3,2.1-0.5,3.2
				c-5.6,0-11.3,0.1-16.9,0.1c-4.4,0.7-5.3-1.4-5.4-5.5c-0.2-11.5-1-22.9-2.4-34.5c-2.4,8.5-4.8,17.1-7.2,25.6
				c-1,3.5-2.3,7-2.8,10.6c-0.5,3.3-2.3,4-5.1,3.9c-6.3,0-12.5,0-18.8,0c-5.2,0.7-5.5-1.7-4.9-6.2c2.8-19.6,5.1-39.2,7.6-58.8
				c0.2-1.8,0.1-3.7,1.1-5.3c21.3-1.7,42.6-3.3,63.9-5c1.4,5.4,1,10.9,1.3,16.3c-1.1-0.4-2.2-0.8-3.2-1.2c-0.3-0.3-0.7-0.7-1-1
				s-0.7-0.7-1-1c-1.2-3.5-0.4-7.6-2.9-10.8c0.3,3.8-0.7,7.9,2.8,10.9c0.3,0.3,0.7,0.7,1,1s0.7,0.7,1,1
				C103.2,171.3,104.8,171.1,106.3,170.9z M72.7,179.3c3.9-6.2,1.2-13.1,3.1-19.4c-0.5-0.1-1.1-0.1-1.6-0.2
				c-0.1,3.1-0.3,6.3-0.4,10.1c-1.8-3.5,0.5-7.2-2.3-9.9C72.5,166.3,71.6,172.8,72.7,179.3z M49.8,226.7c-4.7-2.3-9.4-1.6-14.1-1.4
				c0,0.5,0,0.9,0,1.4C40.4,226.7,45.1,226.7,49.8,226.7z M49.4,159.6c-0.4,2.5-0.8,5.1-1.2,7.6C49.8,164.9,51.5,162.5,49.4,159.6z
				 M43.7,172.7c-1,0.7-1.7,0.9-1.9,1.4c-0.5,1,0.6,1,1,0.8c0.5-0.2,1-0.6,1.4-1.1C44.3,173.7,43.9,173.1,43.7,172.7z"/>
			<path class="st13" d="M37.3,229.2c6.3,0,12.5,0,18.8,0c-1.8,18.2-7,35.8-10.6,53.7c-2.1,10.4-4.5,20.8-6.7,31.1
				c-2.6,0-5.2,0-7.8,0c0.6-26.4,1.2-52.8,5.7-78.9C37,233.2,37.1,231.2,37.3,229.2z"/>
			<path class="st22" d="M102.7,72.9c-0.8,5.8-2.5,11.6-1.9,17.5C98,86.8,98.9,78.8,102.7,72.9z"/>
			<path class="st22" d="M75.9,122.1c-4.1-1.9-7.1-4.9-9-9L67,113C71.1,114.9,74.1,118,75.9,122.1C76,122.1,75.9,122.1,75.9,122.1z"
				/>
			<path class="st22" d="M59.9,120c-2.8-2.3-3.2-4.8-3.1-7.4C58.1,114.7,59.7,116.6,59.9,120z"/>
			<path class="st22" d="M56.2,97.5c-1.8-1.5-3-3.3-3-6.5C55.3,93.3,56.2,95.2,56.2,97.5z"/>
			<path class="st22" d="M105.8,65.6c0.3,2.2-0.9,3.4-1.9,5.2C103.5,67.9,103.5,67.9,105.8,65.6z"/>
			<path class="st22" d="M88.9,131.5c2.2-0.1,3.5,0.5,4.6,2.2C91.4,134.2,90.2,133.4,88.9,131.5z"/>
			<path class="st22" d="M64.5,128.8c-1.9-0.6-2.2-1.7-2-3.4C64.3,126,64.7,127.1,64.5,128.8z"/>
			<path class="st22" d="M58,100.1c0.8,0.5,1.7,1,1.5,2.2c0,0.2-0.5,0.5-0.7,0.4C57.6,102.2,58.1,101,58,100.1L58,100.1z"/>
			<path class="st22" d="M85,129.1c0.9,0.1,2-0.3,2.5,1c0.1,0.2-0.2,0.7-0.4,0.7C85.9,130.9,85.4,130,85,129.1L85,129.1z"/>
			<path class="st22" d="M64.9,110.1c-1.3-0.1-1.9-0.8-2-2L63,108C64.3,108.1,64.9,108.8,64.9,110.1C65,110.1,64.9,110.1,64.9,110.1
				z"/>
			<path class="st22" d="M61.9,106.1c-0.8-0.1-1.6-0.2-1.5-1.3c0-0.1,0.2-0.3,0.3-0.3C61.8,104.5,61.9,105.3,61.9,106.1L61.9,106.1z
				"/>
			<path class="st22" d="M72,139.1c0.8,0.5,1.7,0.9,1.6,2.1c0,0.1-0.3,0.3-0.4,0.3C72.2,141.1,72,140.2,72,139.1L72,139.1z"/>
			<path class="st22" d="M71.9,139.1c-1.3-0.1-1.9-0.8-2-2L70,137C71.3,137.1,71.9,137.8,71.9,139.1L71.9,139.1z"/>
			<path class="st22" d="M68.9,135.1c-0.8-0.1-1.6-0.2-1.5-1.3c0-0.1,0.2-0.3,0.3-0.3C68.8,133.5,68.9,134.3,68.9,135.1L68.9,135.1z
				"/>
			<path class="st22" d="M66.6,131.2c-0.2,0.2-0.4,0.3-0.6,0.5c-0.2-0.3-0.4-0.6-0.6-0.9c0.3-0.1,0.6-0.3,0.8-0.3
				C66.4,130.6,66.5,130.9,66.6,131.2z"/>
			<path class="st22" d="M84.9,129.1c-0.7-0.1-1.6-0.2-1.5-1.3c0-0.1,0.2-0.3,0.3-0.3C84.8,127.5,84.9,128.3,84.9,129.1
				C85,129.1,84.9,129.1,84.9,129.1z"/>
			<path class="st22" d="M80,125.1c0.7,0.1,1.6,0.2,1.5,1.3c0,0.1-0.2,0.3-0.3,0.3C80.1,126.7,80,125.9,80,125.1L80,125.1z"/>
			<path class="st22" d="M69,135.1c0.8,0.4,1,1.2,1,2l-0.1,0.1C69.1,136.7,68.9,136,69,135.1L69,135.1z"/>
			<path class="st22" d="M65.9,112.1c-0.8-0.4-1-1.2-1-2L65,110C65.8,110.5,66,111.2,65.9,112.1C66,112.1,65.9,112.1,65.9,112.1z"/>
			<path class="st22" d="M62,106.1c0.8,0.4,1,1.2,1,2l-0.1,0.1C62.1,107.7,61.9,107,62,106.1C61.9,106.1,62,106.1,62,106.1z"/>
			<path class="st22" d="M57.9,100.1c-0.1-0.2-0.3-0.3-0.4-0.5C57.7,99.8,57.8,99.9,57.9,100.1C58,100.1,57.9,100.1,57.9,100.1z"/>
			<path class="st22" d="M79.9,125.1c-0.1-0.2-0.3-0.3-0.4-0.5C79.7,124.8,79.8,124.9,79.9,125.1L79.9,125.1z"/>
			<path class="st22" d="M77,123.1c0.1,0.2,0.3,0.3,0.4,0.5C77.2,123.4,77.1,123.3,77,123.1L77,123.1z"/>
			<path class="st22" d="M76.9,123.1c-0.3-0.3-0.7-0.7-1-1L76,122C76.3,122.4,76.7,122.7,76.9,123.1L76.9,123.1z"/>
			<path class="st22" d="M66.9,113.1c-0.3-0.3-0.7-0.7-1-1L66,112C66.3,112.4,66.7,112.7,66.9,113.1C67,113.1,66.9,113.1,66.9,113.1
				z"/>
			<path class="st23" d="M105.9,209.1c0-0.6-0.1-1.1-0.1-1.7c0.1-2.4,0.2-4.9,0.3-7.3c0.3-0.1,0.7-0.1,1-0.2
				c3.7,17.4,7.4,34.8,11.2,52.2c-0.5,0.1-1,0.2-1.5,0.3c-1.6-7.5-3.3-15-4.9-22.5c-0.3-1.3-0.6-2.6-0.9-3.9c-0.2-1,0.4-3.1-1.8-0.8
				c-1.2,1.2-1.2-1.3-1.3-2.2C107.7,218.3,107.5,213.6,105.9,209.1z"/>
			<path class="st19" d="M106.9,195c0.4-2.5-0.5-5.3,1.1-7.7c0.7-1.6,1.5-3.2,2.9-6.1c0.6,5.7-1.7,9.6-1.4,13.7
				C108.6,195,107.8,195,106.9,195z"/>
			<path class="st19" d="M64,42.1c2.7,0.5,5.4,0.9,8,1.4C69.2,43.6,66,45.6,64,42.1L64,42.1z"/>
			<path class="st19" d="M64,42.1c-0.8,0-1.6-0.2-2-1l0,0C62.8,41.1,63.5,41.3,64,42.1L64,42.1z"/>
			<path class="st19" d="M62,41.1c-0.3-0.4-0.5-0.7-0.8-1.1c0.1-0.1,0.3-0.2,0.4-0.2C61.7,40.2,61.8,40.7,62,41.1L62,41.1z"/>
			<path class="st19" d="M77,41.1c-0.1,0.1-0.3,0.3-0.4,0.4c0-0.1,0-0.2,0.1-0.3C76.7,41.2,76.8,41.1,77,41.1L77,41.1z"/>
			<path class="st19" d="M78,40.1c-0.3,0.3-0.7,0.7-1,1l0,0C77.3,40.8,77.6,40.4,78,40.1L78,40.1z"/>
			<path class="st19" d="M78,40.1c0.1-0.1,0.3-0.3,0.4-0.4c0,0.1,0,0.2-0.1,0.3C78.2,40,78.1,40.1,78,40.1L78,40.1z"/>
			<path class="st24" d="M96.5,225.9c-6.8,0.8-13.6,2.1-20.5-0.4c6.9,0,13.8,0,20.6,0L96.5,225.9z"/>
			<path class="st24" d="M103,169.1c1.1,0.4,2.2,0.8,3.2,1.2l0.2,0.3l-0.1,0.3C104.8,171.1,103.2,171.3,103,169.1L103,169.1z"/>
			<path class="st24" d="M72.7,179.3c-1.1-6.5-0.2-13-1.2-19.5c2.8,2.7,0.5,6.4,2.3,9.9c0.2-3.8,0.3-6.9,0.4-10.1
				c0.5,0.1,1.1,0.1,1.6,0.2C73.9,166.2,76.6,173.1,72.7,179.3z"/>
			<path class="st24" d="M49.8,226.7c-4.7,0-9.4,0-14.1,0c0-0.5,0-0.9,0-1.4C40.4,225.1,45.1,224.5,49.8,226.7z"/>
			<path class="st24" d="M100.9,167.1c-3.4-3-2.5-7.1-2.8-10.9C100.6,159.5,99.8,163.5,100.9,167.1L100.9,167.1z"/>
			<path class="st24" d="M49.4,159.6c2.1,2.9,0.4,5.2-1.2,7.6C48.6,164.7,49,162.2,49.4,159.6z"/>
			<path class="st24" d="M43.7,172.7c0.2,0.5,0.6,1,0.5,1.2c-0.3,0.5-0.9,0.9-1.4,1.1c-0.5,0.1-1.5,0.2-1-0.8
				C42,173.6,42.7,173.4,43.7,172.7z"/>
			<path class="st24" d="M102.9,169.1c-0.3-0.3-0.7-0.7-1-1l0.1-0.1C102.3,168.4,102.7,168.7,102.9,169.1L102.9,169.1z"/>
			<path class="st24" d="M101,167.1c0.3,0.3,0.7,0.7,1,1l-0.1,0.1C101.6,167.8,101.3,167.5,101,167.1L101,167.1z"/>
		</g>
	</g>
	<g id="_x37_o2STE.tif_2_">
		<g>
			<path class="st13" d="M24.1,74.5c-4.9,0.4-9.9,0.8-14.8,1.3c-5.6,0.5-6.6-4.6-9.3-7.7c0-2,0-4,0-6c10.3-9.4,20.7-18.7,30.7-28.5
				c3.1-3,5.1-7.3,7.1-11.3c1.7-3.4,3.3-5.2,6.8-2c0.6,0.5,2-0.1,2.7,0.9c-4.9,1.6-5.4,5-3.9,9.3c0.4,1.2,0.5,2.6,0.7,3.9
				c0.3,1.2,0,3.1,1.6,3.2c1.8,0.1,2.1-1.7,2.4-3.2c0.3-1.4,0.4-2.9,1.7-4c1.6,1,2.2,2.5,2.8,4.1c-1.9,5.5-6.7,5.7-11.3,5.9
				c-2.2,0.1-4.1-0.1-5.7,2c-4,5.6-8.3,11.1-12.5,16.6c-0.9,1.7-1.1,3.3-0.6,5.2C23.2,67.6,23.6,71.1,24.1,74.5z"/>
			<path class="st14" d="M68,330.1c0.5-5.5,2.4-10.7,4.1-16c2.6,0,5.2,0,7.9,0c0,0.3,0.2,0.7,0.1,1c-2.8,7.4,0.6,11.9,7,15
				C80.6,330.1,74.3,330.1,68,330.1z"/>
			<path class="st14" d="M38.8,314.1c-0.3,5.3-0.6,10.6-0.9,16c-6.7,0-13.3,0-20,0c0.3-0.3,0.6-0.8,1.1-0.9
				c7.7-2.1,12.3-6.6,12-15.1C33.6,314.1,36.2,314.1,38.8,314.1z"/>
			<path class="st15" d="M24.1,74.5c-0.5-3.4-0.9-6.9-1.7-10.3c-0.5-2-0.3-3.6,0.6-5.2c2.5,0.3,4.4-1.4,6.5-2.2
				c9.6-3.8,18.5-9.5,29-11.2c8.5,6.9,9.9,7,19.6,1.5c1-0.6,2.1-0.8,3.2-1.3c9.1,2.8,17.6,7,26,11.3c2.3,1.1,3.5,3,4.4,5.2
				c2.9,7.1,5.6,14.2,8.7,21.2c1.3,3,0.3,4.1-2.3,5.1c-2.4,0.9-5.1,1.4-7.1,3.5c-1.9-0.1-3.4,1.2-5.1,1.5c-4.5,0.8-5.5,3.8-4.6,7.6
				s0.3,7.6,1,11.3c1.1,5.9,0.3,11.8,1.3,17.6c0.4,8,1.8,15.9,1.5,23.9c-21.3,1.7-42.6,3.3-63.9,5c-0.1-23.5-0.2-47-0.3-70.5
				c0-6.6,0-6.6-6.8-5.6c-1,0.1-2,0.1-3,0.3c-3.9,1.2-5.4-0.7-5.7-4.3C25.1,77.4,24.5,75.9,24.1,74.5z M77,123.1
				c-0.3-0.3-0.7-0.7-1-1c-1.9-4.1-4.9-7.1-9-9c-0.3-0.3-0.7-0.7-1-1c0-0.8-0.2-1.6-1-2c-0.1-1.3-0.7-2-2-2c0-0.8-0.2-1.6-1-2
				c-0.1-0.7-0.2-1.6-1.3-1.5c-0.1,0-0.3,0.2-0.3,0.3c-0.1,1.1,0.7,1.2,1.5,1.3c0,0.8,0.2,1.6,1,2c0.1,1.3,0.7,2,2,2
				c0,0.8,0.2,1.6,1,2c0.3,0.3,0.7,0.7,1,1c1.9,4.1,4.9,7.1,9,9C76.3,122.5,76.6,122.8,77,123.1c0.1,0.2,0.3,0.3,0.4,0.5
				C77.3,123.4,77.1,123.2,77,123.1z M80,125.1c-0.2-0.1-0.3-0.3-0.5-0.4C79.6,124.8,79.8,125,80,125.1c0,0.8,0.1,1.6,1.2,1.6
				c0.1,0,0.3-0.2,0.3-0.3C81.6,125.2,80.7,125.2,80,125.1z M68.9,135.1c0,0.8,0.2,1.6,1,2c0.1,1.3,0.7,2,2,2c0.1,1,0.3,2,1.4,2.3
				c0.1,0,0.4-0.2,0.4-0.3c0.1-1.2-0.8-1.7-1.6-2.1c-0.1-1.2-0.7-2-2-2C70,136.2,69.8,135.5,68.9,135.1c-0.1-0.8-0.1-1.6-1.2-1.6
				c-0.1,0-0.3,0.2-0.3,0.3C67.4,134.9,68.2,135,68.9,135.1z M85,129.1c-0.1-0.8-0.2-1.6-1.3-1.5c-0.1,0-0.3,0.2-0.3,0.3
				C83.4,129,84.2,129,85,129.1c0.4,0.9,0.9,1.8,2.1,1.6c0.2,0,0.5-0.5,0.4-0.7C87,128.8,85.9,129.2,85,129.1z M58,100.1
				c-0.2-0.1-0.3-0.3-0.5-0.4C57.6,99.8,57.8,100,58,100.1c0.1,1-0.4,2.1,0.9,2.6c0.2,0.1,0.7-0.2,0.7-0.4
				C59.7,101,58.8,100.6,58,100.1z M102.7,72.9c-3.7,5.9-4.6,13.9-1.9,17.5C100.2,84.5,101.8,78.7,102.7,72.9z M59.9,120
				c-0.2-3.4-1.8-5.3-3.1-7.4C56.8,115.3,57.1,117.7,59.9,120z M56.2,97.5c0-2.4-0.9-4.3-3-6.5C53.1,94.2,54.3,96,56.2,97.5z
				 M105.8,65.6c-2.2,2.3-2.2,2.3-1.9,5.2C104.9,69,106.1,67.8,105.8,65.6z M88.9,131.5c1.3,1.9,2.5,2.7,4.6,2.2
				C92.4,132,91.2,131.4,88.9,131.5z M64.5,128.8c0.2-1.7-0.2-2.9-2-3.4C62.3,127.1,62.6,128.3,64.5,128.8z M66.6,131.2
				c-0.1-0.2-0.2-0.6-0.4-0.7c-0.2-0.1-0.5,0.2-0.8,0.3c0.2,0.3,0.4,0.6,0.6,0.9C66.2,131.5,66.4,131.4,66.6,131.2z"/>
			<path class="st16" d="M132,189.9c0.3,0,0.7,0.2,1,0.1c10.3-1.8,10.3-1.8,13.1,8.1c4.2,14.5,8.3,29.1,12.7,43.6
				c1.2,4,0.2,5.4-3.7,6.1c-5.1,0.8-10.1,2.2-15.1,3.4c-10.5,1.8-20.9,5-31.9,4.6c-0.5-15.2-2.3-30.9-2.1-46.7
				c1.6,4.5,1.8,9.3,2.1,14c0.1,0.9,0.1,3.4,1.3,2.2c2.3-2.3,1.6-0.2,1.8,0.8c0.3,1.3,0.6,2.6,0.9,3.9c1.6,7.5,3.3,15,4.9,22.5
				c0.5-0.1,1-0.2,1.5-0.3c-3.7-17.4-7.4-34.8-11.2-52.2c-0.3,0.1-0.7,0.1-1,0.2c-0.1,2.4-0.2,4.9-0.3,7.3c-1.3-2.6-0.4-5.4-1-8.1
				c0.3-1.6-0.3-3.7,2.1-4.2c0.9,0,1.7-0.1,2.6-0.1C117,193.3,124.5,191.6,132,189.9z"/>
			<path class="st13" d="M79.9,314.1c-2.6,0-5.2,0-7.9,0c1.4-17.5,2.9-35.1,4.3-52.6c0.9-10.8,1.8-21.5,2.7-32.3
				c5.6,0,11.3-0.1,16.9-0.1c0.2,5.5-1.3,10.8-1.5,16.3c-0.2,3.9-2,7.8-0.1,11.7C90.1,276.3,85.2,295.2,79.9,314.1z"/>
			<path class="st13" d="M103.5,130.1c-1.1-5.8-0.2-11.8-1.3-17.6c-0.7-3.7-0.1-7.5-1-11.3s0.1-6.7,4.6-7.6c1.7-0.3,3.2-1.7,5.1-1.5
				c2.5,12.5,4.9,25,7.4,37.5c3.2,15.6,6.4,31.1,10.7,46.4c-0.4,0.4-0.7,0.7-1.1,1.1c-2.9-1.4-5.7,0.1-8.6,0.4
				c-3.3,0.4-7,1.8-7.1-4.3c0-2.5,0-4.6,1.6-6.2c2.2-2.3,2.1-4.5,1.1-7.2c-3.2-8.7-6.1-17.5-9.3-26.2
				C105.3,132.3,105.3,130.5,103.5,130.1z"/>
			<path class="st17" d="M81.2,45.8c-1.1,0.4-2.2,0.7-3.2,1.3c-9.7,5.4-11.1,5.3-19.6-1.5c0.6-4.6,2.3-9.5-3.1-12.7
				c-0.9-1.5-2-2.9-2.7-4.6c-1-2.3-1.8-4.7,1.3-6.2c1.2,0.3,1,2.7,2.9,2c0.6-11.2,2.1-12.7,13.2-13c1.2,0,2.4,0,3.4-0.4
				c2.2-0.8,3.1-0.5,3.7,2.1c0.8,3.7,2.4,7.2,3.8,11.2c1.7-1.7,0.4-4.2,2.5-5.1c3.9,1.5,4.3,4.6,0.9,9.2c-3.3,4.4-4.5,9.3-4.3,14.7
				C80,44.1,80.3,45,81.2,45.8z M78,40.1c-0.3,0.3-0.7,0.7-1,1c-0.1,0.1-0.2,0.1-0.3,0.2c-0.1,0-0.1,0.2-0.1,0.3
				c0.1-0.1,0.3-0.3,0.4-0.4C77.3,40.8,77.6,40.4,78,40.1c0.1,0,0.3-0.1,0.3-0.2c0.1,0,0-0.2,0.1-0.3C78.2,39.8,78.1,40,78,40.1z
				 M62,41.1c-0.1-0.4-0.2-0.9-0.4-1.3c-0.1,0.1-0.3,0.2-0.4,0.2C61.5,40.4,61.7,40.7,62,41.1c0.4,0.8,1.2,1,2,1
				c2.1,3.5,5.2,1.5,8.1,1.4c-2.7-0.5-5.4-0.9-8-1.4C63.5,41.3,62.8,41.1,62,41.1z"/>
			<path class="st18" d="M94.4,257.1c-1.9-3.9-0.1-7.8,0.1-11.7c0.2-5.4,1.7-10.8,1.5-16.3c0.2-1.1,0.3-2.1,0.5-3.2l0.1-0.4
				c0.8-7,1.9-14.1,2.3-21.1c0.2-4.3,1.6-6.1,5.9-5.1c0.6,2.7-0.3,5.5,1,8.1c0,0.6,0.1,1.1,0.1,1.7c-0.2,15.8,1.6,31.5,2.1,46.7
				c11.1,0.4,21.4-2.8,31.9-4.6c-0.1,9-0.1,9.3-9,8.8C118.7,259.3,106.6,258.1,94.4,257.1z"/>
			<path class="st19" d="M83.3,18.9c-2,0.9-0.8,3.4-2.5,5.1c-1.4-4-3-7.5-3.8-11.2c-0.6-2.6-1.5-2.9-3.7-2.1
				c-1.1,0.4-2.3,0.3-3.4,0.4c-11.1,0.3-12.6,1.8-13.2,13c-1.9,0.7-1.7-1.7-2.9-2c0-1.1,0-2.2-0.9-3c0-1.3,0.1-2.6,0.1-4
				c0.2-9,4.7-14.3,12.6-15c9.4-0.8,14.3,2.8,16.3,12C82.5,14.4,82.9,16.6,83.3,18.9z"/>
			<path class="st20" d="M53,19.1c0.9,0.8,1,1.9,0.9,3c-3,1.5-2.3,3.9-1.3,6.2c0.7,1.6,1.8,3,2.7,4.6c-0.9,0.5-1.9,1.1-2.8,1.6
				c-0.6-1.6-1.2-3.1-2.8-4.1c-1.3,1.1-1.4,2.7-1.7,4c-0.3,1.5-0.6,3.3-2.4,3.2c-1.6-0.1-1.4-2-1.6-3.2c-0.3-1.3-0.3-2.7-0.7-3.9
				c-1.5-4.3-1-7.7,3.9-9.3C49.1,20.5,51.1,19.8,53,19.1z"/>
			<path class="st19" d="M130,186.3c-0.7-3.1-1.4-6.1-2-9.2c0.4-0.4,0.7-0.7,1.1-1.1C132.1,179.2,131,182.8,130,186.3z"/>
			<path class="st21" d="M106.3,170.9c0.6,5.5,1.1,11,1.7,16.5c-1.6,2.4-0.7,5.1-1.1,7.7c-2.4,0.5-1.8,2.6-2.1,4.2
				c-4.3-1-5.7,0.8-5.9,5.1c-0.4,7.1-1.5,14.1-2.3,21.1c-6.9,0-13.8,0-20.6,0c6.9,2.6,13.7,1.3,20.5,0.4c-0.2,1.1-0.3,2.1-0.5,3.2
				c-5.6,0-11.3,0.1-16.9,0.1c-4.4,0.7-5.3-1.4-5.4-5.5c-0.2-11.5-1-22.9-2.4-34.5c-2.4,8.5-4.8,17.1-7.2,25.6
				c-1,3.5-2.3,7-2.8,10.6c-0.5,3.3-2.3,4-5.1,3.9c-6.3,0-12.5,0-18.8,0c-5.2,0.7-5.5-1.7-4.9-6.2c2.8-19.6,5.1-39.2,7.6-58.8
				c0.2-1.8,0.1-3.7,1.1-5.3c21.3-1.7,42.6-3.3,63.9-5c1.4,5.4,1,10.9,1.3,16.3c-1.1-0.4-2.2-0.8-3.2-1.2c-0.3-0.3-0.7-0.7-1-1
				s-0.7-0.7-1-1c-1.2-3.5-0.4-7.6-2.9-10.8c0.3,3.8-0.7,7.9,2.8,10.9c0.3,0.3,0.7,0.7,1,1s0.7,0.7,1,1
				C103.2,171.3,104.8,171.1,106.3,170.9z M72.7,179.3c3.9-6.2,1.2-13.1,3.1-19.4c-0.5-0.1-1.1-0.1-1.6-0.2
				c-0.1,3.1-0.3,6.3-0.4,10.1c-1.8-3.5,0.5-7.2-2.3-9.9C72.5,166.3,71.6,172.8,72.7,179.3z M49.8,226.7c-4.7-2.3-9.4-1.6-14.1-1.4
				c0,0.5,0,0.9,0,1.4C40.4,226.7,45.1,226.7,49.8,226.7z M49.4,159.6c-0.4,2.5-0.8,5.1-1.2,7.6C49.8,164.9,51.5,162.5,49.4,159.6z
				 M43.7,172.7c-1,0.7-1.7,0.9-1.9,1.4c-0.5,1,0.6,1,1,0.8c0.5-0.2,1-0.6,1.4-1.1C44.3,173.7,43.9,173.1,43.7,172.7z"/>
			<path class="st13" d="M37.3,229.2c6.3,0,12.5,0,18.8,0c-1.8,18.2-7,35.8-10.6,53.7c-2.1,10.4-4.5,20.8-6.7,31.1
				c-2.6,0-5.2,0-7.8,0c0.6-26.4,1.2-52.8,5.7-78.9C37,233.2,37.1,231.2,37.3,229.2z"/>
			<path class="st22" d="M102.7,72.9c-0.8,5.8-2.5,11.6-1.9,17.5C98,86.8,98.9,78.8,102.7,72.9z"/>
			<path class="st22" d="M75.9,122.1c-4.1-1.9-7.1-4.9-9-9L67,113C71.1,114.9,74.1,118,75.9,122.1C76,122.1,75.9,122.1,75.9,122.1z"
				/>
			<path class="st22" d="M59.9,120c-2.8-2.3-3.2-4.8-3.1-7.4C58.1,114.7,59.7,116.6,59.9,120z"/>
			<path class="st22" d="M56.2,97.5c-1.8-1.5-3-3.3-3-6.5C55.3,93.3,56.2,95.2,56.2,97.5z"/>
			<path class="st22" d="M105.8,65.6c0.3,2.2-0.9,3.4-1.9,5.2C103.5,67.9,103.5,67.9,105.8,65.6z"/>
			<path class="st22" d="M88.9,131.5c2.2-0.1,3.5,0.5,4.6,2.2C91.4,134.2,90.2,133.4,88.9,131.5z"/>
			<path class="st22" d="M64.5,128.8c-1.9-0.6-2.2-1.7-2-3.4C64.3,126,64.7,127.1,64.5,128.8z"/>
			<path class="st22" d="M58,100.1c0.8,0.5,1.7,1,1.5,2.2c0,0.2-0.5,0.5-0.7,0.4C57.6,102.2,58.1,101,58,100.1L58,100.1z"/>
			<path class="st22" d="M85,129.1c0.9,0.1,2-0.3,2.5,1c0.1,0.2-0.2,0.7-0.4,0.7C85.9,130.9,85.4,130,85,129.1L85,129.1z"/>
			<path class="st22" d="M64.9,110.1c-1.3-0.1-1.9-0.8-2-2L63,108C64.3,108.1,64.9,108.8,64.9,110.1C65,110.1,64.9,110.1,64.9,110.1
				z"/>
			<path class="st22" d="M61.9,106.1c-0.8-0.1-1.6-0.2-1.5-1.3c0-0.1,0.2-0.3,0.3-0.3C61.8,104.5,61.9,105.3,61.9,106.1L61.9,106.1z
				"/>
			<path class="st22" d="M72,139.1c0.8,0.5,1.7,0.9,1.6,2.1c0,0.1-0.3,0.3-0.4,0.3C72.2,141.1,72,140.2,72,139.1L72,139.1z"/>
			<path class="st22" d="M71.9,139.1c-1.3-0.1-1.9-0.8-2-2L70,137C71.3,137.1,71.9,137.8,71.9,139.1L71.9,139.1z"/>
			<path class="st22" d="M68.9,135.1c-0.8-0.1-1.6-0.2-1.5-1.3c0-0.1,0.2-0.3,0.3-0.3C68.8,133.5,68.9,134.3,68.9,135.1L68.9,135.1z
				"/>
			<path class="st22" d="M66.6,131.2c-0.2,0.2-0.4,0.3-0.6,0.5c-0.2-0.3-0.4-0.6-0.6-0.9c0.3-0.1,0.6-0.3,0.8-0.3
				C66.4,130.6,66.5,130.9,66.6,131.2z"/>
			<path class="st22" d="M84.9,129.1c-0.7-0.1-1.6-0.2-1.5-1.3c0-0.1,0.2-0.3,0.3-0.3C84.8,127.5,84.9,128.3,84.9,129.1
				C85,129.1,84.9,129.1,84.9,129.1z"/>
			<path class="st22" d="M80,125.1c0.7,0.1,1.6,0.2,1.5,1.3c0,0.1-0.2,0.3-0.3,0.3C80.1,126.7,80,125.9,80,125.1L80,125.1z"/>
			<path class="st22" d="M69,135.1c0.8,0.4,1,1.2,1,2l-0.1,0.1C69.1,136.7,68.9,136,69,135.1L69,135.1z"/>
			<path class="st22" d="M65.9,112.1c-0.8-0.4-1-1.2-1-2L65,110C65.8,110.5,66,111.2,65.9,112.1C66,112.1,65.9,112.1,65.9,112.1z"/>
			<path class="st22" d="M62,106.1c0.8,0.4,1,1.2,1,2l-0.1,0.1C62.1,107.7,61.9,107,62,106.1C61.9,106.1,62,106.1,62,106.1z"/>
			<path class="st22" d="M57.9,100.1c-0.1-0.2-0.3-0.3-0.4-0.5C57.7,99.8,57.8,99.9,57.9,100.1C58,100.1,57.9,100.1,57.9,100.1z"/>
			<path class="st22" d="M79.9,125.1c-0.1-0.2-0.3-0.3-0.4-0.5C79.7,124.8,79.8,124.9,79.9,125.1L79.9,125.1z"/>
			<path class="st22" d="M77,123.1c0.1,0.2,0.3,0.3,0.4,0.5C77.2,123.4,77.1,123.3,77,123.1L77,123.1z"/>
			<path class="st22" d="M76.9,123.1c-0.3-0.3-0.7-0.7-1-1L76,122C76.3,122.4,76.7,122.7,76.9,123.1L76.9,123.1z"/>
			<path class="st22" d="M66.9,113.1c-0.3-0.3-0.7-0.7-1-1L66,112C66.3,112.4,66.7,112.7,66.9,113.1C67,113.1,66.9,113.1,66.9,113.1
				z"/>
			<path class="st23" d="M105.9,209.1c0-0.6-0.1-1.1-0.1-1.7c0.1-2.4,0.2-4.9,0.3-7.3c0.3-0.1,0.7-0.1,1-0.2
				c3.7,17.4,7.4,34.8,11.2,52.2c-0.5,0.1-1,0.2-1.5,0.3c-1.6-7.5-3.3-15-4.9-22.5c-0.3-1.3-0.6-2.6-0.9-3.9c-0.2-1,0.4-3.1-1.8-0.8
				c-1.2,1.2-1.2-1.3-1.3-2.2C107.7,218.3,107.5,213.6,105.9,209.1z"/>
			<path class="st19" d="M106.9,195c0.4-2.5-0.5-5.3,1.1-7.7c0.7-1.6,1.5-3.2,2.9-6.1c0.6,5.7-1.7,9.6-1.4,13.7
				C108.6,195,107.8,195,106.9,195z"/>
			<path class="st19" d="M64,42.1c2.7,0.5,5.4,0.9,8,1.4C69.2,43.6,66,45.6,64,42.1L64,42.1z"/>
			<path class="st19" d="M64,42.1c-0.8,0-1.6-0.2-2-1l0,0C62.8,41.1,63.5,41.3,64,42.1L64,42.1z"/>
			<path class="st19" d="M62,41.1c-0.3-0.4-0.5-0.7-0.8-1.1c0.1-0.1,0.3-0.2,0.4-0.2C61.7,40.2,61.8,40.7,62,41.1L62,41.1z"/>
			<path class="st19" d="M77,41.1c-0.1,0.1-0.3,0.3-0.4,0.4c0-0.1,0-0.2,0.1-0.3C76.7,41.2,76.8,41.1,77,41.1L77,41.1z"/>
			<path class="st19" d="M78,40.1c-0.3,0.3-0.7,0.7-1,1l0,0C77.3,40.8,77.6,40.4,78,40.1L78,40.1z"/>
			<path class="st19" d="M78,40.1c0.1-0.1,0.3-0.3,0.4-0.4c0,0.1,0,0.2-0.1,0.3C78.2,40,78.1,40.1,78,40.1L78,40.1z"/>
			<path class="st24" d="M96.5,225.9c-6.8,0.8-13.6,2.1-20.5-0.4c6.9,0,13.8,0,20.6,0L96.5,225.9z"/>
			<path class="st24" d="M103,169.1c1.1,0.4,2.2,0.8,3.2,1.2l0.2,0.3l-0.1,0.3C104.8,171.1,103.2,171.3,103,169.1L103,169.1z"/>
			<path class="st24" d="M72.7,179.3c-1.1-6.5-0.2-13-1.2-19.5c2.8,2.7,0.5,6.4,2.3,9.9c0.2-3.8,0.3-6.9,0.4-10.1
				c0.5,0.1,1.1,0.1,1.6,0.2C73.9,166.2,76.6,173.1,72.7,179.3z"/>
			<path class="st24" d="M49.8,226.7c-4.7,0-9.4,0-14.1,0c0-0.5,0-0.9,0-1.4C40.4,225.1,45.1,224.5,49.8,226.7z"/>
			<path class="st24" d="M100.9,167.1c-3.4-3-2.5-7.1-2.8-10.9C100.6,159.5,99.8,163.5,100.9,167.1L100.9,167.1z"/>
			<path class="st24" d="M49.4,159.6c2.1,2.9,0.4,5.2-1.2,7.6C48.6,164.7,49,162.2,49.4,159.6z"/>
			<path class="st24" d="M43.7,172.7c0.2,0.5,0.6,1,0.5,1.2c-0.3,0.5-0.9,0.9-1.4,1.1c-0.5,0.1-1.5,0.2-1-0.8
				C42,173.6,42.7,173.4,43.7,172.7z"/>
			<path class="st24" d="M102.9,169.1c-0.3-0.3-0.7-0.7-1-1l0.1-0.1C102.3,168.4,102.7,168.7,102.9,169.1L102.9,169.1z"/>
			<path class="st24" d="M101,167.1c0.3,0.3,0.7,0.7,1,1l-0.1,0.1C101.6,167.8,101.3,167.5,101,167.1L101,167.1z"/>
		</g>
	</g>
</g>
</svg>
