<?xml version="1.0" encoding="utf-8"?>
<!-- Generator: Adobe Illustrator 22.0.0, SVG Export Plug-In . SVG Version: 6.00 Build 0)  -->
<svg version="1.1" id="Layer_1" xmlns="http://www.w3.org/2000/svg" xmlns:xlink="http://www.w3.org/1999/xlink" x="0px" y="0px"
	 viewBox="0 0 489.8 307" style="enable-background:new 0 0 489.8 307;" xml:space="preserve">
<style type="text/css">
	.st0{fill:#2D24A3;}
	.st1{fill:#B77053;}
	.st2{fill:#ECE0D3;}
	.st3{fill:#E48868;}
	.st4{fill:#464473;}
	.st5{fill:#734E4F;}
	.st6{fill:#393762;}
	.st7{fill:#BA745D;}
	.st8{fill:#563616;}
	.st9{fill:#202070;}
	.st10{fill:#CFB199;}
	.st11{fill:#4E587F;}
	.st12{opacity:0.73;fill:#FFFFFF;enable-background:new    ;}
	.st13{fill:#C5CFEF;}
	.st14{fill:#AEB9F4;}
	.st15{fill:#8387FE;}
	.st16{fill:#FE8730;}
	.st17{fill:#AF6144;}
	.st18{fill:#FEBA72;}
	.st19{fill:#CBD2D7;}
	.st20{fill:#6C757D;}
	.st21{fill:#FEDB00;}
	.st22{fill:#FFFFFF;}
	.st23{fill:#5055BC;}
	.st24{fill:#6668CA;}
	.st25{fill:#9198F9;}
	.st26{fill:#535A61;}
</style>
<g>
	<g>
		<g>
			<g>
				<path class="st0" d="M3877.1-4980.5v60.8h3.8c0,0,6.6-27.7,6.9-30.4c0.3-2.7-1-11.2-1-11.2l5.7-22L3877.1-4980.5z"/>
			</g>
		</g>
		<g>
			<g>
				<path class="st0" d="M3875.1-4980.5v60.8h-3.8c0,0-6.6-27.7-6.9-30.4c-0.3-2.7,1-11.2,1-11.2l-5.7-22L3875.1-4980.5z"/>
			</g>
		</g>
		<g>
			<g>
				<polygon class="st1" points="3876.6,-4936.6 3877.1,-4916.6 3877.1,-4912.4 3882.5,-4912.4 3880.6,-4916.1 3885.6,-4936.6 				
					"/>
			</g>
		</g>
	</g>
	<g>
		<g>
			<path class="st2" d="M3886.8-5050.5c1.9,4.5,8.4,5.3,10.6,9.6c1.4,2.9,0.3,6.6-1.9,8.9s-5.4,3.6-8.6,4.4
				c-7,1.9-14.5,2.4-21.5,0.2c-2.5-0.8-4.9-1.9-6.8-3.6s-3.4-4.1-3.5-6.7c-0.2-2.6,1.1-5.3,3.3-6.6c1.4-0.8,3.1-1,4.2-2.1
				c1.7-1.6,1.7-4.2,1.6-6.6c-0.1-4.3,0.1-8.7,0.7-13c0.4-3.3,1.2-6.8,3.4-9.3c2.5-2.7,6.5-3.7,10.1-2.9s6.5,3.6,8.1,6.9
				s1.9,7.1,1.2,10.7C3887-5057.1,3885.5-5053.6,3886.8-5050.5z"/>
		</g>
	</g>
	<g>
		<g>
			<path class="st3" d="M3854.6-4996.1c0,0-2.3,4.2-2.5,5.6s-0.2,2.1,0.9,1.8c1.1-0.3-0.1,1.9,1.5,1.7c1.6-0.2,4.3-4.5,4.3-4.5
				l-2.7-3.7L3854.6-4996.1z"/>
		</g>
	</g>
	<g>
		<g>
			<path class="st4" d="M3896.8-4979.2c0,0-1.9-27.7-11.7-42l2.5-13.6c0,0,4.2-3.6,3.3-9.1v-7.5c0,0-11.6-5.5-14.4-5.5
				s-15.3,6.1-15.3,6.1s0,5.2,0,7c0,1.9,0.2,6.1,3,8.7l3.1,13.7c0,0-11.2,12-12.7,43.1C3854.6-4978.1,3879.8-4975.3,3896.8-4979.2z"
				/>
		</g>
	</g>
	<g>
		<g>
			<path class="st4" d="M3861.2-5050.7c-2.2,1.4-3.3,3.1-3.6,4.4s-3.1,28.4-3,32c0.2,3.6-2.8,2.8-1.6,8c1.2,5.2-3,4.8-1.1,8.3
				l0.5,2.8l4,0.9l4.1-12l3.6-28.6L3861.2-5050.7z"/>
		</g>
	</g>
	<g>
		<g>
			<path class="st1" d="M3903.7-4986.8c3.5-0.6-2.3-10.1-6.2-12.6c-3.9-2.5-11.6-4.6-13.6-4.1
				C3881.8-5003.1,3890.1-4984.3,3903.7-4986.8z"/>
		</g>
	</g>
	<g>
		<g>
			<path class="st1" d="M3883.9-5003.5c-1.7,0-2.3,1.6-2.3,3.4c0,1.9,4.1,21.3,7.2,23s13.6,1.4,14.2-1.9s-1.1-10.8-1.1-10.8
				L3883.9-5003.5z"/>
		</g>
	</g>
	<g>
		<g>
			<polygon class="st1" points="3883.9,-5003.5 3866.3,-5053.1 3863.4,-5051.8 3881.5,-5000.1 			"/>
		</g>
	</g>
	<g>
		<g>
			<path class="st3" d="M3885.1-5021.2l-3.1,1.8c0,0-3.3-1.4-4.2-1.2l0.7,1.9c0,0-5.5,1.5-5.5,1.8s0,1.7,0,1.7l2-0.4
				c0,0-0.2,1,0,1.2s0.7,0.4,0.7,0.4s0.2,0.8,0.6,1.6s0.4,1.4,1.1,1.9c0.6,0.5,4.9-1.4,5.4-1.8s4.5-4.6,4.5-4.6L3885.1-5021.2z"/>
		</g>
	</g>
	<g>
		<g>
			<path class="st5" d="M3899.5-4986.2c0.6,0,1.2-0.1,1.8-0.2c0.2,0,0.3-0.2,0.2-0.3c0-0.2-0.2-0.3-0.3-0.2
				c-3.5,0.6-7.5-0.8-10.6-3.9c-2.8-2.8-4.6-6.4-6.3-10.1c-0.1-0.1-0.2-0.2-0.4-0.1c-0.1,0.1-0.2,0.2-0.1,0.4
				c1.7,3.8,3.5,7.4,6.4,10.3C3892.9-4987.8,3896.3-4986.2,3899.5-4986.2z"/>
		</g>
	</g>
	<g>
		<g>
			<path class="st5" d="M3898.4-4989c1.3,0,2.6-0.1,3.9-0.4c0.2,0,0.3-0.2,0.2-0.3c0-0.2-0.2-0.3-0.3-0.2c-1.7,0.3-3.3,0.4-5,0.3
				c-0.2,0-0.3,0.1-0.3,0.3c0,0.2,0.1,0.3,0.3,0.3C3897.6-4989,3898-4989,3898.4-4989z"/>
		</g>
	</g>
	<g>
		<g>
			<path class="st5" d="M3892.3-4977.7c0.1,0,0.1,0,0.2-0.1s0.1-0.3,0-0.4c-5.4-6.5-8.7-14.6-9.3-23.1c0-0.2-0.2-0.3-0.3-0.3
				c-0.2,0-0.3,0.2-0.3,0.3c0.6,8.5,3.9,16.8,9.4,23.4C3892.1-4977.8,3892.2-4977.7,3892.3-4977.7z"/>
		</g>
	</g>
	<g>
		<g>
			<path class="st5" d="M3875.9-5019.3h0.1c0.2-0.1,0.2-0.2,0.2-0.4l-4-10.9c-0.1-0.2-0.2-0.2-0.4-0.2c-0.2,0.1-0.2,0.2-0.2,0.4
				l4,10.9C3875.7-5019.4,3875.8-5019.3,3875.9-5019.3z"/>
		</g>
	</g>
	<g>
		<g>
			<path class="st4" d="M3890.9-5051.3c3,1.4,8,28,7.3,29.2s-8,8.9-10.5,9.7l-2.7-8.7l4.7-4.1l-2.2-9.5L3890.9-5051.3z"/>
		</g>
	</g>
	<g>
		<g>
			<path class="st6" d="M3873.3-5043L3873.3-5043c3.1-0.7,5.9-2.5,7.9-4.9c0.1-0.1,0.1-0.3-0.1-0.4c-0.1-0.1-0.3-0.1-0.4,0.1
				c-1.8,2.4-4.5,4.1-7.5,4.7c-0.2,0-0.3,0.2-0.2,0.4C3873-5043,3873.1-5043,3873.3-5043z"/>
		</g>
	</g>
	<g>
		<g>
			<path class="st6" d="M3864.3-5035c0.1,0,0.1,0,0.2,0c0.1-0.1,0.2-0.3,0.1-0.4c-1.9-3.1-2.2-7-0.8-10.4l0.1-0.1l-0.1-0.1
				c-0.2-0.4-0.4-0.9-0.6-1.4s-0.4-1-0.7-1.4c-0.1-0.1-0.3-0.2-0.4-0.1s-0.2,0.3-0.1,0.4c0.2,0.4,0.4,0.9,0.7,1.4
				c0.2,0.4,0.4,0.9,0.6,1.3C3861.9-5042.3,3862.2-5038.2,3864.3-5035C3864.1-5035,3864.2-5035,3864.3-5035z"/>
		</g>
	</g>
	<g>
		<g>
			<path class="st6" d="M3887.9-5035c0.1,0,0.2,0,0.2-0.1c2-3.2,2.3-7.3,0.9-10.8c0.2-0.4,0.4-0.8,0.6-1.3s0.4-0.9,0.6-1.4
				c0.1-0.1,0-0.3-0.1-0.4s-0.3,0-0.4,0.1c-0.2,0.4-0.4,0.9-0.7,1.4c-0.2,0.5-0.4,0.9-0.6,1.4l-0.1,0.1l0.1,0.1
				c1.4,3.3,1.1,7.3-0.8,10.4c-0.1,0.1,0,0.3,0.1,0.4C3887.8-5035,3887.8-5035,3887.9-5035z"/>
		</g>
	</g>
	<g>
		<g>
			<path class="st6" d="M3857.1-4995.5c0.1,0,0.3-0.1,0.3-0.2c0.8-4.4,2.1-8.7,3.6-12.9c0.1-0.2,0-0.3-0.2-0.4
				c-0.1-0.1-0.3,0-0.4,0.2c-1.6,4.2-2.8,8.6-3.6,13C3856.8-4995.7,3856.9-4995.6,3857.1-4995.5
				C3857-4995.5,3857.1-4995.5,3857.1-4995.5z"/>
		</g>
	</g>
	<g>
		<g>
			<path class="st6" d="M3888.3-5012.9h0.1c0.1-0.1,0.2-0.2,0.2-0.4l-0.9-2.2c-0.1-0.2-0.2-0.2-0.4-0.2c-0.1,0.1-0.2,0.2-0.2,0.4
				l1,2.2C3888.1-5013,3888.2-5012.9,3888.3-5012.9z"/>
		</g>
	</g>
	<g>
		<g>
			<polygon class="st1" points="3875.6,-4936.6 3875.1,-4916.6 3875.1,-4912.4 3869.6,-4912.4 3871.6,-4916.1 3866.6,-4936.6 			"/>
		</g>
	</g>
	<g>
		<g>
			<path class="st3" d="M3879-5060.9v6.9c0,0-3.5,5.9-6.7,0.1l0.3-7H3879z"/>
		</g>
	</g>
	<g>
		<g>
			<path class="st3" d="M3877.6-5077.2c5.9,0.8,6.9,7.6,5.5,13c-1.1,4-3.5,8.1-7.3,8s-6.1-5.3-6.8-8.5
				C3867.9-5069.7,3868.1-5078.4,3877.6-5077.2z"/>
		</g>
	</g>
	<g>
		<g>
			<path class="st3" d="M3882.4-5065.6c0,0,0.2-2.3,2.1-1.5c1.8,0.8-0.4,5.9-2.4,5.3C3880-5062.4,3882.4-5065.6,3882.4-5065.6z"/>
		</g>
	</g>
	<g>
		<g>
			<path class="st3" d="M3870.2-5065.7c0,0-0.1-2.3-1.9-1.7c-1.9,0.6,0,5.9,2.1,5.4S3870.2-5065.7,3870.2-5065.7z"/>
		</g>
	</g>
	<g>
		<g>
			<path class="st7" d="M3875.8-5055.8c0.9,0,1.8-0.2,2.6-0.7c0.1-0.1,0.2-0.3,0.1-0.4s-0.3-0.2-0.4-0.1c-1.4,0.9-3.4,0.8-4.8-0.2
				c-0.1-0.1-0.3-0.1-0.4,0.1c-0.1,0.1-0.1,0.3,0.1,0.4C3873.7-5056.1,3874.8-5055.8,3875.8-5055.8z"/>
		</g>
	</g>
	<g>
		<g>
			<path class="st8" d="M3872.8-5073.4c-0.1,3.6,0.6,7.3,2.5,10.4s5.1,5.4,8.7,5.8c1.3-3.1,2.2-6.5,1.9-9.9
				c-0.4-3.3-1.9-6.6-4.6-8.6s-6.6-2.5-9.5-0.9c-2.5,1.4-4,4-4.6,6.8s-0.6,4.3-0.5,7.1C3870.7-5065.1,3873.4-5068.8,3872.8-5073.4z"
				/>
		</g>
	</g>
</g>
<g>
	<g>
		<g>
			<g>
				<g>
					<g>
						<path class="st3" d="M4008.2-5041l-2.5-9.5c0,0-3.6,1-5.2-0.6c-0.7-0.6-1.3-3.4-1.5-7.8c0-0.5-1.8,0.5-1.8,0
							c0-0.9,3.1-5.2,2.9-7c-1-6.4-0.5-8.1,1.4-9.9c4.1-4,18.5-4.6,20.4,2.4s1.3,10.4-2.2,20.3l2.2,9.9L4008.2-5041z"/>
					</g>
				</g>
			</g>
			<g>
				<g>
					<path class="st2" d="M4005.4-5036.4l-3.2-8c0,0,9.7-6.7,19.1-7.3l2,4.1L4005.4-5036.4z"/>
				</g>
			</g>
			<g>
				<g>
					<path class="st6" d="M3972.8-4858.8l-3.7,11.1c0,0-11.3,0.7-11.6,1.5l16.3,4.5l4.3-15.6L3972.8-4858.8z"/>
				</g>
			</g>
			<g>
				<g>
					<polygon class="st6" points="4058.7,-4840.9 4068.1,-4840.9 4074.8,-4846.1 4066.5,-4859.9 4061.8,-4857.1 4067.4,-4846.8 
						4065.6,-4842.7 					"/>
				</g>
			</g>
			<g>
				<g>
					<polygon class="st0" points="3996.7,-4960.9 3968.5,-4851.1 3977.9,-4848.6 4000.5,-4907 4016.5,-4937.8 4034.3,-4892.1 
						4064,-4849.2 4071,-4854.1 4046.8,-4910.1 4038.9,-4960.9 					"/>
				</g>
			</g>
			<g>
				<g>
					<path class="st9" d="M4022.1-5051.2c0,0-8.7,2.7-13,7.7s-11.4,19.5-11.5,21.1c-0.2,1.6,2.2,19.5,2.2,19.5l-7.8,47.3
						c0,0,33.4,5.2,50.1,0l-8.7-39.1c0,0,1.2-13.8,2.7-15.4c1.4-1.6-1.1-15.3-2.2-21.6s-6.1-13.6-7.8-15.1
						C4024.2-5048.2,4022.1-5051.2,4022.1-5051.2z"/>
				</g>
			</g>
			<g>
				<g>
					<path class="st10" d="M3999.8-5020.6c0.2,0,0.3-0.1,0.4-0.3c1-2.5,3.6-5.9,6.1-7.6l0.2-0.1v-0.5c0.1-1.8,0.1-3.8-0.1-5.6
						c1.3-0.6,2.6-1.1,3.9-1.4l0.3-0.1v-0.3c0.3-1.8,1.6-3.4,2.9-5c0.7-0.8,1.4-1.7,1.9-2.6c0.1-0.2,0.1-0.5-0.1-0.6
						s-0.5-0.1-0.6,0.1c-0.5,0.8-1.2,1.6-1.9,2.5c-1.3,1.6-2.6,3.2-3,5.2c-1.4,0.4-2.7,0.9-4,1.5l-0.3,0.1v0.3
						c0.2,1.8,0.2,3.9,0.1,5.7v0.1c-2.6,1.9-5.2,5.2-6.2,7.9c-0.1,0.2,0,0.5,0.2,0.5C3999.7-5020.6,3999.7-5020.6,3999.8-5020.6z"/>
				</g>
			</g>
			<g>
				<g>
					<path class="st6" d="M3999.4-5082.5c0.6-0.2,1.3-0.4,2.2-0.5c3.5-0.6,5.9,1.5,9.1,1.7c2.3,0.2,4.5-0.9,6.9-0.9
						c1.8,0,3.7,0.5,5,1.8s1.8,3.7,0.9,5.4c4.6,1.9,1.4,9.9,0,13.5c-1.4,3.5-3.8,8.6-3.8,8.6l-4.7-4.6c0,0,3.6-4.2,2-6
						c-1.6-1.9-3.2,1-3.2,1s-0.1,1.2-0.2,2.7c-0.8-0.6-1.6-1.1-2.5-1.5h-0.1l-0.2-6.1c0,0-4.9,1.6-5.8-2.5
						C3998.2-5071.2,3991.6-5079.8,3999.4-5082.5z"/>
				</g>
			</g>
		</g>
		<g>
			<path class="st10" d="M4021.5-4952.8c5.9,0,11.5-0.3,16.6-1c0.2,0,0.4-0.2,0.4-0.5c0-0.2-0.2-0.4-0.5-0.4
				c-11.5,1.5-25.3,1.3-41-0.6c-0.2,0-0.4,0.1-0.5,0.4c0,0.2,0.1,0.4,0.4,0.5C4005.7-4953.3,4013.9-4952.8,4021.5-4952.8z"/>
		</g>
	</g>
	<g>
		<g>
			<g>
				<path class="st3" d="M3962-5017.3c-0.5-1.2-0.2-5.1,0.3-4.7c0.5,0.3,0.9,2.5,0.9,2.5l0.2,1c0,0,0.8-0.3,0.8,0s0.3,1.6,0.3,1.6
					l0.1,2.5L3962-5017.3z"/>
			</g>
		</g>
		<g>
			<g>
				<polygon class="st11" points="3968,-5012.3 3965.1,-5023.2 3962.7,-5031.8 3959.6,-5030.6 3965.3,-5012.1 				"/>
			</g>
		</g>
		<g>
			<g>
				<path class="st3" d="M3998.9-5006l-2.5,9.8c0,0-25.1-9.8-26.4-10.3c0,0-3.8-3-4.6-3.6c-0.8-0.6-3.2-6.6-3.4-7.2
					c-0.2-0.6,4.5-0.9,4.5-0.9s0.1-2.9,0.4-3.8c0.1-0.5,1.2-2.8,1.7-1.2l1,4.4l1.5,1.5c0.8,1.1,1.6,5.5,1.6,5.5L3998.9-5006z"/>
			</g>
		</g>
		<g>
			<g>
				<path class="st9" d="M4000.8-5006.3c0,0-2.6-7.4-7.6-4.4c-4.9,3-5.5-0.7-5.5-0.7l-13.3-3.7l-4.3,8.6l28.7,12.3L4000.8-5006.3z"
					/>
			</g>
		</g>
	</g>
	<g>
		<path class="st10" d="M4006.5-5007.4l0.1-0.4c2.9-10.4,9-20,14.5-28c2.5-3.5,4.9-5.1,7.2-4.7c0.2,0.1,0.4-0.1,0.5-0.3
			c0-0.2-0.1-0.4-0.3-0.5c-2.6-0.5-5.4,1.2-8,5c-5.5,8-11.6,17.5-14.5,27.9l-4.9-1.4c-0.2-0.1-0.5,0.1-0.5,0.3s0.1,0.5,0.3,0.5
			L4006.5-5007.4z"/>
	</g>
	<g>
		<path class="st10" d="M4010.8-4991.4c0.5,0,1,0,1.5-0.1c2.5-0.4,4.4-2,5.5-3.3c1.5-1.6,2.5-3.4,3.6-5.2c0.1-0.2,0.1-0.5-0.1-0.6
			s-0.5-0.1-0.6,0.1c-1,1.7-2.1,3.6-3.5,5.1c-1.1,1.2-2.8,2.6-5,3c-2.7,0.5-5.6-0.7-7.9-1.7c-0.2-0.1-0.5,0-0.5,0.2
			c-0.1,0.2,0,0.5,0.2,0.5C4005.9-4992.4,4008.3-4991.4,4010.8-4991.4z"/>
	</g>
</g>
<path class="st12" d="M3343.7-5216.7c0,2.4,0,4.8,0,8.5c-1.8-1.5-4.4-2.9-4.2-3.6c0.6-2,2.2-3.7,3.4-5.6
	C3343.2-5217.1,3343.4-5216.9,3343.7-5216.7z"/>
<g>
	<rect x="373" y="76.5" width="5.6" height="8"/>
	<path class="st13" d="M386.7,50.7c-0.4-0.6-1.1-0.8-1.3-0.9l0,0c0,0,0,0-0.1,0h-0.1l0,0c-0.3,0.1-1,0.2-1.3,0.9
		c-0.4,0.8-7.2,22.7-7.2,22.7v120.8h8.5h0.1h8.5V73.3C393.9,73.3,387.1,51.4,386.7,50.7z"/>
	<path class="st14" d="M393.4,71.7c-1.6-5.1-6.4-20.4-6.7-21c-0.3-0.5-0.9-0.7-1.2-0.8v21.9L393.4,71.7L393.4,71.7z"/>
	<rect x="385.5" y="75.6" class="st14" width="8.4" height="12.8"/>
	<rect x="385.5" y="92.3" class="st14" width="8.4" height="16.2"/>
	<rect x="385.5" y="112.3" class="st14" width="8.4" height="35.9"/>
	<rect x="385.5" y="152.1" class="st14" width="8.4" height="42.1"/>
	<path class="st15" d="M389.9,60.6v11.1h3.5C392.7,69.4,391.3,64.9,389.9,60.6z"/>
	<rect x="389.9" y="75.6" class="st15" width="4" height="12.8"/>
	<rect x="389.9" y="92.3" class="st15" width="4" height="16.2"/>
	<rect x="389.9" y="112.3" class="st15" width="4" height="35.9"/>
	<rect x="389.9" y="152.1" class="st15" width="4" height="42.1"/>
	<rect x="376.7" y="73.3" width="17.2" height="0.7"/>
	<rect x="376.7" y="90" width="17.2" height="0.7"/>
	<rect x="376.7" y="109.9" width="17.2" height="0.7"/>
	<rect x="376.7" y="149.8" width="17.2" height="0.7"/>
	<rect x="327.8" y="76.5" width="5.6" height="8"/>
	<path class="st14" d="M319.7,50.7c0.4-0.6,1.1-0.8,1.3-0.9l0,0c0,0,0,0,0.1,0h0.1l0,0c0.3,0.1,1,0.2,1.3,0.9
		c0.4,0.8,7.2,22.7,7.2,22.7v120.8h-8.5h-0.1h-8.5V73.3C312.5,73.3,319.3,51.4,319.7,50.7z"/>
	<path class="st15" d="M329.3,71.7c-1.6-5.2-6.3-20.3-6.7-21c-0.3-0.5-0.9-0.7-1.2-0.8v21.8H329.3z"/>
	<rect x="321.4" y="75.6" class="st15" width="8.4" height="12.8"/>
	<rect x="321.4" y="152.1" class="st15" width="8.4" height="42.2"/>
	<rect x="321.4" y="112.3" class="st15" width="8.4" height="35.9"/>
	<rect x="321.4" y="92.3" class="st15" width="8.4" height="16.2"/>
	<rect x="312.5" y="73.3" width="17.2" height="0.7"/>
	<rect x="312.5" y="90" width="17.2" height="0.7"/>
	<rect x="312.5" y="109.9" width="17.2" height="0.7"/>
	<rect x="312.5" y="149.8" width="17.2" height="0.7"/>
	<rect x="332.3" y="96.4" width="41.8" height="0.7"/>
	<path class="st16" d="M353.5,0.2V0c0,0,0,0-0.1,0.1C353.3,0,353.3,0,353.3,0v0.2c-2.4,2.6-23.4,26.6-20.8,62.8v169.1h20.8h0.2h20.8
		V63C376.9,26.8,355.9,2.8,353.5,0.2z"/>
	<path class="st17" d="M364.5,16.4v215.7h9.8V63C375.7,43.4,370.2,27.4,364.5,16.4z"/>
	<path class="st18" d="M353.1,60.4v-60c-2.9,3.2-22.2,25.9-20.8,60.1L353.1,60.4L353.1,60.4z"/>
	<rect x="332.5" y="65.7" class="st18" width="20.6" height="166.4"/>
	<rect x="299.3" y="219.5" class="st19" width="37" height="45.2"/>
	
		<rect x="369.7" y="219.5" transform="matrix(1 -1.328112e-03 1.328112e-03 1 -0.3212 0.5158)" class="st20" width="37" height="45.2"/>
	<rect x="339.5" y="250" class="st16" width="28.1" height="14.8"/>
	<polygon class="st21" points="339.5,250 340.8,262.8 341.8,259.4 342.8,261.3 345.4,257.4 348.6,263.6 349.7,259.6 350.7,262 
		351.5,258.6 352.8,261.7 354.1,258.9 356.2,263.3 360.1,255.1 363,263.6 363.8,259.5 364.8,262.9 366.2,256 367.2,263 367.5,250 	
		"/>
	<polygon class="st22" points="339.5,250 340.5,254.9 341.2,251.4 342.8,254.2 343.8,251.7 344.8,255.6 346.1,251.5 347.7,258.3 
		348.4,251.6 349.5,253.4 350.4,251.3 351.1,256 352.1,250.9 353.5,257.1 355.6,251.2 357.2,255.6 357.7,251.3 358.8,252.6 
		360.3,250.6 361.9,255.3 362.8,250.6 364.4,259.2 365.2,251.1 365.7,252.2 366.1,251.1 366.8,252.5 367.5,250 	"/>
	<g>
		<path class="st17" d="M374.2,160.7V94.8l-18.3-18.3l-0.1,0.2c0.2,0.3,0.3,0.6,0.2,1.1c-0.9,11.6-0.3,23.5-0.4,35.2
			c0,6.2-0.1,12.3-0.1,18.5c0,3.6,0.2,7.2,0.1,10.8L374.2,160.7z"/>
		<path class="st23" d="M412.2,218.8c0,0-0.5-3.1-1.8-7.8c-1.2-4.7-4.7-7.4-4.7-7.4s-18.9-19.8-23.2-23.4
			c-4.3-3.6-6.5-11.7-6.5-11.7l-9.1-51.3h-13.5h-0.1h-13.5l-9.1,51.3c0,0-2.2,8.1-6.5,11.7c-4.3,3.6-23.2,23.4-23.2,23.4
			s-3.5,2.7-4.7,7.4c-1.2,4.7-1.8,7.8-1.8,7.8v3h1.2l-1.2,3v2.7l58.7,7.4l0,0l0,0l0,0l0,0l58.7-7.4v-2.7l-1.2-3h1.2v-3H412.2z"/>
		<polygon class="st20" points="333.7,230 333.7,242.9 338.4,242.9 339.5,250 352.1,250 352.1,229.4 		"/>
		<polygon class="st24" points="295.9,218.6 353.5,218.6 353.5,234.9 294.7,227.5 294.7,224.7 295.9,221.8 294.7,221.8 294.7,218.8 
					"/>
		<path class="st25" d="M339.5,134.1l-6.1,38c0,0-2.7,7-4.6,8.9c-1.9,1.9-29.1,29-29.1,29l-2.7,8.6h48.2l-1.8-91.6L339.5,134.1z"/>
		<polygon class="st26" points="373.3,230 373.3,242.9 368.6,242.9 367.5,250 354.9,250 354.9,229.4 		"/>
		<polygon class="st23" points="411.1,218.6 353.5,218.6 353.5,234.9 412.2,227.5 412.2,224.7 411,221.8 412.2,221.8 412.2,218.8 		
			"/>
		<path class="st15" d="M367.5,134.1l6.1,38c0,0,2.7,7,4.6,8.9c1.9,1.9,29.1,29,29.1,29l2.7,8.6h-48.2l1.8-91.6L367.5,134.1z"/>
		<path class="st23" d="M381.7,184.5c-1.9-1.9-3.2-3.2-3.5-3.5c-1.9-1.9-4.6-8.9-4.6-8.9l-6.1-38l-3.8-7.1l-1.8,91.6h19.9
			L381.7,184.5L381.7,184.5z"/>
		<path class="st15" d="M367.5,209.4c0,0,0.1-81.9,0-91.2s-2.8-19.7-2.8-19.7C359.7,75,354,75,353.6,75.1c-0.5,0-6.1,0-11.1,23.4
			c0,0-2.7,10.4-2.8,19.7s0,91.2,0,91.2c-5.6,0-5.8,11.8-5.8,11.8v13.7h16h3.8h0.1h3.8h16v-13.7
			C373.3,221.2,373.1,209.4,367.5,209.4z"/>
		<path class="st25" d="M362.4,89.5c-4-13.3-7.8-14.4-8.7-14.4v14.4H362.4z"/>
		<path class="st25" d="M367.5,209.4L367.5,209.4h-13.8v25.5h19.6v-13.7C373.3,221.2,373.1,209.4,367.5,209.4z"/>
		<path class="st25" d="M367.5,205.5c0-16.4,0.1-79.2,0-87.3c-0.1-9.3-2.8-19.7-2.8-19.7c-0.4-1.9-0.8-3.6-1.2-5.1h-9.8v112.1H367.5
			z"/>
		<path class="st15" d="M367.5,209.4L367.5,209.4h-3.9c0.6,0.5,1.1,1.1,1.6,1.7l0,0l0.1,0.1l0,0c0.8,0.8,1.3,1.6,1.7,2.6
			c0.5,1,0.8,2.2,0.8,3.6v17.4h5.4v-13.7C373.3,221.2,373.1,209.4,367.5,209.4z"/>
		<path class="st24" d="M367.5,118.2c-0.1-9.3-2.8-19.7-2.8-19.7c-0.4-1.9-0.8-3.6-1.2-5.1h-2.7v112.1h6.7
			C367.5,189.1,367.6,126.3,367.5,118.2z"/>
		<polygon class="st24" points="353.5,207.8 353.5,207.8 349.3,207.8 351.7,257.1 353.5,257.1 353.5,257.1 355.3,257.1 357.7,207.8 
					"/>
		<polygon class="st26" points="362.3,102.5 353.5,98.6 353.5,98.5 353.5,98.6 353.5,98.5 353.5,98.6 344.7,102.5 343.3,108.1 
			345.7,108.1 346.9,104.4 353.5,103.7 360.1,104.4 361.3,108.1 363.7,108.1 		"/>
		<polygon class="st26" points="362.8,91 356.7,91 356.7,87.1 353.5,87.1 353.5,87.1 350.3,87.1 350.3,91 344.2,91 343.9,92 
			353.5,92 353.5,92 363.1,92 		"/>
	</g>
	<rect x="332.5" y="63" width="41.8" height="0.7"/>
	<circle class="st22" cx="322.1" cy="255" r="10.5"/>
	<g>
		<path class="st22" d="M159.4,233.8c-7,0-13.5,2.7-18.3,7c-0.6-5.1-4.9-9-10.2-9c-5.7,0-10.3,4.6-10.3,10.3
			c0,5.7,4.6,10.3,10.3,10.3c0.9,0,1.8-0.1,2.7-0.4c-1,2.9-1.6,6-1.6,9.2c0,0.2,0,0.4,0,0.6c-0.6,0-1.1,0.1-1.6,0.2
			c-3-7-10-11.9-18.1-11.9c-9.2,0-16.9,6.4-19.1,14.9c-2.3-3.2-5.5-5.6-9.4-6.7c1.3-1.7,2-3.8,2-6.1c0-5.6-4.5-10.1-10.1-10.1
			s-10.1,4.5-10.1,10.1c0,3.2,1.5,6.1,3.9,7.9c-3.3,2-5.9,5-7.3,8.7c-2.2-2.5-5.4-4.2-9-4.5c0.9-2,1.4-4.3,1.4-6.6
			c0-9.1-7.4-16.5-16.5-16.5s-16.5,7.4-16.5,16.5c0,2.4,0.5,4.7,1.5,6.7c-0.7-0.1-1.4-0.2-2.2-0.2c-2.6,0-5.1,0.8-7.1,2.1
			c-0.4-3.4-3.3-6.1-6.9-6.1c-3.8,0-6.9,3.1-6.9,6.9s3.1,6.9,6.9,6.9c0.5,0,0.9,0,1.4-0.1c-0.3,1.1-0.5,2.2-0.5,3.4
			c0,7.2,5.9,13.1,13.1,13.1S34,284.5,34,277.3c0-1.3-0.2-2.6-0.6-3.9c1.5,0.4,3,0.7,4.7,0.7c0.3,0,0.7,0,1-0.1
			c-0.3,1.1-0.5,2.3-0.5,3.6c0,7.4,6,13.5,13.5,13.5c4.9,0,9.2-2.6,11.6-6.6c3.1,5,8.7,8.3,15,8.3c8,0,14.7-5.3,16.9-12.6
			c3.5,5.5,9.6,9.1,16.6,9.1c5.4,0,10.3-2.2,13.9-5.7c1.8,1.2,4,1.8,6.3,1.8c3.4,0,6.5-1.5,8.7-3.8c4.9,4.3,11.2,7,18.3,7
			c15.2,0,27.4-12.3,27.4-27.4C186.8,246.1,174.5,233.8,159.4,233.8z"/>
		<path class="st22" d="M469.7,248c-1.7,0-3.3,0.2-4.9,0.6c-0.8-1.3-1.7-2.5-2.7-3.7c2.3-2,3.7-4.9,3.7-8.1c0-6-4.9-10.9-10.9-10.8
			c-5.1,0-9.4,3.5-10.5,8.3c-2.3-0.5-4.6-0.8-7-0.8c-16,0-29.3,11.7-31.8,27c-2.8-1.3-5.9-2.1-9.2-2.1c-7.4,0-13.8,3.7-17.7,9.3
			c-4.8-11.5-16.2-19.5-29.4-19.5c-7.6,0-14.5,2.7-20,7.1c-3.4-14-16-24.4-31-24.4c-2.9,0-5.7,0.4-8.3,1.1c0-0.4,0.1-0.7,0.1-1.1
			c0-9.7-7.9-17.5-17.5-17.5c-9.7,0-17.5,7.8-17.5,17.5c0,8.8,6.5,16,14.9,17.2c-0.5,1.1-1,2.2-1.5,3.3c-2.8-1.9-6.1-3-9.7-3
			c-3.2,0-6.3,0.9-8.9,2.5c-4.1-11.7-15.2-20-28.2-20c-9.6,0-18.2,4.6-23.6,11.7c-1.9-0.9-4-1.4-6.2-1.4c-6.5,0-12.1,4.2-14.1,10.1
			c-1.6-0.9-3.4-1.4-5.4-1.4c-6,0-10.9,4.9-10.9,10.9s4.9,10.9,10.9,10.9c3.8,0,7.2-2,9.1-5c2.7,2.6,6.3,4.2,10.3,4.2
			c0.6,0,1.2,0,1.7-0.1c4.1,11.5,15.2,19.8,28.1,19.8c10.1,0,19-5,24.4-12.7c3.2,3.4,7.7,5.5,12.7,5.5c4.6,0,8.8-1.8,11.9-4.8
			c5.5,9.5,15.8,15.9,27.6,15.9c7.6,0,14.5-2.7,20-7.1c2,8.2,7.2,15.2,14.1,19.6h33.8c5.5-3.5,10-8.6,12.5-14.7
			c3.9,5.6,10.4,9.3,17.8,9.3c8.4,0,15.7-4.9,19.3-11.9c5.8,5.2,13.4,8.4,21.8,8.4c9.9,0,18.7-4.5,24.6-11.5c2.4,1,5,1.5,7.7,1.5
			c11.1,0,20.1-9,20-20.1C489.8,257,480.8,248,469.7,248z"/>
		<path class="st20" d="M468.8,250.6c-3,0-5.9,0.7-8.4,2c-4.3-8.8-13.4-14.8-23.9-14.8c-14.7,0-26.5,11.9-26.5,26.6
			c0,6.3,2.2,12.1,5.9,16.7c-1.3-3.1-2-6.5-2-10.1c0-14.7,11.9-26.6,26.5-26.6c7.7,0,14.6,3.3,19.5,8.5c-6.2,3.2-10.5,9.7-10.5,17.2
			c0,4.6,1.6,8.8,4.3,12.2c-0.9-2.3-1.5-4.8-1.5-7.4c0-10.7,8.7-19.4,19.4-19.4c6.1,0,11.5,2.8,15.1,7.2
			C483.8,255.5,476.9,250.6,468.8,250.6z"/>
		<g>
			<path class="st20" d="M298.5,234.3c-14.7,0-26.6,11.9-26.6,26.6c0,6.3,2.2,12.1,5.9,16.7c-1.3-3.1-2-6.5-2-10.1
				c0-14.7,11.9-26.6,26.6-26.6c8.4,0,15.8,3.9,20.7,9.9C319.1,241.1,309.6,234.3,298.5,234.3z"/>
			<path class="st20" d="M258.8,251.6c-2.7,0-5.2,0.8-7.4,2.1c-1.3-2-3.4-3.6-5.8-4.2c-4.3-9-13.4-15.2-24-15.2
				c-9.4,0-17.7,4.9-22.4,12.3c-2-1.7-4.6-2.7-7.4-2.7c-4,0-7.5,2-9.6,5.1c-4.8-7-12.8-11.6-21.9-11.6c-14.7,0-26.6,11.9-26.6,26.6
				c0,6.3,2.2,12.1,5.9,16.7c-1.3-3.1-2-6.5-2-10.1c0-14.7,11.9-26.6,26.6-26.6c6.6,0,12.6,2.4,17.3,6.4c-0.8,1.5-1.2,3.3-1.2,5.1
				c0,2.7,1,5.3,2.6,7.2c-0.6-1.4-0.9-2.8-0.9-4.4c0-2.2,0.6-4.2,1.6-5.9c0.4,0.5,0.9,0.9,1.3,1.4c-0.3-0.7-0.6-1.3-0.9-2
				c2.1-3.1,5.6-5.1,9.6-5.1c1.7,0,3.4,0.4,4.9,1.1c-2.1,3.8-3.4,8.2-3.4,12.9c0,6.3,2.2,12.1,5.9,16.7c-1.3-3.1-2-6.5-2-10.1
				c0-14.7,11.9-26.6,26.6-26.6c7.7,0,14.6,3.3,19.4,8.5c-0.6-0.1-1.2-0.2-1.9-0.2c-5.5,0-9.9,4.4-9.9,9.9c0,2.4,0.8,4.5,2.2,6.2
				c-0.5-1.2-0.7-2.4-0.7-3.8c0-5.5,4.4-9.9,9.9-9.9c2.5,0,4.7,0.9,6.4,2.4c-3.9,2.6-6.4,6.9-6.4,11.9c0,3.4,1.2,6.5,3.2,9
				c-0.7-1.7-1.1-3.5-1.1-5.4c0-7.9,6.4-14.3,14.3-14.3c4.5,0,8.5,2.1,11.1,5.3C269.8,255.2,264.7,251.6,258.8,251.6z"/>
		</g>
		<path class="st20" d="M260.3,238c0-7.9,6.4-14.3,14.3-14.3c4.5,0,8.5,2.1,11.1,5.3c-2.1-5.2-7.2-8.9-13.2-8.9
			c-7.9,0-14.3,6.4-14.3,14.3c0,3.4,1.2,6.5,3.2,9C260.7,241.8,260.3,239.9,260.3,238z"/>
	</g>
</g>
<g>
	<rect x="373" y="76.5" width="5.6" height="8"/>
	<path class="st13" d="M386.7,50.7c-0.4-0.6-1.1-0.8-1.3-0.9l0,0c0,0,0,0-0.1,0h-0.1l0,0c-0.3,0.1-1,0.2-1.3,0.9
		c-0.4,0.8-7.2,22.7-7.2,22.7v120.8h8.5h0.1h8.5V73.3C393.9,73.3,387.1,51.4,386.7,50.7z"/>
	<path class="st14" d="M393.4,71.7c-1.6-5.1-6.4-20.4-6.7-21c-0.3-0.5-0.9-0.7-1.2-0.8v21.9L393.4,71.7L393.4,71.7z"/>
	<rect x="385.5" y="75.6" class="st14" width="8.4" height="12.8"/>
	<rect x="385.5" y="92.3" class="st14" width="8.4" height="16.2"/>
	<rect x="385.5" y="112.3" class="st14" width="8.4" height="35.9"/>
	<rect x="385.5" y="152.1" class="st14" width="8.4" height="42.1"/>
	<path class="st15" d="M389.9,60.6v11.1h3.5C392.7,69.4,391.3,64.9,389.9,60.6z"/>
	<rect x="389.9" y="75.6" class="st15" width="4" height="12.8"/>
	<rect x="389.9" y="92.3" class="st15" width="4" height="16.2"/>
	<rect x="389.9" y="112.3" class="st15" width="4" height="35.9"/>
	<rect x="389.9" y="152.1" class="st15" width="4" height="42.1"/>
	<rect x="376.7" y="73.3" width="17.2" height="0.7"/>
	<rect x="376.7" y="90" width="17.2" height="0.7"/>
	<rect x="376.7" y="109.9" width="17.2" height="0.7"/>
	<rect x="376.7" y="149.8" width="17.2" height="0.7"/>
	<rect x="327.8" y="76.5" width="5.6" height="8"/>
	<path class="st14" d="M319.7,50.7c0.4-0.6,1.1-0.8,1.3-0.9l0,0c0,0,0,0,0.1,0h0.1l0,0c0.3,0.1,1,0.2,1.3,0.9
		c0.4,0.8,7.2,22.7,7.2,22.7v120.8h-8.5h-0.1h-8.5V73.3C312.5,73.3,319.3,51.4,319.7,50.7z"/>
	<path class="st15" d="M329.3,71.7c-1.6-5.2-6.3-20.3-6.7-21c-0.3-0.5-0.9-0.7-1.2-0.8v21.8H329.3z"/>
	<rect x="321.4" y="75.6" class="st15" width="8.4" height="12.8"/>
	<rect x="321.4" y="152.1" class="st15" width="8.4" height="42.2"/>
	<rect x="321.4" y="112.3" class="st15" width="8.4" height="35.9"/>
	<rect x="321.4" y="92.3" class="st15" width="8.4" height="16.2"/>
	<rect x="312.5" y="73.3" width="17.2" height="0.7"/>
	<rect x="312.5" y="90" width="17.2" height="0.7"/>
	<rect x="312.5" y="109.9" width="17.2" height="0.7"/>
	<rect x="312.5" y="149.8" width="17.2" height="0.7"/>
	<rect x="332.3" y="96.4" width="41.8" height="0.7"/>
	<path class="st16" d="M353.5,0.2V0c0,0,0,0-0.1,0.1C353.3,0,353.3,0,353.3,0v0.2c-2.4,2.6-23.4,26.6-20.8,62.8v169.1h20.8h0.2h20.8
		V63C376.9,26.8,355.9,2.8,353.5,0.2z"/>
	<path class="st17" d="M364.5,16.4v215.7h9.8V63C375.7,43.4,370.2,27.4,364.5,16.4z"/>
	<path class="st18" d="M353.1,60.4v-60c-2.9,3.2-22.2,25.9-20.8,60.1L353.1,60.4L353.1,60.4z"/>
	<rect x="332.5" y="65.7" class="st18" width="20.6" height="166.4"/>
	<rect x="299.3" y="219.5" class="st19" width="37" height="45.2"/>
	
		<rect x="369.7" y="219.5" transform="matrix(1 -1.328112e-03 1.328112e-03 1 -0.3212 0.5158)" class="st20" width="37" height="45.2"/>
	<rect x="339.5" y="250" class="st16" width="28.1" height="14.8"/>
	<polygon class="st21" points="339.5,250 340.8,262.8 341.8,259.4 342.8,261.3 345.4,257.4 348.6,263.6 349.7,259.6 350.7,262 
		351.5,258.6 352.8,261.7 354.1,258.9 356.2,263.3 360.1,255.1 363,263.6 363.8,259.5 364.8,262.9 366.2,256 367.2,263 367.5,250 	
		"/>
	<polygon class="st22" points="339.5,250 340.5,254.9 341.2,251.4 342.8,254.2 343.8,251.7 344.8,255.6 346.1,251.5 347.7,258.3 
		348.4,251.6 349.5,253.4 350.4,251.3 351.1,256 352.1,250.9 353.5,257.1 355.6,251.2 357.2,255.6 357.7,251.3 358.8,252.6 
		360.3,250.6 361.9,255.3 362.8,250.6 364.4,259.2 365.2,251.1 365.7,252.2 366.1,251.1 366.8,252.5 367.5,250 	"/>
	<g>
		<path class="st17" d="M374.2,160.7V94.8l-18.3-18.3l-0.1,0.2c0.2,0.3,0.3,0.6,0.2,1.1c-0.9,11.6-0.3,23.5-0.4,35.2
			c0,6.2-0.1,12.3-0.1,18.5c0,3.6,0.2,7.2,0.1,10.8L374.2,160.7z"/>
		<path class="st23" d="M412.2,218.8c0,0-0.5-3.1-1.8-7.8c-1.2-4.7-4.7-7.4-4.7-7.4s-18.9-19.8-23.2-23.4
			c-4.3-3.6-6.5-11.7-6.5-11.7l-9.1-51.3h-13.5h-0.1h-13.5l-9.1,51.3c0,0-2.2,8.1-6.5,11.7c-4.3,3.6-23.2,23.4-23.2,23.4
			s-3.5,2.7-4.7,7.4c-1.2,4.7-1.8,7.8-1.8,7.8v3h1.2l-1.2,3v2.7l58.7,7.4l0,0l0,0l0,0l0,0l58.7-7.4v-2.7l-1.2-3h1.2v-3H412.2z"/>
		<polygon class="st20" points="333.7,230 333.7,242.9 338.4,242.9 339.5,250 352.1,250 352.1,229.4 		"/>
		<polygon class="st24" points="295.9,218.6 353.5,218.6 353.5,234.9 294.7,227.5 294.7,224.7 295.9,221.8 294.7,221.8 294.7,218.8 
					"/>
		<path class="st25" d="M339.5,134.1l-6.1,38c0,0-2.7,7-4.6,8.9c-1.9,1.9-29.1,29-29.1,29l-2.7,8.6h48.2l-1.8-91.6L339.5,134.1z"/>
		<polygon class="st26" points="373.3,230 373.3,242.9 368.6,242.9 367.5,250 354.9,250 354.9,229.4 		"/>
		<polygon class="st23" points="411.1,218.6 353.5,218.6 353.5,234.9 412.2,227.5 412.2,224.7 411,221.8 412.2,221.8 412.2,218.8 		
			"/>
		<path class="st15" d="M367.5,134.1l6.1,38c0,0,2.7,7,4.6,8.9c1.9,1.9,29.1,29,29.1,29l2.7,8.6h-48.2l1.8-91.6L367.5,134.1z"/>
		<path class="st23" d="M381.7,184.5c-1.9-1.9-3.2-3.2-3.5-3.5c-1.9-1.9-4.6-8.9-4.6-8.9l-6.1-38l-3.8-7.1l-1.8,91.6h19.9
			L381.7,184.5L381.7,184.5z"/>
		<path class="st15" d="M367.5,209.4c0,0,0.1-81.9,0-91.2s-2.8-19.7-2.8-19.7C359.7,75,354,75,353.6,75.1c-0.5,0-6.1,0-11.1,23.4
			c0,0-2.7,10.4-2.8,19.7s0,91.2,0,91.2c-5.6,0-5.8,11.8-5.8,11.8v13.7h16h3.8h0.1h3.8h16v-13.7
			C373.3,221.2,373.1,209.4,367.5,209.4z"/>
		<path class="st25" d="M362.4,89.5c-4-13.3-7.8-14.4-8.7-14.4v14.4H362.4z"/>
		<path class="st25" d="M367.5,209.4L367.5,209.4h-13.8v25.5h19.6v-13.7C373.3,221.2,373.1,209.4,367.5,209.4z"/>
		<path class="st25" d="M367.5,205.5c0-16.4,0.1-79.2,0-87.3c-0.1-9.3-2.8-19.7-2.8-19.7c-0.4-1.9-0.8-3.6-1.2-5.1h-9.8v112.1H367.5
			z"/>
		<path class="st15" d="M367.5,209.4L367.5,209.4h-3.9c0.6,0.5,1.1,1.1,1.6,1.7l0,0l0.1,0.1l0,0c0.8,0.8,1.3,1.6,1.7,2.6
			c0.5,1,0.8,2.2,0.8,3.6v17.4h5.4v-13.7C373.3,221.2,373.1,209.4,367.5,209.4z"/>
		<path class="st24" d="M367.5,118.2c-0.1-9.3-2.8-19.7-2.8-19.7c-0.4-1.9-0.8-3.6-1.2-5.1h-2.7v112.1h6.7
			C367.5,189.1,367.6,126.3,367.5,118.2z"/>
		<polygon class="st24" points="353.5,207.8 353.5,207.8 349.3,207.8 351.7,257.1 353.5,257.1 353.5,257.1 355.3,257.1 357.7,207.8 
					"/>
		<polygon class="st26" points="362.3,102.5 353.5,98.6 353.5,98.5 353.5,98.6 353.5,98.5 353.5,98.6 344.7,102.5 343.3,108.1 
			345.7,108.1 346.9,104.4 353.5,103.7 360.1,104.4 361.3,108.1 363.7,108.1 		"/>
		<polygon class="st26" points="362.8,91 356.7,91 356.7,87.1 353.5,87.1 353.5,87.1 350.3,87.1 350.3,91 344.2,91 343.9,92 
			353.5,92 353.5,92 363.1,92 		"/>
	</g>
	<rect x="332.5" y="63" width="41.8" height="0.7"/>
	<circle class="st22" cx="322.1" cy="255" r="10.5"/>
	<g>
		<path class="st22" d="M159.4,233.8c-7,0-13.5,2.7-18.3,7c-0.6-5.1-4.9-9-10.2-9c-5.7,0-10.3,4.6-10.3,10.3
			c0,5.7,4.6,10.3,10.3,10.3c0.9,0,1.8-0.1,2.7-0.4c-1,2.9-1.6,6-1.6,9.2c0,0.2,0,0.4,0,0.6c-0.6,0-1.1,0.1-1.6,0.2
			c-3-7-10-11.9-18.1-11.9c-9.2,0-16.9,6.4-19.1,14.9c-2.3-3.2-5.5-5.6-9.4-6.7c1.3-1.7,2-3.8,2-6.1c0-5.6-4.5-10.1-10.1-10.1
			s-10.1,4.5-10.1,10.1c0,3.2,1.5,6.1,3.9,7.9c-3.3,2-5.9,5-7.3,8.7c-2.2-2.5-5.4-4.2-9-4.5c0.9-2,1.4-4.3,1.4-6.6
			c0-9.1-7.4-16.5-16.5-16.5s-16.5,7.4-16.5,16.5c0,2.4,0.5,4.7,1.5,6.7c-0.7-0.1-1.4-0.2-2.2-0.2c-2.6,0-5.1,0.8-7.1,2.1
			c-0.4-3.4-3.3-6.1-6.9-6.1c-3.8,0-6.9,3.1-6.9,6.9s3.1,6.9,6.9,6.9c0.5,0,0.9,0,1.4-0.1c-0.3,1.1-0.5,2.2-0.5,3.4
			c0,7.2,5.9,13.1,13.1,13.1S34,284.5,34,277.3c0-1.3-0.2-2.6-0.6-3.9c1.5,0.4,3,0.7,4.7,0.7c0.3,0,0.7,0,1-0.1
			c-0.3,1.1-0.5,2.3-0.5,3.6c0,7.4,6,13.5,13.5,13.5c4.9,0,9.2-2.6,11.6-6.6c3.1,5,8.7,8.3,15,8.3c8,0,14.7-5.3,16.9-12.6
			c3.5,5.5,9.6,9.1,16.6,9.1c5.4,0,10.3-2.2,13.9-5.7c1.8,1.2,4,1.8,6.3,1.8c3.4,0,6.5-1.5,8.7-3.8c4.9,4.3,11.2,7,18.3,7
			c15.2,0,27.4-12.3,27.4-27.4C186.8,246.1,174.5,233.8,159.4,233.8z"/>
		<path class="st22" d="M469.7,248c-1.7,0-3.3,0.2-4.9,0.6c-0.8-1.3-1.7-2.5-2.7-3.7c2.3-2,3.7-4.9,3.7-8.1c0-6-4.9-10.9-10.9-10.8
			c-5.1,0-9.4,3.5-10.5,8.3c-2.3-0.5-4.6-0.8-7-0.8c-16,0-29.3,11.7-31.8,27c-2.8-1.3-5.9-2.1-9.2-2.1c-7.4,0-13.8,3.7-17.7,9.3
			c-4.8-11.5-16.2-19.5-29.4-19.5c-7.6,0-14.5,2.7-20,7.1c-3.4-14-16-24.4-31-24.4c-2.9,0-5.7,0.4-8.3,1.1c0-0.4,0.1-0.7,0.1-1.1
			c0-9.7-7.9-17.5-17.5-17.5c-9.7,0-17.5,7.8-17.5,17.5c0,8.8,6.5,16,14.9,17.2c-0.5,1.1-1,2.2-1.5,3.3c-2.8-1.9-6.1-3-9.7-3
			c-3.2,0-6.3,0.9-8.9,2.5c-4.1-11.7-15.2-20-28.2-20c-9.6,0-18.2,4.6-23.6,11.7c-1.9-0.9-4-1.4-6.2-1.4c-6.5,0-12.1,4.2-14.1,10.1
			c-1.6-0.9-3.4-1.4-5.4-1.4c-6,0-10.9,4.9-10.9,10.9s4.9,10.9,10.9,10.9c3.8,0,7.2-2,9.1-5c2.7,2.6,6.3,4.2,10.3,4.2
			c0.6,0,1.2,0,1.7-0.1c4.1,11.5,15.2,19.8,28.1,19.8c10.1,0,19-5,24.4-12.7c3.2,3.4,7.7,5.5,12.7,5.5c4.6,0,8.8-1.8,11.9-4.8
			c5.5,9.5,15.8,15.9,27.6,15.9c7.6,0,14.5-2.7,20-7.1c2,8.2,7.2,15.2,14.1,19.6h33.8c5.5-3.5,10-8.6,12.5-14.7
			c3.9,5.6,10.4,9.3,17.8,9.3c8.4,0,15.7-4.9,19.3-11.9c5.8,5.2,13.4,8.4,21.8,8.4c9.9,0,18.7-4.5,24.6-11.5c2.4,1,5,1.5,7.7,1.5
			c11.1,0,20.1-9,20-20.1C489.8,257,480.8,248,469.7,248z"/>
		<path class="st20" d="M468.8,250.6c-3,0-5.9,0.7-8.4,2c-4.3-8.8-13.4-14.8-23.9-14.8c-14.7,0-26.5,11.9-26.5,26.6
			c0,6.3,2.2,12.1,5.9,16.7c-1.3-3.1-2-6.5-2-10.1c0-14.7,11.9-26.6,26.5-26.6c7.7,0,14.6,3.3,19.5,8.5c-6.2,3.2-10.5,9.7-10.5,17.2
			c0,4.6,1.6,8.8,4.3,12.2c-0.9-2.3-1.5-4.8-1.5-7.4c0-10.7,8.7-19.4,19.4-19.4c6.1,0,11.5,2.8,15.1,7.2
			C483.8,255.5,476.9,250.6,468.8,250.6z"/>
		<g>
			<path class="st20" d="M298.5,234.3c-14.7,0-26.6,11.9-26.6,26.6c0,6.3,2.2,12.1,5.9,16.7c-1.3-3.1-2-6.5-2-10.1
				c0-14.7,11.9-26.6,26.6-26.6c8.4,0,15.8,3.9,20.7,9.9C319.1,241.1,309.6,234.3,298.5,234.3z"/>
			<path class="st20" d="M258.8,251.6c-2.7,0-5.2,0.8-7.4,2.1c-1.3-2-3.4-3.6-5.8-4.2c-4.3-9-13.4-15.2-24-15.2
				c-9.4,0-17.7,4.9-22.4,12.3c-2-1.7-4.6-2.7-7.4-2.7c-4,0-7.5,2-9.6,5.1c-4.8-7-12.8-11.6-21.9-11.6c-14.7,0-26.6,11.9-26.6,26.6
				c0,6.3,2.2,12.1,5.9,16.7c-1.3-3.1-2-6.5-2-10.1c0-14.7,11.9-26.6,26.6-26.6c6.6,0,12.6,2.4,17.3,6.4c-0.8,1.5-1.2,3.3-1.2,5.1
				c0,2.7,1,5.3,2.6,7.2c-0.6-1.4-0.9-2.8-0.9-4.4c0-2.2,0.6-4.2,1.6-5.9c0.4,0.5,0.9,0.9,1.3,1.4c-0.3-0.7-0.6-1.3-0.9-2
				c2.1-3.1,5.6-5.1,9.6-5.1c1.7,0,3.4,0.4,4.9,1.1c-2.1,3.8-3.4,8.2-3.4,12.9c0,6.3,2.2,12.1,5.9,16.7c-1.3-3.1-2-6.5-2-10.1
				c0-14.7,11.9-26.6,26.6-26.6c7.7,0,14.6,3.3,19.4,8.5c-0.6-0.1-1.2-0.2-1.9-0.2c-5.5,0-9.9,4.4-9.9,9.9c0,2.4,0.8,4.5,2.2,6.2
				c-0.5-1.2-0.7-2.4-0.7-3.8c0-5.5,4.4-9.9,9.9-9.9c2.5,0,4.7,0.9,6.4,2.4c-3.9,2.6-6.4,6.9-6.4,11.9c0,3.4,1.2,6.5,3.2,9
				c-0.7-1.7-1.1-3.5-1.1-5.4c0-7.9,6.4-14.3,14.3-14.3c4.5,0,8.5,2.1,11.1,5.3C269.8,255.2,264.7,251.6,258.8,251.6z"/>
		</g>
		<path class="st20" d="M260.3,238c0-7.9,6.4-14.3,14.3-14.3c4.5,0,8.5,2.1,11.1,5.3c-2.1-5.2-7.2-8.9-13.2-8.9
			c-7.9,0-14.3,6.4-14.3,14.3c0,3.4,1.2,6.5,3.2,9C260.7,241.8,260.3,239.9,260.3,238z"/>
	</g>
</g>
</svg>
