<?xml version="1.0" encoding="utf-8"?>
<!-- Generator: Adobe Illustrator 22.0.0, SVG Export Plug-In . SVG Version: 6.00 Build 0)  -->
<svg version="1.1" id="Layer_1" xmlns="http://www.w3.org/2000/svg" xmlns:xlink="http://www.w3.org/1999/xlink" x="0px" y="0px"
	 viewBox="0 0 72.6 174" style="enable-background:new 0 0 72.6 174;" xml:space="preserve">
<style type="text/css">
	.st0{fill:#2D24A3;}
	.st1{fill:#B77053;}
	.st2{fill:#ECE0D3;}
	.st3{fill:#E48868;}
	.st4{fill:#464473;}
	.st5{fill:#734E4F;}
	.st6{fill:#393762;}
	.st7{fill:#BA745D;}
	.st8{fill:#563616;}
	.st9{fill:#202070;}
	.st10{fill:#CFB199;}
	.st11{fill:#4E587F;}
	.st12{opacity:0.73;fill:#FFFFFF;enable-background:new    ;}
	.st13{fill:#EFC33B;}
	.st14{fill:#F86332;}
</style>
<g>
	<g>
		<g>
			<g>
				<path class="st0" d="M4386.6-5121.8v60.8h3.8c0,0,6.6-27.7,6.9-30.4s-1-11.2-1-11.2l5.7-22L4386.6-5121.8z"/>
			</g>
		</g>
		<g>
			<g>
				<path class="st0" d="M4384.6-5121.8v60.8h-3.8c0,0-6.6-27.7-6.9-30.4s1-11.2,1-11.2l-5.7-22L4384.6-5121.8z"/>
			</g>
		</g>
		<g>
			<g>
				<polygon class="st1" points="4386.2,-5077.8 4386.6,-5057.9 4386.6,-5053.6 4392.1,-5053.6 4390.1,-5057.3 4395.1,-5077.8 				
					"/>
			</g>
		</g>
	</g>
	<g>
		<g>
			<path class="st2" d="M4396.3-5191.7c1.9,4.5,8.4,5.3,10.6,9.6c1.4,2.9,0.3,6.6-1.9,8.9c-2.3,2.3-5.4,3.6-8.6,4.4
				c-7,1.9-14.5,2.4-21.5,0.2c-2.5-0.8-4.9-1.9-6.8-3.6s-3.4-4.1-3.5-6.7s1.1-5.3,3.3-6.6c1.4-0.8,3.1-1,4.2-2.1
				c1.7-1.6,1.7-4.2,1.6-6.6c-0.1-4.3,0.1-8.7,0.7-13c0.4-3.3,1.2-6.8,3.4-9.3c2.5-2.7,6.5-3.7,10.1-2.9s6.5,3.6,8.1,6.9
				s1.9,7.1,1.2,10.7C4396.5-5198.3,4395-5194.8,4396.3-5191.7z"/>
		</g>
	</g>
	<g>
		<g>
			<path class="st3" d="M4364.2-5137.4c0,0-2.3,4.2-2.5,5.6s-0.2,2.1,0.9,1.8s-0.1,1.9,1.5,1.7c1.6-0.2,4.3-4.5,4.3-4.5l-2.7-3.7
				L4364.2-5137.4z"/>
		</g>
	</g>
	<g>
		<g>
			<path class="st4" d="M4406.4-5120.4c0,0-1.9-27.7-11.7-42l2.5-13.6c0,0,4.2-3.6,3.3-9.1v-7.5c0,0-11.6-5.5-14.4-5.5
				s-15.3,6.1-15.3,6.1s0,5.2,0,7c0,1.9,0.2,6.1,3,8.7l3.1,13.7c0,0-11.2,12-12.7,43.1C4364.2-5119.3,4389.3-5116.5,4406.4-5120.4z"
				/>
		</g>
	</g>
	<g>
		<g>
			<path class="st4" d="M4370.7-5192c-2.2,1.4-3.3,3.1-3.6,4.4s-3.1,28.4-3,32c0.2,3.6-2.8,2.8-1.6,8s-3,4.8-1.1,8.3l0.5,2.8l4,0.9
				l4.1-12l3.6-28.6L4370.7-5192z"/>
		</g>
	</g>
	<g>
		<g>
			<path class="st1" d="M4413.2-5128.1c3.5-0.6-2.3-10.1-6.2-12.6c-3.9-2.5-11.6-4.6-13.6-4.1S4399.6-5125.5,4413.2-5128.1z"/>
		</g>
	</g>
	<g>
		<g>
			<path class="st1" d="M4393.4-5144.8c-1.7,0-2.3,1.6-2.3,3.4c0,1.9,4.1,21.3,7.2,23s13.6,1.4,14.2-1.9s-1.1-10.8-1.1-10.8
				L4393.4-5144.8z"/>
		</g>
	</g>
	<g>
		<g>
			<polygon class="st1" points="4393.4,-5144.8 4375.9,-5194.4 4373,-5193 4391.1,-5141.3 			"/>
		</g>
	</g>
	<g>
		<g>
			<path class="st3" d="M4394.6-5162.4l-3.1,1.8c0,0-3.3-1.4-4.2-1.2l0.7,1.9c0,0-5.5,1.5-5.5,1.8s0,1.7,0,1.7l2-0.4
				c0,0-0.2,1,0,1.2s0.7,0.4,0.7,0.4s0.2,0.8,0.6,1.6s0.4,1.4,1.1,1.9s4.9-1.4,5.4-1.8c0.6-0.3,4.5-4.6,4.5-4.6L4394.6-5162.4z"/>
		</g>
	</g>
	<g>
		<g>
			<path class="st5" d="M4409.1-5127.5c0.6,0,1.2-0.1,1.8-0.2c0.2,0,0.3-0.2,0.2-0.3c0-0.2-0.2-0.3-0.3-0.2
				c-3.5,0.6-7.5-0.8-10.6-3.9c-2.8-2.8-4.6-6.4-6.3-10.1c-0.1-0.1-0.2-0.2-0.4-0.1c-0.1,0.1-0.2,0.2-0.1,0.4
				c1.7,3.8,3.5,7.4,6.4,10.3C4402.5-5129,4405.9-5127.5,4409.1-5127.5z"/>
		</g>
	</g>
	<g>
		<g>
			<path class="st5" d="M4408-5130.3c1.3,0,2.6-0.1,3.9-0.4c0.2,0,0.3-0.2,0.2-0.3c0-0.2-0.2-0.3-0.3-0.2c-1.7,0.3-3.3,0.4-5,0.3
				c-0.2,0-0.3,0.1-0.3,0.3c0,0.2,0.1,0.3,0.3,0.3C4407.2-5130.3,4407.6-5130.3,4408-5130.3z"/>
		</g>
	</g>
	<g>
		<g>
			<path class="st5" d="M4401.8-5119c0.1,0,0.1,0,0.2-0.1s0.1-0.3,0-0.4c-5.4-6.5-8.7-14.6-9.3-23.1c0-0.2-0.2-0.3-0.3-0.3
				c-0.2,0-0.3,0.2-0.3,0.3c0.6,8.5,3.9,16.8,9.4,23.4C4401.6-5119,4401.7-5119,4401.8-5119z"/>
		</g>
	</g>
	<g>
		<g>
			<path class="st5" d="M4385.5-5160.5h0.1c0.2-0.1,0.2-0.2,0.2-0.4l-4-10.9c-0.1-0.2-0.2-0.2-0.4-0.2c-0.2,0.1-0.2,0.2-0.2,0.4
				l4,10.9C4385.2-5160.6,4385.3-5160.5,4385.5-5160.5z"/>
		</g>
	</g>
	<g>
		<g>
			<path class="st4" d="M4400.4-5192.6c3,1.4,8,28,7.3,29.2c-0.6,1.2-8,8.9-10.5,9.7l-2.7-8.7l4.7-4.1l-2.2-9.5L4400.4-5192.6z"/>
		</g>
	</g>
	<g>
		<g>
			<path class="st6" d="M4382.8-5184.2C4382.8-5184.2,4382.9-5184.2,4382.8-5184.2c3.1-0.7,5.9-2.5,7.9-4.9c0.1-0.1,0.1-0.3-0.1-0.4
				c-0.1-0.1-0.3-0.1-0.4,0.1c-1.8,2.4-4.5,4.1-7.4,4.7c-0.2,0-0.3,0.2-0.2,0.4C4382.6-5184.3,4382.7-5184.2,4382.8-5184.2z"/>
		</g>
	</g>
	<g>
		<g>
			<path class="st6" d="M4373.8-5176.2c0.1,0,0.1,0,0.2,0c0.1-0.1,0.2-0.3,0.1-0.4c-1.9-3.1-2.2-7-0.8-10.4l0.1-0.1l-0.1-0.1
				c-0.2-0.4-0.4-0.9-0.6-1.4s-0.4-1-0.7-1.4c-0.1-0.1-0.3-0.2-0.4-0.1s-0.2,0.3-0.1,0.4c0.2,0.4,0.4,0.9,0.7,1.4
				c0.2,0.4,0.4,0.9,0.6,1.3C4371.4-5183.5,4371.7-5179.4,4373.8-5176.2C4373.6-5176.3,4373.7-5176.2,4373.8-5176.2z"/>
		</g>
	</g>
	<g>
		<g>
			<path class="st6" d="M4397.4-5176.2c0.1,0,0.2,0,0.2-0.1c2-3.2,2.3-7.3,0.9-10.8c0.2-0.4,0.4-0.8,0.6-1.3s0.4-0.9,0.6-1.4
				c0.1-0.1,0-0.3-0.1-0.4s-0.3,0-0.4,0.1c-0.2,0.4-0.4,0.9-0.7,1.4c-0.2,0.5-0.4,0.9-0.6,1.4l-0.1,0.1l0.1,0.1
				c1.4,3.3,1.1,7.3-0.8,10.4c-0.1,0.1,0,0.3,0.1,0.4C4397.3-5176.2,4397.4-5176.2,4397.4-5176.2z"/>
		</g>
	</g>
	<g>
		<g>
			<path class="st6" d="M4366.6-5136.8c0.1,0,0.3-0.1,0.3-0.2c0.8-4.4,2.1-8.7,3.6-12.9c0.1-0.2,0-0.3-0.2-0.4
				c-0.1-0.1-0.3,0-0.4,0.2c-1.6,4.2-2.8,8.6-3.6,13C4366.3-5137,4366.4-5136.8,4366.6-5136.8L4366.6-5136.8z"/>
		</g>
	</g>
	<g>
		<g>
			<path class="st6" d="M4397.8-5154.2h0.1c0.1-0.1,0.2-0.2,0.2-0.4l-0.9-2.2c-0.1-0.2-0.2-0.2-0.4-0.2c-0.1,0.1-0.2,0.2-0.2,0.4
				l1,2.2C4397.6-5154.2,4397.7-5154.2,4397.8-5154.2z"/>
		</g>
	</g>
	<g>
		<g>
			<polygon class="st1" points="4385.1,-5077.8 4384.6,-5057.9 4384.6,-5053.6 4379.2,-5053.6 4381.1,-5057.3 4376.2,-5077.8 			"/>
		</g>
	</g>
	<g>
		<g>
			<path class="st3" d="M4388.6-5202.1v6.9c0,0-3.5,5.9-6.7,0.1l0.3-7H4388.6z"/>
		</g>
	</g>
	<g>
		<g>
			<path class="st3" d="M4387.2-5218.4c5.9,0.8,6.9,7.6,5.5,13c-1.1,4-3.5,8.1-7.3,8s-6.1-5.3-6.8-8.5
				C4377.5-5211,4377.7-5219.7,4387.2-5218.4z"/>
		</g>
	</g>
	<g>
		<g>
			<path class="st3" d="M4391.9-5206.9c0,0,0.2-2.3,2.1-1.5c1.8,0.8-0.4,5.9-2.4,5.3S4391.9-5206.9,4391.9-5206.9z"/>
		</g>
	</g>
	<g>
		<g>
			<path class="st3" d="M4379.7-5207c0,0-0.1-2.3-1.9-1.7c-1.9,0.6,0,5.9,2.1,5.4C4381.9-5203.6,4379.7-5207,4379.7-5207z"/>
		</g>
	</g>
	<g>
		<g>
			<path class="st7" d="M4385.3-5197.1c0.9,0,1.8-0.2,2.6-0.7c0.1-0.1,0.2-0.3,0.1-0.4s-0.3-0.2-0.4-0.1c-1.4,0.9-3.4,0.8-4.8-0.2
				c-0.1-0.1-0.3-0.1-0.4,0.1c-0.1,0.1-0.1,0.3,0.1,0.4C4383.3-5197.3,4384.3-5197.1,4385.3-5197.1z"/>
		</g>
	</g>
	<g>
		<g>
			<path class="st8" d="M4382.4-5214.7c-0.1,3.6,0.6,7.3,2.5,10.4s5.1,5.4,8.7,5.8c1.3-3.1,2.2-6.5,1.9-9.9
				c-0.4-3.3-1.9-6.6-4.6-8.6s-6.6-2.5-9.5-0.9c-2.5,1.4-4,4-4.6,6.8c-0.7,2.7-0.6,4.3-0.5,7.1
				C4380.3-5206.3,4382.9-5210,4382.4-5214.7z"/>
		</g>
	</g>
</g>
<g>
	<g>
		<g>
			<g>
				<g>
					<g>
						<path class="st3" d="M4517.8-5182.2l-2.5-9.5c0,0-3.6,1-5.2-0.6c-0.7-0.6-1.3-3.4-1.5-7.8c0-0.5-1.8,0.5-1.8,0
							c0-0.9,3.1-5.2,2.9-7c-1-6.4-0.5-8.1,1.4-9.9c4.1-4,18.5-4.6,20.4,2.4c2,7,1.3,10.4-2.2,20.3l2.2,9.9L4517.8-5182.2z"/>
					</g>
				</g>
			</g>
			<g>
				<g>
					<path class="st2" d="M4514.9-5177.6l-3.2-8c0,0,9.7-6.7,19.1-7.3l2,4.1L4514.9-5177.6z"/>
				</g>
			</g>
			<g>
				<g>
					<path class="st6" d="M4482.4-5000.1l-3.7,11.1c0,0-11.3,0.7-11.6,1.5l16.3,4.5l4.3-15.6L4482.4-5000.1z"/>
				</g>
			</g>
			<g>
				<g>
					<polygon class="st6" points="4568.3,-4982.1 4577.6,-4982.1 4584.4,-4987.4 4576,-5001.1 4571.4,-4998.3 4576.9,-4988.1 
						4575.2,-4984 					"/>
				</g>
			</g>
			<g>
				<g>
					<polygon class="st0" points="4506.2,-5102.2 4478,-4992.3 4487.4,-4989.9 4510.1,-5048.3 4526,-5079.1 4543.8,-5033.3 
						4573.6,-4990.4 4580.5,-4995.4 4556.3,-5051.3 4548.5,-5102.2 					"/>
				</g>
			</g>
			<g>
				<g>
					<path class="st9" d="M4531.7-5192.4c0,0-8.7,2.7-13,7.7c-4.4,5-11.4,19.5-11.5,21.1c-0.2,1.6,2.2,19.5,2.2,19.5l-7.8,47.3
						c0,0,33.4,5.2,50.1,0l-8.7-39.1c0,0,1.2-13.8,2.7-15.4s-1.1-15.3-2.2-21.6s-6.1-13.6-7.8-15.1S4531.7-5192.4,4531.7-5192.4z"/>
				</g>
			</g>
			<g>
				<g>
					<path class="st10" d="M4509.3-5161.8c0.2,0,0.3-0.1,0.4-0.3c1-2.5,3.6-5.9,6.1-7.6l0.2-0.1v-0.5c0.1-1.8,0.1-3.8-0.1-5.6
						c1.3-0.6,2.6-1.1,3.9-1.4l0.3-0.1v-0.3c0.3-1.8,1.6-3.4,2.9-5c0.7-0.8,1.4-1.7,1.9-2.6c0.1-0.2,0.1-0.5-0.1-0.6
						s-0.5-0.1-0.6,0.1c-0.5,0.8-1.2,1.6-1.9,2.5c-1.3,1.6-2.6,3.2-3,5.2c-1.4,0.4-2.7,0.9-4,1.5l-0.3,0.1v0.3
						c0.2,1.8,0.2,3.9,0.1,5.7v0.1c-2.6,1.9-5.2,5.2-6.2,7.9c-0.1,0.2,0,0.5,0.2,0.5C4509.2-5161.8,4509.2-5161.8,4509.3-5161.8z"/>
				</g>
			</g>
			<g>
				<g>
					<path class="st6" d="M4508.9-5223.8c0.6-0.2,1.3-0.4,2.2-0.5c3.5-0.6,5.9,1.5,9.1,1.7c2.3,0.2,4.5-0.9,6.9-0.9
						c1.8,0,3.7,0.5,5,1.8s1.8,3.7,0.9,5.4c4.6,1.9,1.4,9.9,0,13.5c-1.4,3.5-3.8,8.6-3.8,8.6l-4.7-4.6c0,0,3.6-4.2,2-6
						c-1.6-1.9-3.2,1-3.2,1s-0.1,1.2-0.2,2.7c-0.8-0.6-1.6-1.1-2.5-1.5h-0.1l-0.2-6.1c0,0-4.9,1.6-5.8-2.5
						C4507.7-5212.4,4501.1-5221,4508.9-5223.8z"/>
				</g>
			</g>
		</g>
		<g>
			<path class="st10" d="M4531-5094c5.9,0,11.5-0.3,16.6-1c0.2,0,0.4-0.2,0.4-0.5c0-0.2-0.2-0.4-0.5-0.4c-11.5,1.5-25.3,1.3-41-0.6
				c-0.2,0-0.4,0.1-0.5,0.4c0,0.2,0.1,0.4,0.4,0.5C4515.2-5094.6,4523.4-5094,4531-5094z"/>
		</g>
	</g>
	<g>
		<g>
			<g>
				<path class="st3" d="M4471.5-5158.5c-0.5-1.2-0.2-5.1,0.3-4.7s0.9,2.5,0.9,2.5l0.2,1c0,0,0.8-0.3,0.8,0s0.3,1.6,0.3,1.6l0.1,2.5
					L4471.5-5158.5z"/>
			</g>
		</g>
		<g>
			<g>
				<polygon class="st11" points="4477.6,-5153.6 4474.6,-5164.4 4472.2,-5173 4469.1,-5171.9 4474.9,-5153.3 				"/>
			</g>
		</g>
		<g>
			<g>
				<path class="st3" d="M4508.4-5147.2l-2.5,9.8c0,0-25.1-9.8-26.4-10.3c0,0-3.8-3-4.6-3.6s-3.2-6.6-3.4-7.2s4.5-0.9,4.5-0.9
					s0.1-2.9,0.4-3.8c0.1-0.5,1.2-2.8,1.7-1.2l1,4.4l1.5,1.5c0.8,1.1,1.6,5.5,1.6,5.5L4508.4-5147.2z"/>
			</g>
		</g>
		<g>
			<g>
				<path class="st9" d="M4510.3-5147.5c0,0-2.6-7.4-7.6-4.4c-4.9,3-5.5-0.7-5.5-0.7l-13.3-3.7l-4.3,8.6l28.7,12.3L4510.3-5147.5z"
					/>
			</g>
		</g>
	</g>
	<g>
		<path class="st10" d="M4516-5148.6l0.1-0.4c2.9-10.4,9-20,14.5-28c2.5-3.5,4.9-5.1,7.2-4.7c0.2,0.1,0.4-0.1,0.5-0.3
			c0-0.2-0.1-0.4-0.3-0.5c-2.6-0.5-5.4,1.2-8,5c-5.5,8-11.6,17.5-14.5,27.9l-4.9-1.4c-0.2-0.1-0.5,0.1-0.5,0.3
			c-0.1,0.2,0.1,0.5,0.3,0.5L4516-5148.6z"/>
	</g>
	<g>
		<path class="st10" d="M4520.3-5132.6c0.5,0,1,0,1.5-0.1c2.5-0.4,4.3-2,5.5-3.3c1.5-1.6,2.5-3.4,3.6-5.2c0.1-0.2,0.1-0.5-0.1-0.6
			s-0.5-0.1-0.6,0.1c-1,1.7-2.1,3.5-3.5,5.1c-1.1,1.1-2.8,2.6-5,3c-2.7,0.5-5.6-0.7-7.9-1.7c-0.2-0.1-0.5,0-0.5,0.2
			c-0.1,0.2,0,0.5,0.2,0.5C4515.4-5133.6,4517.8-5132.6,4520.3-5132.6z"/>
	</g>
</g>
<path class="st12" d="M3853.3-5357.9c0,2.4,0,4.8,0,8.5c-1.8-1.5-4.4-2.9-4.2-3.6c0.6-2,2.2-3.7,3.4-5.6
	C3852.7-5358.4,3853-5358.2,3853.3-5357.9z"/>
<g>
	<g>
		<g>
			<g>
				<g>
					<g>
						<path class="st3" d="M45.5,29.1l3-6.8c0,0,2.6,0.7,3.7-0.4c0.4-0.4,0.8-2.6,1.1-5.3c0-0.3,0-0.7,0.1-1c0-0.3,1.4,0.6,1.4,0.2
							c0-0.7-1.4-2.8-1.4-3.5c-0.1-3.4-0.6-6.7-1.8-8C48.7,1.4,38.4,1,37,6s-0.1,10.6,4,14.5l-2.8,7.1L45.5,29.1z"/>
					</g>
				</g>
			</g>
			<g>
				<g>
					<path class="st13" d="M53,3.2c2.4,2.3,3.6,4.5,2.9,7.7c-2.1,0.1-4.2,0.2-6.2,0.4c-1.9,3.2-2.9,6.9-3.4,10.6
						c-0.6-3.4-0.5-7,0.3-10.3c-1.1-0.8-2.9-0.4-3.5,0.9s0.3,2.9,1.7,3.1c-1.2,1.8-3,5.4-4.2,7.2c-0.3,0.4,0.5-0.1,0,0
						S39.5,22,39,21.6c-7.7-5.8-5.9-19.8,4.6-21.4C46.1-0.2,49.1-0.1,53,3.2"/>
				</g>
			</g>
			<g>
				<g>
					<path class="st11" d="M61.2,167.3l-0.4,3.3c0,0,7.6,2.8,7.6,3.4H56l1.2-6.7L61.2,167.3L61.2,167.3z"/>
				</g>
			</g>
			<g>
				<g>
					<path class="st11" d="M7.9,154.9L5.2,157c0,0,2.1,8,1.6,8.5L0,155.6l5.7-3.9L7.9,154.9z"/>
				</g>
			</g>
			<g>
				<g>
					<path class="st9" d="M45.1,115.6c0,0-4,16.8-4.5,17.4c-0.5,0.6-32.9,23-32.9,23l-3.4-3.7l24.9-27.9L29.5,91L45.1,115.6z"/>
				</g>
			</g>
			<g>
				<g>
					<path class="st0" d="M56.2,72.9l-2,10.2c0,0,4.1,29.5,4.2,31.9c0.2,2.4,3.7,52.9,3.7,52.9h-5.9l-12.1-48
						c0,0-20.3-27.4-18.1-36.9c2.2-9.6,8.9-14.1,8.9-14.1L56.2,72.9z"/>
				</g>
			</g>
			<g>
				<g>
					<path class="st2" d="M26.1,76.4l30.6,2.8l-4.1-13.5c0,0,3.5-11.3,4.3-14.7c1.3-5.7,1.3-5.7-2.4-12.6c-3.8-6.9-3.4-6.5-3.4-6.5
						l1.2-3.4L39,21.8l-1.2,4.7c0,0-5.3,7.2-6.7,9.8c-1.4,2.6-1.9,28.3-1.7,30.5L26.1,76.4z"/>
				</g>
			</g>
			<g>
				<g>
					<path class="st3" d="M32.1,51.8c0.8,7.5,1.8,14.6,2.1,15.3c0.7,1.2,9.8,2.4,15.4,3.1c10.1,1.4,15.8,3.2,17,3.1
						c2.6-0.3,4.1-0.6,3.3-2.5s2.3-2.1,1.3-3.6c-0.9-1.5,2.5-2.2,0.9-3.3c-1.6-1.1-5.1,0.8-5.1,0.8s-2.7-2.5-5.4,1.8
						c-0.6,1-3.7,0-4.6-0.2c-4.8-1.2-9.3-3.3-13.8-5.2l0.1-8.7C43.4,52.3,31.5,47.1,32.1,51.8z"/>
				</g>
			</g>
			<g>
				<g>
					<path class="st2" d="M37.5,32c-3.9-0.2-7.1,3.1-6.8,7c0.3,3.4,0.8,8.2,1.3,12.8c3.8,0.1,7.6,0.3,11.3,0.5l0.2-13.8
						C43.7,35.1,41,32.1,37.5,32z"/>
				</g>
			</g>
			<g>
				<g>
					<polygon class="st13" points="58.6,71.5 61.6,78 60.1,77.8 57.6,71.5 					"/>
				</g>
			</g>
			<g>
				<g>
					<polygon class="st14" points="72.6,78.3 37.2,72.6 28.5,117.6 68.3,124.8 					"/>
				</g>
			</g>
			<g>
				<g>
					<path class="st13" d="M57.1,66.2c-2.5-0.7-8.9,8.1-8.9,8.1l-1.4-0.2c0,0,6.3-8,9-8.7C56.7,65.1,57.1,66.2,57.1,66.2z"/>
				</g>
			</g>
			<g>
				<g>
					<path class="st13" d="M22.3,14.2c0,1.6,0.4,3.2,0.7,4.8c0.3,1.6,0.4,3.3-0.3,4.8c-0.6,1.5-2.2,2.7-3.8,2.5
						c1.9,3.4,6.8,4.3,10.2,2.5c3.5-1.8,5.5-5.6,6.1-9.4c0.3-1.9,0.2-3.8,0.6-5.6c0.4-1.9,1.2-3.7,2.8-4.8c-2.2-3.1-6.4-4.6-10-3.4
						C24.9,6.7,22.2,10.4,22.3,14.2z"/>
				</g>
			</g>
		</g>
		<g>
			<path class="st10" d="M42.4,50.2c0.1,0,0.3-0.1,0.3-0.3c0.5-2.9,1.1-6.1,0.6-9.3c-0.6-3.5-2.8-6.3-5.5-7.2
				c-0.2-0.1-0.3,0-0.4,0.2s0,0.3,0.2,0.4c2.5,0.8,4.6,3.5,5.1,6.7c0.5,3,0,6.1-0.6,9C42.1,50,42.2,50.2,42.4,50.2L42.4,50.2z"/>
		</g>
	</g>
	<g>
		<g>
			<g>
				<g>
					<g>
						<path class="st3" d="M45.5,29.1l3-6.8c0,0,2.6,0.7,3.7-0.4c0.4-0.4,0.8-2.6,1.1-5.3c0-0.3,0-0.7,0.1-1c0-0.3,1.4,0.6,1.4,0.2
							c0-0.7-1.4-2.8-1.4-3.5c-0.1-3.4-0.6-6.7-1.8-8C48.7,1.4,38.4,1,37,6s-0.1,10.6,4,14.5l-2.8,7.1L45.5,29.1z"/>
					</g>
				</g>
			</g>
			<g>
				<g>
					<path class="st13" d="M53,3.2c2.4,2.3,3.6,4.5,2.9,7.7c-2.1,0.1-4.2,0.2-6.2,0.4c-1.9,3.2-2.9,6.9-3.4,10.6
						c-0.6-3.4-0.5-7,0.3-10.3c-1.1-0.8-2.9-0.4-3.5,0.9s0.3,2.9,1.7,3.1c-1.2,1.8-3,5.4-4.2,7.2c-0.3,0.4,0.5-0.1,0,0
						S39.5,22,39,21.6c-7.7-5.8-5.9-19.8,4.6-21.4C46.1-0.2,49.1-0.1,53,3.2"/>
				</g>
			</g>
			<g>
				<g>
					<path class="st11" d="M61.2,167.3l-0.4,3.3c0,0,7.6,2.8,7.6,3.4H56l1.2-6.7L61.2,167.3L61.2,167.3z"/>
				</g>
			</g>
			<g>
				<g>
					<path class="st11" d="M7.9,154.9L5.2,157c0,0,2.1,8,1.6,8.5L0,155.6l5.7-3.9L7.9,154.9z"/>
				</g>
			</g>
			<g>
				<g>
					<path class="st9" d="M45.1,115.6c0,0-4,16.8-4.5,17.4c-0.5,0.6-32.9,23-32.9,23l-3.4-3.7l24.9-27.9L29.5,91L45.1,115.6z"/>
				</g>
			</g>
			<g>
				<g>
					<path class="st0" d="M56.2,72.9l-2,10.2c0,0,4.1,29.5,4.2,31.9c0.2,2.4,3.7,52.9,3.7,52.9h-5.9l-12.1-48
						c0,0-20.3-27.4-18.1-36.9c2.2-9.6,8.9-14.1,8.9-14.1L56.2,72.9z"/>
				</g>
			</g>
			<g>
				<g>
					<path class="st2" d="M26.1,76.4l30.6,2.8l-4.1-13.5c0,0,3.5-11.3,4.3-14.7c1.3-5.7,1.3-5.7-2.4-12.6c-3.8-6.9-3.4-6.5-3.4-6.5
						l1.2-3.4L39,21.8l-1.2,4.7c0,0-5.3,7.2-6.7,9.8c-1.4,2.6-1.9,28.3-1.7,30.5L26.1,76.4z"/>
				</g>
			</g>
			<g>
				<g>
					<path class="st3" d="M32.1,51.8c0.8,7.5,1.8,14.6,2.1,15.3c0.7,1.2,9.8,2.4,15.4,3.1c10.1,1.4,15.8,3.2,17,3.1
						c2.6-0.3,4.1-0.6,3.3-2.5s2.3-2.1,1.3-3.6c-0.9-1.5,2.5-2.2,0.9-3.3c-1.6-1.1-5.1,0.8-5.1,0.8s-2.7-2.5-5.4,1.8
						c-0.6,1-3.7,0-4.6-0.2c-4.8-1.2-9.3-3.3-13.8-5.2l0.1-8.7C43.4,52.3,31.5,47.1,32.1,51.8z"/>
				</g>
			</g>
			<g>
				<g>
					<path class="st2" d="M37.5,32c-3.9-0.2-7.1,3.1-6.8,7c0.3,3.4,0.8,8.2,1.3,12.8c3.8,0.1,7.6,0.3,11.3,0.5l0.2-13.8
						C43.7,35.1,41,32.1,37.5,32z"/>
				</g>
			</g>
			<g>
				<g>
					<polygon class="st13" points="58.6,71.5 61.6,78 60.1,77.8 57.6,71.5 					"/>
				</g>
			</g>
			<g>
				<g>
					<polygon class="st14" points="72.6,78.3 37.2,72.6 28.5,117.6 68.3,124.8 					"/>
				</g>
			</g>
			<g>
				<g>
					<path class="st13" d="M57.1,66.2c-2.5-0.7-8.9,8.1-8.9,8.1l-1.4-0.2c0,0,6.3-8,9-8.7C56.7,65.1,57.1,66.2,57.1,66.2z"/>
				</g>
			</g>
			<g>
				<g>
					<path class="st13" d="M22.3,14.2c0,1.6,0.4,3.2,0.7,4.8c0.3,1.6,0.4,3.3-0.3,4.8c-0.6,1.5-2.2,2.7-3.8,2.5
						c1.9,3.4,6.8,4.3,10.2,2.5c3.5-1.8,5.5-5.6,6.1-9.4c0.3-1.9,0.2-3.8,0.6-5.6c0.4-1.9,1.2-3.7,2.8-4.8c-2.2-3.1-6.4-4.6-10-3.4
						C24.9,6.7,22.2,10.4,22.3,14.2z"/>
				</g>
			</g>
		</g>
		<g>
			<path class="st10" d="M42.4,50.2c0.1,0,0.3-0.1,0.3-0.3c0.5-2.9,1.1-6.1,0.6-9.3c-0.6-3.5-2.8-6.3-5.5-7.2
				c-0.2-0.1-0.3,0-0.4,0.2s0,0.3,0.2,0.4c2.5,0.8,4.6,3.5,5.1,6.7c0.5,3,0,6.1-0.6,9C42.1,50,42.2,50.2,42.4,50.2L42.4,50.2z"/>
		</g>
	</g>
</g>
</svg>
