<?xml version="1.0" encoding="utf-8"?>
<!-- Generator: Adobe Illustrator 22.0.0, SVG Export Plug-In . SVG Version: 6.00 Build 0)  -->
<svg version="1.1" id="Layer_1" xmlns="http://www.w3.org/2000/svg" xmlns:xlink="http://www.w3.org/1999/xlink" x="0px" y="0px"
	 viewBox="0 0 120.7 314.3" style="enable-background:new 0 0 120.7 314.3;" xml:space="preserve">
<style type="text/css">
	.st0{fill:#2D24A3;}
	.st1{fill:#B77053;}
	.st2{fill:#ECE0D3;}
	.st3{fill:#E48868;}
	.st4{fill:#464473;}
	.st5{fill:#734E4F;}
	.st6{fill:#393762;}
	.st7{fill:#BA745D;}
	.st8{fill:#563616;}
	.st9{fill:#202070;}
	.st10{fill:#CFB199;}
	.st11{fill:#4E587F;}
	.st12{opacity:0.73;fill:#FFFFFF;enable-background:new    ;}
	.st13{fill:#F86332;}
	.st14{fill:none;stroke:#E8A12B;stroke-width:0.5;stroke-linecap:round;stroke-linejoin:round;stroke-miterlimit:10;}
	.st15{fill:#430CBC;}
	.st16{fill:#DC5955;}
</style>
<g>
	<g>
		<g>
			<g>
				<path class="st0" d="M4047.4-5130.2v60.8h3.8c0,0,6.6-27.7,6.9-30.4s-1-11.2-1-11.2l5.7-22L4047.4-5130.2z"/>
			</g>
		</g>
		<g>
			<g>
				<path class="st0" d="M4045.4-5130.2v60.8h-3.8c0,0-6.6-27.7-6.9-30.4s1-11.2,1-11.2l-5.7-22L4045.4-5130.2z"/>
			</g>
		</g>
		<g>
			<g>
				<polygon class="st1" points="4047,-5086.2 4047.4,-5066.3 4047.4,-5062 4052.9,-5062 4050.9,-5065.7 4055.9,-5086.2 				"/>
			</g>
		</g>
	</g>
	<g>
		<g>
			<path class="st2" d="M4057.1-5200.1c1.9,4.5,8.4,5.3,10.6,9.6c1.4,2.9,0.3,6.6-1.9,8.9c-2.3,2.3-5.4,3.6-8.6,4.4
				c-7,1.9-14.5,2.4-21.5,0.2c-2.5-0.8-4.9-1.9-6.8-3.6s-3.4-4.1-3.5-6.7s1.1-5.3,3.3-6.6c1.4-0.8,3.1-1,4.2-2.1
				c1.7-1.6,1.7-4.2,1.6-6.6c-0.1-4.3,0.1-8.7,0.7-13c0.4-3.3,1.2-6.8,3.4-9.3c2.5-2.7,6.5-3.7,10.1-2.9s6.5,3.6,8.1,6.9
				s1.9,7.1,1.2,10.7C4057.3-5206.7,4055.8-5203.2,4057.1-5200.1z"/>
		</g>
	</g>
	<g>
		<g>
			<path class="st3" d="M4025-5145.8c0,0-2.3,4.2-2.5,5.6s-0.2,2.1,0.9,1.8s-0.1,1.9,1.5,1.7c1.6-0.2,4.3-4.5,4.3-4.5l-2.7-3.7
				L4025-5145.8z"/>
		</g>
	</g>
	<g>
		<g>
			<path class="st4" d="M4067.2-5128.8c0,0-1.9-27.7-11.7-42l2.5-13.6c0,0,4.2-3.6,3.3-9.1v-7.5c0,0-11.6-5.5-14.4-5.5
				s-15.3,6.1-15.3,6.1s0,5.2,0,7c0,1.9,0.2,6.1,3,8.7l3.1,13.7c0,0-11.2,12-12.7,43.1C4025-5127.7,4050.1-5124.9,4067.2-5128.8z"/>
		</g>
	</g>
	<g>
		<g>
			<path class="st4" d="M4031.5-5200.4c-2.2,1.4-3.3,3.1-3.6,4.4s-3.1,28.4-3,32c0.2,3.6-2.8,2.8-1.6,8s-3,4.8-1.1,8.3l0.5,2.8
				l4,0.9l4.1-12l3.6-28.6L4031.5-5200.4z"/>
		</g>
	</g>
	<g>
		<g>
			<path class="st1" d="M4074-5136.5c3.5-0.6-2.3-10.1-6.2-12.6c-3.9-2.5-11.6-4.6-13.6-4.1S4060.4-5133.9,4074-5136.5z"/>
		</g>
	</g>
	<g>
		<g>
			<path class="st1" d="M4054.2-5153.2c-1.7,0-2.3,1.6-2.3,3.4c0,1.9,4.1,21.3,7.2,23s13.6,1.4,14.2-1.9s-1.1-10.8-1.1-10.8
				L4054.2-5153.2z"/>
		</g>
	</g>
	<g>
		<g>
			<polygon class="st1" points="4054.2,-5153.2 4036.7,-5202.8 4033.8,-5201.4 4051.9,-5149.7 			"/>
		</g>
	</g>
	<g>
		<g>
			<path class="st3" d="M4055.4-5170.8l-3.1,1.8c0,0-3.3-1.4-4.2-1.2l0.7,1.9c0,0-5.5,1.5-5.5,1.8s0,1.7,0,1.7l2-0.4
				c0,0-0.2,1,0,1.2s0.7,0.4,0.7,0.4s0.2,0.8,0.6,1.6s0.4,1.4,1.1,1.9s4.9-1.4,5.4-1.8c0.6-0.3,4.5-4.6,4.5-4.6L4055.4-5170.8z"/>
		</g>
	</g>
	<g>
		<g>
			<path class="st5" d="M4069.9-5135.9c0.6,0,1.2-0.1,1.8-0.2c0.2,0,0.3-0.2,0.2-0.3c0-0.2-0.2-0.3-0.3-0.2
				c-3.5,0.6-7.5-0.8-10.6-3.9c-2.8-2.8-4.6-6.4-6.3-10.1c-0.1-0.1-0.2-0.2-0.4-0.1c-0.1,0.1-0.2,0.2-0.1,0.4
				c1.7,3.8,3.5,7.4,6.4,10.3C4063.3-5137.4,4066.7-5135.9,4069.9-5135.9z"/>
		</g>
	</g>
	<g>
		<g>
			<path class="st5" d="M4068.8-5138.7c1.3,0,2.6-0.1,3.9-0.4c0.2,0,0.3-0.2,0.2-0.3c0-0.2-0.2-0.3-0.3-0.2c-1.7,0.3-3.3,0.4-5,0.3
				c-0.2,0-0.3,0.1-0.3,0.3c0,0.2,0.1,0.3,0.3,0.3C4068-5138.7,4068.4-5138.7,4068.8-5138.7z"/>
		</g>
	</g>
	<g>
		<g>
			<path class="st5" d="M4062.6-5127.4c0.1,0,0.1,0,0.2-0.1s0.1-0.3,0-0.4c-5.4-6.5-8.7-14.6-9.3-23.1c0-0.2-0.2-0.3-0.3-0.3
				c-0.2,0-0.3,0.2-0.3,0.3c0.6,8.5,3.9,16.8,9.4,23.4C4062.4-5127.4,4062.5-5127.4,4062.6-5127.4z"/>
		</g>
	</g>
	<g>
		<g>
			<path class="st5" d="M4046.3-5168.9h0.1c0.2-0.1,0.2-0.2,0.2-0.4l-4-10.9c-0.1-0.2-0.2-0.2-0.4-0.2c-0.2,0.1-0.2,0.2-0.2,0.4
				l4,10.9C4046-5169,4046.1-5168.9,4046.3-5168.9z"/>
		</g>
	</g>
	<g>
		<g>
			<path class="st4" d="M4061.2-5201c3,1.4,8,28,7.3,29.2c-0.6,1.2-8,8.9-10.5,9.7l-2.7-8.7l4.7-4.1l-2.2-9.5L4061.2-5201z"/>
		</g>
	</g>
	<g>
		<g>
			<path class="st6" d="M4043.6-5192.6C4043.6-5192.6,4043.7-5192.6,4043.6-5192.6c3.1-0.7,5.9-2.5,7.9-4.9c0.1-0.1,0.1-0.3-0.1-0.4
				c-0.1-0.1-0.3-0.1-0.4,0.1c-1.8,2.4-4.5,4.1-7.4,4.7c-0.2,0-0.3,0.2-0.2,0.4C4043.4-5192.7,4043.5-5192.6,4043.6-5192.6z"/>
		</g>
	</g>
	<g>
		<g>
			<path class="st6" d="M4034.6-5184.6c0.1,0,0.1,0,0.2,0c0.1-0.1,0.2-0.3,0.1-0.4c-1.9-3.1-2.2-7-0.8-10.4l0.1-0.1l-0.1-0.1
				c-0.2-0.4-0.4-0.9-0.6-1.4s-0.4-1-0.7-1.4c-0.1-0.1-0.3-0.2-0.4-0.1s-0.2,0.3-0.1,0.4c0.2,0.4,0.4,0.9,0.7,1.4
				c0.2,0.4,0.4,0.9,0.6,1.3C4032.2-5191.9,4032.5-5187.8,4034.6-5184.6C4034.4-5184.7,4034.5-5184.6,4034.6-5184.6z"/>
		</g>
	</g>
	<g>
		<g>
			<path class="st6" d="M4058.2-5184.6c0.1,0,0.2,0,0.2-0.1c2-3.2,2.3-7.3,0.9-10.8c0.2-0.4,0.4-0.8,0.6-1.3s0.4-0.9,0.6-1.4
				c0.1-0.1,0-0.3-0.1-0.4s-0.3,0-0.4,0.1c-0.2,0.4-0.4,0.9-0.7,1.4c-0.2,0.5-0.4,0.9-0.6,1.4l-0.1,0.1l0.1,0.1
				c1.4,3.3,1.1,7.3-0.8,10.4c-0.1,0.1,0,0.3,0.1,0.4C4058.1-5184.6,4058.2-5184.6,4058.2-5184.6z"/>
		</g>
	</g>
	<g>
		<g>
			<path class="st6" d="M4027.4-5145.2c0.1,0,0.3-0.1,0.3-0.2c0.8-4.4,2.1-8.7,3.6-12.9c0.1-0.2,0-0.3-0.2-0.4
				c-0.1-0.1-0.3,0-0.4,0.2c-1.6,4.2-2.8,8.6-3.6,13C4027.1-5145.4,4027.2-5145.2,4027.4-5145.2L4027.4-5145.2z"/>
		</g>
	</g>
	<g>
		<g>
			<path class="st6" d="M4058.6-5162.6h0.1c0.1-0.1,0.2-0.2,0.2-0.4l-0.9-2.2c-0.1-0.2-0.2-0.2-0.4-0.2c-0.1,0.1-0.2,0.2-0.2,0.4
				l1,2.2C4058.4-5162.6,4058.5-5162.6,4058.6-5162.6z"/>
		</g>
	</g>
	<g>
		<g>
			<polygon class="st1" points="4045.9,-5086.2 4045.4,-5066.3 4045.4,-5062 4040,-5062 4041.9,-5065.7 4037,-5086.2 			"/>
		</g>
	</g>
	<g>
		<g>
			<path class="st3" d="M4049.4-5210.5v6.9c0,0-3.5,5.9-6.7,0.1l0.3-7H4049.4z"/>
		</g>
	</g>
	<g>
		<g>
			<path class="st3" d="M4048-5226.8c5.9,0.8,6.9,7.6,5.5,13c-1.1,4-3.5,8.1-7.3,8s-6.1-5.3-6.8-8.5
				C4038.3-5219.4,4038.5-5228.1,4048-5226.8z"/>
		</g>
	</g>
	<g>
		<g>
			<path class="st3" d="M4052.7-5215.3c0,0,0.2-2.3,2.1-1.5c1.8,0.8-0.4,5.9-2.4,5.3S4052.7-5215.3,4052.7-5215.3z"/>
		</g>
	</g>
	<g>
		<g>
			<path class="st3" d="M4040.5-5215.4c0,0-0.1-2.3-1.9-1.7c-1.9,0.6,0,5.9,2.1,5.4C4042.7-5212,4040.5-5215.4,4040.5-5215.4z"/>
		</g>
	</g>
	<g>
		<g>
			<path class="st7" d="M4046.1-5205.5c0.9,0,1.8-0.2,2.6-0.7c0.1-0.1,0.2-0.3,0.1-0.4s-0.3-0.2-0.4-0.1c-1.4,0.9-3.4,0.8-4.8-0.2
				c-0.1-0.1-0.3-0.1-0.4,0.1c-0.1,0.1-0.1,0.3,0.1,0.4C4044.1-5205.7,4045.1-5205.5,4046.1-5205.5z"/>
		</g>
	</g>
	<g>
		<g>
			<path class="st8" d="M4043.2-5223.1c-0.1,3.6,0.6,7.3,2.5,10.4s5.1,5.4,8.7,5.8c1.3-3.1,2.2-6.5,1.9-9.9
				c-0.4-3.3-1.9-6.6-4.6-8.6s-6.6-2.5-9.5-0.9c-2.5,1.4-4,4-4.6,6.8c-0.7,2.7-0.6,4.3-0.5,7.1
				C4041.1-5214.7,4043.7-5218.4,4043.2-5223.1z"/>
		</g>
	</g>
</g>
<g>
	<g>
		<g>
			<g>
				<g>
					<g>
						<path class="st3" d="M4178.6-5190.6l-2.5-9.5c0,0-3.6,1-5.2-0.6c-0.7-0.6-1.3-3.4-1.5-7.8c0-0.5-1.8,0.5-1.8,0
							c0-0.9,3.1-5.2,2.9-7c-1-6.4-0.5-8.1,1.4-9.9c4.1-4,18.5-4.6,20.4,2.4c2,7,1.3,10.4-2.2,20.3l2.2,9.9L4178.6-5190.6z"/>
					</g>
				</g>
			</g>
			<g>
				<g>
					<path class="st2" d="M4175.7-5186l-3.2-8c0,0,9.7-6.7,19.1-7.3l2,4.1L4175.7-5186z"/>
				</g>
			</g>
			<g>
				<g>
					<path class="st6" d="M4143.2-5008.5l-3.7,11.1c0,0-11.3,0.7-11.6,1.5l16.3,4.5l4.3-15.6L4143.2-5008.5z"/>
				</g>
			</g>
			<g>
				<g>
					<polygon class="st6" points="4229.1,-4990.5 4238.4,-4990.5 4245.2,-4995.8 4236.8,-5009.5 4232.2,-5006.7 4237.7,-4996.5 
						4236,-4992.4 					"/>
				</g>
			</g>
			<g>
				<g>
					<polygon class="st0" points="4167,-5110.6 4138.8,-5000.7 4148.2,-4998.3 4170.9,-5056.7 4186.8,-5087.5 4204.6,-5041.7 
						4234.4,-4998.8 4241.3,-5003.8 4217.1,-5059.7 4209.3,-5110.6 					"/>
				</g>
			</g>
			<g>
				<g>
					<path class="st9" d="M4192.5-5200.8c0,0-8.7,2.7-13,7.7c-4.4,5-11.4,19.5-11.5,21.1c-0.2,1.6,2.2,19.5,2.2,19.5l-7.8,47.3
						c0,0,33.4,5.2,50.1,0l-8.7-39.1c0,0,1.2-13.8,2.7-15.4s-1.1-15.3-2.2-21.6s-6.1-13.6-7.8-15.1S4192.5-5200.8,4192.5-5200.8z"/>
				</g>
			</g>
			<g>
				<g>
					<path class="st10" d="M4170.1-5170.2c0.2,0,0.3-0.1,0.4-0.3c1-2.5,3.6-5.9,6.1-7.6l0.2-0.1v-0.5c0.1-1.8,0.1-3.8-0.1-5.6
						c1.3-0.6,2.6-1.1,3.9-1.4l0.3-0.1v-0.3c0.3-1.8,1.6-3.4,2.9-5c0.7-0.8,1.4-1.7,1.9-2.6c0.1-0.2,0.1-0.5-0.1-0.6
						s-0.5-0.1-0.6,0.1c-0.5,0.8-1.2,1.6-1.9,2.5c-1.3,1.6-2.6,3.2-3,5.2c-1.4,0.4-2.7,0.9-4,1.5l-0.3,0.1v0.3
						c0.2,1.8,0.2,3.9,0.1,5.7v0.1c-2.6,1.9-5.2,5.2-6.2,7.9c-0.1,0.2,0,0.5,0.2,0.5C4170-5170.2,4170-5170.2,4170.1-5170.2z"/>
				</g>
			</g>
			<g>
				<g>
					<path class="st6" d="M4169.7-5232.2c0.6-0.2,1.3-0.4,2.2-0.5c3.5-0.6,5.9,1.5,9.1,1.7c2.3,0.2,4.5-0.9,6.9-0.9
						c1.8,0,3.7,0.5,5,1.8s1.8,3.7,0.9,5.4c4.6,1.9,1.4,9.9,0,13.5c-1.4,3.5-3.8,8.6-3.8,8.6l-4.7-4.6c0,0,3.6-4.2,2-6
						c-1.6-1.9-3.2,1-3.2,1s-0.1,1.2-0.2,2.7c-0.8-0.6-1.6-1.1-2.5-1.5h-0.1l-0.2-6.1c0,0-4.9,1.6-5.8-2.5
						C4168.5-5220.8,4161.9-5229.4,4169.7-5232.2z"/>
				</g>
			</g>
		</g>
		<g>
			<path class="st10" d="M4191.8-5102.4c5.9,0,11.5-0.3,16.6-1c0.2,0,0.4-0.2,0.4-0.5c0-0.2-0.2-0.4-0.5-0.4
				c-11.5,1.5-25.3,1.3-41-0.6c-0.2,0-0.4,0.1-0.5,0.4c0,0.2,0.1,0.4,0.4,0.5C4176-5103,4184.2-5102.4,4191.8-5102.4z"/>
		</g>
	</g>
	<g>
		<g>
			<g>
				<path class="st3" d="M4132.3-5166.9c-0.5-1.2-0.2-5.1,0.3-4.7s0.9,2.5,0.9,2.5l0.2,1c0,0,0.8-0.3,0.8,0s0.3,1.6,0.3,1.6l0.1,2.5
					L4132.3-5166.9z"/>
			</g>
		</g>
		<g>
			<g>
				<polygon class="st11" points="4138.4,-5162 4135.4,-5172.8 4133,-5181.4 4129.9,-5180.3 4135.7,-5161.7 				"/>
			</g>
		</g>
		<g>
			<g>
				<path class="st3" d="M4169.2-5155.6l-2.5,9.8c0,0-25.1-9.8-26.4-10.3c0,0-3.8-3-4.6-3.6s-3.2-6.6-3.4-7.2s4.5-0.9,4.5-0.9
					s0.1-2.9,0.4-3.8c0.1-0.5,1.2-2.8,1.7-1.2l1,4.4l1.5,1.5c0.8,1.1,1.6,5.5,1.6,5.5L4169.2-5155.6z"/>
			</g>
		</g>
		<g>
			<g>
				<path class="st9" d="M4171.1-5155.9c0,0-2.6-7.4-7.6-4.4c-4.9,3-5.5-0.7-5.5-0.7l-13.3-3.7l-4.3,8.6l28.7,12.3L4171.1-5155.9z"
					/>
			</g>
		</g>
	</g>
	<g>
		<path class="st10" d="M4176.8-5157l0.1-0.4c2.9-10.4,9-20,14.5-28c2.5-3.5,4.9-5.1,7.2-4.7c0.2,0.1,0.4-0.1,0.5-0.3
			c0-0.2-0.1-0.4-0.3-0.5c-2.6-0.5-5.4,1.2-8,5c-5.5,8-11.6,17.5-14.5,27.9l-4.9-1.4c-0.2-0.1-0.5,0.1-0.5,0.3
			c-0.1,0.2,0.1,0.5,0.3,0.5L4176.8-5157z"/>
	</g>
	<g>
		<path class="st10" d="M4181.1-5141c0.5,0,1,0,1.5-0.1c2.5-0.4,4.3-2,5.5-3.3c1.5-1.6,2.5-3.4,3.6-5.2c0.1-0.2,0.1-0.5-0.1-0.6
			s-0.5-0.1-0.6,0.1c-1,1.7-2.1,3.5-3.5,5.1c-1.1,1.1-2.8,2.6-5,3c-2.7,0.5-5.6-0.7-7.9-1.7c-0.2-0.1-0.5,0-0.5,0.2
			c-0.1,0.2,0,0.5,0.2,0.5C4176.2-5142,4178.6-5141,4181.1-5141z"/>
	</g>
</g>
<path class="st12" d="M3514.1-5366.3c0,2.4,0,4.8,0,8.5c-1.8-1.5-4.4-2.9-4.2-3.6c0.6-2,2.2-3.7,3.4-5.6
	C3513.5-5366.8,3513.8-5366.6,3514.1-5366.3z"/>
<g>
	<g>
		<g>
			<path class="st13" d="M69.5,164.4c-0.4-3.4-1.1-6.3-1.5-9.7H22.6c-0.9,2.9,2.2,5.7,1.9,7.8c-1,7.4,5.2,25,5.2,25l1.7,9.7
				l2.2,36.6c0,0-1.9,17.9-3.1,32.1c-0.2,2.2-0.3,4.3-0.3,6.4c0,0.6,0,1.1,0.1,1.6c0.3,10.9,3.9,21.1,4.1,32.5l5.5,1.4
				c0,0,2.1-18.8,4.3-35.5l0,0l0,0c0.4-2.8,0.7-5.6,1.1-8.2c0,0.6-0.1,1.2-0.1,1.7c-0.2,2.2-0.3,4.3-0.3,6.4c0,0.6,0,1.1,0.1,1.6
				c0.3,10.9,3.9,21.1,4.1,32.5l5.5,1.4c0,0,2.1-18.8,4.3-35.5l0,0l0,0c1.6-11.9,3.2-22.7,4-24.7c1.4-3.1,3.8-29.7,6.4-48.4l0,0
				C70.6,192.1,70.3,171.4,69.5,164.4z"/>
		</g>
		<g>
			<g>
				<polygon class="st6" points="49.2,304.7 47.4,314.3 67.1,314.3 56.3,309.5 55.1,304.7 				"/>
			</g>
			<g>
				<path class="st0" d="M19.1,137c0,0-0.1,17.3,1.5,19l0,0l3.9,6.5l45,1.9l0.6-6.4l2.2-1.5c1.9-1.2,2.8-3.5,2.3-5.7l-11.5-29.6
					c0,0-0.8-9.4-0.2-13.9c0.6-4.6-10.4-29.5-12.5-32.3c-2.1-2.8-10.5-3.3-14,0s-13.2,17.7-14,20.8C21.7,98.8,19.1,137,19.1,137z"/>
			</g>
			<g>
				<path class="st0" d="M39.9,72.2c-4.7,1.1-25,12.9-26.9,16.7s-17.3,44.9-11.9,49.5c5.5,4.6,22.3-2.1,22.3-2.1l2.2-24.4L39.9,72.2
					z"/>
			</g>
			<g>
				<path class="st14" d="M46.6,92.8"/>
			</g>
			<g>
				<path class="st5" d="M50.3,183.1c-0.1,0-0.3-0.1-0.4-0.2c-2.4-2.8-3.9-6.3-4.3-9.9c0-0.3,0.2-0.5,0.4-0.5c0.2,0,0.5,0.2,0.5,0.4
					c0.4,3.4,1.8,6.8,4.1,9.4c0.2,0.2,0.1,0.5-0.1,0.7C50.6,183.1,50.5,183.1,50.3,183.1z"/>
			</g>
			<g>
				<polygon class="st6" points="34.4,304.7 32.7,314.3 52.4,314.3 41.5,309.5 40.4,304.7 				"/>
			</g>
			<g>
				<path class="st5" d="M46.5,261.3L46.5,261.3c-0.4-0.1-0.5-0.3-0.4-0.6c0.1-0.4,10.1-41.2,11.9-48.8c1.7-7.6,0.8-39.7,0.8-40
					c0-0.1,0-0.2,0.1-0.3l4.8-5.1c0.2-0.2,0.5-0.2,0.7,0s0.2,0.5,0,0.7l-4.7,5c0.1,3,0.9,32.6-0.8,40.1
					c-1.7,7.7-11.8,48.5-11.9,48.9C46.9,261.2,46.7,261.3,46.5,261.3z"/>
			</g>
			<g>
				<path class="st10" d="M25.7,159c-0.3,0-0.5-0.2-0.5-0.5s0.2-0.5,0.5-0.5l42-0.2l0,0c0.3,0,0.5,0.2,0.5,0.5s-0.2,0.5-0.5,0.5
					L25.7,159L25.7,159z"/>
			</g>
		</g>
		<g>
			<g>
				<path class="st3" d="M106.2,45.5l0.9-4.9c0,0,3.7-3.5,4.5-4.1s3.2-6.6,3.4-7.1c0.2-0.6-4.4-0.9-4.4-0.9s-0.1-2.9-0.4-3.8
					c-0.1-0.5-1.2-2.7-1.7-1.2l-1,4.4l-1.5,1.5c-0.8,1.1-1.6,5.5-1.6,5.5l-3,6.3C103,42.7,104.6,44.1,106.2,45.5z"/>
			</g>
			<g>
				<path class="st15" d="M119.3,0l-7.4,23.5L109,34.3l2.7,0.3l9-33.8C120,0.4,120,0.4,119.3,0z"/>
			</g>
			<g>
				<path class="st3" d="M115,29.4c0.5-1.2-0.7-5-1.1-4.7c-0.5,0.3-0.7,2.3-0.7,2.3l0.5,1.2c0,0-0.8-0.3-0.8,0s-0.3,1.6-0.3,1.6
					l-0.1,2.5L115,29.4z"/>
			</g>
		</g>
		<g>
			<path class="st0" d="M69.6,100.6c4.8-4.9,18.1-16.7,22.4-22.7c4.1-5.7,16.2-33.7,16.2-33.7l-6.7-6.5L82,65
				c0,0-13.8,8.5-21.2,11.6C65.4,84.8,64.6,92.7,69.6,100.6z"/>
		</g>
		<g>
			<path class="st0" d="M43.9,72.7c37.9,2.6,39.9,5.9,29.5,18l-5.7,45.7l-13.3-19.6L43.9,72.7z"/>
		</g>
		<g>
			<polygon class="st16" points="41.8,114.1 48.2,108.7 41.8,125.2 35.5,126.6 			"/>
		</g>
		<g>
			<polygon class="st16" points="29.1,120.6 31.4,110.5 41.8,114.1 34.4,128.7 			"/>
		</g>
		<g>
			<path class="st3" d="M19.4,126.4l4.3-3.9c0,0,3.4-4.7,4.8-5.1l0.6,3.1c0,0,10.3-1.4,10.6-1c0.3,0.4,1.4,2.4,1.4,2.4L38,123
				c0,0,1.1,1.2,1,1.7s-0.6,1.1-0.6,1.1s0.4,1.3,0.5,2.6c0,1.3-2.5,0.1-3,1.3s-7.9,2-9,2c-1,0-10.6,2.4-10.6,2.4L19.4,126.4z"/>
		</g>
		<g>
			<path class="st10" d="M18.5,125.2L18.5,125.2l-6.4-0.5c-0.3,0-0.5-0.2-0.4-0.5c0-0.3,0.2-0.5,0.5-0.4l6.4,0.5
				c0.3,0,0.5,0.2,0.4,0.5C19,125,18.8,125.2,18.5,125.2z"/>
		</g>
		<g>
			<path class="st10" d="M16.3,124.9c-0.1,0-0.1,0-0.2,0c-0.2-0.1-0.3-0.4-0.2-0.6c3.7-8.4,6.4-17.2,8.1-26.2c0.3-1.7,0.6-3.3,0.4-5
				c-0.2-1.8-1-3.2-2.2-4c-0.2-0.1-0.3-0.4-0.1-0.7c0.1-0.2,0.4-0.3,0.7-0.1c1.4,1,2.3,2.7,2.6,4.7c0.2,1.8-0.1,3.5-0.4,5.2
				c-1.7,9.1-4.4,17.9-8.1,26.4C16.6,124.8,16.4,124.9,16.3,124.9z"/>
		</g>
		<g>
			<path class="st10" d="M65.7,129.7c-0.2,0-0.3-0.1-0.4-0.2L45.9,95.7c-0.1-0.2-0.1-0.5,0.2-0.6c0.2-0.1,0.5-0.1,0.6,0.2l19.4,33.8
				c0.1,0.2,0.1,0.5-0.2,0.6C65.9,129.6,65.8,129.7,65.7,129.7z"/>
		</g>
		<g>
			<g>
				<path class="st3" d="M54.8,75l1.4-6.6c0,0,4.2-0.2,5.4-2.5c0.5-0.9,0.1-4.1-1.2-9c-0.1-0.5,2.1-0.1,1.9-0.7
					c-0.3-1-5.3-4.5-5.6-6.5c-1.2-7.2-2.4-8.9-5-10.2c-5.9-2.8-23.5,1.7-23.1,10c0.4,8.2,4.2,11.7,11.6,21.1l-0.3,1.6
					c-0.8,5.1,3.6,9.5,8.7,8.7l0,0C51.7,80.4,54.2,78,54.8,75z"/>
			</g>
		</g>
		<g>
			<path class="st6" d="M40.2,70.6l1.8-8.7c0,0-7.3-4.1-4.2-8.2c3.1-4.1,12.5,9.6,12.5,9.6l0.8-2l-4.2-8.9c0,0,3-2.7,2.3-6.3
				c0,0,8.2-3.3,7.5-9C56,31.3,31.2,40.1,27,45C22.9,49.8,29.4,59.5,40.2,70.6z"/>
		</g>
	</g>
	<g>
		<g>
			<path class="st13" d="M69.5,164.4c-0.4-3.4-1.1-6.3-1.5-9.7H22.6c-0.9,2.9,2.2,5.7,1.9,7.8c-1,7.4,5.2,25,5.2,25l1.7,9.7
				l2.2,36.6c0,0-1.9,17.9-3.1,32.1c-0.2,2.2-0.3,4.3-0.3,6.4c0,0.6,0,1.1,0.1,1.6c0.3,10.9,3.9,21.1,4.1,32.5l5.5,1.4
				c0,0,2.1-18.8,4.3-35.5l0,0l0,0c0.4-2.8,0.7-5.6,1.1-8.2c0,0.6-0.1,1.2-0.1,1.7c-0.2,2.2-0.3,4.3-0.3,6.4c0,0.6,0,1.1,0.1,1.6
				c0.3,10.9,3.9,21.1,4.1,32.5l5.5,1.4c0,0,2.1-18.8,4.3-35.5l0,0l0,0c1.6-11.9,3.2-22.7,4-24.7c1.4-3.1,3.8-29.7,6.4-48.4l0,0
				C70.6,192.1,70.3,171.4,69.5,164.4z"/>
		</g>
		<g>
			<g>
				<polygon class="st6" points="49.2,304.7 47.4,314.3 67.1,314.3 56.3,309.5 55.1,304.7 				"/>
			</g>
			<g>
				<path class="st0" d="M19.1,137c0,0-0.1,17.3,1.5,19l0,0l3.9,6.5l45,1.9l0.6-6.4l2.2-1.5c1.9-1.2,2.8-3.5,2.3-5.7l-11.5-29.6
					c0,0-0.8-9.4-0.2-13.9c0.6-4.6-10.4-29.5-12.5-32.3c-2.1-2.8-10.5-3.3-14,0s-13.2,17.7-14,20.8C21.7,98.8,19.1,137,19.1,137z"/>
			</g>
			<g>
				<path class="st0" d="M39.9,72.2c-4.7,1.1-25,12.9-26.9,16.7s-17.3,44.9-11.9,49.5c5.5,4.6,22.3-2.1,22.3-2.1l2.2-24.4L39.9,72.2
					z"/>
			</g>
			<g>
				<path class="st14" d="M46.6,92.8"/>
			</g>
			<g>
				<path class="st5" d="M50.3,183.1c-0.1,0-0.3-0.1-0.4-0.2c-2.4-2.8-3.9-6.3-4.3-9.9c0-0.3,0.2-0.5,0.4-0.5c0.2,0,0.5,0.2,0.5,0.4
					c0.4,3.4,1.8,6.8,4.1,9.4c0.2,0.2,0.1,0.5-0.1,0.7C50.6,183.1,50.5,183.1,50.3,183.1z"/>
			</g>
			<g>
				<polygon class="st6" points="34.4,304.7 32.7,314.3 52.4,314.3 41.5,309.5 40.4,304.7 				"/>
			</g>
			<g>
				<path class="st5" d="M46.5,261.3L46.5,261.3c-0.4-0.1-0.5-0.3-0.4-0.6c0.1-0.4,10.1-41.2,11.9-48.8c1.7-7.6,0.8-39.7,0.8-40
					c0-0.1,0-0.2,0.1-0.3l4.8-5.1c0.2-0.2,0.5-0.2,0.7,0s0.2,0.5,0,0.7l-4.7,5c0.1,3,0.9,32.6-0.8,40.1
					c-1.7,7.7-11.8,48.5-11.9,48.9C46.9,261.2,46.7,261.3,46.5,261.3z"/>
			</g>
			<g>
				<path class="st10" d="M25.7,159c-0.3,0-0.5-0.2-0.5-0.5s0.2-0.5,0.5-0.5l42-0.2l0,0c0.3,0,0.5,0.2,0.5,0.5s-0.2,0.5-0.5,0.5
					L25.7,159L25.7,159z"/>
			</g>
		</g>
		<g>
			<g>
				<path class="st3" d="M106.2,45.5l0.9-4.9c0,0,3.7-3.5,4.5-4.1s3.2-6.6,3.4-7.1c0.2-0.6-4.4-0.9-4.4-0.9s-0.1-2.9-0.4-3.8
					c-0.1-0.5-1.2-2.7-1.7-1.2l-1,4.4l-1.5,1.5c-0.8,1.1-1.6,5.5-1.6,5.5l-3,6.3C103,42.7,104.6,44.1,106.2,45.5z"/>
			</g>
			<g>
				<path class="st15" d="M119.3,0l-7.4,23.5L109,34.3l2.7,0.3l9-33.8C120,0.4,120,0.4,119.3,0z"/>
			</g>
			<g>
				<path class="st3" d="M115,29.4c0.5-1.2-0.7-5-1.1-4.7c-0.5,0.3-0.7,2.3-0.7,2.3l0.5,1.2c0,0-0.8-0.3-0.8,0s-0.3,1.6-0.3,1.6
					l-0.1,2.5L115,29.4z"/>
			</g>
		</g>
		<g>
			<path class="st0" d="M69.6,100.6c4.8-4.9,18.1-16.7,22.4-22.7c4.1-5.7,16.2-33.7,16.2-33.7l-6.7-6.5L82,65
				c0,0-13.8,8.5-21.2,11.6C65.4,84.8,64.6,92.7,69.6,100.6z"/>
		</g>
		<g>
			<path class="st0" d="M43.9,72.7c37.9,2.6,39.9,5.9,29.5,18l-5.7,45.7l-13.3-19.6L43.9,72.7z"/>
		</g>
		<g>
			<polygon class="st16" points="41.8,114.1 48.2,108.7 41.8,125.2 35.5,126.6 			"/>
		</g>
		<g>
			<polygon class="st16" points="29.1,120.6 31.4,110.5 41.8,114.1 34.4,128.7 			"/>
		</g>
		<g>
			<path class="st3" d="M19.4,126.4l4.3-3.9c0,0,3.4-4.7,4.8-5.1l0.6,3.1c0,0,10.3-1.4,10.6-1c0.3,0.4,1.4,2.4,1.4,2.4L38,123
				c0,0,1.1,1.2,1,1.7s-0.6,1.1-0.6,1.1s0.4,1.3,0.5,2.6c0,1.3-2.5,0.1-3,1.3s-7.9,2-9,2c-1,0-10.6,2.4-10.6,2.4L19.4,126.4z"/>
		</g>
		<g>
			<path class="st10" d="M18.5,125.2L18.5,125.2l-6.4-0.5c-0.3,0-0.5-0.2-0.4-0.5c0-0.3,0.2-0.5,0.5-0.4l6.4,0.5
				c0.3,0,0.5,0.2,0.4,0.5C19,125,18.8,125.2,18.5,125.2z"/>
		</g>
		<g>
			<path class="st10" d="M16.3,124.9c-0.1,0-0.1,0-0.2,0c-0.2-0.1-0.3-0.4-0.2-0.6c3.7-8.4,6.4-17.2,8.1-26.2c0.3-1.7,0.6-3.3,0.4-5
				c-0.2-1.8-1-3.2-2.2-4c-0.2-0.1-0.3-0.4-0.1-0.7c0.1-0.2,0.4-0.3,0.7-0.1c1.4,1,2.3,2.7,2.6,4.7c0.2,1.8-0.1,3.5-0.4,5.2
				c-1.7,9.1-4.4,17.9-8.1,26.4C16.6,124.8,16.4,124.9,16.3,124.9z"/>
		</g>
		<g>
			<path class="st10" d="M65.7,129.7c-0.2,0-0.3-0.1-0.4-0.2L45.9,95.7c-0.1-0.2-0.1-0.5,0.2-0.6c0.2-0.1,0.5-0.1,0.6,0.2l19.4,33.8
				c0.1,0.2,0.1,0.5-0.2,0.6C65.9,129.6,65.8,129.7,65.7,129.7z"/>
		</g>
		<g>
			<g>
				<path class="st3" d="M54.8,75l1.4-6.6c0,0,4.2-0.2,5.4-2.5c0.5-0.9,0.1-4.1-1.2-9c-0.1-0.5,2.1-0.1,1.9-0.7
					c-0.3-1-5.3-4.5-5.6-6.5c-1.2-7.2-2.4-8.9-5-10.2c-5.9-2.8-23.5,1.7-23.1,10c0.4,8.2,4.2,11.7,11.6,21.1l-0.3,1.6
					c-0.8,5.1,3.6,9.5,8.7,8.7l0,0C51.7,80.4,54.2,78,54.8,75z"/>
			</g>
		</g>
		<g>
			<path class="st6" d="M40.2,70.6l1.8-8.7c0,0-7.3-4.1-4.2-8.2c3.1-4.1,12.5,9.6,12.5,9.6l0.8-2l-4.2-8.9c0,0,3-2.7,2.3-6.3
				c0,0,8.2-3.3,7.5-9C56,31.3,31.2,40.1,27,45C22.9,49.8,29.4,59.5,40.2,70.6z"/>
		</g>
	</g>
</g>
</svg>
