<?xml version="1.0" encoding="utf-8"?>
<!-- Generator: Adobe Illustrator 22.0.0, SVG Export Plug-In . SVG Version: 6.00 Build 0)  -->
<svg version="1.1" id="Layer_1" xmlns="http://www.w3.org/2000/svg" xmlns:xlink="http://www.w3.org/1999/xlink" x="0px" y="0px"
	 viewBox="0 0 155.4 320.1" style="enable-background:new 0 0 155.4 320.1;" xml:space="preserve">
<style type="text/css">
	.st0{fill:#2D24A3;}
	.st1{fill:#B77053;}
	.st2{fill:#ECE0D3;}
	.st3{fill:#E48868;}
	.st4{fill:#464473;}
	.st5{fill:#734E4F;}
	.st6{fill:#393762;}
	.st7{fill:#BA745D;}
	.st8{fill:#563616;}
	.st9{fill:#202070;}
	.st10{fill:#CFB199;}
	.st11{fill:#4E587F;}
	.st12{opacity:0.73;fill:#FFFFFF;enable-background:new    ;}
	.st13{fill:#F86332;}
	.st14{opacity:0.32;fill:#F3F0EB;enable-background:new    ;}
	.st15{fill:#C5CFEF;}
	.st16{fill:#AEB9F4;}
	.st17{fill:#8387FE;}
	.st18{fill:#FE8730;}
	.st19{fill:#AF6144;}
	.st20{fill:#FEBA72;}
	.st21{fill:#CBD2D7;}
	.st22{fill:#6C757D;}
	.st23{fill:#FEDB00;}
	.st24{fill:#FFFFFF;}
	.st25{fill:#5055BC;}
	.st26{fill:#6668CA;}
	.st27{fill:#9198F9;}
	.st28{fill:#535A61;}
	.st29{opacity:0.44;fill:#B4CCE9;enable-background:new    ;}
	.st30{fill:#2E25A2;}
	.st31{fill:#1A3151;}
	.st32{fill:#EFBFA5;}
</style>
<g>
	<g>
		<g>
			<g>
				<path class="st0" d="M3925.4-5192.4v60.8h3.8c0,0,6.6-27.7,6.9-30.4s-1-11.2-1-11.2l5.7-22L3925.4-5192.4z"/>
			</g>
		</g>
		<g>
			<g>
				<path class="st0" d="M3923.4-5192.4v60.8h-3.8c0,0-6.6-27.7-6.9-30.4s1-11.2,1-11.2l-5.7-22L3923.4-5192.4z"/>
			</g>
		</g>
		<g>
			<g>
				<polygon class="st1" points="3925,-5148.4 3925.4,-5128.5 3925.4,-5124.2 3930.9,-5124.2 3928.9,-5127.9 3933.9,-5148.4 				"/>
			</g>
		</g>
	</g>
	<g>
		<g>
			<path class="st2" d="M3935.1-5262.3c1.9,4.5,8.4,5.3,10.6,9.6c1.4,2.9,0.3,6.6-1.9,8.9c-2.3,2.3-5.4,3.6-8.6,4.4
				c-7,1.9-14.5,2.4-21.5,0.2c-2.5-0.8-4.9-1.9-6.8-3.6s-3.4-4.1-3.5-6.7s1.1-5.3,3.3-6.6c1.4-0.8,3.1-1,4.2-2.1
				c1.7-1.6,1.7-4.2,1.6-6.6c-0.1-4.3,0.1-8.7,0.7-13c0.4-3.3,1.2-6.8,3.4-9.3c2.5-2.7,6.5-3.7,10.1-2.9s6.5,3.6,8.1,6.9
				s1.9,7.1,1.2,10.7C3935.3-5268.9,3933.8-5265.4,3935.1-5262.3z"/>
		</g>
	</g>
	<g>
		<g>
			<path class="st3" d="M3903-5208c0,0-2.3,4.2-2.5,5.6s-0.2,2.1,0.9,1.8s-0.1,1.9,1.5,1.7c1.6-0.2,4.3-4.5,4.3-4.5l-2.7-3.7
				L3903-5208z"/>
		</g>
	</g>
	<g>
		<g>
			<path class="st4" d="M3945.2-5191c0,0-1.9-27.7-11.7-42l2.5-13.6c0,0,4.2-3.6,3.3-9.1v-7.5c0,0-11.6-5.5-14.4-5.5
				s-15.3,6.1-15.3,6.1s0,5.2,0,7c0,1.9,0.2,6.1,3,8.7l3.1,13.7c0,0-11.2,12-12.7,43.1C3903-5189.9,3928.1-5187.1,3945.2-5191z"/>
		</g>
	</g>
	<g>
		<g>
			<path class="st4" d="M3909.5-5262.6c-2.2,1.4-3.3,3.1-3.6,4.4s-3.1,28.4-3,32c0.2,3.6-2.8,2.8-1.6,8s-3,4.8-1.1,8.3l0.5,2.8
				l4,0.9l4.1-12l3.6-28.6L3909.5-5262.6z"/>
		</g>
	</g>
	<g>
		<g>
			<path class="st1" d="M3952-5198.7c3.5-0.6-2.3-10.1-6.2-12.6c-3.9-2.5-11.6-4.6-13.6-4.1S3938.4-5196.1,3952-5198.7z"/>
		</g>
	</g>
	<g>
		<g>
			<path class="st1" d="M3932.2-5215.4c-1.7,0-2.3,1.6-2.3,3.4c0,1.9,4.1,21.3,7.2,23s13.6,1.4,14.2-1.9s-1.1-10.8-1.1-10.8
				L3932.2-5215.4z"/>
		</g>
	</g>
	<g>
		<g>
			<polygon class="st1" points="3932.2,-5215.4 3914.7,-5265 3911.8,-5263.6 3929.9,-5211.9 			"/>
		</g>
	</g>
	<g>
		<g>
			<path class="st3" d="M3933.4-5233l-3.1,1.8c0,0-3.3-1.4-4.2-1.2l0.7,1.9c0,0-5.5,1.5-5.5,1.8s0,1.7,0,1.7l2-0.4c0,0-0.2,1,0,1.2
				s0.7,0.4,0.7,0.4s0.2,0.8,0.6,1.6s0.4,1.4,1.1,1.9s4.9-1.4,5.4-1.8c0.6-0.3,4.5-4.6,4.5-4.6L3933.4-5233z"/>
		</g>
	</g>
	<g>
		<g>
			<path class="st5" d="M3947.9-5198.1c0.6,0,1.2-0.1,1.8-0.2c0.2,0,0.3-0.2,0.2-0.3c0-0.2-0.2-0.3-0.3-0.2
				c-3.5,0.6-7.5-0.8-10.6-3.9c-2.8-2.8-4.6-6.4-6.3-10.1c-0.1-0.1-0.2-0.2-0.4-0.1c-0.1,0.1-0.2,0.2-0.1,0.4
				c1.7,3.8,3.5,7.4,6.4,10.3C3941.3-5199.6,3944.7-5198.1,3947.9-5198.1z"/>
		</g>
	</g>
	<g>
		<g>
			<path class="st5" d="M3946.8-5200.9c1.3,0,2.6-0.1,3.9-0.4c0.2,0,0.3-0.2,0.2-0.3c0-0.2-0.2-0.3-0.3-0.2c-1.7,0.3-3.3,0.4-5,0.3
				c-0.2,0-0.3,0.1-0.3,0.3c0,0.2,0.1,0.3,0.3,0.3C3946-5200.9,3946.4-5200.9,3946.8-5200.9z"/>
		</g>
	</g>
	<g>
		<g>
			<path class="st5" d="M3940.6-5189.6c0.1,0,0.1,0,0.2-0.1s0.1-0.3,0-0.4c-5.4-6.5-8.7-14.6-9.3-23.1c0-0.2-0.2-0.3-0.3-0.3
				c-0.2,0-0.3,0.2-0.3,0.3c0.6,8.5,3.9,16.8,9.4,23.4C3940.4-5189.6,3940.5-5189.6,3940.6-5189.6z"/>
		</g>
	</g>
	<g>
		<g>
			<path class="st5" d="M3924.3-5231.1h0.1c0.2-0.1,0.2-0.2,0.2-0.4l-4-10.9c-0.1-0.2-0.2-0.2-0.4-0.2c-0.2,0.1-0.2,0.2-0.2,0.4
				l4,10.9C3924-5231.2,3924.1-5231.1,3924.3-5231.1z"/>
		</g>
	</g>
	<g>
		<g>
			<path class="st4" d="M3939.2-5263.2c3,1.4,8,28,7.3,29.2c-0.6,1.2-8,8.9-10.5,9.7l-2.7-8.7l4.7-4.1l-2.2-9.5L3939.2-5263.2z"/>
		</g>
	</g>
	<g>
		<g>
			<path class="st6" d="M3921.6-5254.8C3921.6-5254.8,3921.7-5254.8,3921.6-5254.8c3.1-0.7,5.9-2.5,7.9-4.9c0.1-0.1,0.1-0.3-0.1-0.4
				c-0.1-0.1-0.3-0.1-0.4,0.1c-1.8,2.4-4.5,4.1-7.4,4.7c-0.2,0-0.3,0.2-0.2,0.4C3921.4-5254.9,3921.5-5254.8,3921.6-5254.8z"/>
		</g>
	</g>
	<g>
		<g>
			<path class="st6" d="M3912.6-5246.8c0.1,0,0.1,0,0.2,0c0.1-0.1,0.2-0.3,0.1-0.4c-1.9-3.1-2.2-7-0.8-10.4l0.1-0.1l-0.1-0.1
				c-0.2-0.4-0.4-0.9-0.6-1.4s-0.4-1-0.7-1.4c-0.1-0.1-0.3-0.2-0.4-0.1s-0.2,0.3-0.1,0.4c0.2,0.4,0.4,0.9,0.7,1.4
				c0.2,0.4,0.4,0.9,0.6,1.3C3910.2-5254.1,3910.5-5250,3912.6-5246.8C3912.4-5246.9,3912.5-5246.8,3912.6-5246.8z"/>
		</g>
	</g>
	<g>
		<g>
			<path class="st6" d="M3936.2-5246.8c0.1,0,0.2,0,0.2-0.1c2-3.2,2.3-7.3,0.9-10.8c0.2-0.4,0.4-0.8,0.6-1.3s0.4-0.9,0.6-1.4
				c0.1-0.1,0-0.3-0.1-0.4s-0.3,0-0.4,0.1c-0.2,0.4-0.4,0.9-0.7,1.4c-0.2,0.5-0.4,0.9-0.6,1.4l-0.1,0.1l0.1,0.1
				c1.4,3.3,1.1,7.3-0.8,10.4c-0.1,0.1,0,0.3,0.1,0.4C3936.1-5246.8,3936.2-5246.8,3936.2-5246.8z"/>
		</g>
	</g>
	<g>
		<g>
			<path class="st6" d="M3905.4-5207.4c0.1,0,0.3-0.1,0.3-0.2c0.8-4.4,2.1-8.7,3.6-12.9c0.1-0.2,0-0.3-0.2-0.4
				c-0.1-0.1-0.3,0-0.4,0.2c-1.6,4.2-2.8,8.6-3.6,13C3905.1-5207.6,3905.2-5207.4,3905.4-5207.4L3905.4-5207.4z"/>
		</g>
	</g>
	<g>
		<g>
			<path class="st6" d="M3936.6-5224.8h0.1c0.1-0.1,0.2-0.2,0.2-0.4l-0.9-2.2c-0.1-0.2-0.2-0.2-0.4-0.2c-0.1,0.1-0.2,0.2-0.2,0.4
				l1,2.2C3936.4-5224.8,3936.5-5224.8,3936.6-5224.8z"/>
		</g>
	</g>
	<g>
		<g>
			<polygon class="st1" points="3923.9,-5148.4 3923.4,-5128.5 3923.4,-5124.2 3918,-5124.2 3919.9,-5127.9 3915,-5148.4 			"/>
		</g>
	</g>
	<g>
		<g>
			<path class="st3" d="M3927.4-5272.7v6.9c0,0-3.5,5.9-6.7,0.1l0.3-7H3927.4z"/>
		</g>
	</g>
	<g>
		<g>
			<path class="st3" d="M3926-5289c5.9,0.8,6.9,7.6,5.5,13c-1.1,4-3.5,8.1-7.3,8s-6.1-5.3-6.8-8.5
				C3916.3-5281.6,3916.5-5290.3,3926-5289z"/>
		</g>
	</g>
	<g>
		<g>
			<path class="st3" d="M3930.7-5277.5c0,0,0.2-2.3,2.1-1.5c1.8,0.8-0.4,5.9-2.4,5.3S3930.7-5277.5,3930.7-5277.5z"/>
		</g>
	</g>
	<g>
		<g>
			<path class="st3" d="M3918.5-5277.6c0,0-0.1-2.3-1.9-1.7c-1.9,0.6,0,5.9,2.1,5.4C3920.7-5274.2,3918.5-5277.6,3918.5-5277.6z"/>
		</g>
	</g>
	<g>
		<g>
			<path class="st7" d="M3924.1-5267.7c0.9,0,1.8-0.2,2.6-0.7c0.1-0.1,0.2-0.3,0.1-0.4s-0.3-0.2-0.4-0.1c-1.4,0.9-3.4,0.8-4.8-0.2
				c-0.1-0.1-0.3-0.1-0.4,0.1c-0.1,0.1-0.1,0.3,0.1,0.4C3922.1-5267.9,3923.1-5267.7,3924.1-5267.7z"/>
		</g>
	</g>
	<g>
		<g>
			<path class="st8" d="M3921.2-5285.3c-0.1,3.6,0.6,7.3,2.5,10.4s5.1,5.4,8.7,5.8c1.3-3.1,2.2-6.5,1.9-9.9
				c-0.4-3.3-1.9-6.6-4.6-8.6s-6.6-2.5-9.5-0.9c-2.5,1.4-4,4-4.6,6.8c-0.7,2.7-0.6,4.3-0.5,7.1
				C3919.1-5276.9,3921.7-5280.6,3921.2-5285.3z"/>
		</g>
	</g>
</g>
<g>
	<g>
		<g>
			<g>
				<g>
					<g>
						<path class="st3" d="M4056.6-5252.8l-2.5-9.5c0,0-3.6,1-5.2-0.6c-0.7-0.6-1.3-3.4-1.5-7.8c0-0.5-1.8,0.5-1.8,0
							c0-0.9,3.1-5.2,2.9-7c-1-6.4-0.5-8.1,1.4-9.9c4.1-4,18.5-4.6,20.4,2.4c2,7,1.3,10.4-2.2,20.3l2.2,9.9L4056.6-5252.8z"/>
					</g>
				</g>
			</g>
			<g>
				<g>
					<path class="st2" d="M4053.7-5248.2l-3.2-8c0,0,9.7-6.7,19.1-7.3l2,4.1L4053.7-5248.2z"/>
				</g>
			</g>
			<g>
				<g>
					<path class="st6" d="M4021.2-5070.7l-3.7,11.1c0,0-11.3,0.7-11.6,1.5l16.3,4.5l4.3-15.6L4021.2-5070.7z"/>
				</g>
			</g>
			<g>
				<g>
					<polygon class="st6" points="4107.1,-5052.7 4116.4,-5052.7 4123.2,-5058 4114.8,-5071.7 4110.2,-5068.9 4115.7,-5058.7 
						4114,-5054.6 					"/>
				</g>
			</g>
			<g>
				<g>
					<polygon class="st0" points="4045,-5172.8 4016.8,-5062.9 4026.2,-5060.5 4048.9,-5118.9 4064.8,-5149.7 4082.6,-5103.9 
						4112.4,-5061 4119.3,-5066 4095.1,-5121.9 4087.3,-5172.8 					"/>
				</g>
			</g>
			<g>
				<g>
					<path class="st9" d="M4070.5-5263c0,0-8.7,2.7-13,7.7c-4.4,5-11.4,19.5-11.5,21.1c-0.2,1.6,2.2,19.5,2.2,19.5l-7.8,47.3
						c0,0,33.4,5.2,50.1,0l-8.7-39.1c0,0,1.2-13.8,2.7-15.4s-1.1-15.3-2.2-21.6s-6.1-13.6-7.8-15.1S4070.5-5263,4070.5-5263z"/>
				</g>
			</g>
			<g>
				<g>
					<path class="st10" d="M4048.1-5232.4c0.2,0,0.3-0.1,0.4-0.3c1-2.5,3.6-5.9,6.1-7.6l0.2-0.1v-0.5c0.1-1.8,0.1-3.8-0.1-5.6
						c1.3-0.6,2.6-1.1,3.9-1.4l0.3-0.1v-0.3c0.3-1.8,1.6-3.4,2.9-5c0.7-0.8,1.4-1.7,1.9-2.6c0.1-0.2,0.1-0.5-0.1-0.6
						s-0.5-0.1-0.6,0.1c-0.5,0.8-1.2,1.6-1.9,2.5c-1.3,1.6-2.6,3.2-3,5.2c-1.4,0.4-2.7,0.9-4,1.5l-0.3,0.1v0.3
						c0.2,1.8,0.2,3.9,0.1,5.7v0.1c-2.6,1.9-5.2,5.2-6.2,7.9c-0.1,0.2,0,0.5,0.2,0.5C4048-5232.4,4048-5232.4,4048.1-5232.4z"/>
				</g>
			</g>
			<g>
				<g>
					<path class="st6" d="M4047.7-5294.4c0.6-0.2,1.3-0.4,2.2-0.5c3.5-0.6,5.9,1.5,9.1,1.7c2.3,0.2,4.5-0.9,6.9-0.9
						c1.8,0,3.7,0.5,5,1.8s1.8,3.7,0.9,5.4c4.6,1.9,1.4,9.9,0,13.5c-1.4,3.5-3.8,8.6-3.8,8.6l-4.7-4.6c0,0,3.6-4.2,2-6
						c-1.6-1.9-3.2,1-3.2,1s-0.1,1.2-0.2,2.7c-0.8-0.6-1.6-1.1-2.5-1.5h-0.1l-0.2-6.1c0,0-4.9,1.6-5.8-2.5
						C4046.5-5283,4039.9-5291.6,4047.7-5294.4z"/>
				</g>
			</g>
		</g>
		<g>
			<path class="st10" d="M4069.8-5164.6c5.9,0,11.5-0.3,16.6-1c0.2,0,0.4-0.2,0.4-0.5c0-0.2-0.2-0.4-0.5-0.4
				c-11.5,1.5-25.3,1.3-41-0.6c-0.2,0-0.4,0.1-0.5,0.4c0,0.2,0.1,0.4,0.4,0.5C4054-5165.2,4062.2-5164.6,4069.8-5164.6z"/>
		</g>
	</g>
	<g>
		<g>
			<g>
				<path class="st3" d="M4010.3-5229.1c-0.5-1.2-0.2-5.1,0.3-4.7s0.9,2.5,0.9,2.5l0.2,1c0,0,0.8-0.3,0.8,0s0.3,1.6,0.3,1.6l0.1,2.5
					L4010.3-5229.1z"/>
			</g>
		</g>
		<g>
			<g>
				<polygon class="st11" points="4016.4,-5224.2 4013.4,-5235 4011,-5243.6 4007.9,-5242.5 4013.7,-5223.9 				"/>
			</g>
		</g>
		<g>
			<g>
				<path class="st3" d="M4047.2-5217.8l-2.5,9.8c0,0-25.1-9.8-26.4-10.3c0,0-3.8-3-4.6-3.6s-3.2-6.6-3.4-7.2s4.5-0.9,4.5-0.9
					s0.1-2.9,0.4-3.8c0.1-0.5,1.2-2.8,1.7-1.2l1,4.4l1.5,1.5c0.8,1.1,1.6,5.5,1.6,5.5L4047.2-5217.8z"/>
			</g>
		</g>
		<g>
			<g>
				<path class="st9" d="M4049.1-5218.1c0,0-2.6-7.4-7.6-4.4c-4.9,3-5.5-0.7-5.5-0.7l-13.3-3.7l-4.3,8.6l28.7,12.3L4049.1-5218.1z"
					/>
			</g>
		</g>
	</g>
	<g>
		<path class="st10" d="M4054.8-5219.2l0.1-0.4c2.9-10.4,9-20,14.5-28c2.5-3.5,4.9-5.1,7.2-4.7c0.2,0.1,0.4-0.1,0.5-0.3
			c0-0.2-0.1-0.4-0.3-0.5c-2.6-0.5-5.4,1.2-8,5c-5.5,8-11.6,17.5-14.5,27.9l-4.9-1.4c-0.2-0.1-0.5,0.1-0.5,0.3
			c-0.1,0.2,0.1,0.5,0.3,0.5L4054.8-5219.2z"/>
	</g>
	<g>
		<path class="st10" d="M4059.1-5203.2c0.5,0,1,0,1.5-0.1c2.5-0.4,4.3-2,5.5-3.3c1.5-1.6,2.5-3.4,3.6-5.2c0.1-0.2,0.1-0.5-0.1-0.6
			s-0.5-0.1-0.6,0.1c-1,1.7-2.1,3.5-3.5,5.1c-1.1,1.1-2.8,2.6-5,3c-2.7,0.5-5.6-0.7-7.9-1.7c-0.2-0.1-0.5,0-0.5,0.2
			c-0.1,0.2,0,0.5,0.2,0.5C4054.2-5204.2,4056.6-5203.2,4059.1-5203.2z"/>
	</g>
</g>
<path class="st12" d="M3392.1-5428.5c0,2.4,0,4.8,0,8.5c-1.8-1.5-4.4-2.9-4.2-3.6c0.6-2,2.2-3.7,3.4-5.6
	C3391.5-5429,3391.8-5428.8,3392.1-5428.5z"/>
<g>
	<g>
		<rect x="135.8" class="st0" width="15.1" height="30.7"/>
		<rect x="137.1" y="2" class="st13" width="12.1" height="26.6"/>
	</g>
	<polygon id="XMLID_508_" class="st14" points="137.2,18.9 148.6,11.8 149.1,8 137.6,16 	"/>
	<g>
		<rect x="142.5" y="13.8" width="0.3" height="0.4"/>
		<path class="st15" d="M143.1,12.7C143.1,12.6,143.1,12.6,143.1,12.7L143.1,12.7C143.1,12.6,143.1,12.6,143.1,12.7
			C143.1,12.6,143.1,12.6,143.1,12.7L143.1,12.7c-0.1,0-0.1,0-0.1,0l-0.3,1v5.6h0.4l0,0h0.4v-5.6C143.5,13.7,143.2,12.7,143.1,12.7z
			"/>
		<path class="st16" d="M143.5,13.6c-0.1-0.2-0.3-0.9-0.3-1c0,0,0,0-0.1,0v1H143.5z"/>
		<rect x="143.1" y="13.8" class="st16" width="0.4" height="0.6"/>
		<rect x="143.1" y="14.6" class="st16" width="0.4" height="0.7"/>
		<rect x="143.1" y="15.5" class="st16" width="0.4" height="1.7"/>
		<rect x="143.1" y="17.3" class="st16" width="0.4" height="1.9"/>
		<path class="st17" d="M143.3,13.1v0.5h0.2C143.4,13.5,143.4,13.3,143.3,13.1z"/>
		<rect x="143.3" y="13.8" class="st17" width="0.2" height="0.6"/>
		<rect x="143.3" y="14.6" class="st17" width="0.2" height="0.7"/>
		<rect x="143.3" y="15.5" class="st17" width="0.2" height="1.7"/>
		<rect x="143.3" y="17.3" class="st17" width="0.2" height="1.9"/>
		<polygon points="142.7,13.7 143.5,13.7 143.5,13.7 		"/>
		<polygon points="142.7,14.5 143.5,14.5 143.5,14.5 		"/>
		<polygon points="142.7,15.4 143.5,15.4 143.5,15.4 		"/>
		<polygon points="142.7,17.2 143.5,17.2 143.5,17.2 		"/>
		<rect x="140.4" y="13.8" width="0.3" height="0.4"/>
		<path class="st16" d="M140,12.7C140.1,12.6,140.1,12.6,140,12.7L140,12.7C140.1,12.6,140.1,12.6,140,12.7
			C140.1,12.6,140.1,12.6,140,12.7L140,12.7c0.1,0,0.1,0,0.1,0l0.3,1v5.6H140l0,0h-0.4v-5.6C139.7,13.7,140,12.7,140,12.7z"/>
		<path class="st17" d="M140.5,13.6c-0.1-0.2-0.3-0.9-0.3-1c0,0,0,0-0.1,0v1H140.5z"/>
		<rect x="140.1" y="13.8" class="st17" width="0.4" height="0.6"/>
		<rect x="140.1" y="17.3" class="st17" width="0.4" height="1.9"/>
		<rect x="140.1" y="15.5" class="st17" width="0.4" height="1.7"/>
		<rect x="140.1" y="14.6" class="st17" width="0.4" height="0.7"/>
		<polygon points="139.7,13.7 140.5,13.7 140.5,13.7 		"/>
		<polygon points="139.7,14.5 140.5,14.5 140.5,14.5 		"/>
		<polygon points="139.7,15.4 140.5,15.4 140.5,15.4 		"/>
		<polygon points="139.7,17.2 140.5,17.2 140.5,17.2 		"/>
		<polygon points="140.6,14.8 142.5,14.8 142.5,14.8 		"/>
		<path class="st18" d="M141.6,10.3L141.6,10.3L141.6,10.3L141.6,10.3L141.6,10.3c-0.1,0.1-1.1,1.2-1,2.9V21h1l0,0h1v-7.8
			C142.7,11.5,141.7,10.4,141.6,10.3z"/>
		<path class="st19" d="M142.1,11.1v10h0.5v-7.8C142.6,12.3,142.4,11.6,142.1,11.1z"/>
		<path class="st20" d="M141.6,13.1v-2.8c-0.1,0.1-1,1.2-1,2.8H141.6z"/>
		<rect x="140.6" y="13.3" class="st20" width="1" height="7.7"/>
		<rect x="139.1" y="20.5" class="st21" width="1.7" height="2.1"/>
		<rect x="142.4" y="20.5" class="st22" width="1.7" height="2.1"/>
		<rect x="141" y="21.9" class="st18" width="1.3" height="0.7"/>
		<polygon class="st23" points="141,21.9 141,22.5 141.1,22.3 141.1,22.4 141.2,22.2 141.4,22.5 141.4,22.3 141.5,22.4 141.5,22.3 
			141.6,22.4 141.6,22.3 141.7,22.5 141.9,22.1 142,22.5 142.1,22.3 142.1,22.5 142.2,22.1 142.2,22.5 142.3,21.9 		"/>
		<polygon class="st24" points="141,21.9 141,22.1 141,21.9 141.1,22.1 141.2,21.9 141.2,22.1 141.3,21.9 141.3,22.2 141.4,21.9 
			141.4,22 141.5,21.9 141.5,22.1 141.5,21.9 141.6,22.2 141.7,21.9 141.8,22.1 141.8,21.9 141.9,22 141.9,21.9 142,22.1 142,21.9 
			142.1,22.3 142.1,21.9 142.2,22 142.2,21.9 142.2,22 142.3,21.9 		"/>
		<g>
			<path class="st19" d="M142.6,17.7v-3l-0.8-0.8l0,0l0,0c0,0.5,0,1.1,0,1.6c0,0.3,0,0.6,0,0.9c0,0.2,0,0.3,0,0.5L142.6,17.7z"/>
			<path class="st25" d="M144.3,20.4c0,0,0-0.1-0.1-0.4c-0.1-0.2-0.2-0.3-0.2-0.3s-0.9-0.9-1.1-1.1s-0.3-0.5-0.3-0.5l-0.4-2.4h-0.6
				l0,0H141l-0.4,2.4c0,0-0.1,0.4-0.3,0.5s-1.1,1.1-1.1,1.1S139,19.8,139,20c-0.1,0.2-0.1,0.4-0.1,0.4v0.1h0.1l-0.1,0.1v0.1l2.7,0.3
				l0,0l0,0l0,0l0,0l2.7-0.3v-0.1l-0.1-0.1h0.1L144.3,20.4L144.3,20.4z"/>
			<polygon class="st22" points="140.7,20.9 140.7,21.5 140.9,21.5 141,21.9 141.5,21.9 141.5,20.9 			"/>
			<polygon class="st26" points="138.9,20.4 141.6,20.4 141.6,21.2 138.9,20.8 138.9,20.7 138.9,20.6 138.9,20.6 			"/>
			<path class="st27" d="M141,16.5l-0.3,1.8c0,0-0.1,0.3-0.2,0.4c-0.1,0.1-1.3,1.3-1.3,1.3l-0.1,0.4h2.2l-0.1-4.2L141,16.5z"/>
			<polygon class="st28" points="142.5,20.9 142.5,21.5 142.3,21.5 142.3,21.9 141.7,21.9 141.7,20.9 			"/>
			<polygon class="st25" points="144.3,20.4 141.6,20.4 141.6,21.2 144.3,20.8 144.3,20.7 144.3,20.6 144.3,20.6 			"/>
			<path class="st17" d="M142.3,16.5l0.3,1.8c0,0,0.1,0.3,0.2,0.4c0.1,0.1,1.3,1.3,1.3,1.3l0.1,0.4H142l0.1-4.2L142.3,16.5z"/>
			<path class="st25" d="M142.9,18.8c-0.1-0.1-0.1-0.1-0.2-0.2c-0.1-0.1-0.2-0.4-0.2-0.4l-0.3-1.8l-0.2-0.3l-0.1,4.2h0.9v-1.5H142.9
				z"/>
			<path class="st17" d="M142.3,20c0,0,0-3.8,0-4.2s-0.1-0.9-0.1-0.9c-0.2-1.1-0.5-1.1-0.5-1.1s-0.3,0-0.5,1.1c0,0-0.1,0.5-0.1,0.9
				s0,4.2,0,4.2c-0.3,0-0.3,0.5-0.3,0.5v0.6h0.7h0.2l0,0h0.2h0.7v-0.6C142.5,20.5,142.5,20,142.3,20z"/>
			<path class="st27" d="M142,14.4c-0.2-0.6-0.4-0.7-0.4-0.7v0.7H142z"/>
			<path class="st27" d="M142.3,20L142.3,20h-0.6v1.2h0.9v-0.7C142.5,20.5,142.5,20,142.3,20z"/>
			<path class="st27" d="M142.3,19.8c0-0.8,0-3.7,0-4c0-0.4-0.1-0.9-0.1-0.9c0-0.1,0-0.2-0.1-0.2h-0.5v5.2h0.7V19.8z"/>
			<path class="st17" d="M142.3,20L142.3,20h-0.2c0,0,0.1,0,0.1,0.1l0,0l0,0L142.3,20c-0.1,0.1,0,0.2,0,0.2s0,0.1,0,0.2v0.8h0.3
				v-0.7C142.5,20.5,142.5,20,142.3,20z"/>
			<path class="st26" d="M142.3,15.8c0-0.4-0.1-0.9-0.1-0.9c0-0.1,0-0.2-0.1-0.2H142v5.2h0.3C142.3,19.1,142.3,16.1,142.3,15.8z"/>
			<polygon class="st26" points="141.6,19.9 141.6,19.9 141.4,19.9 141.5,22.2 141.6,22.2 141.6,22.2 141.7,22.2 141.8,19.9 			"/>
			<polygon class="st28" points="142,15 141.6,14.9 141.6,14.9 141.6,14.9 141.6,14.9 141.6,14.9 141.2,15 141.1,15.3 141.2,15.3 
				141.3,15.1 141.6,15.1 141.9,15.1 142,15.3 142.1,15.3 			"/>
			<polygon class="st28" points="142,14.5 141.8,14.5 141.8,14.3 141.6,14.3 141.6,14.3 141.5,14.3 141.5,14.5 141.2,14.5 
				141.2,14.6 141.6,14.6 141.6,14.6 142,14.6 			"/>
		</g>
		<polygon points="140.6,13.2 142.5,13.2 142.5,13.2 		"/>
		<circle class="st24" cx="140.2" cy="22.1" r="0.5"/>
		<g>
			<path class="st24" d="M147,21.8c-0.1,0-0.2,0-0.2,0c0-0.1-0.1-0.1-0.1-0.2c0.1-0.1,0.2-0.2,0.2-0.4c0-0.3-0.2-0.5-0.5-0.5
				c-0.2,0-0.4,0.2-0.5,0.4c-0.1,0-0.2,0-0.3,0c-0.7,0-1.4,0.5-1.5,1.2c-0.1-0.1-0.3-0.1-0.4-0.1c-0.3,0-0.6,0.2-0.8,0.4
				c-0.2-0.5-0.7-0.9-1.4-0.9c-0.4,0-0.7,0.1-0.9,0.3c-0.2-0.6-0.7-1.1-1.4-1.1c-0.1,0-0.3,0-0.4,0.1c0,0,0,0,0-0.1
				c0-0.2-0.1-0.5-0.3-0.6c0.3,1.2,0.5,2.3,0.7,3.6l0,0c0.4,0,0.7-0.1,0.9-0.3c0.1,0.4,0.3,0.7,0.7,0.9h1.6c0.3-0.2,0.5-0.4,0.6-0.7
				c0.2,0.3,0.5,0.4,0.8,0.4c0.4,0,0.7-0.2,0.9-0.6c0.3,0.2,0.6,0.4,1,0.4c0.5,0,0.9-0.2,1.1-0.5c0.1,0,0.2,0.1,0.4,0.1
				c0.5,0,0.9-0.4,0.9-0.9C147.9,22.2,147.5,21.8,147,21.8z"/>
			<path class="st22" d="M146.9,21.9c-0.1,0-0.3,0-0.4,0.1c-0.2-0.4-0.6-0.7-1.1-0.7c-0.7,0-1.2,0.6-1.2,1.2c0,0.3,0.1,0.6,0.3,0.8
				c-0.1-0.1-0.1-0.3-0.1-0.5c0-0.7,0.5-1.2,1.2-1.2c0.4,0,0.7,0.2,0.9,0.4c-0.3,0.1-0.5,0.4-0.5,0.8c0,0.2,0.1,0.4,0.2,0.6
				c0-0.1-0.1-0.2-0.1-0.3c0-0.5,0.4-0.9,0.9-0.9c0.3,0,0.5,0.1,0.7,0.3C147.6,22.1,147.3,21.9,146.9,21.9z"/>
		</g>
	</g>
	<polygon id="XMLID_509_" class="st29" points="137.3,2.2 137.6,28.5 148.4,28.6 148.8,2.6 	"/>
	<g>
		<g>
			<g>
				<g>
					<path class="st30" d="M63.9,316.2c0.1-0.5,0.3-1.1,0.6-1.8c0.9-1.8,1.8-3.8,3.1-5.5c1.1-1.5,3.3-1.1,5-0.9
						c2.6,0.3,5.1,0.7,7.7,1c0.1,0,0.2,0,0.3,0.1c0.3,0.2,0.1,0.6,0,0.9c-1.4,2.7-2.7,5.5-4.1,8.2c-0.3,0.5-0.5,1-1,1.4
						s-1.2,0.5-1.9,0.5c-2.6,0.1-5.2-0.4-7.6-1.3C64.3,318.2,63.7,317.4,63.9,316.2z"/>
					<polygon class="st30" points="48.5,195.6 64,256.5 64.3,317.7 70.6,319.8 75.2,317.5 84.3,254.1 90.5,191.8 					"/>
				</g>
				<g>
					<path class="st30" d="M3.5,313.4c0.2-0.5,0.6-1,1.1-1.5c1.4-1.5,2.8-3.2,4.4-4.4c1.5-1.1,3.5-0.1,5,0.5c2.4,1,4.7,2.1,7.1,3.1
						c0.1,0,0.2,0.1,0.3,0.2c0.2,0.3,0,0.6-0.2,0.8c-2.1,2.3-4.1,4.5-6.2,6.8c-0.4,0.4-0.8,0.9-1.3,1.1c-0.6,0.2-1.3,0.1-1.9-0.1
						c-2.5-0.6-4.9-1.8-7-3.4C3.3,315.4,3,314.5,3.5,313.4z"/>
					<polygon class="st30" points="22.7,191 18.4,252.2 4,312.8 9.5,316.6 14.6,315.6 40.9,257.2 64.1,199 					"/>
				</g>
				<path class="st13" d="M56.2,58.7c3.1,3.2,4.9,11.8,6.4,15.7c9.6,24,17.8,48.6,25.7,73.3c4,12.4,7.8,24.8,11.8,37.2
					c0.7,2.3,8.7,29.7,9.2,29.6c-36.5,4.6-64.6,11.1-101.1,6.6c-4.2-0.5-4.6-29.5-4.9-33.2c-1.3-18.4-1.6-37,0.2-55.4
					c1.4-13.7,3.9-27.3,8.1-40.2c3.2-10.2,8.3-28.3,17.6-33.4c5-2.7,21.2-4.3,26.2-0.9C55.6,58.2,55.9,58.4,56.2,58.7z"/>
				<path class="st31" d="M77.3,57.1c-2.6,8.7-7.4,15.5-12.1,22c-11.3,15.5-22.6,31.1-33.9,46.6c-0.5,0.7-1,1.4-1.6,1.7
					c-1.1,0.6-2.3,0.3-3.4-0.1C14.5,123.4,11.9,167,0,163.1c5.4-19,2.3-84.8,9.2-102.7c5-12.9,10.6-25.7,18.8-34.3
					C36.1,17.5,54.6,6.8,64.7,11C76.9,16.1,82,41.3,77.3,57.1z"/>
				<path class="st31" d="M80.5,57.1c-2.6,8.7-7.4,15.5-12.1,22c-11.3,15.5-22.6,31.1-33.9,46.6c-0.5,0.7-1,1.4-1.6,1.7
					c-1.1,0.6-2.3,0.3-3.4-0.1c-11.8-3.9-14.4,39.7-26.3,35.8c5.4-19,2.3-84.8,9.2-102.7c5-12.9,10.6-25.7,18.8-34.3
					C39.3,17.5,57.8,6.8,67.9,11C80.2,16.1,85.2,41.3,80.5,57.1z"/>
			</g>
			<g>
				<path class="st32" d="M154.4,27.7c-0.4-1.4-0.9-2.7-1.9-3.7c-0.2-0.2-0.4-0.4-0.7-0.4c-0.4,0-0.7,0.3-1,0.6
					c-1.8,2.1-3.6,4.1-5.3,6.2c-1.2-0.6-1.3-2.7-3.1-2.4c-0.8,0.1-1.4,0.8-1.6,1.5c-0.1,0.4-0.5,0.7-0.5,1.2c0,0.4,0.3,0.8,0.5,1.1
					c4.2,6.7-11.4,12-2,17.3c1,0.6,2.5,1.1,3.3,0.3c0.3-0.3,0.4-0.6,0.6-1c1.1-2.3,2.9-4.7,5.2-6c2.7-1.5,5.4-1.6,6.9-5.9
					c0.7-2.2,0.7-4.5,0.2-6.7C154.8,29.3,154.7,28.5,154.4,27.7z"/>
				<polygon class="st13" points="75.8,127 117.2,100.5 147.2,45 137.8,40 91,80 63.9,87.4 39.5,118.8 				"/>
			</g>
		</g>
	</g>
	<g>
		<rect x="135.8" class="st0" width="15.1" height="30.7"/>
		<rect x="137.1" y="2" class="st13" width="12.1" height="26.6"/>
	</g>
	<polygon id="XMLID_6_" class="st14" points="137.2,18.9 148.6,11.8 149.1,8 137.6,16 	"/>
	<g>
		<rect x="142.5" y="13.8" width="0.3" height="0.4"/>
		<path class="st15" d="M143.1,12.7C143.1,12.6,143.1,12.6,143.1,12.7L143.1,12.7C143.1,12.6,143.1,12.6,143.1,12.7
			C143.1,12.6,143.1,12.6,143.1,12.7L143.1,12.7c-0.1,0-0.1,0-0.1,0l-0.3,1v5.6h0.4l0,0h0.4v-5.6C143.5,13.7,143.2,12.7,143.1,12.7z
			"/>
		<path class="st16" d="M143.5,13.6c-0.1-0.2-0.3-0.9-0.3-1c0,0,0,0-0.1,0v1H143.5z"/>
		<rect x="143.1" y="13.8" class="st16" width="0.4" height="0.6"/>
		<rect x="143.1" y="14.6" class="st16" width="0.4" height="0.7"/>
		<rect x="143.1" y="15.5" class="st16" width="0.4" height="1.7"/>
		<rect x="143.1" y="17.3" class="st16" width="0.4" height="1.9"/>
		<path class="st17" d="M143.3,13.1v0.5h0.2C143.4,13.5,143.4,13.3,143.3,13.1z"/>
		<rect x="143.3" y="13.8" class="st17" width="0.2" height="0.6"/>
		<rect x="143.3" y="14.6" class="st17" width="0.2" height="0.7"/>
		<rect x="143.3" y="15.5" class="st17" width="0.2" height="1.7"/>
		<rect x="143.3" y="17.3" class="st17" width="0.2" height="1.9"/>
		<polygon points="142.7,13.7 143.5,13.7 143.5,13.7 		"/>
		<polygon points="142.7,14.5 143.5,14.5 143.5,14.5 		"/>
		<polygon points="142.7,15.4 143.5,15.4 143.5,15.4 		"/>
		<polygon points="142.7,17.2 143.5,17.2 143.5,17.2 		"/>
		<rect x="140.4" y="13.8" width="0.3" height="0.4"/>
		<path class="st16" d="M140,12.7C140.1,12.6,140.1,12.6,140,12.7L140,12.7C140.1,12.6,140.1,12.6,140,12.7
			C140.1,12.6,140.1,12.6,140,12.7L140,12.7c0.1,0,0.1,0,0.1,0l0.3,1v5.6H140l0,0h-0.4v-5.6C139.7,13.7,140,12.7,140,12.7z"/>
		<path class="st17" d="M140.5,13.6c-0.1-0.2-0.3-0.9-0.3-1c0,0,0,0-0.1,0v1H140.5z"/>
		<rect x="140.1" y="13.8" class="st17" width="0.4" height="0.6"/>
		<rect x="140.1" y="17.3" class="st17" width="0.4" height="1.9"/>
		<rect x="140.1" y="15.5" class="st17" width="0.4" height="1.7"/>
		<rect x="140.1" y="14.6" class="st17" width="0.4" height="0.7"/>
		<polygon points="139.7,13.7 140.5,13.7 140.5,13.7 		"/>
		<polygon points="139.7,14.5 140.5,14.5 140.5,14.5 		"/>
		<polygon points="139.7,15.4 140.5,15.4 140.5,15.4 		"/>
		<polygon points="139.7,17.2 140.5,17.2 140.5,17.2 		"/>
		<polygon points="140.6,14.8 142.5,14.8 142.5,14.8 		"/>
		<path class="st18" d="M141.6,10.3L141.6,10.3L141.6,10.3L141.6,10.3L141.6,10.3c-0.1,0.1-1.1,1.2-1,2.9V21h1l0,0h1v-7.8
			C142.7,11.5,141.7,10.4,141.6,10.3z"/>
		<path class="st19" d="M142.1,11.1v10h0.5v-7.8C142.6,12.3,142.4,11.6,142.1,11.1z"/>
		<path class="st20" d="M141.6,13.1v-2.8c-0.1,0.1-1,1.2-1,2.8H141.6z"/>
		<rect x="140.6" y="13.3" class="st20" width="1" height="7.7"/>
		<rect x="139.1" y="20.5" class="st21" width="1.7" height="2.1"/>
		<rect x="142.4" y="20.5" class="st22" width="1.7" height="2.1"/>
		<rect x="141" y="21.9" class="st18" width="1.3" height="0.7"/>
		<polygon class="st23" points="141,21.9 141,22.5 141.1,22.3 141.1,22.4 141.2,22.2 141.4,22.5 141.4,22.3 141.5,22.4 141.5,22.3 
			141.6,22.4 141.6,22.3 141.7,22.5 141.9,22.1 142,22.5 142.1,22.3 142.1,22.5 142.2,22.1 142.2,22.5 142.3,21.9 		"/>
		<polygon class="st24" points="141,21.9 141,22.1 141,21.9 141.1,22.1 141.2,21.9 141.2,22.1 141.3,21.9 141.3,22.2 141.4,21.9 
			141.4,22 141.5,21.9 141.5,22.1 141.5,21.9 141.6,22.2 141.7,21.9 141.8,22.1 141.8,21.9 141.9,22 141.9,21.9 142,22.1 142,21.9 
			142.1,22.3 142.1,21.9 142.2,22 142.2,21.9 142.2,22 142.3,21.9 		"/>
		<g>
			<path class="st19" d="M142.6,17.7v-3l-0.8-0.8l0,0l0,0c0,0.5,0,1.1,0,1.6c0,0.3,0,0.6,0,0.9c0,0.2,0,0.3,0,0.5L142.6,17.7z"/>
			<path class="st25" d="M144.3,20.4c0,0,0-0.1-0.1-0.4c-0.1-0.2-0.2-0.3-0.2-0.3s-0.9-0.9-1.1-1.1s-0.3-0.5-0.3-0.5l-0.4-2.4h-0.6
				l0,0H141l-0.4,2.4c0,0-0.1,0.4-0.3,0.5s-1.1,1.1-1.1,1.1S139,19.8,139,20c-0.1,0.2-0.1,0.4-0.1,0.4v0.1h0.1l-0.1,0.1v0.1l2.7,0.3
				l0,0l0,0l0,0l0,0l2.7-0.3v-0.1l-0.1-0.1h0.1L144.3,20.4L144.3,20.4z"/>
			<polygon class="st22" points="140.7,20.9 140.7,21.5 140.9,21.5 141,21.9 141.5,21.9 141.5,20.9 			"/>
			<polygon class="st26" points="138.9,20.4 141.6,20.4 141.6,21.2 138.9,20.8 138.9,20.7 138.9,20.6 138.9,20.6 			"/>
			<path class="st27" d="M141,16.5l-0.3,1.8c0,0-0.1,0.3-0.2,0.4c-0.1,0.1-1.3,1.3-1.3,1.3l-0.1,0.4h2.2l-0.1-4.2L141,16.5z"/>
			<polygon class="st28" points="142.5,20.9 142.5,21.5 142.3,21.5 142.3,21.9 141.7,21.9 141.7,20.9 			"/>
			<polygon class="st25" points="144.3,20.4 141.6,20.4 141.6,21.2 144.3,20.8 144.3,20.7 144.3,20.6 144.3,20.6 			"/>
			<path class="st17" d="M142.3,16.5l0.3,1.8c0,0,0.1,0.3,0.2,0.4c0.1,0.1,1.3,1.3,1.3,1.3l0.1,0.4H142l0.1-4.2L142.3,16.5z"/>
			<path class="st25" d="M142.9,18.8c-0.1-0.1-0.1-0.1-0.2-0.2c-0.1-0.1-0.2-0.4-0.2-0.4l-0.3-1.8l-0.2-0.3l-0.1,4.2h0.9v-1.5H142.9
				z"/>
			<path class="st17" d="M142.3,20c0,0,0-3.8,0-4.2s-0.1-0.9-0.1-0.9c-0.2-1.1-0.5-1.1-0.5-1.1s-0.3,0-0.5,1.1c0,0-0.1,0.5-0.1,0.9
				s0,4.2,0,4.2c-0.3,0-0.3,0.5-0.3,0.5v0.6h0.7h0.2l0,0h0.2h0.7v-0.6C142.5,20.5,142.5,20,142.3,20z"/>
			<path class="st27" d="M142,14.4c-0.2-0.6-0.4-0.7-0.4-0.7v0.7H142z"/>
			<path class="st27" d="M142.3,20L142.3,20h-0.6v1.2h0.9v-0.7C142.5,20.5,142.5,20,142.3,20z"/>
			<path class="st27" d="M142.3,19.8c0-0.8,0-3.7,0-4c0-0.4-0.1-0.9-0.1-0.9c0-0.1,0-0.2-0.1-0.2h-0.5v5.2h0.7V19.8z"/>
			<path class="st17" d="M142.3,20L142.3,20h-0.2c0,0,0.1,0,0.1,0.1l0,0l0,0L142.3,20c-0.1,0.1,0,0.2,0,0.2s0,0.1,0,0.2v0.8h0.3
				v-0.7C142.5,20.5,142.5,20,142.3,20z"/>
			<path class="st26" d="M142.3,15.8c0-0.4-0.1-0.9-0.1-0.9c0-0.1,0-0.2-0.1-0.2H142v5.2h0.3C142.3,19.1,142.3,16.1,142.3,15.8z"/>
			<polygon class="st26" points="141.6,19.9 141.6,19.9 141.4,19.9 141.5,22.2 141.6,22.2 141.6,22.2 141.7,22.2 141.8,19.9 			"/>
			<polygon class="st28" points="142,15 141.6,14.9 141.6,14.9 141.6,14.9 141.6,14.9 141.6,14.9 141.2,15 141.1,15.3 141.2,15.3 
				141.3,15.1 141.6,15.1 141.9,15.1 142,15.3 142.1,15.3 			"/>
			<polygon class="st28" points="142,14.5 141.8,14.5 141.8,14.3 141.6,14.3 141.6,14.3 141.5,14.3 141.5,14.5 141.2,14.5 
				141.2,14.6 141.6,14.6 141.6,14.6 142,14.6 			"/>
		</g>
		<polygon points="140.6,13.2 142.5,13.2 142.5,13.2 		"/>
		<circle class="st24" cx="140.2" cy="22.1" r="0.5"/>
		<g>
			<path class="st24" d="M147,21.8c-0.1,0-0.2,0-0.2,0c0-0.1-0.1-0.1-0.1-0.2c0.1-0.1,0.2-0.2,0.2-0.4c0-0.3-0.2-0.5-0.5-0.5
				c-0.2,0-0.4,0.2-0.5,0.4c-0.1,0-0.2,0-0.3,0c-0.7,0-1.4,0.5-1.5,1.2c-0.1-0.1-0.3-0.1-0.4-0.1c-0.3,0-0.6,0.2-0.8,0.4
				c-0.2-0.5-0.7-0.9-1.4-0.9c-0.4,0-0.7,0.1-0.9,0.3c-0.2-0.6-0.7-1.1-1.4-1.1c-0.1,0-0.3,0-0.4,0.1c0,0,0,0,0-0.1
				c0-0.2-0.1-0.5-0.3-0.6c0.3,1.2,0.5,2.3,0.7,3.6l0,0c0.4,0,0.7-0.1,0.9-0.3c0.1,0.4,0.3,0.7,0.7,0.9h1.6c0.3-0.2,0.5-0.4,0.6-0.7
				c0.2,0.3,0.5,0.4,0.8,0.4c0.4,0,0.7-0.2,0.9-0.6c0.3,0.2,0.6,0.4,1,0.4c0.5,0,0.9-0.2,1.1-0.5c0.1,0,0.2,0.1,0.4,0.1
				c0.5,0,0.9-0.4,0.9-0.9C147.9,22.2,147.5,21.8,147,21.8z"/>
			<path class="st22" d="M146.9,21.9c-0.1,0-0.3,0-0.4,0.1c-0.2-0.4-0.6-0.7-1.1-0.7c-0.7,0-1.2,0.6-1.2,1.2c0,0.3,0.1,0.6,0.3,0.8
				c-0.1-0.1-0.1-0.3-0.1-0.5c0-0.7,0.5-1.2,1.2-1.2c0.4,0,0.7,0.2,0.9,0.4c-0.3,0.1-0.5,0.4-0.5,0.8c0,0.2,0.1,0.4,0.2,0.6
				c0-0.1-0.1-0.2-0.1-0.3c0-0.5,0.4-0.9,0.9-0.9c0.3,0,0.5,0.1,0.7,0.3C147.6,22.1,147.3,21.9,146.9,21.9z"/>
		</g>
	</g>
	<polygon id="XMLID_5_" class="st29" points="137.3,2.2 137.6,28.5 148.4,28.6 148.8,2.6 	"/>
	<g>
		<g>
			<g>
				<g>
					<path class="st30" d="M63.9,316.2c0.1-0.5,0.3-1.1,0.6-1.8c0.9-1.8,1.8-3.8,3.1-5.5c1.1-1.5,3.3-1.1,5-0.9
						c2.6,0.3,5.1,0.7,7.7,1c0.1,0,0.2,0,0.3,0.1c0.3,0.2,0.1,0.6,0,0.9c-1.4,2.7-2.7,5.5-4.1,8.2c-0.3,0.5-0.5,1-1,1.4
						s-1.2,0.5-1.9,0.5c-2.6,0.1-5.2-0.4-7.6-1.3C64.3,318.2,63.7,317.4,63.9,316.2z"/>
					<polygon class="st30" points="48.5,195.6 64,256.5 64.3,317.7 70.6,319.8 75.2,317.5 84.3,254.1 90.5,191.8 					"/>
				</g>
				<g>
					<path class="st30" d="M3.5,313.4c0.2-0.5,0.6-1,1.1-1.5c1.4-1.5,2.8-3.2,4.4-4.4c1.5-1.1,3.5-0.1,5,0.5c2.4,1,4.7,2.1,7.1,3.1
						c0.1,0,0.2,0.1,0.3,0.2c0.2,0.3,0,0.6-0.2,0.8c-2.1,2.3-4.1,4.5-6.2,6.8c-0.4,0.4-0.8,0.9-1.3,1.1c-0.6,0.2-1.3,0.1-1.9-0.1
						c-2.5-0.6-4.9-1.8-7-3.4C3.3,315.4,3,314.5,3.5,313.4z"/>
					<polygon class="st30" points="22.7,191 18.4,252.2 4,312.8 9.5,316.6 14.6,315.6 40.9,257.2 64.1,199 					"/>
				</g>
				<path class="st13" d="M56.2,58.7c3.1,3.2,4.9,11.8,6.4,15.7c9.6,24,17.8,48.6,25.7,73.3c4,12.4,7.8,24.8,11.8,37.2
					c0.7,2.3,8.7,29.7,9.2,29.6c-36.5,4.6-64.6,11.1-101.1,6.6c-4.2-0.5-4.6-29.5-4.9-33.2c-1.3-18.4-1.6-37,0.2-55.4
					c1.4-13.7,3.9-27.3,8.1-40.2c3.2-10.2,8.3-28.3,17.6-33.4c5-2.7,21.2-4.3,26.2-0.9C55.6,58.2,55.9,58.4,56.2,58.7z"/>
				<path class="st31" d="M77.3,57.1c-2.6,8.7-7.4,15.5-12.1,22c-11.3,15.5-22.6,31.1-33.9,46.6c-0.5,0.7-1,1.4-1.6,1.7
					c-1.1,0.6-2.3,0.3-3.4-0.1C14.5,123.4,11.9,167,0,163.1c5.4-19,2.3-84.8,9.2-102.7c5-12.9,10.6-25.7,18.8-34.3
					C36.1,17.5,54.6,6.8,64.7,11C76.9,16.1,82,41.3,77.3,57.1z"/>
				<path class="st31" d="M80.5,57.1c-2.6,8.7-7.4,15.5-12.1,22c-11.3,15.5-22.6,31.1-33.9,46.6c-0.5,0.7-1,1.4-1.6,1.7
					c-1.1,0.6-2.3,0.3-3.4-0.1c-11.8-3.9-14.4,39.7-26.3,35.8c5.4-19,2.3-84.8,9.2-102.7c5-12.9,10.6-25.7,18.8-34.3
					C39.3,17.5,57.8,6.8,67.9,11C80.2,16.1,85.2,41.3,80.5,57.1z"/>
			</g>
			<g>
				<path class="st32" d="M154.4,27.7c-0.4-1.4-0.9-2.7-1.9-3.7c-0.2-0.2-0.4-0.4-0.7-0.4c-0.4,0-0.7,0.3-1,0.6
					c-1.8,2.1-3.6,4.1-5.3,6.2c-1.2-0.6-1.3-2.7-3.1-2.4c-0.8,0.1-1.4,0.8-1.6,1.5c-0.1,0.4-0.5,0.7-0.5,1.2c0,0.4,0.3,0.8,0.5,1.1
					c4.2,6.7-11.4,12-2,17.3c1,0.6,2.5,1.1,3.3,0.3c0.3-0.3,0.4-0.6,0.6-1c1.1-2.3,2.9-4.7,5.2-6c2.7-1.5,5.4-1.6,6.9-5.9
					c0.7-2.2,0.7-4.5,0.2-6.7C154.8,29.3,154.7,28.5,154.4,27.7z"/>
				<polygon class="st13" points="75.8,127 117.2,100.5 147.2,45 137.8,40 91,80 63.9,87.4 39.5,118.8 				"/>
			</g>
		</g>
	</g>
</g>
</svg>
