<?xml version="1.0" encoding="iso-8859-1"?>
<!-- Generator: Adobe Illustrator 18.1.1, SVG Export Plug-In . SVG Version: 6.00 Build 0)  -->
<svg version="1.1" id="Capa_1" xmlns="http://www.w3.org/2000/svg" xmlns:xlink="http://www.w3.org/1999/xlink" x="0px" y="0px"
	 viewBox="0 0 17.26 17.26" style="enable-background:new 0 0 17.26 17.26;" xml:space="preserve">
<g>
	<g>
		<path style="fill:#030104;" d="M0.355,3.743h7.733L9.647,2.12c0,0-7.15,0-8.325,0s-0.98,0.848-0.98,0.848L0.355,3.743z"/>
		<path style="fill:#030104;" d="M16.604,2.022h-4.948c-0.188,0-0.366,0.081-0.491,0.222L9.236,4.426h-8.58
			C0.294,4.426,0,4.719,0,5.082v9.5c0,0.362,0.294,0.656,0.656,0.656h15.948c0.361,0,0.656-0.294,0.656-0.656V2.678
			C17.26,2.317,16.965,2.022,16.604,2.022z M15.947,13.925H1.311V5.737h8.22c0.188,0,0.367-0.081,0.492-0.222l1.928-2.182h3.996
			V13.925z"/>
	</g>
</g>
<g>
</g>
<g>
</g>
<g>
</g>
<g>
</g>
<g>
</g>
<g>
</g>
<g>
</g>
<g>
</g>
<g>
</g>
<g>
</g>
<g>
</g>
<g>
</g>
<g>
</g>
<g>
</g>
<g>
</g>
</svg>
